<?xml version="1.0" encoding="utf-8" standalone="no"?>
<!DOCTYPE svg PUBLIC "-//W3C//DTD SVG 1.1//EN"
  "http://www.w3.org/Graphics/SVG/1.1/DTD/svg11.dtd">
<!-- Created with matplotlib (https://matplotlib.org/) -->
<svg height="345.6pt" version="1.1" viewBox="0 0 460.8 345.6" width="460.8pt" xmlns="http://www.w3.org/2000/svg" xmlns:xlink="http://www.w3.org/1999/xlink">
 <metadata>
  <rdf:RDF xmlns:cc="http://creativecommons.org/ns#" xmlns:dc="http://purl.org/dc/elements/1.1/" xmlns:rdf="http://www.w3.org/1999/02/22-rdf-syntax-ns#">
   <cc:Work>
    <dc:type rdf:resource="http://purl.org/dc/dcmitype/StillImage"/>
    <dc:date>2022-05-05T12:11:04.189590</dc:date>
    <dc:format>image/svg+xml</dc:format>
    <dc:creator>
     <cc:Agent>
      <dc:title>Matplotlib v3.3.4, https://matplotlib.org/</dc:title>
     </cc:Agent>
    </dc:creator>
   </cc:Work>
  </rdf:RDF>
 </metadata>
 <defs>
  <style type="text/css">*{stroke-linecap:butt;stroke-linejoin:round;}</style>
 </defs>
 <g id="figure_1">
  <g id="patch_1">
   <path d="M 0 345.6 
L 460.8 345.6 
L 460.8 0 
L 0 0 
z
" style="fill:#262626;"/>
  </g>
  <g id="axes_1">
   <g id="patch_2">
    <path d="M 57.6 119.740235 
L 414.72 119.740235 
L 414.72 41.472 
L 57.6 41.472 
z
" style="fill:#1a1a1a;"/>
   </g>
   <g id="matplotlib.axis_1">
    <g id="xtick_1">
     <g id="line2d_1">
      <defs>
       <path d="M 0 0 
L 0 3.5 
" id="m70063df4a8" style="stroke:#ffffff;stroke-width:0.8;"/>
      </defs>
      <g>
       <use style="fill:#ffffff;stroke:#ffffff;stroke-width:0.8;" x="73.832727" xlink:href="#m70063df4a8" y="119.740235"/>
      </g>
     </g>
     <g id="text_1">
      <!-- 0 -->
      <g style="fill:#ffffff;" transform="translate(71.052259 133.98711)scale(0.1 -0.1)">
       <defs>
        <path d="M 51.703125 34.421875 
Q 51.703125 24.515625 49.828125 17.75 
Q 47.953125 10.984375 44.703125 6.8125 
Q 41.453125 2.640625 37.0625 0.828125 
Q 32.671875 -0.984375 27.6875 -0.984375 
Q 22.65625 -0.984375 18.3125 0.828125 
Q 13.96875 2.640625 10.765625 6.78125 
Q 7.5625 10.9375 5.734375 17.703125 
Q 3.90625 24.46875 3.90625 34.421875 
Q 3.90625 44.828125 5.734375 51.640625 
Q 7.5625 58.453125 10.78125 62.5 
Q 14.015625 66.546875 18.40625 68.1875 
Q 22.796875 69.828125 27.984375 69.828125 
Q 32.90625 69.828125 37.21875 68.1875 
Q 41.546875 66.546875 44.765625 62.5 
Q 48 58.453125 49.84375 51.640625 
Q 51.703125 44.828125 51.703125 34.421875 
z
M 42.78125 34.421875 
Q 42.78125 42.625 41.796875 48.0625 
Q 40.828125 53.515625 38.921875 56.765625 
Q 37.015625 60.015625 34.25 61.359375 
Q 31.5 62.703125 27.984375 62.703125 
Q 24.265625 62.703125 21.4375 61.328125 
Q 18.609375 59.96875 16.671875 56.71875 
Q 14.75 53.46875 13.765625 48.015625 
Q 12.796875 42.578125 12.796875 34.421875 
Q 12.796875 26.515625 13.796875 21.09375 
Q 14.796875 15.671875 16.71875 12.375 
Q 18.65625 9.078125 21.4375 7.640625 
Q 24.21875 6.203125 27.78125 6.203125 
Q 31.25 6.203125 34.03125 7.640625 
Q 36.8125 9.078125 38.734375 12.375 
Q 40.671875 15.671875 41.71875 21.09375 
Q 42.78125 26.515625 42.78125 34.421875 
z
" id="LiberationSans-48"/>
       </defs>
       <use xlink:href="#LiberationSans-48"/>
      </g>
     </g>
    </g>
    <g id="xtick_2">
     <g id="line2d_2">
      <g>
       <use style="fill:#ffffff;stroke:#ffffff;stroke-width:0.8;" x="138.776625" xlink:href="#m70063df4a8" y="119.740235"/>
      </g>
     </g>
     <g id="text_2">
      <!-- 200 -->
      <g style="fill:#ffffff;" transform="translate(130.435219 133.98711)scale(0.1 -0.1)">
       <defs>
        <path d="M 5.03125 0 
L 5.03125 6.203125 
Q 7.515625 11.921875 11.109375 16.28125 
Q 14.703125 20.65625 18.65625 24.1875 
Q 22.609375 27.734375 26.484375 30.765625 
Q 30.375 33.796875 33.5 36.8125 
Q 36.625 39.84375 38.546875 43.15625 
Q 40.484375 46.484375 40.484375 50.6875 
Q 40.484375 53.609375 39.59375 55.828125 
Q 38.71875 58.0625 37.0625 59.5625 
Q 35.40625 61.078125 33.078125 61.828125 
Q 30.765625 62.59375 27.9375 62.59375 
Q 25.296875 62.59375 22.96875 61.859375 
Q 20.65625 61.140625 18.84375 59.671875 
Q 17.046875 58.203125 15.890625 56.03125 
Q 14.75 53.859375 14.40625 50.984375 
L 5.421875 51.8125 
Q 5.859375 55.515625 7.46875 58.78125 
Q 9.078125 62.0625 11.90625 64.53125 
Q 14.75 67 18.71875 68.40625 
Q 22.703125 69.828125 27.9375 69.828125 
Q 33.0625 69.828125 37.0625 68.609375 
Q 41.0625 67.390625 43.8125 64.984375 
Q 46.578125 62.59375 48.046875 59.078125 
Q 49.515625 55.5625 49.515625 50.984375 
Q 49.515625 47.515625 48.265625 44.390625 
Q 47.015625 41.265625 44.9375 38.421875 
Q 42.875 35.59375 40.140625 32.953125 
Q 37.40625 30.328125 34.421875 27.8125 
Q 31.453125 25.296875 28.421875 22.828125 
Q 25.390625 20.359375 22.71875 17.859375 
Q 20.0625 15.375 17.96875 12.8125 
Q 15.875 10.25 14.703125 7.46875 
L 50.59375 7.46875 
L 50.59375 0 
z
" id="LiberationSans-50"/>
       </defs>
       <use xlink:href="#LiberationSans-50"/>
       <use x="55.615234" xlink:href="#LiberationSans-48"/>
       <use x="111.230469" xlink:href="#LiberationSans-48"/>
      </g>
     </g>
    </g>
    <g id="xtick_3">
     <g id="line2d_3">
      <g>
       <use style="fill:#ffffff;stroke:#ffffff;stroke-width:0.8;" x="203.720523" xlink:href="#m70063df4a8" y="119.740235"/>
      </g>
     </g>
     <g id="text_3">
      <!-- 400 -->
      <g style="fill:#ffffff;" transform="translate(195.379117 133.98711)scale(0.1 -0.1)">
       <defs>
        <path d="M 43.015625 15.578125 
L 43.015625 0 
L 34.71875 0 
L 34.71875 15.578125 
L 2.296875 15.578125 
L 2.296875 22.40625 
L 33.796875 68.796875 
L 43.015625 68.796875 
L 43.015625 22.515625 
L 52.6875 22.515625 
L 52.6875 15.578125 
z
M 34.71875 58.890625 
Q 34.625 58.640625 34.234375 57.9375 
Q 33.84375 57.234375 33.34375 56.34375 
Q 32.859375 55.46875 32.34375 54.5625 
Q 31.84375 53.65625 31.453125 53.078125 
L 13.8125 27.09375 
Q 13.578125 26.703125 13.109375 26.0625 
Q 12.640625 25.4375 12.15625 24.78125 
Q 11.671875 24.125 11.171875 23.484375 
Q 10.6875 22.859375 10.40625 22.515625 
L 34.71875 22.515625 
z
" id="LiberationSans-52"/>
       </defs>
       <use xlink:href="#LiberationSans-52"/>
       <use x="55.615234" xlink:href="#LiberationSans-48"/>
       <use x="111.230469" xlink:href="#LiberationSans-48"/>
      </g>
     </g>
    </g>
    <g id="xtick_4">
     <g id="line2d_4">
      <g>
       <use style="fill:#ffffff;stroke:#ffffff;stroke-width:0.8;" x="268.664421" xlink:href="#m70063df4a8" y="119.740235"/>
      </g>
     </g>
     <g id="text_4">
      <!-- 600 -->
      <g style="fill:#ffffff;" transform="translate(260.323015 133.98711)scale(0.1 -0.1)">
       <defs>
        <path d="M 51.21875 22.515625 
Q 51.21875 17.328125 49.78125 13 
Q 48.34375 8.6875 45.53125 5.578125 
Q 42.71875 2.484375 38.5625 0.75 
Q 34.421875 -0.984375 29 -0.984375 
Q 23 -0.984375 18.5 1.3125 
Q 14.015625 3.609375 11.03125 7.921875 
Q 8.0625 12.25 6.5625 18.53125 
Q 5.078125 24.8125 5.078125 32.8125 
Q 5.078125 42 6.765625 48.921875 
Q 8.453125 55.859375 11.625 60.5 
Q 14.796875 65.140625 19.359375 67.484375 
Q 23.921875 69.828125 29.6875 69.828125 
Q 33.203125 69.828125 36.28125 69.09375 
Q 39.359375 68.359375 41.875 66.71875 
Q 44.390625 65.09375 46.28125 62.40625 
Q 48.1875 59.71875 49.3125 55.8125 
L 40.921875 54.296875 
Q 39.546875 58.734375 36.546875 60.71875 
Q 33.546875 62.703125 29.59375 62.703125 
Q 25.984375 62.703125 23.046875 60.984375 
Q 20.125 59.28125 18.0625 55.875 
Q 16.015625 52.484375 14.90625 47.359375 
Q 13.8125 42.234375 13.8125 35.40625 
Q 16.21875 39.84375 20.5625 42.15625 
Q 24.90625 44.484375 30.515625 44.484375 
Q 35.203125 44.484375 39.015625 42.96875 
Q 42.828125 41.453125 45.53125 38.59375 
Q 48.25 35.75 49.734375 31.671875 
Q 51.21875 27.59375 51.21875 22.515625 
z
M 42.28125 22.125 
Q 42.28125 25.6875 41.40625 28.5625 
Q 40.53125 31.453125 38.765625 33.46875 
Q 37.015625 35.5 34.421875 36.59375 
Q 31.84375 37.703125 28.421875 37.703125 
Q 26.03125 37.703125 23.578125 36.984375 
Q 21.140625 36.28125 19.15625 34.6875 
Q 17.1875 33.109375 15.9375 30.515625 
Q 14.703125 27.9375 14.703125 24.21875 
Q 14.703125 20.40625 15.671875 17.109375 
Q 16.65625 13.8125 18.484375 11.375 
Q 20.3125 8.9375 22.890625 7.515625 
Q 25.484375 6.109375 28.71875 6.109375 
Q 31.890625 6.109375 34.40625 7.203125 
Q 36.921875 8.296875 38.671875 10.375 
Q 40.4375 12.453125 41.359375 15.421875 
Q 42.28125 18.40625 42.28125 22.125 
z
" id="LiberationSans-54"/>
       </defs>
       <use xlink:href="#LiberationSans-54"/>
       <use x="55.615234" xlink:href="#LiberationSans-48"/>
       <use x="111.230469" xlink:href="#LiberationSans-48"/>
      </g>
     </g>
    </g>
    <g id="xtick_5">
     <g id="line2d_5">
      <g>
       <use style="fill:#ffffff;stroke:#ffffff;stroke-width:0.8;" x="333.608319" xlink:href="#m70063df4a8" y="119.740235"/>
      </g>
     </g>
     <g id="text_5">
      <!-- 800 -->
      <g style="fill:#ffffff;" transform="translate(325.266913 133.98711)scale(0.1 -0.1)">
       <defs>
        <path d="M 51.265625 19.1875 
Q 51.265625 14.796875 49.875 11.109375 
Q 48.484375 7.421875 45.625 4.734375 
Q 42.78125 2.046875 38.328125 0.53125 
Q 33.890625 -0.984375 27.828125 -0.984375 
Q 21.78125 -0.984375 17.359375 0.53125 
Q 12.9375 2.046875 10.03125 4.703125 
Q 7.125 7.375 5.734375 11.0625 
Q 4.34375 14.75 4.34375 19.09375 
Q 4.34375 22.859375 5.484375 25.78125 
Q 6.640625 28.71875 8.5625 30.828125 
Q 10.5 32.953125 12.96875 34.25 
Q 15.4375 35.546875 18.0625 35.984375 
L 18.0625 36.1875 
Q 15.1875 36.859375 12.90625 38.375 
Q 10.640625 39.890625 9.09375 42.015625 
Q 7.5625 44.140625 6.75 46.71875 
Q 5.953125 49.3125 5.953125 52.203125 
Q 5.953125 55.8125 7.34375 59 
Q 8.734375 62.203125 11.46875 64.625 
Q 14.203125 67.046875 18.25 68.4375 
Q 22.3125 69.828125 27.640625 69.828125 
Q 33.25 69.828125 37.375 68.40625 
Q 41.5 67 44.203125 64.578125 
Q 46.921875 62.15625 48.234375 58.9375 
Q 49.5625 55.71875 49.5625 52.09375 
Q 49.5625 49.265625 48.75 46.671875 
Q 47.953125 44.09375 46.40625 41.96875 
Q 44.875 39.84375 42.59375 38.34375 
Q 40.328125 36.859375 37.359375 36.28125 
L 37.359375 36.078125 
Q 40.328125 35.59375 42.859375 34.296875 
Q 45.40625 33.015625 47.265625 30.890625 
Q 49.125 28.765625 50.1875 25.828125 
Q 51.265625 22.90625 51.265625 19.1875 
z
M 40.4375 51.609375 
Q 40.4375 54.203125 39.765625 56.34375 
Q 39.109375 58.5 37.59375 60.03125 
Q 36.078125 61.578125 33.640625 62.421875 
Q 31.203125 63.28125 27.640625 63.28125 
Q 24.171875 63.28125 21.78125 62.421875 
Q 19.390625 61.578125 17.84375 60.03125 
Q 16.3125 58.5 15.625 56.34375 
Q 14.9375 54.203125 14.9375 51.609375 
Q 14.9375 49.5625 15.46875 47.40625 
Q 16.015625 45.265625 17.421875 43.5 
Q 18.84375 41.75 21.328125 40.625 
Q 23.828125 39.5 27.734375 39.5 
Q 31.890625 39.5 34.40625 40.625 
Q 36.921875 41.75 38.25 43.5 
Q 39.59375 45.265625 40.015625 47.40625 
Q 40.4375 49.5625 40.4375 51.609375 
z
M 42.140625 20.015625 
Q 42.140625 22.515625 41.453125 24.828125 
Q 40.765625 27.15625 39.109375 28.9375 
Q 37.453125 30.71875 34.640625 31.8125 
Q 31.84375 32.90625 27.640625 32.90625 
Q 23.78125 32.90625 21.0625 31.8125 
Q 18.359375 30.71875 16.671875 28.90625 
Q 14.984375 27.09375 14.203125 24.71875 
Q 13.421875 22.359375 13.421875 19.828125 
Q 13.421875 16.65625 14.203125 14.03125 
Q 14.984375 11.421875 16.6875 9.546875 
Q 18.40625 7.671875 21.1875 6.640625 
Q 23.96875 5.609375 27.9375 5.609375 
Q 31.9375 5.609375 34.671875 6.640625 
Q 37.40625 7.671875 39.0625 9.546875 
Q 40.71875 11.421875 41.421875 14.078125 
Q 42.140625 16.75 42.140625 20.015625 
z
" id="LiberationSans-56"/>
       </defs>
       <use xlink:href="#LiberationSans-56"/>
       <use x="55.615234" xlink:href="#LiberationSans-48"/>
       <use x="111.230469" xlink:href="#LiberationSans-48"/>
      </g>
     </g>
    </g>
    <g id="xtick_6">
     <g id="line2d_6">
      <g>
       <use style="fill:#ffffff;stroke:#ffffff;stroke-width:0.8;" x="398.552217" xlink:href="#m70063df4a8" y="119.740235"/>
      </g>
     </g>
     <g id="text_6">
      <!-- 1000 -->
      <g style="fill:#ffffff;" transform="translate(387.430342 133.98711)scale(0.1 -0.1)">
       <defs>
        <path d="M 7.625 0 
L 7.625 7.46875 
L 25.140625 7.46875 
L 25.140625 60.40625 
L 9.625 49.3125 
L 9.625 57.625 
L 25.875 68.796875 
L 33.984375 68.796875 
L 33.984375 7.46875 
L 50.734375 7.46875 
L 50.734375 0 
z
" id="LiberationSans-49"/>
       </defs>
       <use xlink:href="#LiberationSans-49"/>
       <use x="55.615234" xlink:href="#LiberationSans-48"/>
       <use x="111.230469" xlink:href="#LiberationSans-48"/>
       <use x="166.845703" xlink:href="#LiberationSans-48"/>
      </g>
     </g>
    </g>
   </g>
   <g id="matplotlib.axis_2">
    <g id="ytick_1">
     <g id="line2d_7">
      <defs>
       <path d="M 0 0 
L -3.5 0 
" id="m51217242a4" style="stroke:#ffffff;stroke-width:0.8;"/>
      </defs>
      <g>
       <use style="fill:#ffffff;stroke:#ffffff;stroke-width:0.8;" x="57.6" xlink:href="#m51217242a4" y="87.618007"/>
      </g>
     </g>
     <g id="text_7">
      <!-- 1 -->
      <g style="fill:#ffffff;" transform="translate(45.039062 91.241444)scale(0.1 -0.1)">
       <use xlink:href="#LiberationSans-49"/>
      </g>
     </g>
    </g>
    <g id="ytick_2">
     <g id="line2d_8">
      <g>
       <use style="fill:#ffffff;stroke:#ffffff;stroke-width:0.8;" x="57.6" xlink:href="#m51217242a4" y="45.25706"/>
      </g>
     </g>
     <g id="text_8">
      <!-- 2 -->
      <g style="fill:#ffffff;" transform="translate(45.039062 48.880498)scale(0.1 -0.1)">
       <use xlink:href="#LiberationSans-50"/>
      </g>
     </g>
    </g>
    <g id="text_9">
     <!-- $z$ -->
     <g style="fill:#ffffff;" transform="translate(38.964062 83.256118)rotate(-90)scale(0.1 -0.1)">
      <defs>
       <path d="M 11.625 54.6875 
L 54.296875 54.6875 
L 52.6875 46.484375 
L 11.53125 7.171875 
L 45.515625 7.171875 
L 44.09375 0 
L -0.296875 0 
L 1.3125 8.203125 
L 42.484375 47.515625 
L 10.203125 47.515625 
z
" id="DejaVuSans-Oblique-122"/>
      </defs>
      <use transform="translate(0 0.3125)" xlink:href="#DejaVuSans-Oblique-122"/>
     </g>
    </g>
   </g>
   <g id="line2d_9">
    <path clip-path="url(#p9fe3ce1691)" d="M 73.832727 93.868477 
L 73.897671 51.866836 
L 73.962615 52.644065 
L 75.196549 66.026161 
L 76.430483 77.092607 
L 77.664417 86.244106 
L 78.898351 93.812022 
L 80.132285 100.070379 
L 81.236332 104.746141 
L 81.301276 62.636266 
L 81.366219 63.306337 
L 82.600153 74.843424 
L 83.834088 84.384124 
L 85.068022 92.273892 
L 85.197909 93.020503 
L 85.262853 51.027299 
L 85.327797 51.812881 
L 86.561731 65.338806 
L 87.795665 76.524193 
L 89.029599 85.774051 
L 90.263533 93.423305 
L 91.497467 99.748926 
L 92.731402 104.979956 
L 93.965336 109.305804 
L 95.264214 113.05321 
L 95.783765 114.354523 
L 95.848709 72.149043 
L 95.913653 72.72446 
L 97.147587 82.631827 
L 98.381521 90.824815 
L 99.615455 97.600081 
L 100.524669 101.830114 
L 100.589613 59.749253 
L 100.654557 60.44805 
L 101.888491 72.479738 
L 103.122425 82.429452 
L 103.836808 87.382487 
L 103.901752 45.445382 
L 103.966696 46.286505 
L 105.20063 60.768719 
L 106.434564 72.744918 
L 107.668498 82.648745 
L 108.902432 90.838805 
L 110.136366 97.61165 
L 111.3703 103.212516 
L 112.604234 107.844203 
L 113.578393 110.927397 
L 113.643337 68.756017 
L 113.708281 69.365196 
L 114.942215 79.853853 
L 116.176149 88.527544 
L 117.410083 95.700331 
L 118.644017 101.631934 
L 119.293456 104.329509 
L 119.3584 62.223779 
L 119.423344 62.897954 
L 120.657278 74.505708 
L 121.891212 84.104847 
L 123.125146 92.042942 
L 124.35908 98.607422 
L 124.424024 56.558628 
L 124.488968 57.289172 
L 125.722902 69.867475 
L 126.956836 80.269217 
L 128.19077 88.871033 
L 129.424704 95.984383 
L 130.658638 101.866833 
L 131.892572 106.731378 
L 132.152348 107.642929 
L 132.217291 65.50423 
L 132.282235 66.145764 
L 133.516169 77.191514 
L 134.750103 86.325898 
L 135.984038 93.879661 
L 137.217972 100.126313 
L 138.127186 104.026315 
L 138.19213 61.923602 
L 138.257074 62.600764 
L 139.491008 74.259944 
L 140.724942 83.901609 
L 141.958876 91.874873 
L 143.19281 98.468436 
L 144.426744 103.921043 
L 145.660678 108.430126 
L 146.894612 112.158954 
L 146.959556 69.97532 
L 147.0245 70.572366 
L 148.258434 80.852133 
L 149.492368 89.35308 
L 150.726302 96.383017 
L 151.960236 102.196486 
L 153.19417 107.003988 
L 154.428105 110.979596 
L 155.726982 114.423595 
L 156.506309 116.182588 
L 156.571253 73.958918 
L 156.636197 74.516327 
L 157.870131 84.113628 
L 159.104065 92.050203 
L 160.337999 98.613427 
L 161.571933 104.040945 
L 162.805867 108.52928 
L 163.780026 111.517048 
L 163.84497 69.339801 
L 163.909914 69.943171 
L 165.143848 80.331815 
L 166.377782 88.922798 
L 167.611716 96.027191 
L 168.84565 101.902233 
L 170.079584 106.760653 
L 171.313518 110.778368 
L 171.50835 111.345831 
L 171.573294 69.170287 
L 171.638237 69.775344 
L 172.872172 80.193028 
L 174.106106 88.808028 
L 175.34004 95.93228 
L 176.573974 101.823746 
L 176.703861 102.381256 
L 176.768805 60.294912 
L 176.833749 60.98828 
L 178.067683 72.926485 
L 179.301617 82.798894 
L 180.535551 90.962972 
L 181.769486 97.714331 
L 182.094205 99.287895 
L 182.159149 57.23233 
L 182.224093 57.956171 
L 183.458027 70.419056 
L 184.691961 80.725352 
L 185.925895 89.248238 
L 187.159829 96.296316 
L 187.809268 99.501643 
L 187.874212 57.443951 
L 187.939156 58.165686 
L 189.17309 70.592316 
L 190.407024 80.868631 
L 191.640958 89.366724 
L 192.874892 96.394299 
L 193.849051 101.072373 
L 193.913994 58.999052 
L 193.978938 59.705314 
L 195.212872 71.865525 
L 196.446806 81.921523 
L 197.680741 90.237422 
L 198.914675 97.114331 
L 200.148609 102.801254 
L 200.603216 104.638634 
L 200.66816 62.529828 
L 200.733104 63.200958 
L 201.967038 74.75628 
L 203.200972 84.312059 
L 204.434906 92.214298 
L 204.49985 92.590063 
L 204.564794 50.601142 
L 204.629738 51.390965 
L 205.863672 64.989898 
L 207.097606 76.23566 
L 208.33154 85.535446 
L 209.565474 93.225989 
L 210.799408 99.585754 
L 212.033342 104.845019 
L 213.267276 109.194217 
L 214.566154 112.96185 
L 215.215593 114.581242 
L 215.280537 72.373505 
L 215.345481 72.946689 
L 216.579415 82.815601 
L 217.813349 90.976789 
L 219.047283 97.725757 
L 220.281217 103.306878 
L 221.450207 107.700563 
L 221.515151 65.561291 
L 221.580095 66.202257 
L 222.814029 77.238232 
L 224.047963 86.364532 
L 225.281897 93.911609 
L 226.515831 100.152733 
L 227.749765 105.313888 
L 228.983699 109.581952 
L 229.763026 111.888436 
L 229.82797 69.707494 
L 229.892914 70.307205 
L 231.126848 80.632856 
L 232.360782 89.171747 
L 233.594716 96.233061 
L 233.854492 97.556257 
L 233.919436 55.517922 
L 233.984379 56.258821 
L 235.218313 69.015417 
L 236.452248 79.5646 
L 237.686182 88.288343 
L 238.920116 95.502522 
L 240.024162 100.892401 
L 240.089106 58.820871 
L 240.15405 59.528906 
L 241.387984 71.719643 
L 242.621918 81.800884 
L 243.855852 90.137659 
L 245.089786 97.031831 
L 246.128888 101.903268 
L 246.193832 59.821679 
L 246.258776 60.519756 
L 247.49271 72.539035 
L 248.726644 82.478488 
L 249.960578 90.69801 
L 250.804849 95.486536 
L 250.869793 53.468795 
L 250.934737 54.230084 
L 252.168671 67.337734 
L 253.402605 78.177225 
L 254.636539 87.141041 
L 255.870473 94.55375 
L 257.104407 100.683758 
L 257.81879 103.735317 
L 257.883734 61.635499 
L 257.948678 62.315528 
L 259.182612 74.024066 
L 260.416546 83.706548 
L 261.65048 91.713565 
L 262.884414 98.335041 
L 262.949358 56.288957 
L 263.014302 57.022184 
L 264.248236 69.646687 
L 265.48217 80.086634 
L 266.716104 88.720044 
L 267.950038 95.859522 
L 269.119028 101.480008 
L 269.183972 59.402631 
L 269.248916 60.104877 
L 270.48285 72.195948 
L 271.716784 82.194769 
L 272.950718 90.463386 
L 274.184652 97.301194 
L 274.834091 100.410894 
L 274.899035 58.344154 
L 274.963979 59.056933 
L 276.197913 71.32934 
L 277.431847 81.47812 
L 278.211174 86.962573 
L 278.276118 45.029647 
L 278.341062 45.874907 
L 279.574996 60.428344 
L 280.80893 72.463441 
L 282.042864 82.415975 
L 283.276798 90.646314 
L 284.510732 97.452468 
L 285.744666 103.080879 
L 286.004442 104.135568 
L 286.069386 62.031767 
L 286.134329 62.707853 
L 287.368263 74.348502 
L 288.602198 83.974844 
L 289.836132 91.935435 
L 291.070066 98.518518 
L 291.784449 101.795621 
L 291.849392 59.715104 
L 291.914336 60.414241 
L 293.14827 72.451779 
L 294.382204 82.406331 
L 295.616139 90.638339 
L 296.850073 97.445873 
L 298.084007 103.075425 
L 299.317941 107.730835 
L 299.447828 108.171377 
L 299.512772 66.02742 
L 299.577716 66.663748 
L 300.81165 77.619866 
L 302.045584 86.680128 
L 303.279518 94.172594 
L 304.318621 99.466786 
L 304.383565 57.409441 
L 304.448509 58.13152 
L 305.682443 70.564062 
L 306.916377 80.845266 
L 308.150311 89.347402 
L 309.384245 96.378321 
L 309.903796 98.96166 
L 309.96874 56.909341 
L 310.033684 57.636396 
L 311.267618 70.154615 
L 312.501552 80.50667 
L 313.735486 89.067396 
L 314.96942 96.146768 
L 316.203354 102.001118 
L 317.437288 106.842427 
L 318.671222 110.845991 
L 319.9701 114.314209 
L 320.164932 114.777172 
L 320.229876 72.567486 
L 320.29482 73.13874 
L 321.528754 82.974419 
L 322.762688 91.108125 
L 323.152351 93.371785 
L 323.217295 51.375087 
L 323.282239 52.157208 
L 324.516173 65.62355 
L 325.750107 76.759665 
L 326.984041 85.968776 
L 328.217975 93.584335 
L 329.451909 99.882092 
L 330.685843 105.090078 
L 331.335282 107.458568 
L 331.400226 65.321703 
L 331.46517 65.965054 
L 332.699104 77.042074 
L 333.933038 86.202318 
L 334.647421 90.762349 
L 334.712365 48.791614 
L 334.777309 49.599442 
L 336.011243 63.508382 
L 337.245177 75.010507 
L 338.479111 84.522294 
L 339.713045 92.388154 
L 340.946979 98.892898 
L 342.180913 104.272056 
L 342.700464 106.248496 
L 342.765408 64.123672 
L 342.830352 64.778943 
L 344.064286 76.061209 
L 345.29822 85.391182 
L 346.532154 93.106689 
L 347.766088 99.487097 
L 349.000023 104.763434 
L 349.584518 106.933704 
L 349.649462 64.802062 
L 349.714405 65.450583 
L 350.948339 76.616628 
L 352.182274 85.850491 
L 353.416208 93.486518 
L 354.650142 99.801201 
L 355.884076 105.023185 
L 356.923178 108.71305 
L 356.988122 66.563703 
L 357.053066 67.194696 
L 358.287 78.058938 
L 359.520934 87.043222 
L 359.975541 89.945943 
L 360.040485 47.983332 
L 360.105429 48.799202 
L 361.339363 62.846616 
L 362.573297 74.463254 
L 363.807231 84.069738 
L 365.041165 92.013909 
L 365.755548 95.96857 
L 365.820492 53.946033 
L 365.885436 54.702573 
L 367.11937 67.728463 
L 368.353304 78.500342 
L 369.587238 87.408245 
L 370.821172 94.774717 
L 372.055106 100.866489 
L 373.28904 105.904135 
L 374.458031 109.869974 
L 374.522974 67.709116 
L 374.587918 68.328711 
L 375.821852 78.996722 
L 377.055786 87.818732 
L 377.705225 91.830807 
L 377.770169 49.849441 
L 377.835113 50.646743 
L 379.069047 64.374458 
L 380.302981 75.726716 
L 381.536915 85.11457 
L 382.056467 88.563908 
L 382.12141 46.615048 
L 382.186354 47.444533 
L 383.420288 61.72636 
L 384.654222 73.536848 
L 385.888157 83.303639 
L 387.122091 91.380376 
L 388.356025 98.059507 
L 388.6158 99.311086 
L 388.680744 57.25529 
L 388.745688 57.978903 
L 389.979622 70.437854 
L 391.213556 80.740897 
L 392.44749 89.261093 
L 393.681424 96.306947 
L 394.915358 102.13358 
L 395.045246 102.684955 
L 395.11019 60.595589 
L 395.175134 61.285965 
L 396.409068 73.172659 
L 397.643002 83.002469 
L 398.487273 88.729117 
L 398.487273 88.729117 
" style="fill:none;stroke:#9a72ac;stroke-linecap:round;stroke-width:1.5;"/>
   </g>
   <g id="patch_3">
    <path d="M 57.6 119.740235 
L 57.6 41.472 
" style="fill:none;stroke:#ffffff;stroke-linecap:square;stroke-linejoin:miter;stroke-width:0.8;"/>
   </g>
   <g id="patch_4">
    <path d="M 414.72 119.740235 
L 414.72 41.472 
" style="fill:none;stroke:#ffffff;stroke-linecap:square;stroke-linejoin:miter;stroke-width:0.8;"/>
   </g>
   <g id="patch_5">
    <path d="M 57.6 119.740235 
L 414.72 119.740235 
" style="fill:none;stroke:#ffffff;stroke-linecap:square;stroke-linejoin:miter;stroke-width:0.8;"/>
   </g>
   <g id="patch_6">
    <path d="M 57.6 41.472 
L 414.72 41.472 
" style="fill:none;stroke:#ffffff;stroke-linecap:square;stroke-linejoin:miter;stroke-width:0.8;"/>
   </g>
  </g>
  <g id="axes_2">
   <g id="patch_7">
    <path d="M 57.6 213.662118 
L 414.72 213.662118 
L 414.72 135.393882 
L 57.6 135.393882 
z
" style="fill:#1a1a1a;"/>
   </g>
   <g id="matplotlib.axis_3">
    <g id="xtick_7">
     <g id="line2d_10">
      <g>
       <use style="fill:#ffffff;stroke:#ffffff;stroke-width:0.8;" x="73.832727" xlink:href="#m70063df4a8" y="213.662118"/>
      </g>
     </g>
     <g id="text_10">
      <!-- 0 -->
      <g style="fill:#ffffff;" transform="translate(71.052259 227.908993)scale(0.1 -0.1)">
       <use xlink:href="#LiberationSans-48"/>
      </g>
     </g>
    </g>
    <g id="xtick_8">
     <g id="line2d_11">
      <g>
       <use style="fill:#ffffff;stroke:#ffffff;stroke-width:0.8;" x="138.776625" xlink:href="#m70063df4a8" y="213.662118"/>
      </g>
     </g>
     <g id="text_11">
      <!-- 200 -->
      <g style="fill:#ffffff;" transform="translate(130.435219 227.908993)scale(0.1 -0.1)">
       <use xlink:href="#LiberationSans-50"/>
       <use x="55.615234" xlink:href="#LiberationSans-48"/>
       <use x="111.230469" xlink:href="#LiberationSans-48"/>
      </g>
     </g>
    </g>
    <g id="xtick_9">
     <g id="line2d_12">
      <g>
       <use style="fill:#ffffff;stroke:#ffffff;stroke-width:0.8;" x="203.720523" xlink:href="#m70063df4a8" y="213.662118"/>
      </g>
     </g>
     <g id="text_12">
      <!-- 400 -->
      <g style="fill:#ffffff;" transform="translate(195.379117 227.908993)scale(0.1 -0.1)">
       <use xlink:href="#LiberationSans-52"/>
       <use x="55.615234" xlink:href="#LiberationSans-48"/>
       <use x="111.230469" xlink:href="#LiberationSans-48"/>
      </g>
     </g>
    </g>
    <g id="xtick_10">
     <g id="line2d_13">
      <g>
       <use style="fill:#ffffff;stroke:#ffffff;stroke-width:0.8;" x="268.664421" xlink:href="#m70063df4a8" y="213.662118"/>
      </g>
     </g>
     <g id="text_13">
      <!-- 600 -->
      <g style="fill:#ffffff;" transform="translate(260.323015 227.908993)scale(0.1 -0.1)">
       <use xlink:href="#LiberationSans-54"/>
       <use x="55.615234" xlink:href="#LiberationSans-48"/>
       <use x="111.230469" xlink:href="#LiberationSans-48"/>
      </g>
     </g>
    </g>
    <g id="xtick_11">
     <g id="line2d_14">
      <g>
       <use style="fill:#ffffff;stroke:#ffffff;stroke-width:0.8;" x="333.608319" xlink:href="#m70063df4a8" y="213.662118"/>
      </g>
     </g>
     <g id="text_14">
      <!-- 800 -->
      <g style="fill:#ffffff;" transform="translate(325.266913 227.908993)scale(0.1 -0.1)">
       <use xlink:href="#LiberationSans-56"/>
       <use x="55.615234" xlink:href="#LiberationSans-48"/>
       <use x="111.230469" xlink:href="#LiberationSans-48"/>
      </g>
     </g>
    </g>
    <g id="xtick_12">
     <g id="line2d_15">
      <g>
       <use style="fill:#ffffff;stroke:#ffffff;stroke-width:0.8;" x="398.552217" xlink:href="#m70063df4a8" y="213.662118"/>
      </g>
     </g>
     <g id="text_15">
      <!-- 1000 -->
      <g style="fill:#ffffff;" transform="translate(387.430342 227.908993)scale(0.1 -0.1)">
       <use xlink:href="#LiberationSans-49"/>
       <use x="55.615234" xlink:href="#LiberationSans-48"/>
       <use x="111.230469" xlink:href="#LiberationSans-48"/>
       <use x="166.845703" xlink:href="#LiberationSans-48"/>
      </g>
     </g>
    </g>
    <g id="text_16">
     <!-- $t$ (ms) -->
     <g style="fill:#ffffff;" transform="translate(222.81 241.283993)scale(0.1 -0.1)">
      <defs>
       <path d="M 42.28125 54.6875 
L 40.921875 47.703125 
L 23 47.703125 
L 17.1875 18.015625 
Q 16.890625 16.359375 16.75 15.234375 
Q 16.609375 14.109375 16.609375 13.484375 
Q 16.609375 10.359375 18.484375 8.9375 
Q 20.359375 7.515625 24.515625 7.515625 
L 33.59375 7.515625 
L 32.078125 0 
L 23.484375 0 
Q 15.484375 0 11.546875 3.125 
Q 7.625 6.25 7.625 12.59375 
Q 7.625 13.71875 7.765625 15.0625 
Q 7.90625 16.40625 8.203125 18.015625 
L 14.015625 47.703125 
L 6.390625 47.703125 
L 7.8125 54.6875 
L 15.28125 54.6875 
L 18.3125 70.21875 
L 27.296875 70.21875 
L 24.3125 54.6875 
z
" id="DejaVuSans-Oblique-116"/>
       <path id="LiberationSans-32"/>
       <path d="M 6.203125 25.984375 
Q 6.203125 32.765625 7.21875 38.96875 
Q 8.25 45.171875 10.4375 50.875 
Q 12.640625 56.59375 16.0625 61.953125 
Q 19.484375 67.328125 24.21875 72.46875 
L 32.71875 72.46875 
Q 28.125 67.328125 24.78125 61.9375 
Q 21.4375 56.546875 19.28125 50.796875 
Q 17.140625 45.0625 16.09375 38.859375 
Q 15.046875 32.671875 15.046875 25.875 
Q 15.046875 19.09375 16.09375 12.890625 
Q 17.140625 6.6875 19.28125 0.921875 
Q 21.4375 -4.828125 24.78125 -10.203125 
Q 28.125 -15.578125 32.71875 -20.703125 
L 24.21875 -20.703125 
Q 19.484375 -15.578125 16.0625 -10.203125 
Q 12.640625 -4.828125 10.4375 0.875 
Q 8.25 6.59375 7.21875 12.765625 
Q 6.203125 18.953125 6.203125 25.78125 
z
" id="LiberationSans-40"/>
       <path d="M 37.5 0 
L 37.5 33.5 
Q 37.5 37.359375 37.015625 39.9375 
Q 36.53125 42.53125 35.375 44.109375 
Q 34.234375 45.703125 32.375 46.359375 
Q 30.515625 47.015625 27.828125 47.015625 
Q 25.046875 47.015625 22.796875 45.921875 
Q 20.5625 44.828125 18.96875 42.75 
Q 17.390625 40.671875 16.53125 37.625 
Q 15.671875 34.578125 15.671875 30.609375 
L 15.671875 0 
L 6.9375 0 
L 6.9375 41.546875 
Q 6.9375 43.21875 6.90625 45.046875 
Q 6.890625 46.875 6.828125 48.5 
Q 6.78125 50.140625 6.734375 51.3125 
Q 6.6875 52.484375 6.640625 52.828125 
L 14.9375 52.828125 
Q 14.984375 52.59375 15.03125 51.515625 
Q 15.09375 50.4375 15.15625 49.046875 
Q 15.234375 47.65625 15.28125 46.21875 
Q 15.328125 44.78125 15.328125 43.796875 
L 15.484375 43.796875 
Q 16.65625 46.09375 18.015625 47.953125 
Q 19.390625 49.8125 21.21875 51.09375 
Q 23.046875 52.390625 25.40625 53.09375 
Q 27.78125 53.8125 30.90625 53.8125 
Q 36.921875 53.8125 40.40625 51.421875 
Q 43.890625 49.03125 45.265625 43.796875 
L 45.40625 43.796875 
Q 46.578125 46.09375 48.046875 47.953125 
Q 49.515625 49.8125 51.46875 51.09375 
Q 53.421875 52.390625 55.859375 53.09375 
Q 58.296875 53.8125 61.421875 53.8125 
Q 65.4375 53.8125 68.328125 52.734375 
Q 71.234375 51.65625 73.09375 49.40625 
Q 74.953125 47.171875 75.828125 43.625 
Q 76.703125 40.09375 76.703125 35.203125 
L 76.703125 0 
L 68.015625 0 
L 68.015625 33.5 
Q 68.015625 37.359375 67.53125 39.9375 
Q 67.046875 42.53125 65.890625 44.109375 
Q 64.75 45.703125 62.890625 46.359375 
Q 61.03125 47.015625 58.34375 47.015625 
Q 55.5625 47.015625 53.3125 45.96875 
Q 51.078125 44.921875 49.484375 42.875 
Q 47.90625 40.828125 47.046875 37.75 
Q 46.1875 34.671875 46.1875 30.609375 
L 46.1875 0 
z
" id="LiberationSans-109"/>
       <path d="M 46.390625 14.59375 
Q 46.390625 10.890625 44.9375 7.984375 
Q 43.5 5.078125 40.765625 3.09375 
Q 38.03125 1.125 34.046875 0.0625 
Q 30.078125 -0.984375 24.953125 -0.984375 
Q 20.359375 -0.984375 16.671875 -0.265625 
Q 12.984375 0.4375 10.203125 2 
Q 7.421875 3.5625 5.53125 6.125 
Q 3.65625 8.6875 2.78125 12.40625 
L 10.546875 13.921875 
Q 11.671875 9.671875 15.1875 7.6875 
Q 18.703125 5.71875 24.953125 5.71875 
Q 27.78125 5.71875 30.140625 6.109375 
Q 32.515625 6.5 34.21875 7.453125 
Q 35.9375 8.40625 36.890625 9.984375 
Q 37.84375 11.578125 37.84375 13.921875 
Q 37.84375 16.3125 36.71875 17.84375 
Q 35.59375 19.390625 33.59375 20.40625 
Q 31.59375 21.4375 28.734375 22.1875 
Q 25.875 22.953125 22.46875 23.875 
Q 19.28125 24.703125 16.15625 25.734375 
Q 13.03125 26.765625 10.515625 28.4375 
Q 8.015625 30.125 6.453125 32.609375 
Q 4.890625 35.109375 4.890625 38.875 
Q 4.890625 46.09375 10.03125 49.875 
Q 15.1875 53.65625 25.046875 53.65625 
Q 33.796875 53.65625 38.9375 50.578125 
Q 44.09375 47.515625 45.453125 40.71875 
L 37.546875 39.75 
Q 37.109375 41.796875 35.9375 43.1875 
Q 34.765625 44.578125 33.109375 45.4375 
Q 31.453125 46.296875 29.375 46.65625 
Q 27.296875 47.015625 25.046875 47.015625 
Q 19.09375 47.015625 16.25 45.203125 
Q 13.421875 43.40625 13.421875 39.75 
Q 13.421875 37.59375 14.46875 36.203125 
Q 15.53125 34.8125 17.40625 33.859375 
Q 19.28125 32.90625 21.921875 32.203125 
Q 24.5625 31.5 27.734375 30.71875 
Q 29.828125 30.171875 32.03125 29.5625 
Q 34.234375 28.953125 36.296875 28.09375 
Q 38.375 27.25 40.203125 26.09375 
Q 42.046875 24.953125 43.40625 23.34375 
Q 44.78125 21.734375 45.578125 19.578125 
Q 46.390625 17.4375 46.390625 14.59375 
z
" id="LiberationSans-115"/>
       <path d="M 27.09375 25.78125 
Q 27.09375 18.953125 26.0625 12.765625 
Q 25.046875 6.59375 22.84375 0.875 
Q 20.65625 -4.828125 17.234375 -10.203125 
Q 13.8125 -15.578125 9.078125 -20.703125 
L 0.59375 -20.703125 
Q 5.171875 -15.578125 8.515625 -10.203125 
Q 11.859375 -4.828125 14 0.921875 
Q 16.15625 6.6875 17.203125 12.890625 
Q 18.265625 19.09375 18.265625 25.875 
Q 18.265625 32.671875 17.203125 38.859375 
Q 16.15625 45.0625 14 50.796875 
Q 11.859375 56.546875 8.515625 61.9375 
Q 5.171875 67.328125 0.59375 72.46875 
L 9.078125 72.46875 
Q 13.8125 67.328125 17.234375 61.953125 
Q 20.65625 56.59375 22.84375 50.875 
Q 25.046875 45.171875 26.0625 38.96875 
Q 27.09375 32.765625 27.09375 25.984375 
z
" id="LiberationSans-41"/>
      </defs>
      <use transform="translate(0 0.53125)" xlink:href="#DejaVuSans-Oblique-116"/>
      <use transform="translate(39.208984 0.53125)" xlink:href="#LiberationSans-32"/>
      <use transform="translate(66.992188 0.53125)" xlink:href="#LiberationSans-40"/>
      <use transform="translate(100.292969 0.53125)" xlink:href="#LiberationSans-109"/>
      <use transform="translate(183.59375 0.53125)" xlink:href="#LiberationSans-115"/>
      <use transform="translate(233.59375 0.53125)" xlink:href="#LiberationSans-41"/>
     </g>
    </g>
   </g>
   <g id="matplotlib.axis_4">
    <g id="ytick_3">
     <g id="line2d_16">
      <g>
       <use style="fill:#ffffff;stroke:#ffffff;stroke-width:0.8;" x="57.6" xlink:href="#m51217242a4" y="210.104471"/>
      </g>
     </g>
     <g id="text_17">
      <!-- 0.0 -->
      <g style="fill:#ffffff;" transform="translate(36.7 213.727908)scale(0.1 -0.1)">
       <defs>
        <path d="M 9.125 0 
L 9.125 10.6875 
L 18.65625 10.6875 
L 18.65625 0 
z
" id="LiberationSans-46"/>
       </defs>
       <use xlink:href="#LiberationSans-48"/>
       <use x="55.615234" xlink:href="#LiberationSans-46"/>
       <use x="83.398438" xlink:href="#LiberationSans-48"/>
      </g>
     </g>
    </g>
    <g id="ytick_4">
     <g id="line2d_17">
      <g>
       <use style="fill:#ffffff;stroke:#ffffff;stroke-width:0.8;" x="57.6" xlink:href="#m51217242a4" y="174.558921"/>
      </g>
     </g>
     <g id="text_18">
      <!-- 0.5 -->
      <g style="fill:#ffffff;" transform="translate(36.7 178.182359)scale(0.1 -0.1)">
       <defs>
        <path d="M 51.421875 22.40625 
Q 51.421875 17.234375 49.859375 12.9375 
Q 48.296875 8.640625 45.21875 5.53125 
Q 42.140625 2.4375 37.578125 0.71875 
Q 33.015625 -0.984375 27 -0.984375 
Q 21.578125 -0.984375 17.546875 0.28125 
Q 13.53125 1.5625 10.734375 3.78125 
Q 7.953125 6 6.3125 8.984375 
Q 4.6875 11.96875 4 15.375 
L 12.890625 16.40625 
Q 13.421875 14.453125 14.390625 12.625 
Q 15.375 10.796875 17.0625 9.34375 
Q 18.75 7.90625 21.21875 7.046875 
Q 23.6875 6.203125 27.203125 6.203125 
Q 30.609375 6.203125 33.390625 7.25 
Q 36.1875 8.296875 38.15625 10.34375 
Q 40.140625 12.40625 41.203125 15.375 
Q 42.28125 18.359375 42.28125 22.21875 
Q 42.28125 25.390625 41.25 28.046875 
Q 40.234375 30.71875 38.328125 32.640625 
Q 36.421875 34.578125 33.65625 35.640625 
Q 30.90625 36.71875 27.390625 36.71875 
Q 25.203125 36.71875 23.34375 36.328125 
Q 21.484375 35.9375 19.890625 35.25 
Q 18.3125 34.578125 17.015625 33.671875 
Q 15.71875 32.765625 14.59375 31.78125 
L 6 31.78125 
L 8.296875 68.796875 
L 47.40625 68.796875 
L 47.40625 61.328125 
L 16.3125 61.328125 
L 14.984375 39.5 
Q 17.328125 41.3125 20.84375 42.59375 
Q 24.359375 43.890625 29.203125 43.890625 
Q 34.328125 43.890625 38.421875 42.328125 
Q 42.53125 40.765625 45.40625 37.90625 
Q 48.296875 35.0625 49.859375 31.109375 
Q 51.421875 27.15625 51.421875 22.40625 
z
" id="LiberationSans-53"/>
       </defs>
       <use xlink:href="#LiberationSans-48"/>
       <use x="55.615234" xlink:href="#LiberationSans-46"/>
       <use x="83.398438" xlink:href="#LiberationSans-53"/>
      </g>
     </g>
    </g>
    <g id="ytick_5">
     <g id="line2d_18">
      <g>
       <use style="fill:#ffffff;stroke:#ffffff;stroke-width:0.8;" x="57.6" xlink:href="#m51217242a4" y="139.013372"/>
      </g>
     </g>
     <g id="text_19">
      <!-- 1.0 -->
      <g style="fill:#ffffff;" transform="translate(36.7 142.63681)scale(0.1 -0.1)">
       <use xlink:href="#LiberationSans-49"/>
       <use x="55.615234" xlink:href="#LiberationSans-46"/>
       <use x="83.398438" xlink:href="#LiberationSans-48"/>
      </g>
     </g>
    </g>
    <g id="text_20">
     <!-- $z$ -->
     <g style="fill:#ffffff;" transform="translate(30.625 177.178)rotate(-90)scale(0.1 -0.1)">
      <use transform="translate(0 0.3125)" xlink:href="#DejaVuSans-Oblique-122"/>
     </g>
    </g>
   </g>
   <g id="line2d_19">
    <path clip-path="url(#p81ef01dae7)" d="M 73.832727 176.088075 
L 75.066661 181.974302 
L 76.300595 186.841971 
L 77.534529 190.867334 
L 78.833407 194.354435 
L 80.132285 197.209432 
L 81.431163 199.546906 
L 82.794985 201.546675 
L 84.158807 203.167656 
L 85.587573 204.537547 
L 87.146226 205.725373 
L 88.834768 206.727961 
L 90.718141 207.577951 
L 92.796345 208.269841 
L 95.264214 208.849838 
L 98.251633 209.312442 
L 102.018379 209.661015 
L 107.278835 209.907196 
L 114.747383 210.042006 
L 114.812327 138.951529 
L 114.877271 139.659513 
L 116.111205 151.849369 
L 117.345139 161.929883 
L 118.579073 170.266055 
L 119.813007 177.159729 
L 121.046941 182.860516 
L 122.280875 187.574833 
L 123.514809 191.473381 
L 124.813687 194.850625 
L 126.112565 197.615678 
L 127.411443 199.879512 
L 128.775265 201.81628 
L 130.204031 203.453042 
L 131.69774 204.819687 
L 133.256394 205.947313 
L 134.944935 206.899087 
L 136.828308 207.705999 
L 138.971457 208.380153 
L 141.504269 208.937009 
L 144.621576 209.382065 
L 148.583154 209.711951 
L 154.168329 209.938371 
L 163.455306 210.064721 
L 188.069044 210.103572 
L 234.374043 210.10447 
L 234.438987 139.013372 
L 234.503931 139.72074 
L 235.737865 151.900002 
L 236.971799 161.971753 
L 238.205733 170.30068 
L 239.439667 177.188363 
L 240.673601 182.884195 
L 241.907535 187.594415 
L 243.141469 191.489574 
L 244.440347 194.863882 
L 245.739225 197.626532 
L 247.038103 199.888399 
L 248.401925 201.823484 
L 249.830691 203.458823 
L 251.3244 204.82428 
L 252.883054 205.950926 
L 254.571595 206.901873 
L 256.454968 207.708084 
L 258.598117 208.381651 
L 261.130929 208.938024 
L 264.248236 209.382693 
L 268.274757 209.716194 
L 273.924877 209.941802 
L 283.341742 210.066313 
L 308.734806 210.103706 
L 398.487273 210.104471 
L 398.487273 210.104471 
" style="fill:none;stroke:#9a72ac;stroke-linecap:round;stroke-width:1.5;"/>
   </g>
   <g id="patch_8">
    <path d="M 57.6 213.662118 
L 57.6 135.393882 
" style="fill:none;stroke:#ffffff;stroke-linecap:square;stroke-linejoin:miter;stroke-width:0.8;"/>
   </g>
   <g id="patch_9">
    <path d="M 414.72 213.662118 
L 414.72 135.393882 
" style="fill:none;stroke:#ffffff;stroke-linecap:square;stroke-linejoin:miter;stroke-width:0.8;"/>
   </g>
   <g id="patch_10">
    <path d="M 57.6 213.662118 
L 414.72 213.662118 
" style="fill:none;stroke:#ffffff;stroke-linecap:square;stroke-linejoin:miter;stroke-width:0.8;"/>
   </g>
   <g id="patch_11">
    <path d="M 57.6 135.393882 
L 414.72 135.393882 
" style="fill:none;stroke:#ffffff;stroke-linecap:square;stroke-linejoin:miter;stroke-width:0.8;"/>
   </g>
  </g>
  <g id="text_21">
   <!-- M2 - $z$ -->
   <g style="fill:#ffffff;" transform="translate(213.54 15.60825)scale(0.12 -0.12)">
    <defs>
     <path d="M 66.703125 0 
L 66.703125 45.90625 
Q 66.703125 48.390625 66.75 50.96875 
Q 66.796875 53.5625 66.890625 55.71875 
Q 67 58.203125 67.140625 60.546875 
Q 66.453125 58.0625 65.71875 55.609375 
Q 65.09375 53.515625 64.328125 51.140625 
Q 63.578125 48.78125 62.84375 46.875 
L 45.0625 0 
L 38.53125 0 
L 20.515625 46.875 
Q 20.21875 47.609375 19.890625 48.578125 
Q 19.578125 49.5625 19.203125 50.65625 
Q 18.84375 51.765625 18.46875 52.90625 
Q 18.109375 54.046875 17.78125 55.171875 
Q 16.9375 57.765625 16.15625 60.546875 
Q 16.21875 57.8125 16.3125 55.125 
Q 16.40625 52.828125 16.453125 50.3125 
Q 16.5 47.796875 16.5 45.90625 
L 16.5 0 
L 8.203125 0 
L 8.203125 68.796875 
L 20.453125 68.796875 
L 38.765625 21.09375 
Q 39.109375 20.125 39.59375 18.578125 
Q 40.09375 17.046875 40.53125 15.421875 
Q 40.96875 13.8125 41.328125 12.375 
Q 41.703125 10.9375 41.84375 10.15625 
Q 42 10.9375 42.390625 12.40625 
Q 42.78125 13.875 43.28125 15.484375 
Q 43.796875 17.09375 44.28125 18.609375 
Q 44.78125 20.125 45.171875 21.09375 
L 63.140625 68.796875 
L 75.09375 68.796875 
L 75.09375 0 
z
" id="LiberationSans-77"/>
     <path d="M 4.4375 22.65625 
L 4.4375 30.46875 
L 28.859375 30.46875 
L 28.859375 22.65625 
z
" id="LiberationSans-45"/>
    </defs>
    <use transform="translate(0 0.171875)" xlink:href="#LiberationSans-77"/>
    <use transform="translate(83.300781 0.171875)" xlink:href="#LiberationSans-50"/>
    <use transform="translate(138.916016 0.171875)" xlink:href="#LiberationSans-32"/>
    <use transform="translate(166.699219 0.171875)" xlink:href="#LiberationSans-45"/>
    <use transform="translate(200 0.171875)" xlink:href="#LiberationSans-32"/>
    <use transform="translate(227.783203 0.171875)" xlink:href="#DejaVuSans-Oblique-122"/>
   </g>
  </g>
 </g>
 <defs>
  <clipPath id="p9fe3ce1691">
   <rect height="78.268235" width="357.12" x="57.6" y="41.472"/>
  </clipPath>
  <clipPath id="p81ef01dae7">
   <rect height="78.268235" width="357.12" x="57.6" y="135.393882"/>
  </clipPath>
 </defs>
</svg>
