<?xml version="1.0" encoding="utf-8" standalone="no"?>
<!DOCTYPE svg PUBLIC "-//W3C//DTD SVG 1.1//EN"
  "http://www.w3.org/Graphics/SVG/1.1/DTD/svg11.dtd">
<!-- Created with matplotlib (https://matplotlib.org/) -->
<svg height="345.6pt" version="1.1" viewBox="0 0 460.8 345.6" width="460.8pt" xmlns="http://www.w3.org/2000/svg" xmlns:xlink="http://www.w3.org/1999/xlink">
 <metadata>
  <rdf:RDF xmlns:cc="http://creativecommons.org/ns#" xmlns:dc="http://purl.org/dc/elements/1.1/" xmlns:rdf="http://www.w3.org/1999/02/22-rdf-syntax-ns#">
   <cc:Work>
    <dc:type rdf:resource="http://purl.org/dc/dcmitype/StillImage"/>
    <dc:date>2022-05-05T12:11:04.104855</dc:date>
    <dc:format>image/svg+xml</dc:format>
    <dc:creator>
     <cc:Agent>
      <dc:title>Matplotlib v3.3.4, https://matplotlib.org/</dc:title>
     </cc:Agent>
    </dc:creator>
   </cc:Work>
  </rdf:RDF>
 </metadata>
 <defs>
  <style type="text/css">*{stroke-linecap:butt;stroke-linejoin:round;}</style>
 </defs>
 <g id="figure_1">
  <g id="patch_1">
   <path d="M 0 345.6 
L 460.8 345.6 
L 460.8 0 
L 0 0 
z
" style="fill:#262626;"/>
  </g>
  <g id="axes_1">
   <g id="patch_2">
    <path d="M 57.6 119.740235 
L 414.72 119.740235 
L 414.72 41.472 
L 57.6 41.472 
z
" style="fill:#1a1a1a;"/>
   </g>
   <g id="matplotlib.axis_1">
    <g id="xtick_1">
     <g id="line2d_1">
      <defs>
       <path d="M 0 0 
L 0 3.5 
" id="mb16b317ba4" style="stroke:#ffffff;stroke-width:0.8;"/>
      </defs>
      <g>
       <use style="fill:#ffffff;stroke:#ffffff;stroke-width:0.8;" x="73.832727" xlink:href="#mb16b317ba4" y="119.740235"/>
      </g>
     </g>
     <g id="text_1">
      <!-- 0 -->
      <g style="fill:#ffffff;" transform="translate(71.052259 133.98711)scale(0.1 -0.1)">
       <defs>
        <path d="M 51.703125 34.421875 
Q 51.703125 24.515625 49.828125 17.75 
Q 47.953125 10.984375 44.703125 6.8125 
Q 41.453125 2.640625 37.0625 0.828125 
Q 32.671875 -0.984375 27.6875 -0.984375 
Q 22.65625 -0.984375 18.3125 0.828125 
Q 13.96875 2.640625 10.765625 6.78125 
Q 7.5625 10.9375 5.734375 17.703125 
Q 3.90625 24.46875 3.90625 34.421875 
Q 3.90625 44.828125 5.734375 51.640625 
Q 7.5625 58.453125 10.78125 62.5 
Q 14.015625 66.546875 18.40625 68.1875 
Q 22.796875 69.828125 27.984375 69.828125 
Q 32.90625 69.828125 37.21875 68.1875 
Q 41.546875 66.546875 44.765625 62.5 
Q 48 58.453125 49.84375 51.640625 
Q 51.703125 44.828125 51.703125 34.421875 
z
M 42.78125 34.421875 
Q 42.78125 42.625 41.796875 48.0625 
Q 40.828125 53.515625 38.921875 56.765625 
Q 37.015625 60.015625 34.25 61.359375 
Q 31.5 62.703125 27.984375 62.703125 
Q 24.265625 62.703125 21.4375 61.328125 
Q 18.609375 59.96875 16.671875 56.71875 
Q 14.75 53.46875 13.765625 48.015625 
Q 12.796875 42.578125 12.796875 34.421875 
Q 12.796875 26.515625 13.796875 21.09375 
Q 14.796875 15.671875 16.71875 12.375 
Q 18.65625 9.078125 21.4375 7.640625 
Q 24.21875 6.203125 27.78125 6.203125 
Q 31.25 6.203125 34.03125 7.640625 
Q 36.8125 9.078125 38.734375 12.375 
Q 40.671875 15.671875 41.71875 21.09375 
Q 42.78125 26.515625 42.78125 34.421875 
z
" id="LiberationSans-48"/>
       </defs>
       <use xlink:href="#LiberationSans-48"/>
      </g>
     </g>
    </g>
    <g id="xtick_2">
     <g id="line2d_2">
      <g>
       <use style="fill:#ffffff;stroke:#ffffff;stroke-width:0.8;" x="138.776625" xlink:href="#mb16b317ba4" y="119.740235"/>
      </g>
     </g>
     <g id="text_2">
      <!-- 200 -->
      <g style="fill:#ffffff;" transform="translate(130.435219 133.98711)scale(0.1 -0.1)">
       <defs>
        <path d="M 5.03125 0 
L 5.03125 6.203125 
Q 7.515625 11.921875 11.109375 16.28125 
Q 14.703125 20.65625 18.65625 24.1875 
Q 22.609375 27.734375 26.484375 30.765625 
Q 30.375 33.796875 33.5 36.8125 
Q 36.625 39.84375 38.546875 43.15625 
Q 40.484375 46.484375 40.484375 50.6875 
Q 40.484375 53.609375 39.59375 55.828125 
Q 38.71875 58.0625 37.0625 59.5625 
Q 35.40625 61.078125 33.078125 61.828125 
Q 30.765625 62.59375 27.9375 62.59375 
Q 25.296875 62.59375 22.96875 61.859375 
Q 20.65625 61.140625 18.84375 59.671875 
Q 17.046875 58.203125 15.890625 56.03125 
Q 14.75 53.859375 14.40625 50.984375 
L 5.421875 51.8125 
Q 5.859375 55.515625 7.46875 58.78125 
Q 9.078125 62.0625 11.90625 64.53125 
Q 14.75 67 18.71875 68.40625 
Q 22.703125 69.828125 27.9375 69.828125 
Q 33.0625 69.828125 37.0625 68.609375 
Q 41.0625 67.390625 43.8125 64.984375 
Q 46.578125 62.59375 48.046875 59.078125 
Q 49.515625 55.5625 49.515625 50.984375 
Q 49.515625 47.515625 48.265625 44.390625 
Q 47.015625 41.265625 44.9375 38.421875 
Q 42.875 35.59375 40.140625 32.953125 
Q 37.40625 30.328125 34.421875 27.8125 
Q 31.453125 25.296875 28.421875 22.828125 
Q 25.390625 20.359375 22.71875 17.859375 
Q 20.0625 15.375 17.96875 12.8125 
Q 15.875 10.25 14.703125 7.46875 
L 50.59375 7.46875 
L 50.59375 0 
z
" id="LiberationSans-50"/>
       </defs>
       <use xlink:href="#LiberationSans-50"/>
       <use x="55.615234" xlink:href="#LiberationSans-48"/>
       <use x="111.230469" xlink:href="#LiberationSans-48"/>
      </g>
     </g>
    </g>
    <g id="xtick_3">
     <g id="line2d_3">
      <g>
       <use style="fill:#ffffff;stroke:#ffffff;stroke-width:0.8;" x="203.720523" xlink:href="#mb16b317ba4" y="119.740235"/>
      </g>
     </g>
     <g id="text_3">
      <!-- 400 -->
      <g style="fill:#ffffff;" transform="translate(195.379117 133.98711)scale(0.1 -0.1)">
       <defs>
        <path d="M 43.015625 15.578125 
L 43.015625 0 
L 34.71875 0 
L 34.71875 15.578125 
L 2.296875 15.578125 
L 2.296875 22.40625 
L 33.796875 68.796875 
L 43.015625 68.796875 
L 43.015625 22.515625 
L 52.6875 22.515625 
L 52.6875 15.578125 
z
M 34.71875 58.890625 
Q 34.625 58.640625 34.234375 57.9375 
Q 33.84375 57.234375 33.34375 56.34375 
Q 32.859375 55.46875 32.34375 54.5625 
Q 31.84375 53.65625 31.453125 53.078125 
L 13.8125 27.09375 
Q 13.578125 26.703125 13.109375 26.0625 
Q 12.640625 25.4375 12.15625 24.78125 
Q 11.671875 24.125 11.171875 23.484375 
Q 10.6875 22.859375 10.40625 22.515625 
L 34.71875 22.515625 
z
" id="LiberationSans-52"/>
       </defs>
       <use xlink:href="#LiberationSans-52"/>
       <use x="55.615234" xlink:href="#LiberationSans-48"/>
       <use x="111.230469" xlink:href="#LiberationSans-48"/>
      </g>
     </g>
    </g>
    <g id="xtick_4">
     <g id="line2d_4">
      <g>
       <use style="fill:#ffffff;stroke:#ffffff;stroke-width:0.8;" x="268.664421" xlink:href="#mb16b317ba4" y="119.740235"/>
      </g>
     </g>
     <g id="text_4">
      <!-- 600 -->
      <g style="fill:#ffffff;" transform="translate(260.323015 133.98711)scale(0.1 -0.1)">
       <defs>
        <path d="M 51.21875 22.515625 
Q 51.21875 17.328125 49.78125 13 
Q 48.34375 8.6875 45.53125 5.578125 
Q 42.71875 2.484375 38.5625 0.75 
Q 34.421875 -0.984375 29 -0.984375 
Q 23 -0.984375 18.5 1.3125 
Q 14.015625 3.609375 11.03125 7.921875 
Q 8.0625 12.25 6.5625 18.53125 
Q 5.078125 24.8125 5.078125 32.8125 
Q 5.078125 42 6.765625 48.921875 
Q 8.453125 55.859375 11.625 60.5 
Q 14.796875 65.140625 19.359375 67.484375 
Q 23.921875 69.828125 29.6875 69.828125 
Q 33.203125 69.828125 36.28125 69.09375 
Q 39.359375 68.359375 41.875 66.71875 
Q 44.390625 65.09375 46.28125 62.40625 
Q 48.1875 59.71875 49.3125 55.8125 
L 40.921875 54.296875 
Q 39.546875 58.734375 36.546875 60.71875 
Q 33.546875 62.703125 29.59375 62.703125 
Q 25.984375 62.703125 23.046875 60.984375 
Q 20.125 59.28125 18.0625 55.875 
Q 16.015625 52.484375 14.90625 47.359375 
Q 13.8125 42.234375 13.8125 35.40625 
Q 16.21875 39.84375 20.5625 42.15625 
Q 24.90625 44.484375 30.515625 44.484375 
Q 35.203125 44.484375 39.015625 42.96875 
Q 42.828125 41.453125 45.53125 38.59375 
Q 48.25 35.75 49.734375 31.671875 
Q 51.21875 27.59375 51.21875 22.515625 
z
M 42.28125 22.125 
Q 42.28125 25.6875 41.40625 28.5625 
Q 40.53125 31.453125 38.765625 33.46875 
Q 37.015625 35.5 34.421875 36.59375 
Q 31.84375 37.703125 28.421875 37.703125 
Q 26.03125 37.703125 23.578125 36.984375 
Q 21.140625 36.28125 19.15625 34.6875 
Q 17.1875 33.109375 15.9375 30.515625 
Q 14.703125 27.9375 14.703125 24.21875 
Q 14.703125 20.40625 15.671875 17.109375 
Q 16.65625 13.8125 18.484375 11.375 
Q 20.3125 8.9375 22.890625 7.515625 
Q 25.484375 6.109375 28.71875 6.109375 
Q 31.890625 6.109375 34.40625 7.203125 
Q 36.921875 8.296875 38.671875 10.375 
Q 40.4375 12.453125 41.359375 15.421875 
Q 42.28125 18.40625 42.28125 22.125 
z
" id="LiberationSans-54"/>
       </defs>
       <use xlink:href="#LiberationSans-54"/>
       <use x="55.615234" xlink:href="#LiberationSans-48"/>
       <use x="111.230469" xlink:href="#LiberationSans-48"/>
      </g>
     </g>
    </g>
    <g id="xtick_5">
     <g id="line2d_5">
      <g>
       <use style="fill:#ffffff;stroke:#ffffff;stroke-width:0.8;" x="333.608319" xlink:href="#mb16b317ba4" y="119.740235"/>
      </g>
     </g>
     <g id="text_5">
      <!-- 800 -->
      <g style="fill:#ffffff;" transform="translate(325.266913 133.98711)scale(0.1 -0.1)">
       <defs>
        <path d="M 51.265625 19.1875 
Q 51.265625 14.796875 49.875 11.109375 
Q 48.484375 7.421875 45.625 4.734375 
Q 42.78125 2.046875 38.328125 0.53125 
Q 33.890625 -0.984375 27.828125 -0.984375 
Q 21.78125 -0.984375 17.359375 0.53125 
Q 12.9375 2.046875 10.03125 4.703125 
Q 7.125 7.375 5.734375 11.0625 
Q 4.34375 14.75 4.34375 19.09375 
Q 4.34375 22.859375 5.484375 25.78125 
Q 6.640625 28.71875 8.5625 30.828125 
Q 10.5 32.953125 12.96875 34.25 
Q 15.4375 35.546875 18.0625 35.984375 
L 18.0625 36.1875 
Q 15.1875 36.859375 12.90625 38.375 
Q 10.640625 39.890625 9.09375 42.015625 
Q 7.5625 44.140625 6.75 46.71875 
Q 5.953125 49.3125 5.953125 52.203125 
Q 5.953125 55.8125 7.34375 59 
Q 8.734375 62.203125 11.46875 64.625 
Q 14.203125 67.046875 18.25 68.4375 
Q 22.3125 69.828125 27.640625 69.828125 
Q 33.25 69.828125 37.375 68.40625 
Q 41.5 67 44.203125 64.578125 
Q 46.921875 62.15625 48.234375 58.9375 
Q 49.5625 55.71875 49.5625 52.09375 
Q 49.5625 49.265625 48.75 46.671875 
Q 47.953125 44.09375 46.40625 41.96875 
Q 44.875 39.84375 42.59375 38.34375 
Q 40.328125 36.859375 37.359375 36.28125 
L 37.359375 36.078125 
Q 40.328125 35.59375 42.859375 34.296875 
Q 45.40625 33.015625 47.265625 30.890625 
Q 49.125 28.765625 50.1875 25.828125 
Q 51.265625 22.90625 51.265625 19.1875 
z
M 40.4375 51.609375 
Q 40.4375 54.203125 39.765625 56.34375 
Q 39.109375 58.5 37.59375 60.03125 
Q 36.078125 61.578125 33.640625 62.421875 
Q 31.203125 63.28125 27.640625 63.28125 
Q 24.171875 63.28125 21.78125 62.421875 
Q 19.390625 61.578125 17.84375 60.03125 
Q 16.3125 58.5 15.625 56.34375 
Q 14.9375 54.203125 14.9375 51.609375 
Q 14.9375 49.5625 15.46875 47.40625 
Q 16.015625 45.265625 17.421875 43.5 
Q 18.84375 41.75 21.328125 40.625 
Q 23.828125 39.5 27.734375 39.5 
Q 31.890625 39.5 34.40625 40.625 
Q 36.921875 41.75 38.25 43.5 
Q 39.59375 45.265625 40.015625 47.40625 
Q 40.4375 49.5625 40.4375 51.609375 
z
M 42.140625 20.015625 
Q 42.140625 22.515625 41.453125 24.828125 
Q 40.765625 27.15625 39.109375 28.9375 
Q 37.453125 30.71875 34.640625 31.8125 
Q 31.84375 32.90625 27.640625 32.90625 
Q 23.78125 32.90625 21.0625 31.8125 
Q 18.359375 30.71875 16.671875 28.90625 
Q 14.984375 27.09375 14.203125 24.71875 
Q 13.421875 22.359375 13.421875 19.828125 
Q 13.421875 16.65625 14.203125 14.03125 
Q 14.984375 11.421875 16.6875 9.546875 
Q 18.40625 7.671875 21.1875 6.640625 
Q 23.96875 5.609375 27.9375 5.609375 
Q 31.9375 5.609375 34.671875 6.640625 
Q 37.40625 7.671875 39.0625 9.546875 
Q 40.71875 11.421875 41.421875 14.078125 
Q 42.140625 16.75 42.140625 20.015625 
z
" id="LiberationSans-56"/>
       </defs>
       <use xlink:href="#LiberationSans-56"/>
       <use x="55.615234" xlink:href="#LiberationSans-48"/>
       <use x="111.230469" xlink:href="#LiberationSans-48"/>
      </g>
     </g>
    </g>
    <g id="xtick_6">
     <g id="line2d_6">
      <g>
       <use style="fill:#ffffff;stroke:#ffffff;stroke-width:0.8;" x="398.552217" xlink:href="#mb16b317ba4" y="119.740235"/>
      </g>
     </g>
     <g id="text_6">
      <!-- 1000 -->
      <g style="fill:#ffffff;" transform="translate(387.430342 133.98711)scale(0.1 -0.1)">
       <defs>
        <path d="M 7.625 0 
L 7.625 7.46875 
L 25.140625 7.46875 
L 25.140625 60.40625 
L 9.625 49.3125 
L 9.625 57.625 
L 25.875 68.796875 
L 33.984375 68.796875 
L 33.984375 7.46875 
L 50.734375 7.46875 
L 50.734375 0 
z
" id="LiberationSans-49"/>
       </defs>
       <use xlink:href="#LiberationSans-49"/>
       <use x="55.615234" xlink:href="#LiberationSans-48"/>
       <use x="111.230469" xlink:href="#LiberationSans-48"/>
       <use x="166.845703" xlink:href="#LiberationSans-48"/>
      </g>
     </g>
    </g>
   </g>
   <g id="matplotlib.axis_2">
    <g id="ytick_1">
     <g id="line2d_7">
      <defs>
       <path d="M 0 0 
L -3.5 0 
" id="m910575410b" style="stroke:#ffffff;stroke-width:0.8;"/>
      </defs>
      <g>
       <use style="fill:#ffffff;stroke:#ffffff;stroke-width:0.8;" x="57.6" xlink:href="#m910575410b" y="111.579073"/>
      </g>
     </g>
     <g id="text_7">
      <!-- −2 -->
      <g style="fill:#ffffff;" transform="translate(39.198437 115.202511)scale(0.1 -0.1)">
       <defs>
        <path d="M 4.9375 29.6875 
L 4.9375 36.8125 
L 53.515625 36.8125 
L 53.515625 29.6875 
z
" id="LiberationSans-8722"/>
       </defs>
       <use xlink:href="#LiberationSans-8722"/>
       <use x="58.398438" xlink:href="#LiberationSans-50"/>
      </g>
     </g>
    </g>
    <g id="ytick_2">
     <g id="line2d_8">
      <g>
       <use style="fill:#ffffff;stroke:#ffffff;stroke-width:0.8;" x="57.6" xlink:href="#m910575410b" y="70.900464"/>
      </g>
     </g>
     <g id="text_8">
      <!-- 0 -->
      <g style="fill:#ffffff;" transform="translate(45.039062 74.523902)scale(0.1 -0.1)">
       <use xlink:href="#LiberationSans-48"/>
      </g>
     </g>
    </g>
    <g id="text_9">
     <!-- $u$ -->
     <g style="fill:#ffffff;" transform="translate(33.123437 83.806118)rotate(-90)scale(0.1 -0.1)">
      <defs>
       <path d="M 6.6875 21.6875 
L 13.09375 54.6875 
L 22.125 54.6875 
L 15.71875 22.015625 
Q 15.234375 19.625 15.015625 17.921875 
Q 14.796875 16.21875 14.796875 15.09375 
Q 14.796875 10.9375 17.328125 8.65625 
Q 19.875 6.390625 24.515625 6.390625 
Q 31.734375 6.390625 37 11.265625 
Q 42.28125 16.15625 43.890625 24.421875 
L 49.90625 54.6875 
L 58.890625 54.6875 
L 48.296875 0 
L 39.3125 0 
L 41.109375 8.59375 
Q 37.3125 3.8125 32.0625 1.1875 
Q 26.8125 -1.421875 20.90625 -1.421875 
Q 13.71875 -1.421875 9.71875 2.515625 
Q 5.71875 6.453125 5.71875 13.484375 
Q 5.71875 14.9375 5.953125 17.140625 
Q 6.203125 19.34375 6.6875 21.6875 
z
" id="DejaVuSans-Oblique-117"/>
      </defs>
      <use transform="translate(0 0.3125)" xlink:href="#DejaVuSans-Oblique-117"/>
     </g>
    </g>
   </g>
   <g id="line2d_9">
    <path clip-path="url(#p7ae4831a1d)" d="M 73.832727 45.029647 
L 73.897671 116.182588 
L 73.962615 115.319703 
L 75.196549 100.462791 
L 76.430483 88.176732 
L 77.664417 78.016663 
L 78.898351 69.614702 
L 80.132285 62.666623 
L 81.236332 57.475554 
L 81.301276 80.809131 
L 81.366219 80.298218 
L 82.600153 71.501454 
L 83.834088 64.22689 
L 85.068022 58.211123 
L 85.197909 57.64185 
L 85.262853 80.973773 
L 85.327797 80.461221 
L 86.561731 71.636251 
L 87.470946 66.126517 
L 87.53589 70.077593 
L 87.600834 69.673459 
L 88.834768 62.715213 
L 89.419263 59.853138 
L 89.484207 70.623656 
L 89.549151 70.21409 
L 90.783085 63.162292 
L 91.887131 57.893732 
L 91.952075 61.926726 
L 92.017019 61.603695 
L 93.250953 56.041848 
L 94.095223 52.801628 
L 94.160167 64.48203 
L 94.225111 64.133574 
L 95.459045 58.133954 
L 95.783765 56.735601 
L 95.848709 80.076541 
L 95.913653 79.572917 
L 97.147587 70.90166 
L 98.381521 63.730885 
L 99.615455 57.800947 
L 100.524669 54.098681 
L 100.589613 77.465859 
L 100.654557 76.988212 
L 101.888491 68.764214 
L 102.083323 67.602655 
L 102.148267 74.27759 
L 102.213211 73.831667 
L 103.447145 66.153881 
L 103.836808 64.017105 
L 103.901752 87.285593 
L 103.966696 86.710238 
L 105.20063 76.803932 
L 106.434564 68.611823 
L 107.668498 61.837283 
L 108.188049 59.348144 
L 108.252993 63.671555 
L 108.317937 63.331163 
L 109.551871 57.470393 
L 109.941534 55.839304 
L 110.006478 62.631287 
L 110.071422 62.301246 
L 111.305356 56.618694 
L 111.3703 68.261115 
L 111.435244 67.875057 
L 112.669178 61.228007 
L 113.578393 57.078025 
L 113.643337 80.415558 
L 113.708281 79.90856 
L 114.747383 72.449706 
L 114.812327 65.176289 
L 114.877271 70.353831 
L 114.942215 69.94695 
L 116.176149 62.941378 
L 117.085363 58.567558 
L 117.150307 69.350868 
L 117.215251 68.953966 
L 118.449185 62.120221 
L 119.293456 58.13902 
L 119.3584 81.465996 
L 119.423344 80.948547 
L 120.657278 72.03925 
L 121.891212 64.671625 
L 122.86537 59.767189 
L 122.930314 66.967484 
L 122.995258 66.594297 
L 124.229192 60.168872 
L 124.35908 59.560833 
L 124.424024 82.873662 
L 124.488968 82.342206 
L 125.722902 73.191748 
L 126.956836 65.624694 
L 128.19077 59.36705 
L 128.580433 57.625508 
L 128.645377 61.96606 
L 128.710321 61.642638 
L 129.944255 56.074052 
L 130.009199 67.721893 
L 130.074143 67.341199 
L 131.308077 60.786529 
L 132.152348 56.967911 
L 132.217291 80.30654 
L 132.282235 79.800628 
L 133.516169 71.089967 
L 134.750103 63.886607 
L 135.659318 59.3893 
L 135.85415 69.73252 
L 135.919094 69.33182 
L 137.153028 62.432691 
L 138.127186 57.84012 
L 138.19213 81.170071 
L 138.257074 80.655566 
L 138.906513 76.198156 
L 139.815728 73.046767 
L 140.724942 70.685968 
L 140.984718 70.141858 
L 141.049662 74.635108 
L 141.114605 74.464927 
L 141.958876 72.581009 
L 142.088764 72.135346 
L 143.322698 66.543422 
L 143.647417 65.240092 
L 143.712361 69.607939 
L 143.777305 69.311541 
L 145.011239 64.20825 
L 146.245173 59.988037 
L 146.894612 58.068768 
L 146.959556 81.499505 
L 147.0245 81.084785 
L 148.258434 73.944242 
L 149.492368 68.039305 
L 150.011919 65.86968 
L 150.076863 70.231262 
L 150.141807 69.928662 
L 151.375741 64.718584 
L 152.609675 60.410063 
L 153.19417 58.637876 
L 153.259114 63.071417 
L 153.324058 62.840058 
L 154.557992 58.856599 
L 155.532151 56.204913 
L 155.597095 60.662662 
L 155.662039 60.455271 
L 156.506309 57.939703 
L 156.571253 81.371724 
L 156.636197 80.958275 
L 157.870131 73.839623 
L 159.104065 67.952789 
L 160.337999 63.084618 
L 161.571933 59.05884 
L 162.416204 56.713503 
L 162.481148 61.166191 
L 162.546092 60.95379 
L 163.780026 57.296732 
L 163.84497 85.355935 
L 163.909914 84.902842 
L 165.143848 77.101619 
L 166.377782 70.650327 
L 167.611716 65.315372 
L 168.84565 60.903582 
L 170.144528 57.081725 
L 170.33936 56.571556 
L 170.404303 61.025656 
L 170.469247 60.814654 
L 171.378462 57.657525 
L 171.50835 56.881795 
L 171.573294 80.108941 
L 171.638237 79.490594 
L 173.196891 65.788964 
L 174.235993 57.71586 
L 174.300937 69.148452 
L 174.365881 68.552591 
L 174.755545 65.88594 
L 175.989479 59.583089 
L 176.703861 56.445488 
L 176.768805 79.789315 
L 176.833749 79.288548 
L 178.067683 70.666499 
L 179.301617 63.536416 
L 179.821169 60.916641 
L 180.016 71.141442 
L 181.249934 63.929175 
L 182.094205 59.727454 
L 182.159149 83.038625 
L 182.224093 82.505528 
L 183.458027 73.326809 
L 183.587915 72.458225 
L 183.652859 76.651189 
L 183.717802 76.181647 
L 184.951737 68.097218 
L 186.185671 61.411726 
L 186.705222 58.955305 
L 186.770166 65.716284 
L 186.83511 65.355546 
L 187.809268 60.355845 
L 187.874212 83.660763 
L 187.939156 83.121475 
L 189.17309 73.836173 
L 190.407024 66.157607 
L 191.381182 61.046185 
L 191.446126 67.786359 
L 191.51107 67.405024 
L 192.745004 60.839309 
L 193.849051 55.933913 
L 193.913994 79.282831 
L 193.978938 78.787104 
L 195.212872 70.251825 
L 196.446806 63.193498 
L 197.420965 58.494953 
L 197.485909 69.278985 
L 197.550853 68.882798 
L 198.784787 62.061368 
L 200.018721 56.420325 
L 200.603216 54.100044 
L 200.66816 77.467208 
L 200.733104 76.989547 
L 201.967038 68.765319 
L 203.200972 61.964218 
L 203.850411 59.285525 
L 203.915355 63.515949 
L 203.980299 63.390446 
L 204.49985 62.502856 
L 204.564794 86.018302 
L 204.629738 85.68951 
L 205.603896 81.368774 
L 206.513111 78.272597 
L 206.707942 77.714756 
L 206.772886 82.15739 
L 206.83783 81.937096 
L 207.032662 81.094408 
L 208.266596 73.9522 
L 209.17581 69.493072 
L 209.240754 73.818601 
L 209.305698 73.480307 
L 210.539632 67.655649 
L 211.773566 62.838896 
L 213.0075 58.855637 
L 213.851771 56.535072 
L 213.916715 60.989535 
L 213.981659 60.778892 
L 215.215593 57.152098 
L 215.280537 80.591957 
L 215.345481 80.186266 
L 216.579415 73.201204 
L 217.813349 67.424842 
L 219.047283 62.648028 
L 219.436946 61.31861 
L 219.50189 65.725477 
L 219.566834 65.46771 
L 220.800768 61.029559 
L 221.450207 59.011176 
L 221.515151 82.432536 
L 221.580095 82.008532 
L 222.814029 74.708143 
L 223.6583 70.455084 
L 223.723244 74.771041 
L 223.788187 74.42327 
L 225.022122 68.435441 
L 226.256056 63.483752 
L 227.48999 59.388907 
L 228.139429 57.526652 
L 228.204373 61.971249 
L 228.269316 61.750838 
L 229.568194 57.7754 
L 229.763026 57.24473 
L 229.82797 80.683666 
L 229.892914 80.277063 
L 231.126848 73.276289 
L 232.360782 67.486935 
L 233.594716 62.699376 
L 233.854492 61.802252 
L 233.919436 85.19584 
L 233.984379 84.74434 
L 234.374043 82.128134 
L 234.503931 74.512806 
L 235.413145 69.98044 
L 235.478089 74.30112 
L 235.543033 73.958024 
L 236.452248 68.669508 
L 238.075845 56.925747 
L 238.140789 56.488607 
L 238.205733 67.966391 
L 238.270677 67.415272 
L 239.504611 57.764201 
L 240.024162 55.588216 
L 240.089106 78.940573 
L 240.15405 78.448251 
L 241.387984 69.971608 
L 242.621918 62.961769 
L 243.855852 57.16492 
L 244.245515 55.55162 
L 244.310459 66.364939 
L 244.375403 65.997748 
L 245.609337 59.67555 
L 246.128888 57.352613 
L 246.193832 80.687414 
L 246.258776 80.177711 
L 247.49271 71.4018 
L 248.726644 64.14448 
L 249.441027 60.531737 
L 249.505971 72.135223 
L 249.570915 71.710616 
L 250.804849 64.399859 
L 250.869793 87.664538 
L 250.934737 87.085412 
L 252.168671 77.114187 
L 253.402605 68.86839 
L 254.246876 64.064557 
L 254.311819 74.793171 
L 254.376763 74.342117 
L 255.610697 66.576002 
L 256.844631 60.153742 
L 257.81879 55.878611 
L 257.883734 79.228079 
L 257.948678 78.732897 
L 259.182612 70.206997 
L 260.416546 63.156427 
L 261.520592 57.888784 
L 261.585536 68.678848 
L 261.65048 68.288633 
L 262.494751 63.555474 
L 262.624638 59.587187 
L 262.884414 58.405956 
L 262.949358 81.730276 
L 263.014302 81.210197 
L 264.248236 72.255624 
L 265.48217 64.850558 
L 266.716104 58.72687 
L 266.781048 58.435679 
L 266.845992 65.649223 
L 266.910936 65.289153 
L 268.14487 59.089571 
L 268.98914 55.47782 
L 269.054084 59.839742 
L 269.119028 59.537477 
L 269.183972 82.850538 
L 269.248916 82.319312 
L 270.48285 73.172816 
L 270.612738 72.307282 
L 270.677682 75.6821 
L 270.742626 75.222201 
L 271.97656 67.303796 
L 273.210494 60.755598 
L 274.444428 55.340506 
L 274.574316 54.828075 
L 274.639259 58.891572 
L 274.704203 58.598742 
L 274.834091 58.021793 
L 274.899035 81.349936 
L 274.963979 80.833641 
L 276.197913 71.944227 
L 277.431847 64.593045 
L 278.211174 60.620429 
L 278.276118 83.922714 
L 278.341062 83.38082 
L 279.574996 74.05064 
L 280.354323 69.008563 
L 280.419266 75.669509 
L 280.48421 75.209736 
L 281.718144 67.293487 
L 282.952078 60.747074 
L 283.017022 60.435781 
L 283.081966 71.200501 
L 283.14691 70.785195 
L 284.380844 63.634573 
L 285.614778 57.721301 
L 286.004442 56.0756 
L 286.069386 79.423108 
L 286.134329 78.925985 
L 287.368263 70.366674 
L 288.602198 63.288473 
L 289.576356 58.576699 
L 289.6413 65.78884 
L 289.706244 65.427381 
L 290.940178 59.20388 
L 291.784449 55.578194 
L 291.849392 78.930651 
L 291.914336 78.438429 
L 293.14827 69.963484 
L 294.382204 62.955052 
L 294.447148 62.621789 
L 294.512092 73.364759 
L 294.577036 72.927918 
L 295.81097 65.406517 
L 297.044904 59.186626 
L 297.109848 58.89086 
L 297.174792 65.652479 
L 297.239736 65.292377 
L 298.47367 59.092237 
L 299.447828 54.964965 
L 299.512772 78.323523 
L 299.577716 77.837342 
L 300.81165 69.46641 
L 302.045584 62.543992 
L 302.175472 61.888922 
L 302.240416 68.62071 
L 302.30536 68.231073 
L 303.539294 61.522419 
L 304.318621 57.897027 
L 304.383565 81.226411 
L 304.448509 80.711346 
L 305.682443 71.843094 
L 306.916377 64.509412 
L 307.955479 59.327417 
L 308.020423 70.103166 
L 308.085367 69.698779 
L 309.319301 62.736151 
L 309.903796 59.872274 
L 309.96874 83.182004 
L 310.033684 82.64748 
L 311.267618 73.444198 
L 312.501552 65.83346 
L 313.735486 59.53969 
L 314.255037 57.227198 
L 314.319981 64.005371 
L 314.384925 63.661658 
L 315.229196 59.492549 
L 315.29414 70.266655 
L 315.359083 69.860641 
L 316.593018 62.870004 
L 317.762008 57.366691 
L 317.826952 64.590872 
L 317.891895 64.241333 
L 319.12583 58.223067 
L 320.164932 53.970547 
L 320.229876 77.339 
L 320.29482 76.862615 
L 321.528754 68.660351 
L 322.762688 61.877414 
L 323.152351 59.98968 
L 323.217295 83.298242 
L 323.282239 82.762561 
L 324.516173 73.539365 
L 325.750107 65.912159 
L 326.529434 61.790378 
L 326.594378 72.54162 
L 326.659322 72.112969 
L 327.893256 64.732588 
L 329.12719 58.629315 
L 329.192134 58.339094 
L 329.257078 69.124677 
L 329.322021 68.730025 
L 330.555956 61.935032 
L 331.335282 58.262982 
L 331.400226 81.588725 
L 331.46517 81.070054 
L 332.699104 72.139731 
L 334.062926 62.605777 
L 334.647421 57.763902 
L 334.712365 80.854474 
L 334.777309 80.100912 
L 336.011243 66.757074 
L 336.076187 73.604396 
L 336.141131 72.879687 
L 336.725626 66.582998 
L 336.79057 69.708677 
L 336.855514 69.000057 
L 338.089448 60.366008 
L 338.154392 59.955444 
L 338.219336 67.050805 
L 338.284279 66.573727 
L 338.608999 64.258603 
L 338.673943 67.610445 
L 338.738887 67.127798 
L 339.323382 62.99445 
L 339.388326 70.059572 
L 339.45327 69.552556 
L 340.687204 60.822902 
L 341.46653 56.105352 
L 341.531474 62.791625 
L 341.596418 62.356927 
L 342.700464 55.594979 
L 342.765408 78.844207 
L 342.830352 78.249782 
L 344.064286 68.015153 
L 345.233276 59.958036 
L 345.29822 70.624448 
L 345.363164 70.111812 
L 346.597098 61.285384 
L 347.376425 56.515536 
L 347.441369 68.055922 
L 347.506313 67.568843 
L 348.740247 59.182452 
L 349.584518 54.296711 
L 349.649462 85.060695 
L 349.714405 84.404416 
L 350.948339 73.104783 
L 351.467891 68.953009 
L 351.532835 72.772898 
L 351.597778 72.238884 
L 352.831713 63.044386 
L 353.416208 59.262493 
L 353.481152 62.664046 
L 353.546095 62.230617 
L 353.805871 60.5396 
L 353.870815 67.629148 
L 353.935759 67.146315 
L 355.169693 58.833039 
L 355.364525 57.65887 
L 355.429468 69.187879 
L 355.494412 68.689537 
L 356.728346 60.10922 
L 356.923178 58.897334 
L 356.988122 82.113703 
L 357.053066 81.486746 
L 358.287 70.69199 
L 359.520934 61.765167 
L 359.975541 58.881011 
L 360.040485 82.097542 
L 360.105429 81.470747 
L 361.339363 70.678759 
L 361.534195 69.154495 
L 361.599139 80.569121 
L 361.664083 79.957534 
L 362.898017 69.427393 
L 363.742287 63.292747 
L 363.807231 69.907505 
L 363.872175 69.402002 
L 365.106109 60.6984 
L 365.755548 56.740174 
L 365.820492 79.978006 
L 365.885436 79.3723 
L 366.340043 76.126421 
L 367.314202 71.406431 
L 368.28836 67.776727 
L 369.197575 65.238389 
L 369.392406 64.583102 
L 369.45735 64.23364 
L 369.522294 68.508439 
L 369.587238 68.119919 
L 370.821172 61.430499 
L 371.470611 58.388283 
L 371.600499 69.043833 
L 371.665443 68.649986 
L 372.899377 61.868842 
L 374.133311 56.261114 
L 374.458031 54.9541 
L 374.522974 78.312766 
L 374.587918 77.826692 
L 375.821852 69.457603 
L 377.055786 62.536709 
L 377.705225 59.389223 
L 377.770169 82.703759 
L 377.835113 82.173994 
L 379.069047 73.052644 
L 379.78343 68.511975 
L 379.848374 72.744204 
L 379.913318 72.313537 
L 381.147252 64.89845 
L 382.056467 60.268954 
L 382.12141 83.574737 
L 382.186354 83.036305 
L 383.420288 73.76574 
L 384.654222 66.099362 
L 385.238718 62.946018 
L 385.303661 69.667287 
L 385.368605 69.267237 
L 386.602539 62.379284 
L 387.316922 58.950414 
L 387.381866 62.972893 
L 387.44681 62.639453 
L 388.6158 57.174119 
L 388.680744 80.510696 
L 388.745688 80.002751 
L 389.979622 71.257116 
L 391.213556 64.024832 
L 392.252659 58.914485 
L 392.382546 69.559616 
L 392.44749 69.160637 
L 393.681424 62.29113 
L 394.915358 56.610328 
L 395.045246 56.072753 
L 395.11019 79.420289 
L 395.175134 78.923194 
L 396.409068 70.364366 
L 396.863675 67.599105 
L 396.928619 71.840417 
L 396.993563 71.418744 
L 398.227497 64.158492 
L 398.487273 62.798018 
L 398.487273 62.798018 
" style="fill:none;stroke:#9a72ac;stroke-linecap:round;stroke-width:1.5;"/>
   </g>
   <g id="patch_3">
    <path d="M 57.6 119.740235 
L 57.6 41.472 
" style="fill:none;stroke:#ffffff;stroke-linecap:square;stroke-linejoin:miter;stroke-width:0.8;"/>
   </g>
   <g id="patch_4">
    <path d="M 414.72 119.740235 
L 414.72 41.472 
" style="fill:none;stroke:#ffffff;stroke-linecap:square;stroke-linejoin:miter;stroke-width:0.8;"/>
   </g>
   <g id="patch_5">
    <path d="M 57.6 119.740235 
L 414.72 119.740235 
" style="fill:none;stroke:#ffffff;stroke-linecap:square;stroke-linejoin:miter;stroke-width:0.8;"/>
   </g>
   <g id="patch_6">
    <path d="M 57.6 41.472 
L 414.72 41.472 
" style="fill:none;stroke:#ffffff;stroke-linecap:square;stroke-linejoin:miter;stroke-width:0.8;"/>
   </g>
  </g>
  <g id="axes_2">
   <g id="patch_7">
    <path d="M 57.6 213.662118 
L 414.72 213.662118 
L 414.72 135.393882 
L 57.6 135.393882 
z
" style="fill:#1a1a1a;"/>
   </g>
   <g id="matplotlib.axis_3">
    <g id="xtick_7">
     <g id="line2d_10">
      <g>
       <use style="fill:#ffffff;stroke:#ffffff;stroke-width:0.8;" x="73.832727" xlink:href="#mb16b317ba4" y="213.662118"/>
      </g>
     </g>
     <g id="text_10">
      <!-- 0 -->
      <g style="fill:#ffffff;" transform="translate(71.052259 227.908993)scale(0.1 -0.1)">
       <use xlink:href="#LiberationSans-48"/>
      </g>
     </g>
    </g>
    <g id="xtick_8">
     <g id="line2d_11">
      <g>
       <use style="fill:#ffffff;stroke:#ffffff;stroke-width:0.8;" x="138.776625" xlink:href="#mb16b317ba4" y="213.662118"/>
      </g>
     </g>
     <g id="text_11">
      <!-- 200 -->
      <g style="fill:#ffffff;" transform="translate(130.435219 227.908993)scale(0.1 -0.1)">
       <use xlink:href="#LiberationSans-50"/>
       <use x="55.615234" xlink:href="#LiberationSans-48"/>
       <use x="111.230469" xlink:href="#LiberationSans-48"/>
      </g>
     </g>
    </g>
    <g id="xtick_9">
     <g id="line2d_12">
      <g>
       <use style="fill:#ffffff;stroke:#ffffff;stroke-width:0.8;" x="203.720523" xlink:href="#mb16b317ba4" y="213.662118"/>
      </g>
     </g>
     <g id="text_12">
      <!-- 400 -->
      <g style="fill:#ffffff;" transform="translate(195.379117 227.908993)scale(0.1 -0.1)">
       <use xlink:href="#LiberationSans-52"/>
       <use x="55.615234" xlink:href="#LiberationSans-48"/>
       <use x="111.230469" xlink:href="#LiberationSans-48"/>
      </g>
     </g>
    </g>
    <g id="xtick_10">
     <g id="line2d_13">
      <g>
       <use style="fill:#ffffff;stroke:#ffffff;stroke-width:0.8;" x="268.664421" xlink:href="#mb16b317ba4" y="213.662118"/>
      </g>
     </g>
     <g id="text_13">
      <!-- 600 -->
      <g style="fill:#ffffff;" transform="translate(260.323015 227.908993)scale(0.1 -0.1)">
       <use xlink:href="#LiberationSans-54"/>
       <use x="55.615234" xlink:href="#LiberationSans-48"/>
       <use x="111.230469" xlink:href="#LiberationSans-48"/>
      </g>
     </g>
    </g>
    <g id="xtick_11">
     <g id="line2d_14">
      <g>
       <use style="fill:#ffffff;stroke:#ffffff;stroke-width:0.8;" x="333.608319" xlink:href="#mb16b317ba4" y="213.662118"/>
      </g>
     </g>
     <g id="text_14">
      <!-- 800 -->
      <g style="fill:#ffffff;" transform="translate(325.266913 227.908993)scale(0.1 -0.1)">
       <use xlink:href="#LiberationSans-56"/>
       <use x="55.615234" xlink:href="#LiberationSans-48"/>
       <use x="111.230469" xlink:href="#LiberationSans-48"/>
      </g>
     </g>
    </g>
    <g id="xtick_12">
     <g id="line2d_15">
      <g>
       <use style="fill:#ffffff;stroke:#ffffff;stroke-width:0.8;" x="398.552217" xlink:href="#mb16b317ba4" y="213.662118"/>
      </g>
     </g>
     <g id="text_15">
      <!-- 1000 -->
      <g style="fill:#ffffff;" transform="translate(387.430342 227.908993)scale(0.1 -0.1)">
       <use xlink:href="#LiberationSans-49"/>
       <use x="55.615234" xlink:href="#LiberationSans-48"/>
       <use x="111.230469" xlink:href="#LiberationSans-48"/>
       <use x="166.845703" xlink:href="#LiberationSans-48"/>
      </g>
     </g>
    </g>
    <g id="text_16">
     <!-- $t$ (ms) -->
     <g style="fill:#ffffff;" transform="translate(222.81 241.283993)scale(0.1 -0.1)">
      <defs>
       <path d="M 42.28125 54.6875 
L 40.921875 47.703125 
L 23 47.703125 
L 17.1875 18.015625 
Q 16.890625 16.359375 16.75 15.234375 
Q 16.609375 14.109375 16.609375 13.484375 
Q 16.609375 10.359375 18.484375 8.9375 
Q 20.359375 7.515625 24.515625 7.515625 
L 33.59375 7.515625 
L 32.078125 0 
L 23.484375 0 
Q 15.484375 0 11.546875 3.125 
Q 7.625 6.25 7.625 12.59375 
Q 7.625 13.71875 7.765625 15.0625 
Q 7.90625 16.40625 8.203125 18.015625 
L 14.015625 47.703125 
L 6.390625 47.703125 
L 7.8125 54.6875 
L 15.28125 54.6875 
L 18.3125 70.21875 
L 27.296875 70.21875 
L 24.3125 54.6875 
z
" id="DejaVuSans-Oblique-116"/>
       <path id="LiberationSans-32"/>
       <path d="M 6.203125 25.984375 
Q 6.203125 32.765625 7.21875 38.96875 
Q 8.25 45.171875 10.4375 50.875 
Q 12.640625 56.59375 16.0625 61.953125 
Q 19.484375 67.328125 24.21875 72.46875 
L 32.71875 72.46875 
Q 28.125 67.328125 24.78125 61.9375 
Q 21.4375 56.546875 19.28125 50.796875 
Q 17.140625 45.0625 16.09375 38.859375 
Q 15.046875 32.671875 15.046875 25.875 
Q 15.046875 19.09375 16.09375 12.890625 
Q 17.140625 6.6875 19.28125 0.921875 
Q 21.4375 -4.828125 24.78125 -10.203125 
Q 28.125 -15.578125 32.71875 -20.703125 
L 24.21875 -20.703125 
Q 19.484375 -15.578125 16.0625 -10.203125 
Q 12.640625 -4.828125 10.4375 0.875 
Q 8.25 6.59375 7.21875 12.765625 
Q 6.203125 18.953125 6.203125 25.78125 
z
" id="LiberationSans-40"/>
       <path d="M 37.5 0 
L 37.5 33.5 
Q 37.5 37.359375 37.015625 39.9375 
Q 36.53125 42.53125 35.375 44.109375 
Q 34.234375 45.703125 32.375 46.359375 
Q 30.515625 47.015625 27.828125 47.015625 
Q 25.046875 47.015625 22.796875 45.921875 
Q 20.5625 44.828125 18.96875 42.75 
Q 17.390625 40.671875 16.53125 37.625 
Q 15.671875 34.578125 15.671875 30.609375 
L 15.671875 0 
L 6.9375 0 
L 6.9375 41.546875 
Q 6.9375 43.21875 6.90625 45.046875 
Q 6.890625 46.875 6.828125 48.5 
Q 6.78125 50.140625 6.734375 51.3125 
Q 6.6875 52.484375 6.640625 52.828125 
L 14.9375 52.828125 
Q 14.984375 52.59375 15.03125 51.515625 
Q 15.09375 50.4375 15.15625 49.046875 
Q 15.234375 47.65625 15.28125 46.21875 
Q 15.328125 44.78125 15.328125 43.796875 
L 15.484375 43.796875 
Q 16.65625 46.09375 18.015625 47.953125 
Q 19.390625 49.8125 21.21875 51.09375 
Q 23.046875 52.390625 25.40625 53.09375 
Q 27.78125 53.8125 30.90625 53.8125 
Q 36.921875 53.8125 40.40625 51.421875 
Q 43.890625 49.03125 45.265625 43.796875 
L 45.40625 43.796875 
Q 46.578125 46.09375 48.046875 47.953125 
Q 49.515625 49.8125 51.46875 51.09375 
Q 53.421875 52.390625 55.859375 53.09375 
Q 58.296875 53.8125 61.421875 53.8125 
Q 65.4375 53.8125 68.328125 52.734375 
Q 71.234375 51.65625 73.09375 49.40625 
Q 74.953125 47.171875 75.828125 43.625 
Q 76.703125 40.09375 76.703125 35.203125 
L 76.703125 0 
L 68.015625 0 
L 68.015625 33.5 
Q 68.015625 37.359375 67.53125 39.9375 
Q 67.046875 42.53125 65.890625 44.109375 
Q 64.75 45.703125 62.890625 46.359375 
Q 61.03125 47.015625 58.34375 47.015625 
Q 55.5625 47.015625 53.3125 45.96875 
Q 51.078125 44.921875 49.484375 42.875 
Q 47.90625 40.828125 47.046875 37.75 
Q 46.1875 34.671875 46.1875 30.609375 
L 46.1875 0 
z
" id="LiberationSans-109"/>
       <path d="M 46.390625 14.59375 
Q 46.390625 10.890625 44.9375 7.984375 
Q 43.5 5.078125 40.765625 3.09375 
Q 38.03125 1.125 34.046875 0.0625 
Q 30.078125 -0.984375 24.953125 -0.984375 
Q 20.359375 -0.984375 16.671875 -0.265625 
Q 12.984375 0.4375 10.203125 2 
Q 7.421875 3.5625 5.53125 6.125 
Q 3.65625 8.6875 2.78125 12.40625 
L 10.546875 13.921875 
Q 11.671875 9.671875 15.1875 7.6875 
Q 18.703125 5.71875 24.953125 5.71875 
Q 27.78125 5.71875 30.140625 6.109375 
Q 32.515625 6.5 34.21875 7.453125 
Q 35.9375 8.40625 36.890625 9.984375 
Q 37.84375 11.578125 37.84375 13.921875 
Q 37.84375 16.3125 36.71875 17.84375 
Q 35.59375 19.390625 33.59375 20.40625 
Q 31.59375 21.4375 28.734375 22.1875 
Q 25.875 22.953125 22.46875 23.875 
Q 19.28125 24.703125 16.15625 25.734375 
Q 13.03125 26.765625 10.515625 28.4375 
Q 8.015625 30.125 6.453125 32.609375 
Q 4.890625 35.109375 4.890625 38.875 
Q 4.890625 46.09375 10.03125 49.875 
Q 15.1875 53.65625 25.046875 53.65625 
Q 33.796875 53.65625 38.9375 50.578125 
Q 44.09375 47.515625 45.453125 40.71875 
L 37.546875 39.75 
Q 37.109375 41.796875 35.9375 43.1875 
Q 34.765625 44.578125 33.109375 45.4375 
Q 31.453125 46.296875 29.375 46.65625 
Q 27.296875 47.015625 25.046875 47.015625 
Q 19.09375 47.015625 16.25 45.203125 
Q 13.421875 43.40625 13.421875 39.75 
Q 13.421875 37.59375 14.46875 36.203125 
Q 15.53125 34.8125 17.40625 33.859375 
Q 19.28125 32.90625 21.921875 32.203125 
Q 24.5625 31.5 27.734375 30.71875 
Q 29.828125 30.171875 32.03125 29.5625 
Q 34.234375 28.953125 36.296875 28.09375 
Q 38.375 27.25 40.203125 26.09375 
Q 42.046875 24.953125 43.40625 23.34375 
Q 44.78125 21.734375 45.578125 19.578125 
Q 46.390625 17.4375 46.390625 14.59375 
z
" id="LiberationSans-115"/>
       <path d="M 27.09375 25.78125 
Q 27.09375 18.953125 26.0625 12.765625 
Q 25.046875 6.59375 22.84375 0.875 
Q 20.65625 -4.828125 17.234375 -10.203125 
Q 13.8125 -15.578125 9.078125 -20.703125 
L 0.59375 -20.703125 
Q 5.171875 -15.578125 8.515625 -10.203125 
Q 11.859375 -4.828125 14 0.921875 
Q 16.15625 6.6875 17.203125 12.890625 
Q 18.265625 19.09375 18.265625 25.875 
Q 18.265625 32.671875 17.203125 38.859375 
Q 16.15625 45.0625 14 50.796875 
Q 11.859375 56.546875 8.515625 61.9375 
Q 5.171875 67.328125 0.59375 72.46875 
L 9.078125 72.46875 
Q 13.8125 67.328125 17.234375 61.953125 
Q 20.65625 56.59375 22.84375 50.875 
Q 25.046875 45.171875 26.0625 38.96875 
Q 27.09375 32.765625 27.09375 25.984375 
z
" id="LiberationSans-41"/>
      </defs>
      <use transform="translate(0 0.53125)" xlink:href="#DejaVuSans-Oblique-116"/>
      <use transform="translate(39.208984 0.53125)" xlink:href="#LiberationSans-32"/>
      <use transform="translate(66.992188 0.53125)" xlink:href="#LiberationSans-40"/>
      <use transform="translate(100.292969 0.53125)" xlink:href="#LiberationSans-109"/>
      <use transform="translate(183.59375 0.53125)" xlink:href="#LiberationSans-115"/>
      <use transform="translate(233.59375 0.53125)" xlink:href="#LiberationSans-41"/>
     </g>
    </g>
   </g>
   <g id="matplotlib.axis_4">
    <g id="ytick_3">
     <g id="line2d_16">
      <g>
       <use style="fill:#ffffff;stroke:#ffffff;stroke-width:0.8;" x="57.6" xlink:href="#m910575410b" y="184.530302"/>
      </g>
     </g>
     <g id="text_17">
      <!-- −1 -->
      <g style="fill:#ffffff;" transform="translate(39.198437 188.153739)scale(0.1 -0.1)">
       <use xlink:href="#LiberationSans-8722"/>
       <use x="58.398438" xlink:href="#LiberationSans-49"/>
      </g>
     </g>
    </g>
    <g id="ytick_4">
     <g id="line2d_17">
      <g>
       <use style="fill:#ffffff;stroke:#ffffff;stroke-width:0.8;" x="57.6" xlink:href="#m910575410b" y="151.292151"/>
      </g>
     </g>
     <g id="text_18">
      <!-- 0 -->
      <g style="fill:#ffffff;" transform="translate(45.039062 154.915588)scale(0.1 -0.1)">
       <use xlink:href="#LiberationSans-48"/>
      </g>
     </g>
    </g>
    <g id="text_19">
     <!-- $u$ -->
     <g style="fill:#ffffff;" transform="translate(33.123437 177.728)rotate(-90)scale(0.1 -0.1)">
      <use transform="translate(0 0.3125)" xlink:href="#DejaVuSans-Oblique-117"/>
     </g>
    </g>
   </g>
   <g id="line2d_18">
    <path clip-path="url(#p35179403bc)" d="M 73.832727 210.104471 
L 73.897671 145.779333 
L 73.962615 146.024164 
L 75.196549 150.239592 
L 76.495427 153.891344 
L 77.794305 156.881145 
L 79.093183 159.328987 
L 80.457005 161.423179 
L 81.236332 162.436584 
L 81.301276 151.328575 
L 81.366219 151.51819 
L 82.665097 154.938171 
L 83.963975 157.738215 
L 85.197909 159.926634 
L 85.262853 148.8436 
L 85.327797 149.057941 
L 86.626675 152.92389 
L 87.470946 155.052485 
L 87.600834 161.698208 
L 88.964655 163.343632 
L 89.419263 163.819675 
L 89.484207 156.066831 
L 89.549151 156.2093 
L 90.848029 158.778927 
L 91.887131 160.494964 
L 92.017019 167.032919 
L 93.900392 167.876772 
L 94.095223 167.950902 
L 94.160167 158.535846 
L 94.225111 158.653747 
L 95.523989 160.780271 
L 95.783765 161.15688 
L 95.848709 150.061605 
L 95.913653 150.263826 
L 97.212531 153.911185 
L 98.511408 156.89739 
L 99.810286 159.342287 
L 100.524669 160.492566 
L 100.589613 149.403901 
L 100.654557 149.612667 
L 101.953435 153.378061 
L 102.083323 153.714822 
L 102.148267 150.487418 
L 102.213211 150.685402 
L 103.512089 154.256342 
L 103.836808 155.042949 
L 103.901752 144.008508 
L 103.966696 144.270959 
L 105.20063 148.789764 
L 106.499508 152.704325 
L 107.798386 155.909296 
L 108.188049 156.752298 
L 108.252993 153.330418 
L 108.317937 153.500114 
L 109.616815 156.560833 
L 109.941534 157.235048 
L 110.006478 153.972617 
L 110.071422 154.135924 
L 111.305356 156.947686 
L 111.3703 147.642113 
L 111.435244 147.868409 
L 112.669178 151.764708 
L 113.578393 154.197302 
L 113.643337 143.171276 
L 113.708281 143.442057 
L 114.747383 147.425746 
L 114.812327 201.531938 
L 114.877271 177.32419 
L 116.306036 175.95384 
L 117.085363 175.324123 
L 117.150307 167.456808 
L 117.215251 167.485944 
L 119.228512 168.258709 
L 119.293456 168.279867 
L 119.3584 157.113717 
L 119.423344 157.245769 
L 120.722222 159.627516 
L 122.086043 161.665162 
L 122.86537 162.651203 
L 122.930314 158.091413 
L 122.995258 158.213737 
L 124.294136 160.420021 
L 124.35908 160.519175 
L 124.424024 149.430245 
L 124.488968 149.638749 
L 125.787846 153.399415 
L 127.086724 156.478388 
L 128.385601 158.999237 
L 128.580433 159.335739 
L 128.645377 155.888153 
L 128.710321 156.032399 
L 129.944255 158.515994 
L 130.009199 149.194816 
L 130.074143 149.405663 
L 131.373021 153.20858 
L 132.152348 155.150887 
L 132.217291 144.115373 
L 132.282235 144.376761 
L 133.516169 148.877257 
L 134.815047 152.775958 
L 135.659318 154.922587 
L 135.85415 148.510064 
L 135.919094 148.727724 
L 137.217972 152.653531 
L 138.127186 154.970007 
L 138.19213 143.936293 
L 138.257074 144.199462 
L 138.906513 146.457809 
L 139.815728 147.918411 
L 140.724942 148.974625 
L 140.984718 149.2097 
L 141.049662 145.706595 
L 141.114605 145.794713 
L 142.283596 147.518209 
L 143.582474 150.604919 
L 143.647417 150.743641 
L 143.712361 147.323453 
L 143.777305 147.494826 
L 145.076183 150.585775 
L 146.375061 153.116431 
L 146.894612 153.995218 
L 146.959556 142.913109 
L 147.0245 143.128365 
L 148.323378 147.01082 
L 149.622256 150.189504 
L 150.011919 151.025592 
L 150.076863 147.6026 
L 150.141807 147.771194 
L 151.440685 150.812047 
L 152.739563 153.301686 
L 153.19417 154.061907 
L 153.259114 150.608702 
L 153.324058 150.747386 
L 154.622936 153.248746 
L 155.532151 154.724709 
L 155.597095 151.264909 
L 155.662039 151.397063 
L 156.506309 153.000043 
L 156.571253 141.927836 
L 156.636197 142.152896 
L 157.870131 146.027909 
L 159.169009 149.384766 
L 160.467887 152.133127 
L 161.766765 154.383295 
L 162.416204 155.350455 
L 162.481148 151.884429 
L 162.546092 152.010419 
L 163.780026 154.179678 
L 163.84497 139.538205 
L 163.909914 139.787042 
L 165.143848 144.071445 
L 166.442726 147.782948 
L 167.741604 150.82167 
L 169.040482 153.309565 
L 170.33936 155.346481 
L 170.404303 151.880494 
L 170.469247 152.006524 
L 171.443406 154.103557 
L 171.50835 154.327723 
L 171.573294 143.363723 
L 171.638237 143.697075 
L 173.196891 151.09775 
L 174.235993 155.472518 
L 174.300937 146.293746 
L 174.365881 146.646743 
L 174.755545 148.249095 
L 176.054423 152.261662 
L 176.703861 153.98633 
L 176.768805 142.962404 
L 176.833749 143.235263 
L 178.067683 147.933286 
L 179.301617 151.818358 
L 179.821169 153.245833 
L 180.016 146.929575 
L 181.249934 150.98833 
L 182.094205 153.352879 
L 182.159149 142.335255 
L 182.224093 142.614355 
L 183.458027 147.41982 
L 183.587915 147.874562 
L 183.652859 144.541016 
L 183.717802 144.798169 
L 184.951737 149.225744 
L 186.250614 153.061275 
L 186.705222 154.232469 
L 186.770166 150.999915 
L 186.83511 151.1928 
L 187.809268 153.866127 
L 187.874212 142.843396 
L 187.939156 143.11744 
L 189.17309 147.835851 
L 190.407024 151.737783 
L 191.381182 154.335198 
L 191.446126 151.101622 
L 191.51107 151.293495 
L 192.809948 154.754206 
L 193.849051 157.065323 
L 193.913994 146.01076 
L 193.978938 146.253288 
L 195.212872 150.429069 
L 196.51175 154.046474 
L 197.420965 156.180974 
L 197.485909 148.504136 
L 197.550853 148.721855 
L 198.849731 152.648726 
L 200.148609 155.863775 
L 200.603216 156.845503 
L 200.66816 145.793127 
L 200.733104 146.037821 
L 201.967038 150.250886 
L 203.265916 153.90059 
L 203.850411 155.085847 
L 203.915355 161.52484 
L 203.980299 161.492745 
L 204.49985 161.206344 
L 204.564794 149.979863 
L 204.629738 150.051023 
L 205.538952 150.85914 
L 206.383223 151.322847 
L 206.707942 151.435176 
L 206.772886 147.895985 
L 206.83783 147.948376 
L 207.032662 148.212287 
L 208.33154 151.173183 
L 209.17581 152.803455 
L 209.240754 149.362772 
L 209.305698 149.513853 
L 210.604576 152.238815 
L 211.903454 154.469825 
L 213.267276 156.378512 
L 213.851771 157.081523 
L 213.916715 153.598273 
L 213.981659 153.70721 
L 215.215593 155.582855 
L 215.280537 144.484948 
L 215.345481 144.684564 
L 216.644359 148.284928 
L 217.943237 151.232656 
L 219.242115 153.646052 
L 219.436946 153.96821 
L 219.50189 150.515937 
L 219.566834 150.655544 
L 220.865712 153.173552 
L 221.450207 154.152411 
L 221.515151 143.068737 
L 221.580095 143.282445 
L 222.878973 147.13697 
L 223.6583 149.105635 
L 223.723244 145.701746 
L 223.788187 145.889255 
L 225.087065 149.271245 
L 226.385943 152.040184 
L 227.684821 154.3072 
L 228.139429 154.999442 
L 228.204373 151.536908 
L 228.269316 151.666356 
L 229.568194 154.001136 
L 229.763026 154.312799 
L 229.82797 143.22753 
L 229.892914 143.439657 
L 231.191792 147.265684 
L 232.49067 150.39817 
L 233.789548 152.962832 
L 233.854492 153.078092 
L 233.919436 142.005108 
L 233.984379 142.229399 
L 234.374043 143.529047 
L 234.438987 197.615918 
L 234.503931 197.286872 
L 235.413145 193.009616 
L 235.543033 188.923879 
L 236.32236 186.400839 
L 237.231574 185.211049 
L 238.140789 184.390266 
L 238.205733 174.905168 
L 238.270677 174.954886 
L 239.569555 175.847378 
L 240.024162 175.478091 
L 240.089106 164.240317 
L 240.15405 164.301458 
L 241.647759 165.551432 
L 243.271357 166.620624 
L 244.245515 167.144978 
L 244.310459 159.359046 
L 244.375403 159.468757 
L 245.739225 161.536474 
L 246.128888 162.051775 
L 246.193832 150.947596 
L 246.258776 151.141002 
L 247.557654 154.629355 
L 248.856532 157.485378 
L 249.441027 158.595637 
L 249.505971 149.273667 
L 249.570915 149.483729 
L 250.804849 153.100511 
L 250.869793 142.085398 
L 250.934737 142.366984 
L 252.168671 147.215254 
L 253.402605 151.224575 
L 254.246876 153.560325 
L 254.311819 145.909562 
L 254.376763 146.153098 
L 255.610697 150.346215 
L 256.909575 153.978639 
L 257.81879 156.122001 
L 257.883734 145.076824 
L 257.948678 145.328645 
L 259.182612 149.664427 
L 260.48149 153.420438 
L 261.520592 155.928761 
L 261.585536 148.254433 
L 261.65048 148.474636 
L 262.494751 151.145615 
L 262.624638 167.319199 
L 262.884414 167.439413 
L 262.949358 156.281626 
L 263.014302 156.421957 
L 264.31318 158.953036 
L 265.677002 161.118439 
L 266.781048 162.567136 
L 266.845992 158.008183 
L 266.910936 158.131335 
L 268.209814 160.352556 
L 268.98914 161.487026 
L 269.183972 147.075821 
L 269.31386 147.537374 
L 270.547794 151.490955 
L 270.612738 151.678955 
L 270.677682 149.587214 
L 270.742626 149.794156 
L 272.041504 153.526652 
L 273.340382 156.58256 
L 274.574316 158.970955 
L 274.704203 165.539087 
L 274.834091 165.635043 
L 274.899035 154.49521 
L 274.963979 154.653316 
L 276.262857 157.504996 
L 277.561735 159.839753 
L 278.211174 160.84327 
L 278.276118 149.751116 
L 278.341062 149.956427 
L 279.63994 153.659508 
L 280.354323 155.401738 
L 280.419266 152.157549 
L 280.48421 152.338916 
L 281.783088 155.610124 
L 283.017022 158.16679 
L 283.081966 150.470193 
L 283.14691 150.668349 
L 284.445788 154.24238 
L 285.744666 157.168549 
L 286.004442 157.686776 
L 286.069386 146.626029 
L 286.134329 146.862435 
L 287.368263 150.932808 
L 288.667141 154.458901 
L 289.576356 156.539521 
L 289.6413 152.040543 
L 289.706244 152.223074 
L 291.005122 155.515282 
L 291.784449 157.196748 
L 291.849392 146.140877 
L 291.914336 146.382111 
L 293.14827 150.5356 
L 294.447148 154.133694 
L 294.512092 146.477227 
L 294.577036 146.715114 
L 295.81097 150.81098 
L 297.109848 154.359156 
L 297.174792 151.125341 
L 297.239736 151.316978 
L 298.538614 154.773433 
L 299.447828 156.812962 
L 299.512772 145.76091 
L 299.577716 146.005924 
L 300.81165 150.224509 
L 302.110528 153.878994 
L 302.175472 154.043232 
L 302.240416 150.812561 
L 302.30536 151.00731 
L 303.604238 154.519898 
L 304.318621 156.172505 
L 304.383565 145.126825 
L 304.448509 145.378149 
L 305.682443 149.705364 
L 306.981321 153.453955 
L 307.955479 155.812321 
L 308.020423 148.139151 
L 308.085367 148.360502 
L 309.384245 152.352875 
L 309.903796 153.739254 
L 309.96874 142.717786 
L 310.033684 142.993079 
L 311.267618 147.733009 
L 312.501552 151.652738 
L 313.80043 155.048329 
L 314.255037 156.085186 
L 314.319981 152.834197 
L 314.384925 153.008831 
L 315.229196 155.127071 
L 315.29414 147.46072 
L 315.359083 147.68882 
L 316.593018 151.616195 
L 317.762008 154.707984 
L 317.826952 150.227231 
L 317.891895 150.427805 
L 319.190773 154.045439 
L 320.164932 156.321416 
L 320.229876 145.274255 
L 320.29482 145.524111 
L 321.528754 149.826069 
L 322.827632 153.55278 
L 323.152351 154.373699 
L 323.217295 143.345918 
L 323.282239 143.614962 
L 324.516173 148.247281 
L 325.815051 152.260177 
L 326.529434 154.14817 
L 326.594378 146.491559 
L 326.659322 146.729303 
L 327.893256 150.822713 
L 329.192134 154.368763 
L 329.257078 146.709957 
L 329.322021 146.945528 
L 330.555956 151.001523 
L 331.335282 153.193403 
L 331.400226 142.177366 
L 331.46517 142.458037 
L 332.699104 147.290551 
L 334.062926 152.482405 
L 334.647421 155.14455 
L 334.712365 144.244459 
L 334.777309 144.641085 
L 336.011243 151.678188 
L 336.076187 147.387342 
L 336.141131 147.777095 
L 336.725626 151.165829 
L 336.79057 149.251735 
L 336.855514 149.635718 
L 338.089448 154.236502 
L 338.154392 154.455277 
L 338.219336 150.035132 
L 338.284279 150.295712 
L 338.608999 151.560228 
L 338.673943 149.527763 
L 338.738887 149.793391 
L 339.323382 152.068205 
L 339.388326 147.671812 
L 339.45327 147.955906 
L 340.687204 152.847367 
L 341.46653 155.490737 
L 341.531474 152.303757 
L 341.596418 152.541763 
L 342.700464 156.244062 
L 342.765408 145.255764 
L 342.830352 145.563899 
L 344.064286 150.869275 
L 345.233276 155.045882 
L 345.29822 147.438432 
L 345.363164 147.724849 
L 346.597098 152.656292 
L 347.376425 155.321269 
L 347.441369 146.089973 
L 347.506313 146.389807 
L 348.740247 151.552267 
L 349.584518 154.559811 
L 349.649462 138.951529 
L 349.714405 139.322392 
L 350.948339 145.707803 
L 351.467891 148.053967 
L 351.597778 154.95388 
L 352.896656 158.80942 
L 353.416208 160.148283 
L 353.481152 158.030366 
L 353.546095 158.211391 
L 353.805871 158.917659 
L 353.870815 154.453113 
L 353.935759 154.669732 
L 355.234637 158.576779 
L 355.364525 158.926209 
L 355.429468 149.659044 
L 355.494412 149.923365 
L 356.728346 154.474375 
L 356.923178 155.117161 
L 356.988122 144.140076 
L 357.053066 144.459312 
L 358.287 149.955826 
L 359.520934 154.501219 
L 359.975541 155.969783 
L 360.040485 144.984215 
L 360.105429 145.295052 
L 361.339363 150.646949 
L 361.534195 151.402852 
L 361.599139 142.210545 
L 361.664083 142.548981 
L 362.898017 148.37606 
L 363.742287 151.770798 
L 363.807231 148.620832 
L 363.872175 148.895484 
L 365.106109 153.624359 
L 365.755548 155.774958 
L 365.820492 144.791328 
L 365.885436 145.104084 
L 366.340043 146.740872 
L 367.314202 149.03096 
L 368.28836 150.758079 
L 369.197575 151.931477 
L 369.392406 152.250224 
L 369.45735 152.430668 
L 369.522294 149.051789 
L 369.587238 149.264058 
L 370.886116 153.092644 
L 371.470611 154.580981 
L 371.600499 148.025447 
L 371.665443 148.247928 
L 372.964321 152.260707 
L 374.263199 155.546093 
L 374.458031 155.98465 
L 374.522974 144.94084 
L 374.587918 145.194014 
L 375.821852 149.553092 
L 377.12073 153.329285 
L 377.705225 154.797254 
L 377.770169 143.765259 
L 377.835113 144.03013 
L 379.069047 148.590608 
L 379.78343 150.860844 
L 379.848374 147.497585 
L 379.913318 147.725319 
L 381.147252 151.646378 
L 382.056467 154.094431 
L 382.12141 143.069429 
L 382.186354 143.341224 
L 383.420288 148.02091 
L 384.654222 151.89082 
L 385.238718 153.482596 
L 385.303661 150.257503 
L 385.368605 150.457775 
L 386.667483 154.069977 
L 387.316922 155.622561 
L 387.44681 162.256996 
L 388.6158 163.595928 
L 388.680744 152.476384 
L 388.745688 152.654579 
L 390.044566 155.868567 
L 391.343444 158.499959 
L 392.252659 160.052648 
L 392.382546 153.388767 
L 392.44749 153.557883 
L 393.746368 156.608131 
L 395.045246 159.105462 
L 395.11019 148.030599 
L 395.175134 148.253029 
L 396.474012 152.264884 
L 396.863675 153.32012 
L 396.928619 149.93239 
L 396.993563 150.135898 
L 398.292441 153.806446 
L 398.487273 154.296418 
L 398.487273 154.296418 
" style="fill:none;stroke:#9a72ac;stroke-linecap:round;stroke-width:1.5;"/>
   </g>
   <g id="patch_8">
    <path d="M 57.6 213.662118 
L 57.6 135.393882 
" style="fill:none;stroke:#ffffff;stroke-linecap:square;stroke-linejoin:miter;stroke-width:0.8;"/>
   </g>
   <g id="patch_9">
    <path d="M 414.72 213.662118 
L 414.72 135.393882 
" style="fill:none;stroke:#ffffff;stroke-linecap:square;stroke-linejoin:miter;stroke-width:0.8;"/>
   </g>
   <g id="patch_10">
    <path d="M 57.6 213.662118 
L 414.72 213.662118 
" style="fill:none;stroke:#ffffff;stroke-linecap:square;stroke-linejoin:miter;stroke-width:0.8;"/>
   </g>
   <g id="patch_11">
    <path d="M 57.6 135.393882 
L 414.72 135.393882 
" style="fill:none;stroke:#ffffff;stroke-linecap:square;stroke-linejoin:miter;stroke-width:0.8;"/>
   </g>
  </g>
  <g id="text_20">
   <!-- M2 - $u$ -->
   <g style="fill:#ffffff;" transform="translate(212.88 15.60825)scale(0.12 -0.12)">
    <defs>
     <path d="M 66.703125 0 
L 66.703125 45.90625 
Q 66.703125 48.390625 66.75 50.96875 
Q 66.796875 53.5625 66.890625 55.71875 
Q 67 58.203125 67.140625 60.546875 
Q 66.453125 58.0625 65.71875 55.609375 
Q 65.09375 53.515625 64.328125 51.140625 
Q 63.578125 48.78125 62.84375 46.875 
L 45.0625 0 
L 38.53125 0 
L 20.515625 46.875 
Q 20.21875 47.609375 19.890625 48.578125 
Q 19.578125 49.5625 19.203125 50.65625 
Q 18.84375 51.765625 18.46875 52.90625 
Q 18.109375 54.046875 17.78125 55.171875 
Q 16.9375 57.765625 16.15625 60.546875 
Q 16.21875 57.8125 16.3125 55.125 
Q 16.40625 52.828125 16.453125 50.3125 
Q 16.5 47.796875 16.5 45.90625 
L 16.5 0 
L 8.203125 0 
L 8.203125 68.796875 
L 20.453125 68.796875 
L 38.765625 21.09375 
Q 39.109375 20.125 39.59375 18.578125 
Q 40.09375 17.046875 40.53125 15.421875 
Q 40.96875 13.8125 41.328125 12.375 
Q 41.703125 10.9375 41.84375 10.15625 
Q 42 10.9375 42.390625 12.40625 
Q 42.78125 13.875 43.28125 15.484375 
Q 43.796875 17.09375 44.28125 18.609375 
Q 44.78125 20.125 45.171875 21.09375 
L 63.140625 68.796875 
L 75.09375 68.796875 
L 75.09375 0 
z
" id="LiberationSans-77"/>
     <path d="M 4.4375 22.65625 
L 4.4375 30.46875 
L 28.859375 30.46875 
L 28.859375 22.65625 
z
" id="LiberationSans-45"/>
    </defs>
    <use transform="translate(0 0.171875)" xlink:href="#LiberationSans-77"/>
    <use transform="translate(83.300781 0.171875)" xlink:href="#LiberationSans-50"/>
    <use transform="translate(138.916016 0.171875)" xlink:href="#LiberationSans-32"/>
    <use transform="translate(166.699219 0.171875)" xlink:href="#LiberationSans-45"/>
    <use transform="translate(200 0.171875)" xlink:href="#LiberationSans-32"/>
    <use transform="translate(227.783203 0.171875)" xlink:href="#DejaVuSans-Oblique-117"/>
   </g>
  </g>
 </g>
 <defs>
  <clipPath id="p7ae4831a1d">
   <rect height="78.268235" width="357.12" x="57.6" y="41.472"/>
  </clipPath>
  <clipPath id="p35179403bc">
   <rect height="78.268235" width="357.12" x="57.6" y="135.393882"/>
  </clipPath>
 </defs>
</svg>
