<?xml version="1.0" encoding="utf-8" standalone="no"?>
<!DOCTYPE svg PUBLIC "-//W3C//DTD SVG 1.1//EN"
  "http://www.w3.org/Graphics/SVG/1.1/DTD/svg11.dtd">
<!-- Created with matplotlib (https://matplotlib.org/) -->
<svg height="345.6pt" version="1.1" viewBox="0 0 460.8 345.6" width="460.8pt" xmlns="http://www.w3.org/2000/svg" xmlns:xlink="http://www.w3.org/1999/xlink">
 <metadata>
  <rdf:RDF xmlns:cc="http://creativecommons.org/ns#" xmlns:dc="http://purl.org/dc/elements/1.1/" xmlns:rdf="http://www.w3.org/1999/02/22-rdf-syntax-ns#">
   <cc:Work>
    <dc:type rdf:resource="http://purl.org/dc/dcmitype/StillImage"/>
    <dc:date>2022-05-05T14:25:58.505458</dc:date>
    <dc:format>image/svg+xml</dc:format>
    <dc:creator>
     <cc:Agent>
      <dc:title>Matplotlib v3.3.4, https://matplotlib.org/</dc:title>
     </cc:Agent>
    </dc:creator>
   </cc:Work>
  </rdf:RDF>
 </metadata>
 <defs>
  <style type="text/css">*{stroke-linecap:butt;stroke-linejoin:round;}</style>
 </defs>
 <g id="figure_1">
  <g id="patch_1">
   <path d="M 0 345.6 
L 460.8 345.6 
L 460.8 0 
L 0 0 
z
" style="fill:#262626;"/>
  </g>
  <g id="axes_1">
   <g id="patch_2">
    <path d="M 57.6 119.740235 
L 414.72 119.740235 
L 414.72 41.472 
L 57.6 41.472 
z
" style="fill:#1a1a1a;"/>
   </g>
   <g id="matplotlib.axis_1">
    <g id="xtick_1">
     <g id="line2d_1">
      <defs>
       <path d="M 0 0 
L 0 3.5 
" id="mfc36dc63f4" style="stroke:#ffffff;stroke-width:0.8;"/>
      </defs>
      <g>
       <use style="fill:#ffffff;stroke:#ffffff;stroke-width:0.8;" x="73.832727" xlink:href="#mfc36dc63f4" y="119.740235"/>
      </g>
     </g>
     <g id="text_1">
      <!-- 0 -->
      <g style="fill:#ffffff;" transform="translate(71.052259 133.98711)scale(0.1 -0.1)">
       <defs>
        <path d="M 51.703125 34.421875 
Q 51.703125 24.515625 49.828125 17.75 
Q 47.953125 10.984375 44.703125 6.8125 
Q 41.453125 2.640625 37.0625 0.828125 
Q 32.671875 -0.984375 27.6875 -0.984375 
Q 22.65625 -0.984375 18.3125 0.828125 
Q 13.96875 2.640625 10.765625 6.78125 
Q 7.5625 10.9375 5.734375 17.703125 
Q 3.90625 24.46875 3.90625 34.421875 
Q 3.90625 44.828125 5.734375 51.640625 
Q 7.5625 58.453125 10.78125 62.5 
Q 14.015625 66.546875 18.40625 68.1875 
Q 22.796875 69.828125 27.984375 69.828125 
Q 32.90625 69.828125 37.21875 68.1875 
Q 41.546875 66.546875 44.765625 62.5 
Q 48 58.453125 49.84375 51.640625 
Q 51.703125 44.828125 51.703125 34.421875 
z
M 42.78125 34.421875 
Q 42.78125 42.625 41.796875 48.0625 
Q 40.828125 53.515625 38.921875 56.765625 
Q 37.015625 60.015625 34.25 61.359375 
Q 31.5 62.703125 27.984375 62.703125 
Q 24.265625 62.703125 21.4375 61.328125 
Q 18.609375 59.96875 16.671875 56.71875 
Q 14.75 53.46875 13.765625 48.015625 
Q 12.796875 42.578125 12.796875 34.421875 
Q 12.796875 26.515625 13.796875 21.09375 
Q 14.796875 15.671875 16.71875 12.375 
Q 18.65625 9.078125 21.4375 7.640625 
Q 24.21875 6.203125 27.78125 6.203125 
Q 31.25 6.203125 34.03125 7.640625 
Q 36.8125 9.078125 38.734375 12.375 
Q 40.671875 15.671875 41.71875 21.09375 
Q 42.78125 26.515625 42.78125 34.421875 
z
" id="LiberationSans-48"/>
       </defs>
       <use xlink:href="#LiberationSans-48"/>
      </g>
     </g>
    </g>
    <g id="xtick_2">
     <g id="line2d_2">
      <g>
       <use style="fill:#ffffff;stroke:#ffffff;stroke-width:0.8;" x="138.776625" xlink:href="#mfc36dc63f4" y="119.740235"/>
      </g>
     </g>
     <g id="text_2">
      <!-- 200 -->
      <g style="fill:#ffffff;" transform="translate(130.435219 133.98711)scale(0.1 -0.1)">
       <defs>
        <path d="M 5.03125 0 
L 5.03125 6.203125 
Q 7.515625 11.921875 11.109375 16.28125 
Q 14.703125 20.65625 18.65625 24.1875 
Q 22.609375 27.734375 26.484375 30.765625 
Q 30.375 33.796875 33.5 36.8125 
Q 36.625 39.84375 38.546875 43.15625 
Q 40.484375 46.484375 40.484375 50.6875 
Q 40.484375 53.609375 39.59375 55.828125 
Q 38.71875 58.0625 37.0625 59.5625 
Q 35.40625 61.078125 33.078125 61.828125 
Q 30.765625 62.59375 27.9375 62.59375 
Q 25.296875 62.59375 22.96875 61.859375 
Q 20.65625 61.140625 18.84375 59.671875 
Q 17.046875 58.203125 15.890625 56.03125 
Q 14.75 53.859375 14.40625 50.984375 
L 5.421875 51.8125 
Q 5.859375 55.515625 7.46875 58.78125 
Q 9.078125 62.0625 11.90625 64.53125 
Q 14.75 67 18.71875 68.40625 
Q 22.703125 69.828125 27.9375 69.828125 
Q 33.0625 69.828125 37.0625 68.609375 
Q 41.0625 67.390625 43.8125 64.984375 
Q 46.578125 62.59375 48.046875 59.078125 
Q 49.515625 55.5625 49.515625 50.984375 
Q 49.515625 47.515625 48.265625 44.390625 
Q 47.015625 41.265625 44.9375 38.421875 
Q 42.875 35.59375 40.140625 32.953125 
Q 37.40625 30.328125 34.421875 27.8125 
Q 31.453125 25.296875 28.421875 22.828125 
Q 25.390625 20.359375 22.71875 17.859375 
Q 20.0625 15.375 17.96875 12.8125 
Q 15.875 10.25 14.703125 7.46875 
L 50.59375 7.46875 
L 50.59375 0 
z
" id="LiberationSans-50"/>
       </defs>
       <use xlink:href="#LiberationSans-50"/>
       <use x="55.615234" xlink:href="#LiberationSans-48"/>
       <use x="111.230469" xlink:href="#LiberationSans-48"/>
      </g>
     </g>
    </g>
    <g id="xtick_3">
     <g id="line2d_3">
      <g>
       <use style="fill:#ffffff;stroke:#ffffff;stroke-width:0.8;" x="203.720523" xlink:href="#mfc36dc63f4" y="119.740235"/>
      </g>
     </g>
     <g id="text_3">
      <!-- 400 -->
      <g style="fill:#ffffff;" transform="translate(195.379117 133.98711)scale(0.1 -0.1)">
       <defs>
        <path d="M 43.015625 15.578125 
L 43.015625 0 
L 34.71875 0 
L 34.71875 15.578125 
L 2.296875 15.578125 
L 2.296875 22.40625 
L 33.796875 68.796875 
L 43.015625 68.796875 
L 43.015625 22.515625 
L 52.6875 22.515625 
L 52.6875 15.578125 
z
M 34.71875 58.890625 
Q 34.625 58.640625 34.234375 57.9375 
Q 33.84375 57.234375 33.34375 56.34375 
Q 32.859375 55.46875 32.34375 54.5625 
Q 31.84375 53.65625 31.453125 53.078125 
L 13.8125 27.09375 
Q 13.578125 26.703125 13.109375 26.0625 
Q 12.640625 25.4375 12.15625 24.78125 
Q 11.671875 24.125 11.171875 23.484375 
Q 10.6875 22.859375 10.40625 22.515625 
L 34.71875 22.515625 
z
" id="LiberationSans-52"/>
       </defs>
       <use xlink:href="#LiberationSans-52"/>
       <use x="55.615234" xlink:href="#LiberationSans-48"/>
       <use x="111.230469" xlink:href="#LiberationSans-48"/>
      </g>
     </g>
    </g>
    <g id="xtick_4">
     <g id="line2d_4">
      <g>
       <use style="fill:#ffffff;stroke:#ffffff;stroke-width:0.8;" x="268.664421" xlink:href="#mfc36dc63f4" y="119.740235"/>
      </g>
     </g>
     <g id="text_4">
      <!-- 600 -->
      <g style="fill:#ffffff;" transform="translate(260.323015 133.98711)scale(0.1 -0.1)">
       <defs>
        <path d="M 51.21875 22.515625 
Q 51.21875 17.328125 49.78125 13 
Q 48.34375 8.6875 45.53125 5.578125 
Q 42.71875 2.484375 38.5625 0.75 
Q 34.421875 -0.984375 29 -0.984375 
Q 23 -0.984375 18.5 1.3125 
Q 14.015625 3.609375 11.03125 7.921875 
Q 8.0625 12.25 6.5625 18.53125 
Q 5.078125 24.8125 5.078125 32.8125 
Q 5.078125 42 6.765625 48.921875 
Q 8.453125 55.859375 11.625 60.5 
Q 14.796875 65.140625 19.359375 67.484375 
Q 23.921875 69.828125 29.6875 69.828125 
Q 33.203125 69.828125 36.28125 69.09375 
Q 39.359375 68.359375 41.875 66.71875 
Q 44.390625 65.09375 46.28125 62.40625 
Q 48.1875 59.71875 49.3125 55.8125 
L 40.921875 54.296875 
Q 39.546875 58.734375 36.546875 60.71875 
Q 33.546875 62.703125 29.59375 62.703125 
Q 25.984375 62.703125 23.046875 60.984375 
Q 20.125 59.28125 18.0625 55.875 
Q 16.015625 52.484375 14.90625 47.359375 
Q 13.8125 42.234375 13.8125 35.40625 
Q 16.21875 39.84375 20.5625 42.15625 
Q 24.90625 44.484375 30.515625 44.484375 
Q 35.203125 44.484375 39.015625 42.96875 
Q 42.828125 41.453125 45.53125 38.59375 
Q 48.25 35.75 49.734375 31.671875 
Q 51.21875 27.59375 51.21875 22.515625 
z
M 42.28125 22.125 
Q 42.28125 25.6875 41.40625 28.5625 
Q 40.53125 31.453125 38.765625 33.46875 
Q 37.015625 35.5 34.421875 36.59375 
Q 31.84375 37.703125 28.421875 37.703125 
Q 26.03125 37.703125 23.578125 36.984375 
Q 21.140625 36.28125 19.15625 34.6875 
Q 17.1875 33.109375 15.9375 30.515625 
Q 14.703125 27.9375 14.703125 24.21875 
Q 14.703125 20.40625 15.671875 17.109375 
Q 16.65625 13.8125 18.484375 11.375 
Q 20.3125 8.9375 22.890625 7.515625 
Q 25.484375 6.109375 28.71875 6.109375 
Q 31.890625 6.109375 34.40625 7.203125 
Q 36.921875 8.296875 38.671875 10.375 
Q 40.4375 12.453125 41.359375 15.421875 
Q 42.28125 18.40625 42.28125 22.125 
z
" id="LiberationSans-54"/>
       </defs>
       <use xlink:href="#LiberationSans-54"/>
       <use x="55.615234" xlink:href="#LiberationSans-48"/>
       <use x="111.230469" xlink:href="#LiberationSans-48"/>
      </g>
     </g>
    </g>
    <g id="xtick_5">
     <g id="line2d_5">
      <g>
       <use style="fill:#ffffff;stroke:#ffffff;stroke-width:0.8;" x="333.608319" xlink:href="#mfc36dc63f4" y="119.740235"/>
      </g>
     </g>
     <g id="text_5">
      <!-- 800 -->
      <g style="fill:#ffffff;" transform="translate(325.266913 133.98711)scale(0.1 -0.1)">
       <defs>
        <path d="M 51.265625 19.1875 
Q 51.265625 14.796875 49.875 11.109375 
Q 48.484375 7.421875 45.625 4.734375 
Q 42.78125 2.046875 38.328125 0.53125 
Q 33.890625 -0.984375 27.828125 -0.984375 
Q 21.78125 -0.984375 17.359375 0.53125 
Q 12.9375 2.046875 10.03125 4.703125 
Q 7.125 7.375 5.734375 11.0625 
Q 4.34375 14.75 4.34375 19.09375 
Q 4.34375 22.859375 5.484375 25.78125 
Q 6.640625 28.71875 8.5625 30.828125 
Q 10.5 32.953125 12.96875 34.25 
Q 15.4375 35.546875 18.0625 35.984375 
L 18.0625 36.1875 
Q 15.1875 36.859375 12.90625 38.375 
Q 10.640625 39.890625 9.09375 42.015625 
Q 7.5625 44.140625 6.75 46.71875 
Q 5.953125 49.3125 5.953125 52.203125 
Q 5.953125 55.8125 7.34375 59 
Q 8.734375 62.203125 11.46875 64.625 
Q 14.203125 67.046875 18.25 68.4375 
Q 22.3125 69.828125 27.640625 69.828125 
Q 33.25 69.828125 37.375 68.40625 
Q 41.5 67 44.203125 64.578125 
Q 46.921875 62.15625 48.234375 58.9375 
Q 49.5625 55.71875 49.5625 52.09375 
Q 49.5625 49.265625 48.75 46.671875 
Q 47.953125 44.09375 46.40625 41.96875 
Q 44.875 39.84375 42.59375 38.34375 
Q 40.328125 36.859375 37.359375 36.28125 
L 37.359375 36.078125 
Q 40.328125 35.59375 42.859375 34.296875 
Q 45.40625 33.015625 47.265625 30.890625 
Q 49.125 28.765625 50.1875 25.828125 
Q 51.265625 22.90625 51.265625 19.1875 
z
M 40.4375 51.609375 
Q 40.4375 54.203125 39.765625 56.34375 
Q 39.109375 58.5 37.59375 60.03125 
Q 36.078125 61.578125 33.640625 62.421875 
Q 31.203125 63.28125 27.640625 63.28125 
Q 24.171875 63.28125 21.78125 62.421875 
Q 19.390625 61.578125 17.84375 60.03125 
Q 16.3125 58.5 15.625 56.34375 
Q 14.9375 54.203125 14.9375 51.609375 
Q 14.9375 49.5625 15.46875 47.40625 
Q 16.015625 45.265625 17.421875 43.5 
Q 18.84375 41.75 21.328125 40.625 
Q 23.828125 39.5 27.734375 39.5 
Q 31.890625 39.5 34.40625 40.625 
Q 36.921875 41.75 38.25 43.5 
Q 39.59375 45.265625 40.015625 47.40625 
Q 40.4375 49.5625 40.4375 51.609375 
z
M 42.140625 20.015625 
Q 42.140625 22.515625 41.453125 24.828125 
Q 40.765625 27.15625 39.109375 28.9375 
Q 37.453125 30.71875 34.640625 31.8125 
Q 31.84375 32.90625 27.640625 32.90625 
Q 23.78125 32.90625 21.0625 31.8125 
Q 18.359375 30.71875 16.671875 28.90625 
Q 14.984375 27.09375 14.203125 24.71875 
Q 13.421875 22.359375 13.421875 19.828125 
Q 13.421875 16.65625 14.203125 14.03125 
Q 14.984375 11.421875 16.6875 9.546875 
Q 18.40625 7.671875 21.1875 6.640625 
Q 23.96875 5.609375 27.9375 5.609375 
Q 31.9375 5.609375 34.671875 6.640625 
Q 37.40625 7.671875 39.0625 9.546875 
Q 40.71875 11.421875 41.421875 14.078125 
Q 42.140625 16.75 42.140625 20.015625 
z
" id="LiberationSans-56"/>
       </defs>
       <use xlink:href="#LiberationSans-56"/>
       <use x="55.615234" xlink:href="#LiberationSans-48"/>
       <use x="111.230469" xlink:href="#LiberationSans-48"/>
      </g>
     </g>
    </g>
    <g id="xtick_6">
     <g id="line2d_6">
      <g>
       <use style="fill:#ffffff;stroke:#ffffff;stroke-width:0.8;" x="398.552217" xlink:href="#mfc36dc63f4" y="119.740235"/>
      </g>
     </g>
     <g id="text_6">
      <!-- 1000 -->
      <g style="fill:#ffffff;" transform="translate(387.430342 133.98711)scale(0.1 -0.1)">
       <defs>
        <path d="M 7.625 0 
L 7.625 7.46875 
L 25.140625 7.46875 
L 25.140625 60.40625 
L 9.625 49.3125 
L 9.625 57.625 
L 25.875 68.796875 
L 33.984375 68.796875 
L 33.984375 7.46875 
L 50.734375 7.46875 
L 50.734375 0 
z
" id="LiberationSans-49"/>
       </defs>
       <use xlink:href="#LiberationSans-49"/>
       <use x="55.615234" xlink:href="#LiberationSans-48"/>
       <use x="111.230469" xlink:href="#LiberationSans-48"/>
       <use x="166.845703" xlink:href="#LiberationSans-48"/>
      </g>
     </g>
    </g>
   </g>
   <g id="matplotlib.axis_2">
    <g id="ytick_1">
     <g id="line2d_7">
      <defs>
       <path d="M 0 0 
L -3.5 0 
" id="mfddeb98a8f" style="stroke:#ffffff;stroke-width:0.8;"/>
      </defs>
      <g>
       <use style="fill:#ffffff;stroke:#ffffff;stroke-width:0.8;" x="57.6" xlink:href="#mfddeb98a8f" y="117.502143"/>
      </g>
     </g>
     <g id="text_7">
      <!-- −0.5 -->
      <g style="fill:#ffffff;" transform="translate(30.859375 121.125581)scale(0.1 -0.1)">
       <defs>
        <path d="M 4.9375 29.6875 
L 4.9375 36.8125 
L 53.515625 36.8125 
L 53.515625 29.6875 
z
" id="LiberationSans-8722"/>
        <path d="M 9.125 0 
L 9.125 10.6875 
L 18.65625 10.6875 
L 18.65625 0 
z
" id="LiberationSans-46"/>
        <path d="M 51.421875 22.40625 
Q 51.421875 17.234375 49.859375 12.9375 
Q 48.296875 8.640625 45.21875 5.53125 
Q 42.140625 2.4375 37.578125 0.71875 
Q 33.015625 -0.984375 27 -0.984375 
Q 21.578125 -0.984375 17.546875 0.28125 
Q 13.53125 1.5625 10.734375 3.78125 
Q 7.953125 6 6.3125 8.984375 
Q 4.6875 11.96875 4 15.375 
L 12.890625 16.40625 
Q 13.421875 14.453125 14.390625 12.625 
Q 15.375 10.796875 17.0625 9.34375 
Q 18.75 7.90625 21.21875 7.046875 
Q 23.6875 6.203125 27.203125 6.203125 
Q 30.609375 6.203125 33.390625 7.25 
Q 36.1875 8.296875 38.15625 10.34375 
Q 40.140625 12.40625 41.203125 15.375 
Q 42.28125 18.359375 42.28125 22.21875 
Q 42.28125 25.390625 41.25 28.046875 
Q 40.234375 30.71875 38.328125 32.640625 
Q 36.421875 34.578125 33.65625 35.640625 
Q 30.90625 36.71875 27.390625 36.71875 
Q 25.203125 36.71875 23.34375 36.328125 
Q 21.484375 35.9375 19.890625 35.25 
Q 18.3125 34.578125 17.015625 33.671875 
Q 15.71875 32.765625 14.59375 31.78125 
L 6 31.78125 
L 8.296875 68.796875 
L 47.40625 68.796875 
L 47.40625 61.328125 
L 16.3125 61.328125 
L 14.984375 39.5 
Q 17.328125 41.3125 20.84375 42.59375 
Q 24.359375 43.890625 29.203125 43.890625 
Q 34.328125 43.890625 38.421875 42.328125 
Q 42.53125 40.765625 45.40625 37.90625 
Q 48.296875 35.0625 49.859375 31.109375 
Q 51.421875 27.15625 51.421875 22.40625 
z
" id="LiberationSans-53"/>
       </defs>
       <use xlink:href="#LiberationSans-8722"/>
       <use x="58.398438" xlink:href="#LiberationSans-48"/>
       <use x="114.013672" xlink:href="#LiberationSans-46"/>
       <use x="141.796875" xlink:href="#LiberationSans-53"/>
      </g>
     </g>
    </g>
    <g id="ytick_2">
     <g id="line2d_8">
      <g>
       <use style="fill:#ffffff;stroke:#ffffff;stroke-width:0.8;" x="57.6" xlink:href="#mfddeb98a8f" y="81.10114"/>
      </g>
     </g>
     <g id="text_8">
      <!-- 0.0 -->
      <g style="fill:#ffffff;" transform="translate(36.7 84.724578)scale(0.1 -0.1)">
       <use xlink:href="#LiberationSans-48"/>
       <use x="55.615234" xlink:href="#LiberationSans-46"/>
       <use x="83.398438" xlink:href="#LiberationSans-48"/>
      </g>
     </g>
    </g>
    <g id="ytick_3">
     <g id="line2d_9">
      <g>
       <use style="fill:#ffffff;stroke:#ffffff;stroke-width:0.8;" x="57.6" xlink:href="#mfddeb98a8f" y="44.700137"/>
      </g>
     </g>
     <g id="text_9">
      <!-- 0.5 -->
      <g style="fill:#ffffff;" transform="translate(36.7 48.323574)scale(0.1 -0.1)">
       <use xlink:href="#LiberationSans-48"/>
       <use x="55.615234" xlink:href="#LiberationSans-46"/>
       <use x="83.398438" xlink:href="#LiberationSans-53"/>
      </g>
     </g>
    </g>
    <g id="text_10">
     <!-- $u$ -->
     <g style="fill:#ffffff;" transform="translate(24.784375 83.806118)rotate(-90)scale(0.1 -0.1)">
      <defs>
       <path d="M 6.6875 21.6875 
L 13.09375 54.6875 
L 22.125 54.6875 
L 15.71875 22.015625 
Q 15.234375 19.625 15.015625 17.921875 
Q 14.796875 16.21875 14.796875 15.09375 
Q 14.796875 10.9375 17.328125 8.65625 
Q 19.875 6.390625 24.515625 6.390625 
Q 31.734375 6.390625 37 11.265625 
Q 42.28125 16.15625 43.890625 24.421875 
L 49.90625 54.6875 
L 58.890625 54.6875 
L 48.296875 0 
L 39.3125 0 
L 41.109375 8.59375 
Q 37.3125 3.8125 32.0625 1.1875 
Q 26.8125 -1.421875 20.90625 -1.421875 
Q 13.71875 -1.421875 9.71875 2.515625 
Q 5.71875 6.453125 5.71875 13.484375 
Q 5.71875 14.9375 5.953125 17.140625 
Q 6.203125 19.34375 6.6875 21.6875 
z
" id="DejaVuSans-Oblique-117"/>
      </defs>
      <use transform="translate(0 0.3125)" xlink:href="#DejaVuSans-Oblique-117"/>
     </g>
    </g>
   </g>
   <g id="line2d_10">
    <path clip-path="url(#pbf7489c0ce)" d="M 73.832727 58.723566 
L 73.897671 58.426443 
L 73.962615 95.826889 
L 74.027559 95.160582 
L 75.261493 83.688309 
L 76.495427 74.201208 
L 77.729361 66.355763 
L 78.963295 59.867901 
L 80.197229 54.502704 
L 81.301276 50.494242 
L 81.366219 87.973615 
L 81.431163 87.385449 
L 82.665097 77.258592 
L 83.899031 68.884095 
L 85.132966 61.958728 
L 86.3669 56.231733 
L 87.600834 51.495741 
L 88.38016 48.936387 
L 88.445104 86.431261 
L 88.510048 85.858442 
L 89.743982 75.995819 
L 90.977916 67.839833 
L 92.21185 61.095166 
L 93.445784 55.517602 
L 94.679718 50.905185 
L 95.978596 46.909529 
L 96.692979 45.029647 
L 96.757923 82.563393 
L 96.822867 82.029061 
L 98.056801 72.829077 
L 99.290735 65.221067 
L 100.524669 58.929554 
L 101.433884 55.001544 
L 101.498828 92.436068 
L 101.563772 91.803501 
L 102.797706 80.91214 
L 104.03164 71.90543 
L 105.265574 64.457248 
L 106.499508 58.297907 
L 107.213891 55.231745 
L 107.278835 92.663978 
L 107.343779 92.029143 
L 108.577713 81.098737 
L 109.811647 72.059738 
L 111.045581 64.584855 
L 112.279515 58.403432 
L 112.474347 57.530366 
L 112.53929 94.939728 
L 112.604234 94.282249 
L 113.838168 82.961964 
L 115.072102 73.60055 
L 116.306036 65.859044 
L 117.539971 59.457134 
L 118.773905 54.163017 
L 119.098624 52.929097 
L 119.163568 90.384242 
L 119.228512 89.772091 
L 120.462446 79.232247 
L 121.69638 70.516227 
L 122.930314 63.308434 
L 124.164248 57.347885 
L 125.008519 53.875389 
L 125.073463 91.321119 
L 125.138407 90.699645 
L 126.372341 79.999297 
L 126.502228 78.986721 
L 126.567172 116.182588 
L 126.632116 115.313739 
L 127.86605 100.354146 
L 129.099984 87.983174 
L 130.333918 77.752886 
L 131.567852 69.292856 
L 132.801787 62.296757 
L 134.035721 56.511268 
L 135.139767 52.188797 
L 135.204711 89.651308 
L 135.269655 89.04645 
L 136.503589 78.632172 
L 137.737523 70.019989 
L 138.971457 62.898066 
L 140.205391 57.008527 
L 141.439325 52.138118 
L 142.413483 48.896014 
L 142.478427 86.391289 
L 142.543371 85.818868 
L 143.777305 75.963093 
L 145.011239 67.81277 
L 145.985398 62.387312 
L 146.050342 99.748346 
L 146.115286 99.043021 
L 147.34922 86.898927 
L 148.583154 76.856258 
L 149.557312 70.171114 
L 149.622256 107.454698 
L 149.6872 106.672693 
L 150.921134 93.208354 
L 152.155068 82.073896 
L 153.389002 72.866155 
L 154.622936 65.251729 
L 155.077544 62.791594 
L 155.142487 100.148606 
L 155.207431 99.439297 
L 156.441365 87.226632 
L 157.675299 77.127256 
L 158.909233 68.775485 
L 159.233953 66.828907 
L 159.298897 104.145747 
L 159.363841 103.396667 
L 160.597775 90.499214 
L 161.831709 79.833548 
L 163.065643 71.013479 
L 164.299577 63.719641 
L 165.533511 57.687936 
L 166.767445 52.699962 
L 167.67666 49.585797 
L 167.741604 87.074209 
L 167.806547 86.494993 
L 169.040482 76.522221 
L 170.274416 68.275146 
L 171.50835 61.455152 
L 172.482508 56.915259 
L 172.547452 94.330741 
L 172.612396 93.679322 
L 173.84633 82.463367 
L 175.080264 73.188231 
L 176.314198 65.518073 
L 177.548132 59.175165 
L 178.392403 55.479916 
L 178.457347 92.90968 
L 178.522291 92.2724 
L 179.756225 81.299901 
L 180.990159 72.226092 
L 182.224093 64.722423 
L 183.458027 58.517195 
L 184.691961 53.385726 
L 185.601176 50.181972 
L 185.666119 87.664451 
L 185.731063 87.079362 
L 186.964997 77.00547 
L 188.198931 68.674774 
L 189.432865 61.785628 
L 190.277136 57.772151 
L 190.34208 95.179107 
L 190.407024 94.519246 
L 191.640958 83.157951 
L 192.874892 73.762623 
L 194.108826 65.993072 
L 195.082985 60.821083 
L 195.147928 98.197701 
L 195.212872 97.507805 
L 196.446806 85.629366 
L 197.680741 75.806383 
L 198.914675 67.683177 
L 200.148609 60.965618 
L 201.252655 55.946775 
L 201.317599 93.371894 
L 201.382543 92.730015 
L 202.616477 81.67833 
L 203.850411 72.539037 
L 205.084345 64.981216 
L 206.318279 58.731207 
L 207.552213 53.562704 
L 208.786147 49.288564 
L 209.565474 46.978796 
L 209.630418 84.493148 
L 209.695362 83.939614 
L 210.929296 74.409027 
L 212.16323 66.527621 
L 213.397164 60.01002 
L 213.462108 59.700098 
L 213.527052 97.08787 
L 213.591995 96.409017 
L 214.82593 84.720714 
L 216.059864 75.054964 
L 217.293798 67.061785 
L 218.527732 60.451752 
L 219.761666 54.985525 
L 220.021441 53.961228 
L 220.086385 91.406103 
L 220.151329 90.783784 
L 221.385263 80.068876 
L 222.619197 71.208085 
L 223.853131 63.880573 
L 225.087065 57.821019 
L 226.191112 53.293788 
L 226.256056 90.745304 
L 226.320999 90.129561 
L 227.554934 79.52786 
L 228.788868 70.760687 
L 230.022802 63.510593 
L 231.256736 57.515061 
L 232.49067 52.557002 
L 232.945277 50.955109 
L 233.010221 88.429895 
L 233.075165 87.83719 
L 234.309099 77.632163 
L 235.543033 69.193023 
L 236.776967 62.214199 
L 237.621238 58.148477 
L 237.686182 95.551689 
L 237.751125 94.888121 
L 238.98506 83.462995 
L 240.218994 74.014882 
L 241.452928 66.201679 
L 242.686862 59.74048 
L 243.920796 54.397332 
L 245.15473 49.978767 
L 246.453608 46.151042 
L 246.518552 83.67363 
L 246.583496 83.12825 
L 247.81743 73.738062 
L 249.051364 65.972761 
L 250.220354 59.8596 
L 250.285298 97.245785 
L 250.350242 96.56536 
L 251.584176 84.850003 
L 252.81811 75.161882 
L 254.052044 67.150201 
L 255.285978 60.524869 
L 255.545754 59.28337 
L 255.610697 96.67529 
L 255.675641 96.000541 
L 256.909575 84.382921 
L 258.143509 74.775624 
L 259.377443 66.830782 
L 260.611378 60.260722 
L 260.676321 97.642916 
L 260.741265 96.95854 
L 261.975199 85.175146 
L 263.209133 75.430762 
L 264.053404 69.753881 
L 264.118348 107.041617 
L 264.183292 106.263722 
L 265.417226 92.870152 
L 266.65116 81.794217 
L 267.885094 72.634871 
L 269.119028 65.060467 
L 270.352962 58.796744 
L 270.677682 57.336835 
L 270.742626 94.748122 
L 270.80757 94.09255 
L 272.041504 82.80509 
L 273.275438 73.470822 
L 274.509372 65.751764 
L 275.743306 59.368418 
L 276.197913 57.306031 
L 276.262857 94.717625 
L 276.327801 94.062356 
L 277.561735 82.780121 
L 278.795669 73.450174 
L 280.029603 65.734688 
L 280.938818 60.917644 
L 281.003761 98.293302 
L 281.068705 97.602454 
L 282.302639 85.707637 
L 283.536573 75.87111 
L 284.770508 67.736704 
L 286.004442 61.009883 
L 287.238376 55.447076 
L 288.47231 50.846863 
L 288.861973 49.566594 
L 288.926917 87.055197 
L 288.991861 86.47617 
L 290.225795 76.506655 
L 291.459729 68.262274 
L 292.693663 61.444507 
L 293.927597 55.806493 
L 295.161531 51.144086 
L 295.226475 88.616992 
L 295.291419 88.022425 
L 296.525353 77.785345 
L 297.759287 69.319698 
L 298.993221 62.318954 
L 300.227155 56.529625 
L 301.071426 53.156879 
L 301.13637 90.609758 
L 301.201314 89.995362 
L 301.526033 87.013879 
L 301.655921 69.230728 
L 302.889855 62.245379 
L 304.123789 56.468781 
L 305.357723 51.691771 
L 306.007162 49.519281 
L 306.072106 87.008355 
L 306.13705 86.429794 
L 307.370984 76.468304 
L 308.604918 68.230559 
L 309.838852 61.41828 
L 311.072786 55.784804 
L 312.30672 51.12615 
L 313.086047 48.608589 
L 313.150991 86.106724 
L 313.215935 85.537135 
L 314.449869 75.730111 
L 315.683803 67.620104 
L 316.917737 60.913459 
L 318.151671 55.367338 
L 318.541334 53.823818 
L 318.606278 91.27006 
L 318.671222 90.649095 
L 319.905156 79.957494 
L 321.13909 71.115976 
L 322.373024 63.804403 
L 323.606958 57.75803 
L 323.996622 56.075287 
L 324.061566 93.499127 
L 324.12651 92.855982 
L 325.360444 81.782499 
L 326.594378 72.625181 
L 327.828312 65.052453 
L 329.062246 58.790117 
L 330.29618 53.611421 
L 331.205395 50.378181 
L 331.270338 87.858709 
L 331.335282 87.271687 
L 332.569216 77.164515 
L 333.80315 68.806297 
L 334.062926 67.240079 
L 334.12787 104.552828 
L 334.192814 103.799697 
L 335.426748 90.832504 
L 335.751467 87.810192 
L 335.881355 70.011273 
L 337.115289 62.890858 
L 338.349223 57.002566 
L 339.12855 53.820503 
L 339.193494 91.266778 
L 339.258438 90.645846 
L 340.492372 79.954807 
L 341.726306 71.113754 
L 342.96024 63.802565 
L 344.194174 57.75651 
L 344.389006 56.902564 
L 344.45395 94.318173 
L 344.518894 93.666878 
L 345.752828 82.453077 
L 346.986762 73.179722 
L 348.220696 65.511036 
L 349.45463 59.169346 
L 350.688564 53.925027 
L 351.532835 50.869794 
L 351.597778 88.34543 
L 351.662722 87.753565 
L 352.896656 77.563008 
L 354.13059 69.135835 
L 355.364525 62.166907 
L 356.598459 56.403888 
L 357.312841 53.535018 
L 357.377785 90.984134 
L 357.442729 90.366014 
L 358.676663 79.723397 
L 359.910597 70.922388 
L 361.144531 63.644313 
L 362.378466 57.625642 
L 363.6124 52.648448 
L 364.521614 49.541013 
L 364.586558 87.02987 
L 364.651502 86.451095 
L 365.885436 76.48592 
L 367.11937 68.245126 
L 368.353304 61.430327 
L 369.587238 55.794766 
L 370.821172 51.134388 
L 371.016004 50.476155 
L 371.080948 87.955708 
L 371.145892 87.367721 
L 372.379826 77.243931 
L 373.61376 68.871971 
L 374.847694 61.948702 
L 375.562077 58.502252 
L 375.627021 95.901943 
L 375.691965 95.23489 
L 376.925899 83.749758 
L 378.159833 74.252024 
L 379.393767 66.397786 
L 380.627701 59.902652 
L 381.861635 54.531442 
L 383.095569 50.08967 
L 383.485232 48.853498 
L 383.550176 86.349196 
L 383.61512 85.777194 
L 384.849054 75.928631 
L 386.082988 67.784271 
L 387.316922 61.049219 
L 387.836473 58.574588 
L 387.901417 95.97356 
L 387.966361 95.305794 
L 389.200295 83.808393 
L 390.434229 74.300513 
L 391.668163 66.437884 
L 392.252659 63.203818 
L 392.317602 100.556728 
L 392.382546 99.843358 
L 393.61648 87.560774 
L 394.850414 77.403578 
L 396.084349 69.003992 
L 397.318283 62.057878 
L 398.487273 56.589615 
L 398.487273 56.589615 
" style="fill:none;stroke:#9a72ac;stroke-linecap:round;stroke-width:1.5;"/>
   </g>
   <g id="patch_3">
    <path d="M 57.6 119.740235 
L 57.6 41.472 
" style="fill:none;stroke:#ffffff;stroke-linecap:square;stroke-linejoin:miter;stroke-width:0.8;"/>
   </g>
   <g id="patch_4">
    <path d="M 414.72 119.740235 
L 414.72 41.472 
" style="fill:none;stroke:#ffffff;stroke-linecap:square;stroke-linejoin:miter;stroke-width:0.8;"/>
   </g>
   <g id="patch_5">
    <path d="M 57.6 119.740235 
L 414.72 119.740235 
" style="fill:none;stroke:#ffffff;stroke-linecap:square;stroke-linejoin:miter;stroke-width:0.8;"/>
   </g>
   <g id="patch_6">
    <path d="M 57.6 41.472 
L 414.72 41.472 
" style="fill:none;stroke:#ffffff;stroke-linecap:square;stroke-linejoin:miter;stroke-width:0.8;"/>
   </g>
  </g>
  <g id="axes_2">
   <g id="patch_7">
    <path d="M 57.6 213.662118 
L 414.72 213.662118 
L 414.72 135.393882 
L 57.6 135.393882 
z
" style="fill:#1a1a1a;"/>
   </g>
   <g id="matplotlib.axis_3">
    <g id="xtick_7">
     <g id="line2d_11">
      <g>
       <use style="fill:#ffffff;stroke:#ffffff;stroke-width:0.8;" x="73.832727" xlink:href="#mfc36dc63f4" y="213.662118"/>
      </g>
     </g>
     <g id="text_11">
      <!-- 0 -->
      <g style="fill:#ffffff;" transform="translate(71.052259 227.908993)scale(0.1 -0.1)">
       <use xlink:href="#LiberationSans-48"/>
      </g>
     </g>
    </g>
    <g id="xtick_8">
     <g id="line2d_12">
      <g>
       <use style="fill:#ffffff;stroke:#ffffff;stroke-width:0.8;" x="138.776625" xlink:href="#mfc36dc63f4" y="213.662118"/>
      </g>
     </g>
     <g id="text_12">
      <!-- 200 -->
      <g style="fill:#ffffff;" transform="translate(130.435219 227.908993)scale(0.1 -0.1)">
       <use xlink:href="#LiberationSans-50"/>
       <use x="55.615234" xlink:href="#LiberationSans-48"/>
       <use x="111.230469" xlink:href="#LiberationSans-48"/>
      </g>
     </g>
    </g>
    <g id="xtick_9">
     <g id="line2d_13">
      <g>
       <use style="fill:#ffffff;stroke:#ffffff;stroke-width:0.8;" x="203.720523" xlink:href="#mfc36dc63f4" y="213.662118"/>
      </g>
     </g>
     <g id="text_13">
      <!-- 400 -->
      <g style="fill:#ffffff;" transform="translate(195.379117 227.908993)scale(0.1 -0.1)">
       <use xlink:href="#LiberationSans-52"/>
       <use x="55.615234" xlink:href="#LiberationSans-48"/>
       <use x="111.230469" xlink:href="#LiberationSans-48"/>
      </g>
     </g>
    </g>
    <g id="xtick_10">
     <g id="line2d_14">
      <g>
       <use style="fill:#ffffff;stroke:#ffffff;stroke-width:0.8;" x="268.664421" xlink:href="#mfc36dc63f4" y="213.662118"/>
      </g>
     </g>
     <g id="text_14">
      <!-- 600 -->
      <g style="fill:#ffffff;" transform="translate(260.323015 227.908993)scale(0.1 -0.1)">
       <use xlink:href="#LiberationSans-54"/>
       <use x="55.615234" xlink:href="#LiberationSans-48"/>
       <use x="111.230469" xlink:href="#LiberationSans-48"/>
      </g>
     </g>
    </g>
    <g id="xtick_11">
     <g id="line2d_15">
      <g>
       <use style="fill:#ffffff;stroke:#ffffff;stroke-width:0.8;" x="333.608319" xlink:href="#mfc36dc63f4" y="213.662118"/>
      </g>
     </g>
     <g id="text_15">
      <!-- 800 -->
      <g style="fill:#ffffff;" transform="translate(325.266913 227.908993)scale(0.1 -0.1)">
       <use xlink:href="#LiberationSans-56"/>
       <use x="55.615234" xlink:href="#LiberationSans-48"/>
       <use x="111.230469" xlink:href="#LiberationSans-48"/>
      </g>
     </g>
    </g>
    <g id="xtick_12">
     <g id="line2d_16">
      <g>
       <use style="fill:#ffffff;stroke:#ffffff;stroke-width:0.8;" x="398.552217" xlink:href="#mfc36dc63f4" y="213.662118"/>
      </g>
     </g>
     <g id="text_16">
      <!-- 1000 -->
      <g style="fill:#ffffff;" transform="translate(387.430342 227.908993)scale(0.1 -0.1)">
       <use xlink:href="#LiberationSans-49"/>
       <use x="55.615234" xlink:href="#LiberationSans-48"/>
       <use x="111.230469" xlink:href="#LiberationSans-48"/>
       <use x="166.845703" xlink:href="#LiberationSans-48"/>
      </g>
     </g>
    </g>
    <g id="text_17">
     <!-- $t$ (ms) -->
     <g style="fill:#ffffff;" transform="translate(222.81 241.283993)scale(0.1 -0.1)">
      <defs>
       <path d="M 42.28125 54.6875 
L 40.921875 47.703125 
L 23 47.703125 
L 17.1875 18.015625 
Q 16.890625 16.359375 16.75 15.234375 
Q 16.609375 14.109375 16.609375 13.484375 
Q 16.609375 10.359375 18.484375 8.9375 
Q 20.359375 7.515625 24.515625 7.515625 
L 33.59375 7.515625 
L 32.078125 0 
L 23.484375 0 
Q 15.484375 0 11.546875 3.125 
Q 7.625 6.25 7.625 12.59375 
Q 7.625 13.71875 7.765625 15.0625 
Q 7.90625 16.40625 8.203125 18.015625 
L 14.015625 47.703125 
L 6.390625 47.703125 
L 7.8125 54.6875 
L 15.28125 54.6875 
L 18.3125 70.21875 
L 27.296875 70.21875 
L 24.3125 54.6875 
z
" id="DejaVuSans-Oblique-116"/>
       <path id="LiberationSans-32"/>
       <path d="M 6.203125 25.984375 
Q 6.203125 32.765625 7.21875 38.96875 
Q 8.25 45.171875 10.4375 50.875 
Q 12.640625 56.59375 16.0625 61.953125 
Q 19.484375 67.328125 24.21875 72.46875 
L 32.71875 72.46875 
Q 28.125 67.328125 24.78125 61.9375 
Q 21.4375 56.546875 19.28125 50.796875 
Q 17.140625 45.0625 16.09375 38.859375 
Q 15.046875 32.671875 15.046875 25.875 
Q 15.046875 19.09375 16.09375 12.890625 
Q 17.140625 6.6875 19.28125 0.921875 
Q 21.4375 -4.828125 24.78125 -10.203125 
Q 28.125 -15.578125 32.71875 -20.703125 
L 24.21875 -20.703125 
Q 19.484375 -15.578125 16.0625 -10.203125 
Q 12.640625 -4.828125 10.4375 0.875 
Q 8.25 6.59375 7.21875 12.765625 
Q 6.203125 18.953125 6.203125 25.78125 
z
" id="LiberationSans-40"/>
       <path d="M 37.5 0 
L 37.5 33.5 
Q 37.5 37.359375 37.015625 39.9375 
Q 36.53125 42.53125 35.375 44.109375 
Q 34.234375 45.703125 32.375 46.359375 
Q 30.515625 47.015625 27.828125 47.015625 
Q 25.046875 47.015625 22.796875 45.921875 
Q 20.5625 44.828125 18.96875 42.75 
Q 17.390625 40.671875 16.53125 37.625 
Q 15.671875 34.578125 15.671875 30.609375 
L 15.671875 0 
L 6.9375 0 
L 6.9375 41.546875 
Q 6.9375 43.21875 6.90625 45.046875 
Q 6.890625 46.875 6.828125 48.5 
Q 6.78125 50.140625 6.734375 51.3125 
Q 6.6875 52.484375 6.640625 52.828125 
L 14.9375 52.828125 
Q 14.984375 52.59375 15.03125 51.515625 
Q 15.09375 50.4375 15.15625 49.046875 
Q 15.234375 47.65625 15.28125 46.21875 
Q 15.328125 44.78125 15.328125 43.796875 
L 15.484375 43.796875 
Q 16.65625 46.09375 18.015625 47.953125 
Q 19.390625 49.8125 21.21875 51.09375 
Q 23.046875 52.390625 25.40625 53.09375 
Q 27.78125 53.8125 30.90625 53.8125 
Q 36.921875 53.8125 40.40625 51.421875 
Q 43.890625 49.03125 45.265625 43.796875 
L 45.40625 43.796875 
Q 46.578125 46.09375 48.046875 47.953125 
Q 49.515625 49.8125 51.46875 51.09375 
Q 53.421875 52.390625 55.859375 53.09375 
Q 58.296875 53.8125 61.421875 53.8125 
Q 65.4375 53.8125 68.328125 52.734375 
Q 71.234375 51.65625 73.09375 49.40625 
Q 74.953125 47.171875 75.828125 43.625 
Q 76.703125 40.09375 76.703125 35.203125 
L 76.703125 0 
L 68.015625 0 
L 68.015625 33.5 
Q 68.015625 37.359375 67.53125 39.9375 
Q 67.046875 42.53125 65.890625 44.109375 
Q 64.75 45.703125 62.890625 46.359375 
Q 61.03125 47.015625 58.34375 47.015625 
Q 55.5625 47.015625 53.3125 45.96875 
Q 51.078125 44.921875 49.484375 42.875 
Q 47.90625 40.828125 47.046875 37.75 
Q 46.1875 34.671875 46.1875 30.609375 
L 46.1875 0 
z
" id="LiberationSans-109"/>
       <path d="M 46.390625 14.59375 
Q 46.390625 10.890625 44.9375 7.984375 
Q 43.5 5.078125 40.765625 3.09375 
Q 38.03125 1.125 34.046875 0.0625 
Q 30.078125 -0.984375 24.953125 -0.984375 
Q 20.359375 -0.984375 16.671875 -0.265625 
Q 12.984375 0.4375 10.203125 2 
Q 7.421875 3.5625 5.53125 6.125 
Q 3.65625 8.6875 2.78125 12.40625 
L 10.546875 13.921875 
Q 11.671875 9.671875 15.1875 7.6875 
Q 18.703125 5.71875 24.953125 5.71875 
Q 27.78125 5.71875 30.140625 6.109375 
Q 32.515625 6.5 34.21875 7.453125 
Q 35.9375 8.40625 36.890625 9.984375 
Q 37.84375 11.578125 37.84375 13.921875 
Q 37.84375 16.3125 36.71875 17.84375 
Q 35.59375 19.390625 33.59375 20.40625 
Q 31.59375 21.4375 28.734375 22.1875 
Q 25.875 22.953125 22.46875 23.875 
Q 19.28125 24.703125 16.15625 25.734375 
Q 13.03125 26.765625 10.515625 28.4375 
Q 8.015625 30.125 6.453125 32.609375 
Q 4.890625 35.109375 4.890625 38.875 
Q 4.890625 46.09375 10.03125 49.875 
Q 15.1875 53.65625 25.046875 53.65625 
Q 33.796875 53.65625 38.9375 50.578125 
Q 44.09375 47.515625 45.453125 40.71875 
L 37.546875 39.75 
Q 37.109375 41.796875 35.9375 43.1875 
Q 34.765625 44.578125 33.109375 45.4375 
Q 31.453125 46.296875 29.375 46.65625 
Q 27.296875 47.015625 25.046875 47.015625 
Q 19.09375 47.015625 16.25 45.203125 
Q 13.421875 43.40625 13.421875 39.75 
Q 13.421875 37.59375 14.46875 36.203125 
Q 15.53125 34.8125 17.40625 33.859375 
Q 19.28125 32.90625 21.921875 32.203125 
Q 24.5625 31.5 27.734375 30.71875 
Q 29.828125 30.171875 32.03125 29.5625 
Q 34.234375 28.953125 36.296875 28.09375 
Q 38.375 27.25 40.203125 26.09375 
Q 42.046875 24.953125 43.40625 23.34375 
Q 44.78125 21.734375 45.578125 19.578125 
Q 46.390625 17.4375 46.390625 14.59375 
z
" id="LiberationSans-115"/>
       <path d="M 27.09375 25.78125 
Q 27.09375 18.953125 26.0625 12.765625 
Q 25.046875 6.59375 22.84375 0.875 
Q 20.65625 -4.828125 17.234375 -10.203125 
Q 13.8125 -15.578125 9.078125 -20.703125 
L 0.59375 -20.703125 
Q 5.171875 -15.578125 8.515625 -10.203125 
Q 11.859375 -4.828125 14 0.921875 
Q 16.15625 6.6875 17.203125 12.890625 
Q 18.265625 19.09375 18.265625 25.875 
Q 18.265625 32.671875 17.203125 38.859375 
Q 16.15625 45.0625 14 50.796875 
Q 11.859375 56.546875 8.515625 61.9375 
Q 5.171875 67.328125 0.59375 72.46875 
L 9.078125 72.46875 
Q 13.8125 67.328125 17.234375 61.953125 
Q 20.65625 56.59375 22.84375 50.875 
Q 25.046875 45.171875 26.0625 38.96875 
Q 27.09375 32.765625 27.09375 25.984375 
z
" id="LiberationSans-41"/>
      </defs>
      <use transform="translate(0 0.53125)" xlink:href="#DejaVuSans-Oblique-116"/>
      <use transform="translate(39.208984 0.53125)" xlink:href="#LiberationSans-32"/>
      <use transform="translate(66.992188 0.53125)" xlink:href="#LiberationSans-40"/>
      <use transform="translate(100.292969 0.53125)" xlink:href="#LiberationSans-109"/>
      <use transform="translate(183.59375 0.53125)" xlink:href="#LiberationSans-115"/>
      <use transform="translate(233.59375 0.53125)" xlink:href="#LiberationSans-41"/>
     </g>
    </g>
   </g>
   <g id="matplotlib.axis_4">
    <g id="ytick_4">
     <g id="line2d_17">
      <g>
       <use style="fill:#ffffff;stroke:#ffffff;stroke-width:0.8;" x="57.6" xlink:href="#mfddeb98a8f" y="186.255764"/>
      </g>
     </g>
     <g id="text_18">
      <!-- −0.5 -->
      <g style="fill:#ffffff;" transform="translate(30.859375 189.879202)scale(0.1 -0.1)">
       <use xlink:href="#LiberationSans-8722"/>
       <use x="58.398438" xlink:href="#LiberationSans-48"/>
       <use x="114.013672" xlink:href="#LiberationSans-46"/>
       <use x="141.796875" xlink:href="#LiberationSans-53"/>
      </g>
     </g>
    </g>
    <g id="ytick_5">
     <g id="line2d_18">
      <g>
       <use style="fill:#ffffff;stroke:#ffffff;stroke-width:0.8;" x="57.6" xlink:href="#mfddeb98a8f" y="156.035991"/>
      </g>
     </g>
     <g id="text_19">
      <!-- 0.0 -->
      <g style="fill:#ffffff;" transform="translate(36.7 159.659429)scale(0.1 -0.1)">
       <use xlink:href="#LiberationSans-48"/>
       <use x="55.615234" xlink:href="#LiberationSans-46"/>
       <use x="83.398438" xlink:href="#LiberationSans-48"/>
      </g>
     </g>
    </g>
    <g id="text_20">
     <!-- $u$ -->
     <g style="fill:#ffffff;" transform="translate(24.784375 177.728)rotate(-90)scale(0.1 -0.1)">
      <use transform="translate(0 0.3125)" xlink:href="#DejaVuSans-Oblique-117"/>
     </g>
    </g>
   </g>
   <g id="line2d_19">
    <path clip-path="url(#p12b2ed3940)" d="M 73.832727 210.104471 
L 73.897671 209.717796 
L 74.027559 195.148487 
L 75.261493 191.011913 
L 76.560371 187.428473 
L 77.859249 184.4946 
L 79.158127 182.092547 
L 80.521949 180.03753 
L 81.301276 179.043083 
L 81.366219 165.019244 
L 81.431163 165.081174 
L 82.924873 166.347285 
L 84.54847 167.430281 
L 86.301956 168.33252 
L 88.250273 169.086943 
L 88.38016 169.129642 
L 88.445104 155.204443 
L 88.510048 155.364032 
L 89.808926 158.242456 
L 91.107804 160.59911 
L 92.471626 162.615288 
L 93.835448 164.249571 
L 95.264214 165.630702 
L 96.692979 166.739085 
L 96.757923 152.837673 
L 96.822867 153.020812 
L 98.121745 156.32399 
L 99.420623 159.028403 
L 100.719501 161.242589 
L 101.433884 162.284322 
L 101.498828 148.427235 
L 101.563772 148.654259 
L 102.797706 152.563087 
L 104.096584 155.949236 
L 105.395462 158.72158 
L 106.69434 160.991384 
L 107.213891 161.779589 
L 107.278835 147.927525 
L 107.343779 148.159521 
L 108.577713 152.153959 
L 109.876591 155.61427 
L 111.175469 158.447333 
L 112.474347 160.76685 
L 112.53929 146.924862 
L 112.604234 147.166834 
L 113.838168 151.333048 
L 115.137046 154.942165 
L 116.435924 157.89706 
L 117.734802 160.316324 
L 119.098624 162.386066 
L 119.163568 148.527967 
L 119.228512 148.753989 
L 120.462446 152.64556 
L 121.761324 156.016759 
L 123.060202 158.776863 
L 124.35908 161.036646 
L 125.008519 162.007938 
L 125.073463 148.153601 
L 125.138407 148.383348 
L 126.372341 152.339054 
L 126.502228 152.713384 
L 126.567172 138.951529 
L 126.632116 139.272838 
L 127.86605 144.805035 
L 129.099984 149.379936 
L 130.398862 153.343093 
L 131.69774 156.587851 
L 132.996618 159.244434 
L 134.295496 161.41946 
L 135.139767 162.617032 
L 135.204711 148.756635 
L 135.269655 148.980381 
L 136.568533 153.015964 
L 137.867411 156.320021 
L 139.166289 159.025153 
L 140.465166 161.239928 
L 141.828988 163.134725 
L 142.413483 163.832621 
L 142.478427 149.960129 
L 142.543371 150.1719 
L 143.842249 153.991498 
L 145.141127 157.11872 
L 145.985398 158.840571 
L 146.050342 145.01775 
L 146.115286 145.278699 
L 147.34922 149.771637 
L 148.648098 153.66379 
L 149.557312 155.960409 
L 149.622256 142.166246 
L 149.6872 142.455568 
L 150.921134 147.437023 
L 152.155068 151.556482 
L 153.453946 155.125098 
L 154.752824 158.046833 
L 155.077544 158.690433 
L 155.142487 144.869106 
L 155.207431 145.131533 
L 156.441365 149.649937 
L 157.740243 153.564151 
L 159.039121 156.768838 
L 159.233953 157.196623 
L 159.298897 143.390159 
L 159.363841 143.667303 
L 160.597775 148.439078 
L 161.831709 152.385141 
L 163.130587 155.803546 
L 164.429465 158.6023 
L 165.728343 160.893725 
L 167.092165 162.854099 
L 167.67666 163.576148 
L 167.741604 149.706207 
L 167.806547 149.920505 
L 169.105425 153.785673 
L 170.404303 156.950205 
L 171.703181 159.541104 
L 172.482508 160.864384 
L 172.547452 147.021426 
L 172.612396 147.262438 
L 173.84633 151.412108 
L 175.145208 155.006894 
L 176.444086 157.950056 
L 177.742964 160.359713 
L 178.392403 161.395424 
L 178.457347 147.547182 
L 178.522291 147.782962 
L 179.756225 151.84256 
L 181.055103 155.359319 
L 182.353981 158.238597 
L 183.652859 160.595951 
L 185.01668 162.612727 
L 185.601176 163.355551 
L 185.666119 149.487805 
L 185.731063 149.704276 
L 187.029941 153.60864 
L 188.328819 156.805262 
L 189.627697 159.422435 
L 190.277136 160.54734 
L 190.34208 146.707536 
L 190.407024 146.951671 
L 191.640958 151.155117 
L 192.939836 154.796487 
L 194.238714 157.77779 
L 195.082985 159.419297 
L 195.147928 145.590718 
L 195.212872 145.845966 
L 196.446806 150.240743 
L 197.745684 154.047862 
L 199.044562 157.164867 
L 200.34344 159.716855 
L 201.252655 161.222691 
L 201.317599 147.376167 
L 201.382543 147.613649 
L 202.616477 151.702545 
L 203.915355 155.244684 
L 205.214233 158.144742 
L 206.513111 160.519109 
L 207.876932 162.55044 
L 209.240754 164.197006 
L 209.565474 164.540658 
L 209.630418 150.66112 
L 209.695362 150.865917 
L 210.99424 154.55971 
L 212.293118 157.583933 
L 213.462108 159.834038 
L 213.527052 146.001332 
L 213.591995 146.252494 
L 214.82593 150.576926 
L 216.124808 154.323105 
L 217.423685 157.390217 
L 218.722563 159.901356 
L 220.021441 161.957302 
L 220.086385 148.103469 
L 220.151329 148.333715 
L 221.385263 152.29801 
L 222.684141 155.732209 
L 223.983019 158.543894 
L 225.281897 160.845907 
L 226.191112 162.204241 
L 226.256056 148.347951 
L 226.320999 148.575764 
L 227.554934 152.498175 
L 228.853811 155.89609 
L 230.152689 158.678068 
L 231.451567 160.955759 
L 232.815389 162.904383 
L 232.945277 163.069504 
L 233.010221 149.204605 
L 233.075165 149.423894 
L 234.374043 153.379082 
L 235.672921 156.617316 
L 236.971799 159.268558 
L 237.621238 160.408106 
L 237.686182 146.569688 
L 237.751125 146.815195 
L 238.98506 151.042256 
L 240.283938 154.704085 
L 241.582815 157.702137 
L 242.881693 160.156734 
L 244.245515 162.256705 
L 245.609337 163.958909 
L 246.453608 164.84691 
L 246.518552 150.964325 
L 246.583496 151.166104 
L 247.882374 154.805483 
L 249.181252 157.785155 
L 250.220354 159.775026 
L 250.285298 145.942907 
L 250.350242 146.19465 
L 251.584176 150.529091 
L 252.883054 154.283941 
L 254.181932 157.358152 
L 255.48081 159.875103 
L 255.545754 159.988219 
L 255.610697 146.153979 
L 255.675641 146.403622 
L 256.909575 150.701902 
L 258.208453 154.425427 
L 259.507331 157.473991 
L 260.611378 159.626619 
L 260.676321 145.795977 
L 260.741265 146.049182 
L 261.975199 150.408795 
L 263.274077 154.185451 
L 264.053404 156.114346 
L 264.118348 142.318651 
L 264.183292 142.606456 
L 265.417226 147.561801 
L 266.65116 151.659669 
L 267.950038 155.20958 
L 269.248916 158.116001 
L 270.547794 160.495578 
L 270.677682 160.708397 
L 270.742626 146.866991 
L 270.80757 147.109539 
L 272.041504 151.285667 
L 273.340382 154.903373 
L 274.639259 157.8653 
L 275.938137 160.290321 
L 276.197913 160.719794 
L 276.262857 146.878274 
L 276.327801 147.12071 
L 277.561735 151.294905 
L 278.860613 154.910937 
L 280.159491 157.871493 
L 280.938818 159.383571 
L 281.003761 145.555348 
L 281.068705 145.810947 
L 282.302639 150.211784 
L 283.601517 154.024152 
L 284.900395 157.145455 
L 286.199273 159.700962 
L 287.563095 161.887263 
L 288.861973 163.583226 
L 288.926917 149.713215 
L 288.991861 149.927443 
L 290.290739 153.791353 
L 291.589617 156.954855 
L 292.888495 159.544912 
L 294.187373 161.665471 
L 295.161531 162.999587 
L 295.226475 149.135383 
L 295.291419 149.35536 
L 296.590297 153.322972 
L 297.889175 156.571377 
L 299.188053 159.230946 
L 300.486931 161.408418 
L 301.071426 162.254895 
L 301.13637 148.398101 
L 301.201314 148.625414 
L 301.526033 149.728502 
L 301.590977 206.297888 
L 301.655921 205.949089 
L 302.889855 199.94357 
L 304.123789 194.977251 
L 305.357723 190.870309 
L 306.007162 189.002552 
L 306.13705 174.843433 
L 307.955479 173.964223 
L 309.96874 173.238954 
L 312.30672 172.635622 
L 313.086047 172.47818 
L 313.150991 158.519662 
L 313.215935 158.646265 
L 314.514813 160.929721 
L 315.878635 162.883276 
L 317.3074 164.534225 
L 318.541334 165.69517 
L 318.606278 151.804144 
L 318.671222 151.997567 
L 319.9701 155.486228 
L 321.268978 158.342501 
L 322.567856 160.68102 
L 323.931678 162.681683 
L 323.996622 162.766873 
L 324.061566 148.904985 
L 324.12651 149.127255 
L 325.425388 153.136215 
L 326.724266 156.418473 
L 328.023144 159.105759 
L 329.322021 161.305923 
L 330.685843 163.18822 
L 331.205395 163.807524 
L 331.270338 149.935281 
L 331.335282 150.1473 
L 332.63416 153.971357 
L 333.933038 157.10223 
L 334.062926 157.382242 
L 334.12787 143.573932 
L 334.192814 143.849246 
L 335.426748 148.589538 
L 335.751467 149.694375 
L 335.816411 206.264101 
L 335.881355 205.915638 
L 337.115289 199.915908 
L 338.349223 194.954376 
L 339.12855 192.273138 
L 339.258438 178.049257 
L 340.752148 176.650862 
L 342.310801 175.49704 
L 343.999342 174.523154 
L 344.389006 174.332151 
L 344.45395 160.355186 
L 344.518894 160.463525 
L 345.882715 162.505385 
L 347.246537 164.160485 
L 348.675303 165.559209 
L 350.233957 166.772036 
L 351.532835 167.58254 
L 351.597778 153.672735 
L 351.662722 153.847565 
L 352.9616 157.000878 
L 354.260478 159.582592 
L 355.559356 161.696321 
L 356.923178 163.50467 
L 357.312841 163.955333 
L 357.377785 150.081619 
L 357.442729 150.292182 
L 358.741607 154.089976 
L 360.040485 157.199347 
L 361.339363 159.745085 
L 362.703185 161.923029 
L 364.067007 163.688436 
L 364.521614 164.199192 
L 364.586558 150.323052 
L 364.651502 150.531212 
L 365.95038 154.285677 
L 367.249258 157.359574 
L 368.548136 159.876267 
L 369.911958 162.029363 
L 371.016004 163.469827 
L 371.080948 149.600944 
L 371.145892 149.816289 
L 372.44477 153.700348 
L 373.743648 156.880347 
L 375.042526 159.483909 
L 375.562077 160.388015 
L 375.627021 146.549796 
L 375.691965 146.795501 
L 376.925899 151.02597 
L 378.224777 154.690751 
L 379.523655 157.69122 
L 380.822533 160.147796 
L 382.186354 162.249461 
L 383.485232 163.879768 
L 383.550176 150.006806 
L 383.61512 150.218113 
L 384.913998 154.029334 
L 386.212876 157.149697 
L 387.511754 159.704435 
L 387.836473 160.267192 
L 387.901417 146.430176 
L 387.966361 146.677071 
L 389.200295 150.928033 
L 390.499173 154.610567 
L 391.798051 157.625571 
L 392.252659 158.546214 
L 392.317602 144.726322 
L 392.382546 144.990171 
L 393.61648 149.533036 
L 394.915358 153.46844 
L 396.214236 156.690476 
L 397.513114 159.328457 
L 398.487273 160.9881 
L 398.487273 160.9881 
" style="fill:none;stroke:#9a72ac;stroke-linecap:round;stroke-width:1.5;"/>
   </g>
   <g id="patch_8">
    <path d="M 57.6 213.662118 
L 57.6 135.393882 
" style="fill:none;stroke:#ffffff;stroke-linecap:square;stroke-linejoin:miter;stroke-width:0.8;"/>
   </g>
   <g id="patch_9">
    <path d="M 414.72 213.662118 
L 414.72 135.393882 
" style="fill:none;stroke:#ffffff;stroke-linecap:square;stroke-linejoin:miter;stroke-width:0.8;"/>
   </g>
   <g id="patch_10">
    <path d="M 57.6 213.662118 
L 414.72 213.662118 
" style="fill:none;stroke:#ffffff;stroke-linecap:square;stroke-linejoin:miter;stroke-width:0.8;"/>
   </g>
   <g id="patch_11">
    <path d="M 57.6 135.393882 
L 414.72 135.393882 
" style="fill:none;stroke:#ffffff;stroke-linecap:square;stroke-linejoin:miter;stroke-width:0.8;"/>
   </g>
  </g>
  <g id="text_21">
   <!-- M2 - $u$ -->
   <g style="fill:#ffffff;" transform="translate(212.88 15.60825)scale(0.12 -0.12)">
    <defs>
     <path d="M 66.703125 0 
L 66.703125 45.90625 
Q 66.703125 48.390625 66.75 50.96875 
Q 66.796875 53.5625 66.890625 55.71875 
Q 67 58.203125 67.140625 60.546875 
Q 66.453125 58.0625 65.71875 55.609375 
Q 65.09375 53.515625 64.328125 51.140625 
Q 63.578125 48.78125 62.84375 46.875 
L 45.0625 0 
L 38.53125 0 
L 20.515625 46.875 
Q 20.21875 47.609375 19.890625 48.578125 
Q 19.578125 49.5625 19.203125 50.65625 
Q 18.84375 51.765625 18.46875 52.90625 
Q 18.109375 54.046875 17.78125 55.171875 
Q 16.9375 57.765625 16.15625 60.546875 
Q 16.21875 57.8125 16.3125 55.125 
Q 16.40625 52.828125 16.453125 50.3125 
Q 16.5 47.796875 16.5 45.90625 
L 16.5 0 
L 8.203125 0 
L 8.203125 68.796875 
L 20.453125 68.796875 
L 38.765625 21.09375 
Q 39.109375 20.125 39.59375 18.578125 
Q 40.09375 17.046875 40.53125 15.421875 
Q 40.96875 13.8125 41.328125 12.375 
Q 41.703125 10.9375 41.84375 10.15625 
Q 42 10.9375 42.390625 12.40625 
Q 42.78125 13.875 43.28125 15.484375 
Q 43.796875 17.09375 44.28125 18.609375 
Q 44.78125 20.125 45.171875 21.09375 
L 63.140625 68.796875 
L 75.09375 68.796875 
L 75.09375 0 
z
" id="LiberationSans-77"/>
     <path d="M 4.4375 22.65625 
L 4.4375 30.46875 
L 28.859375 30.46875 
L 28.859375 22.65625 
z
" id="LiberationSans-45"/>
    </defs>
    <use transform="translate(0 0.171875)" xlink:href="#LiberationSans-77"/>
    <use transform="translate(83.300781 0.171875)" xlink:href="#LiberationSans-50"/>
    <use transform="translate(138.916016 0.171875)" xlink:href="#LiberationSans-32"/>
    <use transform="translate(166.699219 0.171875)" xlink:href="#LiberationSans-45"/>
    <use transform="translate(200 0.171875)" xlink:href="#LiberationSans-32"/>
    <use transform="translate(227.783203 0.171875)" xlink:href="#DejaVuSans-Oblique-117"/>
   </g>
  </g>
 </g>
 <defs>
  <clipPath id="pbf7489c0ce">
   <rect height="78.268235" width="357.12" x="57.6" y="41.472"/>
  </clipPath>
  <clipPath id="p12b2ed3940">
   <rect height="78.268235" width="357.12" x="57.6" y="135.393882"/>
  </clipPath>
 </defs>
</svg>
