<?xml version="1.0" encoding="utf-8" standalone="no"?>
<!DOCTYPE svg PUBLIC "-//W3C//DTD SVG 1.1//EN"
  "http://www.w3.org/Graphics/SVG/1.1/DTD/svg11.dtd">
<!-- Created with matplotlib (https://matplotlib.org/) -->
<svg height="345.6pt" version="1.1" viewBox="0 0 460.8 345.6" width="460.8pt" xmlns="http://www.w3.org/2000/svg" xmlns:xlink="http://www.w3.org/1999/xlink">
 <metadata>
  <rdf:RDF xmlns:cc="http://creativecommons.org/ns#" xmlns:dc="http://purl.org/dc/elements/1.1/" xmlns:rdf="http://www.w3.org/1999/02/22-rdf-syntax-ns#">
   <cc:Work>
    <dc:type rdf:resource="http://purl.org/dc/dcmitype/StillImage"/>
    <dc:date>2022-05-05T12:16:14.020632</dc:date>
    <dc:format>image/svg+xml</dc:format>
    <dc:creator>
     <cc:Agent>
      <dc:title>Matplotlib v3.3.4, https://matplotlib.org/</dc:title>
     </cc:Agent>
    </dc:creator>
   </cc:Work>
  </rdf:RDF>
 </metadata>
 <defs>
  <style type="text/css">*{stroke-linecap:butt;stroke-linejoin:round;}</style>
 </defs>
 <g id="figure_1">
  <g id="patch_1">
   <path d="M 0 345.6 
L 460.8 345.6 
L 460.8 0 
L 0 0 
z
" style="fill:#262626;"/>
  </g>
  <g id="axes_1">
   <g id="patch_2">
    <path d="M 57.6 119.740235 
L 414.72 119.740235 
L 414.72 41.472 
L 57.6 41.472 
z
" style="fill:#1a1a1a;"/>
   </g>
   <g id="matplotlib.axis_1">
    <g id="xtick_1">
     <g id="line2d_1">
      <defs>
       <path d="M 0 0 
L 0 3.5 
" id="mf7606e0459" style="stroke:#ffffff;stroke-width:0.8;"/>
      </defs>
      <g>
       <use style="fill:#ffffff;stroke:#ffffff;stroke-width:0.8;" x="73.832727" xlink:href="#mf7606e0459" y="119.740235"/>
      </g>
     </g>
     <g id="text_1">
      <!-- 0 -->
      <g style="fill:#ffffff;" transform="translate(71.052259 133.98711)scale(0.1 -0.1)">
       <defs>
        <path d="M 51.703125 34.421875 
Q 51.703125 24.515625 49.828125 17.75 
Q 47.953125 10.984375 44.703125 6.8125 
Q 41.453125 2.640625 37.0625 0.828125 
Q 32.671875 -0.984375 27.6875 -0.984375 
Q 22.65625 -0.984375 18.3125 0.828125 
Q 13.96875 2.640625 10.765625 6.78125 
Q 7.5625 10.9375 5.734375 17.703125 
Q 3.90625 24.46875 3.90625 34.421875 
Q 3.90625 44.828125 5.734375 51.640625 
Q 7.5625 58.453125 10.78125 62.5 
Q 14.015625 66.546875 18.40625 68.1875 
Q 22.796875 69.828125 27.984375 69.828125 
Q 32.90625 69.828125 37.21875 68.1875 
Q 41.546875 66.546875 44.765625 62.5 
Q 48 58.453125 49.84375 51.640625 
Q 51.703125 44.828125 51.703125 34.421875 
z
M 42.78125 34.421875 
Q 42.78125 42.625 41.796875 48.0625 
Q 40.828125 53.515625 38.921875 56.765625 
Q 37.015625 60.015625 34.25 61.359375 
Q 31.5 62.703125 27.984375 62.703125 
Q 24.265625 62.703125 21.4375 61.328125 
Q 18.609375 59.96875 16.671875 56.71875 
Q 14.75 53.46875 13.765625 48.015625 
Q 12.796875 42.578125 12.796875 34.421875 
Q 12.796875 26.515625 13.796875 21.09375 
Q 14.796875 15.671875 16.71875 12.375 
Q 18.65625 9.078125 21.4375 7.640625 
Q 24.21875 6.203125 27.78125 6.203125 
Q 31.25 6.203125 34.03125 7.640625 
Q 36.8125 9.078125 38.734375 12.375 
Q 40.671875 15.671875 41.71875 21.09375 
Q 42.78125 26.515625 42.78125 34.421875 
z
" id="LiberationSans-48"/>
       </defs>
       <use xlink:href="#LiberationSans-48"/>
      </g>
     </g>
    </g>
    <g id="xtick_2">
     <g id="line2d_2">
      <g>
       <use style="fill:#ffffff;stroke:#ffffff;stroke-width:0.8;" x="138.776625" xlink:href="#mf7606e0459" y="119.740235"/>
      </g>
     </g>
     <g id="text_2">
      <!-- 200 -->
      <g style="fill:#ffffff;" transform="translate(130.435219 133.98711)scale(0.1 -0.1)">
       <defs>
        <path d="M 5.03125 0 
L 5.03125 6.203125 
Q 7.515625 11.921875 11.109375 16.28125 
Q 14.703125 20.65625 18.65625 24.1875 
Q 22.609375 27.734375 26.484375 30.765625 
Q 30.375 33.796875 33.5 36.8125 
Q 36.625 39.84375 38.546875 43.15625 
Q 40.484375 46.484375 40.484375 50.6875 
Q 40.484375 53.609375 39.59375 55.828125 
Q 38.71875 58.0625 37.0625 59.5625 
Q 35.40625 61.078125 33.078125 61.828125 
Q 30.765625 62.59375 27.9375 62.59375 
Q 25.296875 62.59375 22.96875 61.859375 
Q 20.65625 61.140625 18.84375 59.671875 
Q 17.046875 58.203125 15.890625 56.03125 
Q 14.75 53.859375 14.40625 50.984375 
L 5.421875 51.8125 
Q 5.859375 55.515625 7.46875 58.78125 
Q 9.078125 62.0625 11.90625 64.53125 
Q 14.75 67 18.71875 68.40625 
Q 22.703125 69.828125 27.9375 69.828125 
Q 33.0625 69.828125 37.0625 68.609375 
Q 41.0625 67.390625 43.8125 64.984375 
Q 46.578125 62.59375 48.046875 59.078125 
Q 49.515625 55.5625 49.515625 50.984375 
Q 49.515625 47.515625 48.265625 44.390625 
Q 47.015625 41.265625 44.9375 38.421875 
Q 42.875 35.59375 40.140625 32.953125 
Q 37.40625 30.328125 34.421875 27.8125 
Q 31.453125 25.296875 28.421875 22.828125 
Q 25.390625 20.359375 22.71875 17.859375 
Q 20.0625 15.375 17.96875 12.8125 
Q 15.875 10.25 14.703125 7.46875 
L 50.59375 7.46875 
L 50.59375 0 
z
" id="LiberationSans-50"/>
       </defs>
       <use xlink:href="#LiberationSans-50"/>
       <use x="55.615234" xlink:href="#LiberationSans-48"/>
       <use x="111.230469" xlink:href="#LiberationSans-48"/>
      </g>
     </g>
    </g>
    <g id="xtick_3">
     <g id="line2d_3">
      <g>
       <use style="fill:#ffffff;stroke:#ffffff;stroke-width:0.8;" x="203.720523" xlink:href="#mf7606e0459" y="119.740235"/>
      </g>
     </g>
     <g id="text_3">
      <!-- 400 -->
      <g style="fill:#ffffff;" transform="translate(195.379117 133.98711)scale(0.1 -0.1)">
       <defs>
        <path d="M 43.015625 15.578125 
L 43.015625 0 
L 34.71875 0 
L 34.71875 15.578125 
L 2.296875 15.578125 
L 2.296875 22.40625 
L 33.796875 68.796875 
L 43.015625 68.796875 
L 43.015625 22.515625 
L 52.6875 22.515625 
L 52.6875 15.578125 
z
M 34.71875 58.890625 
Q 34.625 58.640625 34.234375 57.9375 
Q 33.84375 57.234375 33.34375 56.34375 
Q 32.859375 55.46875 32.34375 54.5625 
Q 31.84375 53.65625 31.453125 53.078125 
L 13.8125 27.09375 
Q 13.578125 26.703125 13.109375 26.0625 
Q 12.640625 25.4375 12.15625 24.78125 
Q 11.671875 24.125 11.171875 23.484375 
Q 10.6875 22.859375 10.40625 22.515625 
L 34.71875 22.515625 
z
" id="LiberationSans-52"/>
       </defs>
       <use xlink:href="#LiberationSans-52"/>
       <use x="55.615234" xlink:href="#LiberationSans-48"/>
       <use x="111.230469" xlink:href="#LiberationSans-48"/>
      </g>
     </g>
    </g>
    <g id="xtick_4">
     <g id="line2d_4">
      <g>
       <use style="fill:#ffffff;stroke:#ffffff;stroke-width:0.8;" x="268.664421" xlink:href="#mf7606e0459" y="119.740235"/>
      </g>
     </g>
     <g id="text_4">
      <!-- 600 -->
      <g style="fill:#ffffff;" transform="translate(260.323015 133.98711)scale(0.1 -0.1)">
       <defs>
        <path d="M 51.21875 22.515625 
Q 51.21875 17.328125 49.78125 13 
Q 48.34375 8.6875 45.53125 5.578125 
Q 42.71875 2.484375 38.5625 0.75 
Q 34.421875 -0.984375 29 -0.984375 
Q 23 -0.984375 18.5 1.3125 
Q 14.015625 3.609375 11.03125 7.921875 
Q 8.0625 12.25 6.5625 18.53125 
Q 5.078125 24.8125 5.078125 32.8125 
Q 5.078125 42 6.765625 48.921875 
Q 8.453125 55.859375 11.625 60.5 
Q 14.796875 65.140625 19.359375 67.484375 
Q 23.921875 69.828125 29.6875 69.828125 
Q 33.203125 69.828125 36.28125 69.09375 
Q 39.359375 68.359375 41.875 66.71875 
Q 44.390625 65.09375 46.28125 62.40625 
Q 48.1875 59.71875 49.3125 55.8125 
L 40.921875 54.296875 
Q 39.546875 58.734375 36.546875 60.71875 
Q 33.546875 62.703125 29.59375 62.703125 
Q 25.984375 62.703125 23.046875 60.984375 
Q 20.125 59.28125 18.0625 55.875 
Q 16.015625 52.484375 14.90625 47.359375 
Q 13.8125 42.234375 13.8125 35.40625 
Q 16.21875 39.84375 20.5625 42.15625 
Q 24.90625 44.484375 30.515625 44.484375 
Q 35.203125 44.484375 39.015625 42.96875 
Q 42.828125 41.453125 45.53125 38.59375 
Q 48.25 35.75 49.734375 31.671875 
Q 51.21875 27.59375 51.21875 22.515625 
z
M 42.28125 22.125 
Q 42.28125 25.6875 41.40625 28.5625 
Q 40.53125 31.453125 38.765625 33.46875 
Q 37.015625 35.5 34.421875 36.59375 
Q 31.84375 37.703125 28.421875 37.703125 
Q 26.03125 37.703125 23.578125 36.984375 
Q 21.140625 36.28125 19.15625 34.6875 
Q 17.1875 33.109375 15.9375 30.515625 
Q 14.703125 27.9375 14.703125 24.21875 
Q 14.703125 20.40625 15.671875 17.109375 
Q 16.65625 13.8125 18.484375 11.375 
Q 20.3125 8.9375 22.890625 7.515625 
Q 25.484375 6.109375 28.71875 6.109375 
Q 31.890625 6.109375 34.40625 7.203125 
Q 36.921875 8.296875 38.671875 10.375 
Q 40.4375 12.453125 41.359375 15.421875 
Q 42.28125 18.40625 42.28125 22.125 
z
" id="LiberationSans-54"/>
       </defs>
       <use xlink:href="#LiberationSans-54"/>
       <use x="55.615234" xlink:href="#LiberationSans-48"/>
       <use x="111.230469" xlink:href="#LiberationSans-48"/>
      </g>
     </g>
    </g>
    <g id="xtick_5">
     <g id="line2d_5">
      <g>
       <use style="fill:#ffffff;stroke:#ffffff;stroke-width:0.8;" x="333.608319" xlink:href="#mf7606e0459" y="119.740235"/>
      </g>
     </g>
     <g id="text_5">
      <!-- 800 -->
      <g style="fill:#ffffff;" transform="translate(325.266913 133.98711)scale(0.1 -0.1)">
       <defs>
        <path d="M 51.265625 19.1875 
Q 51.265625 14.796875 49.875 11.109375 
Q 48.484375 7.421875 45.625 4.734375 
Q 42.78125 2.046875 38.328125 0.53125 
Q 33.890625 -0.984375 27.828125 -0.984375 
Q 21.78125 -0.984375 17.359375 0.53125 
Q 12.9375 2.046875 10.03125 4.703125 
Q 7.125 7.375 5.734375 11.0625 
Q 4.34375 14.75 4.34375 19.09375 
Q 4.34375 22.859375 5.484375 25.78125 
Q 6.640625 28.71875 8.5625 30.828125 
Q 10.5 32.953125 12.96875 34.25 
Q 15.4375 35.546875 18.0625 35.984375 
L 18.0625 36.1875 
Q 15.1875 36.859375 12.90625 38.375 
Q 10.640625 39.890625 9.09375 42.015625 
Q 7.5625 44.140625 6.75 46.71875 
Q 5.953125 49.3125 5.953125 52.203125 
Q 5.953125 55.8125 7.34375 59 
Q 8.734375 62.203125 11.46875 64.625 
Q 14.203125 67.046875 18.25 68.4375 
Q 22.3125 69.828125 27.640625 69.828125 
Q 33.25 69.828125 37.375 68.40625 
Q 41.5 67 44.203125 64.578125 
Q 46.921875 62.15625 48.234375 58.9375 
Q 49.5625 55.71875 49.5625 52.09375 
Q 49.5625 49.265625 48.75 46.671875 
Q 47.953125 44.09375 46.40625 41.96875 
Q 44.875 39.84375 42.59375 38.34375 
Q 40.328125 36.859375 37.359375 36.28125 
L 37.359375 36.078125 
Q 40.328125 35.59375 42.859375 34.296875 
Q 45.40625 33.015625 47.265625 30.890625 
Q 49.125 28.765625 50.1875 25.828125 
Q 51.265625 22.90625 51.265625 19.1875 
z
M 40.4375 51.609375 
Q 40.4375 54.203125 39.765625 56.34375 
Q 39.109375 58.5 37.59375 60.03125 
Q 36.078125 61.578125 33.640625 62.421875 
Q 31.203125 63.28125 27.640625 63.28125 
Q 24.171875 63.28125 21.78125 62.421875 
Q 19.390625 61.578125 17.84375 60.03125 
Q 16.3125 58.5 15.625 56.34375 
Q 14.9375 54.203125 14.9375 51.609375 
Q 14.9375 49.5625 15.46875 47.40625 
Q 16.015625 45.265625 17.421875 43.5 
Q 18.84375 41.75 21.328125 40.625 
Q 23.828125 39.5 27.734375 39.5 
Q 31.890625 39.5 34.40625 40.625 
Q 36.921875 41.75 38.25 43.5 
Q 39.59375 45.265625 40.015625 47.40625 
Q 40.4375 49.5625 40.4375 51.609375 
z
M 42.140625 20.015625 
Q 42.140625 22.515625 41.453125 24.828125 
Q 40.765625 27.15625 39.109375 28.9375 
Q 37.453125 30.71875 34.640625 31.8125 
Q 31.84375 32.90625 27.640625 32.90625 
Q 23.78125 32.90625 21.0625 31.8125 
Q 18.359375 30.71875 16.671875 28.90625 
Q 14.984375 27.09375 14.203125 24.71875 
Q 13.421875 22.359375 13.421875 19.828125 
Q 13.421875 16.65625 14.203125 14.03125 
Q 14.984375 11.421875 16.6875 9.546875 
Q 18.40625 7.671875 21.1875 6.640625 
Q 23.96875 5.609375 27.9375 5.609375 
Q 31.9375 5.609375 34.671875 6.640625 
Q 37.40625 7.671875 39.0625 9.546875 
Q 40.71875 11.421875 41.421875 14.078125 
Q 42.140625 16.75 42.140625 20.015625 
z
" id="LiberationSans-56"/>
       </defs>
       <use xlink:href="#LiberationSans-56"/>
       <use x="55.615234" xlink:href="#LiberationSans-48"/>
       <use x="111.230469" xlink:href="#LiberationSans-48"/>
      </g>
     </g>
    </g>
    <g id="xtick_6">
     <g id="line2d_6">
      <g>
       <use style="fill:#ffffff;stroke:#ffffff;stroke-width:0.8;" x="398.552217" xlink:href="#mf7606e0459" y="119.740235"/>
      </g>
     </g>
     <g id="text_6">
      <!-- 1000 -->
      <g style="fill:#ffffff;" transform="translate(387.430342 133.98711)scale(0.1 -0.1)">
       <defs>
        <path d="M 7.625 0 
L 7.625 7.46875 
L 25.140625 7.46875 
L 25.140625 60.40625 
L 9.625 49.3125 
L 9.625 57.625 
L 25.875 68.796875 
L 33.984375 68.796875 
L 33.984375 7.46875 
L 50.734375 7.46875 
L 50.734375 0 
z
" id="LiberationSans-49"/>
       </defs>
       <use xlink:href="#LiberationSans-49"/>
       <use x="55.615234" xlink:href="#LiberationSans-48"/>
       <use x="111.230469" xlink:href="#LiberationSans-48"/>
       <use x="166.845703" xlink:href="#LiberationSans-48"/>
      </g>
     </g>
    </g>
   </g>
   <g id="matplotlib.axis_2">
    <g id="ytick_1">
     <g id="line2d_7">
      <defs>
       <path d="M 0 0 
L -3.5 0 
" id="m136b17d8af" style="stroke:#ffffff;stroke-width:0.8;"/>
      </defs>
      <g>
       <use style="fill:#ffffff;stroke:#ffffff;stroke-width:0.8;" x="57.6" xlink:href="#m136b17d8af" y="118.116349"/>
      </g>
     </g>
     <g id="text_7">
      <!-- −1 -->
      <g style="fill:#ffffff;" transform="translate(39.198437 121.739786)scale(0.1 -0.1)">
       <defs>
        <path d="M 4.9375 29.6875 
L 4.9375 36.8125 
L 53.515625 36.8125 
L 53.515625 29.6875 
z
" id="LiberationSans-8722"/>
       </defs>
       <use xlink:href="#LiberationSans-8722"/>
       <use x="58.398438" xlink:href="#LiberationSans-49"/>
      </g>
     </g>
    </g>
    <g id="ytick_2">
     <g id="line2d_8">
      <g>
       <use style="fill:#ffffff;stroke:#ffffff;stroke-width:0.8;" x="57.6" xlink:href="#m136b17d8af" y="91.915053"/>
      </g>
     </g>
     <g id="text_8">
      <!-- 0 -->
      <g style="fill:#ffffff;" transform="translate(45.039062 95.538491)scale(0.1 -0.1)">
       <use xlink:href="#LiberationSans-48"/>
      </g>
     </g>
    </g>
    <g id="ytick_3">
     <g id="line2d_9">
      <g>
       <use style="fill:#ffffff;stroke:#ffffff;stroke-width:0.8;" x="57.6" xlink:href="#m136b17d8af" y="65.713758"/>
      </g>
     </g>
     <g id="text_9">
      <!-- 1 -->
      <g style="fill:#ffffff;" transform="translate(45.039062 69.337195)scale(0.1 -0.1)">
       <use xlink:href="#LiberationSans-49"/>
      </g>
     </g>
    </g>
    <g id="text_10">
     <!-- $u$ -->
     <g style="fill:#ffffff;" transform="translate(33.123437 83.806118)rotate(-90)scale(0.1 -0.1)">
      <defs>
       <path d="M 6.6875 21.6875 
L 13.09375 54.6875 
L 22.125 54.6875 
L 15.71875 22.015625 
Q 15.234375 19.625 15.015625 17.921875 
Q 14.796875 16.21875 14.796875 15.09375 
Q 14.796875 10.9375 17.328125 8.65625 
Q 19.875 6.390625 24.515625 6.390625 
Q 31.734375 6.390625 37 11.265625 
Q 42.28125 16.15625 43.890625 24.421875 
L 49.90625 54.6875 
L 58.890625 54.6875 
L 48.296875 0 
L 39.3125 0 
L 41.109375 8.59375 
Q 37.3125 3.8125 32.0625 1.1875 
Q 26.8125 -1.421875 20.90625 -1.421875 
Q 13.71875 -1.421875 9.71875 2.515625 
Q 5.71875 6.453125 5.71875 13.484375 
Q 5.71875 14.9375 5.953125 17.140625 
Q 6.203125 19.34375 6.6875 21.6875 
z
" id="DejaVuSans-Oblique-117"/>
      </defs>
      <use transform="translate(0 0.3125)" xlink:href="#DejaVuSans-Oblique-117"/>
     </g>
    </g>
   </g>
   <g id="line2d_10">
    <path clip-path="url(#p62c0627fe1)" d="M 73.832727 45.029647 
L 73.897671 105.158291 
L 73.962615 104.628797 
L 75.196549 95.512129 
L 76.430483 87.973017 
L 77.664417 81.73848 
L 78.119025 79.724171 
L 78.183968 104.561156 
L 78.248912 104.037604 
L 79.482846 95.023236 
L 80.71678 87.568723 
L 81.950715 81.404145 
L 83.184649 76.306291 
L 83.249592 76.06388 
L 83.314536 100.937284 
L 83.37948 100.44979 
L 84.613414 92.056261 
L 85.847348 85.115156 
L 85.977236 84.458318 
L 86.04218 95.940073 
L 86.107124 95.502302 
L 87.341058 87.964891 
L 88.574992 81.73176 
L 89.808926 76.577215 
L 90.263533 74.91184 
L 90.328477 99.796707 
L 90.393421 99.320563 
L 91.627355 91.122436 
L 92.861289 84.342921 
L 92.926233 84.020543 
L 92.991177 95.506655 
L 93.056121 95.073196 
L 94.290055 87.610038 
L 95.523989 81.438311 
L 96.757923 76.334545 
L 96.887811 75.851574 
L 96.952755 100.727092 
L 97.017699 100.241689 
L 98.251633 91.88417 
L 99.485567 84.972843 
L 99.550511 84.644198 
L 99.615455 96.124104 
L 99.680399 95.684502 
L 100.914333 88.115563 
L 102.148267 81.856359 
L 103.317257 76.92886 
L 103.382201 101.793658 
L 103.447145 101.297643 
L 104.681079 92.757401 
L 105.915013 85.694969 
L 106.889171 80.993692 
L 106.954115 92.509921 
L 107.019059 92.106281 
L 108.252993 85.15652 
L 109.486927 79.409352 
L 109.811647 78.069838 
L 109.876591 102.923283 
L 109.941534 102.416028 
L 111.175469 93.68226 
L 112.409403 86.45979 
L 113.643337 80.487103 
L 113.708281 80.203092 
L 113.773224 91.727187 
L 113.838168 91.331335 
L 115.072102 84.515672 
L 116.306036 78.879396 
L 116.955475 76.31613 
L 117.020419 101.187025 
L 117.085363 100.697046 
L 118.319297 92.260731 
L 118.449185 91.462401 
L 118.514129 116.182588 
L 118.579073 115.543401 
L 119.813007 104.538061 
L 121.046941 95.437094 
L 122.150987 88.637552 
L 122.215931 100.077724 
L 122.280875 99.598783 
L 123.514809 91.352513 
L 124.748743 84.533185 
L 125.982677 78.893879 
L 127.216611 74.230403 
L 127.476387 73.356531 
L 127.541331 98.256874 
L 127.606275 97.796051 
L 128.840209 89.861727 
L 129.619536 85.573978 
L 129.684479 97.044632 
L 129.749423 96.595871 
L 130.983357 88.869227 
L 132.217291 82.479609 
L 132.606955 80.701338 
L 132.671899 105.5286 
L 132.736843 104.995421 
L 133.970777 95.815312 
L 135.204711 88.223737 
L 136.438645 81.945815 
L 136.69842 80.769417 
L 136.763364 92.287878 
L 136.828308 91.886447 
L 138.062242 84.974726 
L 138.906513 81.249053 
L 139.815728 79.566556 
L 140.659998 78.448917 
L 140.984718 78.121459 
L 141.049662 103.175775 
L 141.114605 102.868889 
L 142.868091 94.207456 
L 144.102025 88.196043 
L 144.166969 87.91019 
L 144.231913 93.704869 
L 144.296856 93.364203 
L 145.530791 87.498707 
L 146.764725 82.648182 
L 147.998659 78.636996 
L 148.19349 78.070455 
L 148.258434 102.998757 
L 148.323378 102.565615 
L 149.557312 95.107899 
L 150.791246 88.940673 
L 151.765405 84.83531 
L 151.830349 85.68003 
L 151.895293 85.419212 
L 152.220012 84.153538 
L 152.284956 89.33553 
L 152.3499 89.03834 
L 153.583834 83.921395 
L 154.817768 79.689891 
L 155.467207 77.765487 
L 155.532151 102.696824 
L 155.597095 102.266686 
L 156.831029 94.860697 
L 158.064963 88.736246 
L 159.298897 83.671576 
L 160.273055 80.300157 
L 160.337999 86.170557 
L 160.402943 85.904858 
L 161.636877 81.330134 
L 162.221372 79.448452 
L 162.286316 104.363044 
L 162.35126 103.916327 
L 163.585194 96.224882 
L 164.819128 89.864372 
L 166.053062 84.60449 
L 167.286996 80.254783 
L 167.67666 79.044232 
L 167.741604 79.946574 
L 167.806547 79.742805 
L 167.936435 79.341329 
L 168.001379 104.256987 
L 168.066323 103.811325 
L 169.300257 96.13805 
L 170.534191 89.792565 
L 171.638237 84.148844 
L 171.898013 82.543767 
L 171.962957 107.262109 
L 172.027901 106.619599 
L 173.456667 93.640867 
L 173.911274 89.931313 
L 173.976218 113.043213 
L 174.041162 112.296764 
L 174.820488 104.53784 
L 176.054423 95.436911 
L 177.288357 87.910815 
L 178.522291 81.687041 
L 179.366561 78.061197 
L 179.431505 102.914728 
L 179.496449 102.407558 
L 180.730383 93.675255 
L 181.964317 86.453998 
L 182.094205 85.770649 
L 182.159149 110.547469 
L 182.224093 109.964353 
L 183.458027 99.924416 
L 184.691961 91.621798 
L 184.756905 91.226995 
L 184.821849 102.641401 
L 184.886793 102.13695 
L 186.120727 93.451474 
L 187.354661 86.26894 
L 188.588595 80.329277 
L 189.757585 75.653334 
L 189.822529 100.530823 
L 189.887473 100.047374 
L 191.121407 91.723479 
L 192.095565 86.182479 
L 192.160509 97.663401 
L 192.225453 97.208483 
L 193.459387 89.375833 
L 194.693321 82.898551 
L 195.602536 78.85456 
L 195.66748 103.700197 
L 195.732424 103.185211 
L 196.966358 94.318343 
L 197.226133 92.656811 
L 197.291077 93.348842 
L 197.356021 92.936854 
L 198.589955 85.84337 
L 199.629057 80.831099 
L 199.694001 92.365269 
L 199.758945 91.963068 
L 200.992879 85.038089 
L 202.226813 79.311414 
L 202.681421 77.46119 
L 202.746365 102.320691 
L 202.811308 101.819432 
L 203.785467 95.022624 
L 204.759625 91.3002 
L 205.733784 88.410685 
L 205.993559 87.765615 
L 206.058503 93.689751 
L 206.123447 93.47875 
L 207.357381 89.211136 
L 208.591315 84.06429 
L 209.825249 79.80806 
L 210.539632 77.689279 
L 210.604576 102.621374 
L 210.66952 102.191987 
L 211.448847 97.360733 
L 211.513791 98.080823 
L 211.578735 97.696615 
L 212.812669 91.081435 
L 214.046603 85.610952 
L 215.280537 81.087085 
L 216.319639 77.890512 
L 216.384583 102.820605 
L 216.449527 102.389235 
L 216.969078 99.089264 
L 217.034022 104.772709 
L 217.098966 104.321916 
L 218.3329 96.560288 
L 219.566834 90.141739 
L 220.800768 84.833861 
L 222.034702 80.444463 
L 222.814029 78.07241 
L 222.878973 103.000693 
L 222.943917 102.567532 
L 224.177851 95.109484 
L 225.411785 88.941983 
L 226.126168 85.87176 
L 226.191112 91.686721 
L 226.256056 91.366136 
L 227.48999 85.846387 
L 228.723924 81.281781 
L 229.438307 79.009489 
L 229.50325 79.912177 
L 229.568194 79.70875 
L 229.82797 78.915084 
L 229.892914 103.834982 
L 229.957858 103.393519 
L 231.191792 95.792542 
L 232.425726 89.506844 
L 233.65966 84.308829 
L 234.893594 80.010283 
L 235.867752 77.148853 
L 235.932696 102.086325 
L 235.99764 101.662262 
L 236.517191 97.665796 
L 238.010901 86.201782 
L 238.075845 85.743371 
L 238.140789 97.093306 
L 238.205733 96.523528 
L 239.504611 86.101774 
L 240.738545 80.191038 
L 241.258096 78.019283 
L 241.32304 102.873231 
L 241.387984 102.366474 
L 242.621918 93.64128 
L 243.855852 86.425902 
L 244.894954 81.3275 
L 244.959898 92.85673 
L 245.024842 92.449639 
L 246.258776 85.440463 
L 247.49271 79.644161 
L 248.596756 75.313611 
L 248.6617 86.886358 
L 248.726644 86.538673 
L 249.960578 80.552336 
L 250.025522 80.267675 
L 250.090466 105.099252 
L 250.15541 104.570345 
L 251.389344 95.463792 
L 252.623278 87.933044 
L 253.857212 81.705424 
L 253.9871 81.116103 
L 254.052044 105.939237 
L 254.116988 105.401973 
L 255.350922 96.151514 
L 256.584856 88.501763 
L 257.299239 84.693665 
L 257.364183 96.173078 
L 257.429127 95.732989 
L 258.663061 88.155659 
L 259.896995 81.889517 
L 261.130929 76.707674 
L 261.715424 74.576272 
L 261.780368 99.464478 
L 261.845312 98.991639 
L 263.079246 90.85043 
L 264.31318 84.117983 
L 264.702843 82.2443 
L 264.767787 93.748086 
L 264.832731 93.332126 
L 266.066665 86.170243 
L 267.300599 80.24766 
L 267.755206 78.33414 
L 267.82015 103.184955 
L 267.885094 102.675096 
L 269.119028 93.896498 
L 270.352962 86.636957 
L 271.457008 81.213186 
L 271.521952 92.727231 
L 271.586896 92.321429 
L 272.82083 85.334439 
L 274.054764 79.556483 
L 274.639259 77.179887 
L 274.704203 102.042187 
L 274.769147 101.543699 
L 276.003081 92.960879 
L 277.237015 85.863238 
L 278.470949 79.993779 
L 278.795669 78.625762 
L 278.860613 115.278956 
L 278.925557 114.648761 
L 280.159491 103.798229 
L 281.393425 94.825284 
L 282.627359 87.405024 
L 283.861293 81.268773 
L 284.64062 77.952711 
L 284.705564 102.807321 
L 284.770508 102.30122 
L 286.004442 93.587318 
L 287.108488 87.076962 
L 287.173432 98.532661 
L 287.238376 98.069094 
L 288.47231 90.087523 
L 289.706244 83.487089 
L 290.940178 78.028801 
L 291.784449 74.848913 
L 291.849392 99.734406 
L 291.914336 99.258881 
L 293.14827 91.071428 
L 294.382204 84.300739 
L 294.577036 83.344445 
L 294.64198 94.837284 
L 294.706924 94.410486 
L 295.940858 87.062004 
L 297.174792 80.985109 
L 297.239736 105.809546 
L 297.30468 105.273573 
L 298.538614 96.045332 
L 299.772548 88.413954 
L 301.006482 82.103117 
L 301.071426 106.91643 
L 301.13637 106.369443 
L 302.370304 96.951572 
L 303.47435 89.915264 
L 303.539294 101.342722 
L 303.604238 100.851194 
L 304.838172 92.388206 
L 306.072106 85.38966 
L 307.30604 79.602149 
L 307.565816 78.517648 
L 307.63076 103.366637 
L 307.695704 102.85497 
L 308.929638 94.045247 
L 310.163572 86.759966 
L 310.683123 84.083167 
L 310.748067 95.568655 
L 310.813011 95.13458 
L 312.046945 87.6608 
L 313.280879 81.480289 
L 314.060205 78.140309 
L 314.125149 102.993053 
L 314.190093 102.485103 
L 315.424027 93.739382 
L 316.657961 86.507028 
L 317.502232 82.293605 
L 317.567176 93.7969 
L 317.63212 93.380454 
L 318.866054 86.210209 
L 318.930998 110.982656 
L 318.995942 110.395209 
L 320.229876 100.280716 
L 321.46381 91.916444 
L 322.697744 84.999533 
L 323.606958 80.681066 
L 323.671902 105.508528 
L 323.736846 104.97555 
L 324.97078 95.798879 
L 326.204714 88.210148 
L 326.269658 87.849291 
L 326.334602 99.297306 
L 326.399546 98.82613 
L 327.63348 90.713561 
L 328.867414 84.004797 
L 330.101348 78.456924 
L 330.685843 76.174966 
L 330.750787 101.047265 
L 330.815731 100.558677 
L 332.049665 92.146306 
L 333.283599 85.189619 
L 333.673263 83.103053 
L 333.738207 94.446318 
L 333.80315 93.869939 
L 335.231916 82.19065 
L 335.686523 78.8381 
L 335.751467 110.179025 
L 335.816411 109.399687 
L 336.985401 96.684546 
L 338.219336 87.640621 
L 338.738887 84.317652 
L 338.803831 95.742266 
L 338.868774 95.2316 
L 340.102709 86.439094 
L 341.336643 79.168051 
L 342.245857 74.628487 
L 342.310801 99.441311 
L 342.375745 98.893838 
L 343.609679 89.467615 
L 343.869455 87.701268 
L 343.934399 99.092215 
L 343.999342 98.548216 
L 345.168333 89.631665 
L 345.233276 90.278933 
L 345.29822 89.822627 
L 346.532154 81.966095 
L 347.441369 77.06099 
L 347.506313 88.557809 
L 347.571257 88.118629 
L 348.805191 80.556958 
L 350.039125 74.303765 
L 350.558676 72.006182 
L 350.62362 96.845097 
L 350.688564 96.323458 
L 351.922498 87.342016 
L 352.377105 84.440213 
L 352.442049 90.735519 
L 352.506993 90.27467 
L 352.701825 88.919456 
L 352.766769 94.554365 
L 352.831713 94.055519 
L 354.065647 85.466523 
L 355.169693 79.049487 
L 355.234637 103.81832 
L 355.299581 103.227296 
L 356.533515 93.051208 
L 357.312841 87.551997 
L 357.377785 93.81634 
L 357.442729 93.324837 
L 358.676663 84.862279 
L 358.871495 83.667025 
L 358.936439 108.389913 
L 359.001383 107.753401 
L 360.235317 96.794112 
L 361.014644 90.871655 
L 361.079588 102.214733 
L 361.144531 101.639665 
L 362.378466 91.738302 
L 363.6124 83.550279 
L 364.651502 77.764605 
L 364.716446 89.254423 
L 364.78139 88.808312 
L 366.015324 81.127297 
L 366.275099 80.139411 
L 366.340043 79.938965 
L 366.404987 104.855414 
L 366.469931 104.412034 
L 367.509033 98.082953 
L 368.548136 93.04565 
L 369.847014 87.073543 
L 371.080948 80.994652 
L 371.405667 79.577822 
L 371.470611 91.108139 
L 371.535555 90.718447 
L 372.769489 84.008838 
L 374.003423 78.460266 
L 374.522974 76.421578 
L 374.587918 101.291424 
L 374.652862 100.800406 
L 375.886796 92.346206 
L 377.12073 85.354928 
L 378.354664 79.573427 
L 378.484552 79.026323 
L 378.549496 90.562128 
L 378.61444 90.177868 
L 379.848374 83.561802 
L 381.082308 78.090585 
L 382.316242 73.566112 
L 382.576018 72.718287 
L 382.640962 97.624981 
L 382.705906 97.170445 
L 383.93984 89.344376 
L 385.173774 82.872538 
L 385.303661 82.260107 
L 385.368605 107.071858 
L 385.433549 106.523324 
L 386.667483 97.078825 
L 387.511754 91.576652 
L 387.576698 102.987579 
L 387.641642 102.479684 
L 388.875576 93.734901 
L 390.10951 86.503322 
L 391.343444 80.523102 
L 392.577378 75.577704 
L 392.642322 100.455947 
L 392.707266 99.973242 
L 393.9412 91.662175 
L 394.525695 88.243657 
L 394.590639 99.687747 
L 394.655583 99.212687 
L 395.889517 91.033227 
L 397.123451 84.269148 
L 398.292441 78.944191 
L 398.357385 103.788936 
L 398.422329 103.273067 
L 398.487273 102.762332 
L 398.487273 102.762332 
" style="fill:none;stroke:#9a72ac;stroke-linecap:round;stroke-width:1.5;"/>
   </g>
   <g id="patch_3">
    <path d="M 57.6 119.740235 
L 57.6 41.472 
" style="fill:none;stroke:#ffffff;stroke-linecap:square;stroke-linejoin:miter;stroke-width:0.8;"/>
   </g>
   <g id="patch_4">
    <path d="M 414.72 119.740235 
L 414.72 41.472 
" style="fill:none;stroke:#ffffff;stroke-linecap:square;stroke-linejoin:miter;stroke-width:0.8;"/>
   </g>
   <g id="patch_5">
    <path d="M 57.6 119.740235 
L 414.72 119.740235 
" style="fill:none;stroke:#ffffff;stroke-linecap:square;stroke-linejoin:miter;stroke-width:0.8;"/>
   </g>
   <g id="patch_6">
    <path d="M 57.6 41.472 
L 414.72 41.472 
" style="fill:none;stroke:#ffffff;stroke-linecap:square;stroke-linejoin:miter;stroke-width:0.8;"/>
   </g>
  </g>
  <g id="axes_2">
   <g id="patch_7">
    <path d="M 57.6 213.662118 
L 414.72 213.662118 
L 414.72 135.393882 
L 57.6 135.393882 
z
" style="fill:#1a1a1a;"/>
   </g>
   <g id="matplotlib.axis_3">
    <g id="xtick_7">
     <g id="line2d_11">
      <g>
       <use style="fill:#ffffff;stroke:#ffffff;stroke-width:0.8;" x="73.832727" xlink:href="#mf7606e0459" y="213.662118"/>
      </g>
     </g>
     <g id="text_11">
      <!-- 0 -->
      <g style="fill:#ffffff;" transform="translate(71.052259 227.908993)scale(0.1 -0.1)">
       <use xlink:href="#LiberationSans-48"/>
      </g>
     </g>
    </g>
    <g id="xtick_8">
     <g id="line2d_12">
      <g>
       <use style="fill:#ffffff;stroke:#ffffff;stroke-width:0.8;" x="138.776625" xlink:href="#mf7606e0459" y="213.662118"/>
      </g>
     </g>
     <g id="text_12">
      <!-- 200 -->
      <g style="fill:#ffffff;" transform="translate(130.435219 227.908993)scale(0.1 -0.1)">
       <use xlink:href="#LiberationSans-50"/>
       <use x="55.615234" xlink:href="#LiberationSans-48"/>
       <use x="111.230469" xlink:href="#LiberationSans-48"/>
      </g>
     </g>
    </g>
    <g id="xtick_9">
     <g id="line2d_13">
      <g>
       <use style="fill:#ffffff;stroke:#ffffff;stroke-width:0.8;" x="203.720523" xlink:href="#mf7606e0459" y="213.662118"/>
      </g>
     </g>
     <g id="text_13">
      <!-- 400 -->
      <g style="fill:#ffffff;" transform="translate(195.379117 227.908993)scale(0.1 -0.1)">
       <use xlink:href="#LiberationSans-52"/>
       <use x="55.615234" xlink:href="#LiberationSans-48"/>
       <use x="111.230469" xlink:href="#LiberationSans-48"/>
      </g>
     </g>
    </g>
    <g id="xtick_10">
     <g id="line2d_14">
      <g>
       <use style="fill:#ffffff;stroke:#ffffff;stroke-width:0.8;" x="268.664421" xlink:href="#mf7606e0459" y="213.662118"/>
      </g>
     </g>
     <g id="text_14">
      <!-- 600 -->
      <g style="fill:#ffffff;" transform="translate(260.323015 227.908993)scale(0.1 -0.1)">
       <use xlink:href="#LiberationSans-54"/>
       <use x="55.615234" xlink:href="#LiberationSans-48"/>
       <use x="111.230469" xlink:href="#LiberationSans-48"/>
      </g>
     </g>
    </g>
    <g id="xtick_11">
     <g id="line2d_15">
      <g>
       <use style="fill:#ffffff;stroke:#ffffff;stroke-width:0.8;" x="333.608319" xlink:href="#mf7606e0459" y="213.662118"/>
      </g>
     </g>
     <g id="text_15">
      <!-- 800 -->
      <g style="fill:#ffffff;" transform="translate(325.266913 227.908993)scale(0.1 -0.1)">
       <use xlink:href="#LiberationSans-56"/>
       <use x="55.615234" xlink:href="#LiberationSans-48"/>
       <use x="111.230469" xlink:href="#LiberationSans-48"/>
      </g>
     </g>
    </g>
    <g id="xtick_12">
     <g id="line2d_16">
      <g>
       <use style="fill:#ffffff;stroke:#ffffff;stroke-width:0.8;" x="398.552217" xlink:href="#mf7606e0459" y="213.662118"/>
      </g>
     </g>
     <g id="text_16">
      <!-- 1000 -->
      <g style="fill:#ffffff;" transform="translate(387.430342 227.908993)scale(0.1 -0.1)">
       <use xlink:href="#LiberationSans-49"/>
       <use x="55.615234" xlink:href="#LiberationSans-48"/>
       <use x="111.230469" xlink:href="#LiberationSans-48"/>
       <use x="166.845703" xlink:href="#LiberationSans-48"/>
      </g>
     </g>
    </g>
    <g id="text_17">
     <!-- $t$ (ms) -->
     <g style="fill:#ffffff;" transform="translate(222.81 241.283993)scale(0.1 -0.1)">
      <defs>
       <path d="M 42.28125 54.6875 
L 40.921875 47.703125 
L 23 47.703125 
L 17.1875 18.015625 
Q 16.890625 16.359375 16.75 15.234375 
Q 16.609375 14.109375 16.609375 13.484375 
Q 16.609375 10.359375 18.484375 8.9375 
Q 20.359375 7.515625 24.515625 7.515625 
L 33.59375 7.515625 
L 32.078125 0 
L 23.484375 0 
Q 15.484375 0 11.546875 3.125 
Q 7.625 6.25 7.625 12.59375 
Q 7.625 13.71875 7.765625 15.0625 
Q 7.90625 16.40625 8.203125 18.015625 
L 14.015625 47.703125 
L 6.390625 47.703125 
L 7.8125 54.6875 
L 15.28125 54.6875 
L 18.3125 70.21875 
L 27.296875 70.21875 
L 24.3125 54.6875 
z
" id="DejaVuSans-Oblique-116"/>
       <path id="LiberationSans-32"/>
       <path d="M 6.203125 25.984375 
Q 6.203125 32.765625 7.21875 38.96875 
Q 8.25 45.171875 10.4375 50.875 
Q 12.640625 56.59375 16.0625 61.953125 
Q 19.484375 67.328125 24.21875 72.46875 
L 32.71875 72.46875 
Q 28.125 67.328125 24.78125 61.9375 
Q 21.4375 56.546875 19.28125 50.796875 
Q 17.140625 45.0625 16.09375 38.859375 
Q 15.046875 32.671875 15.046875 25.875 
Q 15.046875 19.09375 16.09375 12.890625 
Q 17.140625 6.6875 19.28125 0.921875 
Q 21.4375 -4.828125 24.78125 -10.203125 
Q 28.125 -15.578125 32.71875 -20.703125 
L 24.21875 -20.703125 
Q 19.484375 -15.578125 16.0625 -10.203125 
Q 12.640625 -4.828125 10.4375 0.875 
Q 8.25 6.59375 7.21875 12.765625 
Q 6.203125 18.953125 6.203125 25.78125 
z
" id="LiberationSans-40"/>
       <path d="M 37.5 0 
L 37.5 33.5 
Q 37.5 37.359375 37.015625 39.9375 
Q 36.53125 42.53125 35.375 44.109375 
Q 34.234375 45.703125 32.375 46.359375 
Q 30.515625 47.015625 27.828125 47.015625 
Q 25.046875 47.015625 22.796875 45.921875 
Q 20.5625 44.828125 18.96875 42.75 
Q 17.390625 40.671875 16.53125 37.625 
Q 15.671875 34.578125 15.671875 30.609375 
L 15.671875 0 
L 6.9375 0 
L 6.9375 41.546875 
Q 6.9375 43.21875 6.90625 45.046875 
Q 6.890625 46.875 6.828125 48.5 
Q 6.78125 50.140625 6.734375 51.3125 
Q 6.6875 52.484375 6.640625 52.828125 
L 14.9375 52.828125 
Q 14.984375 52.59375 15.03125 51.515625 
Q 15.09375 50.4375 15.15625 49.046875 
Q 15.234375 47.65625 15.28125 46.21875 
Q 15.328125 44.78125 15.328125 43.796875 
L 15.484375 43.796875 
Q 16.65625 46.09375 18.015625 47.953125 
Q 19.390625 49.8125 21.21875 51.09375 
Q 23.046875 52.390625 25.40625 53.09375 
Q 27.78125 53.8125 30.90625 53.8125 
Q 36.921875 53.8125 40.40625 51.421875 
Q 43.890625 49.03125 45.265625 43.796875 
L 45.40625 43.796875 
Q 46.578125 46.09375 48.046875 47.953125 
Q 49.515625 49.8125 51.46875 51.09375 
Q 53.421875 52.390625 55.859375 53.09375 
Q 58.296875 53.8125 61.421875 53.8125 
Q 65.4375 53.8125 68.328125 52.734375 
Q 71.234375 51.65625 73.09375 49.40625 
Q 74.953125 47.171875 75.828125 43.625 
Q 76.703125 40.09375 76.703125 35.203125 
L 76.703125 0 
L 68.015625 0 
L 68.015625 33.5 
Q 68.015625 37.359375 67.53125 39.9375 
Q 67.046875 42.53125 65.890625 44.109375 
Q 64.75 45.703125 62.890625 46.359375 
Q 61.03125 47.015625 58.34375 47.015625 
Q 55.5625 47.015625 53.3125 45.96875 
Q 51.078125 44.921875 49.484375 42.875 
Q 47.90625 40.828125 47.046875 37.75 
Q 46.1875 34.671875 46.1875 30.609375 
L 46.1875 0 
z
" id="LiberationSans-109"/>
       <path d="M 46.390625 14.59375 
Q 46.390625 10.890625 44.9375 7.984375 
Q 43.5 5.078125 40.765625 3.09375 
Q 38.03125 1.125 34.046875 0.0625 
Q 30.078125 -0.984375 24.953125 -0.984375 
Q 20.359375 -0.984375 16.671875 -0.265625 
Q 12.984375 0.4375 10.203125 2 
Q 7.421875 3.5625 5.53125 6.125 
Q 3.65625 8.6875 2.78125 12.40625 
L 10.546875 13.921875 
Q 11.671875 9.671875 15.1875 7.6875 
Q 18.703125 5.71875 24.953125 5.71875 
Q 27.78125 5.71875 30.140625 6.109375 
Q 32.515625 6.5 34.21875 7.453125 
Q 35.9375 8.40625 36.890625 9.984375 
Q 37.84375 11.578125 37.84375 13.921875 
Q 37.84375 16.3125 36.71875 17.84375 
Q 35.59375 19.390625 33.59375 20.40625 
Q 31.59375 21.4375 28.734375 22.1875 
Q 25.875 22.953125 22.46875 23.875 
Q 19.28125 24.703125 16.15625 25.734375 
Q 13.03125 26.765625 10.515625 28.4375 
Q 8.015625 30.125 6.453125 32.609375 
Q 4.890625 35.109375 4.890625 38.875 
Q 4.890625 46.09375 10.03125 49.875 
Q 15.1875 53.65625 25.046875 53.65625 
Q 33.796875 53.65625 38.9375 50.578125 
Q 44.09375 47.515625 45.453125 40.71875 
L 37.546875 39.75 
Q 37.109375 41.796875 35.9375 43.1875 
Q 34.765625 44.578125 33.109375 45.4375 
Q 31.453125 46.296875 29.375 46.65625 
Q 27.296875 47.015625 25.046875 47.015625 
Q 19.09375 47.015625 16.25 45.203125 
Q 13.421875 43.40625 13.421875 39.75 
Q 13.421875 37.59375 14.46875 36.203125 
Q 15.53125 34.8125 17.40625 33.859375 
Q 19.28125 32.90625 21.921875 32.203125 
Q 24.5625 31.5 27.734375 30.71875 
Q 29.828125 30.171875 32.03125 29.5625 
Q 34.234375 28.953125 36.296875 28.09375 
Q 38.375 27.25 40.203125 26.09375 
Q 42.046875 24.953125 43.40625 23.34375 
Q 44.78125 21.734375 45.578125 19.578125 
Q 46.390625 17.4375 46.390625 14.59375 
z
" id="LiberationSans-115"/>
       <path d="M 27.09375 25.78125 
Q 27.09375 18.953125 26.0625 12.765625 
Q 25.046875 6.59375 22.84375 0.875 
Q 20.65625 -4.828125 17.234375 -10.203125 
Q 13.8125 -15.578125 9.078125 -20.703125 
L 0.59375 -20.703125 
Q 5.171875 -15.578125 8.515625 -10.203125 
Q 11.859375 -4.828125 14 0.921875 
Q 16.15625 6.6875 17.203125 12.890625 
Q 18.265625 19.09375 18.265625 25.875 
Q 18.265625 32.671875 17.203125 38.859375 
Q 16.15625 45.0625 14 50.796875 
Q 11.859375 56.546875 8.515625 61.9375 
Q 5.171875 67.328125 0.59375 72.46875 
L 9.078125 72.46875 
Q 13.8125 67.328125 17.234375 61.953125 
Q 20.65625 56.59375 22.84375 50.875 
Q 25.046875 45.171875 26.0625 38.96875 
Q 27.09375 32.765625 27.09375 25.984375 
z
" id="LiberationSans-41"/>
      </defs>
      <use transform="translate(0 0.53125)" xlink:href="#DejaVuSans-Oblique-116"/>
      <use transform="translate(39.208984 0.53125)" xlink:href="#LiberationSans-32"/>
      <use transform="translate(66.992188 0.53125)" xlink:href="#LiberationSans-40"/>
      <use transform="translate(100.292969 0.53125)" xlink:href="#LiberationSans-109"/>
      <use transform="translate(183.59375 0.53125)" xlink:href="#LiberationSans-115"/>
      <use transform="translate(233.59375 0.53125)" xlink:href="#LiberationSans-41"/>
     </g>
    </g>
   </g>
   <g id="matplotlib.axis_4">
    <g id="ytick_4">
     <g id="line2d_17">
      <g>
       <use style="fill:#ffffff;stroke:#ffffff;stroke-width:0.8;" x="57.6" xlink:href="#m136b17d8af" y="185.924266"/>
      </g>
     </g>
     <g id="text_18">
      <!-- −1 -->
      <g style="fill:#ffffff;" transform="translate(39.198437 189.547704)scale(0.1 -0.1)">
       <use xlink:href="#LiberationSans-8722"/>
       <use x="58.398438" xlink:href="#LiberationSans-49"/>
      </g>
     </g>
    </g>
    <g id="ytick_5">
     <g id="line2d_18">
      <g>
       <use style="fill:#ffffff;stroke:#ffffff;stroke-width:0.8;" x="57.6" xlink:href="#m136b17d8af" y="144.696239"/>
      </g>
     </g>
     <g id="text_19">
      <!-- 0 -->
      <g style="fill:#ffffff;" transform="translate(45.039062 148.319676)scale(0.1 -0.1)">
       <use xlink:href="#LiberationSans-48"/>
      </g>
     </g>
    </g>
    <g id="text_20">
     <!-- $u$ -->
     <g style="fill:#ffffff;" transform="translate(33.123437 177.728)rotate(-90)scale(0.1 -0.1)">
      <use transform="translate(0 0.3125)" xlink:href="#DejaVuSans-Oblique-117"/>
     </g>
    </g>
   </g>
   <g id="line2d_19">
    <path clip-path="url(#pba20814a5b)" d="M 73.832727 201.076731 
L 73.897671 210.104471 
L 73.962615 209.439328 
L 75.196549 197.987089 
L 76.430483 188.516555 
L 77.664417 180.684811 
L 78.119025 178.154463 
L 78.248912 174.450243 
L 79.482846 169.052546 
L 80.71678 164.588871 
L 82.015658 160.722067 
L 83.249592 157.699905 
L 83.37948 154.400713 
L 84.743302 152.289928 
L 85.977236 150.72687 
L 86.04218 153.948993 
L 86.107124 153.842606 
L 87.470946 151.837535 
L 88.834768 150.212255 
L 90.263533 148.838733 
L 90.393421 145.715004 
L 92.53657 145.024131 
L 92.926233 144.921224 
L 92.991177 148.201113 
L 93.056121 148.151919 
L 94.679718 147.069177 
L 96.433204 146.16715 
L 96.887811 145.970409 
L 96.952755 142.899923 
L 97.017699 142.903476 
L 99.550511 143.01766 
L 99.615455 146.31649 
L 99.680399 146.286048 
L 101.628716 145.500987 
L 103.317257 144.98724 
L 103.382201 141.926537 
L 103.447145 141.939776 
L 106.36962 142.417119 
L 106.889171 142.481695 
L 106.954115 145.785858 
L 107.019059 145.760696 
L 109.162208 145.05698 
L 109.811647 144.885694 
L 109.876591 141.826001 
L 109.941534 141.84024 
L 112.734122 142.335402 
L 113.708281 142.46378 
L 113.773224 145.768121 
L 113.838168 145.743136 
L 115.981317 145.044356 
L 116.955475 144.795398 
L 117.020419 141.736604 
L 117.085363 141.751732 
L 118.449185 142.036863 
L 118.514129 139.005516 
L 118.579073 139.04782 
L 120.267614 140.011516 
L 122.150987 140.828535 
L 122.215931 144.149147 
L 122.280875 144.14027 
L 125.852789 143.766623 
L 127.476387 143.653906 
L 127.541331 140.606469 
L 127.606275 140.632843 
L 129.619536 141.332333 
L 129.684479 144.647932 
L 129.749423 144.634093 
L 132.606955 144.143915 
L 132.671899 141.091603 
L 132.736843 141.11315 
L 135.009879 141.746269 
L 136.69842 142.092159 
L 136.763364 145.400198 
L 136.828308 145.378873 
L 138.776625 144.828935 
L 140.984718 145.946535 
L 141.049662 142.938111 
L 141.114605 143.003569 
L 142.153708 143.933685 
L 144.166969 144.36901 
L 144.296856 144.263683 
L 147.219332 144.735914 
L 148.19349 144.851657 
L 148.258434 141.815285 
L 148.323378 141.852614 
L 150.141807 142.759691 
L 151.765405 143.380632 
L 151.895293 145.076883 
L 152.220012 145.100779 
L 152.284956 146.631362 
L 152.3499 146.62077 
L 155.467207 146.218998 
L 155.532151 143.169021 
L 155.597095 143.19288 
L 157.740243 143.860147 
L 160.273055 144.411315 
L 160.402943 144.30515 
L 162.221372 144.613277 
L 162.286316 141.579278 
L 162.35126 141.618955 
L 164.104745 142.553108 
L 166.053062 143.334215 
L 167.67666 143.828072 
L 167.806547 145.515463 
L 167.936435 145.51648 
L 168.001379 142.473494 
L 168.066323 142.504274 
L 170.01464 143.298037 
L 171.313518 143.663107 
L 171.898013 143.40722 
L 172.027901 140.33524 
L 173.521611 140.23375 
L 173.911274 140.172991 
L 173.976218 146.227258 
L 174.041162 146.155185 
L 174.690601 145.586791 
L 176.898693 144.91529 
L 179.366561 144.391056 
L 179.431505 141.336285 
L 179.496449 141.355397 
L 181.899373 141.943512 
L 182.094205 141.982333 
L 182.159149 138.951529 
L 182.224093 138.99437 
L 183.912634 139.970304 
L 184.756905 140.370973 
L 184.821849 143.696138 
L 184.886793 143.691769 
L 189.757585 143.462396 
L 189.822529 140.416865 
L 189.887473 140.445125 
L 191.900734 141.194652 
L 192.095565 141.255605 
L 192.160509 144.04471 
L 192.225453 144.036873 
L 195.602536 143.72067 
L 195.66748 140.672569 
L 195.732424 140.698285 
L 197.226133 141.224025 
L 197.356021 142.917243 
L 199.629057 143.017592 
L 199.694001 145.789165 
L 199.758945 145.76397 
L 201.902094 145.059334 
L 202.681421 144.855532 
L 202.746365 141.796139 
L 202.811308 141.810676 
L 203.850411 142.116923 
L 205.993559 143.987823 
L 206.058503 143.912493 
L 206.123447 143.968715 
L 207.097606 144.708219 
L 210.539632 145.061455 
L 210.604576 142.022997 
L 210.66952 142.058258 
L 211.448847 142.455008 
L 211.578735 144.169588 
L 214.371322 144.657918 
L 216.319639 144.893497 
L 216.384583 141.856709 
L 216.449527 141.893626 
L 216.969078 142.176036 
L 217.098966 142.114133 
L 218.917395 142.957343 
L 220.9956 143.671959 
L 222.814029 144.134722 
L 222.878973 141.105484 
L 222.943917 141.149875 
L 224.632458 142.161135 
L 226.126168 142.860895 
L 226.256056 142.78543 
L 228.269316 143.526826 
L 229.438307 143.862879 
L 229.568194 145.549581 
L 229.82797 145.550258 
L 229.892914 142.506935 
L 229.957858 142.537382 
L 231.906175 143.322565 
L 234.114267 143.969434 
L 235.867752 144.347415 
L 235.932696 141.316061 
L 235.99764 141.358358 
L 236.32236 141.471216 
L 237.945957 141.201829 
L 238.075845 141.171173 
L 238.140789 144.451832 
L 238.205733 144.402941 
L 239.569555 143.474421 
L 241.258096 143.424654 
L 241.32304 140.379499 
L 241.387984 140.408131 
L 243.401245 141.167519 
L 244.894954 141.596847 
L 244.959898 144.382557 
L 245.024842 144.371358 
L 248.207093 143.939704 
L 248.596756 143.899949 
L 248.6617 147.19 
L 248.726644 147.150866 
L 250.025522 146.445037 
L 250.15541 143.368706 
L 253.9871 143.318943 
L 254.052044 140.27484 
L 254.116988 140.304514 
L 256.065305 141.069757 
L 257.299239 141.448248 
L 257.364183 144.762694 
L 257.429127 144.747712 
L 260.15677 144.236484 
L 261.715424 144.0275 
L 261.780368 140.976346 
L 261.845312 140.99904 
L 264.053404 141.649865 
L 264.702843 141.802809 
L 264.767787 145.113727 
L 264.832731 145.095252 
L 267.300599 144.514125 
L 267.755206 144.429139 
L 267.82015 141.373989 
L 267.885094 141.392726 
L 270.352962 141.98211 
L 271.457008 142.181428 
L 271.521952 145.488578 
L 271.586896 145.466374 
L 273.859933 144.813934 
L 274.639259 144.637882 
L 274.704203 141.580655 
L 274.769147 141.597336 
L 277.366903 142.14451 
L 278.795669 142.364215 
L 278.925557 142.632338 
L 283.276798 142.937379 
L 284.64062 142.997929 
L 284.705564 139.95702 
L 284.770508 139.989856 
L 286.653881 140.812327 
L 287.108488 140.977606 
L 287.173432 144.296734 
L 287.238376 144.286389 
L 290.550514 143.875163 
L 291.784449 143.768204 
L 291.849392 140.71963 
L 291.914336 140.744878 
L 294.057485 141.45099 
L 294.577036 141.589846 
L 294.64198 144.902883 
L 294.706924 144.886507 
L 297.174792 144.371372 
L 297.239736 141.316797 
L 297.30468 141.336103 
L 299.707604 141.930185 
L 301.006482 142.170705 
L 301.071426 139.138027 
L 301.13637 139.179011 
L 302.889855 140.143959 
L 303.47435 140.411899 
L 303.539294 143.736656 
L 303.604238 143.731884 
L 307.565816 143.515051 
L 307.63076 140.468996 
L 307.695704 140.496738 
L 309.708964 141.232507 
L 310.683123 141.514509 
L 310.748067 144.828296 
L 310.813011 144.812662 
L 313.47571 144.289432 
L 314.060205 144.200576 
L 314.125149 141.1477 
L 314.190093 141.168688 
L 316.46313 141.785406 
L 317.502232 142.002997 
L 317.567176 145.311923 
L 317.63212 145.291477 
L 318.866054 144.939438 
L 318.930998 141.87921 
L 318.995942 141.89292 
L 321.853473 142.3785 
L 323.606958 142.586383 
L 323.671902 139.549568 
L 323.736846 139.586458 
L 325.555275 140.482876 
L 326.269658 140.77185 
L 326.334602 144.093026 
L 326.399546 144.084708 
L 330.101348 143.725111 
L 330.685843 143.684826 
L 330.750787 140.637082 
L 330.815731 140.663151 
L 332.893936 141.373492 
L 333.673263 141.540288 
L 333.738207 144.807162 
L 333.80315 144.744623 
L 336.985401 141.801766 
L 338.738887 141.599569 
L 338.803831 144.362269 
L 338.868774 144.328289 
L 340.752148 143.477158 
L 342.245857 142.957346 
L 342.310801 139.893858 
L 342.375745 139.904339 
L 343.869455 140.118622 
L 343.934399 142.896057 
L 343.999342 142.876666 
L 345.168333 142.558833 
L 345.233276 144.212371 
L 345.29822 144.179883 
L 347.181593 143.366111 
L 347.441369 143.271266 
L 347.506313 146.017332 
L 347.571257 145.966884 
L 349.194854 144.856544 
L 350.558676 144.116062 
L 350.688564 141.040111 
L 352.377105 141.01885 
L 352.442049 143.89026 
L 352.506993 143.860976 
L 352.701825 143.774863 
L 352.896656 143.563532 
L 354.974861 142.84706 
L 355.169693 142.790912 
L 355.234637 139.72908 
L 355.299581 139.741201 
L 357.312841 140.062676 
L 357.377785 142.9436 
L 357.442729 142.923736 
L 358.871495 142.533417 
L 358.936439 139.474147 
L 359.001383 139.488804 
L 361.014644 139.877557 
L 361.079588 143.184648 
L 361.144531 143.162386 
L 363.417568 142.508229 
L 364.651502 142.238115 
L 364.716446 144.994462 
L 364.78139 144.954191 
L 366.145212 144.241409 
L 366.340043 144.284005 
L 366.404987 141.255351 
L 366.469931 141.30078 
L 369.522294 143.304771 
L 371.405667 143.292758 
L 371.470611 146.58885 
L 371.535555 146.555698 
L 373.418928 145.725308 
L 374.522974 145.339432 
L 374.587918 142.275225 
L 374.652862 142.284994 
L 378.029945 142.679142 
L 378.484552 142.718212 
L 378.549496 146.020022 
L 378.61444 145.99253 
L 380.627701 145.263379 
L 382.576018 144.743375 
L 382.640962 141.685098 
L 382.705906 141.700739 
L 385.303661 142.213823 
L 385.368605 139.180716 
L 385.433549 139.221276 
L 387.187034 140.176223 
L 387.511754 140.326476 
L 387.576698 143.652084 
L 387.641642 143.648153 
L 392.577378 143.439955 
L 392.642322 140.394648 
L 392.707266 140.423129 
L 394.525695 141.115218 
L 394.590639 144.432978 
L 394.655583 144.421277 
L 397.77289 143.977454 
L 398.292441 143.922066 
L 398.357385 140.871962 
L 398.422329 140.895694 
L 398.487273 140.91919 
L 398.487273 140.91919 
" style="fill:none;stroke:#9a72ac;stroke-linecap:round;stroke-width:1.5;"/>
   </g>
   <g id="patch_8">
    <path d="M 57.6 213.662118 
L 57.6 135.393882 
" style="fill:none;stroke:#ffffff;stroke-linecap:square;stroke-linejoin:miter;stroke-width:0.8;"/>
   </g>
   <g id="patch_9">
    <path d="M 414.72 213.662118 
L 414.72 135.393882 
" style="fill:none;stroke:#ffffff;stroke-linecap:square;stroke-linejoin:miter;stroke-width:0.8;"/>
   </g>
   <g id="patch_10">
    <path d="M 57.6 213.662118 
L 414.72 213.662118 
" style="fill:none;stroke:#ffffff;stroke-linecap:square;stroke-linejoin:miter;stroke-width:0.8;"/>
   </g>
   <g id="patch_11">
    <path d="M 57.6 135.393882 
L 414.72 135.393882 
" style="fill:none;stroke:#ffffff;stroke-linecap:square;stroke-linejoin:miter;stroke-width:0.8;"/>
   </g>
  </g>
  <g id="text_21">
   <!-- M2 - $u$ -->
   <g style="fill:#ffffff;" transform="translate(212.88 15.60825)scale(0.12 -0.12)">
    <defs>
     <path d="M 66.703125 0 
L 66.703125 45.90625 
Q 66.703125 48.390625 66.75 50.96875 
Q 66.796875 53.5625 66.890625 55.71875 
Q 67 58.203125 67.140625 60.546875 
Q 66.453125 58.0625 65.71875 55.609375 
Q 65.09375 53.515625 64.328125 51.140625 
Q 63.578125 48.78125 62.84375 46.875 
L 45.0625 0 
L 38.53125 0 
L 20.515625 46.875 
Q 20.21875 47.609375 19.890625 48.578125 
Q 19.578125 49.5625 19.203125 50.65625 
Q 18.84375 51.765625 18.46875 52.90625 
Q 18.109375 54.046875 17.78125 55.171875 
Q 16.9375 57.765625 16.15625 60.546875 
Q 16.21875 57.8125 16.3125 55.125 
Q 16.40625 52.828125 16.453125 50.3125 
Q 16.5 47.796875 16.5 45.90625 
L 16.5 0 
L 8.203125 0 
L 8.203125 68.796875 
L 20.453125 68.796875 
L 38.765625 21.09375 
Q 39.109375 20.125 39.59375 18.578125 
Q 40.09375 17.046875 40.53125 15.421875 
Q 40.96875 13.8125 41.328125 12.375 
Q 41.703125 10.9375 41.84375 10.15625 
Q 42 10.9375 42.390625 12.40625 
Q 42.78125 13.875 43.28125 15.484375 
Q 43.796875 17.09375 44.28125 18.609375 
Q 44.78125 20.125 45.171875 21.09375 
L 63.140625 68.796875 
L 75.09375 68.796875 
L 75.09375 0 
z
" id="LiberationSans-77"/>
     <path d="M 4.4375 22.65625 
L 4.4375 30.46875 
L 28.859375 30.46875 
L 28.859375 22.65625 
z
" id="LiberationSans-45"/>
    </defs>
    <use transform="translate(0 0.171875)" xlink:href="#LiberationSans-77"/>
    <use transform="translate(83.300781 0.171875)" xlink:href="#LiberationSans-50"/>
    <use transform="translate(138.916016 0.171875)" xlink:href="#LiberationSans-32"/>
    <use transform="translate(166.699219 0.171875)" xlink:href="#LiberationSans-45"/>
    <use transform="translate(200 0.171875)" xlink:href="#LiberationSans-32"/>
    <use transform="translate(227.783203 0.171875)" xlink:href="#DejaVuSans-Oblique-117"/>
   </g>
  </g>
 </g>
 <defs>
  <clipPath id="p62c0627fe1">
   <rect height="78.268235" width="357.12" x="57.6" y="41.472"/>
  </clipPath>
  <clipPath id="pba20814a5b">
   <rect height="78.268235" width="357.12" x="57.6" y="135.393882"/>
  </clipPath>
 </defs>
</svg>
