<?xml version="1.0" encoding="utf-8" standalone="no"?>
<!DOCTYPE svg PUBLIC "-//W3C//DTD SVG 1.1//EN"
  "http://www.w3.org/Graphics/SVG/1.1/DTD/svg11.dtd">
<!-- Created with matplotlib (https://matplotlib.org/) -->
<svg height="345.6pt" version="1.1" viewBox="0 0 460.8 345.6" width="460.8pt" xmlns="http://www.w3.org/2000/svg" xmlns:xlink="http://www.w3.org/1999/xlink">
 <metadata>
  <rdf:RDF xmlns:cc="http://creativecommons.org/ns#" xmlns:dc="http://purl.org/dc/elements/1.1/" xmlns:rdf="http://www.w3.org/1999/02/22-rdf-syntax-ns#">
   <cc:Work>
    <dc:type rdf:resource="http://purl.org/dc/dcmitype/StillImage"/>
    <dc:date>2022-05-06T11:29:48.532811</dc:date>
    <dc:format>image/svg+xml</dc:format>
    <dc:creator>
     <cc:Agent>
      <dc:title>Matplotlib v3.3.4, https://matplotlib.org/</dc:title>
     </cc:Agent>
    </dc:creator>
   </cc:Work>
  </rdf:RDF>
 </metadata>
 <defs>
  <style type="text/css">*{stroke-linecap:butt;stroke-linejoin:round;}</style>
 </defs>
 <g id="figure_1">
  <g id="patch_1">
   <path d="M 0 345.6 
L 460.8 345.6 
L 460.8 0 
L 0 0 
z
" style="fill:#262626;"/>
  </g>
  <g id="axes_1">
   <g id="patch_2">
    <path d="M 57.6 162.432 
L 414.72 162.432 
L 414.72 41.472 
L 57.6 41.472 
z
" style="fill:#1a1a1a;"/>
   </g>
   <g id="matplotlib.axis_1">
    <g id="xtick_1">
     <g id="line2d_1">
      <defs>
       <path d="M 0 0 
L 0 3.5 
" id="m37a6be5c8c" style="stroke:#ffffff;stroke-width:0.8;"/>
      </defs>
      <g>
       <use style="fill:#ffffff;stroke:#ffffff;stroke-width:0.8;" x="73.832727" xlink:href="#m37a6be5c8c" y="162.432"/>
      </g>
     </g>
     <g id="text_1">
      <!-- 0 -->
      <g style="fill:#ffffff;" transform="translate(71.052259 176.678875)scale(0.1 -0.1)">
       <defs>
        <path d="M 51.703125 34.421875 
Q 51.703125 24.515625 49.828125 17.75 
Q 47.953125 10.984375 44.703125 6.8125 
Q 41.453125 2.640625 37.0625 0.828125 
Q 32.671875 -0.984375 27.6875 -0.984375 
Q 22.65625 -0.984375 18.3125 0.828125 
Q 13.96875 2.640625 10.765625 6.78125 
Q 7.5625 10.9375 5.734375 17.703125 
Q 3.90625 24.46875 3.90625 34.421875 
Q 3.90625 44.828125 5.734375 51.640625 
Q 7.5625 58.453125 10.78125 62.5 
Q 14.015625 66.546875 18.40625 68.1875 
Q 22.796875 69.828125 27.984375 69.828125 
Q 32.90625 69.828125 37.21875 68.1875 
Q 41.546875 66.546875 44.765625 62.5 
Q 48 58.453125 49.84375 51.640625 
Q 51.703125 44.828125 51.703125 34.421875 
z
M 42.78125 34.421875 
Q 42.78125 42.625 41.796875 48.0625 
Q 40.828125 53.515625 38.921875 56.765625 
Q 37.015625 60.015625 34.25 61.359375 
Q 31.5 62.703125 27.984375 62.703125 
Q 24.265625 62.703125 21.4375 61.328125 
Q 18.609375 59.96875 16.671875 56.71875 
Q 14.75 53.46875 13.765625 48.015625 
Q 12.796875 42.578125 12.796875 34.421875 
Q 12.796875 26.515625 13.796875 21.09375 
Q 14.796875 15.671875 16.71875 12.375 
Q 18.65625 9.078125 21.4375 7.640625 
Q 24.21875 6.203125 27.78125 6.203125 
Q 31.25 6.203125 34.03125 7.640625 
Q 36.8125 9.078125 38.734375 12.375 
Q 40.671875 15.671875 41.71875 21.09375 
Q 42.78125 26.515625 42.78125 34.421875 
z
" id="LiberationSans-48"/>
       </defs>
       <use xlink:href="#LiberationSans-48"/>
      </g>
     </g>
    </g>
    <g id="xtick_2">
     <g id="line2d_2">
      <g>
       <use style="fill:#ffffff;stroke:#ffffff;stroke-width:0.8;" x="138.776625" xlink:href="#m37a6be5c8c" y="162.432"/>
      </g>
     </g>
     <g id="text_2">
      <!-- 200 -->
      <g style="fill:#ffffff;" transform="translate(130.435219 176.678875)scale(0.1 -0.1)">
       <defs>
        <path d="M 5.03125 0 
L 5.03125 6.203125 
Q 7.515625 11.921875 11.109375 16.28125 
Q 14.703125 20.65625 18.65625 24.1875 
Q 22.609375 27.734375 26.484375 30.765625 
Q 30.375 33.796875 33.5 36.8125 
Q 36.625 39.84375 38.546875 43.15625 
Q 40.484375 46.484375 40.484375 50.6875 
Q 40.484375 53.609375 39.59375 55.828125 
Q 38.71875 58.0625 37.0625 59.5625 
Q 35.40625 61.078125 33.078125 61.828125 
Q 30.765625 62.59375 27.9375 62.59375 
Q 25.296875 62.59375 22.96875 61.859375 
Q 20.65625 61.140625 18.84375 59.671875 
Q 17.046875 58.203125 15.890625 56.03125 
Q 14.75 53.859375 14.40625 50.984375 
L 5.421875 51.8125 
Q 5.859375 55.515625 7.46875 58.78125 
Q 9.078125 62.0625 11.90625 64.53125 
Q 14.75 67 18.71875 68.40625 
Q 22.703125 69.828125 27.9375 69.828125 
Q 33.0625 69.828125 37.0625 68.609375 
Q 41.0625 67.390625 43.8125 64.984375 
Q 46.578125 62.59375 48.046875 59.078125 
Q 49.515625 55.5625 49.515625 50.984375 
Q 49.515625 47.515625 48.265625 44.390625 
Q 47.015625 41.265625 44.9375 38.421875 
Q 42.875 35.59375 40.140625 32.953125 
Q 37.40625 30.328125 34.421875 27.8125 
Q 31.453125 25.296875 28.421875 22.828125 
Q 25.390625 20.359375 22.71875 17.859375 
Q 20.0625 15.375 17.96875 12.8125 
Q 15.875 10.25 14.703125 7.46875 
L 50.59375 7.46875 
L 50.59375 0 
z
" id="LiberationSans-50"/>
       </defs>
       <use xlink:href="#LiberationSans-50"/>
       <use x="55.615234" xlink:href="#LiberationSans-48"/>
       <use x="111.230469" xlink:href="#LiberationSans-48"/>
      </g>
     </g>
    </g>
    <g id="xtick_3">
     <g id="line2d_3">
      <g>
       <use style="fill:#ffffff;stroke:#ffffff;stroke-width:0.8;" x="203.720523" xlink:href="#m37a6be5c8c" y="162.432"/>
      </g>
     </g>
     <g id="text_3">
      <!-- 400 -->
      <g style="fill:#ffffff;" transform="translate(195.379117 176.678875)scale(0.1 -0.1)">
       <defs>
        <path d="M 43.015625 15.578125 
L 43.015625 0 
L 34.71875 0 
L 34.71875 15.578125 
L 2.296875 15.578125 
L 2.296875 22.40625 
L 33.796875 68.796875 
L 43.015625 68.796875 
L 43.015625 22.515625 
L 52.6875 22.515625 
L 52.6875 15.578125 
z
M 34.71875 58.890625 
Q 34.625 58.640625 34.234375 57.9375 
Q 33.84375 57.234375 33.34375 56.34375 
Q 32.859375 55.46875 32.34375 54.5625 
Q 31.84375 53.65625 31.453125 53.078125 
L 13.8125 27.09375 
Q 13.578125 26.703125 13.109375 26.0625 
Q 12.640625 25.4375 12.15625 24.78125 
Q 11.671875 24.125 11.171875 23.484375 
Q 10.6875 22.859375 10.40625 22.515625 
L 34.71875 22.515625 
z
" id="LiberationSans-52"/>
       </defs>
       <use xlink:href="#LiberationSans-52"/>
       <use x="55.615234" xlink:href="#LiberationSans-48"/>
       <use x="111.230469" xlink:href="#LiberationSans-48"/>
      </g>
     </g>
    </g>
    <g id="xtick_4">
     <g id="line2d_4">
      <g>
       <use style="fill:#ffffff;stroke:#ffffff;stroke-width:0.8;" x="268.664421" xlink:href="#m37a6be5c8c" y="162.432"/>
      </g>
     </g>
     <g id="text_4">
      <!-- 600 -->
      <g style="fill:#ffffff;" transform="translate(260.323015 176.678875)scale(0.1 -0.1)">
       <defs>
        <path d="M 51.21875 22.515625 
Q 51.21875 17.328125 49.78125 13 
Q 48.34375 8.6875 45.53125 5.578125 
Q 42.71875 2.484375 38.5625 0.75 
Q 34.421875 -0.984375 29 -0.984375 
Q 23 -0.984375 18.5 1.3125 
Q 14.015625 3.609375 11.03125 7.921875 
Q 8.0625 12.25 6.5625 18.53125 
Q 5.078125 24.8125 5.078125 32.8125 
Q 5.078125 42 6.765625 48.921875 
Q 8.453125 55.859375 11.625 60.5 
Q 14.796875 65.140625 19.359375 67.484375 
Q 23.921875 69.828125 29.6875 69.828125 
Q 33.203125 69.828125 36.28125 69.09375 
Q 39.359375 68.359375 41.875 66.71875 
Q 44.390625 65.09375 46.28125 62.40625 
Q 48.1875 59.71875 49.3125 55.8125 
L 40.921875 54.296875 
Q 39.546875 58.734375 36.546875 60.71875 
Q 33.546875 62.703125 29.59375 62.703125 
Q 25.984375 62.703125 23.046875 60.984375 
Q 20.125 59.28125 18.0625 55.875 
Q 16.015625 52.484375 14.90625 47.359375 
Q 13.8125 42.234375 13.8125 35.40625 
Q 16.21875 39.84375 20.5625 42.15625 
Q 24.90625 44.484375 30.515625 44.484375 
Q 35.203125 44.484375 39.015625 42.96875 
Q 42.828125 41.453125 45.53125 38.59375 
Q 48.25 35.75 49.734375 31.671875 
Q 51.21875 27.59375 51.21875 22.515625 
z
M 42.28125 22.125 
Q 42.28125 25.6875 41.40625 28.5625 
Q 40.53125 31.453125 38.765625 33.46875 
Q 37.015625 35.5 34.421875 36.59375 
Q 31.84375 37.703125 28.421875 37.703125 
Q 26.03125 37.703125 23.578125 36.984375 
Q 21.140625 36.28125 19.15625 34.6875 
Q 17.1875 33.109375 15.9375 30.515625 
Q 14.703125 27.9375 14.703125 24.21875 
Q 14.703125 20.40625 15.671875 17.109375 
Q 16.65625 13.8125 18.484375 11.375 
Q 20.3125 8.9375 22.890625 7.515625 
Q 25.484375 6.109375 28.71875 6.109375 
Q 31.890625 6.109375 34.40625 7.203125 
Q 36.921875 8.296875 38.671875 10.375 
Q 40.4375 12.453125 41.359375 15.421875 
Q 42.28125 18.40625 42.28125 22.125 
z
" id="LiberationSans-54"/>
       </defs>
       <use xlink:href="#LiberationSans-54"/>
       <use x="55.615234" xlink:href="#LiberationSans-48"/>
       <use x="111.230469" xlink:href="#LiberationSans-48"/>
      </g>
     </g>
    </g>
    <g id="xtick_5">
     <g id="line2d_5">
      <g>
       <use style="fill:#ffffff;stroke:#ffffff;stroke-width:0.8;" x="333.608319" xlink:href="#m37a6be5c8c" y="162.432"/>
      </g>
     </g>
     <g id="text_5">
      <!-- 800 -->
      <g style="fill:#ffffff;" transform="translate(325.266913 176.678875)scale(0.1 -0.1)">
       <defs>
        <path d="M 51.265625 19.1875 
Q 51.265625 14.796875 49.875 11.109375 
Q 48.484375 7.421875 45.625 4.734375 
Q 42.78125 2.046875 38.328125 0.53125 
Q 33.890625 -0.984375 27.828125 -0.984375 
Q 21.78125 -0.984375 17.359375 0.53125 
Q 12.9375 2.046875 10.03125 4.703125 
Q 7.125 7.375 5.734375 11.0625 
Q 4.34375 14.75 4.34375 19.09375 
Q 4.34375 22.859375 5.484375 25.78125 
Q 6.640625 28.71875 8.5625 30.828125 
Q 10.5 32.953125 12.96875 34.25 
Q 15.4375 35.546875 18.0625 35.984375 
L 18.0625 36.1875 
Q 15.1875 36.859375 12.90625 38.375 
Q 10.640625 39.890625 9.09375 42.015625 
Q 7.5625 44.140625 6.75 46.71875 
Q 5.953125 49.3125 5.953125 52.203125 
Q 5.953125 55.8125 7.34375 59 
Q 8.734375 62.203125 11.46875 64.625 
Q 14.203125 67.046875 18.25 68.4375 
Q 22.3125 69.828125 27.640625 69.828125 
Q 33.25 69.828125 37.375 68.40625 
Q 41.5 67 44.203125 64.578125 
Q 46.921875 62.15625 48.234375 58.9375 
Q 49.5625 55.71875 49.5625 52.09375 
Q 49.5625 49.265625 48.75 46.671875 
Q 47.953125 44.09375 46.40625 41.96875 
Q 44.875 39.84375 42.59375 38.34375 
Q 40.328125 36.859375 37.359375 36.28125 
L 37.359375 36.078125 
Q 40.328125 35.59375 42.859375 34.296875 
Q 45.40625 33.015625 47.265625 30.890625 
Q 49.125 28.765625 50.1875 25.828125 
Q 51.265625 22.90625 51.265625 19.1875 
z
M 40.4375 51.609375 
Q 40.4375 54.203125 39.765625 56.34375 
Q 39.109375 58.5 37.59375 60.03125 
Q 36.078125 61.578125 33.640625 62.421875 
Q 31.203125 63.28125 27.640625 63.28125 
Q 24.171875 63.28125 21.78125 62.421875 
Q 19.390625 61.578125 17.84375 60.03125 
Q 16.3125 58.5 15.625 56.34375 
Q 14.9375 54.203125 14.9375 51.609375 
Q 14.9375 49.5625 15.46875 47.40625 
Q 16.015625 45.265625 17.421875 43.5 
Q 18.84375 41.75 21.328125 40.625 
Q 23.828125 39.5 27.734375 39.5 
Q 31.890625 39.5 34.40625 40.625 
Q 36.921875 41.75 38.25 43.5 
Q 39.59375 45.265625 40.015625 47.40625 
Q 40.4375 49.5625 40.4375 51.609375 
z
M 42.140625 20.015625 
Q 42.140625 22.515625 41.453125 24.828125 
Q 40.765625 27.15625 39.109375 28.9375 
Q 37.453125 30.71875 34.640625 31.8125 
Q 31.84375 32.90625 27.640625 32.90625 
Q 23.78125 32.90625 21.0625 31.8125 
Q 18.359375 30.71875 16.671875 28.90625 
Q 14.984375 27.09375 14.203125 24.71875 
Q 13.421875 22.359375 13.421875 19.828125 
Q 13.421875 16.65625 14.203125 14.03125 
Q 14.984375 11.421875 16.6875 9.546875 
Q 18.40625 7.671875 21.1875 6.640625 
Q 23.96875 5.609375 27.9375 5.609375 
Q 31.9375 5.609375 34.671875 6.640625 
Q 37.40625 7.671875 39.0625 9.546875 
Q 40.71875 11.421875 41.421875 14.078125 
Q 42.140625 16.75 42.140625 20.015625 
z
" id="LiberationSans-56"/>
       </defs>
       <use xlink:href="#LiberationSans-56"/>
       <use x="55.615234" xlink:href="#LiberationSans-48"/>
       <use x="111.230469" xlink:href="#LiberationSans-48"/>
      </g>
     </g>
    </g>
    <g id="xtick_6">
     <g id="line2d_6">
      <g>
       <use style="fill:#ffffff;stroke:#ffffff;stroke-width:0.8;" x="398.552217" xlink:href="#m37a6be5c8c" y="162.432"/>
      </g>
     </g>
     <g id="text_6">
      <!-- 1000 -->
      <g style="fill:#ffffff;" transform="translate(387.430342 176.678875)scale(0.1 -0.1)">
       <defs>
        <path d="M 7.625 0 
L 7.625 7.46875 
L 25.140625 7.46875 
L 25.140625 60.40625 
L 9.625 49.3125 
L 9.625 57.625 
L 25.875 68.796875 
L 33.984375 68.796875 
L 33.984375 7.46875 
L 50.734375 7.46875 
L 50.734375 0 
z
" id="LiberationSans-49"/>
       </defs>
       <use xlink:href="#LiberationSans-49"/>
       <use x="55.615234" xlink:href="#LiberationSans-48"/>
       <use x="111.230469" xlink:href="#LiberationSans-48"/>
       <use x="166.845703" xlink:href="#LiberationSans-48"/>
      </g>
     </g>
    </g>
   </g>
   <g id="matplotlib.axis_2">
    <g id="ytick_1">
     <g id="line2d_7">
      <defs>
       <path d="M 0 0 
L -3.5 0 
" id="m909b59fb1c" style="stroke:#ffffff;stroke-width:0.8;"/>
      </defs>
      <g>
       <use style="fill:#ffffff;stroke:#ffffff;stroke-width:0.8;" x="57.6" xlink:href="#m909b59fb1c" y="154.306361"/>
      </g>
     </g>
     <g id="text_7">
      <!-- 0.0 -->
      <g style="fill:#ffffff;" transform="translate(36.7 157.929798)scale(0.1 -0.1)">
       <defs>
        <path d="M 9.125 0 
L 9.125 10.6875 
L 18.65625 10.6875 
L 18.65625 0 
z
" id="LiberationSans-46"/>
       </defs>
       <use xlink:href="#LiberationSans-48"/>
       <use x="55.615234" xlink:href="#LiberationSans-46"/>
       <use x="83.398438" xlink:href="#LiberationSans-48"/>
      </g>
     </g>
    </g>
    <g id="ytick_2">
     <g id="line2d_8">
      <g>
       <use style="fill:#ffffff;stroke:#ffffff;stroke-width:0.8;" x="57.6" xlink:href="#m909b59fb1c" y="120.187927"/>
      </g>
     </g>
     <g id="text_8">
      <!-- 0.5 -->
      <g style="fill:#ffffff;" transform="translate(36.7 123.811364)scale(0.1 -0.1)">
       <defs>
        <path d="M 51.421875 22.40625 
Q 51.421875 17.234375 49.859375 12.9375 
Q 48.296875 8.640625 45.21875 5.53125 
Q 42.140625 2.4375 37.578125 0.71875 
Q 33.015625 -0.984375 27 -0.984375 
Q 21.578125 -0.984375 17.546875 0.28125 
Q 13.53125 1.5625 10.734375 3.78125 
Q 7.953125 6 6.3125 8.984375 
Q 4.6875 11.96875 4 15.375 
L 12.890625 16.40625 
Q 13.421875 14.453125 14.390625 12.625 
Q 15.375 10.796875 17.0625 9.34375 
Q 18.75 7.90625 21.21875 7.046875 
Q 23.6875 6.203125 27.203125 6.203125 
Q 30.609375 6.203125 33.390625 7.25 
Q 36.1875 8.296875 38.15625 10.34375 
Q 40.140625 12.40625 41.203125 15.375 
Q 42.28125 18.359375 42.28125 22.21875 
Q 42.28125 25.390625 41.25 28.046875 
Q 40.234375 30.71875 38.328125 32.640625 
Q 36.421875 34.578125 33.65625 35.640625 
Q 30.90625 36.71875 27.390625 36.71875 
Q 25.203125 36.71875 23.34375 36.328125 
Q 21.484375 35.9375 19.890625 35.25 
Q 18.3125 34.578125 17.015625 33.671875 
Q 15.71875 32.765625 14.59375 31.78125 
L 6 31.78125 
L 8.296875 68.796875 
L 47.40625 68.796875 
L 47.40625 61.328125 
L 16.3125 61.328125 
L 14.984375 39.5 
Q 17.328125 41.3125 20.84375 42.59375 
Q 24.359375 43.890625 29.203125 43.890625 
Q 34.328125 43.890625 38.421875 42.328125 
Q 42.53125 40.765625 45.40625 37.90625 
Q 48.296875 35.0625 49.859375 31.109375 
Q 51.421875 27.15625 51.421875 22.40625 
z
" id="LiberationSans-53"/>
       </defs>
       <use xlink:href="#LiberationSans-48"/>
       <use x="55.615234" xlink:href="#LiberationSans-46"/>
       <use x="83.398438" xlink:href="#LiberationSans-53"/>
      </g>
     </g>
    </g>
    <g id="ytick_3">
     <g id="line2d_9">
      <g>
       <use style="fill:#ffffff;stroke:#ffffff;stroke-width:0.8;" x="57.6" xlink:href="#m909b59fb1c" y="86.069493"/>
      </g>
     </g>
     <g id="text_9">
      <!-- 1.0 -->
      <g style="fill:#ffffff;" transform="translate(36.7 89.692931)scale(0.1 -0.1)">
       <use xlink:href="#LiberationSans-49"/>
       <use x="55.615234" xlink:href="#LiberationSans-46"/>
       <use x="83.398438" xlink:href="#LiberationSans-48"/>
      </g>
     </g>
    </g>
    <g id="ytick_4">
     <g id="line2d_10">
      <g>
       <use style="fill:#ffffff;stroke:#ffffff;stroke-width:0.8;" x="57.6" xlink:href="#m909b59fb1c" y="51.95106"/>
      </g>
     </g>
     <g id="text_10">
      <!-- 1.5 -->
      <g style="fill:#ffffff;" transform="translate(36.7 55.574497)scale(0.1 -0.1)">
       <use xlink:href="#LiberationSans-49"/>
       <use x="55.615234" xlink:href="#LiberationSans-46"/>
       <use x="83.398438" xlink:href="#LiberationSans-53"/>
      </g>
     </g>
    </g>
   </g>
   <g id="line2d_11">
    <path clip-path="url(#pe9f1296b76)" d="M 73.832727 156.933818 
L 73.897671 103.759964 
L 73.962615 104.262909 
L 74.806886 110.363435 
L 74.87183 57.652964 
L 74.936774 58.614681 
L 76.170708 75.173252 
L 77.404642 88.866514 
L 78.638576 100.190281 
L 79.87251 109.554575 
L 81.0415 116.926527 
L 81.106444 64.150752 
L 81.171388 65.047815 
L 82.405322 80.493191 
L 83.639256 93.265886 
L 84.613414 101.768337 
L 84.678358 49.143389 
L 84.743302 50.189778 
L 85.977236 68.206202 
L 87.21117 83.105048 
L 88.445104 95.425784 
L 89.679038 105.61453 
L 90.912972 114.040207 
L 90.977916 61.293151 
L 91.04286 62.218648 
L 92.276794 78.153586 
L 93.510728 91.331128 
L 94.744662 102.228417 
L 95.978596 111.240029 
L 96.303316 113.340399 
L 96.36826 60.600307 
L 96.433204 61.532697 
L 97.667138 77.586332 
L 98.901072 90.862033 
L 100.135006 101.840494 
L 101.36894 110.919233 
L 102.602874 118.426979 
L 102.667818 118.783985 
L 102.732762 65.989728 
L 102.797706 66.868493 
L 104.03164 81.998817 
L 105.265574 94.510977 
L 106.499508 104.858022 
L 107.53861 112.169266 
L 107.603554 59.440827 
L 107.668498 60.384755 
L 108.902432 76.637031 
L 110.136366 90.076999 
L 111.3703 101.191303 
L 112.604234 110.382379 
L 113.708281 117.249242 
L 113.773224 64.470257 
L 113.838168 65.364141 
L 115.072102 80.754779 
L 116.306036 93.482209 
L 117.539971 104.007273 
L 118.773905 112.71107 
L 119.813007 118.861192 
L 119.877951 66.066167 
L 119.942895 66.944172 
L 121.176829 82.061401 
L 122.410763 94.562731 
L 123.644697 104.90082 
L 124.878631 113.449998 
L 125.398182 116.591184 
L 125.463126 63.818746 
L 125.52807 64.719113 
L 126.762004 80.221368 
L 127.995938 93.041099 
L 129.229872 103.642493 
L 130.463806 112.409413 
L 130.593694 113.239028 
L 130.658638 60.499944 
L 130.723582 61.433334 
L 131.957516 77.504163 
L 133.19145 90.794081 
L 134.425384 101.784301 
L 135.659318 110.872764 
L 135.919094 112.57582 
L 135.984038 59.843335 
L 136.048981 60.783258 
L 137.282915 76.966576 
L 138.51685 90.34952 
L 139.750784 101.416667 
L 140.724942 108.783779 
L 140.789886 56.089026 
L 140.85483 57.066305 
L 142.088764 73.892808 
L 143.322698 87.807639 
L 144.556632 99.314635 
L 145.400903 106.018378 
L 145.465847 53.351141 
L 145.530791 54.355662 
L 146.764725 71.651218 
L 147.998659 85.953935 
L 149.232593 97.781698 
L 150.466527 107.562775 
L 151.700461 115.651325 
L 151.765405 62.888239 
L 151.830349 63.797864 
L 153.064283 79.459533 
L 154.298217 92.411093 
L 155.532151 103.121503 
L 156.766085 111.978575 
L 157.935075 118.951223 
L 158.000019 66.155302 
L 158.064963 67.032419 
L 159.298897 82.134378 
L 160.532831 94.62308 
L 161.766765 104.950727 
L 162.870811 112.666749 
L 162.935755 59.933359 
L 163.000699 60.872386 
L 164.234633 77.040282 
L 165.468567 90.410471 
L 166.702501 101.467071 
L 167.936435 110.610428 
L 168.84565 116.318941 
L 168.910594 63.549212 
L 168.975538 64.452261 
L 170.209472 80.000692 
L 171.443406 92.858609 
L 172.67734 103.491581 
L 173.911274 112.284615 
L 174.106106 113.526545 
L 174.171049 60.784601 
L 174.235993 61.715158 
L 175.469927 77.73722 
L 176.703861 90.98681 
L 177.937796 101.94368 
L 178.717122 107.864829 
L 178.782066 55.179219 
L 178.84701 56.165551 
L 180.080944 73.147922 
L 181.314878 87.191648 
L 182.548812 98.805236 
L 183.782746 108.409199 
L 185.01668 116.351283 
L 185.081624 116.728943 
L 185.146568 63.955134 
L 185.211512 64.854144 
L 186.445446 80.333033 
L 187.67938 93.133441 
L 188.913314 103.718856 
L 190.147248 112.472562 
L 191.381182 119.711519 
L 191.576014 120.733951 
L 191.640958 67.920291 
L 191.705902 68.779847 
L 192.939836 83.579429 
L 194.17377 95.818079 
L 195.407704 105.938941 
L 196.641638 114.308482 
L 196.83647 115.490598 
L 196.901414 62.72911 
L 196.966358 63.640319 
L 198.200292 79.32925 
L 199.434226 92.303354 
L 200.66816 103.032408 
L 201.902094 111.904897 
L 202.291757 114.374166 
L 202.356701 61.623788 
L 202.421645 62.545995 
L 203.655579 78.424288 
L 204.889513 91.554987 
L 206.123447 102.413539 
L 207.097606 109.641795 
L 207.16255 56.938505 
L 207.227493 57.907331 
L 208.461428 74.588303 
L 209.695362 88.382784 
L 210.929296 99.790257 
L 212.16323 109.223771 
L 213.397164 117.024901 
L 213.527052 117.763124 
L 213.591995 64.979024 
L 213.656939 65.867846 
L 214.890873 81.171323 
L 216.124808 93.826674 
L 217.358742 104.292131 
L 218.592676 112.946637 
L 219.242115 116.882535 
L 219.307059 64.107198 
L 219.372002 65.004694 
L 220.605936 80.457532 
L 221.839871 93.236397 
L 223.073805 103.803997 
L 223.788187 109.064619 
L 223.853131 56.367071 
L 223.918075 57.341584 
L 225.152009 74.120453 
L 226.385943 87.995892 
L 227.619877 99.470312 
L 228.853811 108.95919 
L 230.087746 116.806103 
L 230.152689 64.031527 
L 230.217633 64.929776 
L 231.451567 80.395578 
L 232.685501 93.185164 
L 233.919436 103.761629 
L 235.15337 112.507933 
L 236.32236 119.393379 
L 236.387304 66.593058 
L 236.452248 67.46582 
L 237.686182 82.492783 
L 238.920116 94.919466 
L 240.15405 105.195826 
L 241.387984 113.693955 
L 241.712703 115.674646 
L 241.777647 62.911327 
L 241.842591 63.820723 
L 243.076525 79.478436 
L 244.310459 92.426725 
L 245.544393 103.134431 
L 246.32372 108.92093 
L 246.388664 56.224812 
L 246.453608 57.20074 
L 247.687542 74.003981 
L 248.921476 87.899574 
L 250.15541 99.390662 
L 251.389344 108.893322 
L 252.168671 114.028609 
L 252.233615 61.281668 
L 252.298559 62.20728 
L 253.532493 78.144184 
L 254.766427 91.323353 
L 256.000361 102.221987 
L 257.234295 111.234712 
L 258.468229 118.687868 
L 258.98778 121.426348 
L 259.052724 68.605799 
L 259.117668 69.458534 
L 260.351602 84.140675 
L 261.585536 96.282206 
L 262.81947 106.322756 
L 263.468909 110.889 
L 263.533853 58.173299 
L 263.598797 59.129839 
L 264.832731 75.599267 
L 266.066665 89.21881 
L 267.300599 100.481617 
L 268.534533 109.795497 
L 269.508692 115.995505 
L 269.573635 63.228994 
L 269.638579 64.135229 
L 270.872513 79.73852 
L 272.106447 92.641803 
L 273.340382 103.312292 
L 274.574316 112.13635 
L 274.639259 112.555948 
L 274.704203 59.823661 
L 274.769147 60.76378 
L 276.003081 76.950469 
L 277.237015 90.3362 
L 278.470949 101.405652 
L 279.704884 110.559636 
L 280.938818 118.129607 
L 281.003761 118.489572 
L 281.068705 65.698244 
L 281.133649 66.57991 
L 282.367583 81.760171 
L 283.601517 94.313626 
L 284.835451 104.694821 
L 286.069386 113.279645 
L 286.588937 116.433929 
L 286.653881 63.663055 
L 286.718824 64.564971 
L 287.952759 80.093899 
L 289.186693 92.935688 
L 290.420627 103.555322 
L 291.264897 109.742105 
L 291.329841 57.037817 
L 291.394785 58.005655 
L 292.628719 74.669612 
L 293.862653 88.450024 
L 295.096587 99.845862 
L 296.330521 109.269754 
L 297.564455 117.062927 
L 298.213894 120.607108 
L 298.278838 67.794711 
L 298.343782 68.655516 
L 299.577716 83.476613 
L 300.81165 95.733054 
L 302.045584 105.868629 
L 303.279518 114.250336 
L 304.188733 119.483326 
L 304.253677 66.682111 
L 304.318621 67.553986 
L 305.552555 82.565692 
L 306.786489 94.97976 
L 308.020423 105.245686 
L 309.254357 113.735188 
L 310.488291 120.755659 
L 311.007842 123.335159 
L 311.072786 70.495617 
L 311.13773 71.329548 
L 312.371664 85.687928 
L 313.605598 97.561721 
L 314.839532 107.380862 
L 316.073466 115.500891 
L 316.203354 116.269291 
L 316.268298 63.500056 
L 316.333242 64.403593 
L 317.567176 79.960446 
L 318.80111 92.825328 
L 320.035044 103.464059 
L 320.619539 107.839995 
L 320.684483 55.154633 
L 320.749427 56.141209 
L 321.983361 73.127792 
L 323.217295 87.175002 
L 324.451229 98.79147 
L 325.685163 108.397815 
L 325.879995 109.754618 
L 325.944939 57.050204 
L 326.009883 58.017919 
L 327.243817 74.679755 
L 328.477751 88.458411 
L 329.711685 99.852798 
L 330.945619 109.275489 
L 331.919777 115.54793 
L 331.984721 62.785873 
L 332.049665 63.696517 
L 333.283599 79.375723 
L 334.517533 92.341785 
L 335.751467 103.064189 
L 336.985401 111.931179 
L 337.050345 112.352819 
L 337.115289 59.622553 
L 337.180233 60.564673 
L 338.414167 76.785816 
L 339.648101 90.200038 
L 340.882035 101.293051 
L 342.115969 110.46652 
L 342.700464 114.239763 
L 342.765408 61.490722 
L 342.830352 62.414253 
L 344.064286 78.315343 
L 345.29822 91.464895 
L 346.532154 102.339036 
L 347.766088 111.331507 
L 348.870135 118.049989 
L 348.935079 65.263035 
L 349.000023 66.149031 
L 350.233957 81.403852 
L 351.467891 94.018965 
L 352.701825 104.451148 
L 353.935759 113.078137 
L 354.325422 115.479082 
L 354.390366 62.71771 
L 354.45531 63.629032 
L 355.689244 79.319915 
L 356.923178 92.295635 
L 358.157112 103.026024 
L 358.936439 108.824782 
L 359.001383 56.129621 
L 359.066327 57.106496 
L 360.300261 73.926045 
L 361.534195 87.835124 
L 362.768129 99.337365 
L 364.002063 108.849247 
L 365.235997 116.715185 
L 365.560717 118.548529 
L 365.62566 65.756615 
L 365.690604 66.637699 
L 366.924538 81.80796 
L 368.158472 94.353146 
L 369.392406 104.727502 
L 369.45735 105.22082 
L 369.522294 52.561519 
L 369.587238 53.573897 
L 370.821172 71.00473 
L 372.055106 85.419316 
L 373.28904 97.33959 
L 373.548816 99.573289 
L 373.61376 46.970182 
L 373.678704 48.038195 
L 374.912638 66.42693 
L 376.146572 81.633663 
L 377.380506 94.209009 
L 378.61444 104.608307 
L 379.848374 113.208101 
L 379.913318 60.469325 
L 379.978262 61.403019 
L 381.212196 77.479094 
L 382.44613 90.773351 
L 383.680064 101.767158 
L 383.745008 49.142221 
L 383.809952 50.188622 
L 385.043886 68.205246 
L 386.27782 83.104257 
L 387.511754 95.425131 
L 388.745688 105.61399 
L 389.460071 110.686073 
L 389.525015 57.972391 
L 389.589959 58.93093 
L 390.823893 75.434777 
L 392.057827 89.082784 
L 393.291761 100.369129 
L 394.525695 109.702474 
L 394.915358 112.300002 
L 394.980302 59.570262 
L 395.045246 60.512902 
L 396.27918 76.743003 
L 397.513114 90.164634 
L 398.487273 99.099065 
L 398.487273 99.099065 
" style="fill:none;stroke:#9a72ac;stroke-linecap:round;stroke-width:1.5;"/>
   </g>
   <g id="line2d_12">
    <path clip-path="url(#pe9f1296b76)" d="M 73.832727 86.069493 
L 398.487273 86.069493 
L 398.487273 86.069493 
" style="fill:none;stroke:#cf5044;stroke-linecap:round;stroke-width:1.5;"/>
   </g>
   <g id="patch_3">
    <path d="M 57.6 162.432 
L 57.6 41.472 
" style="fill:none;stroke:#ffffff;stroke-linecap:square;stroke-linejoin:miter;stroke-width:0.8;"/>
   </g>
   <g id="patch_4">
    <path d="M 414.72 162.432 
L 414.72 41.472 
" style="fill:none;stroke:#ffffff;stroke-linecap:square;stroke-linejoin:miter;stroke-width:0.8;"/>
   </g>
   <g id="patch_5">
    <path d="M 57.6 162.432 
L 414.72 162.432 
" style="fill:none;stroke:#ffffff;stroke-linecap:square;stroke-linejoin:miter;stroke-width:0.8;"/>
   </g>
   <g id="patch_6">
    <path d="M 57.6 41.472 
L 414.72 41.472 
" style="fill:none;stroke:#ffffff;stroke-linecap:square;stroke-linejoin:miter;stroke-width:0.8;"/>
   </g>
   <g id="legend_1">
    <g id="line2d_13">
     <path d="M 371.72 133.535125 
L 391.72 133.535125 
" style="fill:none;stroke:#9a72ac;stroke-linecap:round;stroke-width:1.5;"/>
    </g>
    <g id="line2d_14"/>
    <g id="text_11">
     <!-- $\hat{x}$ -->
     <g style="fill:#ffffff;" transform="translate(399.72 137.035125)scale(0.1 -0.1)">
      <defs>
       <path d="M -28.609375 79.984375 
L -21.390625 79.984375 
L -9.421875 61.625 
L -16.21875 61.625 
L -25 73.578125 
L -33.796875 61.625 
L -40.578125 61.625 
z
M -25 56 
z
" id="DejaVuSans-770"/>
       <path d="M 60.015625 54.6875 
L 34.90625 27.875 
L 50.296875 0 
L 39.984375 0 
L 28.421875 21.6875 
L 8.296875 0 
L -2.59375 0 
L 24.3125 28.8125 
L 10.015625 54.6875 
L 20.3125 54.6875 
L 30.8125 34.90625 
L 49.125 54.6875 
z
" id="DejaVuSans-Oblique-120"/>
      </defs>
      <use transform="translate(62.373047 12.015625)" xlink:href="#DejaVuSans-770"/>
      <use transform="translate(0 0.828125)" xlink:href="#DejaVuSans-Oblique-120"/>
     </g>
    </g>
    <g id="line2d_15">
     <path d="M 371.72 147.857 
L 391.72 147.857 
" style="fill:none;stroke:#cf5044;stroke-linecap:round;stroke-width:1.5;"/>
    </g>
    <g id="line2d_16"/>
    <g id="text_12">
     <!-- x -->
     <g style="fill:#ffffff;" transform="translate(399.72 151.357)scale(0.1 -0.1)">
      <defs>
       <path d="M 39.109375 0 
L 24.90625 21.6875 
L 10.59375 0 
L 1.125 0 
L 19.921875 27.15625 
L 2 52.828125 
L 11.71875 52.828125 
L 24.90625 32.28125 
L 37.984375 52.828125 
L 47.796875 52.828125 
L 29.890625 27.25 
L 48.921875 0 
z
" id="LiberationSans-120"/>
      </defs>
      <use xlink:href="#LiberationSans-120"/>
     </g>
    </g>
   </g>
  </g>
  <g id="axes_2">
   <g id="patch_7">
    <path d="M 57.6 307.584 
L 414.72 307.584 
L 414.72 186.624 
L 57.6 186.624 
z
" style="fill:#1a1a1a;"/>
   </g>
   <g id="matplotlib.axis_3">
    <g id="xtick_7">
     <g id="line2d_17">
      <g>
       <use style="fill:#ffffff;stroke:#ffffff;stroke-width:0.8;" x="73.832727" xlink:href="#m37a6be5c8c" y="307.584"/>
      </g>
     </g>
     <g id="text_13">
      <!-- 0 -->
      <g style="fill:#ffffff;" transform="translate(71.052259 321.830875)scale(0.1 -0.1)">
       <use xlink:href="#LiberationSans-48"/>
      </g>
     </g>
    </g>
    <g id="xtick_8">
     <g id="line2d_18">
      <g>
       <use style="fill:#ffffff;stroke:#ffffff;stroke-width:0.8;" x="138.776625" xlink:href="#m37a6be5c8c" y="307.584"/>
      </g>
     </g>
     <g id="text_14">
      <!-- 200 -->
      <g style="fill:#ffffff;" transform="translate(130.435219 321.830875)scale(0.1 -0.1)">
       <use xlink:href="#LiberationSans-50"/>
       <use x="55.615234" xlink:href="#LiberationSans-48"/>
       <use x="111.230469" xlink:href="#LiberationSans-48"/>
      </g>
     </g>
    </g>
    <g id="xtick_9">
     <g id="line2d_19">
      <g>
       <use style="fill:#ffffff;stroke:#ffffff;stroke-width:0.8;" x="203.720523" xlink:href="#m37a6be5c8c" y="307.584"/>
      </g>
     </g>
     <g id="text_15">
      <!-- 400 -->
      <g style="fill:#ffffff;" transform="translate(195.379117 321.830875)scale(0.1 -0.1)">
       <use xlink:href="#LiberationSans-52"/>
       <use x="55.615234" xlink:href="#LiberationSans-48"/>
       <use x="111.230469" xlink:href="#LiberationSans-48"/>
      </g>
     </g>
    </g>
    <g id="xtick_10">
     <g id="line2d_20">
      <g>
       <use style="fill:#ffffff;stroke:#ffffff;stroke-width:0.8;" x="268.664421" xlink:href="#m37a6be5c8c" y="307.584"/>
      </g>
     </g>
     <g id="text_16">
      <!-- 600 -->
      <g style="fill:#ffffff;" transform="translate(260.323015 321.830875)scale(0.1 -0.1)">
       <use xlink:href="#LiberationSans-54"/>
       <use x="55.615234" xlink:href="#LiberationSans-48"/>
       <use x="111.230469" xlink:href="#LiberationSans-48"/>
      </g>
     </g>
    </g>
    <g id="xtick_11">
     <g id="line2d_21">
      <g>
       <use style="fill:#ffffff;stroke:#ffffff;stroke-width:0.8;" x="333.608319" xlink:href="#m37a6be5c8c" y="307.584"/>
      </g>
     </g>
     <g id="text_17">
      <!-- 800 -->
      <g style="fill:#ffffff;" transform="translate(325.266913 321.830875)scale(0.1 -0.1)">
       <use xlink:href="#LiberationSans-56"/>
       <use x="55.615234" xlink:href="#LiberationSans-48"/>
       <use x="111.230469" xlink:href="#LiberationSans-48"/>
      </g>
     </g>
    </g>
    <g id="xtick_12">
     <g id="line2d_22">
      <g>
       <use style="fill:#ffffff;stroke:#ffffff;stroke-width:0.8;" x="398.552217" xlink:href="#m37a6be5c8c" y="307.584"/>
      </g>
     </g>
     <g id="text_18">
      <!-- 1000 -->
      <g style="fill:#ffffff;" transform="translate(387.430342 321.830875)scale(0.1 -0.1)">
       <use xlink:href="#LiberationSans-49"/>
       <use x="55.615234" xlink:href="#LiberationSans-48"/>
       <use x="111.230469" xlink:href="#LiberationSans-48"/>
       <use x="166.845703" xlink:href="#LiberationSans-48"/>
      </g>
     </g>
    </g>
    <g id="text_19">
     <!-- $t$ (ms) -->
     <g style="fill:#ffffff;" transform="translate(222.81 335.205875)scale(0.1 -0.1)">
      <defs>
       <path d="M 42.28125 54.6875 
L 40.921875 47.703125 
L 23 47.703125 
L 17.1875 18.015625 
Q 16.890625 16.359375 16.75 15.234375 
Q 16.609375 14.109375 16.609375 13.484375 
Q 16.609375 10.359375 18.484375 8.9375 
Q 20.359375 7.515625 24.515625 7.515625 
L 33.59375 7.515625 
L 32.078125 0 
L 23.484375 0 
Q 15.484375 0 11.546875 3.125 
Q 7.625 6.25 7.625 12.59375 
Q 7.625 13.71875 7.765625 15.0625 
Q 7.90625 16.40625 8.203125 18.015625 
L 14.015625 47.703125 
L 6.390625 47.703125 
L 7.8125 54.6875 
L 15.28125 54.6875 
L 18.3125 70.21875 
L 27.296875 70.21875 
L 24.3125 54.6875 
z
" id="DejaVuSans-Oblique-116"/>
       <path id="LiberationSans-32"/>
       <path d="M 6.203125 25.984375 
Q 6.203125 32.765625 7.21875 38.96875 
Q 8.25 45.171875 10.4375 50.875 
Q 12.640625 56.59375 16.0625 61.953125 
Q 19.484375 67.328125 24.21875 72.46875 
L 32.71875 72.46875 
Q 28.125 67.328125 24.78125 61.9375 
Q 21.4375 56.546875 19.28125 50.796875 
Q 17.140625 45.0625 16.09375 38.859375 
Q 15.046875 32.671875 15.046875 25.875 
Q 15.046875 19.09375 16.09375 12.890625 
Q 17.140625 6.6875 19.28125 0.921875 
Q 21.4375 -4.828125 24.78125 -10.203125 
Q 28.125 -15.578125 32.71875 -20.703125 
L 24.21875 -20.703125 
Q 19.484375 -15.578125 16.0625 -10.203125 
Q 12.640625 -4.828125 10.4375 0.875 
Q 8.25 6.59375 7.21875 12.765625 
Q 6.203125 18.953125 6.203125 25.78125 
z
" id="LiberationSans-40"/>
       <path d="M 37.5 0 
L 37.5 33.5 
Q 37.5 37.359375 37.015625 39.9375 
Q 36.53125 42.53125 35.375 44.109375 
Q 34.234375 45.703125 32.375 46.359375 
Q 30.515625 47.015625 27.828125 47.015625 
Q 25.046875 47.015625 22.796875 45.921875 
Q 20.5625 44.828125 18.96875 42.75 
Q 17.390625 40.671875 16.53125 37.625 
Q 15.671875 34.578125 15.671875 30.609375 
L 15.671875 0 
L 6.9375 0 
L 6.9375 41.546875 
Q 6.9375 43.21875 6.90625 45.046875 
Q 6.890625 46.875 6.828125 48.5 
Q 6.78125 50.140625 6.734375 51.3125 
Q 6.6875 52.484375 6.640625 52.828125 
L 14.9375 52.828125 
Q 14.984375 52.59375 15.03125 51.515625 
Q 15.09375 50.4375 15.15625 49.046875 
Q 15.234375 47.65625 15.28125 46.21875 
Q 15.328125 44.78125 15.328125 43.796875 
L 15.484375 43.796875 
Q 16.65625 46.09375 18.015625 47.953125 
Q 19.390625 49.8125 21.21875 51.09375 
Q 23.046875 52.390625 25.40625 53.09375 
Q 27.78125 53.8125 30.90625 53.8125 
Q 36.921875 53.8125 40.40625 51.421875 
Q 43.890625 49.03125 45.265625 43.796875 
L 45.40625 43.796875 
Q 46.578125 46.09375 48.046875 47.953125 
Q 49.515625 49.8125 51.46875 51.09375 
Q 53.421875 52.390625 55.859375 53.09375 
Q 58.296875 53.8125 61.421875 53.8125 
Q 65.4375 53.8125 68.328125 52.734375 
Q 71.234375 51.65625 73.09375 49.40625 
Q 74.953125 47.171875 75.828125 43.625 
Q 76.703125 40.09375 76.703125 35.203125 
L 76.703125 0 
L 68.015625 0 
L 68.015625 33.5 
Q 68.015625 37.359375 67.53125 39.9375 
Q 67.046875 42.53125 65.890625 44.109375 
Q 64.75 45.703125 62.890625 46.359375 
Q 61.03125 47.015625 58.34375 47.015625 
Q 55.5625 47.015625 53.3125 45.96875 
Q 51.078125 44.921875 49.484375 42.875 
Q 47.90625 40.828125 47.046875 37.75 
Q 46.1875 34.671875 46.1875 30.609375 
L 46.1875 0 
z
" id="LiberationSans-109"/>
       <path d="M 46.390625 14.59375 
Q 46.390625 10.890625 44.9375 7.984375 
Q 43.5 5.078125 40.765625 3.09375 
Q 38.03125 1.125 34.046875 0.0625 
Q 30.078125 -0.984375 24.953125 -0.984375 
Q 20.359375 -0.984375 16.671875 -0.265625 
Q 12.984375 0.4375 10.203125 2 
Q 7.421875 3.5625 5.53125 6.125 
Q 3.65625 8.6875 2.78125 12.40625 
L 10.546875 13.921875 
Q 11.671875 9.671875 15.1875 7.6875 
Q 18.703125 5.71875 24.953125 5.71875 
Q 27.78125 5.71875 30.140625 6.109375 
Q 32.515625 6.5 34.21875 7.453125 
Q 35.9375 8.40625 36.890625 9.984375 
Q 37.84375 11.578125 37.84375 13.921875 
Q 37.84375 16.3125 36.71875 17.84375 
Q 35.59375 19.390625 33.59375 20.40625 
Q 31.59375 21.4375 28.734375 22.1875 
Q 25.875 22.953125 22.46875 23.875 
Q 19.28125 24.703125 16.15625 25.734375 
Q 13.03125 26.765625 10.515625 28.4375 
Q 8.015625 30.125 6.453125 32.609375 
Q 4.890625 35.109375 4.890625 38.875 
Q 4.890625 46.09375 10.03125 49.875 
Q 15.1875 53.65625 25.046875 53.65625 
Q 33.796875 53.65625 38.9375 50.578125 
Q 44.09375 47.515625 45.453125 40.71875 
L 37.546875 39.75 
Q 37.109375 41.796875 35.9375 43.1875 
Q 34.765625 44.578125 33.109375 45.4375 
Q 31.453125 46.296875 29.375 46.65625 
Q 27.296875 47.015625 25.046875 47.015625 
Q 19.09375 47.015625 16.25 45.203125 
Q 13.421875 43.40625 13.421875 39.75 
Q 13.421875 37.59375 14.46875 36.203125 
Q 15.53125 34.8125 17.40625 33.859375 
Q 19.28125 32.90625 21.921875 32.203125 
Q 24.5625 31.5 27.734375 30.71875 
Q 29.828125 30.171875 32.03125 29.5625 
Q 34.234375 28.953125 36.296875 28.09375 
Q 38.375 27.25 40.203125 26.09375 
Q 42.046875 24.953125 43.40625 23.34375 
Q 44.78125 21.734375 45.578125 19.578125 
Q 46.390625 17.4375 46.390625 14.59375 
z
" id="LiberationSans-115"/>
       <path d="M 27.09375 25.78125 
Q 27.09375 18.953125 26.0625 12.765625 
Q 25.046875 6.59375 22.84375 0.875 
Q 20.65625 -4.828125 17.234375 -10.203125 
Q 13.8125 -15.578125 9.078125 -20.703125 
L 0.59375 -20.703125 
Q 5.171875 -15.578125 8.515625 -10.203125 
Q 11.859375 -4.828125 14 0.921875 
Q 16.15625 6.6875 17.203125 12.890625 
Q 18.265625 19.09375 18.265625 25.875 
Q 18.265625 32.671875 17.203125 38.859375 
Q 16.15625 45.0625 14 50.796875 
Q 11.859375 56.546875 8.515625 61.9375 
Q 5.171875 67.328125 0.59375 72.46875 
L 9.078125 72.46875 
Q 13.8125 67.328125 17.234375 61.953125 
Q 20.65625 56.59375 22.84375 50.875 
Q 25.046875 45.171875 26.0625 38.96875 
Q 27.09375 32.765625 27.09375 25.984375 
z
" id="LiberationSans-41"/>
      </defs>
      <use transform="translate(0 0.53125)" xlink:href="#DejaVuSans-Oblique-116"/>
      <use transform="translate(39.208984 0.53125)" xlink:href="#LiberationSans-32"/>
      <use transform="translate(66.992188 0.53125)" xlink:href="#LiberationSans-40"/>
      <use transform="translate(100.292969 0.53125)" xlink:href="#LiberationSans-109"/>
      <use transform="translate(183.59375 0.53125)" xlink:href="#LiberationSans-115"/>
      <use transform="translate(233.59375 0.53125)" xlink:href="#LiberationSans-41"/>
     </g>
    </g>
   </g>
   <g id="matplotlib.axis_4">
    <g id="ytick_5">
     <g id="line2d_23">
      <g>
       <use style="fill:#ffffff;stroke:#ffffff;stroke-width:0.8;" x="57.6" xlink:href="#m909b59fb1c" y="297.54075"/>
      </g>
     </g>
     <g id="text_20">
      <!-- 0.00 -->
      <g style="fill:#ffffff;" transform="translate(31.139063 301.164187)scale(0.1 -0.1)">
       <use xlink:href="#LiberationSans-48"/>
       <use x="55.615234" xlink:href="#LiberationSans-46"/>
       <use x="83.398438" xlink:href="#LiberationSans-48"/>
       <use x="139.013672" xlink:href="#LiberationSans-48"/>
      </g>
     </g>
    </g>
    <g id="ytick_6">
     <g id="line2d_24">
      <g>
       <use style="fill:#ffffff;stroke:#ffffff;stroke-width:0.8;" x="57.6" xlink:href="#m909b59fb1c" y="274.471915"/>
      </g>
     </g>
     <g id="text_21">
      <!-- 0.25 -->
      <g style="fill:#ffffff;" transform="translate(31.139063 278.095353)scale(0.1 -0.1)">
       <use xlink:href="#LiberationSans-48"/>
       <use x="55.615234" xlink:href="#LiberationSans-46"/>
       <use x="83.398438" xlink:href="#LiberationSans-50"/>
       <use x="139.013672" xlink:href="#LiberationSans-53"/>
      </g>
     </g>
    </g>
    <g id="ytick_7">
     <g id="line2d_25">
      <g>
       <use style="fill:#ffffff;stroke:#ffffff;stroke-width:0.8;" x="57.6" xlink:href="#m909b59fb1c" y="251.403081"/>
      </g>
     </g>
     <g id="text_22">
      <!-- 0.50 -->
      <g style="fill:#ffffff;" transform="translate(31.139063 255.026518)scale(0.1 -0.1)">
       <use xlink:href="#LiberationSans-48"/>
       <use x="55.615234" xlink:href="#LiberationSans-46"/>
       <use x="83.398438" xlink:href="#LiberationSans-53"/>
       <use x="139.013672" xlink:href="#LiberationSans-48"/>
      </g>
     </g>
    </g>
    <g id="ytick_8">
     <g id="line2d_26">
      <g>
       <use style="fill:#ffffff;stroke:#ffffff;stroke-width:0.8;" x="57.6" xlink:href="#m909b59fb1c" y="228.334247"/>
      </g>
     </g>
     <g id="text_23">
      <!-- 0.75 -->
      <g style="fill:#ffffff;" transform="translate(31.139063 231.957684)scale(0.1 -0.1)">
       <defs>
        <path d="M 50.59375 61.671875 
Q 45.40625 53.765625 41.0625 46.453125 
Q 36.71875 39.15625 33.59375 31.75 
Q 30.46875 24.359375 28.734375 16.578125 
Q 27 8.796875 27 0 
L 17.828125 0 
Q 17.828125 8.25 19.78125 16.1875 
Q 21.734375 24.125 25.046875 31.765625 
Q 28.375 39.40625 32.765625 46.78125 
Q 37.15625 54.15625 42.09375 61.328125 
L 5.125 61.328125 
L 5.125 68.796875 
L 50.59375 68.796875 
z
" id="LiberationSans-55"/>
       </defs>
       <use xlink:href="#LiberationSans-48"/>
       <use x="55.615234" xlink:href="#LiberationSans-46"/>
       <use x="83.398438" xlink:href="#LiberationSans-55"/>
       <use x="139.013672" xlink:href="#LiberationSans-53"/>
      </g>
     </g>
    </g>
    <g id="ytick_9">
     <g id="line2d_27">
      <g>
       <use style="fill:#ffffff;stroke:#ffffff;stroke-width:0.8;" x="57.6" xlink:href="#m909b59fb1c" y="205.265412"/>
      </g>
     </g>
     <g id="text_24">
      <!-- 1.00 -->
      <g style="fill:#ffffff;" transform="translate(31.139063 208.88885)scale(0.1 -0.1)">
       <use xlink:href="#LiberationSans-49"/>
       <use x="55.615234" xlink:href="#LiberationSans-46"/>
       <use x="83.398438" xlink:href="#LiberationSans-48"/>
       <use x="139.013672" xlink:href="#LiberationSans-48"/>
      </g>
     </g>
    </g>
   </g>
   <g id="line2d_28">
    <path clip-path="url(#p40802e85d7)" d="M 73.832727 192.122182 
L 74.027559 197.443708 
L 75.845988 223.826055 
L 77.079922 236.58171 
L 78.313856 247.130115 
L 79.54779 255.853215 
L 80.781724 263.066862 
L 81.0415 264.418602 
L 81.171388 267.302571 
L 82.405322 272.535012 
L 83.639256 276.862026 
L 84.613414 279.742408 
L 84.743302 282.322945 
L 86.04218 285.081465 
L 87.341058 287.33995 
L 88.70488 289.272142 
L 90.133646 290.905037 
L 90.912972 291.6554 
L 91.04286 294.000044 
L 92.861289 294.864742 
L 94.939494 295.597569 
L 96.303316 295.965638 
L 96.36826 298.23181 
L 96.433204 298.224934 
L 100.524669 297.905141 
L 102.667818 297.802719 
L 102.732762 300.050612 
L 102.797706 300.025638 
L 104.940854 299.327195 
L 107.408722 298.762431 
L 107.53861 298.73824 
L 107.603554 300.976824 
L 107.668498 300.942634 
L 109.551871 300.086256 
L 111.630076 299.389167 
L 113.708281 298.882976 
L 113.773224 301.12012 
L 113.838168 301.084504 
L 115.656598 300.219062 
L 117.734802 299.485604 
L 119.813007 298.953003 
L 119.877951 301.18945 
L 119.942895 301.153145 
L 121.761324 300.27094 
L 123.774585 299.543199 
L 125.398182 299.100259 
L 125.463126 301.335241 
L 125.52807 301.297485 
L 127.281555 300.408564 
L 129.294816 299.64414 
L 130.593694 299.26286 
L 130.658638 301.496224 
L 130.723582 301.456866 
L 132.477067 300.530233 
L 134.425384 299.755413 
L 135.919094 299.300374 
L 135.984038 301.533365 
L 136.048981 301.493638 
L 137.802467 300.558303 
L 139.750784 299.776208 
L 140.724942 299.464827 
L 140.789886 301.696181 
L 140.85483 301.654834 
L 142.543371 300.712921 
L 144.426744 299.91437 
L 145.400903 299.583743 
L 145.465847 301.813915 
L 145.530791 301.771396 
L 147.219332 300.802796 
L 149.102705 299.98162 
L 151.245854 299.295549 
L 151.700461 299.176914 
L 151.765405 301.411133 
L 151.830349 301.372622 
L 153.583834 300.465923 
L 155.532151 299.707771 
L 157.805187 299.067824 
L 157.935075 299.037586 
L 158.000019 301.273191 
L 158.064963 301.236053 
L 159.883392 300.3336 
L 161.896653 299.589157 
L 162.870811 299.30383 
L 162.935755 301.536786 
L 163.000699 301.497025 
L 164.754184 300.560889 
L 166.702501 299.778124 
L 168.84565 299.149251 
L 168.910594 301.383746 
L 168.975538 301.345507 
L 170.729023 300.445224 
L 172.67734 299.692437 
L 174.106106 299.267519 
L 174.171049 301.500837 
L 174.235993 301.461433 
L 175.989479 300.533719 
L 177.937796 299.757996 
L 178.717122 299.507271 
L 178.782066 301.738203 
L 178.84701 301.696437 
L 180.535551 300.744999 
L 182.418925 299.938373 
L 184.562073 299.264458 
L 185.081624 299.131933 
L 185.146568 301.3666 
L 185.211512 301.328532 
L 186.964997 300.432265 
L 188.978258 299.661523 
L 191.251295 299.035233 
L 191.576014 298.962346 
L 191.640958 301.1987 
L 191.705902 301.162303 
L 193.524331 300.277861 
L 195.537592 299.548276 
L 196.83647 299.184373 
L 196.901414 301.418518 
L 196.966358 301.379933 
L 198.719843 300.471504 
L 200.66816 299.711906 
L 202.291757 299.231648 
L 202.356701 301.465322 
L 202.421645 301.426272 
L 204.17513 300.506878 
L 206.123447 299.738111 
L 207.097606 299.432036 
L 207.16255 301.663717 
L 207.227493 301.622693 
L 208.980979 300.656821 
L 210.929296 299.849192 
L 213.137388 299.183831 
L 213.527052 299.088145 
L 213.591995 301.323247 
L 213.656939 301.285611 
L 215.410425 300.3995 
L 217.423685 299.637491 
L 219.242115 299.125433 
L 219.307059 301.360164 
L 219.372002 301.322161 
L 221.125488 300.427401 
L 223.138748 299.657955 
L 223.788187 299.456477 
L 223.853131 301.687914 
L 223.918075 301.646649 
L 225.606617 300.70661 
L 227.48999 299.909648 
L 229.633138 299.243807 
L 230.087746 299.128669 
L 230.152689 301.363369 
L 230.217633 301.325333 
L 231.971119 300.429823 
L 233.984379 299.659732 
L 236.257416 299.033971 
L 236.32236 299.019113 
L 236.387304 301.254902 
L 236.452248 301.217946 
L 238.270677 300.319915 
L 240.283938 299.57912 
L 241.712703 299.17658 
L 241.777647 301.410803 
L 241.842591 301.372295 
L 243.596076 300.465673 
L 245.544393 299.707586 
L 246.32372 299.462561 
L 246.388664 301.693938 
L 246.453608 301.652613 
L 248.142149 300.711208 
L 250.025522 299.913088 
L 252.168671 299.24628 
L 252.233615 301.479809 
L 252.298559 301.440615 
L 254.052044 300.517827 
L 256.000361 299.746223 
L 258.273397 299.09492 
L 258.98778 298.933029 
L 259.052724 301.169675 
L 259.117668 301.133566 
L 260.936097 300.256142 
L 262.949358 299.532346 
L 263.468909 299.379225 
L 263.533853 301.611431 
L 263.598797 301.570927 
L 265.352282 300.617304 
L 267.300599 299.819917 
L 269.508692 299.162994 
L 269.573635 301.397351 
L 269.638579 301.358977 
L 271.392065 300.455506 
L 273.340382 299.700055 
L 274.639259 299.308639 
L 274.704203 301.541547 
L 274.769147 301.501739 
L 276.522633 300.564488 
L 278.470949 299.78079 
L 280.679042 299.135144 
L 281.003761 299.057384 
L 281.068705 301.292793 
L 281.133649 301.255459 
L 282.952078 300.348267 
L 284.965339 299.599915 
L 286.588937 299.144429 
L 286.653881 301.378971 
L 286.718824 301.34078 
L 288.47231 300.441615 
L 290.485571 299.668381 
L 291.264897 299.427789 
L 291.329841 301.659512 
L 291.394785 301.61853 
L 293.14827 300.653643 
L 295.096587 299.846838 
L 297.30468 299.182155 
L 298.213894 298.967719 
L 298.278838 301.204019 
L 298.343782 301.167569 
L 300.162211 300.281841 
L 302.175472 299.551195 
L 304.188733 299.015305 
L 304.253677 301.251132 
L 304.318621 301.214213 
L 306.13705 300.317093 
L 308.150311 299.57705 
L 310.488291 298.961429 
L 311.007842 298.852202 
L 311.072786 301.089652 
L 311.13773 301.054339 
L 312.956159 300.196264 
L 315.034364 299.469049 
L 316.203354 299.1514 
L 316.268298 301.385873 
L 316.333242 301.347614 
L 318.086727 300.446832 
L 320.035044 299.693628 
L 320.619539 299.508332 
L 320.684483 301.739254 
L 320.749427 301.697478 
L 322.437968 300.745802 
L 324.321341 299.938973 
L 325.879995 299.427259 
L 325.944939 301.658987 
L 326.009883 301.61801 
L 327.763368 300.653247 
L 329.711685 299.846544 
L 331.919777 299.181946 
L 331.984721 301.416115 
L 332.049665 301.377554 
L 333.80315 300.469688 
L 335.751467 299.71056 
L 337.050345 299.31724 
L 337.115289 301.550063 
L 337.180233 301.51017 
L 338.933718 300.570924 
L 340.882035 299.785558 
L 342.700464 299.237339 
L 342.765408 301.470957 
L 342.830352 301.431851 
L 344.583837 300.511136 
L 346.532154 299.741266 
L 348.805191 299.091428 
L 348.870135 299.075998 
L 348.935079 301.311221 
L 349.000023 301.273704 
L 350.753508 300.390411 
L 352.766769 299.630825 
L 354.325422 299.184861 
L 354.390366 301.419001 
L 354.45531 301.380412 
L 356.208795 300.471869 
L 358.157112 299.712176 
L 358.936439 299.466632 
L 359.001383 301.697969 
L 359.066327 301.656604 
L 360.754868 300.714285 
L 362.638241 299.915391 
L 364.78139 299.247936 
L 365.560717 299.054888 
L 365.62566 301.290321 
L 365.690604 301.253012 
L 367.509033 300.346417 
L 369.45735 299.619239 
L 369.522294 301.849057 
L 369.587238 301.806189 
L 371.27578 300.829623 
L 373.159153 300.001694 
L 373.548816 299.85838 
L 373.61376 302.085818 
L 373.678704 302.040594 
L 375.367245 301.010362 
L 377.185674 300.163026 
L 379.263879 299.444913 
L 379.848374 299.281024 
L 379.913318 301.514207 
L 379.978262 301.474671 
L 381.731747 300.543824 
L 383.680064 299.765482 
L 383.745008 301.993845 
L 383.809952 301.949536 
L 385.498493 300.940151 
L 387.381866 300.084398 
L 389.460071 299.387817 
L 389.525015 301.619938 
L 389.589959 301.579349 
L 391.343444 300.623734 
L 393.291761 299.824681 
L 394.915358 299.319477 
L 394.980302 301.552277 
L 395.045246 301.512362 
L 396.798731 300.572597 
L 398.487273 299.87846 
L 398.487273 299.87846 
" style="fill:none;stroke:#9a72ac;stroke-linecap:round;stroke-width:1.5;"/>
   </g>
   <g id="line2d_29">
    <path clip-path="url(#p40802e85d7)" d="M 73.832727 297.54075 
L 398.487273 297.54075 
L 398.487273 297.54075 
" style="fill:none;stroke:#cf5044;stroke-linecap:round;stroke-width:1.5;"/>
   </g>
   <g id="patch_8">
    <path d="M 57.6 307.584 
L 57.6 186.624 
" style="fill:none;stroke:#ffffff;stroke-linecap:square;stroke-linejoin:miter;stroke-width:0.8;"/>
   </g>
   <g id="patch_9">
    <path d="M 414.72 307.584 
L 414.72 186.624 
" style="fill:none;stroke:#ffffff;stroke-linecap:square;stroke-linejoin:miter;stroke-width:0.8;"/>
   </g>
   <g id="patch_10">
    <path d="M 57.6 307.584 
L 414.72 307.584 
" style="fill:none;stroke:#ffffff;stroke-linecap:square;stroke-linejoin:miter;stroke-width:0.8;"/>
   </g>
   <g id="patch_11">
    <path d="M 57.6 186.624 
L 414.72 186.624 
" style="fill:none;stroke:#ffffff;stroke-linecap:square;stroke-linejoin:miter;stroke-width:0.8;"/>
   </g>
   <g id="legend_2">
    <g id="line2d_30">
     <path d="M 371.72 199.370875 
L 391.72 199.370875 
" style="fill:none;stroke:#9a72ac;stroke-linecap:round;stroke-width:1.5;"/>
    </g>
    <g id="line2d_31"/>
    <g id="text_25">
     <!-- $\hat{x}$ -->
     <g style="fill:#ffffff;" transform="translate(399.72 202.870875)scale(0.1 -0.1)">
      <use transform="translate(62.373047 12.015625)" xlink:href="#DejaVuSans-770"/>
      <use transform="translate(0 0.828125)" xlink:href="#DejaVuSans-Oblique-120"/>
     </g>
    </g>
    <g id="line2d_32">
     <path d="M 371.72 213.69275 
L 391.72 213.69275 
" style="fill:none;stroke:#cf5044;stroke-linecap:round;stroke-width:1.5;"/>
    </g>
    <g id="line2d_33"/>
    <g id="text_26">
     <!-- x -->
     <g style="fill:#ffffff;" transform="translate(399.72 217.19275)scale(0.1 -0.1)">
      <use xlink:href="#LiberationSans-120"/>
     </g>
    </g>
   </g>
  </g>
  <g id="text_27">
   <!-- Egomotion input/decoding -->
   <g style="fill:#ffffff;" transform="translate(161.02125 15.60825)scale(0.12 -0.12)">
    <defs>
     <path d="M 8.203125 0 
L 8.203125 68.796875 
L 60.40625 68.796875 
L 60.40625 61.1875 
L 17.53125 61.1875 
L 17.53125 39.109375 
L 57.46875 39.109375 
L 57.46875 31.59375 
L 17.53125 31.59375 
L 17.53125 7.625 
L 62.40625 7.625 
L 62.40625 0 
z
" id="LiberationSans-69"/>
     <path d="M 26.765625 -20.75 
Q 22.21875 -20.75 18.703125 -19.8125 
Q 15.1875 -18.890625 12.6875 -17.15625 
Q 10.203125 -15.4375 8.640625 -13.03125 
Q 7.078125 -10.640625 6.390625 -7.71875 
L 15.234375 -6.453125 
Q 16.109375 -10.109375 19.109375 -12.078125 
Q 22.125 -14.0625 27 -14.0625 
Q 29.984375 -14.0625 32.421875 -13.234375 
Q 34.859375 -12.40625 36.5625 -10.5625 
Q 38.28125 -8.734375 39.203125 -5.796875 
Q 40.140625 -2.875 40.140625 1.3125 
L 40.140625 9.8125 
L 40.046875 9.8125 
Q 39.0625 7.8125 37.625 5.984375 
Q 36.1875 4.15625 34.109375 2.734375 
Q 32.03125 1.3125 29.296875 0.453125 
Q 26.5625 -0.390625 23.046875 -0.390625 
Q 18.015625 -0.390625 14.421875 1.296875 
Q 10.84375 2.984375 8.5625 6.34375 
Q 6.296875 9.71875 5.25 14.71875 
Q 4.203125 19.734375 4.203125 26.3125 
Q 4.203125 32.671875 5.25 37.75 
Q 6.296875 42.828125 8.65625 46.359375 
Q 11.03125 49.90625 14.8125 51.78125 
Q 18.609375 53.65625 24.03125 53.65625 
Q 29.640625 53.65625 33.765625 51.09375 
Q 37.890625 48.53125 40.140625 43.796875 
L 40.234375 43.796875 
Q 40.234375 45.015625 40.296875 46.53125 
Q 40.375 48.046875 40.453125 49.390625 
Q 40.53125 50.734375 40.625 51.703125 
Q 40.71875 52.6875 40.828125 52.828125 
L 49.171875 52.828125 
Q 49.125 52.390625 49.078125 51.34375 
Q 49.03125 50.296875 48.96875 48.828125 
Q 48.921875 47.359375 48.890625 45.578125 
Q 48.875 43.796875 48.875 41.890625 
L 48.875 1.515625 
Q 48.875 -9.578125 43.421875 -15.15625 
Q 37.984375 -20.75 26.765625 -20.75 
z
M 40.140625 26.421875 
Q 40.140625 31.9375 38.9375 35.859375 
Q 37.75 39.796875 35.796875 42.28125 
Q 33.84375 44.78125 31.328125 45.953125 
Q 28.8125 47.125 26.171875 47.125 
Q 22.796875 47.125 20.375 45.953125 
Q 17.96875 44.78125 16.375 42.265625 
Q 14.796875 39.75 14.03125 35.8125 
Q 13.28125 31.890625 13.28125 26.421875 
Q 13.28125 20.703125 14.03125 16.8125 
Q 14.796875 12.9375 16.359375 10.546875 
Q 17.921875 8.15625 20.3125 7.125 
Q 22.703125 6.109375 26.03125 6.109375 
Q 28.65625 6.109375 31.171875 7.21875 
Q 33.6875 8.34375 35.6875 10.78125 
Q 37.703125 13.234375 38.921875 17.09375 
Q 40.140625 20.953125 40.140625 26.421875 
z
" id="LiberationSans-103"/>
     <path d="M 51.421875 26.46875 
Q 51.421875 12.59375 45.3125 5.796875 
Q 39.203125 -0.984375 27.59375 -0.984375 
Q 22.078125 -0.984375 17.71875 0.671875 
Q 13.375 2.34375 10.375 5.765625 
Q 7.375 9.1875 5.78125 14.328125 
Q 4.203125 19.484375 4.203125 26.46875 
Q 4.203125 53.8125 27.875 53.8125 
Q 34.03125 53.8125 38.5 52.09375 
Q 42.96875 50.390625 45.828125 46.96875 
Q 48.6875 43.5625 50.046875 38.421875 
Q 51.421875 33.296875 51.421875 26.46875 
z
M 42.1875 26.46875 
Q 42.1875 32.625 41.234375 36.625 
Q 40.28125 40.625 38.453125 43.015625 
Q 36.625 45.40625 33.984375 46.359375 
Q 31.34375 47.3125 28.03125 47.3125 
Q 24.65625 47.3125 21.9375 46.3125 
Q 19.234375 45.3125 17.328125 42.890625 
Q 15.4375 40.484375 14.421875 36.46875 
Q 13.421875 32.46875 13.421875 26.46875 
Q 13.421875 20.3125 14.5 16.28125 
Q 15.578125 12.25 17.453125 9.859375 
Q 19.34375 7.46875 21.90625 6.484375 
Q 24.46875 5.515625 27.484375 5.515625 
Q 30.859375 5.515625 33.59375 6.46875 
Q 36.328125 7.421875 38.234375 9.8125 
Q 40.140625 12.203125 41.15625 16.25 
Q 42.1875 20.3125 42.1875 26.46875 
z
" id="LiberationSans-111"/>
     <path d="M 27.046875 0.390625 
Q 25.046875 -0.140625 22.96875 -0.453125 
Q 20.90625 -0.78125 18.171875 -0.78125 
Q 7.625 -0.78125 7.625 11.1875 
L 7.625 46.4375 
L 1.515625 46.4375 
L 1.515625 52.828125 
L 7.953125 52.828125 
L 10.546875 64.65625 
L 16.40625 64.65625 
L 16.40625 52.828125 
L 26.171875 52.828125 
L 26.171875 46.4375 
L 16.40625 46.4375 
L 16.40625 13.09375 
Q 16.40625 9.28125 17.640625 7.734375 
Q 18.890625 6.203125 21.96875 6.203125 
Q 23.25 6.203125 24.4375 6.390625 
Q 25.640625 6.59375 27.046875 6.890625 
z
" id="LiberationSans-116"/>
     <path d="M 6.6875 64.0625 
L 6.6875 72.46875 
L 15.484375 72.46875 
L 15.484375 64.0625 
z
M 6.6875 0 
L 6.6875 52.828125 
L 15.484375 52.828125 
L 15.484375 0 
z
" id="LiberationSans-105"/>
     <path d="M 40.28125 0 
L 40.28125 33.5 
Q 40.28125 37.359375 39.71875 39.9375 
Q 39.15625 42.53125 37.890625 44.109375 
Q 36.625 45.703125 34.546875 46.359375 
Q 32.46875 47.015625 29.390625 47.015625 
Q 26.265625 47.015625 23.75 45.921875 
Q 21.234375 44.828125 19.453125 42.75 
Q 17.671875 40.671875 16.6875 37.625 
Q 15.71875 34.578125 15.71875 30.609375 
L 15.71875 0 
L 6.9375 0 
L 6.9375 41.546875 
Q 6.9375 43.21875 6.90625 45.046875 
Q 6.890625 46.875 6.828125 48.5 
Q 6.78125 50.140625 6.734375 51.3125 
Q 6.6875 52.484375 6.640625 52.828125 
L 14.9375 52.828125 
Q 14.984375 52.59375 15.03125 51.515625 
Q 15.09375 50.4375 15.15625 49.046875 
Q 15.234375 47.65625 15.28125 46.21875 
Q 15.328125 44.78125 15.328125 43.796875 
L 15.484375 43.796875 
Q 16.75 46.09375 18.265625 47.953125 
Q 19.78125 49.8125 21.78125 51.09375 
Q 23.78125 52.390625 26.359375 53.09375 
Q 28.953125 53.8125 32.375 53.8125 
Q 36.765625 53.8125 39.9375 52.734375 
Q 43.109375 51.65625 45.15625 49.40625 
Q 47.21875 47.171875 48.171875 43.625 
Q 49.125 40.09375 49.125 35.203125 
L 49.125 0 
z
" id="LiberationSans-110"/>
     <path d="M 51.421875 26.65625 
Q 51.421875 20.65625 50.4375 15.578125 
Q 49.46875 10.5 47.1875 6.828125 
Q 44.921875 3.171875 41.1875 1.09375 
Q 37.453125 -0.984375 31.984375 -0.984375 
Q 26.3125 -0.984375 22.0625 1.171875 
Q 17.828125 3.328125 15.578125 8.203125 
L 15.328125 8.203125 
Q 15.375 8.109375 15.40625 7.328125 
Q 15.4375 6.546875 15.453125 5.375 
Q 15.484375 4.203125 15.5 2.75 
Q 15.53125 1.3125 15.53125 -0.09375 
L 15.53125 -20.75 
L 6.734375 -20.75 
L 6.734375 42.046875 
Q 6.734375 43.953125 6.703125 45.703125 
Q 6.6875 47.46875 6.640625 48.90625 
Q 6.59375 50.34375 6.546875 51.359375 
Q 6.5 52.390625 6.453125 52.828125 
L 14.9375 52.828125 
Q 14.984375 52.6875 15.0625 51.796875 
Q 15.140625 50.921875 15.203125 49.671875 
Q 15.28125 48.4375 15.359375 47.015625 
Q 15.4375 45.609375 15.4375 44.34375 
L 15.625 44.34375 
Q 16.84375 46.875 18.40625 48.65625 
Q 19.96875 50.4375 21.96875 51.578125 
Q 23.96875 52.734375 26.4375 53.25 
Q 28.90625 53.765625 31.984375 53.765625 
Q 37.453125 53.765625 41.1875 51.8125 
Q 44.921875 49.859375 47.1875 46.3125 
Q 49.46875 42.78125 50.4375 37.765625 
Q 51.421875 32.765625 51.421875 26.65625 
z
M 42.1875 26.46875 
Q 42.1875 31.34375 41.59375 35.15625 
Q 41.015625 38.96875 39.578125 41.59375 
Q 38.140625 44.234375 35.734375 45.59375 
Q 33.34375 46.96875 29.734375 46.96875 
Q 26.8125 46.96875 24.21875 46.140625 
Q 21.625 45.3125 19.703125 42.96875 
Q 17.78125 40.625 16.65625 36.5 
Q 15.53125 32.375 15.53125 25.78125 
Q 15.53125 20.171875 16.453125 16.28125 
Q 17.390625 12.40625 19.171875 10.015625 
Q 20.953125 7.625 23.578125 6.5625 
Q 26.21875 5.515625 29.640625 5.515625 
Q 33.296875 5.515625 35.71875 6.921875 
Q 38.140625 8.34375 39.578125 11.03125 
Q 41.015625 13.71875 41.59375 17.59375 
Q 42.1875 21.484375 42.1875 26.46875 
z
" id="LiberationSans-112"/>
     <path d="M 15.328125 52.828125 
L 15.328125 19.34375 
Q 15.328125 15.484375 15.890625 12.890625 
Q 16.453125 10.296875 17.71875 8.703125 
Q 19 7.125 21.0625 6.46875 
Q 23.140625 5.8125 26.21875 5.8125 
Q 29.34375 5.8125 31.859375 6.90625 
Q 34.375 8.015625 36.15625 10.078125 
Q 37.9375 12.15625 38.90625 15.203125 
Q 39.890625 18.265625 39.890625 22.21875 
L 39.890625 52.828125 
L 48.6875 52.828125 
L 48.6875 11.28125 
Q 48.6875 9.625 48.703125 7.78125 
Q 48.734375 5.953125 48.78125 4.3125 
Q 48.828125 2.6875 48.875 1.515625 
Q 48.921875 0.34375 48.96875 0 
L 40.671875 0 
Q 40.625 0.25 40.578125 1.3125 
Q 40.53125 2.390625 40.453125 3.78125 
Q 40.375 5.171875 40.328125 6.609375 
Q 40.28125 8.0625 40.28125 9.03125 
L 40.140625 9.03125 
Q 38.875 6.734375 37.359375 4.875 
Q 35.84375 3.03125 33.84375 1.734375 
Q 31.84375 0.4375 29.25 -0.265625 
Q 26.65625 -0.984375 23.25 -0.984375 
Q 18.84375 -0.984375 15.671875 0.09375 
Q 12.5 1.171875 10.453125 3.421875 
Q 8.40625 5.671875 7.453125 9.1875 
Q 6.5 12.703125 6.5 17.625 
L 6.5 52.828125 
z
" id="LiberationSans-117"/>
     <path d="M 0 -0.984375 
L 20.0625 72.46875 
L 27.78125 72.46875 
L 7.90625 -0.984375 
z
" id="LiberationSans-47"/>
     <path d="M 40.09375 8.5 
Q 37.640625 3.421875 33.609375 1.21875 
Q 29.59375 -0.984375 23.640625 -0.984375 
Q 13.625 -0.984375 8.90625 5.75 
Q 4.203125 12.5 4.203125 26.171875 
Q 4.203125 53.8125 23.640625 53.8125 
Q 29.640625 53.8125 33.640625 51.609375 
Q 37.640625 49.421875 40.09375 44.625 
L 40.1875 44.625 
Q 40.1875 45.125 40.15625 46.171875 
Q 40.140625 47.21875 40.109375 48.359375 
Q 40.09375 49.515625 40.09375 50.53125 
Q 40.09375 51.5625 40.09375 52 
L 40.09375 72.46875 
L 48.875 72.46875 
L 48.875 10.890625 
Q 48.875 8.984375 48.890625 7.21875 
Q 48.921875 5.46875 48.96875 4 
Q 49.03125 2.546875 49.078125 1.484375 
Q 49.125 0.4375 49.171875 0 
L 40.765625 0 
Q 40.671875 0.484375 40.59375 1.390625 
Q 40.53125 2.296875 40.453125 3.46875 
Q 40.375 4.640625 40.328125 5.9375 
Q 40.28125 7.234375 40.28125 8.5 
z
M 13.421875 26.46875 
Q 13.421875 21 14.109375 17.09375 
Q 14.796875 13.1875 16.3125 10.671875 
Q 17.828125 8.15625 20.171875 6.984375 
Q 22.515625 5.8125 25.875 5.8125 
Q 29.34375 5.8125 32 6.9375 
Q 34.671875 8.0625 36.453125 10.578125 
Q 38.234375 13.09375 39.15625 17.140625 
Q 40.09375 21.1875 40.09375 27.046875 
Q 40.09375 32.671875 39.15625 36.546875 
Q 38.234375 40.4375 36.421875 42.828125 
Q 34.625 45.21875 32 46.265625 
Q 29.390625 47.3125 25.984375 47.3125 
Q 22.75 47.3125 20.40625 46.1875 
Q 18.0625 45.0625 16.5 42.578125 
Q 14.9375 40.09375 14.171875 36.109375 
Q 13.421875 32.125 13.421875 26.46875 
z
" id="LiberationSans-100"/>
     <path d="M 13.484375 24.5625 
Q 13.484375 20.40625 14.328125 16.90625 
Q 15.1875 13.421875 16.96875 10.90625 
Q 18.75 8.40625 21.53125 7 
Q 24.3125 5.609375 28.21875 5.609375 
Q 33.9375 5.609375 37.375 7.90625 
Q 40.828125 10.203125 42.046875 13.71875 
L 49.75 11.53125 
Q 48.921875 9.328125 47.4375 7.109375 
Q 45.953125 4.890625 43.453125 3.09375 
Q 40.96875 1.3125 37.234375 0.15625 
Q 33.5 -0.984375 28.21875 -0.984375 
Q 16.5 -0.984375 10.375 6 
Q 4.25 12.984375 4.25 26.765625 
Q 4.25 34.1875 6.09375 39.328125 
Q 7.953125 44.484375 11.171875 47.703125 
Q 14.40625 50.921875 18.703125 52.359375 
Q 23 53.8125 27.875 53.8125 
Q 34.515625 53.8125 38.984375 51.65625 
Q 43.453125 49.515625 46.15625 45.71875 
Q 48.875 41.9375 50.015625 36.8125 
Q 51.171875 31.6875 51.171875 25.734375 
L 51.171875 24.5625 
z
M 42.09375 31.296875 
Q 41.359375 39.65625 37.84375 43.484375 
Q 34.328125 47.3125 27.734375 47.3125 
Q 25.53125 47.3125 23.109375 46.609375 
Q 20.703125 45.90625 18.65625 44.09375 
Q 16.609375 42.28125 15.1875 39.171875 
Q 13.765625 36.078125 13.578125 31.296875 
z
" id="LiberationSans-101"/>
     <path d="M 13.421875 26.65625 
Q 13.421875 22.125 14.078125 18.3125 
Q 14.75 14.5 16.3125 11.734375 
Q 17.875 8.984375 20.4375 7.46875 
Q 23 5.953125 26.765625 5.953125 
Q 31.453125 5.953125 34.59375 8.484375 
Q 37.75 11.03125 38.484375 16.3125 
L 47.359375 15.71875 
Q 46.921875 12.453125 45.453125 9.421875 
Q 44 6.390625 41.484375 4.09375 
Q 38.96875 1.8125 35.34375 0.40625 
Q 31.734375 -0.984375 27 -0.984375 
Q 20.796875 -0.984375 16.453125 1.109375 
Q 12.109375 3.21875 9.390625 6.90625 
Q 6.6875 10.59375 5.46875 15.59375 
Q 4.25 20.609375 4.25 26.46875 
Q 4.25 31.78125 5.125 35.859375 
Q 6 39.9375 7.59375 42.984375 
Q 9.1875 46.046875 11.328125 48.125 
Q 13.484375 50.203125 15.984375 51.4375 
Q 18.5 52.6875 21.28125 53.25 
Q 24.078125 53.8125 26.90625 53.8125 
Q 31.34375 53.8125 34.8125 52.59375 
Q 38.28125 51.375 40.796875 49.25 
Q 43.3125 47.125 44.875 44.234375 
Q 46.4375 41.359375 47.078125 38.03125 
L 38.03125 37.359375 
Q 37.359375 41.75 34.5625 44.328125 
Q 31.78125 46.921875 26.65625 46.921875 
Q 22.90625 46.921875 20.390625 45.671875 
Q 17.875 44.4375 16.3125 41.921875 
Q 14.75 39.40625 14.078125 35.59375 
Q 13.421875 31.78125 13.421875 26.65625 
z
" id="LiberationSans-99"/>
    </defs>
    <use xlink:href="#LiberationSans-69"/>
    <use x="66.699219" xlink:href="#LiberationSans-103"/>
    <use x="122.314453" xlink:href="#LiberationSans-111"/>
    <use x="177.929688" xlink:href="#LiberationSans-109"/>
    <use x="261.230469" xlink:href="#LiberationSans-111"/>
    <use x="316.845703" xlink:href="#LiberationSans-116"/>
    <use x="344.628906" xlink:href="#LiberationSans-105"/>
    <use x="366.845703" xlink:href="#LiberationSans-111"/>
    <use x="422.460938" xlink:href="#LiberationSans-110"/>
    <use x="478.076172" xlink:href="#LiberationSans-32"/>
    <use x="505.859375" xlink:href="#LiberationSans-105"/>
    <use x="528.076172" xlink:href="#LiberationSans-110"/>
    <use x="583.691406" xlink:href="#LiberationSans-112"/>
    <use x="639.306641" xlink:href="#LiberationSans-117"/>
    <use x="694.921875" xlink:href="#LiberationSans-116"/>
    <use x="722.705078" xlink:href="#LiberationSans-47"/>
    <use x="750.488281" xlink:href="#LiberationSans-100"/>
    <use x="806.103516" xlink:href="#LiberationSans-101"/>
    <use x="861.71875" xlink:href="#LiberationSans-99"/>
    <use x="911.71875" xlink:href="#LiberationSans-111"/>
    <use x="967.333984" xlink:href="#LiberationSans-100"/>
    <use x="1022.949219" xlink:href="#LiberationSans-105"/>
    <use x="1045.166016" xlink:href="#LiberationSans-110"/>
    <use x="1100.78125" xlink:href="#LiberationSans-103"/>
   </g>
  </g>
 </g>
 <defs>
  <clipPath id="pe9f1296b76">
   <rect height="120.96" width="357.12" x="57.6" y="41.472"/>
  </clipPath>
  <clipPath id="p40802e85d7">
   <rect height="120.96" width="357.12" x="57.6" y="186.624"/>
  </clipPath>
 </defs>
</svg>
