<?xml version="1.0" encoding="utf-8" standalone="no"?>
<!DOCTYPE svg PUBLIC "-//W3C//DTD SVG 1.1//EN"
  "http://www.w3.org/Graphics/SVG/1.1/DTD/svg11.dtd">
<!-- Created with matplotlib (https://matplotlib.org/) -->
<svg height="345.6pt" version="1.1" viewBox="0 0 460.8 345.6" width="460.8pt" xmlns="http://www.w3.org/2000/svg" xmlns:xlink="http://www.w3.org/1999/xlink">
 <metadata>
  <rdf:RDF xmlns:cc="http://creativecommons.org/ns#" xmlns:dc="http://purl.org/dc/elements/1.1/" xmlns:rdf="http://www.w3.org/1999/02/22-rdf-syntax-ns#">
   <cc:Work>
    <dc:type rdf:resource="http://purl.org/dc/dcmitype/StillImage"/>
    <dc:date>2022-05-05T12:09:39.851528</dc:date>
    <dc:format>image/svg+xml</dc:format>
    <dc:creator>
     <cc:Agent>
      <dc:title>Matplotlib v3.3.4, https://matplotlib.org/</dc:title>
     </cc:Agent>
    </dc:creator>
   </cc:Work>
  </rdf:RDF>
 </metadata>
 <defs>
  <style type="text/css">*{stroke-linecap:butt;stroke-linejoin:round;}</style>
 </defs>
 <g id="figure_1">
  <g id="patch_1">
   <path d="M 0 345.6 
L 460.8 345.6 
L 460.8 0 
L 0 0 
z
" style="fill:#262626;"/>
  </g>
  <g id="axes_1">
   <g id="patch_2">
    <path d="M 57.6 162.432 
L 414.72 162.432 
L 414.72 41.472 
L 57.6 41.472 
z
" style="fill:#1a1a1a;"/>
   </g>
   <g id="matplotlib.axis_1">
    <g id="xtick_1">
     <g id="line2d_1">
      <defs>
       <path d="M 0 0 
L 0 3.5 
" id="mb271416456" style="stroke:#ffffff;stroke-width:0.8;"/>
      </defs>
      <g>
       <use style="fill:#ffffff;stroke:#ffffff;stroke-width:0.8;" x="73.832727" xlink:href="#mb271416456" y="162.432"/>
      </g>
     </g>
     <g id="text_1">
      <!-- 0 -->
      <g style="fill:#ffffff;" transform="translate(71.052259 176.678875)scale(0.1 -0.1)">
       <defs>
        <path d="M 51.703125 34.421875 
Q 51.703125 24.515625 49.828125 17.75 
Q 47.953125 10.984375 44.703125 6.8125 
Q 41.453125 2.640625 37.0625 0.828125 
Q 32.671875 -0.984375 27.6875 -0.984375 
Q 22.65625 -0.984375 18.3125 0.828125 
Q 13.96875 2.640625 10.765625 6.78125 
Q 7.5625 10.9375 5.734375 17.703125 
Q 3.90625 24.46875 3.90625 34.421875 
Q 3.90625 44.828125 5.734375 51.640625 
Q 7.5625 58.453125 10.78125 62.5 
Q 14.015625 66.546875 18.40625 68.1875 
Q 22.796875 69.828125 27.984375 69.828125 
Q 32.90625 69.828125 37.21875 68.1875 
Q 41.546875 66.546875 44.765625 62.5 
Q 48 58.453125 49.84375 51.640625 
Q 51.703125 44.828125 51.703125 34.421875 
z
M 42.78125 34.421875 
Q 42.78125 42.625 41.796875 48.0625 
Q 40.828125 53.515625 38.921875 56.765625 
Q 37.015625 60.015625 34.25 61.359375 
Q 31.5 62.703125 27.984375 62.703125 
Q 24.265625 62.703125 21.4375 61.328125 
Q 18.609375 59.96875 16.671875 56.71875 
Q 14.75 53.46875 13.765625 48.015625 
Q 12.796875 42.578125 12.796875 34.421875 
Q 12.796875 26.515625 13.796875 21.09375 
Q 14.796875 15.671875 16.71875 12.375 
Q 18.65625 9.078125 21.4375 7.640625 
Q 24.21875 6.203125 27.78125 6.203125 
Q 31.25 6.203125 34.03125 7.640625 
Q 36.8125 9.078125 38.734375 12.375 
Q 40.671875 15.671875 41.71875 21.09375 
Q 42.78125 26.515625 42.78125 34.421875 
z
" id="LiberationSans-48"/>
       </defs>
       <use xlink:href="#LiberationSans-48"/>
      </g>
     </g>
    </g>
    <g id="xtick_2">
     <g id="line2d_2">
      <g>
       <use style="fill:#ffffff;stroke:#ffffff;stroke-width:0.8;" x="138.776625" xlink:href="#mb271416456" y="162.432"/>
      </g>
     </g>
     <g id="text_2">
      <!-- 200 -->
      <g style="fill:#ffffff;" transform="translate(130.435219 176.678875)scale(0.1 -0.1)">
       <defs>
        <path d="M 5.03125 0 
L 5.03125 6.203125 
Q 7.515625 11.921875 11.109375 16.28125 
Q 14.703125 20.65625 18.65625 24.1875 
Q 22.609375 27.734375 26.484375 30.765625 
Q 30.375 33.796875 33.5 36.8125 
Q 36.625 39.84375 38.546875 43.15625 
Q 40.484375 46.484375 40.484375 50.6875 
Q 40.484375 53.609375 39.59375 55.828125 
Q 38.71875 58.0625 37.0625 59.5625 
Q 35.40625 61.078125 33.078125 61.828125 
Q 30.765625 62.59375 27.9375 62.59375 
Q 25.296875 62.59375 22.96875 61.859375 
Q 20.65625 61.140625 18.84375 59.671875 
Q 17.046875 58.203125 15.890625 56.03125 
Q 14.75 53.859375 14.40625 50.984375 
L 5.421875 51.8125 
Q 5.859375 55.515625 7.46875 58.78125 
Q 9.078125 62.0625 11.90625 64.53125 
Q 14.75 67 18.71875 68.40625 
Q 22.703125 69.828125 27.9375 69.828125 
Q 33.0625 69.828125 37.0625 68.609375 
Q 41.0625 67.390625 43.8125 64.984375 
Q 46.578125 62.59375 48.046875 59.078125 
Q 49.515625 55.5625 49.515625 50.984375 
Q 49.515625 47.515625 48.265625 44.390625 
Q 47.015625 41.265625 44.9375 38.421875 
Q 42.875 35.59375 40.140625 32.953125 
Q 37.40625 30.328125 34.421875 27.8125 
Q 31.453125 25.296875 28.421875 22.828125 
Q 25.390625 20.359375 22.71875 17.859375 
Q 20.0625 15.375 17.96875 12.8125 
Q 15.875 10.25 14.703125 7.46875 
L 50.59375 7.46875 
L 50.59375 0 
z
" id="LiberationSans-50"/>
       </defs>
       <use xlink:href="#LiberationSans-50"/>
       <use x="55.615234" xlink:href="#LiberationSans-48"/>
       <use x="111.230469" xlink:href="#LiberationSans-48"/>
      </g>
     </g>
    </g>
    <g id="xtick_3">
     <g id="line2d_3">
      <g>
       <use style="fill:#ffffff;stroke:#ffffff;stroke-width:0.8;" x="203.720523" xlink:href="#mb271416456" y="162.432"/>
      </g>
     </g>
     <g id="text_3">
      <!-- 400 -->
      <g style="fill:#ffffff;" transform="translate(195.379117 176.678875)scale(0.1 -0.1)">
       <defs>
        <path d="M 43.015625 15.578125 
L 43.015625 0 
L 34.71875 0 
L 34.71875 15.578125 
L 2.296875 15.578125 
L 2.296875 22.40625 
L 33.796875 68.796875 
L 43.015625 68.796875 
L 43.015625 22.515625 
L 52.6875 22.515625 
L 52.6875 15.578125 
z
M 34.71875 58.890625 
Q 34.625 58.640625 34.234375 57.9375 
Q 33.84375 57.234375 33.34375 56.34375 
Q 32.859375 55.46875 32.34375 54.5625 
Q 31.84375 53.65625 31.453125 53.078125 
L 13.8125 27.09375 
Q 13.578125 26.703125 13.109375 26.0625 
Q 12.640625 25.4375 12.15625 24.78125 
Q 11.671875 24.125 11.171875 23.484375 
Q 10.6875 22.859375 10.40625 22.515625 
L 34.71875 22.515625 
z
" id="LiberationSans-52"/>
       </defs>
       <use xlink:href="#LiberationSans-52"/>
       <use x="55.615234" xlink:href="#LiberationSans-48"/>
       <use x="111.230469" xlink:href="#LiberationSans-48"/>
      </g>
     </g>
    </g>
    <g id="xtick_4">
     <g id="line2d_4">
      <g>
       <use style="fill:#ffffff;stroke:#ffffff;stroke-width:0.8;" x="268.664421" xlink:href="#mb271416456" y="162.432"/>
      </g>
     </g>
     <g id="text_4">
      <!-- 600 -->
      <g style="fill:#ffffff;" transform="translate(260.323015 176.678875)scale(0.1 -0.1)">
       <defs>
        <path d="M 51.21875 22.515625 
Q 51.21875 17.328125 49.78125 13 
Q 48.34375 8.6875 45.53125 5.578125 
Q 42.71875 2.484375 38.5625 0.75 
Q 34.421875 -0.984375 29 -0.984375 
Q 23 -0.984375 18.5 1.3125 
Q 14.015625 3.609375 11.03125 7.921875 
Q 8.0625 12.25 6.5625 18.53125 
Q 5.078125 24.8125 5.078125 32.8125 
Q 5.078125 42 6.765625 48.921875 
Q 8.453125 55.859375 11.625 60.5 
Q 14.796875 65.140625 19.359375 67.484375 
Q 23.921875 69.828125 29.6875 69.828125 
Q 33.203125 69.828125 36.28125 69.09375 
Q 39.359375 68.359375 41.875 66.71875 
Q 44.390625 65.09375 46.28125 62.40625 
Q 48.1875 59.71875 49.3125 55.8125 
L 40.921875 54.296875 
Q 39.546875 58.734375 36.546875 60.71875 
Q 33.546875 62.703125 29.59375 62.703125 
Q 25.984375 62.703125 23.046875 60.984375 
Q 20.125 59.28125 18.0625 55.875 
Q 16.015625 52.484375 14.90625 47.359375 
Q 13.8125 42.234375 13.8125 35.40625 
Q 16.21875 39.84375 20.5625 42.15625 
Q 24.90625 44.484375 30.515625 44.484375 
Q 35.203125 44.484375 39.015625 42.96875 
Q 42.828125 41.453125 45.53125 38.59375 
Q 48.25 35.75 49.734375 31.671875 
Q 51.21875 27.59375 51.21875 22.515625 
z
M 42.28125 22.125 
Q 42.28125 25.6875 41.40625 28.5625 
Q 40.53125 31.453125 38.765625 33.46875 
Q 37.015625 35.5 34.421875 36.59375 
Q 31.84375 37.703125 28.421875 37.703125 
Q 26.03125 37.703125 23.578125 36.984375 
Q 21.140625 36.28125 19.15625 34.6875 
Q 17.1875 33.109375 15.9375 30.515625 
Q 14.703125 27.9375 14.703125 24.21875 
Q 14.703125 20.40625 15.671875 17.109375 
Q 16.65625 13.8125 18.484375 11.375 
Q 20.3125 8.9375 22.890625 7.515625 
Q 25.484375 6.109375 28.71875 6.109375 
Q 31.890625 6.109375 34.40625 7.203125 
Q 36.921875 8.296875 38.671875 10.375 
Q 40.4375 12.453125 41.359375 15.421875 
Q 42.28125 18.40625 42.28125 22.125 
z
" id="LiberationSans-54"/>
       </defs>
       <use xlink:href="#LiberationSans-54"/>
       <use x="55.615234" xlink:href="#LiberationSans-48"/>
       <use x="111.230469" xlink:href="#LiberationSans-48"/>
      </g>
     </g>
    </g>
    <g id="xtick_5">
     <g id="line2d_5">
      <g>
       <use style="fill:#ffffff;stroke:#ffffff;stroke-width:0.8;" x="333.608319" xlink:href="#mb271416456" y="162.432"/>
      </g>
     </g>
     <g id="text_5">
      <!-- 800 -->
      <g style="fill:#ffffff;" transform="translate(325.266913 176.678875)scale(0.1 -0.1)">
       <defs>
        <path d="M 51.265625 19.1875 
Q 51.265625 14.796875 49.875 11.109375 
Q 48.484375 7.421875 45.625 4.734375 
Q 42.78125 2.046875 38.328125 0.53125 
Q 33.890625 -0.984375 27.828125 -0.984375 
Q 21.78125 -0.984375 17.359375 0.53125 
Q 12.9375 2.046875 10.03125 4.703125 
Q 7.125 7.375 5.734375 11.0625 
Q 4.34375 14.75 4.34375 19.09375 
Q 4.34375 22.859375 5.484375 25.78125 
Q 6.640625 28.71875 8.5625 30.828125 
Q 10.5 32.953125 12.96875 34.25 
Q 15.4375 35.546875 18.0625 35.984375 
L 18.0625 36.1875 
Q 15.1875 36.859375 12.90625 38.375 
Q 10.640625 39.890625 9.09375 42.015625 
Q 7.5625 44.140625 6.75 46.71875 
Q 5.953125 49.3125 5.953125 52.203125 
Q 5.953125 55.8125 7.34375 59 
Q 8.734375 62.203125 11.46875 64.625 
Q 14.203125 67.046875 18.25 68.4375 
Q 22.3125 69.828125 27.640625 69.828125 
Q 33.25 69.828125 37.375 68.40625 
Q 41.5 67 44.203125 64.578125 
Q 46.921875 62.15625 48.234375 58.9375 
Q 49.5625 55.71875 49.5625 52.09375 
Q 49.5625 49.265625 48.75 46.671875 
Q 47.953125 44.09375 46.40625 41.96875 
Q 44.875 39.84375 42.59375 38.34375 
Q 40.328125 36.859375 37.359375 36.28125 
L 37.359375 36.078125 
Q 40.328125 35.59375 42.859375 34.296875 
Q 45.40625 33.015625 47.265625 30.890625 
Q 49.125 28.765625 50.1875 25.828125 
Q 51.265625 22.90625 51.265625 19.1875 
z
M 40.4375 51.609375 
Q 40.4375 54.203125 39.765625 56.34375 
Q 39.109375 58.5 37.59375 60.03125 
Q 36.078125 61.578125 33.640625 62.421875 
Q 31.203125 63.28125 27.640625 63.28125 
Q 24.171875 63.28125 21.78125 62.421875 
Q 19.390625 61.578125 17.84375 60.03125 
Q 16.3125 58.5 15.625 56.34375 
Q 14.9375 54.203125 14.9375 51.609375 
Q 14.9375 49.5625 15.46875 47.40625 
Q 16.015625 45.265625 17.421875 43.5 
Q 18.84375 41.75 21.328125 40.625 
Q 23.828125 39.5 27.734375 39.5 
Q 31.890625 39.5 34.40625 40.625 
Q 36.921875 41.75 38.25 43.5 
Q 39.59375 45.265625 40.015625 47.40625 
Q 40.4375 49.5625 40.4375 51.609375 
z
M 42.140625 20.015625 
Q 42.140625 22.515625 41.453125 24.828125 
Q 40.765625 27.15625 39.109375 28.9375 
Q 37.453125 30.71875 34.640625 31.8125 
Q 31.84375 32.90625 27.640625 32.90625 
Q 23.78125 32.90625 21.0625 31.8125 
Q 18.359375 30.71875 16.671875 28.90625 
Q 14.984375 27.09375 14.203125 24.71875 
Q 13.421875 22.359375 13.421875 19.828125 
Q 13.421875 16.65625 14.203125 14.03125 
Q 14.984375 11.421875 16.6875 9.546875 
Q 18.40625 7.671875 21.1875 6.640625 
Q 23.96875 5.609375 27.9375 5.609375 
Q 31.9375 5.609375 34.671875 6.640625 
Q 37.40625 7.671875 39.0625 9.546875 
Q 40.71875 11.421875 41.421875 14.078125 
Q 42.140625 16.75 42.140625 20.015625 
z
" id="LiberationSans-56"/>
       </defs>
       <use xlink:href="#LiberationSans-56"/>
       <use x="55.615234" xlink:href="#LiberationSans-48"/>
       <use x="111.230469" xlink:href="#LiberationSans-48"/>
      </g>
     </g>
    </g>
    <g id="xtick_6">
     <g id="line2d_6">
      <g>
       <use style="fill:#ffffff;stroke:#ffffff;stroke-width:0.8;" x="398.552217" xlink:href="#mb271416456" y="162.432"/>
      </g>
     </g>
     <g id="text_6">
      <!-- 1000 -->
      <g style="fill:#ffffff;" transform="translate(387.430342 176.678875)scale(0.1 -0.1)">
       <defs>
        <path d="M 7.625 0 
L 7.625 7.46875 
L 25.140625 7.46875 
L 25.140625 60.40625 
L 9.625 49.3125 
L 9.625 57.625 
L 25.875 68.796875 
L 33.984375 68.796875 
L 33.984375 7.46875 
L 50.734375 7.46875 
L 50.734375 0 
z
" id="LiberationSans-49"/>
       </defs>
       <use xlink:href="#LiberationSans-49"/>
       <use x="55.615234" xlink:href="#LiberationSans-48"/>
       <use x="111.230469" xlink:href="#LiberationSans-48"/>
       <use x="166.845703" xlink:href="#LiberationSans-48"/>
      </g>
     </g>
    </g>
   </g>
   <g id="matplotlib.axis_2">
    <g id="ytick_1">
     <g id="line2d_7">
      <defs>
       <path d="M 0 0 
L -3.5 0 
" id="m5c87e6fa77" style="stroke:#ffffff;stroke-width:0.8;"/>
      </defs>
      <g>
       <use style="fill:#ffffff;stroke:#ffffff;stroke-width:0.8;" x="57.6" xlink:href="#m5c87e6fa77" y="147.306971"/>
      </g>
     </g>
     <g id="text_7">
      <!-- 0.5 -->
      <g style="fill:#ffffff;" transform="translate(36.7 150.930409)scale(0.1 -0.1)">
       <defs>
        <path d="M 9.125 0 
L 9.125 10.6875 
L 18.65625 10.6875 
L 18.65625 0 
z
" id="LiberationSans-46"/>
        <path d="M 51.421875 22.40625 
Q 51.421875 17.234375 49.859375 12.9375 
Q 48.296875 8.640625 45.21875 5.53125 
Q 42.140625 2.4375 37.578125 0.71875 
Q 33.015625 -0.984375 27 -0.984375 
Q 21.578125 -0.984375 17.546875 0.28125 
Q 13.53125 1.5625 10.734375 3.78125 
Q 7.953125 6 6.3125 8.984375 
Q 4.6875 11.96875 4 15.375 
L 12.890625 16.40625 
Q 13.421875 14.453125 14.390625 12.625 
Q 15.375 10.796875 17.0625 9.34375 
Q 18.75 7.90625 21.21875 7.046875 
Q 23.6875 6.203125 27.203125 6.203125 
Q 30.609375 6.203125 33.390625 7.25 
Q 36.1875 8.296875 38.15625 10.34375 
Q 40.140625 12.40625 41.203125 15.375 
Q 42.28125 18.359375 42.28125 22.21875 
Q 42.28125 25.390625 41.25 28.046875 
Q 40.234375 30.71875 38.328125 32.640625 
Q 36.421875 34.578125 33.65625 35.640625 
Q 30.90625 36.71875 27.390625 36.71875 
Q 25.203125 36.71875 23.34375 36.328125 
Q 21.484375 35.9375 19.890625 35.25 
Q 18.3125 34.578125 17.015625 33.671875 
Q 15.71875 32.765625 14.59375 31.78125 
L 6 31.78125 
L 8.296875 68.796875 
L 47.40625 68.796875 
L 47.40625 61.328125 
L 16.3125 61.328125 
L 14.984375 39.5 
Q 17.328125 41.3125 20.84375 42.59375 
Q 24.359375 43.890625 29.203125 43.890625 
Q 34.328125 43.890625 38.421875 42.328125 
Q 42.53125 40.765625 45.40625 37.90625 
Q 48.296875 35.0625 49.859375 31.109375 
Q 51.421875 27.15625 51.421875 22.40625 
z
" id="LiberationSans-53"/>
       </defs>
       <use xlink:href="#LiberationSans-48"/>
       <use x="55.615234" xlink:href="#LiberationSans-46"/>
       <use x="83.398438" xlink:href="#LiberationSans-53"/>
      </g>
     </g>
    </g>
    <g id="ytick_2">
     <g id="line2d_8">
      <g>
       <use style="fill:#ffffff;stroke:#ffffff;stroke-width:0.8;" x="57.6" xlink:href="#m5c87e6fa77" y="108.093129"/>
      </g>
     </g>
     <g id="text_8">
      <!-- 1.0 -->
      <g style="fill:#ffffff;" transform="translate(36.7 111.716567)scale(0.1 -0.1)">
       <use xlink:href="#LiberationSans-49"/>
       <use x="55.615234" xlink:href="#LiberationSans-46"/>
       <use x="83.398438" xlink:href="#LiberationSans-48"/>
      </g>
     </g>
    </g>
    <g id="ytick_3">
     <g id="line2d_9">
      <g>
       <use style="fill:#ffffff;stroke:#ffffff;stroke-width:0.8;" x="57.6" xlink:href="#m5c87e6fa77" y="68.879287"/>
      </g>
     </g>
     <g id="text_9">
      <!-- 1.5 -->
      <g style="fill:#ffffff;" transform="translate(36.7 72.502724)scale(0.1 -0.1)">
       <use xlink:href="#LiberationSans-49"/>
       <use x="55.615234" xlink:href="#LiberationSans-46"/>
       <use x="83.398438" xlink:href="#LiberationSans-53"/>
      </g>
     </g>
    </g>
   </g>
   <g id="line2d_10">
    <path clip-path="url(#p3f9e6f0097)" d="M 73.832727 128.832466 
L 73.897671 59.451741 
L 73.962615 60.716099 
L 75.196549 82.485456 
L 76.430483 100.487824 
L 77.664417 115.375047 
L 78.898351 127.686172 
L 80.132285 137.86697 
L 80.846668 142.935039 
L 80.911612 73.413991 
L 80.976556 74.539423 
L 82.21049 93.91678 
L 83.444424 109.941062 
L 84.678358 123.192489 
L 85.912292 134.150877 
L 87.146226 143.213016 
L 88.38016 150.707035 
L 88.445104 151.063388 
L 88.510048 81.461461 
L 88.574992 82.506819 
L 89.808926 100.505491 
L 91.04286 115.389657 
L 92.276794 127.698254 
L 93.380841 136.89429 
L 93.445784 67.433348 
L 93.510728 68.618288 
L 94.744662 89.020243 
L 95.978596 105.891826 
L 97.212531 119.843936 
L 98.446465 131.381761 
L 99.680399 140.92307 
L 99.745343 71.422041 
L 99.810286 72.567293 
L 101.04422 92.285909 
L 102.278155 108.592399 
L 103.512089 122.077199 
L 104.551191 131.605588 
L 104.616135 62.197269 
L 104.681079 63.434309 
L 105.915013 84.733305 
L 107.148947 102.346703 
L 108.382881 116.912264 
L 109.616815 128.957388 
L 110.590973 136.975514 
L 110.655917 67.513764 
L 110.720861 68.697904 
L 111.954795 89.086082 
L 113.188729 105.946273 
L 114.422663 119.888961 
L 115.656598 131.418995 
L 116.6957 139.566141 
L 116.760644 70.078614 
L 116.825588 71.237233 
L 118.059522 91.186004 
L 119.293456 107.682822 
L 120.52739 121.325016 
L 121.761324 132.606553 
L 122.735482 140.11638 
L 122.800426 70.623378 
L 122.86537 71.776576 
L 124.099304 91.632019 
L 125.333238 108.051658 
L 126.047621 116.225465 
L 126.112565 46.970182 
L 126.177509 48.358734 
L 127.411443 72.26642 
L 128.645377 92.037099 
L 129.879311 108.386643 
L 131.113245 121.907047 
L 132.347179 133.08787 
L 133.581113 142.333952 
L 133.775945 143.639872 
L 133.840889 74.11181 
L 133.905833 75.230298 
L 135.139767 94.488106 
L 136.373701 110.413525 
L 137.607635 123.583196 
L 138.841569 134.473976 
L 140.075503 143.480206 
L 140.465166 145.986696 
L 140.53011 76.435283 
L 140.595054 77.530652 
L 141.828988 96.390404 
L 143.062922 111.986648 
L 144.296856 124.884105 
L 145.530791 135.549774 
L 146.634837 143.518341 
L 146.699781 73.991489 
L 146.764725 75.111174 
L 147.998659 94.389595 
L 149.232593 110.332061 
L 150.466527 123.515829 
L 151.505629 132.831507 
L 151.570573 63.410991 
L 151.635517 64.635954 
L 152.869451 85.727015 
L 154.103385 103.168462 
L 155.337319 117.591825 
L 156.571253 129.519357 
L 157.805187 139.382938 
L 159.039121 147.539717 
L 159.233953 148.691783 
L 159.298897 79.113454 
L 159.363841 80.182175 
L 160.597775 98.583105 
L 161.831709 113.799922 
L 163.065643 126.383608 
L 164.299577 136.789802 
L 165.533511 145.3953 
L 166.767445 152.511694 
L 167.546772 156.357431 
L 167.611716 86.702827 
L 167.67666 87.696033 
L 168.910594 104.796759 
L 170.144528 118.93836 
L 171.378462 130.632886 
L 171.898013 134.929754 
L 171.962957 65.48836 
L 172.027901 66.692653 
L 173.261835 87.427822 
L 174.495769 104.574959 
L 175.729703 118.754941 
L 176.963637 130.481206 
L 178.197571 140.178348 
L 178.84701 144.588417 
L 178.911954 75.050917 
L 178.976898 76.160061 
L 180.210832 95.256981 
L 181.444766 111.049354 
L 182.6787 124.109001 
L 183.912634 134.908795 
L 185.146568 143.839783 
L 185.211512 144.264467 
L 185.276456 74.73019 
L 185.3414 75.842526 
L 186.575334 94.994393 
L 187.809268 110.832204 
L 189.043202 123.929426 
L 190.277136 134.760294 
L 191.51107 143.716979 
L 191.576014 144.142885 
L 191.640958 74.609818 
L 191.705902 75.723351 
L 192.939836 94.89584 
L 194.17377 110.750705 
L 195.407704 123.86203 
L 196.641638 134.70456 
L 197.875572 143.67089 
L 199.109506 151.085678 
L 199.629057 153.81006 
L 199.694001 84.180804 
L 199.758945 85.199104 
L 200.992879 102.7319 
L 202.226813 117.230806 
L 203.460747 129.220809 
L 203.525691 59.83622 
L 203.590635 61.096753 
L 204.824569 82.800241 
L 206.058503 100.748139 
L 207.292437 115.590317 
L 208.526371 127.864191 
L 209.50053 136.034591 
L 209.565474 66.582203 
L 209.630418 67.775612 
L 210.864352 88.323385 
L 212.098286 105.315553 
L 213.33222 119.367382 
L 214.566154 130.98767 
L 215.475369 138.242618 
L 215.540312 68.76826 
L 215.605256 69.939917 
L 216.83919 90.113177 
L 218.073124 106.795638 
L 219.307059 120.591351 
L 220.540993 131.999842 
L 221.774927 141.434199 
L 221.969758 142.766709 
L 222.034702 73.247336 
L 222.099646 74.374426 
L 223.33358 93.780334 
L 224.567514 109.828227 
L 225.801448 123.099179 
L 227.035382 134.073713 
L 228.269316 143.149205 
L 229.308419 149.561967 
L 229.373363 79.974979 
L 229.438307 81.035128 
L 230.672241 99.288463 
L 231.906175 114.383224 
L 233.140109 126.865975 
L 233.724604 132.000396 
L 233.789548 62.58815 
L 233.854492 63.8213 
L 235.088426 85.05333 
L 236.32236 102.611352 
L 237.556294 117.131118 
L 238.790228 129.138371 
L 240.024162 139.067878 
L 240.413825 141.831322 
L 240.478769 72.321256 
L 240.543713 73.457561 
L 241.777647 93.022124 
L 243.011581 109.201218 
L 244.245515 122.580668 
L 245.479449 133.644926 
L 246.713383 142.794616 
L 247.947317 150.361035 
L 248.077205 151.077046 
L 248.142149 81.474984 
L 248.207093 82.520207 
L 249.441027 100.516562 
L 250.674961 115.398812 
L 251.64912 125.30554 
L 251.714064 55.959908 
L 251.779007 57.259011 
L 253.012941 79.626585 
L 254.246876 98.123655 
L 255.48081 113.419976 
L 256.6498 125.461861 
L 256.714744 56.114674 
L 256.779688 57.412237 
L 258.013622 79.753297 
L 259.247556 98.228441 
L 260.48149 113.506629 
L 261.715424 126.141067 
L 261.780368 56.787122 
L 261.845312 58.077993 
L 263.079246 80.30385 
L 264.31318 98.683726 
L 265.547114 113.883131 
L 266.781048 126.452419 
L 268.014982 136.846706 
L 269.248916 145.442357 
L 270.48285 152.550608 
L 270.937457 154.847204 
L 271.002401 85.207628 
L 271.067345 86.215711 
L 272.301279 103.572593 
L 273.535213 117.926025 
L 274.054764 123.199843 
L 274.119708 53.875163 
L 274.184652 55.195009 
L 275.418586 77.91974 
L 276.65252 96.712164 
L 277.886454 112.252731 
L 279.120388 125.104144 
L 280.354323 135.731738 
L 281.588257 144.520323 
L 282.497471 150.007342 
L 282.562415 80.415923 
L 282.627359 81.471684 
L 283.861293 99.649476 
L 285.095227 114.681768 
L 286.329161 127.112859 
L 287.563095 137.392863 
L 288.797029 145.894006 
L 289.771188 151.552996 
L 289.836132 81.946198 
L 289.901075 82.986733 
L 291.13501 100.90236 
L 292.368944 115.717851 
L 293.602878 127.969657 
L 294.836812 138.1014 
L 296.070746 146.479937 
L 297.30468 153.408645 
L 297.759287 155.647232 
L 297.824231 85.999696 
L 297.889175 86.999898 
L 299.123109 104.221083 
L 300.357043 118.4623 
L 301.590977 130.239204 
L 302.240416 135.595107 
L 302.30536 66.147093 
L 302.370304 67.344831 
L 303.604238 87.967146 
L 304.838172 105.020958 
L 306.072106 119.123764 
L 307.30604 130.786208 
L 308.539974 140.430572 
L 309.773908 148.406068 
L 309.838852 148.785316 
L 309.903796 79.206056 
L 309.96874 80.273856 
L 311.202674 98.658921 
L 312.436608 113.862619 
L 313.670542 126.435456 
L 314.904476 136.832679 
L 315.359083 140.191904 
L 315.424027 70.69815 
L 315.488971 71.850605 
L 316.722905 91.693237 
L 317.956839 108.102283 
L 319.190773 121.671893 
L 320.424707 132.893407 
L 320.944259 137.016478 
L 321.009203 67.55432 
L 321.074146 68.738057 
L 322.308081 89.119287 
L 323.542015 105.973731 
L 324.775949 119.911668 
L 325.944939 130.884179 
L 326.009883 61.483039 
L 326.074827 62.727185 
L 327.308761 84.148542 
L 328.542695 101.863128 
L 329.776629 116.512368 
L 331.010563 128.62669 
L 331.660002 134.136044 
L 331.724946 64.702547 
L 331.78989 65.914659 
L 333.023824 86.784453 
L 334.257758 104.042919 
L 335.491692 118.314965 
L 336.725626 130.117364 
L 337.180233 133.930586 
L 337.245177 64.499134 
L 337.310121 65.71327 
L 338.544055 86.617912 
L 339.777989 103.905196 
L 341.011923 118.201074 
L 342.245857 130.023181 
L 343.414847 139.330024 
L 343.479791 69.844847 
L 343.544735 71.005792 
L 344.778669 90.994611 
L 346.012603 107.524548 
L 347.11665 119.874444 
L 347.181593 50.582852 
L 347.246537 51.935458 
L 348.480471 75.224224 
L 349.714405 94.483082 
L 351.338003 115.899293 
L 352.571937 128.119702 
L 353.805871 138.225481 
L 355.039805 146.582547 
L 356.273739 153.493499 
L 356.988122 156.933818 
L 357.053066 87.27348 
L 357.11801 88.261007 
L 358.351944 105.263969 
L 359.585878 119.324724 
L 360.819812 130.952394 
L 362.053746 140.568001 
L 362.638241 144.523105 
L 362.703185 74.986255 
L 362.768129 76.096043 
L 364.002063 95.204041 
L 365.235997 111.005574 
L 366.210155 121.524245 
L 366.275099 52.216238 
L 366.340043 53.55259 
L 367.573977 76.561527 
L 368.807911 95.588977 
L 370.041845 111.323901 
L 371.27578 124.33604 
L 372.509714 135.096547 
L 373.743648 143.995047 
L 374.717806 149.918547 
L 374.78275 80.328011 
L 374.847694 81.384647 
L 376.081628 99.577501 
L 377.315562 114.622247 
L 378.549496 127.063637 
L 379.78343 137.352159 
L 381.017364 145.860345 
L 382.251298 152.896268 
L 382.381186 153.562079 
L 382.44613 83.935289 
L 382.511074 84.956032 
L 383.745008 102.53089 
L 384.978942 117.064579 
L 386.212876 129.083346 
L 387.44681 139.022375 
L 388.226137 144.393478 
L 388.291081 74.857918 
L 388.356025 75.968982 
L 389.589959 95.098967 
L 390.823893 110.918683 
L 392.057827 124.000941 
L 393.291761 134.819434 
L 394.525695 143.765885 
L 394.720527 145.029484 
L 394.785471 75.487596 
L 394.850414 76.592395 
L 396.084349 95.614504 
L 397.318283 111.34501 
L 398.487273 123.728705 
L 398.487273 123.728705 
" style="fill:none;stroke:#9a72ac;stroke-linecap:round;stroke-width:1.5;"/>
   </g>
   <g id="line2d_11">
    <path clip-path="url(#p3f9e6f0097)" d="M 73.832727 108.093129 
L 398.487273 108.093129 
L 398.487273 108.093129 
" style="fill:none;stroke:#cf5044;stroke-linecap:round;stroke-width:1.5;"/>
   </g>
   <g id="patch_3">
    <path d="M 57.6 162.432 
L 57.6 41.472 
" style="fill:none;stroke:#ffffff;stroke-linecap:square;stroke-linejoin:miter;stroke-width:0.8;"/>
   </g>
   <g id="patch_4">
    <path d="M 414.72 162.432 
L 414.72 41.472 
" style="fill:none;stroke:#ffffff;stroke-linecap:square;stroke-linejoin:miter;stroke-width:0.8;"/>
   </g>
   <g id="patch_5">
    <path d="M 57.6 162.432 
L 414.72 162.432 
" style="fill:none;stroke:#ffffff;stroke-linecap:square;stroke-linejoin:miter;stroke-width:0.8;"/>
   </g>
   <g id="patch_6">
    <path d="M 57.6 41.472 
L 414.72 41.472 
" style="fill:none;stroke:#ffffff;stroke-linecap:square;stroke-linejoin:miter;stroke-width:0.8;"/>
   </g>
   <g id="legend_1">
    <g id="line2d_12">
     <path d="M 371.72 54.218875 
L 391.72 54.218875 
" style="fill:none;stroke:#9a72ac;stroke-linecap:round;stroke-width:1.5;"/>
    </g>
    <g id="line2d_13"/>
    <g id="text_10">
     <!-- $\hat{x}$ -->
     <g style="fill:#ffffff;" transform="translate(399.72 57.718875)scale(0.1 -0.1)">
      <defs>
       <path d="M -28.609375 79.984375 
L -21.390625 79.984375 
L -9.421875 61.625 
L -16.21875 61.625 
L -25 73.578125 
L -33.796875 61.625 
L -40.578125 61.625 
z
M -25 56 
z
" id="DejaVuSans-770"/>
       <path d="M 60.015625 54.6875 
L 34.90625 27.875 
L 50.296875 0 
L 39.984375 0 
L 28.421875 21.6875 
L 8.296875 0 
L -2.59375 0 
L 24.3125 28.8125 
L 10.015625 54.6875 
L 20.3125 54.6875 
L 30.8125 34.90625 
L 49.125 54.6875 
z
" id="DejaVuSans-Oblique-120"/>
      </defs>
      <use transform="translate(62.373047 12.015625)" xlink:href="#DejaVuSans-770"/>
      <use transform="translate(0 0.828125)" xlink:href="#DejaVuSans-Oblique-120"/>
     </g>
    </g>
    <g id="line2d_14">
     <path d="M 371.72 68.54075 
L 391.72 68.54075 
" style="fill:none;stroke:#cf5044;stroke-linecap:round;stroke-width:1.5;"/>
    </g>
    <g id="line2d_15"/>
    <g id="text_11">
     <!-- x -->
     <g style="fill:#ffffff;" transform="translate(399.72 72.04075)scale(0.1 -0.1)">
      <defs>
       <path d="M 39.109375 0 
L 24.90625 21.6875 
L 10.59375 0 
L 1.125 0 
L 19.921875 27.15625 
L 2 52.828125 
L 11.71875 52.828125 
L 24.90625 32.28125 
L 37.984375 52.828125 
L 47.796875 52.828125 
L 29.890625 27.25 
L 48.921875 0 
z
" id="LiberationSans-120"/>
      </defs>
      <use xlink:href="#LiberationSans-120"/>
     </g>
    </g>
   </g>
  </g>
  <g id="axes_2">
   <g id="patch_7">
    <path d="M 57.6 307.584 
L 414.72 307.584 
L 414.72 186.624 
L 57.6 186.624 
z
" style="fill:#1a1a1a;"/>
   </g>
   <g id="matplotlib.axis_3">
    <g id="xtick_7">
     <g id="line2d_16">
      <g>
       <use style="fill:#ffffff;stroke:#ffffff;stroke-width:0.8;" x="73.832727" xlink:href="#mb271416456" y="307.584"/>
      </g>
     </g>
     <g id="text_12">
      <!-- 0 -->
      <g style="fill:#ffffff;" transform="translate(71.052259 321.830875)scale(0.1 -0.1)">
       <use xlink:href="#LiberationSans-48"/>
      </g>
     </g>
    </g>
    <g id="xtick_8">
     <g id="line2d_17">
      <g>
       <use style="fill:#ffffff;stroke:#ffffff;stroke-width:0.8;" x="138.776625" xlink:href="#mb271416456" y="307.584"/>
      </g>
     </g>
     <g id="text_13">
      <!-- 200 -->
      <g style="fill:#ffffff;" transform="translate(130.435219 321.830875)scale(0.1 -0.1)">
       <use xlink:href="#LiberationSans-50"/>
       <use x="55.615234" xlink:href="#LiberationSans-48"/>
       <use x="111.230469" xlink:href="#LiberationSans-48"/>
      </g>
     </g>
    </g>
    <g id="xtick_9">
     <g id="line2d_18">
      <g>
       <use style="fill:#ffffff;stroke:#ffffff;stroke-width:0.8;" x="203.720523" xlink:href="#mb271416456" y="307.584"/>
      </g>
     </g>
     <g id="text_14">
      <!-- 400 -->
      <g style="fill:#ffffff;" transform="translate(195.379117 321.830875)scale(0.1 -0.1)">
       <use xlink:href="#LiberationSans-52"/>
       <use x="55.615234" xlink:href="#LiberationSans-48"/>
       <use x="111.230469" xlink:href="#LiberationSans-48"/>
      </g>
     </g>
    </g>
    <g id="xtick_10">
     <g id="line2d_19">
      <g>
       <use style="fill:#ffffff;stroke:#ffffff;stroke-width:0.8;" x="268.664421" xlink:href="#mb271416456" y="307.584"/>
      </g>
     </g>
     <g id="text_15">
      <!-- 600 -->
      <g style="fill:#ffffff;" transform="translate(260.323015 321.830875)scale(0.1 -0.1)">
       <use xlink:href="#LiberationSans-54"/>
       <use x="55.615234" xlink:href="#LiberationSans-48"/>
       <use x="111.230469" xlink:href="#LiberationSans-48"/>
      </g>
     </g>
    </g>
    <g id="xtick_11">
     <g id="line2d_20">
      <g>
       <use style="fill:#ffffff;stroke:#ffffff;stroke-width:0.8;" x="333.608319" xlink:href="#mb271416456" y="307.584"/>
      </g>
     </g>
     <g id="text_16">
      <!-- 800 -->
      <g style="fill:#ffffff;" transform="translate(325.266913 321.830875)scale(0.1 -0.1)">
       <use xlink:href="#LiberationSans-56"/>
       <use x="55.615234" xlink:href="#LiberationSans-48"/>
       <use x="111.230469" xlink:href="#LiberationSans-48"/>
      </g>
     </g>
    </g>
    <g id="xtick_12">
     <g id="line2d_21">
      <g>
       <use style="fill:#ffffff;stroke:#ffffff;stroke-width:0.8;" x="398.552217" xlink:href="#mb271416456" y="307.584"/>
      </g>
     </g>
     <g id="text_17">
      <!-- 1000 -->
      <g style="fill:#ffffff;" transform="translate(387.430342 321.830875)scale(0.1 -0.1)">
       <use xlink:href="#LiberationSans-49"/>
       <use x="55.615234" xlink:href="#LiberationSans-48"/>
       <use x="111.230469" xlink:href="#LiberationSans-48"/>
       <use x="166.845703" xlink:href="#LiberationSans-48"/>
      </g>
     </g>
    </g>
    <g id="text_18">
     <!-- $t$ (ms) -->
     <g style="fill:#ffffff;" transform="translate(222.81 335.205875)scale(0.1 -0.1)">
      <defs>
       <path d="M 42.28125 54.6875 
L 40.921875 47.703125 
L 23 47.703125 
L 17.1875 18.015625 
Q 16.890625 16.359375 16.75 15.234375 
Q 16.609375 14.109375 16.609375 13.484375 
Q 16.609375 10.359375 18.484375 8.9375 
Q 20.359375 7.515625 24.515625 7.515625 
L 33.59375 7.515625 
L 32.078125 0 
L 23.484375 0 
Q 15.484375 0 11.546875 3.125 
Q 7.625 6.25 7.625 12.59375 
Q 7.625 13.71875 7.765625 15.0625 
Q 7.90625 16.40625 8.203125 18.015625 
L 14.015625 47.703125 
L 6.390625 47.703125 
L 7.8125 54.6875 
L 15.28125 54.6875 
L 18.3125 70.21875 
L 27.296875 70.21875 
L 24.3125 54.6875 
z
" id="DejaVuSans-Oblique-116"/>
       <path id="LiberationSans-32"/>
       <path d="M 6.203125 25.984375 
Q 6.203125 32.765625 7.21875 38.96875 
Q 8.25 45.171875 10.4375 50.875 
Q 12.640625 56.59375 16.0625 61.953125 
Q 19.484375 67.328125 24.21875 72.46875 
L 32.71875 72.46875 
Q 28.125 67.328125 24.78125 61.9375 
Q 21.4375 56.546875 19.28125 50.796875 
Q 17.140625 45.0625 16.09375 38.859375 
Q 15.046875 32.671875 15.046875 25.875 
Q 15.046875 19.09375 16.09375 12.890625 
Q 17.140625 6.6875 19.28125 0.921875 
Q 21.4375 -4.828125 24.78125 -10.203125 
Q 28.125 -15.578125 32.71875 -20.703125 
L 24.21875 -20.703125 
Q 19.484375 -15.578125 16.0625 -10.203125 
Q 12.640625 -4.828125 10.4375 0.875 
Q 8.25 6.59375 7.21875 12.765625 
Q 6.203125 18.953125 6.203125 25.78125 
z
" id="LiberationSans-40"/>
       <path d="M 37.5 0 
L 37.5 33.5 
Q 37.5 37.359375 37.015625 39.9375 
Q 36.53125 42.53125 35.375 44.109375 
Q 34.234375 45.703125 32.375 46.359375 
Q 30.515625 47.015625 27.828125 47.015625 
Q 25.046875 47.015625 22.796875 45.921875 
Q 20.5625 44.828125 18.96875 42.75 
Q 17.390625 40.671875 16.53125 37.625 
Q 15.671875 34.578125 15.671875 30.609375 
L 15.671875 0 
L 6.9375 0 
L 6.9375 41.546875 
Q 6.9375 43.21875 6.90625 45.046875 
Q 6.890625 46.875 6.828125 48.5 
Q 6.78125 50.140625 6.734375 51.3125 
Q 6.6875 52.484375 6.640625 52.828125 
L 14.9375 52.828125 
Q 14.984375 52.59375 15.03125 51.515625 
Q 15.09375 50.4375 15.15625 49.046875 
Q 15.234375 47.65625 15.28125 46.21875 
Q 15.328125 44.78125 15.328125 43.796875 
L 15.484375 43.796875 
Q 16.65625 46.09375 18.015625 47.953125 
Q 19.390625 49.8125 21.21875 51.09375 
Q 23.046875 52.390625 25.40625 53.09375 
Q 27.78125 53.8125 30.90625 53.8125 
Q 36.921875 53.8125 40.40625 51.421875 
Q 43.890625 49.03125 45.265625 43.796875 
L 45.40625 43.796875 
Q 46.578125 46.09375 48.046875 47.953125 
Q 49.515625 49.8125 51.46875 51.09375 
Q 53.421875 52.390625 55.859375 53.09375 
Q 58.296875 53.8125 61.421875 53.8125 
Q 65.4375 53.8125 68.328125 52.734375 
Q 71.234375 51.65625 73.09375 49.40625 
Q 74.953125 47.171875 75.828125 43.625 
Q 76.703125 40.09375 76.703125 35.203125 
L 76.703125 0 
L 68.015625 0 
L 68.015625 33.5 
Q 68.015625 37.359375 67.53125 39.9375 
Q 67.046875 42.53125 65.890625 44.109375 
Q 64.75 45.703125 62.890625 46.359375 
Q 61.03125 47.015625 58.34375 47.015625 
Q 55.5625 47.015625 53.3125 45.96875 
Q 51.078125 44.921875 49.484375 42.875 
Q 47.90625 40.828125 47.046875 37.75 
Q 46.1875 34.671875 46.1875 30.609375 
L 46.1875 0 
z
" id="LiberationSans-109"/>
       <path d="M 46.390625 14.59375 
Q 46.390625 10.890625 44.9375 7.984375 
Q 43.5 5.078125 40.765625 3.09375 
Q 38.03125 1.125 34.046875 0.0625 
Q 30.078125 -0.984375 24.953125 -0.984375 
Q 20.359375 -0.984375 16.671875 -0.265625 
Q 12.984375 0.4375 10.203125 2 
Q 7.421875 3.5625 5.53125 6.125 
Q 3.65625 8.6875 2.78125 12.40625 
L 10.546875 13.921875 
Q 11.671875 9.671875 15.1875 7.6875 
Q 18.703125 5.71875 24.953125 5.71875 
Q 27.78125 5.71875 30.140625 6.109375 
Q 32.515625 6.5 34.21875 7.453125 
Q 35.9375 8.40625 36.890625 9.984375 
Q 37.84375 11.578125 37.84375 13.921875 
Q 37.84375 16.3125 36.71875 17.84375 
Q 35.59375 19.390625 33.59375 20.40625 
Q 31.59375 21.4375 28.734375 22.1875 
Q 25.875 22.953125 22.46875 23.875 
Q 19.28125 24.703125 16.15625 25.734375 
Q 13.03125 26.765625 10.515625 28.4375 
Q 8.015625 30.125 6.453125 32.609375 
Q 4.890625 35.109375 4.890625 38.875 
Q 4.890625 46.09375 10.03125 49.875 
Q 15.1875 53.65625 25.046875 53.65625 
Q 33.796875 53.65625 38.9375 50.578125 
Q 44.09375 47.515625 45.453125 40.71875 
L 37.546875 39.75 
Q 37.109375 41.796875 35.9375 43.1875 
Q 34.765625 44.578125 33.109375 45.4375 
Q 31.453125 46.296875 29.375 46.65625 
Q 27.296875 47.015625 25.046875 47.015625 
Q 19.09375 47.015625 16.25 45.203125 
Q 13.421875 43.40625 13.421875 39.75 
Q 13.421875 37.59375 14.46875 36.203125 
Q 15.53125 34.8125 17.40625 33.859375 
Q 19.28125 32.90625 21.921875 32.203125 
Q 24.5625 31.5 27.734375 30.71875 
Q 29.828125 30.171875 32.03125 29.5625 
Q 34.234375 28.953125 36.296875 28.09375 
Q 38.375 27.25 40.203125 26.09375 
Q 42.046875 24.953125 43.40625 23.34375 
Q 44.78125 21.734375 45.578125 19.578125 
Q 46.390625 17.4375 46.390625 14.59375 
z
" id="LiberationSans-115"/>
       <path d="M 27.09375 25.78125 
Q 27.09375 18.953125 26.0625 12.765625 
Q 25.046875 6.59375 22.84375 0.875 
Q 20.65625 -4.828125 17.234375 -10.203125 
Q 13.8125 -15.578125 9.078125 -20.703125 
L 0.59375 -20.703125 
Q 5.171875 -15.578125 8.515625 -10.203125 
Q 11.859375 -4.828125 14 0.921875 
Q 16.15625 6.6875 17.203125 12.890625 
Q 18.265625 19.09375 18.265625 25.875 
Q 18.265625 32.671875 17.203125 38.859375 
Q 16.15625 45.0625 14 50.796875 
Q 11.859375 56.546875 8.515625 61.9375 
Q 5.171875 67.328125 0.59375 72.46875 
L 9.078125 72.46875 
Q 13.8125 67.328125 17.234375 61.953125 
Q 20.65625 56.59375 22.84375 50.875 
Q 25.046875 45.171875 26.0625 38.96875 
Q 27.09375 32.765625 27.09375 25.984375 
z
" id="LiberationSans-41"/>
      </defs>
      <use transform="translate(0 0.53125)" xlink:href="#DejaVuSans-Oblique-116"/>
      <use transform="translate(39.208984 0.53125)" xlink:href="#LiberationSans-32"/>
      <use transform="translate(66.992188 0.53125)" xlink:href="#LiberationSans-40"/>
      <use transform="translate(100.292969 0.53125)" xlink:href="#LiberationSans-109"/>
      <use transform="translate(183.59375 0.53125)" xlink:href="#LiberationSans-115"/>
      <use transform="translate(233.59375 0.53125)" xlink:href="#LiberationSans-41"/>
     </g>
    </g>
   </g>
   <g id="matplotlib.axis_4">
    <g id="ytick_4">
     <g id="line2d_22">
      <g>
       <use style="fill:#ffffff;stroke:#ffffff;stroke-width:0.8;" x="57.6" xlink:href="#m5c87e6fa77" y="290.368443"/>
      </g>
     </g>
     <g id="text_19">
      <!-- 0.0 -->
      <g style="fill:#ffffff;" transform="translate(36.7 293.991881)scale(0.1 -0.1)">
       <use xlink:href="#LiberationSans-48"/>
       <use x="55.615234" xlink:href="#LiberationSans-46"/>
       <use x="83.398438" xlink:href="#LiberationSans-48"/>
      </g>
     </g>
    </g>
    <g id="ytick_5">
     <g id="line2d_23">
      <g>
       <use style="fill:#ffffff;stroke:#ffffff;stroke-width:0.8;" x="57.6" xlink:href="#m5c87e6fa77" y="261.795557"/>
      </g>
     </g>
     <g id="text_20">
      <!-- 0.2 -->
      <g style="fill:#ffffff;" transform="translate(36.7 265.418994)scale(0.1 -0.1)">
       <use xlink:href="#LiberationSans-48"/>
       <use x="55.615234" xlink:href="#LiberationSans-46"/>
       <use x="83.398438" xlink:href="#LiberationSans-50"/>
      </g>
     </g>
    </g>
    <g id="ytick_6">
     <g id="line2d_24">
      <g>
       <use style="fill:#ffffff;stroke:#ffffff;stroke-width:0.8;" x="57.6" xlink:href="#m5c87e6fa77" y="233.22267"/>
      </g>
     </g>
     <g id="text_21">
      <!-- 0.4 -->
      <g style="fill:#ffffff;" transform="translate(36.7 236.846108)scale(0.1 -0.1)">
       <use xlink:href="#LiberationSans-48"/>
       <use x="55.615234" xlink:href="#LiberationSans-46"/>
       <use x="83.398438" xlink:href="#LiberationSans-52"/>
      </g>
     </g>
    </g>
    <g id="ytick_7">
     <g id="line2d_25">
      <g>
       <use style="fill:#ffffff;stroke:#ffffff;stroke-width:0.8;" x="57.6" xlink:href="#m5c87e6fa77" y="204.649784"/>
      </g>
     </g>
     <g id="text_22">
      <!-- 0.6 -->
      <g style="fill:#ffffff;" transform="translate(36.7 208.273221)scale(0.1 -0.1)">
       <use xlink:href="#LiberationSans-48"/>
       <use x="55.615234" xlink:href="#LiberationSans-46"/>
       <use x="83.398438" xlink:href="#LiberationSans-54"/>
      </g>
     </g>
    </g>
   </g>
   <g id="line2d_26">
    <path clip-path="url(#p84b7916072)" d="M 73.832727 295.20583 
L 73.897671 301.03145 
L 73.962615 300.925352 
L 75.326437 298.925707 
L 76.690259 297.304826 
L 78.119025 295.935021 
L 79.677678 294.747269 
L 80.846668 294.025946 
L 80.911612 299.863306 
L 80.976556 299.768831 
L 82.340378 297.988249 
L 83.769144 296.483481 
L 85.262853 295.227046 
L 86.886451 294.152327 
L 88.445104 293.344952 
L 88.510048 299.189088 
L 88.574992 299.101321 
L 89.938814 297.447177 
L 91.36758 296.04926 
L 92.926233 294.837132 
L 93.380841 294.535021 
L 93.445784 300.367316 
L 93.510728 300.267826 
L 94.87455 298.392727 
L 96.303316 296.808082 
L 97.797026 295.484952 
L 99.420623 294.353185 
L 99.680399 294.196941 
L 99.745343 300.0326 
L 99.810286 299.93644 
L 101.174108 298.12411 
L 102.602874 296.592512 
L 104.096584 295.313675 
L 104.551191 294.979347 
L 104.616135 300.807221 
L 104.681079 300.703353 
L 106.044901 298.745759 
L 107.473666 297.091396 
L 108.967376 295.710055 
L 110.52603 294.570304 
L 110.590973 294.528495 
L 110.655917 300.360855 
L 110.720861 300.261429 
L 112.084683 298.387542 
L 113.513449 296.80392 
L 115.007159 295.481646 
L 116.630756 294.35061 
L 116.6957 294.310986 
L 116.760644 300.145511 
L 116.825588 300.048227 
L 118.18941 298.214724 
L 119.618175 296.665231 
L 121.111885 295.371453 
L 122.735482 294.264791 
L 122.800426 300.099775 
L 122.86537 300.002947 
L 124.229192 298.17802 
L 125.657958 296.635775 
L 126.047621 296.270794 
L 126.112565 302.085818 
L 126.177509 301.969228 
L 127.476387 299.866363 
L 128.840209 298.067307 
L 130.268975 296.546926 
L 131.762684 295.277456 
L 133.386282 294.191586 
L 133.775945 293.968944 
L 133.840889 299.806871 
L 133.905833 299.712957 
L 135.269655 297.942959 
L 136.69842 296.447135 
L 138.19213 295.198168 
L 139.815728 294.129837 
L 140.465166 293.771893 
L 140.53011 299.611781 
L 140.595054 299.519808 
L 141.958876 297.786396 
L 143.387642 296.32149 
L 144.881352 295.098339 
L 146.504949 294.052089 
L 146.634837 293.979148 
L 146.699781 299.816975 
L 146.764725 299.72296 
L 148.128546 297.951067 
L 149.557312 296.453642 
L 151.051022 295.203338 
L 151.505629 294.876469 
L 151.570573 300.705367 
L 151.635517 300.602513 
L 152.999339 298.664019 
L 154.428105 297.025799 
L 155.921814 295.657936 
L 157.480468 294.529305 
L 159.169009 293.576683 
L 159.233953 293.54476 
L 159.298897 299.386909 
L 159.363841 299.297173 
L 160.727663 297.605931 
L 162.156428 296.176663 
L 163.715082 294.937351 
L 165.338679 293.926712 
L 167.157109 293.057725 
L 167.546772 292.901114 
L 167.611716 298.749666 
L 167.67666 298.666272 
L 169.105425 297.027607 
L 170.599135 295.659372 
L 171.898013 294.70029 
L 171.962957 300.53094 
L 172.027901 300.429822 
L 173.391723 298.524038 
L 174.820488 296.913462 
L 176.314198 295.56868 
L 177.872852 294.459095 
L 178.84701 293.8893 
L 178.911954 299.72802 
L 178.976898 299.63489 
L 180.34072 297.879679 
L 181.769486 296.396351 
L 183.263195 295.157819 
L 184.886793 294.098413 
L 185.211512 293.9165 
L 185.276456 299.75495 
L 185.3414 299.661552 
L 186.705222 297.901291 
L 188.133988 296.413695 
L 189.627697 295.171599 
L 191.251295 294.109145 
L 191.576014 293.926709 
L 191.640958 299.765057 
L 191.705902 299.671559 
L 193.069724 297.909402 
L 194.49849 296.420205 
L 195.992199 295.176771 
L 197.615797 294.113173 
L 199.369282 293.227093 
L 199.629057 293.115004 
L 199.694001 298.961428 
L 199.758945 298.875927 
L 201.187711 297.195859 
L 202.681421 295.793054 
L 203.460747 295.179642 
L 203.525691 301.005523 
L 203.590635 300.899682 
L 204.954457 298.904899 
L 206.383223 297.21911 
L 207.876932 295.811528 
L 209.435586 294.650125 
L 209.50053 294.607522 
L 209.565474 300.439096 
L 209.630418 300.338891 
L 210.99424 298.450331 
L 212.423005 296.85431 
L 213.916715 295.521683 
L 215.475369 294.422125 
L 215.540312 300.255543 
L 215.605256 300.157165 
L 216.969078 298.303027 
L 218.397844 296.736096 
L 219.891554 295.427757 
L 221.515151 294.308641 
L 221.969758 294.042259 
L 222.034702 299.879457 
L 222.099646 299.784821 
L 223.463468 298.001211 
L 224.892234 296.493883 
L 226.385943 295.235311 
L 228.009541 294.158764 
L 229.308419 293.471695 
L 229.373363 299.314571 
L 229.438307 299.225555 
L 230.802128 297.547879 
L 232.230894 296.130075 
L 233.724604 294.946253 
L 233.789548 300.774457 
L 233.854492 300.670915 
L 235.218313 298.719465 
L 236.647079 297.070295 
L 238.140789 295.69329 
L 239.699442 294.557116 
L 240.413825 294.120799 
L 240.478769 299.957216 
L 240.543713 299.861806 
L 241.907535 298.063614 
L 243.336301 296.543962 
L 244.83001 295.275101 
L 246.453608 294.189752 
L 248.077205 293.344481 
L 248.142149 299.188623 
L 248.207093 299.10086 
L 249.570915 297.446803 
L 250.999681 296.04896 
L 251.64912 295.508387 
L 251.714064 301.330997 
L 251.779007 301.221918 
L 253.142829 299.166099 
L 254.506651 297.499684 
L 255.935417 296.091398 
L 256.6498 295.495262 
L 256.714744 301.318002 
L 256.779688 301.209052 
L 258.143509 299.15567 
L 259.507331 297.491231 
L 260.936097 296.084614 
L 261.715424 295.438232 
L 261.780368 301.26154 
L 261.845312 301.153152 
L 263.209133 299.110358 
L 264.572955 297.454502 
L 266.001721 296.055139 
L 267.560375 294.841756 
L 269.248916 293.817598 
L 270.937457 293.02792 
L 271.002401 298.875211 
L 271.067345 298.790567 
L 272.496111 297.127356 
L 273.989821 295.738627 
L 274.054764 295.685192 
L 274.119708 301.506043 
L 274.184652 301.395222 
L 275.548474 299.306577 
L 276.912296 297.613553 
L 278.341062 296.18278 
L 279.899715 294.942163 
L 281.523313 293.93046 
L 282.497471 293.434299 
L 282.562415 299.277547 
L 282.627359 299.1889 
L 283.991181 297.518166 
L 285.419947 296.10623 
L 286.9786 294.881947 
L 288.667141 293.848587 
L 289.771188 293.304518 
L 289.836132 299.149057 
L 289.901075 299.061688 
L 291.264897 297.415051 
L 292.693663 296.023478 
L 294.252317 294.816851 
L 295.940858 293.798396 
L 297.759287 292.960745 
L 297.824231 298.808705 
L 297.889175 298.724723 
L 299.317941 297.074515 
L 300.81165 295.696642 
L 302.240416 294.644423 
L 302.30536 300.47563 
L 302.370304 300.375062 
L 303.734126 298.47965 
L 305.162891 296.87784 
L 306.656601 295.540377 
L 308.215255 294.436831 
L 309.838852 293.536907 
L 309.903796 299.379133 
L 309.96874 299.289475 
L 311.332562 297.599691 
L 312.761328 296.171656 
L 314.319981 294.933412 
L 315.359083 294.258453 
L 315.424027 300.0935 
L 315.488971 299.996734 
L 316.852793 298.172984 
L 318.281559 296.631734 
L 319.775269 295.344838 
L 320.944259 294.525078 
L 321.009203 300.357472 
L 321.074146 300.258079 
L 322.437968 298.384827 
L 323.866734 296.801742 
L 325.360444 295.479915 
L 325.944939 295.039977 
L 326.009883 300.867247 
L 326.074827 300.762783 
L 327.438648 298.793931 
L 328.867414 297.130056 
L 330.361124 295.740771 
L 331.660002 294.766934 
L 331.724946 300.596921 
L 331.78989 300.495146 
L 333.153711 298.576989 
L 334.582477 296.955956 
L 336.076187 295.602443 
L 337.180233 294.784185 
L 337.245177 300.614001 
L 337.310121 300.512056 
L 338.673943 298.590696 
L 340.102709 296.966956 
L 341.596418 295.611183 
L 343.155072 294.492528 
L 343.414847 294.330821 
L 343.479791 300.165148 
L 343.544735 300.067669 
L 344.908557 298.230483 
L 346.337323 296.677878 
L 347.11665 295.96441 
L 347.181593 301.782482 
L 347.246537 301.668911 
L 348.610359 299.528424 
L 349.844293 297.943373 
L 349.909237 192.122182 
L 349.974181 193.099748 
L 351.208115 209.931208 
L 352.442049 223.850137 
L 353.675983 235.360522 
L 354.909917 244.87914 
L 356.143851 252.750649 
L 356.988122 257.33643 
L 357.11801 263.805816 
L 358.351944 268.402236 
L 359.650822 272.384034 
L 360.9497 275.644054 
L 362.248578 278.313133 
L 362.638241 279.01518 
L 362.768129 285.055298 
L 364.326782 286.188975 
L 366.015324 287.145858 
L 366.210155 287.2411 
L 366.275099 293.14597 
L 366.340043 293.118334 
L 368.353304 292.385342 
L 370.691284 291.775586 
L 373.483872 291.283802 
L 374.717806 291.125408 
L 374.78275 296.991629 
L 374.847694 296.925727 
L 376.341404 295.578426 
L 377.900057 294.466761 
L 379.588598 293.528457 
L 381.471971 292.732967 
L 382.381186 292.424061 
L 382.44613 298.277361 
L 382.511074 298.198666 
L 383.93984 296.652344 
L 385.433549 295.361214 
L 387.057147 294.256817 
L 388.226137 293.616286 
L 388.291081 299.457723 
L 388.356025 299.367283 
L 389.719847 297.662761 
L 391.148612 296.22227 
L 392.707266 294.973227 
L 394.330863 293.954652 
L 394.720527 293.745808 
L 394.785471 299.585956 
L 394.850414 299.49424 
L 396.214236 297.76567 
L 397.643002 296.304857 
L 398.487273 295.581181 
L 398.487273 295.581181 
" style="fill:none;stroke:#9a72ac;stroke-linecap:round;stroke-width:1.5;"/>
   </g>
   <g id="line2d_27">
    <path clip-path="url(#p84b7916072)" d="M 73.832727 290.368443 
L 398.487273 290.368443 
L 398.487273 290.368443 
" style="fill:none;stroke:#cf5044;stroke-linecap:round;stroke-width:1.5;"/>
   </g>
   <g id="patch_8">
    <path d="M 57.6 307.584 
L 57.6 186.624 
" style="fill:none;stroke:#ffffff;stroke-linecap:square;stroke-linejoin:miter;stroke-width:0.8;"/>
   </g>
   <g id="patch_9">
    <path d="M 414.72 307.584 
L 414.72 186.624 
" style="fill:none;stroke:#ffffff;stroke-linecap:square;stroke-linejoin:miter;stroke-width:0.8;"/>
   </g>
   <g id="patch_10">
    <path d="M 57.6 307.584 
L 414.72 307.584 
" style="fill:none;stroke:#ffffff;stroke-linecap:square;stroke-linejoin:miter;stroke-width:0.8;"/>
   </g>
   <g id="patch_11">
    <path d="M 57.6 186.624 
L 414.72 186.624 
" style="fill:none;stroke:#ffffff;stroke-linecap:square;stroke-linejoin:miter;stroke-width:0.8;"/>
   </g>
   <g id="legend_2">
    <g id="line2d_28">
     <path d="M 371.72 199.370875 
L 391.72 199.370875 
" style="fill:none;stroke:#9a72ac;stroke-linecap:round;stroke-width:1.5;"/>
    </g>
    <g id="line2d_29"/>
    <g id="text_23">
     <!-- $\hat{x}$ -->
     <g style="fill:#ffffff;" transform="translate(399.72 202.870875)scale(0.1 -0.1)">
      <use transform="translate(62.373047 12.015625)" xlink:href="#DejaVuSans-770"/>
      <use transform="translate(0 0.828125)" xlink:href="#DejaVuSans-Oblique-120"/>
     </g>
    </g>
    <g id="line2d_30">
     <path d="M 371.72 213.69275 
L 391.72 213.69275 
" style="fill:none;stroke:#cf5044;stroke-linecap:round;stroke-width:1.5;"/>
    </g>
    <g id="line2d_31"/>
    <g id="text_24">
     <!-- x -->
     <g style="fill:#ffffff;" transform="translate(399.72 217.19275)scale(0.1 -0.1)">
      <use xlink:href="#LiberationSans-120"/>
     </g>
    </g>
   </g>
  </g>
  <g id="text_25">
   <!-- Egomotion input/decoding -->
   <g style="fill:#ffffff;" transform="translate(161.02125 15.60825)scale(0.12 -0.12)">
    <defs>
     <path d="M 8.203125 0 
L 8.203125 68.796875 
L 60.40625 68.796875 
L 60.40625 61.1875 
L 17.53125 61.1875 
L 17.53125 39.109375 
L 57.46875 39.109375 
L 57.46875 31.59375 
L 17.53125 31.59375 
L 17.53125 7.625 
L 62.40625 7.625 
L 62.40625 0 
z
" id="LiberationSans-69"/>
     <path d="M 26.765625 -20.75 
Q 22.21875 -20.75 18.703125 -19.8125 
Q 15.1875 -18.890625 12.6875 -17.15625 
Q 10.203125 -15.4375 8.640625 -13.03125 
Q 7.078125 -10.640625 6.390625 -7.71875 
L 15.234375 -6.453125 
Q 16.109375 -10.109375 19.109375 -12.078125 
Q 22.125 -14.0625 27 -14.0625 
Q 29.984375 -14.0625 32.421875 -13.234375 
Q 34.859375 -12.40625 36.5625 -10.5625 
Q 38.28125 -8.734375 39.203125 -5.796875 
Q 40.140625 -2.875 40.140625 1.3125 
L 40.140625 9.8125 
L 40.046875 9.8125 
Q 39.0625 7.8125 37.625 5.984375 
Q 36.1875 4.15625 34.109375 2.734375 
Q 32.03125 1.3125 29.296875 0.453125 
Q 26.5625 -0.390625 23.046875 -0.390625 
Q 18.015625 -0.390625 14.421875 1.296875 
Q 10.84375 2.984375 8.5625 6.34375 
Q 6.296875 9.71875 5.25 14.71875 
Q 4.203125 19.734375 4.203125 26.3125 
Q 4.203125 32.671875 5.25 37.75 
Q 6.296875 42.828125 8.65625 46.359375 
Q 11.03125 49.90625 14.8125 51.78125 
Q 18.609375 53.65625 24.03125 53.65625 
Q 29.640625 53.65625 33.765625 51.09375 
Q 37.890625 48.53125 40.140625 43.796875 
L 40.234375 43.796875 
Q 40.234375 45.015625 40.296875 46.53125 
Q 40.375 48.046875 40.453125 49.390625 
Q 40.53125 50.734375 40.625 51.703125 
Q 40.71875 52.6875 40.828125 52.828125 
L 49.171875 52.828125 
Q 49.125 52.390625 49.078125 51.34375 
Q 49.03125 50.296875 48.96875 48.828125 
Q 48.921875 47.359375 48.890625 45.578125 
Q 48.875 43.796875 48.875 41.890625 
L 48.875 1.515625 
Q 48.875 -9.578125 43.421875 -15.15625 
Q 37.984375 -20.75 26.765625 -20.75 
z
M 40.140625 26.421875 
Q 40.140625 31.9375 38.9375 35.859375 
Q 37.75 39.796875 35.796875 42.28125 
Q 33.84375 44.78125 31.328125 45.953125 
Q 28.8125 47.125 26.171875 47.125 
Q 22.796875 47.125 20.375 45.953125 
Q 17.96875 44.78125 16.375 42.265625 
Q 14.796875 39.75 14.03125 35.8125 
Q 13.28125 31.890625 13.28125 26.421875 
Q 13.28125 20.703125 14.03125 16.8125 
Q 14.796875 12.9375 16.359375 10.546875 
Q 17.921875 8.15625 20.3125 7.125 
Q 22.703125 6.109375 26.03125 6.109375 
Q 28.65625 6.109375 31.171875 7.21875 
Q 33.6875 8.34375 35.6875 10.78125 
Q 37.703125 13.234375 38.921875 17.09375 
Q 40.140625 20.953125 40.140625 26.421875 
z
" id="LiberationSans-103"/>
     <path d="M 51.421875 26.46875 
Q 51.421875 12.59375 45.3125 5.796875 
Q 39.203125 -0.984375 27.59375 -0.984375 
Q 22.078125 -0.984375 17.71875 0.671875 
Q 13.375 2.34375 10.375 5.765625 
Q 7.375 9.1875 5.78125 14.328125 
Q 4.203125 19.484375 4.203125 26.46875 
Q 4.203125 53.8125 27.875 53.8125 
Q 34.03125 53.8125 38.5 52.09375 
Q 42.96875 50.390625 45.828125 46.96875 
Q 48.6875 43.5625 50.046875 38.421875 
Q 51.421875 33.296875 51.421875 26.46875 
z
M 42.1875 26.46875 
Q 42.1875 32.625 41.234375 36.625 
Q 40.28125 40.625 38.453125 43.015625 
Q 36.625 45.40625 33.984375 46.359375 
Q 31.34375 47.3125 28.03125 47.3125 
Q 24.65625 47.3125 21.9375 46.3125 
Q 19.234375 45.3125 17.328125 42.890625 
Q 15.4375 40.484375 14.421875 36.46875 
Q 13.421875 32.46875 13.421875 26.46875 
Q 13.421875 20.3125 14.5 16.28125 
Q 15.578125 12.25 17.453125 9.859375 
Q 19.34375 7.46875 21.90625 6.484375 
Q 24.46875 5.515625 27.484375 5.515625 
Q 30.859375 5.515625 33.59375 6.46875 
Q 36.328125 7.421875 38.234375 9.8125 
Q 40.140625 12.203125 41.15625 16.25 
Q 42.1875 20.3125 42.1875 26.46875 
z
" id="LiberationSans-111"/>
     <path d="M 27.046875 0.390625 
Q 25.046875 -0.140625 22.96875 -0.453125 
Q 20.90625 -0.78125 18.171875 -0.78125 
Q 7.625 -0.78125 7.625 11.1875 
L 7.625 46.4375 
L 1.515625 46.4375 
L 1.515625 52.828125 
L 7.953125 52.828125 
L 10.546875 64.65625 
L 16.40625 64.65625 
L 16.40625 52.828125 
L 26.171875 52.828125 
L 26.171875 46.4375 
L 16.40625 46.4375 
L 16.40625 13.09375 
Q 16.40625 9.28125 17.640625 7.734375 
Q 18.890625 6.203125 21.96875 6.203125 
Q 23.25 6.203125 24.4375 6.390625 
Q 25.640625 6.59375 27.046875 6.890625 
z
" id="LiberationSans-116"/>
     <path d="M 6.6875 64.0625 
L 6.6875 72.46875 
L 15.484375 72.46875 
L 15.484375 64.0625 
z
M 6.6875 0 
L 6.6875 52.828125 
L 15.484375 52.828125 
L 15.484375 0 
z
" id="LiberationSans-105"/>
     <path d="M 40.28125 0 
L 40.28125 33.5 
Q 40.28125 37.359375 39.71875 39.9375 
Q 39.15625 42.53125 37.890625 44.109375 
Q 36.625 45.703125 34.546875 46.359375 
Q 32.46875 47.015625 29.390625 47.015625 
Q 26.265625 47.015625 23.75 45.921875 
Q 21.234375 44.828125 19.453125 42.75 
Q 17.671875 40.671875 16.6875 37.625 
Q 15.71875 34.578125 15.71875 30.609375 
L 15.71875 0 
L 6.9375 0 
L 6.9375 41.546875 
Q 6.9375 43.21875 6.90625 45.046875 
Q 6.890625 46.875 6.828125 48.5 
Q 6.78125 50.140625 6.734375 51.3125 
Q 6.6875 52.484375 6.640625 52.828125 
L 14.9375 52.828125 
Q 14.984375 52.59375 15.03125 51.515625 
Q 15.09375 50.4375 15.15625 49.046875 
Q 15.234375 47.65625 15.28125 46.21875 
Q 15.328125 44.78125 15.328125 43.796875 
L 15.484375 43.796875 
Q 16.75 46.09375 18.265625 47.953125 
Q 19.78125 49.8125 21.78125 51.09375 
Q 23.78125 52.390625 26.359375 53.09375 
Q 28.953125 53.8125 32.375 53.8125 
Q 36.765625 53.8125 39.9375 52.734375 
Q 43.109375 51.65625 45.15625 49.40625 
Q 47.21875 47.171875 48.171875 43.625 
Q 49.125 40.09375 49.125 35.203125 
L 49.125 0 
z
" id="LiberationSans-110"/>
     <path d="M 51.421875 26.65625 
Q 51.421875 20.65625 50.4375 15.578125 
Q 49.46875 10.5 47.1875 6.828125 
Q 44.921875 3.171875 41.1875 1.09375 
Q 37.453125 -0.984375 31.984375 -0.984375 
Q 26.3125 -0.984375 22.0625 1.171875 
Q 17.828125 3.328125 15.578125 8.203125 
L 15.328125 8.203125 
Q 15.375 8.109375 15.40625 7.328125 
Q 15.4375 6.546875 15.453125 5.375 
Q 15.484375 4.203125 15.5 2.75 
Q 15.53125 1.3125 15.53125 -0.09375 
L 15.53125 -20.75 
L 6.734375 -20.75 
L 6.734375 42.046875 
Q 6.734375 43.953125 6.703125 45.703125 
Q 6.6875 47.46875 6.640625 48.90625 
Q 6.59375 50.34375 6.546875 51.359375 
Q 6.5 52.390625 6.453125 52.828125 
L 14.9375 52.828125 
Q 14.984375 52.6875 15.0625 51.796875 
Q 15.140625 50.921875 15.203125 49.671875 
Q 15.28125 48.4375 15.359375 47.015625 
Q 15.4375 45.609375 15.4375 44.34375 
L 15.625 44.34375 
Q 16.84375 46.875 18.40625 48.65625 
Q 19.96875 50.4375 21.96875 51.578125 
Q 23.96875 52.734375 26.4375 53.25 
Q 28.90625 53.765625 31.984375 53.765625 
Q 37.453125 53.765625 41.1875 51.8125 
Q 44.921875 49.859375 47.1875 46.3125 
Q 49.46875 42.78125 50.4375 37.765625 
Q 51.421875 32.765625 51.421875 26.65625 
z
M 42.1875 26.46875 
Q 42.1875 31.34375 41.59375 35.15625 
Q 41.015625 38.96875 39.578125 41.59375 
Q 38.140625 44.234375 35.734375 45.59375 
Q 33.34375 46.96875 29.734375 46.96875 
Q 26.8125 46.96875 24.21875 46.140625 
Q 21.625 45.3125 19.703125 42.96875 
Q 17.78125 40.625 16.65625 36.5 
Q 15.53125 32.375 15.53125 25.78125 
Q 15.53125 20.171875 16.453125 16.28125 
Q 17.390625 12.40625 19.171875 10.015625 
Q 20.953125 7.625 23.578125 6.5625 
Q 26.21875 5.515625 29.640625 5.515625 
Q 33.296875 5.515625 35.71875 6.921875 
Q 38.140625 8.34375 39.578125 11.03125 
Q 41.015625 13.71875 41.59375 17.59375 
Q 42.1875 21.484375 42.1875 26.46875 
z
" id="LiberationSans-112"/>
     <path d="M 15.328125 52.828125 
L 15.328125 19.34375 
Q 15.328125 15.484375 15.890625 12.890625 
Q 16.453125 10.296875 17.71875 8.703125 
Q 19 7.125 21.0625 6.46875 
Q 23.140625 5.8125 26.21875 5.8125 
Q 29.34375 5.8125 31.859375 6.90625 
Q 34.375 8.015625 36.15625 10.078125 
Q 37.9375 12.15625 38.90625 15.203125 
Q 39.890625 18.265625 39.890625 22.21875 
L 39.890625 52.828125 
L 48.6875 52.828125 
L 48.6875 11.28125 
Q 48.6875 9.625 48.703125 7.78125 
Q 48.734375 5.953125 48.78125 4.3125 
Q 48.828125 2.6875 48.875 1.515625 
Q 48.921875 0.34375 48.96875 0 
L 40.671875 0 
Q 40.625 0.25 40.578125 1.3125 
Q 40.53125 2.390625 40.453125 3.78125 
Q 40.375 5.171875 40.328125 6.609375 
Q 40.28125 8.0625 40.28125 9.03125 
L 40.140625 9.03125 
Q 38.875 6.734375 37.359375 4.875 
Q 35.84375 3.03125 33.84375 1.734375 
Q 31.84375 0.4375 29.25 -0.265625 
Q 26.65625 -0.984375 23.25 -0.984375 
Q 18.84375 -0.984375 15.671875 0.09375 
Q 12.5 1.171875 10.453125 3.421875 
Q 8.40625 5.671875 7.453125 9.1875 
Q 6.5 12.703125 6.5 17.625 
L 6.5 52.828125 
z
" id="LiberationSans-117"/>
     <path d="M 0 -0.984375 
L 20.0625 72.46875 
L 27.78125 72.46875 
L 7.90625 -0.984375 
z
" id="LiberationSans-47"/>
     <path d="M 40.09375 8.5 
Q 37.640625 3.421875 33.609375 1.21875 
Q 29.59375 -0.984375 23.640625 -0.984375 
Q 13.625 -0.984375 8.90625 5.75 
Q 4.203125 12.5 4.203125 26.171875 
Q 4.203125 53.8125 23.640625 53.8125 
Q 29.640625 53.8125 33.640625 51.609375 
Q 37.640625 49.421875 40.09375 44.625 
L 40.1875 44.625 
Q 40.1875 45.125 40.15625 46.171875 
Q 40.140625 47.21875 40.109375 48.359375 
Q 40.09375 49.515625 40.09375 50.53125 
Q 40.09375 51.5625 40.09375 52 
L 40.09375 72.46875 
L 48.875 72.46875 
L 48.875 10.890625 
Q 48.875 8.984375 48.890625 7.21875 
Q 48.921875 5.46875 48.96875 4 
Q 49.03125 2.546875 49.078125 1.484375 
Q 49.125 0.4375 49.171875 0 
L 40.765625 0 
Q 40.671875 0.484375 40.59375 1.390625 
Q 40.53125 2.296875 40.453125 3.46875 
Q 40.375 4.640625 40.328125 5.9375 
Q 40.28125 7.234375 40.28125 8.5 
z
M 13.421875 26.46875 
Q 13.421875 21 14.109375 17.09375 
Q 14.796875 13.1875 16.3125 10.671875 
Q 17.828125 8.15625 20.171875 6.984375 
Q 22.515625 5.8125 25.875 5.8125 
Q 29.34375 5.8125 32 6.9375 
Q 34.671875 8.0625 36.453125 10.578125 
Q 38.234375 13.09375 39.15625 17.140625 
Q 40.09375 21.1875 40.09375 27.046875 
Q 40.09375 32.671875 39.15625 36.546875 
Q 38.234375 40.4375 36.421875 42.828125 
Q 34.625 45.21875 32 46.265625 
Q 29.390625 47.3125 25.984375 47.3125 
Q 22.75 47.3125 20.40625 46.1875 
Q 18.0625 45.0625 16.5 42.578125 
Q 14.9375 40.09375 14.171875 36.109375 
Q 13.421875 32.125 13.421875 26.46875 
z
" id="LiberationSans-100"/>
     <path d="M 13.484375 24.5625 
Q 13.484375 20.40625 14.328125 16.90625 
Q 15.1875 13.421875 16.96875 10.90625 
Q 18.75 8.40625 21.53125 7 
Q 24.3125 5.609375 28.21875 5.609375 
Q 33.9375 5.609375 37.375 7.90625 
Q 40.828125 10.203125 42.046875 13.71875 
L 49.75 11.53125 
Q 48.921875 9.328125 47.4375 7.109375 
Q 45.953125 4.890625 43.453125 3.09375 
Q 40.96875 1.3125 37.234375 0.15625 
Q 33.5 -0.984375 28.21875 -0.984375 
Q 16.5 -0.984375 10.375 6 
Q 4.25 12.984375 4.25 26.765625 
Q 4.25 34.1875 6.09375 39.328125 
Q 7.953125 44.484375 11.171875 47.703125 
Q 14.40625 50.921875 18.703125 52.359375 
Q 23 53.8125 27.875 53.8125 
Q 34.515625 53.8125 38.984375 51.65625 
Q 43.453125 49.515625 46.15625 45.71875 
Q 48.875 41.9375 50.015625 36.8125 
Q 51.171875 31.6875 51.171875 25.734375 
L 51.171875 24.5625 
z
M 42.09375 31.296875 
Q 41.359375 39.65625 37.84375 43.484375 
Q 34.328125 47.3125 27.734375 47.3125 
Q 25.53125 47.3125 23.109375 46.609375 
Q 20.703125 45.90625 18.65625 44.09375 
Q 16.609375 42.28125 15.1875 39.171875 
Q 13.765625 36.078125 13.578125 31.296875 
z
" id="LiberationSans-101"/>
     <path d="M 13.421875 26.65625 
Q 13.421875 22.125 14.078125 18.3125 
Q 14.75 14.5 16.3125 11.734375 
Q 17.875 8.984375 20.4375 7.46875 
Q 23 5.953125 26.765625 5.953125 
Q 31.453125 5.953125 34.59375 8.484375 
Q 37.75 11.03125 38.484375 16.3125 
L 47.359375 15.71875 
Q 46.921875 12.453125 45.453125 9.421875 
Q 44 6.390625 41.484375 4.09375 
Q 38.96875 1.8125 35.34375 0.40625 
Q 31.734375 -0.984375 27 -0.984375 
Q 20.796875 -0.984375 16.453125 1.109375 
Q 12.109375 3.21875 9.390625 6.90625 
Q 6.6875 10.59375 5.46875 15.59375 
Q 4.25 20.609375 4.25 26.46875 
Q 4.25 31.78125 5.125 35.859375 
Q 6 39.9375 7.59375 42.984375 
Q 9.1875 46.046875 11.328125 48.125 
Q 13.484375 50.203125 15.984375 51.4375 
Q 18.5 52.6875 21.28125 53.25 
Q 24.078125 53.8125 26.90625 53.8125 
Q 31.34375 53.8125 34.8125 52.59375 
Q 38.28125 51.375 40.796875 49.25 
Q 43.3125 47.125 44.875 44.234375 
Q 46.4375 41.359375 47.078125 38.03125 
L 38.03125 37.359375 
Q 37.359375 41.75 34.5625 44.328125 
Q 31.78125 46.921875 26.65625 46.921875 
Q 22.90625 46.921875 20.390625 45.671875 
Q 17.875 44.4375 16.3125 41.921875 
Q 14.75 39.40625 14.078125 35.59375 
Q 13.421875 31.78125 13.421875 26.65625 
z
" id="LiberationSans-99"/>
    </defs>
    <use xlink:href="#LiberationSans-69"/>
    <use x="66.699219" xlink:href="#LiberationSans-103"/>
    <use x="122.314453" xlink:href="#LiberationSans-111"/>
    <use x="177.929688" xlink:href="#LiberationSans-109"/>
    <use x="261.230469" xlink:href="#LiberationSans-111"/>
    <use x="316.845703" xlink:href="#LiberationSans-116"/>
    <use x="344.628906" xlink:href="#LiberationSans-105"/>
    <use x="366.845703" xlink:href="#LiberationSans-111"/>
    <use x="422.460938" xlink:href="#LiberationSans-110"/>
    <use x="478.076172" xlink:href="#LiberationSans-32"/>
    <use x="505.859375" xlink:href="#LiberationSans-105"/>
    <use x="528.076172" xlink:href="#LiberationSans-110"/>
    <use x="583.691406" xlink:href="#LiberationSans-112"/>
    <use x="639.306641" xlink:href="#LiberationSans-117"/>
    <use x="694.921875" xlink:href="#LiberationSans-116"/>
    <use x="722.705078" xlink:href="#LiberationSans-47"/>
    <use x="750.488281" xlink:href="#LiberationSans-100"/>
    <use x="806.103516" xlink:href="#LiberationSans-101"/>
    <use x="861.71875" xlink:href="#LiberationSans-99"/>
    <use x="911.71875" xlink:href="#LiberationSans-111"/>
    <use x="967.333984" xlink:href="#LiberationSans-100"/>
    <use x="1022.949219" xlink:href="#LiberationSans-105"/>
    <use x="1045.166016" xlink:href="#LiberationSans-110"/>
    <use x="1100.78125" xlink:href="#LiberationSans-103"/>
   </g>
  </g>
 </g>
 <defs>
  <clipPath id="p3f9e6f0097">
   <rect height="120.96" width="357.12" x="57.6" y="41.472"/>
  </clipPath>
  <clipPath id="p84b7916072">
   <rect height="120.96" width="357.12" x="57.6" y="186.624"/>
  </clipPath>
 </defs>
</svg>
