<?xml version="1.0" encoding="utf-8" standalone="no"?>
<!DOCTYPE svg PUBLIC "-//W3C//DTD SVG 1.1//EN"
  "http://www.w3.org/Graphics/SVG/1.1/DTD/svg11.dtd">
<!-- Created with matplotlib (https://matplotlib.org/) -->
<svg height="345.6pt" version="1.1" viewBox="0 0 460.8 345.6" width="460.8pt" xmlns="http://www.w3.org/2000/svg" xmlns:xlink="http://www.w3.org/1999/xlink">
 <metadata>
  <rdf:RDF xmlns:cc="http://creativecommons.org/ns#" xmlns:dc="http://purl.org/dc/elements/1.1/" xmlns:rdf="http://www.w3.org/1999/02/22-rdf-syntax-ns#">
   <cc:Work>
    <dc:type rdf:resource="http://purl.org/dc/dcmitype/StillImage"/>
    <dc:date>2022-05-05T12:09:38.054442</dc:date>
    <dc:format>image/svg+xml</dc:format>
    <dc:creator>
     <cc:Agent>
      <dc:title>Matplotlib v3.3.4, https://matplotlib.org/</dc:title>
     </cc:Agent>
    </dc:creator>
   </cc:Work>
  </rdf:RDF>
 </metadata>
 <defs>
  <style type="text/css">*{stroke-linecap:butt;stroke-linejoin:round;}</style>
 </defs>
 <g id="figure_1">
  <g id="patch_1">
   <path d="M 0 345.6 
L 460.8 345.6 
L 460.8 0 
L 0 0 
z
" style="fill:#262626;"/>
  </g>
  <g id="axes_1">
   <g id="patch_2">
    <path d="M 57.6 119.740235 
L 414.72 119.740235 
L 414.72 41.472 
L 57.6 41.472 
z
" style="fill:#1a1a1a;"/>
   </g>
   <g id="matplotlib.axis_1">
    <g id="xtick_1">
     <g id="line2d_1">
      <defs>
       <path d="M 0 0 
L 0 3.5 
" id="mb1f9ad86b6" style="stroke:#ffffff;stroke-width:0.8;"/>
      </defs>
      <g>
       <use style="fill:#ffffff;stroke:#ffffff;stroke-width:0.8;" x="73.832727" xlink:href="#mb1f9ad86b6" y="119.740235"/>
      </g>
     </g>
     <g id="text_1">
      <!-- 0 -->
      <g style="fill:#ffffff;" transform="translate(71.052259 133.98711)scale(0.1 -0.1)">
       <defs>
        <path d="M 51.703125 34.421875 
Q 51.703125 24.515625 49.828125 17.75 
Q 47.953125 10.984375 44.703125 6.8125 
Q 41.453125 2.640625 37.0625 0.828125 
Q 32.671875 -0.984375 27.6875 -0.984375 
Q 22.65625 -0.984375 18.3125 0.828125 
Q 13.96875 2.640625 10.765625 6.78125 
Q 7.5625 10.9375 5.734375 17.703125 
Q 3.90625 24.46875 3.90625 34.421875 
Q 3.90625 44.828125 5.734375 51.640625 
Q 7.5625 58.453125 10.78125 62.5 
Q 14.015625 66.546875 18.40625 68.1875 
Q 22.796875 69.828125 27.984375 69.828125 
Q 32.90625 69.828125 37.21875 68.1875 
Q 41.546875 66.546875 44.765625 62.5 
Q 48 58.453125 49.84375 51.640625 
Q 51.703125 44.828125 51.703125 34.421875 
z
M 42.78125 34.421875 
Q 42.78125 42.625 41.796875 48.0625 
Q 40.828125 53.515625 38.921875 56.765625 
Q 37.015625 60.015625 34.25 61.359375 
Q 31.5 62.703125 27.984375 62.703125 
Q 24.265625 62.703125 21.4375 61.328125 
Q 18.609375 59.96875 16.671875 56.71875 
Q 14.75 53.46875 13.765625 48.015625 
Q 12.796875 42.578125 12.796875 34.421875 
Q 12.796875 26.515625 13.796875 21.09375 
Q 14.796875 15.671875 16.71875 12.375 
Q 18.65625 9.078125 21.4375 7.640625 
Q 24.21875 6.203125 27.78125 6.203125 
Q 31.25 6.203125 34.03125 7.640625 
Q 36.8125 9.078125 38.734375 12.375 
Q 40.671875 15.671875 41.71875 21.09375 
Q 42.78125 26.515625 42.78125 34.421875 
z
" id="LiberationSans-48"/>
       </defs>
       <use xlink:href="#LiberationSans-48"/>
      </g>
     </g>
    </g>
    <g id="xtick_2">
     <g id="line2d_2">
      <g>
       <use style="fill:#ffffff;stroke:#ffffff;stroke-width:0.8;" x="138.776625" xlink:href="#mb1f9ad86b6" y="119.740235"/>
      </g>
     </g>
     <g id="text_2">
      <!-- 200 -->
      <g style="fill:#ffffff;" transform="translate(130.435219 133.98711)scale(0.1 -0.1)">
       <defs>
        <path d="M 5.03125 0 
L 5.03125 6.203125 
Q 7.515625 11.921875 11.109375 16.28125 
Q 14.703125 20.65625 18.65625 24.1875 
Q 22.609375 27.734375 26.484375 30.765625 
Q 30.375 33.796875 33.5 36.8125 
Q 36.625 39.84375 38.546875 43.15625 
Q 40.484375 46.484375 40.484375 50.6875 
Q 40.484375 53.609375 39.59375 55.828125 
Q 38.71875 58.0625 37.0625 59.5625 
Q 35.40625 61.078125 33.078125 61.828125 
Q 30.765625 62.59375 27.9375 62.59375 
Q 25.296875 62.59375 22.96875 61.859375 
Q 20.65625 61.140625 18.84375 59.671875 
Q 17.046875 58.203125 15.890625 56.03125 
Q 14.75 53.859375 14.40625 50.984375 
L 5.421875 51.8125 
Q 5.859375 55.515625 7.46875 58.78125 
Q 9.078125 62.0625 11.90625 64.53125 
Q 14.75 67 18.71875 68.40625 
Q 22.703125 69.828125 27.9375 69.828125 
Q 33.0625 69.828125 37.0625 68.609375 
Q 41.0625 67.390625 43.8125 64.984375 
Q 46.578125 62.59375 48.046875 59.078125 
Q 49.515625 55.5625 49.515625 50.984375 
Q 49.515625 47.515625 48.265625 44.390625 
Q 47.015625 41.265625 44.9375 38.421875 
Q 42.875 35.59375 40.140625 32.953125 
Q 37.40625 30.328125 34.421875 27.8125 
Q 31.453125 25.296875 28.421875 22.828125 
Q 25.390625 20.359375 22.71875 17.859375 
Q 20.0625 15.375 17.96875 12.8125 
Q 15.875 10.25 14.703125 7.46875 
L 50.59375 7.46875 
L 50.59375 0 
z
" id="LiberationSans-50"/>
       </defs>
       <use xlink:href="#LiberationSans-50"/>
       <use x="55.615234" xlink:href="#LiberationSans-48"/>
       <use x="111.230469" xlink:href="#LiberationSans-48"/>
      </g>
     </g>
    </g>
    <g id="xtick_3">
     <g id="line2d_3">
      <g>
       <use style="fill:#ffffff;stroke:#ffffff;stroke-width:0.8;" x="203.720523" xlink:href="#mb1f9ad86b6" y="119.740235"/>
      </g>
     </g>
     <g id="text_3">
      <!-- 400 -->
      <g style="fill:#ffffff;" transform="translate(195.379117 133.98711)scale(0.1 -0.1)">
       <defs>
        <path d="M 43.015625 15.578125 
L 43.015625 0 
L 34.71875 0 
L 34.71875 15.578125 
L 2.296875 15.578125 
L 2.296875 22.40625 
L 33.796875 68.796875 
L 43.015625 68.796875 
L 43.015625 22.515625 
L 52.6875 22.515625 
L 52.6875 15.578125 
z
M 34.71875 58.890625 
Q 34.625 58.640625 34.234375 57.9375 
Q 33.84375 57.234375 33.34375 56.34375 
Q 32.859375 55.46875 32.34375 54.5625 
Q 31.84375 53.65625 31.453125 53.078125 
L 13.8125 27.09375 
Q 13.578125 26.703125 13.109375 26.0625 
Q 12.640625 25.4375 12.15625 24.78125 
Q 11.671875 24.125 11.171875 23.484375 
Q 10.6875 22.859375 10.40625 22.515625 
L 34.71875 22.515625 
z
" id="LiberationSans-52"/>
       </defs>
       <use xlink:href="#LiberationSans-52"/>
       <use x="55.615234" xlink:href="#LiberationSans-48"/>
       <use x="111.230469" xlink:href="#LiberationSans-48"/>
      </g>
     </g>
    </g>
    <g id="xtick_4">
     <g id="line2d_4">
      <g>
       <use style="fill:#ffffff;stroke:#ffffff;stroke-width:0.8;" x="268.664421" xlink:href="#mb1f9ad86b6" y="119.740235"/>
      </g>
     </g>
     <g id="text_4">
      <!-- 600 -->
      <g style="fill:#ffffff;" transform="translate(260.323015 133.98711)scale(0.1 -0.1)">
       <defs>
        <path d="M 51.21875 22.515625 
Q 51.21875 17.328125 49.78125 13 
Q 48.34375 8.6875 45.53125 5.578125 
Q 42.71875 2.484375 38.5625 0.75 
Q 34.421875 -0.984375 29 -0.984375 
Q 23 -0.984375 18.5 1.3125 
Q 14.015625 3.609375 11.03125 7.921875 
Q 8.0625 12.25 6.5625 18.53125 
Q 5.078125 24.8125 5.078125 32.8125 
Q 5.078125 42 6.765625 48.921875 
Q 8.453125 55.859375 11.625 60.5 
Q 14.796875 65.140625 19.359375 67.484375 
Q 23.921875 69.828125 29.6875 69.828125 
Q 33.203125 69.828125 36.28125 69.09375 
Q 39.359375 68.359375 41.875 66.71875 
Q 44.390625 65.09375 46.28125 62.40625 
Q 48.1875 59.71875 49.3125 55.8125 
L 40.921875 54.296875 
Q 39.546875 58.734375 36.546875 60.71875 
Q 33.546875 62.703125 29.59375 62.703125 
Q 25.984375 62.703125 23.046875 60.984375 
Q 20.125 59.28125 18.0625 55.875 
Q 16.015625 52.484375 14.90625 47.359375 
Q 13.8125 42.234375 13.8125 35.40625 
Q 16.21875 39.84375 20.5625 42.15625 
Q 24.90625 44.484375 30.515625 44.484375 
Q 35.203125 44.484375 39.015625 42.96875 
Q 42.828125 41.453125 45.53125 38.59375 
Q 48.25 35.75 49.734375 31.671875 
Q 51.21875 27.59375 51.21875 22.515625 
z
M 42.28125 22.125 
Q 42.28125 25.6875 41.40625 28.5625 
Q 40.53125 31.453125 38.765625 33.46875 
Q 37.015625 35.5 34.421875 36.59375 
Q 31.84375 37.703125 28.421875 37.703125 
Q 26.03125 37.703125 23.578125 36.984375 
Q 21.140625 36.28125 19.15625 34.6875 
Q 17.1875 33.109375 15.9375 30.515625 
Q 14.703125 27.9375 14.703125 24.21875 
Q 14.703125 20.40625 15.671875 17.109375 
Q 16.65625 13.8125 18.484375 11.375 
Q 20.3125 8.9375 22.890625 7.515625 
Q 25.484375 6.109375 28.71875 6.109375 
Q 31.890625 6.109375 34.40625 7.203125 
Q 36.921875 8.296875 38.671875 10.375 
Q 40.4375 12.453125 41.359375 15.421875 
Q 42.28125 18.40625 42.28125 22.125 
z
" id="LiberationSans-54"/>
       </defs>
       <use xlink:href="#LiberationSans-54"/>
       <use x="55.615234" xlink:href="#LiberationSans-48"/>
       <use x="111.230469" xlink:href="#LiberationSans-48"/>
      </g>
     </g>
    </g>
    <g id="xtick_5">
     <g id="line2d_5">
      <g>
       <use style="fill:#ffffff;stroke:#ffffff;stroke-width:0.8;" x="333.608319" xlink:href="#mb1f9ad86b6" y="119.740235"/>
      </g>
     </g>
     <g id="text_5">
      <!-- 800 -->
      <g style="fill:#ffffff;" transform="translate(325.266913 133.98711)scale(0.1 -0.1)">
       <defs>
        <path d="M 51.265625 19.1875 
Q 51.265625 14.796875 49.875 11.109375 
Q 48.484375 7.421875 45.625 4.734375 
Q 42.78125 2.046875 38.328125 0.53125 
Q 33.890625 -0.984375 27.828125 -0.984375 
Q 21.78125 -0.984375 17.359375 0.53125 
Q 12.9375 2.046875 10.03125 4.703125 
Q 7.125 7.375 5.734375 11.0625 
Q 4.34375 14.75 4.34375 19.09375 
Q 4.34375 22.859375 5.484375 25.78125 
Q 6.640625 28.71875 8.5625 30.828125 
Q 10.5 32.953125 12.96875 34.25 
Q 15.4375 35.546875 18.0625 35.984375 
L 18.0625 36.1875 
Q 15.1875 36.859375 12.90625 38.375 
Q 10.640625 39.890625 9.09375 42.015625 
Q 7.5625 44.140625 6.75 46.71875 
Q 5.953125 49.3125 5.953125 52.203125 
Q 5.953125 55.8125 7.34375 59 
Q 8.734375 62.203125 11.46875 64.625 
Q 14.203125 67.046875 18.25 68.4375 
Q 22.3125 69.828125 27.640625 69.828125 
Q 33.25 69.828125 37.375 68.40625 
Q 41.5 67 44.203125 64.578125 
Q 46.921875 62.15625 48.234375 58.9375 
Q 49.5625 55.71875 49.5625 52.09375 
Q 49.5625 49.265625 48.75 46.671875 
Q 47.953125 44.09375 46.40625 41.96875 
Q 44.875 39.84375 42.59375 38.34375 
Q 40.328125 36.859375 37.359375 36.28125 
L 37.359375 36.078125 
Q 40.328125 35.59375 42.859375 34.296875 
Q 45.40625 33.015625 47.265625 30.890625 
Q 49.125 28.765625 50.1875 25.828125 
Q 51.265625 22.90625 51.265625 19.1875 
z
M 40.4375 51.609375 
Q 40.4375 54.203125 39.765625 56.34375 
Q 39.109375 58.5 37.59375 60.03125 
Q 36.078125 61.578125 33.640625 62.421875 
Q 31.203125 63.28125 27.640625 63.28125 
Q 24.171875 63.28125 21.78125 62.421875 
Q 19.390625 61.578125 17.84375 60.03125 
Q 16.3125 58.5 15.625 56.34375 
Q 14.9375 54.203125 14.9375 51.609375 
Q 14.9375 49.5625 15.46875 47.40625 
Q 16.015625 45.265625 17.421875 43.5 
Q 18.84375 41.75 21.328125 40.625 
Q 23.828125 39.5 27.734375 39.5 
Q 31.890625 39.5 34.40625 40.625 
Q 36.921875 41.75 38.25 43.5 
Q 39.59375 45.265625 40.015625 47.40625 
Q 40.4375 49.5625 40.4375 51.609375 
z
M 42.140625 20.015625 
Q 42.140625 22.515625 41.453125 24.828125 
Q 40.765625 27.15625 39.109375 28.9375 
Q 37.453125 30.71875 34.640625 31.8125 
Q 31.84375 32.90625 27.640625 32.90625 
Q 23.78125 32.90625 21.0625 31.8125 
Q 18.359375 30.71875 16.671875 28.90625 
Q 14.984375 27.09375 14.203125 24.71875 
Q 13.421875 22.359375 13.421875 19.828125 
Q 13.421875 16.65625 14.203125 14.03125 
Q 14.984375 11.421875 16.6875 9.546875 
Q 18.40625 7.671875 21.1875 6.640625 
Q 23.96875 5.609375 27.9375 5.609375 
Q 31.9375 5.609375 34.671875 6.640625 
Q 37.40625 7.671875 39.0625 9.546875 
Q 40.71875 11.421875 41.421875 14.078125 
Q 42.140625 16.75 42.140625 20.015625 
z
" id="LiberationSans-56"/>
       </defs>
       <use xlink:href="#LiberationSans-56"/>
       <use x="55.615234" xlink:href="#LiberationSans-48"/>
       <use x="111.230469" xlink:href="#LiberationSans-48"/>
      </g>
     </g>
    </g>
    <g id="xtick_6">
     <g id="line2d_6">
      <g>
       <use style="fill:#ffffff;stroke:#ffffff;stroke-width:0.8;" x="398.552217" xlink:href="#mb1f9ad86b6" y="119.740235"/>
      </g>
     </g>
     <g id="text_6">
      <!-- 1000 -->
      <g style="fill:#ffffff;" transform="translate(387.430342 133.98711)scale(0.1 -0.1)">
       <defs>
        <path d="M 7.625 0 
L 7.625 7.46875 
L 25.140625 7.46875 
L 25.140625 60.40625 
L 9.625 49.3125 
L 9.625 57.625 
L 25.875 68.796875 
L 33.984375 68.796875 
L 33.984375 7.46875 
L 50.734375 7.46875 
L 50.734375 0 
z
" id="LiberationSans-49"/>
       </defs>
       <use xlink:href="#LiberationSans-49"/>
       <use x="55.615234" xlink:href="#LiberationSans-48"/>
       <use x="111.230469" xlink:href="#LiberationSans-48"/>
       <use x="166.845703" xlink:href="#LiberationSans-48"/>
      </g>
     </g>
    </g>
   </g>
   <g id="matplotlib.axis_2">
    <g id="ytick_1">
     <g id="line2d_7">
      <defs>
       <path d="M 0 0 
L -3.5 0 
" id="mcaeb48660d" style="stroke:#ffffff;stroke-width:0.8;"/>
      </defs>
      <g>
       <use style="fill:#ffffff;stroke:#ffffff;stroke-width:0.8;" x="57.6" xlink:href="#mcaeb48660d" y="109.634424"/>
      </g>
     </g>
     <g id="text_7">
      <!-- −1 -->
      <g style="fill:#ffffff;" transform="translate(39.198437 113.257861)scale(0.1 -0.1)">
       <defs>
        <path d="M 4.9375 29.6875 
L 4.9375 36.8125 
L 53.515625 36.8125 
L 53.515625 29.6875 
z
" id="LiberationSans-8722"/>
       </defs>
       <use xlink:href="#LiberationSans-8722"/>
       <use x="58.398438" xlink:href="#LiberationSans-49"/>
      </g>
     </g>
    </g>
    <g id="ytick_2">
     <g id="line2d_8">
      <g>
       <use style="fill:#ffffff;stroke:#ffffff;stroke-width:0.8;" x="57.6" xlink:href="#mcaeb48660d" y="77.438512"/>
      </g>
     </g>
     <g id="text_8">
      <!-- 0 -->
      <g style="fill:#ffffff;" transform="translate(45.039062 81.06195)scale(0.1 -0.1)">
       <use xlink:href="#LiberationSans-48"/>
      </g>
     </g>
    </g>
    <g id="ytick_3">
     <g id="line2d_9">
      <g>
       <use style="fill:#ffffff;stroke:#ffffff;stroke-width:0.8;" x="57.6" xlink:href="#mcaeb48660d" y="45.2426"/>
      </g>
     </g>
     <g id="text_9">
      <!-- 1 -->
      <g style="fill:#ffffff;" transform="translate(45.039062 48.866038)scale(0.1 -0.1)">
       <use xlink:href="#LiberationSans-49"/>
      </g>
     </g>
    </g>
    <g id="text_10">
     <!-- $u$ -->
     <g style="fill:#ffffff;" transform="translate(33.123437 83.806118)rotate(-90)scale(0.1 -0.1)">
      <defs>
       <path d="M 6.6875 21.6875 
L 13.09375 54.6875 
L 22.125 54.6875 
L 15.71875 22.015625 
Q 15.234375 19.625 15.015625 17.921875 
Q 14.796875 16.21875 14.796875 15.09375 
Q 14.796875 10.9375 17.328125 8.65625 
Q 19.875 6.390625 24.515625 6.390625 
Q 31.734375 6.390625 37 11.265625 
Q 42.28125 16.15625 43.890625 24.421875 
L 49.90625 54.6875 
L 58.890625 54.6875 
L 48.296875 0 
L 39.3125 0 
L 41.109375 8.59375 
Q 37.3125 3.8125 32.0625 1.1875 
Q 26.8125 -1.421875 20.90625 -1.421875 
Q 13.71875 -1.421875 9.71875 2.515625 
Q 5.71875 6.453125 5.71875 13.484375 
Q 5.71875 14.9375 5.953125 17.140625 
Q 6.203125 19.34375 6.6875 21.6875 
z
" id="DejaVuSans-Oblique-117"/>
      </defs>
      <use transform="translate(0 0.3125)" xlink:href="#DejaVuSans-Oblique-117"/>
     </g>
    </g>
   </g>
   <g id="line2d_10">
    <path clip-path="url(#p90c21f1e48)" d="M 73.832727 62.816049 
L 73.897671 110.899523 
L 73.962615 109.813409 
L 75.196549 91.113012 
L 76.430483 75.648547 
L 77.144866 67.950232 
L 77.20981 83.581326 
L 77.274754 82.767033 
L 78.508688 68.746763 
L 79.742622 57.152574 
L 80.262173 52.892572 
L 80.327117 67.239773 
L 80.392061 66.588081 
L 80.781724 62.811864 
L 80.846668 47.108723 
L 80.911612 95.348488 
L 80.976556 94.417109 
L 82.21049 78.380901 
L 83.444424 65.119611 
L 83.834088 61.428912 
L 83.899031 75.39037 
L 83.963975 74.657578 
L 85.197909 62.040576 
L 85.522629 59.099884 
L 85.587573 74.819041 
L 85.652517 74.091934 
L 86.886451 61.572811 
L 88.120385 51.220008 
L 88.445104 48.807042 
L 88.510048 97.029909 
L 88.574992 96.0818 
L 89.808926 79.757532 
L 91.04286 66.258029 
L 91.887131 58.393493 
L 91.952075 72.279945 
L 92.017019 71.578102 
L 93.250953 59.493975 
L 93.380841 58.350452 
L 93.445784 106.47836 
L 93.510728 105.436237 
L 94.744662 87.493269 
L 95.978596 72.655168 
L 96.822867 64.010791 
L 96.887811 79.681084 
L 96.952755 78.905598 
L 98.186689 65.553515 
L 99.420623 54.511888 
L 99.680399 52.442835 
L 99.745343 115.184856 
L 99.810286 98.960595 
L 101.04422 82.138177 
L 102.278155 68.226726 
L 102.927594 61.900072 
L 102.992537 75.856842 
L 103.057481 75.119409 
L 104.291415 62.422491 
L 104.551191 60.043259 
L 104.616135 108.154324 
L 104.681079 107.095525 
L 105.915013 88.865432 
L 106.434564 82.16723 
L 106.564452 71.980622 
L 106.954115 67.890368 
L 107.019059 81.787534 
L 107.084003 80.991089 
L 108.317937 67.27813 
L 109.551871 55.938074 
L 109.811647 53.8131 
L 109.876591 67.850336 
L 109.941534 67.192569 
L 110.590973 60.964329 
L 110.655917 109.066228 
L 110.720861 107.998356 
L 111.954795 89.612037 
L 113.188729 74.407302 
L 114.422663 61.833608 
L 114.747383 58.90301 
L 114.812327 74.624126 
L 114.877271 73.898958 
L 116.111205 61.413228 
L 116.6957 56.277582 
L 116.760644 104.426115 
L 116.825588 103.404413 
L 118.059522 85.813033 
L 119.293456 71.265681 
L 120.072783 63.404217 
L 120.137726 79.080545 
L 120.20267 78.311035 
L 121.436604 65.061836 
L 122.670538 54.105289 
L 122.735482 53.584287 
L 122.800426 101.759619 
L 122.86537 100.764449 
L 124.099304 83.629891 
L 125.333238 69.460312 
L 126.047621 62.4066 
L 126.112565 110.494149 
L 126.177509 109.412068 
L 127.411443 90.781119 
L 128.645377 75.374085 
L 128.905153 72.487014 
L 128.970097 88.072967 
L 129.03504 87.213981 
L 130.268975 72.424208 
L 131.502909 60.19367 
L 131.957516 56.242121 
L 132.02246 67.503844 
L 132.087404 66.849524 
L 133.321338 55.583634 
L 133.775945 51.943753 
L 133.840889 100.135409 
L 133.905833 99.156399 
L 134.035721 97.227507 
L 134.165608 86.742686 
L 135.399542 72.034466 
L 135.919094 66.63029 
L 135.984038 80.874411 
L 136.048981 80.087051 
L 137.282915 66.530528 
L 137.802467 61.549515 
L 137.867411 75.509773 
L 137.932354 74.775793 
L 138.841569 65.547989 
L 139.750784 61.637953 
L 140.465166 59.333362 
L 140.53011 107.845688 
L 140.595054 92.091768 
L 141.569213 85.42619 
L 142.218652 80.936562 
L 143.452586 69.942671 
L 144.68652 60.851172 
L 145.011239 58.732183 
L 145.076183 70.124938 
L 145.141127 69.600347 
L 146.375061 60.568084 
L 146.634837 58.875559 
L 146.699781 107.154051 
L 146.764725 106.261014 
L 147.998659 90.884958 
L 149.232593 78.169588 
L 150.466527 67.654496 
L 151.505629 60.22451 
L 151.570573 108.48958 
L 151.635517 107.583254 
L 152.869451 91.978396 
L 154.103385 79.073816 
L 155.337319 68.402256 
L 156.571253 59.577312 
L 156.895973 57.52045 
L 156.960917 68.925262 
L 157.02586 68.412608 
L 158.259795 59.585872 
L 159.169009 54.075036 
L 159.233953 45.029647 
L 159.298897 109.735764 
L 159.363841 108.817038 
L 160.597775 92.998685 
L 161.831709 79.917554 
L 163.065643 69.099993 
L 163.390362 66.578704 
L 163.455306 80.945535 
L 163.52025 80.313276 
L 164.754184 69.427239 
L 165.988118 60.424931 
L 167.222052 52.98039 
L 167.546772 51.245264 
L 167.611716 99.599678 
L 167.67666 98.781809 
L 168.910594 84.69996 
L 170.144528 73.054848 
L 171.703181 58.98806 
L 171.898013 56.754712 
L 171.962957 104.709967 
L 172.027901 103.493793 
L 173.456667 78.860409 
L 174.106106 68.86689 
L 174.171049 82.794275 
L 174.235993 81.690215 
L 174.820488 73.664459 
L 176.054423 61.219307 
L 176.314198 58.887253 
L 176.379142 74.608525 
L 176.444086 73.883513 
L 177.67802 61.400455 
L 178.84701 51.573285 
L 178.911954 99.768627 
L 178.976898 98.793268 
L 180.210832 81.999805 
L 181.444766 68.112297 
L 182.6787 56.627896 
L 182.743644 70.971542 
L 182.808588 70.282718 
L 184.042522 58.422745 
L 184.432185 55.122041 
L 184.497129 69.447059 
L 184.562073 68.773403 
L 185.211512 62.394727 
L 185.276456 110.482394 
L 185.3414 109.40043 
L 185.536232 106.218706 
L 185.666119 89.204667 
L 186.900053 74.070424 
L 188.133988 61.555023 
L 188.393763 59.209805 
L 188.458707 74.927868 
L 188.523651 74.199678 
L 189.757585 61.661912 
L 190.731743 53.315846 
L 190.796687 67.692447 
L 190.861631 67.036251 
L 191.576014 60.235043 
L 191.640958 108.344199 
L 191.705902 83.507506 
L 192.160509 77.979798 
L 192.225453 93.511097 
L 192.290397 92.598 
L 193.524331 76.876572 
L 194.303658 68.380631 
L 194.368602 84.007443 
L 194.433546 83.188909 
L 195.66748 69.095638 
L 196.706582 59.137303 
L 196.771526 73.016354 
L 196.83647 72.307184 
L 198.070404 60.096896 
L 198.265236 58.372311 
L 198.330179 72.364183 
L 198.395123 71.661502 
L 199.629057 59.562943 
L 199.694001 107.678787 
L 199.758945 106.62472 
L 200.148609 100.516951 
L 200.278496 83.615814 
L 201.51243 69.448671 
L 201.772206 66.793938 
L 201.83715 75.680702 
L 201.902094 74.945021 
L 203.136028 62.278279 
L 203.460747 59.325995 
L 203.525691 107.444196 
L 203.590635 106.392463 
L 203.785467 103.612817 
L 203.980299 98.637684 
L 205.019401 89.507448 
L 205.993559 82.852859 
L 206.902774 78.073166 
L 207.032662 77.178794 
L 208.266596 66.835151 
L 209.50053 58.28138 
L 209.565474 106.565784 
L 209.630418 105.6786 
L 210.864352 90.403325 
L 212.098286 77.771297 
L 213.33222 67.325126 
L 214.566154 58.68657 
L 215.475369 53.29322 
L 215.540312 116.182588 
L 215.605256 115.199716 
L 215.735144 113.263212 
L 215.865032 96.419749 
L 217.098966 82.746634 
L 218.3329 71.439526 
L 218.527732 69.842508 
L 218.592676 85.610582 
L 218.65762 84.931906 
L 219.891554 73.246657 
L 221.125488 63.583434 
L 221.969758 57.953836 
L 222.034702 106.241499 
L 222.099646 105.357542 
L 223.33358 90.137823 
L 224.567514 77.551738 
L 225.801448 67.14356 
L 226.840551 59.789119 
L 226.905495 74.257119 
L 226.970438 73.691412 
L 228.204373 63.951228 
L 229.308419 56.674112 
L 229.373363 104.974509 
L 229.438307 104.103159 
L 229.568194 93.792257 
L 230.802128 80.573806 
L 232.036062 69.642686 
L 233.269997 60.603097 
L 233.724604 57.682508 
L 233.789548 105.972871 
L 233.854492 105.091587 
L 235.088426 89.917889 
L 237.036743 67.052051 
L 237.751125 58.011268 
L 237.816069 71.774575 
L 237.881013 70.842486 
L 239.244835 52.601131 
L 239.309779 66.681015 
L 239.374723 65.727936 
L 239.699442 62.309506 
L 240.413825 56.000664 
L 240.478769 104.151953 
L 240.543713 103.132978 
L 241.777647 85.588568 
L 243.011581 71.080058 
L 244.050684 60.828314 
L 244.115627 72.044403 
L 244.180571 71.344904 
L 245.414505 59.30113 
L 245.739225 56.494043 
L 245.804169 70.399395 
L 245.869113 69.716264 
L 247.103047 57.954311 
L 248.077205 50.124684 
L 248.142149 98.33444 
L 248.207093 97.373351 
L 249.441027 80.825591 
L 250.674961 67.141271 
L 251.64912 58.031974 
L 251.714064 106.163051 
L 251.779007 105.124066 
L 253.012941 87.235116 
L 254.246876 72.441686 
L 254.896315 65.713926 
L 254.961258 81.367272 
L 255.026202 80.575009 
L 256.260136 66.934049 
L 256.6498 63.137685 
L 256.714744 111.217959 
L 256.779688 110.128677 
L 258.013622 91.373725 
L 259.247556 75.864146 
L 260.091826 66.82858 
L 260.15677 81.037116 
L 260.221714 80.248138 
L 261.455648 66.66374 
L 261.715424 64.118207 
L 261.780368 112.188725 
L 261.845312 111.089783 
L 261.910256 110.001776 
L 262.040143 99.264007 
L 263.274077 82.389087 
L 264.508011 68.434218 
L 265.15745 62.087819 
L 265.222394 77.777245 
L 265.287338 77.020703 
L 266.521272 63.994784 
L 267.235655 57.510393 
L 267.300599 71.510841 
L 267.365543 70.816651 
L 268.599477 58.864286 
L 269.703523 49.934399 
L 269.898355 79.39493 
L 270.158131 76.350199 
L 270.288018 59.927596 
L 270.937457 54.390709 
L 271.002401 102.558017 
L 271.067345 101.554903 
L 272.301279 84.283564 
L 273.535213 70.000873 
L 274.054764 64.753047 
L 274.119708 112.817248 
L 274.184652 111.712052 
L 275.418586 92.683112 
L 276.65252 76.946956 
L 277.886454 63.933798 
L 278.081286 62.095816 
L 278.14623 76.385055 
L 278.211174 75.642366 
L 279.445108 62.854955 
L 279.834771 59.296139 
L 279.899715 73.613236 
L 279.964659 72.898126 
L 281.198593 60.585581 
L 282.432527 50.403609 
L 282.497471 49.91944 
L 282.562415 98.131238 
L 282.627359 97.17217 
L 283.861293 80.659224 
L 285.095227 67.003691 
L 285.744666 60.793425 
L 285.80961 74.761206 
L 285.874554 74.034674 
L 287.108488 61.52546 
L 287.628039 56.929255 
L 287.692983 70.935485 
L 287.757927 70.24702 
L 288.991861 58.393224 
L 289.771188 51.987372 
L 289.836132 100.178594 
L 289.901075 99.199155 
L 289.966019 98.229461 
L 290.095907 87.7248 
L 291.329841 72.846634 
L 292.563775 60.542999 
L 292.628719 71.761928 
L 292.693663 71.065239 
L 293.927597 59.069858 
L 294.252317 56.274051 
L 294.317261 72.021325 
L 294.382204 71.322055 
L 295.616139 59.282235 
L 295.681082 58.709721 
L 295.746026 72.698236 
L 295.81097 71.992231 
L 297.044904 59.836443 
L 297.759287 53.785209 
L 297.824231 101.958542 
L 297.889175 100.961392 
L 299.123109 83.792755 
L 300.357043 69.594994 
L 301.590977 57.854026 
L 302.240416 52.514465 
L 302.30536 100.700443 
L 302.370304 99.715811 
L 303.604238 82.76271 
L 304.838172 68.743189 
L 305.357723 63.592058 
L 305.422667 79.266517 
L 305.487611 78.495157 
L 306.721545 65.214097 
L 307.825591 55.291511 
L 307.890535 71.048562 
L 307.955479 70.358972 
L 309.189413 58.485804 
L 309.838852 53.086122 
L 309.903796 101.266411 
L 309.96874 100.276148 
L 310.033684 99.295738 
L 310.163572 88.769963 
L 311.397506 73.710942 
L 312.371664 63.686542 
L 312.436608 77.625536 
L 312.501552 76.870504 
L 313.735486 63.870575 
L 314.96942 53.120165 
L 315.359083 50.128259 
L 315.424027 98.337979 
L 315.488971 97.376855 
L 316.722905 80.828489 
L 317.956839 67.143667 
L 318.411447 62.722256 
L 318.476391 77.005262 
L 318.541334 76.256401 
L 319.775269 63.362737 
L 320.944259 53.212321 
L 321.009203 101.391354 
L 321.074146 100.399848 
L 322.308081 83.328381 
L 323.542015 69.210976 
L 324.516173 59.813386 
L 324.581117 90.415191 
L 324.646061 89.5329 
L 325.879995 74.341859 
L 325.944939 58.523992 
L 326.009883 106.650173 
L 326.074827 105.606341 
L 327.308761 87.633938 
L 328.542695 72.771495 
L 329.776629 60.480862 
L 329.841573 59.896422 
L 329.906517 73.873129 
L 329.97146 73.155433 
L 331.205395 60.798364 
L 331.660002 56.805934 
L 331.724946 104.94921 
L 331.78989 103.922303 
L 333.023824 86.241307 
L 334.12787 70.526003 
L 334.647421 62.539751 
L 334.712365 90.983255 
L 334.777309 89.729158 
L 336.206075 64.350609 
L 337.050345 52.059699 
L 337.180233 50.753317 
L 337.245177 98.801009 
L 337.310121 97.679468 
L 338.544055 78.369106 
L 339.518213 65.5147 
L 339.583157 79.5805 
L 339.648101 78.650207 
L 340.882035 62.632685 
L 341.141811 59.631216 
L 341.206755 75.189277 
L 341.271699 74.302677 
L 342.505633 59.037456 
L 343.414847 49.50685 
L 343.479791 97.566944 
L 343.544735 96.457683 
L 344.324062 83.976815 
L 344.389006 97.558109 
L 344.45395 96.448935 
L 345.687884 77.351506 
L 346.921818 61.558712 
L 347.11665 59.328134 
L 347.181593 107.290505 
L 347.246537 106.084493 
L 348.480471 85.319718 
L 349.519574 70.647284 
L 349.584518 84.695626 
L 349.649462 83.714436 
L 349.844293 80.829058 
L 349.974181 72.551681 
L 350.688564 63.544829 
L 350.753508 79.063949 
L 350.818452 78.138796 
L 351.79261 65.31647 
L 351.857554 74.062125 
L 351.922498 73.186741 
L 353.026544 59.569712 
L 353.091488 70.642515 
L 353.156432 69.801157 
L 354.390366 55.314882 
L 354.715086 51.938512 
L 354.780029 66.139398 
L 354.844973 65.342846 
L 355.884076 53.624116 
L 355.94902 67.841842 
L 356.013964 67.02835 
L 356.988122 55.75362 
L 357.053066 103.751559 
L 357.11801 93.900262 
L 358.157112 77.959142 
L 358.222056 91.901117 
L 358.287 90.848232 
L 359.520934 72.719953 
L 360.754868 57.728607 
L 361.339363 51.562348 
L 361.404307 65.46617 
L 361.469251 64.676317 
L 362.638241 51.730026 
L 362.703185 99.767999 
L 362.768129 98.636837 
L 364.002063 79.160811 
L 364.586558 71.149907 
L 364.651502 85.159636 
L 364.716446 84.173829 
L 365.95038 67.200495 
L 366.210155 64.646277 
L 366.275099 112.875142 
L 366.340043 111.936088 
L 366.469931 95.149931 
L 367.509033 84.312724 
L 368.483192 76.287804 
L 369.002743 72.749024 
L 369.067687 86.895442 
L 369.132631 86.348886 
L 369.392406 83.934182 
L 369.522294 73.712586 
L 370.171733 66.863884 
L 370.236677 75.749952 
L 370.301621 75.013582 
L 371.535555 62.334976 
L 372.184994 56.568997 
L 372.249938 72.313337 
L 372.314882 71.611161 
L 373.548816 59.521314 
L 374.717806 50.003694 
L 374.78275 98.214654 
L 374.847694 97.254757 
L 376.081628 80.727519 
L 377.315562 67.060169 
L 378.094889 59.674262 
L 378.159833 75.387704 
L 378.224777 74.654938 
L 379.458711 62.038393 
L 380.302981 54.68825 
L 380.367925 70.451303 
L 380.432869 69.767655 
L 381.666803 57.99681 
L 382.381186 52.137203 
L 382.44613 100.326934 
L 382.511074 99.346019 
L 383.745008 82.456908 
L 384.978942 68.490303 
L 386.212876 56.940491 
L 386.27782 72.681134 
L 386.342764 71.975299 
L 387.576698 59.822441 
L 388.226137 54.295561 
L 388.291081 102.463816 
L 388.356025 101.461639 
L 389.589959 84.206439 
L 390.823893 69.937093 
L 392.057827 58.136928 
L 392.187715 57.020276 
L 392.252659 70.920392 
L 392.317602 70.232077 
L 393.551536 58.380867 
L 394.720527 49.051113 
L 394.785471 97.271551 
L 394.850414 96.321038 
L 396.084349 79.955372 
L 397.253339 67.071654 
L 397.318283 80.976966 
L 397.383226 80.188586 
L 398.487273 67.924961 
L 398.487273 67.924961 
" style="fill:none;stroke:#9a72ac;stroke-linecap:round;stroke-width:1.5;"/>
   </g>
   <g id="patch_3">
    <path d="M 57.6 119.740235 
L 57.6 41.472 
" style="fill:none;stroke:#ffffff;stroke-linecap:square;stroke-linejoin:miter;stroke-width:0.8;"/>
   </g>
   <g id="patch_4">
    <path d="M 414.72 119.740235 
L 414.72 41.472 
" style="fill:none;stroke:#ffffff;stroke-linecap:square;stroke-linejoin:miter;stroke-width:0.8;"/>
   </g>
   <g id="patch_5">
    <path d="M 57.6 119.740235 
L 414.72 119.740235 
" style="fill:none;stroke:#ffffff;stroke-linecap:square;stroke-linejoin:miter;stroke-width:0.8;"/>
   </g>
   <g id="patch_6">
    <path d="M 57.6 41.472 
L 414.72 41.472 
" style="fill:none;stroke:#ffffff;stroke-linecap:square;stroke-linejoin:miter;stroke-width:0.8;"/>
   </g>
  </g>
  <g id="axes_2">
   <g id="patch_7">
    <path d="M 57.6 213.662118 
L 414.72 213.662118 
L 414.72 135.393882 
L 57.6 135.393882 
z
" style="fill:#1a1a1a;"/>
   </g>
   <g id="matplotlib.axis_3">
    <g id="xtick_7">
     <g id="line2d_11">
      <g>
       <use style="fill:#ffffff;stroke:#ffffff;stroke-width:0.8;" x="73.832727" xlink:href="#mb1f9ad86b6" y="213.662118"/>
      </g>
     </g>
     <g id="text_11">
      <!-- 0 -->
      <g style="fill:#ffffff;" transform="translate(71.052259 227.908993)scale(0.1 -0.1)">
       <use xlink:href="#LiberationSans-48"/>
      </g>
     </g>
    </g>
    <g id="xtick_8">
     <g id="line2d_12">
      <g>
       <use style="fill:#ffffff;stroke:#ffffff;stroke-width:0.8;" x="138.776625" xlink:href="#mb1f9ad86b6" y="213.662118"/>
      </g>
     </g>
     <g id="text_12">
      <!-- 200 -->
      <g style="fill:#ffffff;" transform="translate(130.435219 227.908993)scale(0.1 -0.1)">
       <use xlink:href="#LiberationSans-50"/>
       <use x="55.615234" xlink:href="#LiberationSans-48"/>
       <use x="111.230469" xlink:href="#LiberationSans-48"/>
      </g>
     </g>
    </g>
    <g id="xtick_9">
     <g id="line2d_13">
      <g>
       <use style="fill:#ffffff;stroke:#ffffff;stroke-width:0.8;" x="203.720523" xlink:href="#mb1f9ad86b6" y="213.662118"/>
      </g>
     </g>
     <g id="text_13">
      <!-- 400 -->
      <g style="fill:#ffffff;" transform="translate(195.379117 227.908993)scale(0.1 -0.1)">
       <use xlink:href="#LiberationSans-52"/>
       <use x="55.615234" xlink:href="#LiberationSans-48"/>
       <use x="111.230469" xlink:href="#LiberationSans-48"/>
      </g>
     </g>
    </g>
    <g id="xtick_10">
     <g id="line2d_14">
      <g>
       <use style="fill:#ffffff;stroke:#ffffff;stroke-width:0.8;" x="268.664421" xlink:href="#mb1f9ad86b6" y="213.662118"/>
      </g>
     </g>
     <g id="text_14">
      <!-- 600 -->
      <g style="fill:#ffffff;" transform="translate(260.323015 227.908993)scale(0.1 -0.1)">
       <use xlink:href="#LiberationSans-54"/>
       <use x="55.615234" xlink:href="#LiberationSans-48"/>
       <use x="111.230469" xlink:href="#LiberationSans-48"/>
      </g>
     </g>
    </g>
    <g id="xtick_11">
     <g id="line2d_15">
      <g>
       <use style="fill:#ffffff;stroke:#ffffff;stroke-width:0.8;" x="333.608319" xlink:href="#mb1f9ad86b6" y="213.662118"/>
      </g>
     </g>
     <g id="text_15">
      <!-- 800 -->
      <g style="fill:#ffffff;" transform="translate(325.266913 227.908993)scale(0.1 -0.1)">
       <use xlink:href="#LiberationSans-56"/>
       <use x="55.615234" xlink:href="#LiberationSans-48"/>
       <use x="111.230469" xlink:href="#LiberationSans-48"/>
      </g>
     </g>
    </g>
    <g id="xtick_12">
     <g id="line2d_16">
      <g>
       <use style="fill:#ffffff;stroke:#ffffff;stroke-width:0.8;" x="398.552217" xlink:href="#mb1f9ad86b6" y="213.662118"/>
      </g>
     </g>
     <g id="text_16">
      <!-- 1000 -->
      <g style="fill:#ffffff;" transform="translate(387.430342 227.908993)scale(0.1 -0.1)">
       <use xlink:href="#LiberationSans-49"/>
       <use x="55.615234" xlink:href="#LiberationSans-48"/>
       <use x="111.230469" xlink:href="#LiberationSans-48"/>
       <use x="166.845703" xlink:href="#LiberationSans-48"/>
      </g>
     </g>
    </g>
    <g id="text_17">
     <!-- $t$ (ms) -->
     <g style="fill:#ffffff;" transform="translate(222.81 241.283993)scale(0.1 -0.1)">
      <defs>
       <path d="M 42.28125 54.6875 
L 40.921875 47.703125 
L 23 47.703125 
L 17.1875 18.015625 
Q 16.890625 16.359375 16.75 15.234375 
Q 16.609375 14.109375 16.609375 13.484375 
Q 16.609375 10.359375 18.484375 8.9375 
Q 20.359375 7.515625 24.515625 7.515625 
L 33.59375 7.515625 
L 32.078125 0 
L 23.484375 0 
Q 15.484375 0 11.546875 3.125 
Q 7.625 6.25 7.625 12.59375 
Q 7.625 13.71875 7.765625 15.0625 
Q 7.90625 16.40625 8.203125 18.015625 
L 14.015625 47.703125 
L 6.390625 47.703125 
L 7.8125 54.6875 
L 15.28125 54.6875 
L 18.3125 70.21875 
L 27.296875 70.21875 
L 24.3125 54.6875 
z
" id="DejaVuSans-Oblique-116"/>
       <path id="LiberationSans-32"/>
       <path d="M 6.203125 25.984375 
Q 6.203125 32.765625 7.21875 38.96875 
Q 8.25 45.171875 10.4375 50.875 
Q 12.640625 56.59375 16.0625 61.953125 
Q 19.484375 67.328125 24.21875 72.46875 
L 32.71875 72.46875 
Q 28.125 67.328125 24.78125 61.9375 
Q 21.4375 56.546875 19.28125 50.796875 
Q 17.140625 45.0625 16.09375 38.859375 
Q 15.046875 32.671875 15.046875 25.875 
Q 15.046875 19.09375 16.09375 12.890625 
Q 17.140625 6.6875 19.28125 0.921875 
Q 21.4375 -4.828125 24.78125 -10.203125 
Q 28.125 -15.578125 32.71875 -20.703125 
L 24.21875 -20.703125 
Q 19.484375 -15.578125 16.0625 -10.203125 
Q 12.640625 -4.828125 10.4375 0.875 
Q 8.25 6.59375 7.21875 12.765625 
Q 6.203125 18.953125 6.203125 25.78125 
z
" id="LiberationSans-40"/>
       <path d="M 37.5 0 
L 37.5 33.5 
Q 37.5 37.359375 37.015625 39.9375 
Q 36.53125 42.53125 35.375 44.109375 
Q 34.234375 45.703125 32.375 46.359375 
Q 30.515625 47.015625 27.828125 47.015625 
Q 25.046875 47.015625 22.796875 45.921875 
Q 20.5625 44.828125 18.96875 42.75 
Q 17.390625 40.671875 16.53125 37.625 
Q 15.671875 34.578125 15.671875 30.609375 
L 15.671875 0 
L 6.9375 0 
L 6.9375 41.546875 
Q 6.9375 43.21875 6.90625 45.046875 
Q 6.890625 46.875 6.828125 48.5 
Q 6.78125 50.140625 6.734375 51.3125 
Q 6.6875 52.484375 6.640625 52.828125 
L 14.9375 52.828125 
Q 14.984375 52.59375 15.03125 51.515625 
Q 15.09375 50.4375 15.15625 49.046875 
Q 15.234375 47.65625 15.28125 46.21875 
Q 15.328125 44.78125 15.328125 43.796875 
L 15.484375 43.796875 
Q 16.65625 46.09375 18.015625 47.953125 
Q 19.390625 49.8125 21.21875 51.09375 
Q 23.046875 52.390625 25.40625 53.09375 
Q 27.78125 53.8125 30.90625 53.8125 
Q 36.921875 53.8125 40.40625 51.421875 
Q 43.890625 49.03125 45.265625 43.796875 
L 45.40625 43.796875 
Q 46.578125 46.09375 48.046875 47.953125 
Q 49.515625 49.8125 51.46875 51.09375 
Q 53.421875 52.390625 55.859375 53.09375 
Q 58.296875 53.8125 61.421875 53.8125 
Q 65.4375 53.8125 68.328125 52.734375 
Q 71.234375 51.65625 73.09375 49.40625 
Q 74.953125 47.171875 75.828125 43.625 
Q 76.703125 40.09375 76.703125 35.203125 
L 76.703125 0 
L 68.015625 0 
L 68.015625 33.5 
Q 68.015625 37.359375 67.53125 39.9375 
Q 67.046875 42.53125 65.890625 44.109375 
Q 64.75 45.703125 62.890625 46.359375 
Q 61.03125 47.015625 58.34375 47.015625 
Q 55.5625 47.015625 53.3125 45.96875 
Q 51.078125 44.921875 49.484375 42.875 
Q 47.90625 40.828125 47.046875 37.75 
Q 46.1875 34.671875 46.1875 30.609375 
L 46.1875 0 
z
" id="LiberationSans-109"/>
       <path d="M 46.390625 14.59375 
Q 46.390625 10.890625 44.9375 7.984375 
Q 43.5 5.078125 40.765625 3.09375 
Q 38.03125 1.125 34.046875 0.0625 
Q 30.078125 -0.984375 24.953125 -0.984375 
Q 20.359375 -0.984375 16.671875 -0.265625 
Q 12.984375 0.4375 10.203125 2 
Q 7.421875 3.5625 5.53125 6.125 
Q 3.65625 8.6875 2.78125 12.40625 
L 10.546875 13.921875 
Q 11.671875 9.671875 15.1875 7.6875 
Q 18.703125 5.71875 24.953125 5.71875 
Q 27.78125 5.71875 30.140625 6.109375 
Q 32.515625 6.5 34.21875 7.453125 
Q 35.9375 8.40625 36.890625 9.984375 
Q 37.84375 11.578125 37.84375 13.921875 
Q 37.84375 16.3125 36.71875 17.84375 
Q 35.59375 19.390625 33.59375 20.40625 
Q 31.59375 21.4375 28.734375 22.1875 
Q 25.875 22.953125 22.46875 23.875 
Q 19.28125 24.703125 16.15625 25.734375 
Q 13.03125 26.765625 10.515625 28.4375 
Q 8.015625 30.125 6.453125 32.609375 
Q 4.890625 35.109375 4.890625 38.875 
Q 4.890625 46.09375 10.03125 49.875 
Q 15.1875 53.65625 25.046875 53.65625 
Q 33.796875 53.65625 38.9375 50.578125 
Q 44.09375 47.515625 45.453125 40.71875 
L 37.546875 39.75 
Q 37.109375 41.796875 35.9375 43.1875 
Q 34.765625 44.578125 33.109375 45.4375 
Q 31.453125 46.296875 29.375 46.65625 
Q 27.296875 47.015625 25.046875 47.015625 
Q 19.09375 47.015625 16.25 45.203125 
Q 13.421875 43.40625 13.421875 39.75 
Q 13.421875 37.59375 14.46875 36.203125 
Q 15.53125 34.8125 17.40625 33.859375 
Q 19.28125 32.90625 21.921875 32.203125 
Q 24.5625 31.5 27.734375 30.71875 
Q 29.828125 30.171875 32.03125 29.5625 
Q 34.234375 28.953125 36.296875 28.09375 
Q 38.375 27.25 40.203125 26.09375 
Q 42.046875 24.953125 43.40625 23.34375 
Q 44.78125 21.734375 45.578125 19.578125 
Q 46.390625 17.4375 46.390625 14.59375 
z
" id="LiberationSans-115"/>
       <path d="M 27.09375 25.78125 
Q 27.09375 18.953125 26.0625 12.765625 
Q 25.046875 6.59375 22.84375 0.875 
Q 20.65625 -4.828125 17.234375 -10.203125 
Q 13.8125 -15.578125 9.078125 -20.703125 
L 0.59375 -20.703125 
Q 5.171875 -15.578125 8.515625 -10.203125 
Q 11.859375 -4.828125 14 0.921875 
Q 16.15625 6.6875 17.203125 12.890625 
Q 18.265625 19.09375 18.265625 25.875 
Q 18.265625 32.671875 17.203125 38.859375 
Q 16.15625 45.0625 14 50.796875 
Q 11.859375 56.546875 8.515625 61.9375 
Q 5.171875 67.328125 0.59375 72.46875 
L 9.078125 72.46875 
Q 13.8125 67.328125 17.234375 61.953125 
Q 20.65625 56.59375 22.84375 50.875 
Q 25.046875 45.171875 26.0625 38.96875 
Q 27.09375 32.765625 27.09375 25.984375 
z
" id="LiberationSans-41"/>
      </defs>
      <use transform="translate(0 0.53125)" xlink:href="#DejaVuSans-Oblique-116"/>
      <use transform="translate(39.208984 0.53125)" xlink:href="#LiberationSans-32"/>
      <use transform="translate(66.992188 0.53125)" xlink:href="#LiberationSans-40"/>
      <use transform="translate(100.292969 0.53125)" xlink:href="#LiberationSans-109"/>
      <use transform="translate(183.59375 0.53125)" xlink:href="#LiberationSans-115"/>
      <use transform="translate(233.59375 0.53125)" xlink:href="#LiberationSans-41"/>
     </g>
    </g>
   </g>
   <g id="matplotlib.axis_4">
    <g id="ytick_4">
     <g id="line2d_17">
      <g>
       <use style="fill:#ffffff;stroke:#ffffff;stroke-width:0.8;" x="57.6" xlink:href="#mcaeb48660d" y="201.590131"/>
      </g>
     </g>
     <g id="text_18">
      <!-- −1 -->
      <g style="fill:#ffffff;" transform="translate(39.198437 205.213569)scale(0.1 -0.1)">
       <use xlink:href="#LiberationSans-8722"/>
       <use x="58.398438" xlink:href="#LiberationSans-49"/>
      </g>
     </g>
    </g>
    <g id="ytick_5">
     <g id="line2d_18">
      <g>
       <use style="fill:#ffffff;stroke:#ffffff;stroke-width:0.8;" x="57.6" xlink:href="#mcaeb48660d" y="154.772652"/>
      </g>
     </g>
     <g id="text_19">
      <!-- 0 -->
      <g style="fill:#ffffff;" transform="translate(45.039062 158.396089)scale(0.1 -0.1)">
       <use xlink:href="#LiberationSans-48"/>
      </g>
     </g>
    </g>
    <g id="text_20">
     <!-- $u$ -->
     <g style="fill:#ffffff;" transform="translate(33.123437 177.728)rotate(-90)scale(0.1 -0.1)">
      <use transform="translate(0 0.3125)" xlink:href="#DejaVuSans-Oblique-117"/>
     </g>
    </g>
   </g>
   <g id="line2d_19">
    <path clip-path="url(#p50cc6face2)" d="M 73.832727 153.085333 
L 73.897671 143.793859 
L 73.962615 143.996831 
L 75.261493 147.657736 
L 76.560371 150.65503 
L 77.144866 151.820208 
L 77.20981 147.234179 
L 77.274754 147.40292 
L 78.573632 150.446405 
L 79.87251 152.9382 
L 80.262173 153.593616 
L 80.327117 149.156709 
L 80.392061 149.30632 
L 80.781724 150.17324 
L 80.846668 169.482099 
L 80.911612 160.027475 
L 82.600153 160.981115 
L 83.834088 161.536864 
L 83.899031 156.795636 
L 83.963975 156.869239 
L 85.392741 158.3155 
L 85.522629 158.431878 
L 85.587573 153.780062 
L 85.652517 153.88367 
L 87.016339 155.836378 
L 88.445104 157.48661 
L 88.510048 148.151343 
L 88.574992 148.310958 
L 89.87387 151.189843 
L 91.172748 153.546876 
L 91.887131 154.655815 
L 91.952075 153.601287 
L 92.017019 153.706674 
L 93.380841 155.692907 
L 93.445784 146.375488 
L 93.510728 146.552773 
L 94.809606 149.750363 
L 96.108484 152.368329 
L 96.822867 153.600033 
L 96.887811 148.996294 
L 96.952755 149.147502 
L 98.251633 151.874748 
L 99.550511 154.107628 
L 99.680399 154.307328 
L 99.745343 140.23604 
L 99.87523 159.689039 
L 101.563772 160.720163 
L 102.927594 161.377931 
L 102.992537 156.638285 
L 103.057481 156.713454 
L 104.486247 158.19048 
L 104.551191 158.250204 
L 104.616135 148.907338 
L 104.681079 149.059431 
L 105.979957 151.802642 
L 106.434564 152.640292 
L 106.499508 165.618228 
L 106.564452 165.604045 
L 106.954115 165.521859 
L 107.019059 160.74098 
L 107.084003 160.775326 
L 108.902432 161.609923 
L 109.811647 161.947352 
L 109.876591 157.20204 
L 109.941534 157.271599 
L 110.590973 157.930236 
L 110.655917 148.590555 
L 110.720861 148.7458 
L 112.019739 151.545862 
L 113.318617 153.838359 
L 114.682439 155.799649 
L 114.747383 155.883162 
L 114.812327 151.256706 
L 114.877271 151.385422 
L 116.176149 153.707002 
L 116.6957 154.513187 
L 116.760644 145.207506 
L 116.825588 145.396412 
L 118.124466 148.803616 
L 119.423344 151.593198 
L 120.072783 152.792206 
L 120.137726 148.196506 
L 120.20267 148.355671 
L 121.501548 151.226452 
L 122.735482 153.470156 
L 122.800426 144.174853 
L 122.86537 144.374035 
L 124.164248 147.966564 
L 125.463126 150.907878 
L 126.047621 152.051293 
L 126.112565 142.770108 
L 126.177509 142.983267 
L 127.476387 146.8279 
L 128.775265 149.975618 
L 128.905153 150.257137 
L 128.970097 145.686661 
L 129.03504 145.8708 
L 130.333918 149.192011 
L 131.632796 151.911189 
L 131.957516 152.510169 
L 132.02246 150.718217 
L 132.087404 150.852291 
L 133.386282 153.270512 
L 133.775945 153.906575 
L 133.840889 144.606929 
L 133.905833 144.801812 
L 134.035721 145.185779 
L 134.165608 158.297141 
L 135.659318 159.508497 
L 135.919094 159.69217 
L 135.984038 155.994239 
L 136.048981 156.075816 
L 137.477747 157.678764 
L 137.802467 157.996456 
L 137.867411 153.290456 
L 137.932354 153.398936 
L 138.841569 154.751506 
L 139.945615 155.24005 
L 140.465166 155.388263 
L 140.53011 146.001428 
L 140.595054 165.278778 
L 140.659998 165.19438 
L 142.153708 163.436945 
L 144.426744 162.810295 
L 145.011239 162.681593 
L 145.076183 160.759799 
L 145.141127 160.765322 
L 146.634837 160.878253 
L 146.699781 151.480603 
L 146.764725 151.578457 
L 148.128546 153.422702 
L 149.557312 154.981273 
L 151.051022 156.282631 
L 151.505629 156.622847 
L 151.570573 147.267539 
L 151.635517 147.407314 
L 152.934395 149.928341 
L 154.298217 152.085144 
L 155.662039 153.833415 
L 156.895973 155.128027 
L 156.960917 153.281392 
L 157.02586 153.361327 
L 158.454626 154.932018 
L 159.169009 155.596902 
L 159.233953 168.516785 
L 159.298897 154.333992 
L 159.363841 154.403454 
L 160.85755 155.823535 
L 162.416204 156.99525 
L 163.390362 157.59695 
L 163.455306 153.091574 
L 163.52025 153.173398 
L 164.949016 154.781202 
L 166.442726 156.123668 
L 167.546772 156.935248 
L 167.611716 147.576832 
L 167.67666 147.713529 
L 168.975538 150.179049 
L 170.33936 152.288364 
L 171.638237 154.269946 
L 171.898013 154.789952 
L 171.962957 145.516165 
L 172.027901 145.737222 
L 173.521611 150.403634 
L 174.106106 152.034151 
L 174.171049 148.466539 
L 174.235993 148.677711 
L 174.820488 150.223485 
L 176.119366 152.755689 
L 176.314198 153.093706 
L 176.379142 148.495005 
L 176.444086 148.651201 
L 177.742964 151.468411 
L 178.84701 153.457677 
L 178.911954 144.162499 
L 178.976898 144.361803 
L 180.275776 147.956549 
L 181.574654 150.899678 
L 182.6787 152.977858 
L 182.743644 149.346736 
L 182.808588 149.494456 
L 184.107466 152.15881 
L 184.432185 152.745714 
L 184.497129 148.317244 
L 184.562073 148.475208 
L 185.211512 149.970933 
L 185.276456 140.710447 
L 185.3414 140.944101 
L 185.536232 141.631203 
L 185.666119 161.056576 
L 187.549492 161.846073 
L 188.393763 162.132147 
L 188.458707 157.443512 
L 188.523651 157.510669 
L 190.017361 158.883618 
L 190.731743 159.436651 
L 190.796687 155.741263 
L 190.861631 155.825357 
L 191.576014 156.696957 
L 191.640958 147.369547 
L 191.705902 179.56929 
L 191.770846 179.416292 
L 192.160509 178.529743 
L 192.290397 173.583571 
L 193.654219 171.804807 
L 194.303658 171.080427 
L 194.433546 166.28176 
L 196.706582 165.664859 
L 196.83647 164.497724 
L 198.265236 164.437503 
L 198.330179 159.667413 
L 198.395123 159.712442 
L 199.629057 160.487723 
L 199.694001 151.122594 
L 199.758945 151.252645 
L 200.148609 152.006219 
L 200.213553 171.29684 
L 200.278496 171.226154 
L 201.707262 169.837194 
L 201.772206 169.781031 
L 201.83715 143.650373 
L 201.902094 143.854773 
L 203.200972 147.541428 
L 203.460747 148.194337 
L 203.525691 138.951529 
L 203.590635 139.202684 
L 203.785467 139.883696 
L 203.850411 171.780297 
L 203.915355 171.646097 
L 205.66884 168.287606 
L 207.032662 166.033786 
L 208.656259 164.989984 
L 209.50053 164.541981 
L 209.565474 155.107876 
L 209.630418 155.169638 
L 211.124127 156.432293 
L 212.747725 157.512333 
L 214.50121 158.412111 
L 215.475369 158.816453 
L 215.540312 144.671664 
L 215.605256 144.837268 
L 215.735144 145.163548 
L 215.800088 164.493619 
L 215.865032 164.461991 
L 217.748405 163.669767 
L 218.527732 163.403485 
L 218.592676 158.673566 
L 218.65762 158.699848 
L 220.735824 159.415997 
L 221.969758 159.744593 
L 222.034702 150.358224 
L 222.099646 150.467245 
L 223.463468 152.521972 
L 224.82729 154.187501 
L 226.256056 155.595038 
L 226.840551 156.087344 
L 226.905495 152.396648 
L 226.970438 152.485386 
L 228.33426 154.157845 
L 229.308419 155.154773 
L 229.373363 145.814073 
L 229.438307 145.968309 
L 229.568194 159.007192 
L 231.776287 159.672356 
L 233.724604 160.098087 
L 233.789548 150.7082 
L 233.854492 150.813739 
L 235.218313 152.802834 
L 236.582135 154.760503 
L 237.751125 156.933121 
L 237.816069 152.280368 
L 237.881013 152.442137 
L 239.244835 155.614931 
L 239.309779 152.013408 
L 239.374723 152.191006 
L 239.764386 152.944139 
L 240.413825 154.014589 
L 240.478769 144.713869 
L 240.543713 144.907687 
L 241.842591 148.403481 
L 243.141469 151.265595 
L 244.050684 152.954426 
L 244.115627 151.158053 
L 244.180571 151.287751 
L 245.479449 153.627036 
L 245.739225 154.041324 
L 245.804169 152.99291 
L 245.869113 153.10435 
L 247.232935 155.204673 
L 248.077205 156.300365 
L 248.142149 146.976901 
L 248.207093 147.148201 
L 249.505971 150.237859 
L 250.804849 152.767457 
L 251.64912 154.160256 
L 251.714064 144.858086 
L 251.779007 145.05047 
L 253.077885 148.520382 
L 254.376763 151.361305 
L 254.896315 152.347836 
L 254.961258 147.756557 
L 255.026202 147.9201 
L 256.32508 150.869836 
L 256.6498 151.519604 
L 256.714744 142.243709 
L 256.779688 142.462106 
L 258.078566 146.401209 
L 259.377443 149.626273 
L 260.091826 151.143606 
L 260.15677 146.731077 
L 260.221714 146.904824 
L 261.520592 150.038599 
L 261.715424 150.456918 
L 261.780368 141.191597 
L 261.845312 141.420463 
L 261.910256 141.647051 
L 262.040143 154.828485 
L 263.403965 156.60223 
L 264.832731 158.101221 
L 265.15745 158.398309 
L 265.222394 153.746827 
L 265.287338 153.850766 
L 266.65116 155.809706 
L 267.235655 156.531227 
L 267.300599 151.839806 
L 267.365543 151.96272 
L 268.664421 154.179654 
L 269.703523 155.660157 
L 269.898355 147.534594 
L 270.158131 148.187771 
L 270.223074 167.516386 
L 270.288018 167.483315 
L 270.937457 167.170179 
L 271.002401 157.738559 
L 271.067345 157.802779 
L 272.561055 159.11571 
L 274.054764 160.158877 
L 274.119708 150.79702 
L 274.184652 150.93031 
L 275.48353 153.334388 
L 276.847352 155.391138 
L 278.081286 156.914182 
L 278.14623 153.243893 
L 278.211174 153.352836 
L 279.574996 155.406092 
L 279.834771 155.750623 
L 279.899715 152.091911 
L 279.964659 152.212317 
L 281.263537 154.384006 
L 282.497471 156.081325 
L 282.562415 146.76004 
L 282.627359 146.933499 
L 283.926237 150.062076 
L 285.225115 152.623538 
L 285.744666 153.513023 
L 285.80961 148.851634 
L 285.874554 149.004281 
L 287.173432 151.757488 
L 287.628039 152.598191 
L 287.692983 147.945904 
L 287.757927 148.107563 
L 289.056805 151.023318 
L 289.771188 152.395127 
L 289.836132 143.11052 
L 289.901075 143.320292 
L 289.966019 143.527977 
L 290.095907 156.672166 
L 291.524673 158.157346 
L 292.563775 159.049722 
L 292.628719 157.192701 
L 292.693663 157.262353 
L 294.122429 158.630981 
L 294.252317 158.741112 
L 294.317261 154.086219 
L 294.382204 154.186781 
L 295.681082 156.000561 
L 295.746026 151.31442 
L 295.81097 151.442562 
L 297.109848 153.753784 
L 297.759287 154.747186 
L 297.824231 145.439176 
L 297.889175 145.625778 
L 299.188053 148.991404 
L 300.486931 151.746946 
L 301.785809 154.002993 
L 302.240416 154.691885 
L 302.30536 145.384426 
L 302.370304 145.571572 
L 303.669182 148.947024 
L 304.96806 151.710611 
L 305.357723 152.437516 
L 305.422667 147.845344 
L 305.487611 148.008004 
L 306.786489 150.941806 
L 307.825591 152.901045 
L 307.890535 148.304261 
L 307.955479 148.462354 
L 309.254357 151.313797 
L 309.838852 152.422275 
L 309.903796 143.137399 
L 309.96874 143.346903 
L 310.033684 143.554323 
L 310.163572 156.697991 
L 311.592337 158.17807 
L 312.371664 158.858211 
L 312.436608 154.143636 
L 312.501552 154.243627 
L 313.865374 156.128153 
L 315.29414 157.720765 
L 315.359083 157.785163 
L 315.424027 148.446925 
L 315.488971 148.603599 
L 316.787849 151.429438 
L 318.086727 153.743039 
L 318.411447 154.252679 
L 318.476391 150.608872 
L 318.541334 150.744034 
L 319.840212 153.181878 
L 320.944259 154.903269 
L 321.009203 145.593707 
L 321.074146 145.77877 
L 322.373024 149.116664 
L 323.671902 151.8495 
L 324.516173 153.354202 
L 324.581117 145.010197 
L 324.646061 145.201067 
L 325.879995 148.487409 
L 325.944939 167.813043 
L 326.009883 158.375026 
L 327.568536 159.616372 
L 329.192134 160.62867 
L 329.841573 160.96784 
L 329.906517 156.232274 
L 329.97146 156.311482 
L 331.400226 157.86789 
L 331.660002 158.115892 
L 331.724946 148.774364 
L 331.78989 148.927779 
L 333.088768 151.694854 
L 333.997982 153.672945 
L 334.647421 155.282468 
L 334.712365 146.127822 
L 334.777309 146.374864 
L 336.206075 151.364405 
L 337.115289 153.916664 
L 337.180233 154.047548 
L 337.245177 144.775134 
L 337.310121 144.996978 
L 338.608999 148.998248 
L 339.518213 151.359253 
L 339.583157 146.973213 
L 339.648101 147.173185 
L 340.946979 150.779976 
L 341.141811 151.261437 
L 341.206755 146.709602 
L 341.271699 146.912198 
L 342.570577 150.566297 
L 343.414847 152.578248 
L 343.479791 143.320455 
L 343.544735 143.556773 
L 344.324062 146.215707 
L 344.389006 141.655562 
L 344.45395 141.908446 
L 345.687884 146.262528 
L 346.986762 150.034392 
L 347.11665 150.371732 
L 347.181593 141.135894 
L 347.246537 141.393949 
L 348.480471 145.83706 
L 349.519574 148.976571 
L 349.584518 145.413898 
L 349.649462 145.629386 
L 349.844293 146.26307 
L 349.909237 210.104471 
L 349.974181 209.676276 
L 350.688564 205.23822 
L 350.818452 199.820169 
L 351.79261 195.258416 
L 351.922498 168.884657 
L 353.026544 168.601057 
L 353.091488 166.677633 
L 353.156432 166.681543 
L 354.715086 166.764558 
L 354.780029 162.225233 
L 354.844973 162.273446 
L 355.884076 162.982736 
L 355.94902 159.280698 
L 356.013964 159.358209 
L 356.988122 160.432485 
L 357.053066 151.09654 
L 357.182954 164.147846 
L 358.157112 164.554964 
L 358.222056 160.037624 
L 358.287 160.107604 
L 359.715766 161.482666 
L 361.274419 162.674977 
L 361.339363 162.718714 
L 361.404307 157.994361 
L 361.469251 158.084671 
L 362.638241 159.564923 
L 362.703185 150.237611 
L 362.768129 150.405102 
L 364.067007 153.426045 
L 364.586558 154.475089 
L 364.651502 150.058046 
L 364.716446 150.227324 
L 366.015324 153.280493 
L 366.210155 153.572939 
L 366.275099 144.246547 
L 366.340043 144.414375 
L 366.404987 163.749324 
L 366.469931 163.721951 
L 368.418248 162.773659 
L 369.002743 162.447146 
L 369.067687 157.642167 
L 369.132631 157.652081 
L 369.392406 157.742647 
L 369.45735 170.669814 
L 369.522294 170.605366 
L 370.171733 169.995128 
L 370.236677 143.862339 
L 370.301621 144.06463 
L 371.600499 147.713245 
L 372.184994 149.131619 
L 372.249938 144.572342 
L 372.314882 144.767568 
L 373.61376 148.288761 
L 374.717806 150.775119 
L 374.78275 141.506632 
L 374.847694 141.732363 
L 376.081628 145.618933 
L 377.380506 148.9858 
L 378.094889 150.569848 
L 378.159833 145.99626 
L 378.224777 146.177319 
L 379.523655 149.442968 
L 380.302981 151.11087 
L 380.367925 146.531899 
L 380.432869 146.707627 
L 381.731747 149.877148 
L 382.381186 151.23946 
L 382.44613 141.966353 
L 382.511074 142.18751 
L 383.809952 146.176388 
L 385.10883 149.442206 
L 386.212876 151.748239 
L 386.27782 147.162926 
L 386.342764 147.332376 
L 387.641642 150.388649 
L 388.226137 151.576754 
L 388.291081 142.300291 
L 388.356025 142.518124 
L 389.654903 146.447073 
L 390.953781 149.663824 
L 392.187715 152.177927 
L 392.252659 151.148053 
L 392.317602 151.27785 
L 393.61648 153.61893 
L 394.720527 155.271994 
L 394.785471 145.958763 
L 394.850414 146.140194 
L 396.149292 149.412573 
L 397.253339 151.723239 
L 397.318283 147.079658 
L 397.383226 147.249937 
L 398.487273 149.898699 
L 398.487273 149.898699 
" style="fill:none;stroke:#9a72ac;stroke-linecap:round;stroke-width:1.5;"/>
   </g>
   <g id="patch_8">
    <path d="M 57.6 213.662118 
L 57.6 135.393882 
" style="fill:none;stroke:#ffffff;stroke-linecap:square;stroke-linejoin:miter;stroke-width:0.8;"/>
   </g>
   <g id="patch_9">
    <path d="M 414.72 213.662118 
L 414.72 135.393882 
" style="fill:none;stroke:#ffffff;stroke-linecap:square;stroke-linejoin:miter;stroke-width:0.8;"/>
   </g>
   <g id="patch_10">
    <path d="M 57.6 213.662118 
L 414.72 213.662118 
" style="fill:none;stroke:#ffffff;stroke-linecap:square;stroke-linejoin:miter;stroke-width:0.8;"/>
   </g>
   <g id="patch_11">
    <path d="M 57.6 135.393882 
L 414.72 135.393882 
" style="fill:none;stroke:#ffffff;stroke-linecap:square;stroke-linejoin:miter;stroke-width:0.8;"/>
   </g>
  </g>
  <g id="text_21">
   <!-- M2 - $u$ -->
   <g style="fill:#ffffff;" transform="translate(212.88 15.60825)scale(0.12 -0.12)">
    <defs>
     <path d="M 66.703125 0 
L 66.703125 45.90625 
Q 66.703125 48.390625 66.75 50.96875 
Q 66.796875 53.5625 66.890625 55.71875 
Q 67 58.203125 67.140625 60.546875 
Q 66.453125 58.0625 65.71875 55.609375 
Q 65.09375 53.515625 64.328125 51.140625 
Q 63.578125 48.78125 62.84375 46.875 
L 45.0625 0 
L 38.53125 0 
L 20.515625 46.875 
Q 20.21875 47.609375 19.890625 48.578125 
Q 19.578125 49.5625 19.203125 50.65625 
Q 18.84375 51.765625 18.46875 52.90625 
Q 18.109375 54.046875 17.78125 55.171875 
Q 16.9375 57.765625 16.15625 60.546875 
Q 16.21875 57.8125 16.3125 55.125 
Q 16.40625 52.828125 16.453125 50.3125 
Q 16.5 47.796875 16.5 45.90625 
L 16.5 0 
L 8.203125 0 
L 8.203125 68.796875 
L 20.453125 68.796875 
L 38.765625 21.09375 
Q 39.109375 20.125 39.59375 18.578125 
Q 40.09375 17.046875 40.53125 15.421875 
Q 40.96875 13.8125 41.328125 12.375 
Q 41.703125 10.9375 41.84375 10.15625 
Q 42 10.9375 42.390625 12.40625 
Q 42.78125 13.875 43.28125 15.484375 
Q 43.796875 17.09375 44.28125 18.609375 
Q 44.78125 20.125 45.171875 21.09375 
L 63.140625 68.796875 
L 75.09375 68.796875 
L 75.09375 0 
z
" id="LiberationSans-77"/>
     <path d="M 4.4375 22.65625 
L 4.4375 30.46875 
L 28.859375 30.46875 
L 28.859375 22.65625 
z
" id="LiberationSans-45"/>
    </defs>
    <use transform="translate(0 0.171875)" xlink:href="#LiberationSans-77"/>
    <use transform="translate(83.300781 0.171875)" xlink:href="#LiberationSans-50"/>
    <use transform="translate(138.916016 0.171875)" xlink:href="#LiberationSans-32"/>
    <use transform="translate(166.699219 0.171875)" xlink:href="#LiberationSans-45"/>
    <use transform="translate(200 0.171875)" xlink:href="#LiberationSans-32"/>
    <use transform="translate(227.783203 0.171875)" xlink:href="#DejaVuSans-Oblique-117"/>
   </g>
  </g>
 </g>
 <defs>
  <clipPath id="p90c21f1e48">
   <rect height="78.268235" width="357.12" x="57.6" y="41.472"/>
  </clipPath>
  <clipPath id="p50cc6face2">
   <rect height="78.268235" width="357.12" x="57.6" y="135.393882"/>
  </clipPath>
 </defs>
</svg>
