<?xml version="1.0" encoding="utf-8" standalone="no"?>
<!DOCTYPE svg PUBLIC "-//W3C//DTD SVG 1.1//EN"
  "http://www.w3.org/Graphics/SVG/1.1/DTD/svg11.dtd">
<!-- Created with matplotlib (https://matplotlib.org/) -->
<svg height="345.6pt" version="1.1" viewBox="0 0 460.8 345.6" width="460.8pt" xmlns="http://www.w3.org/2000/svg" xmlns:xlink="http://www.w3.org/1999/xlink">
 <metadata>
  <rdf:RDF xmlns:cc="http://creativecommons.org/ns#" xmlns:dc="http://purl.org/dc/elements/1.1/" xmlns:rdf="http://www.w3.org/1999/02/22-rdf-syntax-ns#">
   <cc:Work>
    <dc:type rdf:resource="http://purl.org/dc/dcmitype/StillImage"/>
    <dc:date>2022-05-05T12:08:46.274070</dc:date>
    <dc:format>image/svg+xml</dc:format>
    <dc:creator>
     <cc:Agent>
      <dc:title>Matplotlib v3.3.4, https://matplotlib.org/</dc:title>
     </cc:Agent>
    </dc:creator>
   </cc:Work>
  </rdf:RDF>
 </metadata>
 <defs>
  <style type="text/css">*{stroke-linecap:butt;stroke-linejoin:round;}</style>
 </defs>
 <g id="figure_1">
  <g id="patch_1">
   <path d="M 0 345.6 
L 460.8 345.6 
L 460.8 0 
L 0 0 
z
" style="fill:#262626;"/>
  </g>
  <g id="axes_1">
   <g id="patch_2">
    <path d="M 57.6 162.432 
L 414.72 162.432 
L 414.72 41.472 
L 57.6 41.472 
z
" style="fill:#1a1a1a;"/>
   </g>
   <g id="matplotlib.axis_1">
    <g id="xtick_1">
     <g id="line2d_1">
      <defs>
       <path d="M 0 0 
L 0 3.5 
" id="md0fc031d1e" style="stroke:#ffffff;stroke-width:0.8;"/>
      </defs>
      <g>
       <use style="fill:#ffffff;stroke:#ffffff;stroke-width:0.8;" x="73.832727" xlink:href="#md0fc031d1e" y="162.432"/>
      </g>
     </g>
     <g id="text_1">
      <!-- 0 -->
      <g style="fill:#ffffff;" transform="translate(71.052259 176.678875)scale(0.1 -0.1)">
       <defs>
        <path d="M 51.703125 34.421875 
Q 51.703125 24.515625 49.828125 17.75 
Q 47.953125 10.984375 44.703125 6.8125 
Q 41.453125 2.640625 37.0625 0.828125 
Q 32.671875 -0.984375 27.6875 -0.984375 
Q 22.65625 -0.984375 18.3125 0.828125 
Q 13.96875 2.640625 10.765625 6.78125 
Q 7.5625 10.9375 5.734375 17.703125 
Q 3.90625 24.46875 3.90625 34.421875 
Q 3.90625 44.828125 5.734375 51.640625 
Q 7.5625 58.453125 10.78125 62.5 
Q 14.015625 66.546875 18.40625 68.1875 
Q 22.796875 69.828125 27.984375 69.828125 
Q 32.90625 69.828125 37.21875 68.1875 
Q 41.546875 66.546875 44.765625 62.5 
Q 48 58.453125 49.84375 51.640625 
Q 51.703125 44.828125 51.703125 34.421875 
z
M 42.78125 34.421875 
Q 42.78125 42.625 41.796875 48.0625 
Q 40.828125 53.515625 38.921875 56.765625 
Q 37.015625 60.015625 34.25 61.359375 
Q 31.5 62.703125 27.984375 62.703125 
Q 24.265625 62.703125 21.4375 61.328125 
Q 18.609375 59.96875 16.671875 56.71875 
Q 14.75 53.46875 13.765625 48.015625 
Q 12.796875 42.578125 12.796875 34.421875 
Q 12.796875 26.515625 13.796875 21.09375 
Q 14.796875 15.671875 16.71875 12.375 
Q 18.65625 9.078125 21.4375 7.640625 
Q 24.21875 6.203125 27.78125 6.203125 
Q 31.25 6.203125 34.03125 7.640625 
Q 36.8125 9.078125 38.734375 12.375 
Q 40.671875 15.671875 41.71875 21.09375 
Q 42.78125 26.515625 42.78125 34.421875 
z
" id="LiberationSans-48"/>
       </defs>
       <use xlink:href="#LiberationSans-48"/>
      </g>
     </g>
    </g>
    <g id="xtick_2">
     <g id="line2d_2">
      <g>
       <use style="fill:#ffffff;stroke:#ffffff;stroke-width:0.8;" x="138.776625" xlink:href="#md0fc031d1e" y="162.432"/>
      </g>
     </g>
     <g id="text_2">
      <!-- 200 -->
      <g style="fill:#ffffff;" transform="translate(130.435219 176.678875)scale(0.1 -0.1)">
       <defs>
        <path d="M 5.03125 0 
L 5.03125 6.203125 
Q 7.515625 11.921875 11.109375 16.28125 
Q 14.703125 20.65625 18.65625 24.1875 
Q 22.609375 27.734375 26.484375 30.765625 
Q 30.375 33.796875 33.5 36.8125 
Q 36.625 39.84375 38.546875 43.15625 
Q 40.484375 46.484375 40.484375 50.6875 
Q 40.484375 53.609375 39.59375 55.828125 
Q 38.71875 58.0625 37.0625 59.5625 
Q 35.40625 61.078125 33.078125 61.828125 
Q 30.765625 62.59375 27.9375 62.59375 
Q 25.296875 62.59375 22.96875 61.859375 
Q 20.65625 61.140625 18.84375 59.671875 
Q 17.046875 58.203125 15.890625 56.03125 
Q 14.75 53.859375 14.40625 50.984375 
L 5.421875 51.8125 
Q 5.859375 55.515625 7.46875 58.78125 
Q 9.078125 62.0625 11.90625 64.53125 
Q 14.75 67 18.71875 68.40625 
Q 22.703125 69.828125 27.9375 69.828125 
Q 33.0625 69.828125 37.0625 68.609375 
Q 41.0625 67.390625 43.8125 64.984375 
Q 46.578125 62.59375 48.046875 59.078125 
Q 49.515625 55.5625 49.515625 50.984375 
Q 49.515625 47.515625 48.265625 44.390625 
Q 47.015625 41.265625 44.9375 38.421875 
Q 42.875 35.59375 40.140625 32.953125 
Q 37.40625 30.328125 34.421875 27.8125 
Q 31.453125 25.296875 28.421875 22.828125 
Q 25.390625 20.359375 22.71875 17.859375 
Q 20.0625 15.375 17.96875 12.8125 
Q 15.875 10.25 14.703125 7.46875 
L 50.59375 7.46875 
L 50.59375 0 
z
" id="LiberationSans-50"/>
       </defs>
       <use xlink:href="#LiberationSans-50"/>
       <use x="55.615234" xlink:href="#LiberationSans-48"/>
       <use x="111.230469" xlink:href="#LiberationSans-48"/>
      </g>
     </g>
    </g>
    <g id="xtick_3">
     <g id="line2d_3">
      <g>
       <use style="fill:#ffffff;stroke:#ffffff;stroke-width:0.8;" x="203.720523" xlink:href="#md0fc031d1e" y="162.432"/>
      </g>
     </g>
     <g id="text_3">
      <!-- 400 -->
      <g style="fill:#ffffff;" transform="translate(195.379117 176.678875)scale(0.1 -0.1)">
       <defs>
        <path d="M 43.015625 15.578125 
L 43.015625 0 
L 34.71875 0 
L 34.71875 15.578125 
L 2.296875 15.578125 
L 2.296875 22.40625 
L 33.796875 68.796875 
L 43.015625 68.796875 
L 43.015625 22.515625 
L 52.6875 22.515625 
L 52.6875 15.578125 
z
M 34.71875 58.890625 
Q 34.625 58.640625 34.234375 57.9375 
Q 33.84375 57.234375 33.34375 56.34375 
Q 32.859375 55.46875 32.34375 54.5625 
Q 31.84375 53.65625 31.453125 53.078125 
L 13.8125 27.09375 
Q 13.578125 26.703125 13.109375 26.0625 
Q 12.640625 25.4375 12.15625 24.78125 
Q 11.671875 24.125 11.171875 23.484375 
Q 10.6875 22.859375 10.40625 22.515625 
L 34.71875 22.515625 
z
" id="LiberationSans-52"/>
       </defs>
       <use xlink:href="#LiberationSans-52"/>
       <use x="55.615234" xlink:href="#LiberationSans-48"/>
       <use x="111.230469" xlink:href="#LiberationSans-48"/>
      </g>
     </g>
    </g>
    <g id="xtick_4">
     <g id="line2d_4">
      <g>
       <use style="fill:#ffffff;stroke:#ffffff;stroke-width:0.8;" x="268.664421" xlink:href="#md0fc031d1e" y="162.432"/>
      </g>
     </g>
     <g id="text_4">
      <!-- 600 -->
      <g style="fill:#ffffff;" transform="translate(260.323015 176.678875)scale(0.1 -0.1)">
       <defs>
        <path d="M 51.21875 22.515625 
Q 51.21875 17.328125 49.78125 13 
Q 48.34375 8.6875 45.53125 5.578125 
Q 42.71875 2.484375 38.5625 0.75 
Q 34.421875 -0.984375 29 -0.984375 
Q 23 -0.984375 18.5 1.3125 
Q 14.015625 3.609375 11.03125 7.921875 
Q 8.0625 12.25 6.5625 18.53125 
Q 5.078125 24.8125 5.078125 32.8125 
Q 5.078125 42 6.765625 48.921875 
Q 8.453125 55.859375 11.625 60.5 
Q 14.796875 65.140625 19.359375 67.484375 
Q 23.921875 69.828125 29.6875 69.828125 
Q 33.203125 69.828125 36.28125 69.09375 
Q 39.359375 68.359375 41.875 66.71875 
Q 44.390625 65.09375 46.28125 62.40625 
Q 48.1875 59.71875 49.3125 55.8125 
L 40.921875 54.296875 
Q 39.546875 58.734375 36.546875 60.71875 
Q 33.546875 62.703125 29.59375 62.703125 
Q 25.984375 62.703125 23.046875 60.984375 
Q 20.125 59.28125 18.0625 55.875 
Q 16.015625 52.484375 14.90625 47.359375 
Q 13.8125 42.234375 13.8125 35.40625 
Q 16.21875 39.84375 20.5625 42.15625 
Q 24.90625 44.484375 30.515625 44.484375 
Q 35.203125 44.484375 39.015625 42.96875 
Q 42.828125 41.453125 45.53125 38.59375 
Q 48.25 35.75 49.734375 31.671875 
Q 51.21875 27.59375 51.21875 22.515625 
z
M 42.28125 22.125 
Q 42.28125 25.6875 41.40625 28.5625 
Q 40.53125 31.453125 38.765625 33.46875 
Q 37.015625 35.5 34.421875 36.59375 
Q 31.84375 37.703125 28.421875 37.703125 
Q 26.03125 37.703125 23.578125 36.984375 
Q 21.140625 36.28125 19.15625 34.6875 
Q 17.1875 33.109375 15.9375 30.515625 
Q 14.703125 27.9375 14.703125 24.21875 
Q 14.703125 20.40625 15.671875 17.109375 
Q 16.65625 13.8125 18.484375 11.375 
Q 20.3125 8.9375 22.890625 7.515625 
Q 25.484375 6.109375 28.71875 6.109375 
Q 31.890625 6.109375 34.40625 7.203125 
Q 36.921875 8.296875 38.671875 10.375 
Q 40.4375 12.453125 41.359375 15.421875 
Q 42.28125 18.40625 42.28125 22.125 
z
" id="LiberationSans-54"/>
       </defs>
       <use xlink:href="#LiberationSans-54"/>
       <use x="55.615234" xlink:href="#LiberationSans-48"/>
       <use x="111.230469" xlink:href="#LiberationSans-48"/>
      </g>
     </g>
    </g>
    <g id="xtick_5">
     <g id="line2d_5">
      <g>
       <use style="fill:#ffffff;stroke:#ffffff;stroke-width:0.8;" x="333.608319" xlink:href="#md0fc031d1e" y="162.432"/>
      </g>
     </g>
     <g id="text_5">
      <!-- 800 -->
      <g style="fill:#ffffff;" transform="translate(325.266913 176.678875)scale(0.1 -0.1)">
       <defs>
        <path d="M 51.265625 19.1875 
Q 51.265625 14.796875 49.875 11.109375 
Q 48.484375 7.421875 45.625 4.734375 
Q 42.78125 2.046875 38.328125 0.53125 
Q 33.890625 -0.984375 27.828125 -0.984375 
Q 21.78125 -0.984375 17.359375 0.53125 
Q 12.9375 2.046875 10.03125 4.703125 
Q 7.125 7.375 5.734375 11.0625 
Q 4.34375 14.75 4.34375 19.09375 
Q 4.34375 22.859375 5.484375 25.78125 
Q 6.640625 28.71875 8.5625 30.828125 
Q 10.5 32.953125 12.96875 34.25 
Q 15.4375 35.546875 18.0625 35.984375 
L 18.0625 36.1875 
Q 15.1875 36.859375 12.90625 38.375 
Q 10.640625 39.890625 9.09375 42.015625 
Q 7.5625 44.140625 6.75 46.71875 
Q 5.953125 49.3125 5.953125 52.203125 
Q 5.953125 55.8125 7.34375 59 
Q 8.734375 62.203125 11.46875 64.625 
Q 14.203125 67.046875 18.25 68.4375 
Q 22.3125 69.828125 27.640625 69.828125 
Q 33.25 69.828125 37.375 68.40625 
Q 41.5 67 44.203125 64.578125 
Q 46.921875 62.15625 48.234375 58.9375 
Q 49.5625 55.71875 49.5625 52.09375 
Q 49.5625 49.265625 48.75 46.671875 
Q 47.953125 44.09375 46.40625 41.96875 
Q 44.875 39.84375 42.59375 38.34375 
Q 40.328125 36.859375 37.359375 36.28125 
L 37.359375 36.078125 
Q 40.328125 35.59375 42.859375 34.296875 
Q 45.40625 33.015625 47.265625 30.890625 
Q 49.125 28.765625 50.1875 25.828125 
Q 51.265625 22.90625 51.265625 19.1875 
z
M 40.4375 51.609375 
Q 40.4375 54.203125 39.765625 56.34375 
Q 39.109375 58.5 37.59375 60.03125 
Q 36.078125 61.578125 33.640625 62.421875 
Q 31.203125 63.28125 27.640625 63.28125 
Q 24.171875 63.28125 21.78125 62.421875 
Q 19.390625 61.578125 17.84375 60.03125 
Q 16.3125 58.5 15.625 56.34375 
Q 14.9375 54.203125 14.9375 51.609375 
Q 14.9375 49.5625 15.46875 47.40625 
Q 16.015625 45.265625 17.421875 43.5 
Q 18.84375 41.75 21.328125 40.625 
Q 23.828125 39.5 27.734375 39.5 
Q 31.890625 39.5 34.40625 40.625 
Q 36.921875 41.75 38.25 43.5 
Q 39.59375 45.265625 40.015625 47.40625 
Q 40.4375 49.5625 40.4375 51.609375 
z
M 42.140625 20.015625 
Q 42.140625 22.515625 41.453125 24.828125 
Q 40.765625 27.15625 39.109375 28.9375 
Q 37.453125 30.71875 34.640625 31.8125 
Q 31.84375 32.90625 27.640625 32.90625 
Q 23.78125 32.90625 21.0625 31.8125 
Q 18.359375 30.71875 16.671875 28.90625 
Q 14.984375 27.09375 14.203125 24.71875 
Q 13.421875 22.359375 13.421875 19.828125 
Q 13.421875 16.65625 14.203125 14.03125 
Q 14.984375 11.421875 16.6875 9.546875 
Q 18.40625 7.671875 21.1875 6.640625 
Q 23.96875 5.609375 27.9375 5.609375 
Q 31.9375 5.609375 34.671875 6.640625 
Q 37.40625 7.671875 39.0625 9.546875 
Q 40.71875 11.421875 41.421875 14.078125 
Q 42.140625 16.75 42.140625 20.015625 
z
" id="LiberationSans-56"/>
       </defs>
       <use xlink:href="#LiberationSans-56"/>
       <use x="55.615234" xlink:href="#LiberationSans-48"/>
       <use x="111.230469" xlink:href="#LiberationSans-48"/>
      </g>
     </g>
    </g>
    <g id="xtick_6">
     <g id="line2d_6">
      <g>
       <use style="fill:#ffffff;stroke:#ffffff;stroke-width:0.8;" x="398.552217" xlink:href="#md0fc031d1e" y="162.432"/>
      </g>
     </g>
     <g id="text_6">
      <!-- 1000 -->
      <g style="fill:#ffffff;" transform="translate(387.430342 176.678875)scale(0.1 -0.1)">
       <defs>
        <path d="M 7.625 0 
L 7.625 7.46875 
L 25.140625 7.46875 
L 25.140625 60.40625 
L 9.625 49.3125 
L 9.625 57.625 
L 25.875 68.796875 
L 33.984375 68.796875 
L 33.984375 7.46875 
L 50.734375 7.46875 
L 50.734375 0 
z
" id="LiberationSans-49"/>
       </defs>
       <use xlink:href="#LiberationSans-49"/>
       <use x="55.615234" xlink:href="#LiberationSans-48"/>
       <use x="111.230469" xlink:href="#LiberationSans-48"/>
       <use x="166.845703" xlink:href="#LiberationSans-48"/>
      </g>
     </g>
    </g>
   </g>
   <g id="matplotlib.axis_2">
    <g id="ytick_1">
     <g id="line2d_7">
      <defs>
       <path d="M 0 0 
L -3.5 0 
" id="m99898b9d4a" style="stroke:#ffffff;stroke-width:0.8;"/>
      </defs>
      <g>
       <use style="fill:#ffffff;stroke:#ffffff;stroke-width:0.8;" x="57.6" xlink:href="#m99898b9d4a" y="152.20491"/>
      </g>
     </g>
     <g id="text_7">
      <!-- 0.0 -->
      <g style="fill:#ffffff;" transform="translate(36.7 155.828347)scale(0.1 -0.1)">
       <defs>
        <path d="M 9.125 0 
L 9.125 10.6875 
L 18.65625 10.6875 
L 18.65625 0 
z
" id="LiberationSans-46"/>
       </defs>
       <use xlink:href="#LiberationSans-48"/>
       <use x="55.615234" xlink:href="#LiberationSans-46"/>
       <use x="83.398438" xlink:href="#LiberationSans-48"/>
      </g>
     </g>
    </g>
    <g id="ytick_2">
     <g id="line2d_8">
      <g>
       <use style="fill:#ffffff;stroke:#ffffff;stroke-width:0.8;" x="57.6" xlink:href="#m99898b9d4a" y="121.46522"/>
      </g>
     </g>
     <g id="text_8">
      <!-- 0.5 -->
      <g style="fill:#ffffff;" transform="translate(36.7 125.088657)scale(0.1 -0.1)">
       <defs>
        <path d="M 51.421875 22.40625 
Q 51.421875 17.234375 49.859375 12.9375 
Q 48.296875 8.640625 45.21875 5.53125 
Q 42.140625 2.4375 37.578125 0.71875 
Q 33.015625 -0.984375 27 -0.984375 
Q 21.578125 -0.984375 17.546875 0.28125 
Q 13.53125 1.5625 10.734375 3.78125 
Q 7.953125 6 6.3125 8.984375 
Q 4.6875 11.96875 4 15.375 
L 12.890625 16.40625 
Q 13.421875 14.453125 14.390625 12.625 
Q 15.375 10.796875 17.0625 9.34375 
Q 18.75 7.90625 21.21875 7.046875 
Q 23.6875 6.203125 27.203125 6.203125 
Q 30.609375 6.203125 33.390625 7.25 
Q 36.1875 8.296875 38.15625 10.34375 
Q 40.140625 12.40625 41.203125 15.375 
Q 42.28125 18.359375 42.28125 22.21875 
Q 42.28125 25.390625 41.25 28.046875 
Q 40.234375 30.71875 38.328125 32.640625 
Q 36.421875 34.578125 33.65625 35.640625 
Q 30.90625 36.71875 27.390625 36.71875 
Q 25.203125 36.71875 23.34375 36.328125 
Q 21.484375 35.9375 19.890625 35.25 
Q 18.3125 34.578125 17.015625 33.671875 
Q 15.71875 32.765625 14.59375 31.78125 
L 6 31.78125 
L 8.296875 68.796875 
L 47.40625 68.796875 
L 47.40625 61.328125 
L 16.3125 61.328125 
L 14.984375 39.5 
Q 17.328125 41.3125 20.84375 42.59375 
Q 24.359375 43.890625 29.203125 43.890625 
Q 34.328125 43.890625 38.421875 42.328125 
Q 42.53125 40.765625 45.40625 37.90625 
Q 48.296875 35.0625 49.859375 31.109375 
Q 51.421875 27.15625 51.421875 22.40625 
z
" id="LiberationSans-53"/>
       </defs>
       <use xlink:href="#LiberationSans-48"/>
       <use x="55.615234" xlink:href="#LiberationSans-46"/>
       <use x="83.398438" xlink:href="#LiberationSans-53"/>
      </g>
     </g>
    </g>
    <g id="ytick_3">
     <g id="line2d_9">
      <g>
       <use style="fill:#ffffff;stroke:#ffffff;stroke-width:0.8;" x="57.6" xlink:href="#m99898b9d4a" y="90.72553"/>
      </g>
     </g>
     <g id="text_9">
      <!-- 1.0 -->
      <g style="fill:#ffffff;" transform="translate(36.7 94.348968)scale(0.1 -0.1)">
       <use xlink:href="#LiberationSans-49"/>
       <use x="55.615234" xlink:href="#LiberationSans-46"/>
       <use x="83.398438" xlink:href="#LiberationSans-48"/>
      </g>
     </g>
    </g>
    <g id="ytick_4">
     <g id="line2d_10">
      <g>
       <use style="fill:#ffffff;stroke:#ffffff;stroke-width:0.8;" x="57.6" xlink:href="#m99898b9d4a" y="59.985841"/>
      </g>
     </g>
     <g id="text_10">
      <!-- 1.5 -->
      <g style="fill:#ffffff;" transform="translate(36.7 63.609278)scale(0.1 -0.1)">
       <use xlink:href="#LiberationSans-49"/>
       <use x="55.615234" xlink:href="#LiberationSans-46"/>
       <use x="83.398438" xlink:href="#LiberationSans-53"/>
      </g>
     </g>
    </g>
   </g>
   <g id="line2d_11">
    <path clip-path="url(#pc5a7e9664e)" d="M 73.832727 156.933818 
L 73.897671 106.322488 
L 73.962615 106.779026 
L 75.196549 114.63956 
L 76.430483 121.139901 
L 77.599473 126.257233 
L 77.664417 75.95114 
L 77.729361 76.709878 
L 78.963295 89.773604 
L 80.197229 100.576771 
L 81.431163 109.510549 
L 82.405322 115.457533 
L 82.470266 65.258899 
L 82.53521 66.124026 
L 83.769144 81.019537 
L 85.003078 93.337515 
L 86.237012 103.52398 
L 87.470946 111.94777 
L 88.055441 115.412655 
L 88.120385 65.214467 
L 88.185329 66.080036 
L 89.419263 80.983159 
L 90.653197 93.307432 
L 91.887131 103.499103 
L 93.121065 111.927198 
L 94.354999 118.896888 
L 95.588933 124.660537 
L 95.783765 125.474596 
L 95.848709 75.176291 
L 95.913653 75.942738 
L 97.147587 89.13921 
L 98.381521 100.052154 
L 99.615455 109.076712 
L 100.849389 116.539652 
L 102.083323 122.711199 
L 103.317257 127.814817 
L 104.551191 132.035299 
L 105.20063 133.954692 
L 105.265574 83.572008 
L 105.330518 84.254916 
L 106.564452 96.013042 
L 107.798386 105.736532 
L 109.03232 113.77746 
L 110.266254 120.426979 
L 110.590973 121.976807 
L 110.655917 71.713305 
L 110.720861 72.51421 
L 111.954795 86.303958 
L 113.188729 97.707515 
L 114.422663 107.137792 
L 115.656598 114.936245 
L 116.37098 118.818368 
L 116.435924 68.586293 
L 116.500868 69.418312 
L 117.734802 83.743776 
L 118.968736 95.59035 
L 120.20267 105.386983 
L 121.436604 113.488397 
L 122.540651 119.54115 
L 122.670538 123.99515 
L 122.735482 124.275842 
L 122.800426 73.989464 
L 122.86537 74.767721 
L 124.099304 88.167519 
L 125.333238 99.248605 
L 126.177509 105.70422 
L 126.242453 55.602633 
L 126.307397 56.563842 
L 127.541331 73.113655 
L 128.775265 86.799674 
L 130.009199 98.117453 
L 131.243133 107.476793 
L 132.477067 115.216585 
L 133.711001 121.617077 
L 134.944935 126.910022 
L 135.984038 130.650028 
L 136.048981 80.300226 
L 136.113925 81.01569 
L 137.347859 93.334334 
L 138.581793 103.521349 
L 139.815728 111.945595 
L 141.049662 118.912102 
L 142.283596 124.673118 
L 142.868091 127.042747 
L 142.933035 76.728838 
L 142.997979 77.479837 
L 144.231913 90.410328 
L 145.465847 101.103316 
L 146.699781 109.94598 
L 147.933715 117.258502 
L 148.842929 121.823962 
L 148.907873 71.561981 
L 148.972817 72.364392 
L 150.206751 86.180064 
L 151.440685 97.605061 
L 152.674619 107.053066 
L 153.908553 114.86618 
L 155.142487 121.327306 
L 155.337319 122.239877 
L 155.402263 71.973758 
L 155.467207 72.772071 
L 156.701141 86.517198 
L 157.935075 97.883857 
L 159.169009 107.283619 
L 160.402943 115.056838 
L 161.636877 121.484972 
L 162.870811 126.800777 
L 164.104745 131.19673 
L 164.884072 133.572326 
L 164.949016 83.193447 
L 165.01396 83.880122 
L 166.247894 95.703102 
L 167.481828 105.480224 
L 168.715762 113.565504 
L 169.949696 120.2517 
L 170.729023 123.864955 
L 170.793967 73.582666 
L 170.858911 74.36497 
L 172.092845 87.834461 
L 173.326779 98.973179 
L 174.560713 108.184444 
L 174.885432 110.331347 
L 174.950376 60.18372 
L 175.01532 61.099346 
L 176.249254 76.864331 
L 177.483188 89.90133 
L 178.717122 100.682396 
L 179.951056 109.597896 
L 181.18499 116.970651 
L 182.418925 123.067617 
L 182.808588 124.764441 
L 182.873532 74.473202 
L 182.938476 75.246645 
L 184.17241 88.56357 
L 185.406344 99.576122 
L 186.640278 108.683053 
L 187.874212 116.214113 
L 188.198931 117.969405 
L 188.263875 67.745777 
L 188.328819 68.58616 
L 189.562753 83.055621 
L 190.796687 95.021273 
L 192.030621 104.916379 
L 193.264555 113.099228 
L 194.49849 119.866109 
L 195.018041 122.352434 
L 195.082985 72.085194 
L 195.147928 72.882399 
L 196.381863 86.608435 
L 197.615797 97.959306 
L 198.849731 107.346012 
L 200.083665 115.108434 
L 200.66816 118.301284 
L 200.733104 68.074354 
L 200.798048 68.911467 
L 202.031982 83.324637 
L 203.265916 95.243739 
L 204.49985 105.100349 
L 205.733784 113.251363 
L 206.967718 119.991918 
L 207.747045 123.634549 
L 207.811989 73.354553 
L 207.876932 74.139127 
L 209.110867 87.647698 
L 210.344801 98.818733 
L 211.578735 108.056724 
L 212.812669 115.696164 
L 214.046603 122.013669 
L 215.020761 126.219068 
L 215.085705 75.913355 
L 215.150649 76.672468 
L 216.384583 89.742667 
L 217.618517 100.551188 
L 218.852451 109.489393 
L 220.086385 116.880923 
L 221.320319 122.993416 
L 221.515151 123.856746 
L 221.580095 73.574539 
L 221.645039 74.356924 
L 222.878973 87.827807 
L 224.112907 98.967676 
L 225.346841 108.179893 
L 226.580775 115.79802 
L 227.814709 122.0979 
L 228.464148 124.962961 
L 228.529092 74.669746 
L 228.594036 75.441234 
L 229.82797 88.724487 
L 231.061904 99.709194 
L 232.295838 108.793098 
L 233.529772 116.305116 
L 234.763706 122.517247 
L 235.99764 127.654426 
L 236.647079 129.990713 
L 236.712023 79.647472 
L 236.776967 80.36943 
L 238.010901 92.799904 
L 239.244835 103.079397 
L 240.478769 111.580119 
L 241.712703 118.609868 
L 242.946637 124.423183 
L 243.011581 74.135339 
L 243.076525 74.912144 
L 244.310459 88.286951 
L 245.544393 99.34737 
L 246.778327 108.493885 
L 248.012261 116.057678 
L 248.466869 118.501454 
L 248.531813 68.272533 
L 248.596756 69.107674 
L 249.830691 83.486892 
L 251.064625 95.377917 
L 252.298559 105.211309 
L 253.532493 113.343122 
L 254.766427 120.0678 
L 255.221034 122.240467 
L 255.285978 71.974342 
L 255.350922 72.772649 
L 256.584856 86.517676 
L 257.81879 97.884252 
L 259.052724 107.283946 
L 260.286658 115.057108 
L 260.936097 118.592189 
L 261.001041 68.362364 
L 261.065985 69.196612 
L 262.299919 83.560439 
L 263.533853 95.438738 
L 264.767787 105.261605 
L 266.001721 113.384715 
L 267.235655 120.102195 
L 267.950038 123.446202 
L 268.014982 73.16808 
L 268.079926 73.954509 
L 269.31386 87.495026 
L 270.547794 98.692481 
L 271.781728 107.952318 
L 272.171391 110.529388 
L 272.236335 60.37979 
L 272.301279 61.293465 
L 273.535213 77.02486 
L 274.769147 90.034081 
L 276.003081 100.792175 
L 277.237015 109.688679 
L 278.470949 117.045724 
L 279.63994 122.83749 
L 279.704884 72.565424 
L 279.769827 73.35785 
L 281.003761 87.001613 
L 282.237696 98.284448 
L 283.47163 107.614892 
L 284.705564 115.330787 
L 285.939498 121.711517 
L 286.913656 125.959003 
L 286.9786 75.655878 
L 287.043544 76.417554 
L 288.277478 89.531863 
L 289.511412 100.376861 
L 290.745346 109.345232 
L 291.97928 116.761708 
L 293.213214 122.89483 
L 294.447148 127.966672 
L 295.681082 132.160877 
L 296.330521 134.068319 
L 296.395465 83.684505 
L 296.460409 84.366294 
L 297.694343 96.105147 
L 298.928277 105.812698 
L 300.162211 113.840447 
L 300.421987 115.344739 
L 300.486931 65.147227 
L 300.551875 66.013466 
L 301.785809 80.928108 
L 303.019743 93.261907 
L 304.253677 103.461455 
L 304.578396 105.838702 
L 304.64334 55.735777 
L 304.708284 56.695661 
L 305.942218 73.222664 
L 307.176152 86.88982 
L 308.410086 98.192 
L 309.64402 107.53844 
L 310.877954 115.267565 
L 312.111889 121.659235 
L 313.345823 126.944885 
L 314.514813 131.105963 
L 314.579757 80.751625 
L 314.644701 81.462597 
L 315.878635 93.703908 
L 317.112569 103.826972 
L 318.346503 112.198332 
L 319.580437 119.121105 
L 320.814371 124.845955 
L 321.46381 127.449504 
L 321.528754 77.131548 
L 321.593698 77.87854 
L 322.827632 90.74004 
L 324.061566 101.375974 
L 325.2955 110.171457 
L 326.46449 117.095619 
L 326.529434 66.880685 
L 326.594378 67.729676 
L 327.828312 82.347343 
L 329.062246 94.435557 
L 330.29618 104.432016 
L 331.530114 112.698679 
L 332.764048 119.534871 
L 333.933038 124.9166 
L 333.997982 74.623846 
L 334.062926 75.395791 
L 335.29686 88.686907 
L 336.206075 96.985011 
L 336.271019 46.970182 
L 336.335962 48.017285 
L 337.569897 66.046002 
L 338.803831 80.955014 
L 340.037765 93.284157 
L 341.271699 103.479855 
L 342.505633 111.911281 
L 343.739567 118.883725 
L 344.518894 122.65167 
L 344.583837 72.381453 
L 344.648781 73.17571 
L 345.882715 86.850991 
L 347.11665 98.15989 
L 348.350584 107.511887 
L 349.584518 115.245606 
L 350.558676 120.393742 
L 350.62362 70.145992 
L 350.688564 70.962492 
L 351.922498 85.02075 
L 353.156432 96.646355 
L 353.28632 97.746489 
L 353.351264 47.724082 
L 353.416208 48.763684 
L 354.650142 66.663243 
L 355.884076 81.465447 
L 357.11801 93.706265 
L 358.351944 103.828921 
L 359.585878 112.199944 
L 360.300261 116.367096 
L 360.365205 66.159412 
L 360.430149 67.015579 
L 361.664083 81.756814 
L 362.898017 93.947214 
L 364.131951 104.028176 
L 364.78139 108.612798 
L 364.846334 58.48227 
L 364.911278 59.414826 
L 366.145212 75.471303 
L 367.379146 88.749352 
L 368.61308 99.729757 
L 369.847014 108.810103 
L 371.080948 116.319178 
L 372.314882 122.528876 
L 373.548816 127.664042 
L 374.78275 131.910615 
L 375.627021 134.384583 
L 375.691965 83.997621 
L 375.756908 84.676295 
L 376.990843 96.361505 
L 378.224777 106.024696 
L 379.458711 114.01576 
L 379.523655 114.395749 
L 379.588598 64.20768 
L 379.653542 65.083267 
L 380.887476 80.158871 
L 382.12141 92.62578 
L 383.355345 102.935404 
L 384.589279 111.461042 
L 384.913998 113.448144 
L 384.978942 63.269504 
L 385.043886 64.154426 
L 386.27782 79.390758 
L 387.511754 91.990582 
L 388.745688 102.410121 
L 389.979622 111.026654 
L 390.888837 116.406254 
L 390.953781 66.19818 
L 391.018724 67.053962 
L 392.252659 81.788555 
L 393.486593 93.973462 
L 394.720527 104.049882 
L 395.954461 112.38267 
L 396.733787 116.885751 
L 396.798731 66.672906 
L 396.863675 67.523964 
L 398.097609 82.177228 
L 398.487273 86.255323 
L 398.487273 86.255323 
" style="fill:none;stroke:#9a72ac;stroke-linecap:round;stroke-width:1.5;"/>
   </g>
   <g id="line2d_12">
    <path clip-path="url(#pc5a7e9664e)" d="M 73.832727 90.72553 
L 398.487273 90.72553 
L 398.487273 90.72553 
" style="fill:none;stroke:#cf5044;stroke-linecap:round;stroke-width:1.5;"/>
   </g>
   <g id="patch_3">
    <path d="M 57.6 162.432 
L 57.6 41.472 
" style="fill:none;stroke:#ffffff;stroke-linecap:square;stroke-linejoin:miter;stroke-width:0.8;"/>
   </g>
   <g id="patch_4">
    <path d="M 414.72 162.432 
L 414.72 41.472 
" style="fill:none;stroke:#ffffff;stroke-linecap:square;stroke-linejoin:miter;stroke-width:0.8;"/>
   </g>
   <g id="patch_5">
    <path d="M 57.6 162.432 
L 414.72 162.432 
" style="fill:none;stroke:#ffffff;stroke-linecap:square;stroke-linejoin:miter;stroke-width:0.8;"/>
   </g>
   <g id="patch_6">
    <path d="M 57.6 41.472 
L 414.72 41.472 
" style="fill:none;stroke:#ffffff;stroke-linecap:square;stroke-linejoin:miter;stroke-width:0.8;"/>
   </g>
   <g id="legend_1">
    <g id="line2d_13">
     <path d="M 219.16 133.535125 
L 239.16 133.535125 
" style="fill:none;stroke:#9a72ac;stroke-linecap:round;stroke-width:1.5;"/>
    </g>
    <g id="line2d_14"/>
    <g id="text_11">
     <!-- $\hat{x}$ -->
     <g style="fill:#ffffff;" transform="translate(247.16 137.035125)scale(0.1 -0.1)">
      <defs>
       <path d="M -28.609375 79.984375 
L -21.390625 79.984375 
L -9.421875 61.625 
L -16.21875 61.625 
L -25 73.578125 
L -33.796875 61.625 
L -40.578125 61.625 
z
M -25 56 
z
" id="DejaVuSans-770"/>
       <path d="M 60.015625 54.6875 
L 34.90625 27.875 
L 50.296875 0 
L 39.984375 0 
L 28.421875 21.6875 
L 8.296875 0 
L -2.59375 0 
L 24.3125 28.8125 
L 10.015625 54.6875 
L 20.3125 54.6875 
L 30.8125 34.90625 
L 49.125 54.6875 
z
" id="DejaVuSans-Oblique-120"/>
      </defs>
      <use transform="translate(62.373047 12.015625)" xlink:href="#DejaVuSans-770"/>
      <use transform="translate(0 0.828125)" xlink:href="#DejaVuSans-Oblique-120"/>
     </g>
    </g>
    <g id="line2d_15">
     <path d="M 219.16 147.857 
L 239.16 147.857 
" style="fill:none;stroke:#cf5044;stroke-linecap:round;stroke-width:1.5;"/>
    </g>
    <g id="line2d_16"/>
    <g id="text_12">
     <!-- x -->
     <g style="fill:#ffffff;" transform="translate(247.16 151.357)scale(0.1 -0.1)">
      <defs>
       <path d="M 39.109375 0 
L 24.90625 21.6875 
L 10.59375 0 
L 1.125 0 
L 19.921875 27.15625 
L 2 52.828125 
L 11.71875 52.828125 
L 24.90625 32.28125 
L 37.984375 52.828125 
L 47.796875 52.828125 
L 29.890625 27.25 
L 48.921875 0 
z
" id="LiberationSans-120"/>
      </defs>
      <use xlink:href="#LiberationSans-120"/>
     </g>
    </g>
   </g>
  </g>
  <g id="axes_2">
   <g id="patch_7">
    <path d="M 57.6 307.584 
L 414.72 307.584 
L 414.72 186.624 
L 57.6 186.624 
z
" style="fill:#1a1a1a;"/>
   </g>
   <g id="matplotlib.axis_3">
    <g id="xtick_7">
     <g id="line2d_17">
      <g>
       <use style="fill:#ffffff;stroke:#ffffff;stroke-width:0.8;" x="73.832727" xlink:href="#md0fc031d1e" y="307.584"/>
      </g>
     </g>
     <g id="text_13">
      <!-- 0 -->
      <g style="fill:#ffffff;" transform="translate(71.052259 321.830875)scale(0.1 -0.1)">
       <use xlink:href="#LiberationSans-48"/>
      </g>
     </g>
    </g>
    <g id="xtick_8">
     <g id="line2d_18">
      <g>
       <use style="fill:#ffffff;stroke:#ffffff;stroke-width:0.8;" x="138.776625" xlink:href="#md0fc031d1e" y="307.584"/>
      </g>
     </g>
     <g id="text_14">
      <!-- 200 -->
      <g style="fill:#ffffff;" transform="translate(130.435219 321.830875)scale(0.1 -0.1)">
       <use xlink:href="#LiberationSans-50"/>
       <use x="55.615234" xlink:href="#LiberationSans-48"/>
       <use x="111.230469" xlink:href="#LiberationSans-48"/>
      </g>
     </g>
    </g>
    <g id="xtick_9">
     <g id="line2d_19">
      <g>
       <use style="fill:#ffffff;stroke:#ffffff;stroke-width:0.8;" x="203.720523" xlink:href="#md0fc031d1e" y="307.584"/>
      </g>
     </g>
     <g id="text_15">
      <!-- 400 -->
      <g style="fill:#ffffff;" transform="translate(195.379117 321.830875)scale(0.1 -0.1)">
       <use xlink:href="#LiberationSans-52"/>
       <use x="55.615234" xlink:href="#LiberationSans-48"/>
       <use x="111.230469" xlink:href="#LiberationSans-48"/>
      </g>
     </g>
    </g>
    <g id="xtick_10">
     <g id="line2d_20">
      <g>
       <use style="fill:#ffffff;stroke:#ffffff;stroke-width:0.8;" x="268.664421" xlink:href="#md0fc031d1e" y="307.584"/>
      </g>
     </g>
     <g id="text_16">
      <!-- 600 -->
      <g style="fill:#ffffff;" transform="translate(260.323015 321.830875)scale(0.1 -0.1)">
       <use xlink:href="#LiberationSans-54"/>
       <use x="55.615234" xlink:href="#LiberationSans-48"/>
       <use x="111.230469" xlink:href="#LiberationSans-48"/>
      </g>
     </g>
    </g>
    <g id="xtick_11">
     <g id="line2d_21">
      <g>
       <use style="fill:#ffffff;stroke:#ffffff;stroke-width:0.8;" x="333.608319" xlink:href="#md0fc031d1e" y="307.584"/>
      </g>
     </g>
     <g id="text_17">
      <!-- 800 -->
      <g style="fill:#ffffff;" transform="translate(325.266913 321.830875)scale(0.1 -0.1)">
       <use xlink:href="#LiberationSans-56"/>
       <use x="55.615234" xlink:href="#LiberationSans-48"/>
       <use x="111.230469" xlink:href="#LiberationSans-48"/>
      </g>
     </g>
    </g>
    <g id="xtick_12">
     <g id="line2d_22">
      <g>
       <use style="fill:#ffffff;stroke:#ffffff;stroke-width:0.8;" x="398.552217" xlink:href="#md0fc031d1e" y="307.584"/>
      </g>
     </g>
     <g id="text_18">
      <!-- 1000 -->
      <g style="fill:#ffffff;" transform="translate(387.430342 321.830875)scale(0.1 -0.1)">
       <use xlink:href="#LiberationSans-49"/>
       <use x="55.615234" xlink:href="#LiberationSans-48"/>
       <use x="111.230469" xlink:href="#LiberationSans-48"/>
       <use x="166.845703" xlink:href="#LiberationSans-48"/>
      </g>
     </g>
    </g>
    <g id="text_19">
     <!-- $t$ (ms) -->
     <g style="fill:#ffffff;" transform="translate(222.81 335.205875)scale(0.1 -0.1)">
      <defs>
       <path d="M 42.28125 54.6875 
L 40.921875 47.703125 
L 23 47.703125 
L 17.1875 18.015625 
Q 16.890625 16.359375 16.75 15.234375 
Q 16.609375 14.109375 16.609375 13.484375 
Q 16.609375 10.359375 18.484375 8.9375 
Q 20.359375 7.515625 24.515625 7.515625 
L 33.59375 7.515625 
L 32.078125 0 
L 23.484375 0 
Q 15.484375 0 11.546875 3.125 
Q 7.625 6.25 7.625 12.59375 
Q 7.625 13.71875 7.765625 15.0625 
Q 7.90625 16.40625 8.203125 18.015625 
L 14.015625 47.703125 
L 6.390625 47.703125 
L 7.8125 54.6875 
L 15.28125 54.6875 
L 18.3125 70.21875 
L 27.296875 70.21875 
L 24.3125 54.6875 
z
" id="DejaVuSans-Oblique-116"/>
       <path id="LiberationSans-32"/>
       <path d="M 6.203125 25.984375 
Q 6.203125 32.765625 7.21875 38.96875 
Q 8.25 45.171875 10.4375 50.875 
Q 12.640625 56.59375 16.0625 61.953125 
Q 19.484375 67.328125 24.21875 72.46875 
L 32.71875 72.46875 
Q 28.125 67.328125 24.78125 61.9375 
Q 21.4375 56.546875 19.28125 50.796875 
Q 17.140625 45.0625 16.09375 38.859375 
Q 15.046875 32.671875 15.046875 25.875 
Q 15.046875 19.09375 16.09375 12.890625 
Q 17.140625 6.6875 19.28125 0.921875 
Q 21.4375 -4.828125 24.78125 -10.203125 
Q 28.125 -15.578125 32.71875 -20.703125 
L 24.21875 -20.703125 
Q 19.484375 -15.578125 16.0625 -10.203125 
Q 12.640625 -4.828125 10.4375 0.875 
Q 8.25 6.59375 7.21875 12.765625 
Q 6.203125 18.953125 6.203125 25.78125 
z
" id="LiberationSans-40"/>
       <path d="M 37.5 0 
L 37.5 33.5 
Q 37.5 37.359375 37.015625 39.9375 
Q 36.53125 42.53125 35.375 44.109375 
Q 34.234375 45.703125 32.375 46.359375 
Q 30.515625 47.015625 27.828125 47.015625 
Q 25.046875 47.015625 22.796875 45.921875 
Q 20.5625 44.828125 18.96875 42.75 
Q 17.390625 40.671875 16.53125 37.625 
Q 15.671875 34.578125 15.671875 30.609375 
L 15.671875 0 
L 6.9375 0 
L 6.9375 41.546875 
Q 6.9375 43.21875 6.90625 45.046875 
Q 6.890625 46.875 6.828125 48.5 
Q 6.78125 50.140625 6.734375 51.3125 
Q 6.6875 52.484375 6.640625 52.828125 
L 14.9375 52.828125 
Q 14.984375 52.59375 15.03125 51.515625 
Q 15.09375 50.4375 15.15625 49.046875 
Q 15.234375 47.65625 15.28125 46.21875 
Q 15.328125 44.78125 15.328125 43.796875 
L 15.484375 43.796875 
Q 16.65625 46.09375 18.015625 47.953125 
Q 19.390625 49.8125 21.21875 51.09375 
Q 23.046875 52.390625 25.40625 53.09375 
Q 27.78125 53.8125 30.90625 53.8125 
Q 36.921875 53.8125 40.40625 51.421875 
Q 43.890625 49.03125 45.265625 43.796875 
L 45.40625 43.796875 
Q 46.578125 46.09375 48.046875 47.953125 
Q 49.515625 49.8125 51.46875 51.09375 
Q 53.421875 52.390625 55.859375 53.09375 
Q 58.296875 53.8125 61.421875 53.8125 
Q 65.4375 53.8125 68.328125 52.734375 
Q 71.234375 51.65625 73.09375 49.40625 
Q 74.953125 47.171875 75.828125 43.625 
Q 76.703125 40.09375 76.703125 35.203125 
L 76.703125 0 
L 68.015625 0 
L 68.015625 33.5 
Q 68.015625 37.359375 67.53125 39.9375 
Q 67.046875 42.53125 65.890625 44.109375 
Q 64.75 45.703125 62.890625 46.359375 
Q 61.03125 47.015625 58.34375 47.015625 
Q 55.5625 47.015625 53.3125 45.96875 
Q 51.078125 44.921875 49.484375 42.875 
Q 47.90625 40.828125 47.046875 37.75 
Q 46.1875 34.671875 46.1875 30.609375 
L 46.1875 0 
z
" id="LiberationSans-109"/>
       <path d="M 46.390625 14.59375 
Q 46.390625 10.890625 44.9375 7.984375 
Q 43.5 5.078125 40.765625 3.09375 
Q 38.03125 1.125 34.046875 0.0625 
Q 30.078125 -0.984375 24.953125 -0.984375 
Q 20.359375 -0.984375 16.671875 -0.265625 
Q 12.984375 0.4375 10.203125 2 
Q 7.421875 3.5625 5.53125 6.125 
Q 3.65625 8.6875 2.78125 12.40625 
L 10.546875 13.921875 
Q 11.671875 9.671875 15.1875 7.6875 
Q 18.703125 5.71875 24.953125 5.71875 
Q 27.78125 5.71875 30.140625 6.109375 
Q 32.515625 6.5 34.21875 7.453125 
Q 35.9375 8.40625 36.890625 9.984375 
Q 37.84375 11.578125 37.84375 13.921875 
Q 37.84375 16.3125 36.71875 17.84375 
Q 35.59375 19.390625 33.59375 20.40625 
Q 31.59375 21.4375 28.734375 22.1875 
Q 25.875 22.953125 22.46875 23.875 
Q 19.28125 24.703125 16.15625 25.734375 
Q 13.03125 26.765625 10.515625 28.4375 
Q 8.015625 30.125 6.453125 32.609375 
Q 4.890625 35.109375 4.890625 38.875 
Q 4.890625 46.09375 10.03125 49.875 
Q 15.1875 53.65625 25.046875 53.65625 
Q 33.796875 53.65625 38.9375 50.578125 
Q 44.09375 47.515625 45.453125 40.71875 
L 37.546875 39.75 
Q 37.109375 41.796875 35.9375 43.1875 
Q 34.765625 44.578125 33.109375 45.4375 
Q 31.453125 46.296875 29.375 46.65625 
Q 27.296875 47.015625 25.046875 47.015625 
Q 19.09375 47.015625 16.25 45.203125 
Q 13.421875 43.40625 13.421875 39.75 
Q 13.421875 37.59375 14.46875 36.203125 
Q 15.53125 34.8125 17.40625 33.859375 
Q 19.28125 32.90625 21.921875 32.203125 
Q 24.5625 31.5 27.734375 30.71875 
Q 29.828125 30.171875 32.03125 29.5625 
Q 34.234375 28.953125 36.296875 28.09375 
Q 38.375 27.25 40.203125 26.09375 
Q 42.046875 24.953125 43.40625 23.34375 
Q 44.78125 21.734375 45.578125 19.578125 
Q 46.390625 17.4375 46.390625 14.59375 
z
" id="LiberationSans-115"/>
       <path d="M 27.09375 25.78125 
Q 27.09375 18.953125 26.0625 12.765625 
Q 25.046875 6.59375 22.84375 0.875 
Q 20.65625 -4.828125 17.234375 -10.203125 
Q 13.8125 -15.578125 9.078125 -20.703125 
L 0.59375 -20.703125 
Q 5.171875 -15.578125 8.515625 -10.203125 
Q 11.859375 -4.828125 14 0.921875 
Q 16.15625 6.6875 17.203125 12.890625 
Q 18.265625 19.09375 18.265625 25.875 
Q 18.265625 32.671875 17.203125 38.859375 
Q 16.15625 45.0625 14 50.796875 
Q 11.859375 56.546875 8.515625 61.9375 
Q 5.171875 67.328125 0.59375 72.46875 
L 9.078125 72.46875 
Q 13.8125 67.328125 17.234375 61.953125 
Q 20.65625 56.59375 22.84375 50.875 
Q 25.046875 45.171875 26.0625 38.96875 
Q 27.09375 32.765625 27.09375 25.984375 
z
" id="LiberationSans-41"/>
      </defs>
      <use transform="translate(0 0.53125)" xlink:href="#DejaVuSans-Oblique-116"/>
      <use transform="translate(39.208984 0.53125)" xlink:href="#LiberationSans-32"/>
      <use transform="translate(66.992188 0.53125)" xlink:href="#LiberationSans-40"/>
      <use transform="translate(100.292969 0.53125)" xlink:href="#LiberationSans-109"/>
      <use transform="translate(183.59375 0.53125)" xlink:href="#LiberationSans-115"/>
      <use transform="translate(233.59375 0.53125)" xlink:href="#LiberationSans-41"/>
     </g>
    </g>
   </g>
   <g id="matplotlib.axis_4">
    <g id="ytick_5">
     <g id="line2d_23">
      <g>
       <use style="fill:#ffffff;stroke:#ffffff;stroke-width:0.8;" x="57.6" xlink:href="#m99898b9d4a" y="305.905999"/>
      </g>
     </g>
     <g id="text_20">
      <!-- −0.25 -->
      <g style="fill:#ffffff;" transform="translate(25.298437 309.529437)scale(0.1 -0.1)">
       <defs>
        <path d="M 4.9375 29.6875 
L 4.9375 36.8125 
L 53.515625 36.8125 
L 53.515625 29.6875 
z
" id="LiberationSans-8722"/>
       </defs>
       <use xlink:href="#LiberationSans-8722"/>
       <use x="58.398438" xlink:href="#LiberationSans-48"/>
       <use x="114.013672" xlink:href="#LiberationSans-46"/>
       <use x="141.796875" xlink:href="#LiberationSans-50"/>
       <use x="197.412109" xlink:href="#LiberationSans-53"/>
      </g>
     </g>
    </g>
    <g id="ytick_6">
     <g id="line2d_24">
      <g>
       <use style="fill:#ffffff;stroke:#ffffff;stroke-width:0.8;" x="57.6" xlink:href="#m99898b9d4a" y="283.407965"/>
      </g>
     </g>
     <g id="text_21">
      <!-- 0.00 -->
      <g style="fill:#ffffff;" transform="translate(31.139063 287.031402)scale(0.1 -0.1)">
       <use xlink:href="#LiberationSans-48"/>
       <use x="55.615234" xlink:href="#LiberationSans-46"/>
       <use x="83.398438" xlink:href="#LiberationSans-48"/>
       <use x="139.013672" xlink:href="#LiberationSans-48"/>
      </g>
     </g>
    </g>
    <g id="ytick_7">
     <g id="line2d_25">
      <g>
       <use style="fill:#ffffff;stroke:#ffffff;stroke-width:0.8;" x="57.6" xlink:href="#m99898b9d4a" y="260.90993"/>
      </g>
     </g>
     <g id="text_22">
      <!-- 0.25 -->
      <g style="fill:#ffffff;" transform="translate(31.139063 264.533368)scale(0.1 -0.1)">
       <use xlink:href="#LiberationSans-48"/>
       <use x="55.615234" xlink:href="#LiberationSans-46"/>
       <use x="83.398438" xlink:href="#LiberationSans-50"/>
       <use x="139.013672" xlink:href="#LiberationSans-53"/>
      </g>
     </g>
    </g>
    <g id="ytick_8">
     <g id="line2d_26">
      <g>
       <use style="fill:#ffffff;stroke:#ffffff;stroke-width:0.8;" x="57.6" xlink:href="#m99898b9d4a" y="238.411896"/>
      </g>
     </g>
     <g id="text_23">
      <!-- 0.50 -->
      <g style="fill:#ffffff;" transform="translate(31.139063 242.035333)scale(0.1 -0.1)">
       <use xlink:href="#LiberationSans-48"/>
       <use x="55.615234" xlink:href="#LiberationSans-46"/>
       <use x="83.398438" xlink:href="#LiberationSans-53"/>
       <use x="139.013672" xlink:href="#LiberationSans-48"/>
      </g>
     </g>
    </g>
    <g id="ytick_9">
     <g id="line2d_27">
      <g>
       <use style="fill:#ffffff;stroke:#ffffff;stroke-width:0.8;" x="57.6" xlink:href="#m99898b9d4a" y="215.913862"/>
      </g>
     </g>
     <g id="text_24">
      <!-- 0.75 -->
      <g style="fill:#ffffff;" transform="translate(31.139063 219.537299)scale(0.1 -0.1)">
       <defs>
        <path d="M 50.59375 61.671875 
Q 45.40625 53.765625 41.0625 46.453125 
Q 36.71875 39.15625 33.59375 31.75 
Q 30.46875 24.359375 28.734375 16.578125 
Q 27 8.796875 27 0 
L 17.828125 0 
Q 17.828125 8.25 19.78125 16.1875 
Q 21.734375 24.125 25.046875 31.765625 
Q 28.375 39.40625 32.765625 46.78125 
Q 37.15625 54.15625 42.09375 61.328125 
L 5.125 61.328125 
L 5.125 68.796875 
L 50.59375 68.796875 
z
" id="LiberationSans-55"/>
       </defs>
       <use xlink:href="#LiberationSans-48"/>
       <use x="55.615234" xlink:href="#LiberationSans-46"/>
       <use x="83.398438" xlink:href="#LiberationSans-55"/>
       <use x="139.013672" xlink:href="#LiberationSans-53"/>
      </g>
     </g>
    </g>
    <g id="ytick_10">
     <g id="line2d_28">
      <g>
       <use style="fill:#ffffff;stroke:#ffffff;stroke-width:0.8;" x="57.6" xlink:href="#m99898b9d4a" y="193.415827"/>
      </g>
     </g>
     <g id="text_25">
      <!-- 1.00 -->
      <g style="fill:#ffffff;" transform="translate(31.139063 197.039265)scale(0.1 -0.1)">
       <use xlink:href="#LiberationSans-49"/>
       <use x="55.615234" xlink:href="#LiberationSans-46"/>
       <use x="83.398438" xlink:href="#LiberationSans-48"/>
       <use x="139.013672" xlink:href="#LiberationSans-48"/>
      </g>
     </g>
    </g>
   </g>
   <g id="line2d_29">
    <path clip-path="url(#p7a3dfc2e9c)" d="M 73.832727 192.122182 
L 73.962615 202.814993 
L 75.196549 216.76087 
L 76.430483 228.293541 
L 77.599473 237.372529 
L 77.729361 247.169323 
L 78.963295 253.440089 
L 80.197229 258.625756 
L 81.431163 262.914091 
L 82.405322 265.768724 
L 82.53521 275.003235 
L 83.963975 276.663012 
L 85.457685 278.048873 
L 87.016339 279.192354 
L 88.055441 279.815658 
L 88.120385 288.825931 
L 88.185329 288.772022 
L 89.743982 287.627481 
L 91.432524 286.66143 
L 93.315897 285.842414 
L 95.459045 285.158148 
L 95.783765 285.072791 
L 95.848709 294.030755 
L 95.913653 293.925056 
L 97.277474 291.932953 
L 98.70624 290.249428 
L 100.19995 288.843738 
L 101.758603 287.683895 
L 103.447145 286.704928 
L 105.20063 285.924799 
L 105.265574 294.874285 
L 105.330518 294.760193 
L 106.69434 292.609902 
L 108.058161 290.86691 
L 109.486927 289.393909 
L 110.590973 288.458095 
L 110.655917 297.382375 
L 110.720861 297.243327 
L 112.019739 294.735401 
L 113.383561 292.589806 
L 114.747383 290.850621 
L 116.176149 289.380836 
L 116.37098 289.204311 
L 116.435924 298.121166 
L 116.500868 297.974767 
L 117.799746 295.334254 
L 119.098624 293.172384 
L 120.462446 291.32285 
L 121.891212 289.759809 
L 122.540651 289.155351 
L 122.605595 215.242526 
L 122.670538 215.920783 
L 122.735482 216.592292 
L 122.86537 226.800562 
L 124.099304 236.595956 
L 125.333238 244.696347 
L 126.177509 249.41547 
L 126.307397 258.973798 
L 127.541331 263.201907 
L 128.840209 266.864644 
L 130.139087 269.863439 
L 131.437965 272.318645 
L 132.801787 274.419137 
L 134.165608 276.121763 
L 135.594374 277.560651 
L 135.984038 277.901172 
L 136.048981 286.930494 
L 136.113925 286.895445 
L 137.932354 286.043745 
L 140.010559 285.321934 
L 142.413483 284.730009 
L 142.868091 284.640631 
L 142.933035 293.602895 
L 142.997979 293.501454 
L 144.3618 291.589588 
L 145.790566 289.973871 
L 147.284276 288.624798 
L 148.842929 287.511671 
L 148.907873 296.445368 
L 148.972817 296.315644 
L 150.271695 293.975878 
L 151.635517 291.974149 
L 152.999339 290.351579 
L 154.428105 288.980346 
L 155.337319 288.25236 
L 155.402263 297.178687 
L 155.467207 297.041666 
L 156.766085 294.570295 
L 158.129907 292.455974 
L 159.493729 290.742138 
L 160.922494 289.293777 
L 162.416204 288.08444 
L 164.039801 287.050008 
L 164.884072 286.606026 
L 164.949016 295.548734 
L 165.01396 295.427931 
L 166.312838 293.249081 
L 167.67666 291.385019 
L 169.105425 289.8097 
L 170.599135 288.494359 
L 170.729023 288.393642 
L 170.793967 297.318562 
L 170.858911 297.18015 
L 172.157789 294.683676 
L 173.521611 292.547879 
L 174.885432 290.816635 
L 174.950376 299.717447 
L 175.01532 299.555165 
L 176.314198 296.628174 
L 177.613076 294.231757 
L 178.976898 292.18156 
L 180.34072 290.519703 
L 181.769486 289.115268 
L 182.808588 288.271408 
L 182.873532 297.197545 
L 182.938476 297.060337 
L 184.237354 294.585581 
L 185.601176 292.468365 
L 186.964997 290.752182 
L 188.198931 289.481333 
L 188.263875 298.395431 
L 188.328819 298.246303 
L 189.627697 295.556569 
L 190.926575 293.3544 
L 192.290397 291.470389 
L 193.719163 289.878212 
L 195.018041 288.705355 
L 195.082985 297.627174 
L 195.147928 297.485691 
L 196.446806 294.933832 
L 197.810628 292.750651 
L 199.17445 290.980999 
L 200.603216 289.485467 
L 200.66816 289.424995 
L 200.733104 298.339654 
L 200.798048 298.191081 
L 202.096926 295.511357 
L 203.395804 293.317384 
L 204.759625 291.440384 
L 206.188391 289.854132 
L 207.682101 288.529661 
L 207.747045 288.4787 
L 207.811989 297.402774 
L 207.876932 297.263524 
L 209.17581 294.751937 
L 210.539632 292.60321 
L 211.903454 290.861486 
L 213.33222 289.389555 
L 214.82593 288.160539 
L 215.020761 288.02008 
L 215.085705 296.948718 
L 215.150649 296.813985 
L 216.449527 294.383886 
L 217.813349 292.304873 
L 219.177171 290.619659 
L 220.605936 289.195485 
L 221.515151 288.439393 
L 221.580095 297.363859 
L 221.645039 297.224995 
L 222.943917 294.720392 
L 224.307739 292.57764 
L 225.67156 290.840759 
L 227.100326 289.372922 
L 228.464148 288.243065 
L 228.529092 297.169485 
L 228.594036 297.032555 
L 229.892914 294.562836 
L 231.256736 292.449928 
L 232.620558 290.737237 
L 234.049323 289.289844 
L 235.543033 288.081315 
L 236.647079 287.350706 
L 236.712023 296.286005 
L 236.776967 296.157866 
L 238.075845 293.846701 
L 239.439667 291.86944 
L 240.868433 290.198458 
L 242.362142 288.80324 
L 242.946637 288.338875 
L 243.011581 297.26434 
L 243.076525 297.126467 
L 244.375403 294.639725 
L 245.739225 292.512252 
L 247.103047 290.787757 
L 248.466869 289.389908 
L 248.531813 298.304916 
L 248.596756 298.156689 
L 249.895634 295.483199 
L 251.194512 293.29433 
L 252.558334 291.421697 
L 253.9871 289.839135 
L 255.221034 288.72628 
L 255.285978 297.647891 
L 255.350922 297.506202 
L 256.6498 294.950625 
L 258.013622 292.764263 
L 259.377443 290.992033 
L 260.806209 289.494322 
L 260.936097 289.373804 
L 261.001041 298.288972 
L 261.065985 298.140904 
L 262.364863 295.470275 
L 263.663741 293.283749 
L 265.027563 291.41312 
L 266.456328 289.832252 
L 267.950038 288.512277 
L 268.014982 297.436018 
L 268.079926 297.296436 
L 269.378804 294.778883 
L 270.742626 292.625052 
L 272.106447 290.879191 
L 272.171391 290.804851 
L 272.236335 299.70578 
L 272.301279 299.543614 
L 273.600157 296.618717 
L 274.899035 294.224014 
L 276.262857 292.175284 
L 277.626679 290.514615 
L 279.055445 289.111186 
L 279.63994 288.620316 
L 279.704884 297.542982 
L 279.769827 297.402336 
L 281.068705 294.865587 
L 282.432527 292.695333 
L 283.796349 290.936159 
L 285.225115 289.449482 
L 286.718824 288.208153 
L 286.913656 288.066286 
L 286.9786 296.994464 
L 287.043544 296.859276 
L 288.342422 294.420967 
L 289.706244 292.334931 
L 291.070066 290.644023 
L 292.498831 289.215038 
L 294.057485 287.97597 
L 295.681082 286.965531 
L 296.330521 286.626984 
L 296.395465 295.569483 
L 296.460409 295.448474 
L 297.759287 293.2659 
L 299.123109 291.398652 
L 300.421987 289.950186 
L 300.486931 298.859619 
L 300.551875 298.705873 
L 301.850753 295.932832 
L 303.149631 293.662459 
L 304.513453 291.720096 
L 304.578396 291.637389 
L 304.64334 300.530034 
L 304.708284 300.359667 
L 306.007162 297.286845 
L 307.30604 294.771031 
L 308.669862 292.618687 
L 310.033684 290.874031 
L 311.46245 289.399623 
L 312.956159 288.168539 
L 314.514813 287.152765 
L 314.579757 296.090033 
L 314.644701 295.963844 
L 315.943579 293.687849 
L 317.3074 291.740677 
L 318.736166 290.095123 
L 320.229876 288.721137 
L 321.46381 287.801741 
L 321.528754 296.732551 
L 321.593698 296.59997 
L 322.892576 294.208665 
L 324.256397 292.162842 
L 325.620219 290.50453 
L 326.46449 289.639427 
L 326.529434 298.551952 
L 326.594378 298.401267 
L 327.893256 295.683442 
L 329.192134 293.458276 
L 330.555956 291.554588 
L 331.984721 289.945783 
L 333.478431 288.602481 
L 333.933038 288.2513 
L 333.997982 297.177637 
L 334.062926 297.040627 
L 335.361804 294.569444 
L 336.206075 293.208809 
L 336.271019 302.085818 
L 336.335962 301.89997 
L 337.63484 298.547939 
L 338.933718 295.803527 
L 340.232596 293.556593 
L 341.596418 291.634283 
L 343.025184 290.00974 
L 344.518894 288.653297 
L 344.583837 297.575634 
L 344.648781 297.434663 
L 345.947659 294.892054 
L 347.311481 292.716787 
L 348.675303 290.953549 
L 350.104069 289.463438 
L 350.558676 289.054051 
L 350.62362 297.972401 
L 350.688564 297.827482 
L 351.987442 295.213667 
L 353.28632 293.073656 
L 353.351264 301.95201 
L 353.416208 301.767494 
L 354.715086 298.439476 
L 356.013964 295.714725 
L 357.312841 293.483888 
L 358.676663 291.575349 
L 360.105429 289.962444 
L 360.300261 289.76873 
L 360.365205 298.679969 
L 360.430149 298.52801 
L 361.729027 295.787211 
L 363.027904 293.543234 
L 364.391726 291.623454 
L 364.78139 291.145022 
L 364.846334 300.042566 
L 364.911278 299.877049 
L 366.210155 296.89171 
L 367.509033 294.447522 
L 368.872855 292.356456 
L 370.236677 290.661471 
L 371.665443 289.22904 
L 373.224096 287.986984 
L 374.847694 286.974109 
L 375.627021 286.570851 
L 375.691965 295.513909 
L 375.756908 295.393453 
L 377.055786 293.220852 
L 378.419608 291.362137 
L 379.523655 290.11862 
L 379.588598 299.026377 
L 379.653542 298.870971 
L 380.95242 296.068004 
L 382.251298 293.773128 
L 383.61512 291.809803 
L 384.913998 290.286808 
L 384.978942 299.192892 
L 385.043886 299.035829 
L 386.342764 296.202978 
L 387.641642 293.883635 
L 389.005464 291.899378 
L 390.434229 290.222484 
L 390.888837 289.76178 
L 390.953781 298.673088 
L 391.018724 298.521197 
L 392.317602 295.781633 
L 393.61648 293.538668 
L 394.980302 291.619753 
L 396.409068 289.998079 
L 396.733787 289.676675 
L 396.798731 298.58883 
L 396.863675 298.437778 
L 398.162553 295.713335 
L 398.487273 295.113195 
L 398.487273 295.113195 
" style="fill:none;stroke:#9a72ac;stroke-linecap:round;stroke-width:1.5;"/>
   </g>
   <g id="line2d_30">
    <path clip-path="url(#p7a3dfc2e9c)" d="M 73.832727 283.407965 
L 398.487273 283.407965 
L 398.487273 283.407965 
" style="fill:none;stroke:#cf5044;stroke-linecap:round;stroke-width:1.5;"/>
   </g>
   <g id="patch_8">
    <path d="M 57.6 307.584 
L 57.6 186.624 
" style="fill:none;stroke:#ffffff;stroke-linecap:square;stroke-linejoin:miter;stroke-width:0.8;"/>
   </g>
   <g id="patch_9">
    <path d="M 414.72 307.584 
L 414.72 186.624 
" style="fill:none;stroke:#ffffff;stroke-linecap:square;stroke-linejoin:miter;stroke-width:0.8;"/>
   </g>
   <g id="patch_10">
    <path d="M 57.6 307.584 
L 414.72 307.584 
" style="fill:none;stroke:#ffffff;stroke-linecap:square;stroke-linejoin:miter;stroke-width:0.8;"/>
   </g>
   <g id="patch_11">
    <path d="M 57.6 186.624 
L 414.72 186.624 
" style="fill:none;stroke:#ffffff;stroke-linecap:square;stroke-linejoin:miter;stroke-width:0.8;"/>
   </g>
   <g id="legend_2">
    <g id="line2d_31">
     <path d="M 371.72 199.370875 
L 391.72 199.370875 
" style="fill:none;stroke:#9a72ac;stroke-linecap:round;stroke-width:1.5;"/>
    </g>
    <g id="line2d_32"/>
    <g id="text_26">
     <!-- $\hat{x}$ -->
     <g style="fill:#ffffff;" transform="translate(399.72 202.870875)scale(0.1 -0.1)">
      <use transform="translate(62.373047 12.015625)" xlink:href="#DejaVuSans-770"/>
      <use transform="translate(0 0.828125)" xlink:href="#DejaVuSans-Oblique-120"/>
     </g>
    </g>
    <g id="line2d_33">
     <path d="M 371.72 213.69275 
L 391.72 213.69275 
" style="fill:none;stroke:#cf5044;stroke-linecap:round;stroke-width:1.5;"/>
    </g>
    <g id="line2d_34"/>
    <g id="text_27">
     <!-- x -->
     <g style="fill:#ffffff;" transform="translate(399.72 217.19275)scale(0.1 -0.1)">
      <use xlink:href="#LiberationSans-120"/>
     </g>
    </g>
   </g>
  </g>
  <g id="text_28">
   <!-- Egomotion input/decoding -->
   <g style="fill:#ffffff;" transform="translate(161.02125 15.60825)scale(0.12 -0.12)">
    <defs>
     <path d="M 8.203125 0 
L 8.203125 68.796875 
L 60.40625 68.796875 
L 60.40625 61.1875 
L 17.53125 61.1875 
L 17.53125 39.109375 
L 57.46875 39.109375 
L 57.46875 31.59375 
L 17.53125 31.59375 
L 17.53125 7.625 
L 62.40625 7.625 
L 62.40625 0 
z
" id="LiberationSans-69"/>
     <path d="M 26.765625 -20.75 
Q 22.21875 -20.75 18.703125 -19.8125 
Q 15.1875 -18.890625 12.6875 -17.15625 
Q 10.203125 -15.4375 8.640625 -13.03125 
Q 7.078125 -10.640625 6.390625 -7.71875 
L 15.234375 -6.453125 
Q 16.109375 -10.109375 19.109375 -12.078125 
Q 22.125 -14.0625 27 -14.0625 
Q 29.984375 -14.0625 32.421875 -13.234375 
Q 34.859375 -12.40625 36.5625 -10.5625 
Q 38.28125 -8.734375 39.203125 -5.796875 
Q 40.140625 -2.875 40.140625 1.3125 
L 40.140625 9.8125 
L 40.046875 9.8125 
Q 39.0625 7.8125 37.625 5.984375 
Q 36.1875 4.15625 34.109375 2.734375 
Q 32.03125 1.3125 29.296875 0.453125 
Q 26.5625 -0.390625 23.046875 -0.390625 
Q 18.015625 -0.390625 14.421875 1.296875 
Q 10.84375 2.984375 8.5625 6.34375 
Q 6.296875 9.71875 5.25 14.71875 
Q 4.203125 19.734375 4.203125 26.3125 
Q 4.203125 32.671875 5.25 37.75 
Q 6.296875 42.828125 8.65625 46.359375 
Q 11.03125 49.90625 14.8125 51.78125 
Q 18.609375 53.65625 24.03125 53.65625 
Q 29.640625 53.65625 33.765625 51.09375 
Q 37.890625 48.53125 40.140625 43.796875 
L 40.234375 43.796875 
Q 40.234375 45.015625 40.296875 46.53125 
Q 40.375 48.046875 40.453125 49.390625 
Q 40.53125 50.734375 40.625 51.703125 
Q 40.71875 52.6875 40.828125 52.828125 
L 49.171875 52.828125 
Q 49.125 52.390625 49.078125 51.34375 
Q 49.03125 50.296875 48.96875 48.828125 
Q 48.921875 47.359375 48.890625 45.578125 
Q 48.875 43.796875 48.875 41.890625 
L 48.875 1.515625 
Q 48.875 -9.578125 43.421875 -15.15625 
Q 37.984375 -20.75 26.765625 -20.75 
z
M 40.140625 26.421875 
Q 40.140625 31.9375 38.9375 35.859375 
Q 37.75 39.796875 35.796875 42.28125 
Q 33.84375 44.78125 31.328125 45.953125 
Q 28.8125 47.125 26.171875 47.125 
Q 22.796875 47.125 20.375 45.953125 
Q 17.96875 44.78125 16.375 42.265625 
Q 14.796875 39.75 14.03125 35.8125 
Q 13.28125 31.890625 13.28125 26.421875 
Q 13.28125 20.703125 14.03125 16.8125 
Q 14.796875 12.9375 16.359375 10.546875 
Q 17.921875 8.15625 20.3125 7.125 
Q 22.703125 6.109375 26.03125 6.109375 
Q 28.65625 6.109375 31.171875 7.21875 
Q 33.6875 8.34375 35.6875 10.78125 
Q 37.703125 13.234375 38.921875 17.09375 
Q 40.140625 20.953125 40.140625 26.421875 
z
" id="LiberationSans-103"/>
     <path d="M 51.421875 26.46875 
Q 51.421875 12.59375 45.3125 5.796875 
Q 39.203125 -0.984375 27.59375 -0.984375 
Q 22.078125 -0.984375 17.71875 0.671875 
Q 13.375 2.34375 10.375 5.765625 
Q 7.375 9.1875 5.78125 14.328125 
Q 4.203125 19.484375 4.203125 26.46875 
Q 4.203125 53.8125 27.875 53.8125 
Q 34.03125 53.8125 38.5 52.09375 
Q 42.96875 50.390625 45.828125 46.96875 
Q 48.6875 43.5625 50.046875 38.421875 
Q 51.421875 33.296875 51.421875 26.46875 
z
M 42.1875 26.46875 
Q 42.1875 32.625 41.234375 36.625 
Q 40.28125 40.625 38.453125 43.015625 
Q 36.625 45.40625 33.984375 46.359375 
Q 31.34375 47.3125 28.03125 47.3125 
Q 24.65625 47.3125 21.9375 46.3125 
Q 19.234375 45.3125 17.328125 42.890625 
Q 15.4375 40.484375 14.421875 36.46875 
Q 13.421875 32.46875 13.421875 26.46875 
Q 13.421875 20.3125 14.5 16.28125 
Q 15.578125 12.25 17.453125 9.859375 
Q 19.34375 7.46875 21.90625 6.484375 
Q 24.46875 5.515625 27.484375 5.515625 
Q 30.859375 5.515625 33.59375 6.46875 
Q 36.328125 7.421875 38.234375 9.8125 
Q 40.140625 12.203125 41.15625 16.25 
Q 42.1875 20.3125 42.1875 26.46875 
z
" id="LiberationSans-111"/>
     <path d="M 27.046875 0.390625 
Q 25.046875 -0.140625 22.96875 -0.453125 
Q 20.90625 -0.78125 18.171875 -0.78125 
Q 7.625 -0.78125 7.625 11.1875 
L 7.625 46.4375 
L 1.515625 46.4375 
L 1.515625 52.828125 
L 7.953125 52.828125 
L 10.546875 64.65625 
L 16.40625 64.65625 
L 16.40625 52.828125 
L 26.171875 52.828125 
L 26.171875 46.4375 
L 16.40625 46.4375 
L 16.40625 13.09375 
Q 16.40625 9.28125 17.640625 7.734375 
Q 18.890625 6.203125 21.96875 6.203125 
Q 23.25 6.203125 24.4375 6.390625 
Q 25.640625 6.59375 27.046875 6.890625 
z
" id="LiberationSans-116"/>
     <path d="M 6.6875 64.0625 
L 6.6875 72.46875 
L 15.484375 72.46875 
L 15.484375 64.0625 
z
M 6.6875 0 
L 6.6875 52.828125 
L 15.484375 52.828125 
L 15.484375 0 
z
" id="LiberationSans-105"/>
     <path d="M 40.28125 0 
L 40.28125 33.5 
Q 40.28125 37.359375 39.71875 39.9375 
Q 39.15625 42.53125 37.890625 44.109375 
Q 36.625 45.703125 34.546875 46.359375 
Q 32.46875 47.015625 29.390625 47.015625 
Q 26.265625 47.015625 23.75 45.921875 
Q 21.234375 44.828125 19.453125 42.75 
Q 17.671875 40.671875 16.6875 37.625 
Q 15.71875 34.578125 15.71875 30.609375 
L 15.71875 0 
L 6.9375 0 
L 6.9375 41.546875 
Q 6.9375 43.21875 6.90625 45.046875 
Q 6.890625 46.875 6.828125 48.5 
Q 6.78125 50.140625 6.734375 51.3125 
Q 6.6875 52.484375 6.640625 52.828125 
L 14.9375 52.828125 
Q 14.984375 52.59375 15.03125 51.515625 
Q 15.09375 50.4375 15.15625 49.046875 
Q 15.234375 47.65625 15.28125 46.21875 
Q 15.328125 44.78125 15.328125 43.796875 
L 15.484375 43.796875 
Q 16.75 46.09375 18.265625 47.953125 
Q 19.78125 49.8125 21.78125 51.09375 
Q 23.78125 52.390625 26.359375 53.09375 
Q 28.953125 53.8125 32.375 53.8125 
Q 36.765625 53.8125 39.9375 52.734375 
Q 43.109375 51.65625 45.15625 49.40625 
Q 47.21875 47.171875 48.171875 43.625 
Q 49.125 40.09375 49.125 35.203125 
L 49.125 0 
z
" id="LiberationSans-110"/>
     <path d="M 51.421875 26.65625 
Q 51.421875 20.65625 50.4375 15.578125 
Q 49.46875 10.5 47.1875 6.828125 
Q 44.921875 3.171875 41.1875 1.09375 
Q 37.453125 -0.984375 31.984375 -0.984375 
Q 26.3125 -0.984375 22.0625 1.171875 
Q 17.828125 3.328125 15.578125 8.203125 
L 15.328125 8.203125 
Q 15.375 8.109375 15.40625 7.328125 
Q 15.4375 6.546875 15.453125 5.375 
Q 15.484375 4.203125 15.5 2.75 
Q 15.53125 1.3125 15.53125 -0.09375 
L 15.53125 -20.75 
L 6.734375 -20.75 
L 6.734375 42.046875 
Q 6.734375 43.953125 6.703125 45.703125 
Q 6.6875 47.46875 6.640625 48.90625 
Q 6.59375 50.34375 6.546875 51.359375 
Q 6.5 52.390625 6.453125 52.828125 
L 14.9375 52.828125 
Q 14.984375 52.6875 15.0625 51.796875 
Q 15.140625 50.921875 15.203125 49.671875 
Q 15.28125 48.4375 15.359375 47.015625 
Q 15.4375 45.609375 15.4375 44.34375 
L 15.625 44.34375 
Q 16.84375 46.875 18.40625 48.65625 
Q 19.96875 50.4375 21.96875 51.578125 
Q 23.96875 52.734375 26.4375 53.25 
Q 28.90625 53.765625 31.984375 53.765625 
Q 37.453125 53.765625 41.1875 51.8125 
Q 44.921875 49.859375 47.1875 46.3125 
Q 49.46875 42.78125 50.4375 37.765625 
Q 51.421875 32.765625 51.421875 26.65625 
z
M 42.1875 26.46875 
Q 42.1875 31.34375 41.59375 35.15625 
Q 41.015625 38.96875 39.578125 41.59375 
Q 38.140625 44.234375 35.734375 45.59375 
Q 33.34375 46.96875 29.734375 46.96875 
Q 26.8125 46.96875 24.21875 46.140625 
Q 21.625 45.3125 19.703125 42.96875 
Q 17.78125 40.625 16.65625 36.5 
Q 15.53125 32.375 15.53125 25.78125 
Q 15.53125 20.171875 16.453125 16.28125 
Q 17.390625 12.40625 19.171875 10.015625 
Q 20.953125 7.625 23.578125 6.5625 
Q 26.21875 5.515625 29.640625 5.515625 
Q 33.296875 5.515625 35.71875 6.921875 
Q 38.140625 8.34375 39.578125 11.03125 
Q 41.015625 13.71875 41.59375 17.59375 
Q 42.1875 21.484375 42.1875 26.46875 
z
" id="LiberationSans-112"/>
     <path d="M 15.328125 52.828125 
L 15.328125 19.34375 
Q 15.328125 15.484375 15.890625 12.890625 
Q 16.453125 10.296875 17.71875 8.703125 
Q 19 7.125 21.0625 6.46875 
Q 23.140625 5.8125 26.21875 5.8125 
Q 29.34375 5.8125 31.859375 6.90625 
Q 34.375 8.015625 36.15625 10.078125 
Q 37.9375 12.15625 38.90625 15.203125 
Q 39.890625 18.265625 39.890625 22.21875 
L 39.890625 52.828125 
L 48.6875 52.828125 
L 48.6875 11.28125 
Q 48.6875 9.625 48.703125 7.78125 
Q 48.734375 5.953125 48.78125 4.3125 
Q 48.828125 2.6875 48.875 1.515625 
Q 48.921875 0.34375 48.96875 0 
L 40.671875 0 
Q 40.625 0.25 40.578125 1.3125 
Q 40.53125 2.390625 40.453125 3.78125 
Q 40.375 5.171875 40.328125 6.609375 
Q 40.28125 8.0625 40.28125 9.03125 
L 40.140625 9.03125 
Q 38.875 6.734375 37.359375 4.875 
Q 35.84375 3.03125 33.84375 1.734375 
Q 31.84375 0.4375 29.25 -0.265625 
Q 26.65625 -0.984375 23.25 -0.984375 
Q 18.84375 -0.984375 15.671875 0.09375 
Q 12.5 1.171875 10.453125 3.421875 
Q 8.40625 5.671875 7.453125 9.1875 
Q 6.5 12.703125 6.5 17.625 
L 6.5 52.828125 
z
" id="LiberationSans-117"/>
     <path d="M 0 -0.984375 
L 20.0625 72.46875 
L 27.78125 72.46875 
L 7.90625 -0.984375 
z
" id="LiberationSans-47"/>
     <path d="M 40.09375 8.5 
Q 37.640625 3.421875 33.609375 1.21875 
Q 29.59375 -0.984375 23.640625 -0.984375 
Q 13.625 -0.984375 8.90625 5.75 
Q 4.203125 12.5 4.203125 26.171875 
Q 4.203125 53.8125 23.640625 53.8125 
Q 29.640625 53.8125 33.640625 51.609375 
Q 37.640625 49.421875 40.09375 44.625 
L 40.1875 44.625 
Q 40.1875 45.125 40.15625 46.171875 
Q 40.140625 47.21875 40.109375 48.359375 
Q 40.09375 49.515625 40.09375 50.53125 
Q 40.09375 51.5625 40.09375 52 
L 40.09375 72.46875 
L 48.875 72.46875 
L 48.875 10.890625 
Q 48.875 8.984375 48.890625 7.21875 
Q 48.921875 5.46875 48.96875 4 
Q 49.03125 2.546875 49.078125 1.484375 
Q 49.125 0.4375 49.171875 0 
L 40.765625 0 
Q 40.671875 0.484375 40.59375 1.390625 
Q 40.53125 2.296875 40.453125 3.46875 
Q 40.375 4.640625 40.328125 5.9375 
Q 40.28125 7.234375 40.28125 8.5 
z
M 13.421875 26.46875 
Q 13.421875 21 14.109375 17.09375 
Q 14.796875 13.1875 16.3125 10.671875 
Q 17.828125 8.15625 20.171875 6.984375 
Q 22.515625 5.8125 25.875 5.8125 
Q 29.34375 5.8125 32 6.9375 
Q 34.671875 8.0625 36.453125 10.578125 
Q 38.234375 13.09375 39.15625 17.140625 
Q 40.09375 21.1875 40.09375 27.046875 
Q 40.09375 32.671875 39.15625 36.546875 
Q 38.234375 40.4375 36.421875 42.828125 
Q 34.625 45.21875 32 46.265625 
Q 29.390625 47.3125 25.984375 47.3125 
Q 22.75 47.3125 20.40625 46.1875 
Q 18.0625 45.0625 16.5 42.578125 
Q 14.9375 40.09375 14.171875 36.109375 
Q 13.421875 32.125 13.421875 26.46875 
z
" id="LiberationSans-100"/>
     <path d="M 13.484375 24.5625 
Q 13.484375 20.40625 14.328125 16.90625 
Q 15.1875 13.421875 16.96875 10.90625 
Q 18.75 8.40625 21.53125 7 
Q 24.3125 5.609375 28.21875 5.609375 
Q 33.9375 5.609375 37.375 7.90625 
Q 40.828125 10.203125 42.046875 13.71875 
L 49.75 11.53125 
Q 48.921875 9.328125 47.4375 7.109375 
Q 45.953125 4.890625 43.453125 3.09375 
Q 40.96875 1.3125 37.234375 0.15625 
Q 33.5 -0.984375 28.21875 -0.984375 
Q 16.5 -0.984375 10.375 6 
Q 4.25 12.984375 4.25 26.765625 
Q 4.25 34.1875 6.09375 39.328125 
Q 7.953125 44.484375 11.171875 47.703125 
Q 14.40625 50.921875 18.703125 52.359375 
Q 23 53.8125 27.875 53.8125 
Q 34.515625 53.8125 38.984375 51.65625 
Q 43.453125 49.515625 46.15625 45.71875 
Q 48.875 41.9375 50.015625 36.8125 
Q 51.171875 31.6875 51.171875 25.734375 
L 51.171875 24.5625 
z
M 42.09375 31.296875 
Q 41.359375 39.65625 37.84375 43.484375 
Q 34.328125 47.3125 27.734375 47.3125 
Q 25.53125 47.3125 23.109375 46.609375 
Q 20.703125 45.90625 18.65625 44.09375 
Q 16.609375 42.28125 15.1875 39.171875 
Q 13.765625 36.078125 13.578125 31.296875 
z
" id="LiberationSans-101"/>
     <path d="M 13.421875 26.65625 
Q 13.421875 22.125 14.078125 18.3125 
Q 14.75 14.5 16.3125 11.734375 
Q 17.875 8.984375 20.4375 7.46875 
Q 23 5.953125 26.765625 5.953125 
Q 31.453125 5.953125 34.59375 8.484375 
Q 37.75 11.03125 38.484375 16.3125 
L 47.359375 15.71875 
Q 46.921875 12.453125 45.453125 9.421875 
Q 44 6.390625 41.484375 4.09375 
Q 38.96875 1.8125 35.34375 0.40625 
Q 31.734375 -0.984375 27 -0.984375 
Q 20.796875 -0.984375 16.453125 1.109375 
Q 12.109375 3.21875 9.390625 6.90625 
Q 6.6875 10.59375 5.46875 15.59375 
Q 4.25 20.609375 4.25 26.46875 
Q 4.25 31.78125 5.125 35.859375 
Q 6 39.9375 7.59375 42.984375 
Q 9.1875 46.046875 11.328125 48.125 
Q 13.484375 50.203125 15.984375 51.4375 
Q 18.5 52.6875 21.28125 53.25 
Q 24.078125 53.8125 26.90625 53.8125 
Q 31.34375 53.8125 34.8125 52.59375 
Q 38.28125 51.375 40.796875 49.25 
Q 43.3125 47.125 44.875 44.234375 
Q 46.4375 41.359375 47.078125 38.03125 
L 38.03125 37.359375 
Q 37.359375 41.75 34.5625 44.328125 
Q 31.78125 46.921875 26.65625 46.921875 
Q 22.90625 46.921875 20.390625 45.671875 
Q 17.875 44.4375 16.3125 41.921875 
Q 14.75 39.40625 14.078125 35.59375 
Q 13.421875 31.78125 13.421875 26.65625 
z
" id="LiberationSans-99"/>
    </defs>
    <use xlink:href="#LiberationSans-69"/>
    <use x="66.699219" xlink:href="#LiberationSans-103"/>
    <use x="122.314453" xlink:href="#LiberationSans-111"/>
    <use x="177.929688" xlink:href="#LiberationSans-109"/>
    <use x="261.230469" xlink:href="#LiberationSans-111"/>
    <use x="316.845703" xlink:href="#LiberationSans-116"/>
    <use x="344.628906" xlink:href="#LiberationSans-105"/>
    <use x="366.845703" xlink:href="#LiberationSans-111"/>
    <use x="422.460938" xlink:href="#LiberationSans-110"/>
    <use x="478.076172" xlink:href="#LiberationSans-32"/>
    <use x="505.859375" xlink:href="#LiberationSans-105"/>
    <use x="528.076172" xlink:href="#LiberationSans-110"/>
    <use x="583.691406" xlink:href="#LiberationSans-112"/>
    <use x="639.306641" xlink:href="#LiberationSans-117"/>
    <use x="694.921875" xlink:href="#LiberationSans-116"/>
    <use x="722.705078" xlink:href="#LiberationSans-47"/>
    <use x="750.488281" xlink:href="#LiberationSans-100"/>
    <use x="806.103516" xlink:href="#LiberationSans-101"/>
    <use x="861.71875" xlink:href="#LiberationSans-99"/>
    <use x="911.71875" xlink:href="#LiberationSans-111"/>
    <use x="967.333984" xlink:href="#LiberationSans-100"/>
    <use x="1022.949219" xlink:href="#LiberationSans-105"/>
    <use x="1045.166016" xlink:href="#LiberationSans-110"/>
    <use x="1100.78125" xlink:href="#LiberationSans-103"/>
   </g>
  </g>
 </g>
 <defs>
  <clipPath id="pc5a7e9664e">
   <rect height="120.96" width="357.12" x="57.6" y="41.472"/>
  </clipPath>
  <clipPath id="p7a3dfc2e9c">
   <rect height="120.96" width="357.12" x="57.6" y="186.624"/>
  </clipPath>
 </defs>
</svg>
