<?xml version="1.0" encoding="utf-8" standalone="no"?>
<!DOCTYPE svg PUBLIC "-//W3C//DTD SVG 1.1//EN"
  "http://www.w3.org/Graphics/SVG/1.1/DTD/svg11.dtd">
<!-- Created with matplotlib (https://matplotlib.org/) -->
<svg height="345.6pt" version="1.1" viewBox="0 0 460.8 345.6" width="460.8pt" xmlns="http://www.w3.org/2000/svg" xmlns:xlink="http://www.w3.org/1999/xlink">
 <metadata>
  <rdf:RDF xmlns:cc="http://creativecommons.org/ns#" xmlns:dc="http://purl.org/dc/elements/1.1/" xmlns:rdf="http://www.w3.org/1999/02/22-rdf-syntax-ns#">
   <cc:Work>
    <dc:type rdf:resource="http://purl.org/dc/dcmitype/StillImage"/>
    <dc:date>2022-05-05T12:08:44.491825</dc:date>
    <dc:format>image/svg+xml</dc:format>
    <dc:creator>
     <cc:Agent>
      <dc:title>Matplotlib v3.3.4, https://matplotlib.org/</dc:title>
     </cc:Agent>
    </dc:creator>
   </cc:Work>
  </rdf:RDF>
 </metadata>
 <defs>
  <style type="text/css">*{stroke-linecap:butt;stroke-linejoin:round;}</style>
 </defs>
 <g id="figure_1">
  <g id="patch_1">
   <path d="M 0 345.6 
L 460.8 345.6 
L 460.8 0 
L 0 0 
z
" style="fill:#262626;"/>
  </g>
  <g id="axes_1">
   <g id="patch_2">
    <path d="M 57.6 119.740235 
L 414.72 119.740235 
L 414.72 41.472 
L 57.6 41.472 
z
" style="fill:#1a1a1a;"/>
   </g>
   <g id="matplotlib.axis_1">
    <g id="xtick_1">
     <g id="line2d_1">
      <defs>
       <path d="M 0 0 
L 0 3.5 
" id="m6c8df72f0f" style="stroke:#ffffff;stroke-width:0.8;"/>
      </defs>
      <g>
       <use style="fill:#ffffff;stroke:#ffffff;stroke-width:0.8;" x="73.832727" xlink:href="#m6c8df72f0f" y="119.740235"/>
      </g>
     </g>
     <g id="text_1">
      <!-- 0 -->
      <g style="fill:#ffffff;" transform="translate(71.052259 133.98711)scale(0.1 -0.1)">
       <defs>
        <path d="M 51.703125 34.421875 
Q 51.703125 24.515625 49.828125 17.75 
Q 47.953125 10.984375 44.703125 6.8125 
Q 41.453125 2.640625 37.0625 0.828125 
Q 32.671875 -0.984375 27.6875 -0.984375 
Q 22.65625 -0.984375 18.3125 0.828125 
Q 13.96875 2.640625 10.765625 6.78125 
Q 7.5625 10.9375 5.734375 17.703125 
Q 3.90625 24.46875 3.90625 34.421875 
Q 3.90625 44.828125 5.734375 51.640625 
Q 7.5625 58.453125 10.78125 62.5 
Q 14.015625 66.546875 18.40625 68.1875 
Q 22.796875 69.828125 27.984375 69.828125 
Q 32.90625 69.828125 37.21875 68.1875 
Q 41.546875 66.546875 44.765625 62.5 
Q 48 58.453125 49.84375 51.640625 
Q 51.703125 44.828125 51.703125 34.421875 
z
M 42.78125 34.421875 
Q 42.78125 42.625 41.796875 48.0625 
Q 40.828125 53.515625 38.921875 56.765625 
Q 37.015625 60.015625 34.25 61.359375 
Q 31.5 62.703125 27.984375 62.703125 
Q 24.265625 62.703125 21.4375 61.328125 
Q 18.609375 59.96875 16.671875 56.71875 
Q 14.75 53.46875 13.765625 48.015625 
Q 12.796875 42.578125 12.796875 34.421875 
Q 12.796875 26.515625 13.796875 21.09375 
Q 14.796875 15.671875 16.71875 12.375 
Q 18.65625 9.078125 21.4375 7.640625 
Q 24.21875 6.203125 27.78125 6.203125 
Q 31.25 6.203125 34.03125 7.640625 
Q 36.8125 9.078125 38.734375 12.375 
Q 40.671875 15.671875 41.71875 21.09375 
Q 42.78125 26.515625 42.78125 34.421875 
z
" id="LiberationSans-48"/>
       </defs>
       <use xlink:href="#LiberationSans-48"/>
      </g>
     </g>
    </g>
    <g id="xtick_2">
     <g id="line2d_2">
      <g>
       <use style="fill:#ffffff;stroke:#ffffff;stroke-width:0.8;" x="138.776625" xlink:href="#m6c8df72f0f" y="119.740235"/>
      </g>
     </g>
     <g id="text_2">
      <!-- 200 -->
      <g style="fill:#ffffff;" transform="translate(130.435219 133.98711)scale(0.1 -0.1)">
       <defs>
        <path d="M 5.03125 0 
L 5.03125 6.203125 
Q 7.515625 11.921875 11.109375 16.28125 
Q 14.703125 20.65625 18.65625 24.1875 
Q 22.609375 27.734375 26.484375 30.765625 
Q 30.375 33.796875 33.5 36.8125 
Q 36.625 39.84375 38.546875 43.15625 
Q 40.484375 46.484375 40.484375 50.6875 
Q 40.484375 53.609375 39.59375 55.828125 
Q 38.71875 58.0625 37.0625 59.5625 
Q 35.40625 61.078125 33.078125 61.828125 
Q 30.765625 62.59375 27.9375 62.59375 
Q 25.296875 62.59375 22.96875 61.859375 
Q 20.65625 61.140625 18.84375 59.671875 
Q 17.046875 58.203125 15.890625 56.03125 
Q 14.75 53.859375 14.40625 50.984375 
L 5.421875 51.8125 
Q 5.859375 55.515625 7.46875 58.78125 
Q 9.078125 62.0625 11.90625 64.53125 
Q 14.75 67 18.71875 68.40625 
Q 22.703125 69.828125 27.9375 69.828125 
Q 33.0625 69.828125 37.0625 68.609375 
Q 41.0625 67.390625 43.8125 64.984375 
Q 46.578125 62.59375 48.046875 59.078125 
Q 49.515625 55.5625 49.515625 50.984375 
Q 49.515625 47.515625 48.265625 44.390625 
Q 47.015625 41.265625 44.9375 38.421875 
Q 42.875 35.59375 40.140625 32.953125 
Q 37.40625 30.328125 34.421875 27.8125 
Q 31.453125 25.296875 28.421875 22.828125 
Q 25.390625 20.359375 22.71875 17.859375 
Q 20.0625 15.375 17.96875 12.8125 
Q 15.875 10.25 14.703125 7.46875 
L 50.59375 7.46875 
L 50.59375 0 
z
" id="LiberationSans-50"/>
       </defs>
       <use xlink:href="#LiberationSans-50"/>
       <use x="55.615234" xlink:href="#LiberationSans-48"/>
       <use x="111.230469" xlink:href="#LiberationSans-48"/>
      </g>
     </g>
    </g>
    <g id="xtick_3">
     <g id="line2d_3">
      <g>
       <use style="fill:#ffffff;stroke:#ffffff;stroke-width:0.8;" x="203.720523" xlink:href="#m6c8df72f0f" y="119.740235"/>
      </g>
     </g>
     <g id="text_3">
      <!-- 400 -->
      <g style="fill:#ffffff;" transform="translate(195.379117 133.98711)scale(0.1 -0.1)">
       <defs>
        <path d="M 43.015625 15.578125 
L 43.015625 0 
L 34.71875 0 
L 34.71875 15.578125 
L 2.296875 15.578125 
L 2.296875 22.40625 
L 33.796875 68.796875 
L 43.015625 68.796875 
L 43.015625 22.515625 
L 52.6875 22.515625 
L 52.6875 15.578125 
z
M 34.71875 58.890625 
Q 34.625 58.640625 34.234375 57.9375 
Q 33.84375 57.234375 33.34375 56.34375 
Q 32.859375 55.46875 32.34375 54.5625 
Q 31.84375 53.65625 31.453125 53.078125 
L 13.8125 27.09375 
Q 13.578125 26.703125 13.109375 26.0625 
Q 12.640625 25.4375 12.15625 24.78125 
Q 11.671875 24.125 11.171875 23.484375 
Q 10.6875 22.859375 10.40625 22.515625 
L 34.71875 22.515625 
z
" id="LiberationSans-52"/>
       </defs>
       <use xlink:href="#LiberationSans-52"/>
       <use x="55.615234" xlink:href="#LiberationSans-48"/>
       <use x="111.230469" xlink:href="#LiberationSans-48"/>
      </g>
     </g>
    </g>
    <g id="xtick_4">
     <g id="line2d_4">
      <g>
       <use style="fill:#ffffff;stroke:#ffffff;stroke-width:0.8;" x="268.664421" xlink:href="#m6c8df72f0f" y="119.740235"/>
      </g>
     </g>
     <g id="text_4">
      <!-- 600 -->
      <g style="fill:#ffffff;" transform="translate(260.323015 133.98711)scale(0.1 -0.1)">
       <defs>
        <path d="M 51.21875 22.515625 
Q 51.21875 17.328125 49.78125 13 
Q 48.34375 8.6875 45.53125 5.578125 
Q 42.71875 2.484375 38.5625 0.75 
Q 34.421875 -0.984375 29 -0.984375 
Q 23 -0.984375 18.5 1.3125 
Q 14.015625 3.609375 11.03125 7.921875 
Q 8.0625 12.25 6.5625 18.53125 
Q 5.078125 24.8125 5.078125 32.8125 
Q 5.078125 42 6.765625 48.921875 
Q 8.453125 55.859375 11.625 60.5 
Q 14.796875 65.140625 19.359375 67.484375 
Q 23.921875 69.828125 29.6875 69.828125 
Q 33.203125 69.828125 36.28125 69.09375 
Q 39.359375 68.359375 41.875 66.71875 
Q 44.390625 65.09375 46.28125 62.40625 
Q 48.1875 59.71875 49.3125 55.8125 
L 40.921875 54.296875 
Q 39.546875 58.734375 36.546875 60.71875 
Q 33.546875 62.703125 29.59375 62.703125 
Q 25.984375 62.703125 23.046875 60.984375 
Q 20.125 59.28125 18.0625 55.875 
Q 16.015625 52.484375 14.90625 47.359375 
Q 13.8125 42.234375 13.8125 35.40625 
Q 16.21875 39.84375 20.5625 42.15625 
Q 24.90625 44.484375 30.515625 44.484375 
Q 35.203125 44.484375 39.015625 42.96875 
Q 42.828125 41.453125 45.53125 38.59375 
Q 48.25 35.75 49.734375 31.671875 
Q 51.21875 27.59375 51.21875 22.515625 
z
M 42.28125 22.125 
Q 42.28125 25.6875 41.40625 28.5625 
Q 40.53125 31.453125 38.765625 33.46875 
Q 37.015625 35.5 34.421875 36.59375 
Q 31.84375 37.703125 28.421875 37.703125 
Q 26.03125 37.703125 23.578125 36.984375 
Q 21.140625 36.28125 19.15625 34.6875 
Q 17.1875 33.109375 15.9375 30.515625 
Q 14.703125 27.9375 14.703125 24.21875 
Q 14.703125 20.40625 15.671875 17.109375 
Q 16.65625 13.8125 18.484375 11.375 
Q 20.3125 8.9375 22.890625 7.515625 
Q 25.484375 6.109375 28.71875 6.109375 
Q 31.890625 6.109375 34.40625 7.203125 
Q 36.921875 8.296875 38.671875 10.375 
Q 40.4375 12.453125 41.359375 15.421875 
Q 42.28125 18.40625 42.28125 22.125 
z
" id="LiberationSans-54"/>
       </defs>
       <use xlink:href="#LiberationSans-54"/>
       <use x="55.615234" xlink:href="#LiberationSans-48"/>
       <use x="111.230469" xlink:href="#LiberationSans-48"/>
      </g>
     </g>
    </g>
    <g id="xtick_5">
     <g id="line2d_5">
      <g>
       <use style="fill:#ffffff;stroke:#ffffff;stroke-width:0.8;" x="333.608319" xlink:href="#m6c8df72f0f" y="119.740235"/>
      </g>
     </g>
     <g id="text_5">
      <!-- 800 -->
      <g style="fill:#ffffff;" transform="translate(325.266913 133.98711)scale(0.1 -0.1)">
       <defs>
        <path d="M 51.265625 19.1875 
Q 51.265625 14.796875 49.875 11.109375 
Q 48.484375 7.421875 45.625 4.734375 
Q 42.78125 2.046875 38.328125 0.53125 
Q 33.890625 -0.984375 27.828125 -0.984375 
Q 21.78125 -0.984375 17.359375 0.53125 
Q 12.9375 2.046875 10.03125 4.703125 
Q 7.125 7.375 5.734375 11.0625 
Q 4.34375 14.75 4.34375 19.09375 
Q 4.34375 22.859375 5.484375 25.78125 
Q 6.640625 28.71875 8.5625 30.828125 
Q 10.5 32.953125 12.96875 34.25 
Q 15.4375 35.546875 18.0625 35.984375 
L 18.0625 36.1875 
Q 15.1875 36.859375 12.90625 38.375 
Q 10.640625 39.890625 9.09375 42.015625 
Q 7.5625 44.140625 6.75 46.71875 
Q 5.953125 49.3125 5.953125 52.203125 
Q 5.953125 55.8125 7.34375 59 
Q 8.734375 62.203125 11.46875 64.625 
Q 14.203125 67.046875 18.25 68.4375 
Q 22.3125 69.828125 27.640625 69.828125 
Q 33.25 69.828125 37.375 68.40625 
Q 41.5 67 44.203125 64.578125 
Q 46.921875 62.15625 48.234375 58.9375 
Q 49.5625 55.71875 49.5625 52.09375 
Q 49.5625 49.265625 48.75 46.671875 
Q 47.953125 44.09375 46.40625 41.96875 
Q 44.875 39.84375 42.59375 38.34375 
Q 40.328125 36.859375 37.359375 36.28125 
L 37.359375 36.078125 
Q 40.328125 35.59375 42.859375 34.296875 
Q 45.40625 33.015625 47.265625 30.890625 
Q 49.125 28.765625 50.1875 25.828125 
Q 51.265625 22.90625 51.265625 19.1875 
z
M 40.4375 51.609375 
Q 40.4375 54.203125 39.765625 56.34375 
Q 39.109375 58.5 37.59375 60.03125 
Q 36.078125 61.578125 33.640625 62.421875 
Q 31.203125 63.28125 27.640625 63.28125 
Q 24.171875 63.28125 21.78125 62.421875 
Q 19.390625 61.578125 17.84375 60.03125 
Q 16.3125 58.5 15.625 56.34375 
Q 14.9375 54.203125 14.9375 51.609375 
Q 14.9375 49.5625 15.46875 47.40625 
Q 16.015625 45.265625 17.421875 43.5 
Q 18.84375 41.75 21.328125 40.625 
Q 23.828125 39.5 27.734375 39.5 
Q 31.890625 39.5 34.40625 40.625 
Q 36.921875 41.75 38.25 43.5 
Q 39.59375 45.265625 40.015625 47.40625 
Q 40.4375 49.5625 40.4375 51.609375 
z
M 42.140625 20.015625 
Q 42.140625 22.515625 41.453125 24.828125 
Q 40.765625 27.15625 39.109375 28.9375 
Q 37.453125 30.71875 34.640625 31.8125 
Q 31.84375 32.90625 27.640625 32.90625 
Q 23.78125 32.90625 21.0625 31.8125 
Q 18.359375 30.71875 16.671875 28.90625 
Q 14.984375 27.09375 14.203125 24.71875 
Q 13.421875 22.359375 13.421875 19.828125 
Q 13.421875 16.65625 14.203125 14.03125 
Q 14.984375 11.421875 16.6875 9.546875 
Q 18.40625 7.671875 21.1875 6.640625 
Q 23.96875 5.609375 27.9375 5.609375 
Q 31.9375 5.609375 34.671875 6.640625 
Q 37.40625 7.671875 39.0625 9.546875 
Q 40.71875 11.421875 41.421875 14.078125 
Q 42.140625 16.75 42.140625 20.015625 
z
" id="LiberationSans-56"/>
       </defs>
       <use xlink:href="#LiberationSans-56"/>
       <use x="55.615234" xlink:href="#LiberationSans-48"/>
       <use x="111.230469" xlink:href="#LiberationSans-48"/>
      </g>
     </g>
    </g>
    <g id="xtick_6">
     <g id="line2d_6">
      <g>
       <use style="fill:#ffffff;stroke:#ffffff;stroke-width:0.8;" x="398.552217" xlink:href="#m6c8df72f0f" y="119.740235"/>
      </g>
     </g>
     <g id="text_6">
      <!-- 1000 -->
      <g style="fill:#ffffff;" transform="translate(387.430342 133.98711)scale(0.1 -0.1)">
       <defs>
        <path d="M 7.625 0 
L 7.625 7.46875 
L 25.140625 7.46875 
L 25.140625 60.40625 
L 9.625 49.3125 
L 9.625 57.625 
L 25.875 68.796875 
L 33.984375 68.796875 
L 33.984375 7.46875 
L 50.734375 7.46875 
L 50.734375 0 
z
" id="LiberationSans-49"/>
       </defs>
       <use xlink:href="#LiberationSans-49"/>
       <use x="55.615234" xlink:href="#LiberationSans-48"/>
       <use x="111.230469" xlink:href="#LiberationSans-48"/>
       <use x="166.845703" xlink:href="#LiberationSans-48"/>
      </g>
     </g>
    </g>
   </g>
   <g id="matplotlib.axis_2">
    <g id="ytick_1">
     <g id="line2d_7">
      <defs>
       <path d="M 0 0 
L -3.5 0 
" id="m49230c7c1b" style="stroke:#ffffff;stroke-width:0.8;"/>
      </defs>
      <g>
       <use style="fill:#ffffff;stroke:#ffffff;stroke-width:0.8;" x="57.6" xlink:href="#m49230c7c1b" y="91.940392"/>
      </g>
     </g>
     <g id="text_7">
      <!-- 0 -->
      <g style="fill:#ffffff;" transform="translate(45.039062 95.56383)scale(0.1 -0.1)">
       <use xlink:href="#LiberationSans-48"/>
      </g>
     </g>
    </g>
    <g id="ytick_2">
     <g id="line2d_8">
      <g>
       <use style="fill:#ffffff;stroke:#ffffff;stroke-width:0.8;" x="57.6" xlink:href="#m49230c7c1b" y="59.394982"/>
      </g>
     </g>
     <g id="text_8">
      <!-- 2 -->
      <g style="fill:#ffffff;" transform="translate(45.039062 63.01842)scale(0.1 -0.1)">
       <use xlink:href="#LiberationSans-50"/>
      </g>
     </g>
    </g>
    <g id="text_9">
     <!-- $u$ -->
     <g style="fill:#ffffff;" transform="translate(38.964062 83.806118)rotate(-90)scale(0.1 -0.1)">
      <defs>
       <path d="M 6.6875 21.6875 
L 13.09375 54.6875 
L 22.125 54.6875 
L 15.71875 22.015625 
Q 15.234375 19.625 15.015625 17.921875 
Q 14.796875 16.21875 14.796875 15.09375 
Q 14.796875 10.9375 17.328125 8.65625 
Q 19.875 6.390625 24.515625 6.390625 
Q 31.734375 6.390625 37 11.265625 
Q 42.28125 16.15625 43.890625 24.421875 
L 49.90625 54.6875 
L 58.890625 54.6875 
L 48.296875 0 
L 39.3125 0 
L 41.109375 8.59375 
Q 37.3125 3.8125 32.0625 1.1875 
Q 26.8125 -1.421875 20.90625 -1.421875 
Q 13.71875 -1.421875 9.71875 2.515625 
Q 5.71875 6.453125 5.71875 13.484375 
Q 5.71875 14.9375 5.953125 17.140625 
Q 6.203125 19.34375 6.6875 21.6875 
z
" id="DejaVuSans-Oblique-117"/>
      </defs>
      <use transform="translate(0 0.3125)" xlink:href="#DejaVuSans-Oblique-117"/>
     </g>
    </g>
   </g>
   <g id="line2d_9">
    <path clip-path="url(#pbbbba27ea7)" d="M 73.832727 45.029647 
L 73.897671 116.182588 
L 73.962615 109.159643 
L 74.092503 101.747892 
L 75.326437 93.850388 
L 76.560371 87.319476 
L 77.599473 82.704719 
L 77.664417 104.970269 
L 77.729361 104.484085 
L 78.963295 96.113108 
L 80.197229 89.190653 
L 81.431163 83.466065 
L 82.405322 79.655356 
L 82.470266 101.951247 
L 82.53521 101.495102 
L 83.769144 93.641342 
L 85.003078 87.146603 
L 86.237012 81.775719 
L 86.431843 81.017134 
L 86.496787 88.845293 
L 86.561731 88.519555 
L 87.795665 82.911095 
L 88.055441 81.860145 
L 88.120385 104.134098 
L 88.185329 103.656234 
L 89.419263 95.428509 
L 90.653197 88.624517 
L 91.887131 82.997894 
L 92.017019 82.465446 
L 92.081963 89.747791 
L 92.146906 89.413073 
L 93.380841 83.649997 
L 93.900392 81.532496 
L 93.965336 87.896243 
L 94.03028 87.579949 
L 95.264214 82.134079 
L 95.783765 80.133127 
L 95.848709 102.424264 
L 95.913653 101.963413 
L 97.147587 94.028616 
L 98.121745 88.746627 
L 98.186689 94.997347 
L 98.251633 94.610395 
L 99.485567 87.947971 
L 100.719501 82.438418 
L 100.784445 82.176429 
L 100.849389 88.492524 
L 100.914333 88.170296 
L 102.148267 82.622272 
L 103.187369 78.702026 
L 103.252313 86.021818 
L 103.317257 85.724174 
L 104.551191 80.599429 
L 105.005798 78.943681 
L 105.070742 80.303753 
L 105.135686 80.063005 
L 105.20063 79.824653 
L 105.265574 102.118859 
L 105.330518 101.661047 
L 106.564452 93.778571 
L 107.798386 87.260086 
L 108.837488 82.654111 
L 108.902432 90.465981 
L 108.967376 90.124117 
L 110.20131 84.238002 
L 110.590973 82.599859 
L 110.655917 104.866452 
L 110.720861 104.381301 
L 111.954795 96.02811 
L 113.188729 89.120363 
L 114.422663 83.407938 
L 114.747383 82.076522 
L 114.812327 89.796726 
L 114.877271 89.461521 
L 116.111205 83.690062 
L 116.37098 82.608568 
L 116.435924 104.875074 
L 116.500868 104.389837 
L 117.734802 96.035169 
L 118.968736 89.126201 
L 119.877951 84.812692 
L 119.942895 92.50567 
L 120.007839 92.143511 
L 121.046941 86.815491 
L 121.111885 93.085426 
L 121.176829 92.717498 
L 122.410763 86.382622 
L 122.540651 85.783151 
L 122.670538 76.87485 
L 122.735482 76.66822 
L 122.800426 105.908935 
L 122.86537 105.413411 
L 122.930314 104.922818 
L 123.060202 97.594961 
L 124.294136 90.416085 
L 125.52807 84.479447 
L 126.177509 81.779582 
L 126.242453 104.054336 
L 126.307397 103.577266 
L 127.541331 95.363206 
L 128.450545 90.234884 
L 128.515489 96.512042 
L 128.580433 96.110018 
L 129.814367 89.188097 
L 130.918414 84.016571 
L 130.983357 91.814885 
L 131.048301 91.459599 
L 132.282235 85.342391 
L 133.516169 80.28371 
L 133.581113 80.043161 
L 133.646057 87.783597 
L 133.711001 87.468423 
L 134.944935 82.041851 
L 135.204711 81.024985 
L 135.269655 82.364347 
L 135.334599 82.103096 
L 135.984038 79.62937 
L 136.048981 101.92552 
L 136.113925 101.469632 
L 136.373701 99.690991 
L 136.503589 92.466732 
L 137.737523 86.175249 
L 138.581793 82.509958 
L 138.646737 88.822734 
L 138.711681 88.49722 
L 138.971457 87.676203 
L 139.880671 85.705962 
L 140.724942 84.353551 
L 141.569213 83.403173 
L 142.088764 82.847003 
L 142.868091 80.669561 
L 142.933035 103.029815 
L 142.997979 102.637394 
L 144.231913 95.8808 
L 145.011239 92.229502 
L 145.076183 93.531833 
L 145.141127 93.233919 
L 146.375061 88.10451 
L 147.608995 83.862699 
L 148.842929 80.354895 
L 148.907873 102.718281 
L 148.972817 102.328959 
L 149.946976 96.933093 
L 150.076863 90.741689 
L 151.115966 86.727315 
L 151.18091 93.412208 
L 151.245854 93.115484 
L 152.479788 88.006569 
L 153.713722 83.781706 
L 155.0126 80.121782 
L 155.337319 79.315574 
L 155.402263 101.689301 
L 155.467207 101.310218 
L 156.701141 94.78328 
L 157.935075 89.385769 
L 159.169009 84.922248 
L 160.402943 81.231098 
L 160.467887 87.631054 
L 160.532831 87.391853 
L 161.766765 83.273361 
L 161.831709 91.153525 
L 161.896653 90.879275 
L 162.221372 89.548418 
L 162.35126 82.673165 
L 162.611036 81.924948 
L 162.67598 88.359246 
L 162.740923 88.112799 
L 163.974858 83.869554 
L 164.884072 81.220349 
L 164.949016 103.575123 
L 165.01396 103.177276 
L 166.247894 96.327261 
L 167.481828 90.662578 
L 168.715762 85.978117 
L 169.949696 82.104259 
L 170.729023 80.010806 
L 170.793967 102.377615 
L 170.858911 101.991684 
L 171.638237 96.751434 
L 173.067003 86.733147 
L 173.131947 91.117551 
L 173.196891 90.650819 
L 173.586554 87.915593 
L 173.651498 92.276318 
L 173.716442 91.786144 
L 174.690601 85.270793 
L 174.885432 84.408913 
L 174.950376 106.657505 
L 175.01532 106.154533 
L 176.249254 97.494501 
L 177.483188 90.333008 
L 178.392403 85.86184 
L 178.457347 93.11039 
L 178.522291 92.742214 
L 179.756225 86.403061 
L 180.600495 82.709999 
L 180.665439 90.521314 
L 180.730383 90.178899 
L 181.964317 84.283304 
L 182.808588 80.84865 
L 182.873532 103.132668 
L 182.938476 102.664768 
L 183.133307 101.288819 
L 183.263195 94.862996 
L 184.497129 88.156861 
L 184.627017 87.522258 
L 184.691961 93.826407 
L 184.756905 93.451106 
L 185.990839 86.989286 
L 186.250614 85.778427 
L 186.315558 92.058681 
L 186.380502 91.70097 
L 187.614436 85.541995 
L 188.198931 83.008677 
L 188.263875 105.271202 
L 188.328819 104.782023 
L 189.562753 96.359491 
L 190.796687 89.394402 
L 190.861631 89.0632 
L 190.926575 90.322581 
L 190.991519 89.982144 
L 192.225453 84.120596 
L 192.939836 81.202678 
L 193.00478 89.02899 
L 193.069724 88.701424 
L 194.303658 83.061493 
L 195.018041 80.253897 
L 195.082985 102.543833 
L 195.147928 102.081792 
L 196.381863 94.12651 
L 197.615797 87.547818 
L 198.654899 82.899299 
L 198.719843 90.611316 
L 198.784787 90.268006 
L 200.018721 84.356992 
L 200.66816 81.668779 
L 200.733104 103.944637 
L 200.798048 103.468658 
L 202.031982 95.273392 
L 203.265916 88.496241 
L 203.850411 86.007967 
L 203.915355 92.479817 
L 203.980299 92.272038 
L 204.954457 89.56295 
L 205.863672 87.659042 
L 206.707942 86.360441 
L 207.032662 85.819399 
L 207.357381 84.735315 
L 207.422325 86.112215 
L 207.487269 85.888126 
L 207.747045 85.01385 
L 207.811989 107.330878 
L 207.876932 106.895661 
L 208.721203 101.616645 
L 208.851091 94.502424 
L 210.085025 89.153513 
L 210.604576 87.188186 
L 210.66952 95.029397 
L 210.734464 94.716581 
L 211.968398 89.330612 
L 213.202332 84.876635 
L 214.50121 81.018233 
L 215.020761 79.678376 
L 215.085705 108.62397 
L 215.150649 101.750689 
L 216.384583 95.147531 
L 217.618517 89.68699 
L 218.852451 85.171345 
L 219.891554 81.980581 
L 219.956497 86.603625 
L 220.021441 86.374647 
L 221.255375 82.432173 
L 221.515151 81.693406 
L 221.580095 104.043474 
L 221.645039 97.215769 
L 222.878973 91.397338 
L 224.112907 86.585733 
L 225.346841 82.606733 
L 225.411785 82.417525 
L 225.476729 89.774802 
L 225.541673 89.51427 
L 226.775607 85.028513 
L 228.074485 81.142581 
L 228.464148 80.120466 
L 228.529092 102.486184 
L 228.594036 102.099172 
L 229.82797 95.435713 
L 231.061904 89.925304 
L 232.295838 85.368421 
L 233.594716 81.420874 
L 234.503931 79.091569 
L 234.568875 86.915928 
L 234.633818 86.683843 
L 235.867752 82.687865 
L 236.32236 81.097498 
L 236.647079 79.480827 
L 236.712023 101.69283 
L 236.776967 101.152143 
L 238.270677 89.715794 
L 239.050003 84.424223 
L 239.114947 90.618476 
L 239.179891 90.132884 
L 239.699442 86.964355 
L 240.933376 81.625008 
L 241.128208 80.870877 
L 241.193152 88.700491 
L 241.258096 88.376194 
L 242.49203 82.792541 
L 242.946637 80.988526 
L 243.011581 108.077173 
L 243.076525 101.134877 
L 244.310459 93.343451 
L 245.544393 86.900259 
L 246.778327 81.572003 
L 246.843271 89.394641 
L 246.908215 89.063437 
L 248.142149 83.360863 
L 248.466869 82.031743 
L 248.531813 104.303988 
L 248.596756 103.824434 
L 249.830691 95.567604 
L 251.064625 88.739543 
L 252.038783 84.19428 
L 252.103727 98.076145 
L 252.168671 97.658558 
L 253.402605 90.468677 
L 254.636539 84.522939 
L 255.221034 82.07733 
L 255.285978 104.349122 
L 255.350922 103.869118 
L 256.584856 95.604556 
L 257.81879 88.770101 
L 259.052724 83.118286 
L 259.117668 89.425009 
L 259.182612 89.093503 
L 260.416546 83.385726 
L 260.936097 81.288543 
L 261.001041 103.568183 
L 261.065985 103.09595 
L 262.299919 94.965178 
L 263.533853 88.241361 
L 264.378124 84.324202 
L 264.443068 91.588052 
L 264.508011 91.235023 
L 265.741945 85.156676 
L 266.97588 80.130131 
L 267.040823 87.435713 
L 267.105767 87.124001 
L 267.950038 83.343053 
L 268.014982 105.602251 
L 268.079926 93.097802 
L 269.31386 86.697118 
L 270.093187 83.238155 
L 270.158131 91.044214 
L 270.223074 90.696597 
L 271.457008 84.711419 
L 272.171391 81.731957 
L 272.236335 104.007186 
L 272.301279 103.530585 
L 273.535213 95.324603 
L 274.769147 88.538591 
L 275.548474 84.871395 
L 275.613418 100.205806 
L 275.678362 99.767029 
L 276.912296 92.212296 
L 278.14623 85.96484 
L 279.380164 80.79845 
L 279.63994 79.830338 
L 279.704884 102.124488 
L 279.769827 101.66662 
L 281.003761 93.78318 
L 281.6532 90.197947 
L 281.718144 91.446037 
L 281.783088 91.094422 
L 282.367583 88.083213 
L 282.432527 94.340534 
L 282.497471 93.960118 
L 283.666461 87.724807 
L 283.731405 95.486223 
L 283.796349 95.094406 
L 285.030283 88.348228 
L 286.264217 82.769414 
L 286.913656 80.23228 
L 286.9786 102.52243 
L 287.043544 102.060603 
L 288.277478 94.108988 
L 289.511412 87.533327 
L 290.485571 83.15608 
L 290.550514 89.503673 
L 290.615458 89.171384 
L 291.849392 83.45013 
L 292.368944 81.347996 
L 292.433888 88.64146 
L 292.498831 88.31775 
L 293.732765 82.74421 
L 294.382204 80.209474 
L 294.447148 87.514267 
L 294.512092 87.201773 
L 295.746026 81.821342 
L 296.330521 79.608257 
L 296.395465 101.904617 
L 296.460409 101.448936 
L 297.694343 93.603164 
L 298.928277 87.115032 
L 300.162211 81.749611 
L 300.421987 80.744204 
L 300.486931 103.029261 
L 300.551875 102.56239 
L 301.785809 94.523945 
L 302.240416 91.926814 
L 302.30536 99.115017 
L 302.370304 98.687094 
L 302.695023 96.610505 
L 302.824911 90.277319 
L 304.058845 84.364694 
L 304.578396 82.192244 
L 304.64334 104.462893 
L 304.708284 103.981757 
L 305.942218 95.697704 
L 307.176152 88.84713 
L 307.695704 86.330054 
L 307.760647 93.573946 
L 307.825591 93.201157 
L 309.059525 86.782588 
L 309.319301 85.579835 
L 309.384245 91.862065 
L 309.449189 91.50631 
L 310.683123 85.381019 
L 311.917057 80.315653 
L 312.046945 79.836317 
L 312.111889 84.406241 
L 312.176832 84.124672 
L 312.371664 83.296665 
L 312.436608 90.57074 
L 312.501552 90.227833 
L 313.735486 84.323771 
L 314.514813 81.133185 
L 314.579757 103.414372 
L 314.644701 102.943669 
L 315.878635 94.839247 
L 317.112569 88.137222 
L 317.242456 87.503008 
L 317.3074 91.996647 
L 317.372344 91.639553 
L 318.606278 85.491205 
L 319.840212 80.406773 
L 319.9701 79.925632 
L 320.035044 86.305368 
L 320.099988 86.004903 
L 321.333922 80.83158 
L 321.46381 80.342028 
L 321.528754 102.631086 
L 321.593698 102.168177 
L 322.827632 94.197948 
L 324.061566 87.606893 
L 324.775949 84.325822 
L 324.840893 90.620529 
L 324.905836 90.277128 
L 326.13977 84.364535 
L 326.46449 82.986466 
L 326.529434 105.249212 
L 326.594378 104.760252 
L 327.698424 97.15425 
L 327.828312 89.980222 
L 329.062246 84.119007 
L 329.12719 90.415772 
L 329.192134 90.074408 
L 330.426068 84.196894 
L 330.880675 82.297936 
L 330.945619 90.11335 
L 331.010563 89.774995 
L 332.244497 83.949292 
L 333.023824 80.801052 
L 333.088768 85.361377 
L 333.153711 85.070305 
L 333.868094 81.454836 
L 333.933038 81.047022 
L 333.997982 103.171964 
L 334.062926 102.545083 
L 335.491692 89.875393 
L 336.206075 84.259724 
L 336.271019 106.300581 
L 336.335962 103.837242 
L 337.180233 96.055389 
L 337.829672 91.541844 
L 337.894616 99.093411 
L 337.95956 98.591247 
L 339.063606 90.779854 
L 339.12855 97.905014 
L 339.193494 97.414675 
L 340.427428 88.972166 
L 341.46653 83.006671 
L 341.531474 90.209175 
L 341.596418 89.795411 
L 342.700464 83.359116 
L 342.765408 87.819533 
L 342.830352 87.429546 
L 344.064286 80.714872 
L 344.518894 78.545437 
L 344.583837 102.365204 
L 344.648781 101.830486 
L 345.882715 92.623861 
L 347.11665 85.010358 
L 347.636201 82.212962 
L 347.701145 83.466049 
L 347.766088 87.925402 
L 347.831032 87.534362 
L 348.870135 81.781455 
L 348.935079 89.527554 
L 349.000023 89.120572 
L 350.233957 82.113281 
L 350.558676 80.480066 
L 350.62362 102.693296 
L 350.688564 102.155313 
L 351.857554 93.337369 
L 351.922498 94.479767 
L 351.987442 94.02351 
L 353.221376 86.167811 
L 353.28632 85.794259 
L 353.351264 107.954612 
L 353.416208 107.364278 
L 354.650142 97.200081 
L 355.819132 89.198411 
L 355.884076 96.87071 
L 355.94902 96.390663 
L 357.182954 88.125349 
L 357.312841 87.343201 
L 357.377785 93.53343 
L 357.442729 93.08659 
L 358.676663 85.393016 
L 359.391046 81.563103 
L 359.45599 87.810845 
L 359.520934 87.420945 
L 360.300261 83.03398 
L 360.365205 105.221799 
L 360.430149 104.658657 
L 361.664083 94.962642 
L 362.898017 86.944435 
L 362.962961 86.563156 
L 363.027904 92.802392 
L 363.092848 92.362825 
L 364.326782 84.794492 
L 364.78139 82.349249 
L 364.846334 104.543881 
L 364.911278 103.987484 
L 366.080268 94.867727 
L 367.11937 90.425032 
L 367.509033 89.028201 
L 367.573977 93.614625 
L 367.638921 93.350882 
L 368.61308 89.866143 
L 369.652182 86.277658 
L 370.171733 83.958132 
L 370.236677 90.297744 
L 370.301621 89.957554 
L 371.535555 84.100261 
L 372.12005 81.691032 
L 372.184994 86.242501 
L 372.249938 85.942662 
L 373.094209 82.305724 
L 373.159153 89.589659 
L 373.224096 89.256514 
L 374.458031 83.52053 
L 375.627021 79.00493 
L 375.691965 101.307293 
L 375.756908 100.857556 
L 376.016684 99.102915 
L 376.146572 91.8903 
L 377.380506 85.698563 
L 378.159833 82.352517 
L 378.224777 88.666859 
L 378.28972 88.342897 
L 379.523655 82.765005 
L 379.588598 105.029955 
L 379.653542 98.956398 
L 380.887476 91.541937 
L 382.12141 85.410481 
L 382.900737 82.097011 
L 382.965681 89.81701 
L 383.030625 89.481603 
L 384.264559 83.706669 
L 384.913998 81.080343 
L 384.978942 111.438061 
L 385.043886 110.887521 
L 385.173774 104.271631 
L 386.407708 95.937418 
L 387.44681 90.048445 
L 387.511754 96.286212 
L 387.576698 95.886435 
L 388.810632 89.003204 
L 390.044566 83.311052 
L 390.888837 79.99492 
L 390.953781 102.287433 
L 391.018724 101.827943 
L 392.252659 93.916588 
L 393.486593 87.37422 
L 393.746368 86.148268 
L 393.811312 92.424843 
L 393.876256 92.063488 
L 395.11019 85.841782 
L 396.344124 80.696686 
L 396.538956 79.969991 
L 396.6039 84.538585 
L 396.668844 84.2557 
L 396.733787 83.975629 
L 396.798731 106.228533 
L 396.863675 105.729829 
L 398.097609 97.143288 
L 398.487273 94.7536 
L 398.487273 94.7536 
" style="fill:none;stroke:#9a72ac;stroke-linecap:round;stroke-width:1.5;"/>
   </g>
   <g id="patch_3">
    <path d="M 57.6 119.740235 
L 57.6 41.472 
" style="fill:none;stroke:#ffffff;stroke-linecap:square;stroke-linejoin:miter;stroke-width:0.8;"/>
   </g>
   <g id="patch_4">
    <path d="M 414.72 119.740235 
L 414.72 41.472 
" style="fill:none;stroke:#ffffff;stroke-linecap:square;stroke-linejoin:miter;stroke-width:0.8;"/>
   </g>
   <g id="patch_5">
    <path d="M 57.6 119.740235 
L 414.72 119.740235 
" style="fill:none;stroke:#ffffff;stroke-linecap:square;stroke-linejoin:miter;stroke-width:0.8;"/>
   </g>
   <g id="patch_6">
    <path d="M 57.6 41.472 
L 414.72 41.472 
" style="fill:none;stroke:#ffffff;stroke-linecap:square;stroke-linejoin:miter;stroke-width:0.8;"/>
   </g>
  </g>
  <g id="axes_2">
   <g id="patch_7">
    <path d="M 57.6 213.662118 
L 414.72 213.662118 
L 414.72 135.393882 
L 57.6 135.393882 
z
" style="fill:#1a1a1a;"/>
   </g>
   <g id="matplotlib.axis_3">
    <g id="xtick_7">
     <g id="line2d_10">
      <g>
       <use style="fill:#ffffff;stroke:#ffffff;stroke-width:0.8;" x="73.832727" xlink:href="#m6c8df72f0f" y="213.662118"/>
      </g>
     </g>
     <g id="text_10">
      <!-- 0 -->
      <g style="fill:#ffffff;" transform="translate(71.052259 227.908993)scale(0.1 -0.1)">
       <use xlink:href="#LiberationSans-48"/>
      </g>
     </g>
    </g>
    <g id="xtick_8">
     <g id="line2d_11">
      <g>
       <use style="fill:#ffffff;stroke:#ffffff;stroke-width:0.8;" x="138.776625" xlink:href="#m6c8df72f0f" y="213.662118"/>
      </g>
     </g>
     <g id="text_11">
      <!-- 200 -->
      <g style="fill:#ffffff;" transform="translate(130.435219 227.908993)scale(0.1 -0.1)">
       <use xlink:href="#LiberationSans-50"/>
       <use x="55.615234" xlink:href="#LiberationSans-48"/>
       <use x="111.230469" xlink:href="#LiberationSans-48"/>
      </g>
     </g>
    </g>
    <g id="xtick_9">
     <g id="line2d_12">
      <g>
       <use style="fill:#ffffff;stroke:#ffffff;stroke-width:0.8;" x="203.720523" xlink:href="#m6c8df72f0f" y="213.662118"/>
      </g>
     </g>
     <g id="text_12">
      <!-- 400 -->
      <g style="fill:#ffffff;" transform="translate(195.379117 227.908993)scale(0.1 -0.1)">
       <use xlink:href="#LiberationSans-52"/>
       <use x="55.615234" xlink:href="#LiberationSans-48"/>
       <use x="111.230469" xlink:href="#LiberationSans-48"/>
      </g>
     </g>
    </g>
    <g id="xtick_10">
     <g id="line2d_13">
      <g>
       <use style="fill:#ffffff;stroke:#ffffff;stroke-width:0.8;" x="268.664421" xlink:href="#m6c8df72f0f" y="213.662118"/>
      </g>
     </g>
     <g id="text_13">
      <!-- 600 -->
      <g style="fill:#ffffff;" transform="translate(260.323015 227.908993)scale(0.1 -0.1)">
       <use xlink:href="#LiberationSans-54"/>
       <use x="55.615234" xlink:href="#LiberationSans-48"/>
       <use x="111.230469" xlink:href="#LiberationSans-48"/>
      </g>
     </g>
    </g>
    <g id="xtick_11">
     <g id="line2d_14">
      <g>
       <use style="fill:#ffffff;stroke:#ffffff;stroke-width:0.8;" x="333.608319" xlink:href="#m6c8df72f0f" y="213.662118"/>
      </g>
     </g>
     <g id="text_14">
      <!-- 800 -->
      <g style="fill:#ffffff;" transform="translate(325.266913 227.908993)scale(0.1 -0.1)">
       <use xlink:href="#LiberationSans-56"/>
       <use x="55.615234" xlink:href="#LiberationSans-48"/>
       <use x="111.230469" xlink:href="#LiberationSans-48"/>
      </g>
     </g>
    </g>
    <g id="xtick_12">
     <g id="line2d_15">
      <g>
       <use style="fill:#ffffff;stroke:#ffffff;stroke-width:0.8;" x="398.552217" xlink:href="#m6c8df72f0f" y="213.662118"/>
      </g>
     </g>
     <g id="text_15">
      <!-- 1000 -->
      <g style="fill:#ffffff;" transform="translate(387.430342 227.908993)scale(0.1 -0.1)">
       <use xlink:href="#LiberationSans-49"/>
       <use x="55.615234" xlink:href="#LiberationSans-48"/>
       <use x="111.230469" xlink:href="#LiberationSans-48"/>
       <use x="166.845703" xlink:href="#LiberationSans-48"/>
      </g>
     </g>
    </g>
    <g id="text_16">
     <!-- $t$ (ms) -->
     <g style="fill:#ffffff;" transform="translate(222.81 241.283993)scale(0.1 -0.1)">
      <defs>
       <path d="M 42.28125 54.6875 
L 40.921875 47.703125 
L 23 47.703125 
L 17.1875 18.015625 
Q 16.890625 16.359375 16.75 15.234375 
Q 16.609375 14.109375 16.609375 13.484375 
Q 16.609375 10.359375 18.484375 8.9375 
Q 20.359375 7.515625 24.515625 7.515625 
L 33.59375 7.515625 
L 32.078125 0 
L 23.484375 0 
Q 15.484375 0 11.546875 3.125 
Q 7.625 6.25 7.625 12.59375 
Q 7.625 13.71875 7.765625 15.0625 
Q 7.90625 16.40625 8.203125 18.015625 
L 14.015625 47.703125 
L 6.390625 47.703125 
L 7.8125 54.6875 
L 15.28125 54.6875 
L 18.3125 70.21875 
L 27.296875 70.21875 
L 24.3125 54.6875 
z
" id="DejaVuSans-Oblique-116"/>
       <path id="LiberationSans-32"/>
       <path d="M 6.203125 25.984375 
Q 6.203125 32.765625 7.21875 38.96875 
Q 8.25 45.171875 10.4375 50.875 
Q 12.640625 56.59375 16.0625 61.953125 
Q 19.484375 67.328125 24.21875 72.46875 
L 32.71875 72.46875 
Q 28.125 67.328125 24.78125 61.9375 
Q 21.4375 56.546875 19.28125 50.796875 
Q 17.140625 45.0625 16.09375 38.859375 
Q 15.046875 32.671875 15.046875 25.875 
Q 15.046875 19.09375 16.09375 12.890625 
Q 17.140625 6.6875 19.28125 0.921875 
Q 21.4375 -4.828125 24.78125 -10.203125 
Q 28.125 -15.578125 32.71875 -20.703125 
L 24.21875 -20.703125 
Q 19.484375 -15.578125 16.0625 -10.203125 
Q 12.640625 -4.828125 10.4375 0.875 
Q 8.25 6.59375 7.21875 12.765625 
Q 6.203125 18.953125 6.203125 25.78125 
z
" id="LiberationSans-40"/>
       <path d="M 37.5 0 
L 37.5 33.5 
Q 37.5 37.359375 37.015625 39.9375 
Q 36.53125 42.53125 35.375 44.109375 
Q 34.234375 45.703125 32.375 46.359375 
Q 30.515625 47.015625 27.828125 47.015625 
Q 25.046875 47.015625 22.796875 45.921875 
Q 20.5625 44.828125 18.96875 42.75 
Q 17.390625 40.671875 16.53125 37.625 
Q 15.671875 34.578125 15.671875 30.609375 
L 15.671875 0 
L 6.9375 0 
L 6.9375 41.546875 
Q 6.9375 43.21875 6.90625 45.046875 
Q 6.890625 46.875 6.828125 48.5 
Q 6.78125 50.140625 6.734375 51.3125 
Q 6.6875 52.484375 6.640625 52.828125 
L 14.9375 52.828125 
Q 14.984375 52.59375 15.03125 51.515625 
Q 15.09375 50.4375 15.15625 49.046875 
Q 15.234375 47.65625 15.28125 46.21875 
Q 15.328125 44.78125 15.328125 43.796875 
L 15.484375 43.796875 
Q 16.65625 46.09375 18.015625 47.953125 
Q 19.390625 49.8125 21.21875 51.09375 
Q 23.046875 52.390625 25.40625 53.09375 
Q 27.78125 53.8125 30.90625 53.8125 
Q 36.921875 53.8125 40.40625 51.421875 
Q 43.890625 49.03125 45.265625 43.796875 
L 45.40625 43.796875 
Q 46.578125 46.09375 48.046875 47.953125 
Q 49.515625 49.8125 51.46875 51.09375 
Q 53.421875 52.390625 55.859375 53.09375 
Q 58.296875 53.8125 61.421875 53.8125 
Q 65.4375 53.8125 68.328125 52.734375 
Q 71.234375 51.65625 73.09375 49.40625 
Q 74.953125 47.171875 75.828125 43.625 
Q 76.703125 40.09375 76.703125 35.203125 
L 76.703125 0 
L 68.015625 0 
L 68.015625 33.5 
Q 68.015625 37.359375 67.53125 39.9375 
Q 67.046875 42.53125 65.890625 44.109375 
Q 64.75 45.703125 62.890625 46.359375 
Q 61.03125 47.015625 58.34375 47.015625 
Q 55.5625 47.015625 53.3125 45.96875 
Q 51.078125 44.921875 49.484375 42.875 
Q 47.90625 40.828125 47.046875 37.75 
Q 46.1875 34.671875 46.1875 30.609375 
L 46.1875 0 
z
" id="LiberationSans-109"/>
       <path d="M 46.390625 14.59375 
Q 46.390625 10.890625 44.9375 7.984375 
Q 43.5 5.078125 40.765625 3.09375 
Q 38.03125 1.125 34.046875 0.0625 
Q 30.078125 -0.984375 24.953125 -0.984375 
Q 20.359375 -0.984375 16.671875 -0.265625 
Q 12.984375 0.4375 10.203125 2 
Q 7.421875 3.5625 5.53125 6.125 
Q 3.65625 8.6875 2.78125 12.40625 
L 10.546875 13.921875 
Q 11.671875 9.671875 15.1875 7.6875 
Q 18.703125 5.71875 24.953125 5.71875 
Q 27.78125 5.71875 30.140625 6.109375 
Q 32.515625 6.5 34.21875 7.453125 
Q 35.9375 8.40625 36.890625 9.984375 
Q 37.84375 11.578125 37.84375 13.921875 
Q 37.84375 16.3125 36.71875 17.84375 
Q 35.59375 19.390625 33.59375 20.40625 
Q 31.59375 21.4375 28.734375 22.1875 
Q 25.875 22.953125 22.46875 23.875 
Q 19.28125 24.703125 16.15625 25.734375 
Q 13.03125 26.765625 10.515625 28.4375 
Q 8.015625 30.125 6.453125 32.609375 
Q 4.890625 35.109375 4.890625 38.875 
Q 4.890625 46.09375 10.03125 49.875 
Q 15.1875 53.65625 25.046875 53.65625 
Q 33.796875 53.65625 38.9375 50.578125 
Q 44.09375 47.515625 45.453125 40.71875 
L 37.546875 39.75 
Q 37.109375 41.796875 35.9375 43.1875 
Q 34.765625 44.578125 33.109375 45.4375 
Q 31.453125 46.296875 29.375 46.65625 
Q 27.296875 47.015625 25.046875 47.015625 
Q 19.09375 47.015625 16.25 45.203125 
Q 13.421875 43.40625 13.421875 39.75 
Q 13.421875 37.59375 14.46875 36.203125 
Q 15.53125 34.8125 17.40625 33.859375 
Q 19.28125 32.90625 21.921875 32.203125 
Q 24.5625 31.5 27.734375 30.71875 
Q 29.828125 30.171875 32.03125 29.5625 
Q 34.234375 28.953125 36.296875 28.09375 
Q 38.375 27.25 40.203125 26.09375 
Q 42.046875 24.953125 43.40625 23.34375 
Q 44.78125 21.734375 45.578125 19.578125 
Q 46.390625 17.4375 46.390625 14.59375 
z
" id="LiberationSans-115"/>
       <path d="M 27.09375 25.78125 
Q 27.09375 18.953125 26.0625 12.765625 
Q 25.046875 6.59375 22.84375 0.875 
Q 20.65625 -4.828125 17.234375 -10.203125 
Q 13.8125 -15.578125 9.078125 -20.703125 
L 0.59375 -20.703125 
Q 5.171875 -15.578125 8.515625 -10.203125 
Q 11.859375 -4.828125 14 0.921875 
Q 16.15625 6.6875 17.203125 12.890625 
Q 18.265625 19.09375 18.265625 25.875 
Q 18.265625 32.671875 17.203125 38.859375 
Q 16.15625 45.0625 14 50.796875 
Q 11.859375 56.546875 8.515625 61.9375 
Q 5.171875 67.328125 0.59375 72.46875 
L 9.078125 72.46875 
Q 13.8125 67.328125 17.234375 61.953125 
Q 20.65625 56.59375 22.84375 50.875 
Q 25.046875 45.171875 26.0625 38.96875 
Q 27.09375 32.765625 27.09375 25.984375 
z
" id="LiberationSans-41"/>
      </defs>
      <use transform="translate(0 0.53125)" xlink:href="#DejaVuSans-Oblique-116"/>
      <use transform="translate(39.208984 0.53125)" xlink:href="#LiberationSans-32"/>
      <use transform="translate(66.992188 0.53125)" xlink:href="#LiberationSans-40"/>
      <use transform="translate(100.292969 0.53125)" xlink:href="#LiberationSans-109"/>
      <use transform="translate(183.59375 0.53125)" xlink:href="#LiberationSans-115"/>
      <use transform="translate(233.59375 0.53125)" xlink:href="#LiberationSans-41"/>
     </g>
    </g>
   </g>
   <g id="matplotlib.axis_4">
    <g id="ytick_3">
     <g id="line2d_16">
      <g>
       <use style="fill:#ffffff;stroke:#ffffff;stroke-width:0.8;" x="57.6" xlink:href="#m49230c7c1b" y="190.598096"/>
      </g>
     </g>
     <g id="text_17">
      <!-- −2 -->
      <g style="fill:#ffffff;" transform="translate(39.198437 194.221534)scale(0.1 -0.1)">
       <defs>
        <path d="M 4.9375 29.6875 
L 4.9375 36.8125 
L 53.515625 36.8125 
L 53.515625 29.6875 
z
" id="LiberationSans-8722"/>
       </defs>
       <use xlink:href="#LiberationSans-8722"/>
       <use x="58.398438" xlink:href="#LiberationSans-50"/>
      </g>
     </g>
    </g>
    <g id="ytick_4">
     <g id="line2d_17">
      <g>
       <use style="fill:#ffffff;stroke:#ffffff;stroke-width:0.8;" x="57.6" xlink:href="#m49230c7c1b" y="152.496549"/>
      </g>
     </g>
     <g id="text_18">
      <!-- 0 -->
      <g style="fill:#ffffff;" transform="translate(45.039062 156.119987)scale(0.1 -0.1)">
       <use xlink:href="#LiberationSans-48"/>
      </g>
     </g>
    </g>
    <g id="text_19">
     <!-- $u$ -->
     <g style="fill:#ffffff;" transform="translate(33.123437 177.728)rotate(-90)scale(0.1 -0.1)">
      <use transform="translate(0 0.3125)" xlink:href="#DejaVuSans-Oblique-117"/>
     </g>
    </g>
   </g>
   <g id="line2d_18">
    <path clip-path="url(#p3fc4532ea6)" d="M 73.832727 210.104471 
L 73.897671 178.017544 
L 73.962615 184.568096 
L 74.027559 191.053468 
L 74.092503 190.738789 
L 75.326437 185.320734 
L 76.560371 180.840223 
L 77.599473 177.674286 
L 77.729361 167.571776 
L 79.158127 165.963523 
L 80.651837 164.620682 
L 82.21049 163.512697 
L 82.405322 163.391975 
L 82.470266 153.513424 
L 82.53521 153.572274 
L 84.093863 154.821712 
L 85.717461 155.840608 
L 86.431843 156.214286 
L 86.496787 153.409393 
L 86.561731 153.469278 
L 88.055441 154.693585 
L 88.120385 144.901584 
L 88.185329 145.046124 
L 89.484207 147.653106 
L 90.783085 149.787523 
L 92.017019 151.45571 
L 92.081963 149.698401 
L 92.146906 149.795212 
L 93.510728 151.619804 
L 93.900392 152.074515 
L 93.965336 151.790005 
L 94.03028 151.866004 
L 95.459045 153.359345 
L 95.783765 153.655315 
L 95.848709 143.873645 
L 95.913653 144.028413 
L 97.212531 146.819875 
L 98.121745 148.467016 
L 98.186689 146.383875 
L 98.251633 146.513666 
L 99.550511 148.854628 
L 100.784445 150.684244 
L 100.849389 148.579042 
L 100.914333 148.68699 
L 102.278155 150.721497 
L 103.187369 151.858923 
L 103.252313 150.097602 
L 103.317257 150.19044 
L 104.681079 151.94017 
L 105.005798 152.305353 
L 105.135686 156.916875 
L 105.20063 156.941861 
L 105.265574 147.12749 
L 105.330518 147.249881 
L 106.629396 149.45739 
L 107.993218 151.345971 
L 108.837488 152.331201 
L 108.902432 149.564945 
L 108.967376 149.663083 
L 110.331198 151.512702 
L 110.590973 151.823064 
L 110.655917 142.059625 
L 110.720861 142.232443 
L 112.019739 145.349459 
L 113.318617 147.901456 
L 114.682439 150.084755 
L 114.747383 150.177722 
L 114.812327 145.769371 
L 114.877271 145.905276 
L 116.176149 148.356521 
L 116.37098 148.683731 
L 116.435924 138.951529 
L 116.500868 139.155273 
L 117.799746 142.830086 
L 119.098624 145.838768 
L 119.877951 147.375426 
L 119.942895 142.994959 
L 120.007839 143.15847 
L 121.046941 145.564013 
L 121.111885 143.509758 
L 121.176829 143.668147 
L 122.475707 146.524914 
L 122.540651 146.653301 
L 122.605595 178.132106 
L 122.670538 177.945996 
L 122.735482 177.761738 
L 122.800426 158.219302 
L 122.86537 158.231328 
L 122.930314 158.243235 
L 122.995258 164.990544 
L 123.060202 164.935195 
L 124.618855 163.760102 
L 126.177509 162.835741 
L 126.242453 152.962724 
L 126.307397 153.027054 
L 127.801106 154.342223 
L 128.450545 154.826194 
L 128.515489 154.514304 
L 128.580433 154.563196 
L 130.204031 155.639275 
L 130.918414 156.033925 
L 130.983357 153.230826 
L 131.048301 153.292489 
L 132.542011 154.553119 
L 133.581113 155.273893 
L 133.646057 150.814835 
L 133.711001 150.900537 
L 135.139767 152.58454 
L 135.204711 152.652633 
L 135.334599 157.257279 
L 135.984038 157.463845 
L 136.048981 147.64428 
L 136.113925 147.76153 
L 136.373701 148.218977 
L 136.503589 155.10943 
L 138.19213 156.098148 
L 138.581793 156.292061 
L 138.646737 154.131059 
L 138.711681 154.183764 
L 138.971457 154.274596 
L 140.400223 154.42778 
L 141.958876 154.372191 
L 142.153708 154.427932 
L 142.868091 154.749466 
L 142.933035 144.937872 
L 142.997979 145.063013 
L 144.296856 147.320118 
L 145.011239 148.382044 
L 145.141127 153.033368 
L 146.829668 154.059358 
L 148.648098 154.903205 
L 148.842929 154.980386 
L 148.907873 145.166494 
L 148.972817 145.289361 
L 149.946976 146.992251 
L 150.011919 158.717289 
L 150.076863 158.705323 
L 151.115966 158.52928 
L 151.18091 148.99828 
L 151.245854 149.08302 
L 152.674619 150.748115 
L 154.168329 152.138418 
L 155.337319 153.024049 
L 155.402263 143.229623 
L 155.467207 143.371762 
L 156.766085 145.935439 
L 158.129907 148.12873 
L 159.493729 149.906578 
L 160.402943 150.900514 
L 160.467887 148.774123 
L 160.532831 148.861093 
L 161.766765 150.358518 
L 161.831709 147.592853 
L 161.896653 147.691577 
L 162.221372 148.170655 
L 162.35126 155.024181 
L 162.611036 155.121835 
L 162.67598 154.787966 
L 162.740923 154.815097 
L 164.754184 155.53468 
L 164.884072 155.573887 
L 164.949016 145.75409 
L 165.01396 145.87111 
L 166.312838 147.981732 
L 167.67666 149.787423 
L 169.105425 151.313412 
L 170.599135 152.587565 
L 170.729023 152.685129 
L 170.793967 142.894075 
L 170.858911 143.039553 
L 172.092845 146.041791 
L 173.067003 148.283143 
L 173.131947 147.925028 
L 173.196891 148.069753 
L 173.586554 148.916227 
L 173.651498 148.554858 
L 173.716442 148.696363 
L 174.690601 150.58641 
L 174.885432 150.847717 
L 174.950376 141.093983 
L 175.01532 141.276409 
L 176.314198 144.566725 
L 177.613076 147.260608 
L 178.392403 148.636485 
L 178.457347 146.907228 
L 178.522291 147.031811 
L 179.821169 149.278849 
L 180.600495 150.426505 
L 180.665439 147.679201 
L 180.730383 147.796103 
L 182.029261 149.904599 
L 182.808588 150.981495 
L 182.873532 141.22643 
L 182.938476 141.407538 
L 183.133307 141.940122 
L 183.263195 153.791118 
L 184.627017 154.858822 
L 184.691961 154.546608 
L 184.756905 154.595178 
L 186.250614 155.58815 
L 186.315558 153.434153 
L 186.380502 153.493792 
L 187.874212 154.713062 
L 188.198931 154.943009 
L 188.263875 145.148527 
L 188.328819 145.29061 
L 189.627697 147.853274 
L 190.861631 149.856166 
L 190.991519 154.516185 
L 192.615116 155.602663 
L 192.939836 155.789225 
L 193.00478 152.988561 
L 193.069724 153.052634 
L 194.563433 154.362546 
L 195.018041 154.704999 
L 195.082985 144.912885 
L 195.147928 145.057312 
L 196.446806 147.662266 
L 197.745684 149.795023 
L 198.654899 151.053485 
L 198.719843 146.636421 
L 198.784787 146.763698 
L 200.083665 149.059337 
L 200.66816 149.951751 
L 200.733104 140.206933 
L 200.798048 140.398185 
L 202.096926 143.847696 
L 203.395804 146.671916 
L 203.850411 147.457772 
L 203.915355 147.180173 
L 203.980299 147.262633 
L 205.149289 148.552634 
L 206.318279 149.516672 
L 207.357381 150.373153 
L 207.487269 154.98505 
L 207.747045 155.084238 
L 207.811989 145.269313 
L 207.876932 145.391157 
L 208.721203 146.86907 
L 208.851091 153.748369 
L 210.604576 154.639556 
L 210.66952 151.831294 
L 210.734464 151.887845 
L 212.293118 153.088456 
L 213.981659 154.101834 
L 215.020761 154.606445 
L 215.085705 142.60407 
L 215.150649 149.487954 
L 216.579415 151.073082 
L 218.073124 152.396615 
L 219.696722 153.528728 
L 219.891554 153.646531 
L 219.956497 153.186123 
L 220.021441 153.229193 
L 221.515151 154.109717 
L 221.580095 144.304489 
L 221.645039 151.171454 
L 223.138748 152.474774 
L 224.762346 153.589598 
L 225.411785 153.96312 
L 225.476729 152.161824 
L 225.541673 152.215086 
L 227.100326 153.345873 
L 228.464148 154.135511 
L 228.529092 144.330026 
L 228.594036 144.461216 
L 229.892914 146.827408 
L 231.256736 148.851747 
L 232.620558 150.492644 
L 234.049323 151.879365 
L 234.503931 152.260347 
L 234.568875 147.812237 
L 234.633818 147.908778 
L 235.99764 149.728288 
L 236.517191 150.518261 
L 236.647079 150.737118 
L 236.712023 141.006378 
L 236.776967 141.21195 
L 238.205733 145.34128 
L 239.050003 147.467328 
L 239.114947 147.264641 
L 239.179891 147.422029 
L 239.82933 148.703039 
L 241.128208 150.647135 
L 241.193152 147.897636 
L 241.258096 148.012364 
L 242.621918 150.174656 
L 242.946637 150.625944 
L 243.011581 140.375521 
L 243.076525 147.300616 
L 244.375403 149.498928 
L 245.739225 151.379641 
L 246.778327 152.569633 
L 246.843271 149.801005 
L 246.908215 149.896794 
L 248.272037 151.702145 
L 248.466869 151.930477 
L 248.531813 142.16597 
L 248.596756 142.337729 
L 249.895634 145.43566 
L 251.194512 147.972032 
L 252.038783 149.36856 
L 252.103727 147.274341 
L 252.168671 147.395271 
L 253.467549 149.576425 
L 254.831371 151.442459 
L 255.221034 151.907498 
L 255.285978 142.143219 
L 255.350922 142.315205 
L 256.6498 145.417219 
L 257.948678 147.956933 
L 259.052724 149.750256 
L 259.117668 147.654347 
L 259.182612 147.771496 
L 260.48149 149.884453 
L 260.936097 150.529652 
L 261.001041 140.779083 
L 261.065985 140.964642 
L 262.364863 144.311472 
L 263.663741 147.051624 
L 264.378124 148.340815 
L 264.443068 146.614499 
L 264.508011 146.741995 
L 265.806889 149.041568 
L 266.97588 150.752514 
L 267.040823 149.002202 
L 267.105767 149.10594 
L 267.950038 150.36424 
L 268.014982 140.615317 
L 268.14487 159.161048 
L 270.093187 159.230223 
L 270.158131 156.395321 
L 270.223074 156.425496 
L 272.171391 157.203677 
L 272.236335 147.3867 
L 272.301279 147.506513 
L 273.600157 149.667502 
L 274.963979 151.516284 
L 275.548474 152.197232 
L 275.613418 147.595675 
L 275.678362 147.713408 
L 276.97724 149.836894 
L 278.341062 151.65359 
L 279.63994 153.062842 
L 279.704884 143.287068 
L 279.769827 143.447672 
L 281.068705 146.344405 
L 281.6532 147.47049 
L 281.783088 152.177749 
L 282.367583 152.801765 
L 282.432527 150.675493 
L 282.497471 150.762581 
L 283.666461 152.190025 
L 283.731405 149.425174 
L 283.796349 149.524703 
L 285.160171 151.400533 
L 286.588937 152.985797 
L 286.913656 153.299984 
L 286.9786 143.52185 
L 287.043544 143.680119 
L 288.342422 146.534716 
L 289.6413 148.871862 
L 290.485571 150.158697 
L 290.550514 149.89325 
L 290.615458 149.988122 
L 291.97928 151.776174 
L 292.368944 152.221778 
L 292.433888 150.456847 
L 292.498831 150.546111 
L 293.862653 152.22847 
L 294.382204 152.781993 
L 294.447148 151.011487 
L 294.512092 151.095232 
L 295.940858 152.740787 
L 296.330521 153.130217 
L 296.395465 143.353772 
L 296.460409 143.513713 
L 297.759287 146.398474 
L 299.058165 148.760317 
L 300.421987 150.780934 
L 300.486931 141.027865 
L 300.551875 141.210949 
L 301.850753 144.513131 
L 302.240416 145.381702 
L 302.30536 143.68483 
L 302.370304 143.841477 
L 302.695023 144.601638 
L 302.824911 156.399933 
L 304.578396 157.116423 
L 304.64334 147.300315 
L 304.708284 147.420987 
L 306.007162 149.59748 
L 307.370984 151.459525 
L 307.695704 151.84815 
L 307.760647 150.086936 
L 307.825591 150.179881 
L 309.189413 151.93161 
L 309.319301 152.080048 
L 309.384245 149.960957 
L 309.449189 150.055155 
L 310.813011 151.830509 
L 312.046945 153.145177 
L 312.111889 152.708795 
L 312.176832 152.775651 
L 312.371664 152.972256 
L 312.436608 151.199857 
L 312.501552 151.281728 
L 313.930318 152.890454 
L 314.514813 153.453128 
L 314.579757 143.67347 
L 314.644701 143.83023 
L 315.943579 146.657616 
L 317.242456 148.972485 
L 317.3074 148.577622 
L 317.372344 148.685584 
L 318.736166 150.720357 
L 319.9701 152.227126 
L 320.035044 151.941098 
L 320.099988 152.015593 
L 321.46381 153.41961 
L 321.528754 143.640286 
L 321.593698 143.797375 
L 322.892576 146.630717 
L 324.191454 148.950462 
L 324.775949 149.852247 
L 324.840893 147.755323 
L 324.905836 147.871467 
L 326.269658 150.060447 
L 326.46449 150.337298 
L 326.529434 140.588643 
L 326.594378 140.776098 
L 327.698424 143.692038 
L 327.828312 150.672131 
L 329.062246 152.187245 
L 329.12719 150.067088 
L 329.192134 150.16023 
L 330.555956 151.915681 
L 330.880675 152.282059 
L 330.945619 149.516292 
L 331.010563 149.614914 
L 332.374385 151.473658 
L 333.023824 152.230608 
L 333.088768 151.803326 
L 333.153711 151.879193 
L 333.933038 152.924129 
L 333.997982 143.189904 
L 334.062926 143.392025 
L 335.491692 147.453551 
L 336.206075 149.237384 
L 336.271019 139.553169 
L 336.400906 150.232191 
L 337.180233 151.725962 
L 337.829672 152.640974 
L 337.894616 148.227151 
L 337.95956 148.357638 
L 339.063606 150.387427 
L 339.12855 148.659785 
L 339.193494 148.785967 
L 340.492372 151.061847 
L 341.46653 152.49368 
L 341.531474 150.745081 
L 341.596418 150.850514 
L 342.700464 152.490579 
L 342.765408 152.079748 
L 342.830352 152.171901 
L 344.194174 153.908713 
L 344.518894 154.2712 
L 344.583837 149.017854 
L 344.648781 149.140474 
L 345.947659 151.352092 
L 347.311481 153.244189 
L 347.636201 153.639085 
L 347.701145 158.231137 
L 347.766088 157.763186 
L 348.870135 158.322557 
L 348.935079 155.515724 
L 349.000023 155.573688 
L 350.558676 156.804317 
L 350.62362 147.010352 
L 350.688564 147.152946 
L 351.857554 149.490176 
L 351.987442 154.195328 
L 353.28632 155.490657 
L 353.351264 145.709762 
L 353.416208 145.865298 
L 354.715086 148.670605 
L 355.819132 150.651467 
L 355.884076 147.920961 
L 355.94902 148.054495 
L 357.247898 150.462968 
L 357.312841 150.571208 
L 357.377785 148.486168 
L 357.442729 148.614078 
L 358.741607 150.921116 
L 359.391046 151.912719 
L 359.45599 149.81433 
L 359.520934 149.929024 
L 360.300261 151.21951 
L 360.365205 141.481114 
L 360.430149 141.678725 
L 361.729027 145.242929 
L 362.962961 148.02859 
L 363.027904 147.803375 
L 363.092848 147.938079 
L 364.391726 150.367654 
L 364.78139 151.006705 
L 364.846334 141.270426 
L 364.911278 141.470134 
L 366.080268 144.743492 
L 367.249258 146.788856 
L 367.509033 147.179394 
L 367.573977 146.774768 
L 367.638921 146.872684 
L 368.807911 148.416024 
L 369.78207 149.686416 
L 370.171733 150.253718 
L 370.236677 149.987326 
L 370.301621 150.081261 
L 371.665443 151.851671 
L 372.12005 152.363874 
L 372.184994 151.935266 
L 372.249938 152.00982 
L 373.094209 152.914123 
L 373.159153 151.142303 
L 373.224096 151.224746 
L 374.652862 152.844724 
L 375.627021 153.761715 
L 375.691965 143.978987 
L 375.756908 144.132706 
L 376.016684 144.732441 
L 376.146572 151.691933 
L 377.575338 153.219651 
L 378.159833 153.753991 
L 378.224777 151.618244 
L 378.28972 151.695952 
L 379.523655 153.033903 
L 379.588598 143.258417 
L 379.718486 155.083309 
L 381.407028 156.078007 
L 382.900737 156.766307 
L 382.965681 152.2924 
L 383.030625 152.3634 
L 384.459391 153.758515 
L 384.913998 154.141804 
L 384.978942 141.518424 
L 385.043886 141.696626 
L 385.173774 153.552444 
L 386.732427 154.806113 
L 387.44681 155.28755 
L 387.511754 153.136544 
L 387.576698 153.199145 
L 389.070408 154.478954 
L 390.694005 155.573668 
L 390.888837 155.687579 
L 390.953781 145.885688 
L 391.018724 146.020436 
L 392.317602 148.450805 
L 393.681424 150.530049 
L 393.746368 150.618585 
L 393.811312 148.514035 
L 393.876256 148.622631 
L 395.240078 150.669328 
L 396.538956 152.256996 
L 396.6039 151.829452 
L 396.668844 151.905058 
L 396.733787 151.979912 
L 396.798731 142.214913 
L 396.863675 142.386186 
L 398.162553 145.475333 
L 398.487273 146.15581 
L 398.487273 146.15581 
" style="fill:none;stroke:#9a72ac;stroke-linecap:round;stroke-width:1.5;"/>
   </g>
   <g id="patch_8">
    <path d="M 57.6 213.662118 
L 57.6 135.393882 
" style="fill:none;stroke:#ffffff;stroke-linecap:square;stroke-linejoin:miter;stroke-width:0.8;"/>
   </g>
   <g id="patch_9">
    <path d="M 414.72 213.662118 
L 414.72 135.393882 
" style="fill:none;stroke:#ffffff;stroke-linecap:square;stroke-linejoin:miter;stroke-width:0.8;"/>
   </g>
   <g id="patch_10">
    <path d="M 57.6 213.662118 
L 414.72 213.662118 
" style="fill:none;stroke:#ffffff;stroke-linecap:square;stroke-linejoin:miter;stroke-width:0.8;"/>
   </g>
   <g id="patch_11">
    <path d="M 57.6 135.393882 
L 414.72 135.393882 
" style="fill:none;stroke:#ffffff;stroke-linecap:square;stroke-linejoin:miter;stroke-width:0.8;"/>
   </g>
  </g>
  <g id="text_20">
   <!-- M2 - $u$ -->
   <g style="fill:#ffffff;" transform="translate(212.88 15.60825)scale(0.12 -0.12)">
    <defs>
     <path d="M 66.703125 0 
L 66.703125 45.90625 
Q 66.703125 48.390625 66.75 50.96875 
Q 66.796875 53.5625 66.890625 55.71875 
Q 67 58.203125 67.140625 60.546875 
Q 66.453125 58.0625 65.71875 55.609375 
Q 65.09375 53.515625 64.328125 51.140625 
Q 63.578125 48.78125 62.84375 46.875 
L 45.0625 0 
L 38.53125 0 
L 20.515625 46.875 
Q 20.21875 47.609375 19.890625 48.578125 
Q 19.578125 49.5625 19.203125 50.65625 
Q 18.84375 51.765625 18.46875 52.90625 
Q 18.109375 54.046875 17.78125 55.171875 
Q 16.9375 57.765625 16.15625 60.546875 
Q 16.21875 57.8125 16.3125 55.125 
Q 16.40625 52.828125 16.453125 50.3125 
Q 16.5 47.796875 16.5 45.90625 
L 16.5 0 
L 8.203125 0 
L 8.203125 68.796875 
L 20.453125 68.796875 
L 38.765625 21.09375 
Q 39.109375 20.125 39.59375 18.578125 
Q 40.09375 17.046875 40.53125 15.421875 
Q 40.96875 13.8125 41.328125 12.375 
Q 41.703125 10.9375 41.84375 10.15625 
Q 42 10.9375 42.390625 12.40625 
Q 42.78125 13.875 43.28125 15.484375 
Q 43.796875 17.09375 44.28125 18.609375 
Q 44.78125 20.125 45.171875 21.09375 
L 63.140625 68.796875 
L 75.09375 68.796875 
L 75.09375 0 
z
" id="LiberationSans-77"/>
     <path d="M 4.4375 22.65625 
L 4.4375 30.46875 
L 28.859375 30.46875 
L 28.859375 22.65625 
z
" id="LiberationSans-45"/>
    </defs>
    <use transform="translate(0 0.171875)" xlink:href="#LiberationSans-77"/>
    <use transform="translate(83.300781 0.171875)" xlink:href="#LiberationSans-50"/>
    <use transform="translate(138.916016 0.171875)" xlink:href="#LiberationSans-32"/>
    <use transform="translate(166.699219 0.171875)" xlink:href="#LiberationSans-45"/>
    <use transform="translate(200 0.171875)" xlink:href="#LiberationSans-32"/>
    <use transform="translate(227.783203 0.171875)" xlink:href="#DejaVuSans-Oblique-117"/>
   </g>
  </g>
 </g>
 <defs>
  <clipPath id="pbbbba27ea7">
   <rect height="78.268235" width="357.12" x="57.6" y="41.472"/>
  </clipPath>
  <clipPath id="p3fc4532ea6">
   <rect height="78.268235" width="357.12" x="57.6" y="135.393882"/>
  </clipPath>
 </defs>
</svg>
