<?xml version="1.0" encoding="utf-8" standalone="no"?>
<!DOCTYPE svg PUBLIC "-//W3C//DTD SVG 1.1//EN"
  "http://www.w3.org/Graphics/SVG/1.1/DTD/svg11.dtd">
<!-- Created with matplotlib (https://matplotlib.org/) -->
<svg height="345.6pt" version="1.1" viewBox="0 0 460.8 345.6" width="460.8pt" xmlns="http://www.w3.org/2000/svg" xmlns:xlink="http://www.w3.org/1999/xlink">
 <metadata>
  <rdf:RDF xmlns:cc="http://creativecommons.org/ns#" xmlns:dc="http://purl.org/dc/elements/1.1/" xmlns:rdf="http://www.w3.org/1999/02/22-rdf-syntax-ns#">
   <cc:Work>
    <dc:type rdf:resource="http://purl.org/dc/dcmitype/StillImage"/>
    <dc:date>2022-05-05T15:11:46.268428</dc:date>
    <dc:format>image/svg+xml</dc:format>
    <dc:creator>
     <cc:Agent>
      <dc:title>Matplotlib v3.3.4, https://matplotlib.org/</dc:title>
     </cc:Agent>
    </dc:creator>
   </cc:Work>
  </rdf:RDF>
 </metadata>
 <defs>
  <style type="text/css">*{stroke-linecap:butt;stroke-linejoin:round;}</style>
 </defs>
 <g id="figure_1">
  <g id="patch_1">
   <path d="M 0 345.6 
L 460.8 345.6 
L 460.8 0 
L 0 0 
z
" style="fill:#262626;"/>
  </g>
  <g id="axes_1">
   <g id="patch_2">
    <path d="M 57.6 119.740235 
L 414.72 119.740235 
L 414.72 41.472 
L 57.6 41.472 
z
" style="fill:#1a1a1a;"/>
   </g>
   <g id="matplotlib.axis_1">
    <g id="xtick_1">
     <g id="line2d_1">
      <defs>
       <path d="M 0 0 
L 0 3.5 
" id="mc42942dce9" style="stroke:#ffffff;stroke-width:0.8;"/>
      </defs>
      <g>
       <use style="fill:#ffffff;stroke:#ffffff;stroke-width:0.8;" x="73.832727" xlink:href="#mc42942dce9" y="119.740235"/>
      </g>
     </g>
     <g id="text_1">
      <!-- 0 -->
      <g style="fill:#ffffff;" transform="translate(71.052259 133.98711)scale(0.1 -0.1)">
       <defs>
        <path d="M 51.703125 34.421875 
Q 51.703125 24.515625 49.828125 17.75 
Q 47.953125 10.984375 44.703125 6.8125 
Q 41.453125 2.640625 37.0625 0.828125 
Q 32.671875 -0.984375 27.6875 -0.984375 
Q 22.65625 -0.984375 18.3125 0.828125 
Q 13.96875 2.640625 10.765625 6.78125 
Q 7.5625 10.9375 5.734375 17.703125 
Q 3.90625 24.46875 3.90625 34.421875 
Q 3.90625 44.828125 5.734375 51.640625 
Q 7.5625 58.453125 10.78125 62.5 
Q 14.015625 66.546875 18.40625 68.1875 
Q 22.796875 69.828125 27.984375 69.828125 
Q 32.90625 69.828125 37.21875 68.1875 
Q 41.546875 66.546875 44.765625 62.5 
Q 48 58.453125 49.84375 51.640625 
Q 51.703125 44.828125 51.703125 34.421875 
z
M 42.78125 34.421875 
Q 42.78125 42.625 41.796875 48.0625 
Q 40.828125 53.515625 38.921875 56.765625 
Q 37.015625 60.015625 34.25 61.359375 
Q 31.5 62.703125 27.984375 62.703125 
Q 24.265625 62.703125 21.4375 61.328125 
Q 18.609375 59.96875 16.671875 56.71875 
Q 14.75 53.46875 13.765625 48.015625 
Q 12.796875 42.578125 12.796875 34.421875 
Q 12.796875 26.515625 13.796875 21.09375 
Q 14.796875 15.671875 16.71875 12.375 
Q 18.65625 9.078125 21.4375 7.640625 
Q 24.21875 6.203125 27.78125 6.203125 
Q 31.25 6.203125 34.03125 7.640625 
Q 36.8125 9.078125 38.734375 12.375 
Q 40.671875 15.671875 41.71875 21.09375 
Q 42.78125 26.515625 42.78125 34.421875 
z
" id="LiberationSans-48"/>
       </defs>
       <use xlink:href="#LiberationSans-48"/>
      </g>
     </g>
    </g>
    <g id="xtick_2">
     <g id="line2d_2">
      <g>
       <use style="fill:#ffffff;stroke:#ffffff;stroke-width:0.8;" x="138.776625" xlink:href="#mc42942dce9" y="119.740235"/>
      </g>
     </g>
     <g id="text_2">
      <!-- 200 -->
      <g style="fill:#ffffff;" transform="translate(130.435219 133.98711)scale(0.1 -0.1)">
       <defs>
        <path d="M 5.03125 0 
L 5.03125 6.203125 
Q 7.515625 11.921875 11.109375 16.28125 
Q 14.703125 20.65625 18.65625 24.1875 
Q 22.609375 27.734375 26.484375 30.765625 
Q 30.375 33.796875 33.5 36.8125 
Q 36.625 39.84375 38.546875 43.15625 
Q 40.484375 46.484375 40.484375 50.6875 
Q 40.484375 53.609375 39.59375 55.828125 
Q 38.71875 58.0625 37.0625 59.5625 
Q 35.40625 61.078125 33.078125 61.828125 
Q 30.765625 62.59375 27.9375 62.59375 
Q 25.296875 62.59375 22.96875 61.859375 
Q 20.65625 61.140625 18.84375 59.671875 
Q 17.046875 58.203125 15.890625 56.03125 
Q 14.75 53.859375 14.40625 50.984375 
L 5.421875 51.8125 
Q 5.859375 55.515625 7.46875 58.78125 
Q 9.078125 62.0625 11.90625 64.53125 
Q 14.75 67 18.71875 68.40625 
Q 22.703125 69.828125 27.9375 69.828125 
Q 33.0625 69.828125 37.0625 68.609375 
Q 41.0625 67.390625 43.8125 64.984375 
Q 46.578125 62.59375 48.046875 59.078125 
Q 49.515625 55.5625 49.515625 50.984375 
Q 49.515625 47.515625 48.265625 44.390625 
Q 47.015625 41.265625 44.9375 38.421875 
Q 42.875 35.59375 40.140625 32.953125 
Q 37.40625 30.328125 34.421875 27.8125 
Q 31.453125 25.296875 28.421875 22.828125 
Q 25.390625 20.359375 22.71875 17.859375 
Q 20.0625 15.375 17.96875 12.8125 
Q 15.875 10.25 14.703125 7.46875 
L 50.59375 7.46875 
L 50.59375 0 
z
" id="LiberationSans-50"/>
       </defs>
       <use xlink:href="#LiberationSans-50"/>
       <use x="55.615234" xlink:href="#LiberationSans-48"/>
       <use x="111.230469" xlink:href="#LiberationSans-48"/>
      </g>
     </g>
    </g>
    <g id="xtick_3">
     <g id="line2d_3">
      <g>
       <use style="fill:#ffffff;stroke:#ffffff;stroke-width:0.8;" x="203.720523" xlink:href="#mc42942dce9" y="119.740235"/>
      </g>
     </g>
     <g id="text_3">
      <!-- 400 -->
      <g style="fill:#ffffff;" transform="translate(195.379117 133.98711)scale(0.1 -0.1)">
       <defs>
        <path d="M 43.015625 15.578125 
L 43.015625 0 
L 34.71875 0 
L 34.71875 15.578125 
L 2.296875 15.578125 
L 2.296875 22.40625 
L 33.796875 68.796875 
L 43.015625 68.796875 
L 43.015625 22.515625 
L 52.6875 22.515625 
L 52.6875 15.578125 
z
M 34.71875 58.890625 
Q 34.625 58.640625 34.234375 57.9375 
Q 33.84375 57.234375 33.34375 56.34375 
Q 32.859375 55.46875 32.34375 54.5625 
Q 31.84375 53.65625 31.453125 53.078125 
L 13.8125 27.09375 
Q 13.578125 26.703125 13.109375 26.0625 
Q 12.640625 25.4375 12.15625 24.78125 
Q 11.671875 24.125 11.171875 23.484375 
Q 10.6875 22.859375 10.40625 22.515625 
L 34.71875 22.515625 
z
" id="LiberationSans-52"/>
       </defs>
       <use xlink:href="#LiberationSans-52"/>
       <use x="55.615234" xlink:href="#LiberationSans-48"/>
       <use x="111.230469" xlink:href="#LiberationSans-48"/>
      </g>
     </g>
    </g>
    <g id="xtick_4">
     <g id="line2d_4">
      <g>
       <use style="fill:#ffffff;stroke:#ffffff;stroke-width:0.8;" x="268.664421" xlink:href="#mc42942dce9" y="119.740235"/>
      </g>
     </g>
     <g id="text_4">
      <!-- 600 -->
      <g style="fill:#ffffff;" transform="translate(260.323015 133.98711)scale(0.1 -0.1)">
       <defs>
        <path d="M 51.21875 22.515625 
Q 51.21875 17.328125 49.78125 13 
Q 48.34375 8.6875 45.53125 5.578125 
Q 42.71875 2.484375 38.5625 0.75 
Q 34.421875 -0.984375 29 -0.984375 
Q 23 -0.984375 18.5 1.3125 
Q 14.015625 3.609375 11.03125 7.921875 
Q 8.0625 12.25 6.5625 18.53125 
Q 5.078125 24.8125 5.078125 32.8125 
Q 5.078125 42 6.765625 48.921875 
Q 8.453125 55.859375 11.625 60.5 
Q 14.796875 65.140625 19.359375 67.484375 
Q 23.921875 69.828125 29.6875 69.828125 
Q 33.203125 69.828125 36.28125 69.09375 
Q 39.359375 68.359375 41.875 66.71875 
Q 44.390625 65.09375 46.28125 62.40625 
Q 48.1875 59.71875 49.3125 55.8125 
L 40.921875 54.296875 
Q 39.546875 58.734375 36.546875 60.71875 
Q 33.546875 62.703125 29.59375 62.703125 
Q 25.984375 62.703125 23.046875 60.984375 
Q 20.125 59.28125 18.0625 55.875 
Q 16.015625 52.484375 14.90625 47.359375 
Q 13.8125 42.234375 13.8125 35.40625 
Q 16.21875 39.84375 20.5625 42.15625 
Q 24.90625 44.484375 30.515625 44.484375 
Q 35.203125 44.484375 39.015625 42.96875 
Q 42.828125 41.453125 45.53125 38.59375 
Q 48.25 35.75 49.734375 31.671875 
Q 51.21875 27.59375 51.21875 22.515625 
z
M 42.28125 22.125 
Q 42.28125 25.6875 41.40625 28.5625 
Q 40.53125 31.453125 38.765625 33.46875 
Q 37.015625 35.5 34.421875 36.59375 
Q 31.84375 37.703125 28.421875 37.703125 
Q 26.03125 37.703125 23.578125 36.984375 
Q 21.140625 36.28125 19.15625 34.6875 
Q 17.1875 33.109375 15.9375 30.515625 
Q 14.703125 27.9375 14.703125 24.21875 
Q 14.703125 20.40625 15.671875 17.109375 
Q 16.65625 13.8125 18.484375 11.375 
Q 20.3125 8.9375 22.890625 7.515625 
Q 25.484375 6.109375 28.71875 6.109375 
Q 31.890625 6.109375 34.40625 7.203125 
Q 36.921875 8.296875 38.671875 10.375 
Q 40.4375 12.453125 41.359375 15.421875 
Q 42.28125 18.40625 42.28125 22.125 
z
" id="LiberationSans-54"/>
       </defs>
       <use xlink:href="#LiberationSans-54"/>
       <use x="55.615234" xlink:href="#LiberationSans-48"/>
       <use x="111.230469" xlink:href="#LiberationSans-48"/>
      </g>
     </g>
    </g>
    <g id="xtick_5">
     <g id="line2d_5">
      <g>
       <use style="fill:#ffffff;stroke:#ffffff;stroke-width:0.8;" x="333.608319" xlink:href="#mc42942dce9" y="119.740235"/>
      </g>
     </g>
     <g id="text_5">
      <!-- 800 -->
      <g style="fill:#ffffff;" transform="translate(325.266913 133.98711)scale(0.1 -0.1)">
       <defs>
        <path d="M 51.265625 19.1875 
Q 51.265625 14.796875 49.875 11.109375 
Q 48.484375 7.421875 45.625 4.734375 
Q 42.78125 2.046875 38.328125 0.53125 
Q 33.890625 -0.984375 27.828125 -0.984375 
Q 21.78125 -0.984375 17.359375 0.53125 
Q 12.9375 2.046875 10.03125 4.703125 
Q 7.125 7.375 5.734375 11.0625 
Q 4.34375 14.75 4.34375 19.09375 
Q 4.34375 22.859375 5.484375 25.78125 
Q 6.640625 28.71875 8.5625 30.828125 
Q 10.5 32.953125 12.96875 34.25 
Q 15.4375 35.546875 18.0625 35.984375 
L 18.0625 36.1875 
Q 15.1875 36.859375 12.90625 38.375 
Q 10.640625 39.890625 9.09375 42.015625 
Q 7.5625 44.140625 6.75 46.71875 
Q 5.953125 49.3125 5.953125 52.203125 
Q 5.953125 55.8125 7.34375 59 
Q 8.734375 62.203125 11.46875 64.625 
Q 14.203125 67.046875 18.25 68.4375 
Q 22.3125 69.828125 27.640625 69.828125 
Q 33.25 69.828125 37.375 68.40625 
Q 41.5 67 44.203125 64.578125 
Q 46.921875 62.15625 48.234375 58.9375 
Q 49.5625 55.71875 49.5625 52.09375 
Q 49.5625 49.265625 48.75 46.671875 
Q 47.953125 44.09375 46.40625 41.96875 
Q 44.875 39.84375 42.59375 38.34375 
Q 40.328125 36.859375 37.359375 36.28125 
L 37.359375 36.078125 
Q 40.328125 35.59375 42.859375 34.296875 
Q 45.40625 33.015625 47.265625 30.890625 
Q 49.125 28.765625 50.1875 25.828125 
Q 51.265625 22.90625 51.265625 19.1875 
z
M 40.4375 51.609375 
Q 40.4375 54.203125 39.765625 56.34375 
Q 39.109375 58.5 37.59375 60.03125 
Q 36.078125 61.578125 33.640625 62.421875 
Q 31.203125 63.28125 27.640625 63.28125 
Q 24.171875 63.28125 21.78125 62.421875 
Q 19.390625 61.578125 17.84375 60.03125 
Q 16.3125 58.5 15.625 56.34375 
Q 14.9375 54.203125 14.9375 51.609375 
Q 14.9375 49.5625 15.46875 47.40625 
Q 16.015625 45.265625 17.421875 43.5 
Q 18.84375 41.75 21.328125 40.625 
Q 23.828125 39.5 27.734375 39.5 
Q 31.890625 39.5 34.40625 40.625 
Q 36.921875 41.75 38.25 43.5 
Q 39.59375 45.265625 40.015625 47.40625 
Q 40.4375 49.5625 40.4375 51.609375 
z
M 42.140625 20.015625 
Q 42.140625 22.515625 41.453125 24.828125 
Q 40.765625 27.15625 39.109375 28.9375 
Q 37.453125 30.71875 34.640625 31.8125 
Q 31.84375 32.90625 27.640625 32.90625 
Q 23.78125 32.90625 21.0625 31.8125 
Q 18.359375 30.71875 16.671875 28.90625 
Q 14.984375 27.09375 14.203125 24.71875 
Q 13.421875 22.359375 13.421875 19.828125 
Q 13.421875 16.65625 14.203125 14.03125 
Q 14.984375 11.421875 16.6875 9.546875 
Q 18.40625 7.671875 21.1875 6.640625 
Q 23.96875 5.609375 27.9375 5.609375 
Q 31.9375 5.609375 34.671875 6.640625 
Q 37.40625 7.671875 39.0625 9.546875 
Q 40.71875 11.421875 41.421875 14.078125 
Q 42.140625 16.75 42.140625 20.015625 
z
" id="LiberationSans-56"/>
       </defs>
       <use xlink:href="#LiberationSans-56"/>
       <use x="55.615234" xlink:href="#LiberationSans-48"/>
       <use x="111.230469" xlink:href="#LiberationSans-48"/>
      </g>
     </g>
    </g>
    <g id="xtick_6">
     <g id="line2d_6">
      <g>
       <use style="fill:#ffffff;stroke:#ffffff;stroke-width:0.8;" x="398.552217" xlink:href="#mc42942dce9" y="119.740235"/>
      </g>
     </g>
     <g id="text_6">
      <!-- 1000 -->
      <g style="fill:#ffffff;" transform="translate(387.430342 133.98711)scale(0.1 -0.1)">
       <defs>
        <path d="M 7.625 0 
L 7.625 7.46875 
L 25.140625 7.46875 
L 25.140625 60.40625 
L 9.625 49.3125 
L 9.625 57.625 
L 25.875 68.796875 
L 33.984375 68.796875 
L 33.984375 7.46875 
L 50.734375 7.46875 
L 50.734375 0 
z
" id="LiberationSans-49"/>
       </defs>
       <use xlink:href="#LiberationSans-49"/>
       <use x="55.615234" xlink:href="#LiberationSans-48"/>
       <use x="111.230469" xlink:href="#LiberationSans-48"/>
       <use x="166.845703" xlink:href="#LiberationSans-48"/>
      </g>
     </g>
    </g>
   </g>
   <g id="matplotlib.axis_2">
    <g id="ytick_1">
     <g id="line2d_7">
      <defs>
       <path d="M 0 0 
L -3.5 0 
" id="m281be3ae05" style="stroke:#ffffff;stroke-width:0.8;"/>
      </defs>
      <g>
       <use style="fill:#ffffff;stroke:#ffffff;stroke-width:0.8;" x="57.6" xlink:href="#m281be3ae05" y="119.740235"/>
      </g>
     </g>
     <g id="text_7">
      <!-- −1 -->
      <g style="fill:#ffffff;" transform="translate(39.198437 123.363673)scale(0.1 -0.1)">
       <defs>
        <path d="M 4.9375 29.6875 
L 4.9375 36.8125 
L 53.515625 36.8125 
L 53.515625 29.6875 
z
" id="LiberationSans-8722"/>
       </defs>
       <use xlink:href="#LiberationSans-8722"/>
       <use x="58.398438" xlink:href="#LiberationSans-49"/>
      </g>
     </g>
    </g>
    <g id="ytick_2">
     <g id="line2d_8">
      <g>
       <use style="fill:#ffffff;stroke:#ffffff;stroke-width:0.8;" x="57.6" xlink:href="#m281be3ae05" y="80.606118"/>
      </g>
     </g>
     <g id="text_8">
      <!-- 0 -->
      <g style="fill:#ffffff;" transform="translate(45.039062 84.229555)scale(0.1 -0.1)">
       <use xlink:href="#LiberationSans-48"/>
      </g>
     </g>
    </g>
    <g id="ytick_3">
     <g id="line2d_9">
      <g>
       <use style="fill:#ffffff;stroke:#ffffff;stroke-width:0.8;" x="57.6" xlink:href="#m281be3ae05" y="41.472"/>
      </g>
     </g>
     <g id="text_9">
      <!-- 1 -->
      <g style="fill:#ffffff;" transform="translate(45.039062 45.095438)scale(0.1 -0.1)">
       <use xlink:href="#LiberationSans-49"/>
      </g>
     </g>
    </g>
    <g id="text_10">
     <!-- $u$ -->
     <g style="fill:#ffffff;" transform="translate(33.123437 83.806118)rotate(-90)scale(0.1 -0.1)">
      <defs>
       <path d="M 6.6875 21.6875 
L 13.09375 54.6875 
L 22.125 54.6875 
L 15.71875 22.015625 
Q 15.234375 19.625 15.015625 17.921875 
Q 14.796875 16.21875 14.796875 15.09375 
Q 14.796875 10.9375 17.328125 8.65625 
Q 19.875 6.390625 24.515625 6.390625 
Q 31.734375 6.390625 37 11.265625 
Q 42.28125 16.15625 43.890625 24.421875 
L 49.90625 54.6875 
L 58.890625 54.6875 
L 48.296875 0 
L 39.3125 0 
L 41.109375 8.59375 
Q 37.3125 3.8125 32.0625 1.1875 
Q 26.8125 -1.421875 20.90625 -1.421875 
Q 13.71875 -1.421875 9.71875 2.515625 
Q 5.71875 6.453125 5.71875 13.484375 
Q 5.71875 14.9375 5.953125 17.140625 
Q 6.203125 19.34375 6.6875 21.6875 
z
" id="DejaVuSans-Oblique-117"/>
      </defs>
      <use transform="translate(0 0.3125)" xlink:href="#DejaVuSans-Oblique-117"/>
     </g>
    </g>
   </g>
   <g id="line2d_10">
    <path clip-path="url(#p54014e6ef3)" d="M 73.832727 86.032036 
L 75.066661 80.149616 
L 76.300595 75.285095 
L 77.534529 71.262335 
L 78.70352 68.095455 
L 78.768464 89.260872 
L 78.833407 88.890494 
L 80.067341 82.513444 
L 81.301276 77.239885 
L 82.275434 73.729413 
L 82.340378 94.838771 
L 82.405322 94.412892 
L 83.639256 87.080242 
L 84.87319 81.01644 
L 86.107124 76.001923 
L 87.341058 71.855123 
L 88.639936 68.262822 
L 89.938814 65.321696 
L 90.003758 86.514711 
L 90.068702 86.171659 
L 91.302636 80.265079 
L 92.53657 75.380578 
L 93.770504 71.341296 
L 95.069382 67.842137 
L 96.36826 64.977267 
L 96.628035 64.469897 
L 96.692979 85.671389 
L 96.757923 85.336727 
L 97.991857 79.574624 
L 99.225791 74.809601 
L 100.459725 70.869121 
L 101.758603 67.455552 
L 102.732762 65.30796 
L 102.797706 86.501112 
L 102.86265 86.158195 
L 104.096584 80.253945 
L 105.330518 75.371371 
L 106.564452 71.333682 
L 107.86333 67.835903 
L 108.577713 66.190263 
L 108.642657 87.374636 
L 108.7076 87.023027 
L 109.941534 80.969126 
L 111.175469 75.962796 
L 112.409403 71.822766 
L 113.708281 68.236331 
L 115.007159 65.300007 
L 115.137046 65.037394 
L 115.20199 86.233239 
L 115.266934 85.892987 
L 116.500868 80.034628 
L 117.734802 75.190005 
L 118.968736 71.1837 
L 120.007839 68.352836 
L 120.072783 89.515691 
L 120.137726 89.142778 
L 121.371661 82.722073 
L 122.605595 77.412412 
L 123.839529 73.021539 
L 125.138407 69.217804 
L 126.437285 66.103568 
L 126.762004 65.417565 
L 126.826948 86.609627 
L 126.891892 86.26563 
L 128.125826 80.342789 
L 129.35976 75.444841 
L 130.593694 71.394439 
L 131.892572 67.885646 
L 132.931674 65.54242 
L 132.996618 86.73324 
L 133.061562 86.388013 
L 134.295496 80.443994 
L 135.52943 75.528534 
L 136.763364 71.463649 
L 138.062242 67.942311 
L 139.36112 65.059283 
L 140.659998 62.69886 
L 140.789886 62.487753 
L 140.85483 83.708967 
L 140.919774 83.393832 
L 142.153708 77.96793 
L 143.387642 73.48093 
L 143.777305 72.23217 
L 143.842249 93.356425 
L 143.907193 92.945296 
L 145.141127 85.8666 
L 146.375061 80.012807 
L 147.608995 75.17196 
L 148.323378 72.762154 
L 148.388322 93.881136 
L 148.453266 93.464786 
L 149.6872 86.296197 
L 150.921134 80.368066 
L 152.155068 75.465745 
L 153.389002 71.411725 
L 154.68788 67.899799 
L 155.207431 66.680258 
L 155.272375 87.859756 
L 155.337319 87.50332 
L 156.571253 81.366308 
L 157.805187 76.29125 
L 159.039121 72.094384 
L 160.337999 68.458713 
L 161.636877 65.482078 
L 161.896653 64.954914 
L 161.961597 86.151579 
L 162.026541 85.81214 
L 163.260475 79.967771 
L 164.494409 75.134717 
L 165.728343 71.137978 
L 166.247894 69.669475 
L 166.312838 90.819229 
L 166.377782 90.433346 
L 167.611716 83.78932 
L 168.84565 78.294981 
L 170.079584 73.751388 
L 170.858911 71.296007 
L 170.923855 92.429577 
L 170.988798 92.027671 
L 172.222733 85.107761 
L 173.456667 79.385279 
L 174.690601 74.65302 
L 174.820488 74.205205 
L 174.885432 95.309828 
L 174.950376 94.879263 
L 176.18431 87.465911 
L 177.418244 81.335373 
L 178.652178 76.265667 
L 179.886112 72.073229 
L 181.18499 68.441392 
L 181.899373 66.732681 
L 181.964317 87.911658 
L 182.029261 87.554705 
L 183.263195 81.408801 
L 184.497129 76.32639 
L 185.731063 72.123444 
L 187.029941 68.482505 
L 188.069044 66.05103 
L 188.133988 87.236788 
L 188.198931 86.886551 
L 189.432865 80.856265 
L 190.6668 75.869465 
L 191.900734 71.745585 
L 193.199612 68.173141 
L 193.978938 66.348546 
L 194.043882 87.531344 
L 194.108826 87.178176 
L 195.34276 81.097427 
L 196.576694 76.068896 
L 197.810628 71.910507 
L 199.109506 68.308167 
L 200.213553 65.764511 
L 200.278496 86.953121 
L 200.34344 86.605706 
L 201.577374 80.624018 
L 202.811308 75.677406 
L 204.045243 71.58676 
L 205.34412 68.043106 
L 206.642998 65.141807 
L 207.747045 63.093165 
L 207.811989 84.308355 
L 207.876932 83.987256 
L 209.110867 78.458667 
L 210.344801 73.886749 
L 210.99424 71.807531 
L 211.059183 92.936012 
L 211.124127 92.529066 
L 212.358061 85.522395 
L 213.591995 79.728164 
L 214.82593 74.936572 
L 216.059864 70.974121 
L 217.358742 67.541519 
L 218.65762 64.731142 
L 219.956497 62.430201 
L 221.190432 60.631863 
L 221.255375 81.871543 
L 221.320319 81.574691 
L 222.554253 76.463574 
L 223.788187 72.236889 
L 225.087065 68.575386 
L 226.126168 66.130178 
L 226.191112 87.315149 
L 226.256056 86.964132 
L 227.48999 80.920421 
L 228.723924 75.92252 
L 229.957858 71.78946 
L 230.99696 68.86903 
L 231.061904 90.026749 
L 231.126848 89.648751 
L 232.360782 83.140492 
L 233.594716 77.758428 
L 234.82865 73.30768 
L 236.127528 69.452076 
L 236.971799 67.329177 
L 237.036743 88.502218 
L 237.101687 88.139389 
L 238.335621 81.892311 
L 239.569555 76.726233 
L 240.803489 72.454097 
L 242.102367 68.753221 
L 243.336301 65.860743 
L 243.401245 87.048395 
L 243.466189 86.700032 
L 244.700123 80.702022 
L 245.934057 75.741912 
L 247.167991 71.640104 
L 248.466869 68.08678 
L 248.98642 66.852864 
L 249.051364 88.030644 
L 249.116308 87.672508 
L 250.350242 81.506219 
L 251.389344 77.149107 
L 251.454288 98.224438 
L 251.519232 97.764871 
L 252.753166 89.852192 
L 253.9871 83.308729 
L 255.221034 77.897552 
L 256.454968 73.422731 
L 257.753846 69.546271 
L 259.052724 66.372495 
L 259.961939 64.499764 
L 260.026882 85.700958 
L 260.091826 85.366003 
L 261.32576 79.598834 
L 262.559694 74.829621 
L 263.663741 71.266432 
L 263.728685 92.400297 
L 263.793629 91.998682 
L 265.027563 85.083788 
L 266.261497 79.365454 
L 267.495431 74.636626 
L 268.729365 70.726077 
L 270.028243 67.338438 
L 271.327121 64.564874 
L 272.301279 62.81993 
L 272.366223 84.037839 
L 272.431167 83.719432 
L 273.665101 78.237187 
L 274.899035 73.703595 
L 276.197913 69.776223 
L 277.107128 67.458823 
L 277.172072 88.630574 
L 277.237015 88.266469 
L 278.470949 81.997401 
L 279.704884 76.813138 
L 280.938818 72.525964 
L 282.237696 68.812061 
L 283.211854 66.475518 
L 283.276798 87.657053 
L 283.341742 87.302634 
L 284.575676 81.200349 
L 285.80961 76.154008 
L 287.043544 71.980891 
L 288.342422 68.365793 
L 288.797029 67.261909 
L 288.861973 88.435619 
L 288.926917 88.073453 
L 290.160851 81.837785 
L 290.225795 102.866463 
L 290.290739 102.360707 
L 290.355683 101.859984 
L 290.485571 93.717346 
L 291.719505 86.505053 
L 292.953439 80.540782 
L 294.187373 75.608574 
L 294.771868 73.579851 
L 294.836812 94.690697 
L 294.901756 94.266292 
L 296.13569 86.95901 
L 297.369624 80.916185 
L 298.603558 75.919017 
L 299.837492 71.786563 
L 301.13637 68.20669 
L 301.655921 66.963555 
L 301.720865 88.140234 
L 301.785809 87.781007 
L 303.019743 81.595944 
L 304.253677 76.481149 
L 305.487611 72.251423 
L 306.396826 69.610659 
L 306.461769 90.760999 
L 306.526713 90.375695 
L 307.760647 83.741644 
L 308.994581 78.255556 
L 310.228516 73.718785 
L 311.527393 69.78866 
L 312.696384 66.864538 
L 312.761328 88.042202 
L 312.826271 87.683951 
L 314.060205 81.515682 
L 315.29414 76.414776 
L 316.528074 72.196536 
L 317.826952 68.542348 
L 318.80111 66.243373 
L 318.866054 87.427218 
L 318.930998 87.075086 
L 320.164932 81.012176 
L 321.398866 75.998397 
L 322.6328 71.852207 
L 323.931678 68.260435 
L 324.321341 67.315693 
L 324.386285 88.488868 
L 324.451229 88.126173 
L 325.685163 81.881382 
L 326.919097 76.717195 
L 327.698424 73.926441 
L 327.763368 95.033838 
L 327.828312 94.606019 
L 329.062246 87.23995 
L 330.29618 81.148512 
L 331.530114 76.111141 
L 332.764048 71.945442 
L 334.062926 68.336769 
L 335.361804 65.382238 
L 335.881355 64.356257 
L 335.946299 85.558879 
L 336.011243 85.225337 
L 337.245177 79.482509 
L 338.479111 74.733425 
L 339.713045 70.806127 
L 341.011923 67.403977 
L 342.310801 64.618533 
L 343.609679 62.338004 
L 343.804511 62.033582 
L 343.869455 83.259315 
L 343.934399 82.948654 
L 345.168333 77.599785 
L 346.402267 73.17649 
L 347.701145 69.344666 
L 349.000023 66.207434 
L 350.169013 63.873247 
L 350.233957 85.080675 
L 350.298901 84.751892 
L 351.532835 79.090989 
L 352.766769 74.409654 
L 354.000703 70.538381 
L 354.844973 68.283056 
L 354.909917 89.446606 
L 354.974861 89.074381 
L 356.208795 82.665511 
L 357.442729 77.365637 
L 358.676663 72.982859 
L 359.131271 71.566833 
L 359.196215 92.697708 
L 359.261158 92.293134 
L 360.495092 85.327288 
L 361.729027 79.566819 
L 362.962961 74.803146 
L 364.196895 70.863783 
L 365.495773 67.451182 
L 365.62566 67.145973 
L 365.690604 88.320837 
L 365.755548 87.959813 
L 366.989482 81.743809 
L 368.223416 76.603428 
L 369.45735 72.352543 
L 370.756228 68.670075 
L 371.860275 66.069841 
L 371.925218 87.255412 
L 371.990162 86.904989 
L 373.224096 80.871513 
L 374.458031 75.882075 
L 375.691965 71.756013 
L 376.666123 69.009401 
L 376.731067 90.165723 
L 376.796011 89.786343 
L 378.029945 83.254274 
L 379.263879 77.852521 
L 380.497813 73.385491 
L 381.796691 69.515782 
L 383.095569 66.347533 
L 384.394447 63.753589 
L 385.693325 61.629848 
L 386.342764 60.717028 
L 386.407708 81.955861 
L 386.472652 81.65817 
L 387.706586 76.532608 
L 388.94052 72.293977 
L 390.239398 68.622126 
L 391.538276 65.615869 
L 391.60322 86.805958 
L 391.668163 86.460007 
L 392.902098 80.503531 
L 394.136032 75.577768 
L 395.369966 71.504364 
L 395.564797 70.929035 
L 395.629741 92.066257 
L 395.694685 91.667966 
L 396.928619 84.8103 
L 398.162553 79.13929 
L 398.487273 77.817527 
L 398.487273 77.817527 
" style="fill:none;stroke:#9a72ac;stroke-linecap:round;stroke-width:1.5;"/>
   </g>
   <g id="patch_3">
    <path d="M 57.6 119.740235 
L 57.6 41.472 
" style="fill:none;stroke:#ffffff;stroke-linecap:square;stroke-linejoin:miter;stroke-width:0.8;"/>
   </g>
   <g id="patch_4">
    <path d="M 414.72 119.740235 
L 414.72 41.472 
" style="fill:none;stroke:#ffffff;stroke-linecap:square;stroke-linejoin:miter;stroke-width:0.8;"/>
   </g>
   <g id="patch_5">
    <path d="M 57.6 119.740235 
L 414.72 119.740235 
" style="fill:none;stroke:#ffffff;stroke-linecap:square;stroke-linejoin:miter;stroke-width:0.8;"/>
   </g>
   <g id="patch_6">
    <path d="M 57.6 41.472 
L 414.72 41.472 
" style="fill:none;stroke:#ffffff;stroke-linecap:square;stroke-linejoin:miter;stroke-width:0.8;"/>
   </g>
  </g>
  <g id="axes_2">
   <g id="patch_7">
    <path d="M 57.6 213.662118 
L 414.72 213.662118 
L 414.72 135.393882 
L 57.6 135.393882 
z
" style="fill:#1a1a1a;"/>
   </g>
   <g id="matplotlib.axis_3">
    <g id="xtick_7">
     <g id="line2d_11">
      <g>
       <use style="fill:#ffffff;stroke:#ffffff;stroke-width:0.8;" x="73.832727" xlink:href="#mc42942dce9" y="213.662118"/>
      </g>
     </g>
     <g id="text_11">
      <!-- 0 -->
      <g style="fill:#ffffff;" transform="translate(71.052259 227.908993)scale(0.1 -0.1)">
       <use xlink:href="#LiberationSans-48"/>
      </g>
     </g>
    </g>
    <g id="xtick_8">
     <g id="line2d_12">
      <g>
       <use style="fill:#ffffff;stroke:#ffffff;stroke-width:0.8;" x="138.776625" xlink:href="#mc42942dce9" y="213.662118"/>
      </g>
     </g>
     <g id="text_12">
      <!-- 200 -->
      <g style="fill:#ffffff;" transform="translate(130.435219 227.908993)scale(0.1 -0.1)">
       <use xlink:href="#LiberationSans-50"/>
       <use x="55.615234" xlink:href="#LiberationSans-48"/>
       <use x="111.230469" xlink:href="#LiberationSans-48"/>
      </g>
     </g>
    </g>
    <g id="xtick_9">
     <g id="line2d_13">
      <g>
       <use style="fill:#ffffff;stroke:#ffffff;stroke-width:0.8;" x="203.720523" xlink:href="#mc42942dce9" y="213.662118"/>
      </g>
     </g>
     <g id="text_13">
      <!-- 400 -->
      <g style="fill:#ffffff;" transform="translate(195.379117 227.908993)scale(0.1 -0.1)">
       <use xlink:href="#LiberationSans-52"/>
       <use x="55.615234" xlink:href="#LiberationSans-48"/>
       <use x="111.230469" xlink:href="#LiberationSans-48"/>
      </g>
     </g>
    </g>
    <g id="xtick_10">
     <g id="line2d_14">
      <g>
       <use style="fill:#ffffff;stroke:#ffffff;stroke-width:0.8;" x="268.664421" xlink:href="#mc42942dce9" y="213.662118"/>
      </g>
     </g>
     <g id="text_14">
      <!-- 600 -->
      <g style="fill:#ffffff;" transform="translate(260.323015 227.908993)scale(0.1 -0.1)">
       <use xlink:href="#LiberationSans-54"/>
       <use x="55.615234" xlink:href="#LiberationSans-48"/>
       <use x="111.230469" xlink:href="#LiberationSans-48"/>
      </g>
     </g>
    </g>
    <g id="xtick_11">
     <g id="line2d_15">
      <g>
       <use style="fill:#ffffff;stroke:#ffffff;stroke-width:0.8;" x="333.608319" xlink:href="#mc42942dce9" y="213.662118"/>
      </g>
     </g>
     <g id="text_15">
      <!-- 800 -->
      <g style="fill:#ffffff;" transform="translate(325.266913 227.908993)scale(0.1 -0.1)">
       <use xlink:href="#LiberationSans-56"/>
       <use x="55.615234" xlink:href="#LiberationSans-48"/>
       <use x="111.230469" xlink:href="#LiberationSans-48"/>
      </g>
     </g>
    </g>
    <g id="xtick_12">
     <g id="line2d_16">
      <g>
       <use style="fill:#ffffff;stroke:#ffffff;stroke-width:0.8;" x="398.552217" xlink:href="#mc42942dce9" y="213.662118"/>
      </g>
     </g>
     <g id="text_16">
      <!-- 1000 -->
      <g style="fill:#ffffff;" transform="translate(387.430342 227.908993)scale(0.1 -0.1)">
       <use xlink:href="#LiberationSans-49"/>
       <use x="55.615234" xlink:href="#LiberationSans-48"/>
       <use x="111.230469" xlink:href="#LiberationSans-48"/>
       <use x="166.845703" xlink:href="#LiberationSans-48"/>
      </g>
     </g>
    </g>
    <g id="text_17">
     <!-- $t$ (ms) -->
     <g style="fill:#ffffff;" transform="translate(222.81 241.283993)scale(0.1 -0.1)">
      <defs>
       <path d="M 42.28125 54.6875 
L 40.921875 47.703125 
L 23 47.703125 
L 17.1875 18.015625 
Q 16.890625 16.359375 16.75 15.234375 
Q 16.609375 14.109375 16.609375 13.484375 
Q 16.609375 10.359375 18.484375 8.9375 
Q 20.359375 7.515625 24.515625 7.515625 
L 33.59375 7.515625 
L 32.078125 0 
L 23.484375 0 
Q 15.484375 0 11.546875 3.125 
Q 7.625 6.25 7.625 12.59375 
Q 7.625 13.71875 7.765625 15.0625 
Q 7.90625 16.40625 8.203125 18.015625 
L 14.015625 47.703125 
L 6.390625 47.703125 
L 7.8125 54.6875 
L 15.28125 54.6875 
L 18.3125 70.21875 
L 27.296875 70.21875 
L 24.3125 54.6875 
z
" id="DejaVuSans-Oblique-116"/>
       <path id="LiberationSans-32"/>
       <path d="M 6.203125 25.984375 
Q 6.203125 32.765625 7.21875 38.96875 
Q 8.25 45.171875 10.4375 50.875 
Q 12.640625 56.59375 16.0625 61.953125 
Q 19.484375 67.328125 24.21875 72.46875 
L 32.71875 72.46875 
Q 28.125 67.328125 24.78125 61.9375 
Q 21.4375 56.546875 19.28125 50.796875 
Q 17.140625 45.0625 16.09375 38.859375 
Q 15.046875 32.671875 15.046875 25.875 
Q 15.046875 19.09375 16.09375 12.890625 
Q 17.140625 6.6875 19.28125 0.921875 
Q 21.4375 -4.828125 24.78125 -10.203125 
Q 28.125 -15.578125 32.71875 -20.703125 
L 24.21875 -20.703125 
Q 19.484375 -15.578125 16.0625 -10.203125 
Q 12.640625 -4.828125 10.4375 0.875 
Q 8.25 6.59375 7.21875 12.765625 
Q 6.203125 18.953125 6.203125 25.78125 
z
" id="LiberationSans-40"/>
       <path d="M 37.5 0 
L 37.5 33.5 
Q 37.5 37.359375 37.015625 39.9375 
Q 36.53125 42.53125 35.375 44.109375 
Q 34.234375 45.703125 32.375 46.359375 
Q 30.515625 47.015625 27.828125 47.015625 
Q 25.046875 47.015625 22.796875 45.921875 
Q 20.5625 44.828125 18.96875 42.75 
Q 17.390625 40.671875 16.53125 37.625 
Q 15.671875 34.578125 15.671875 30.609375 
L 15.671875 0 
L 6.9375 0 
L 6.9375 41.546875 
Q 6.9375 43.21875 6.90625 45.046875 
Q 6.890625 46.875 6.828125 48.5 
Q 6.78125 50.140625 6.734375 51.3125 
Q 6.6875 52.484375 6.640625 52.828125 
L 14.9375 52.828125 
Q 14.984375 52.59375 15.03125 51.515625 
Q 15.09375 50.4375 15.15625 49.046875 
Q 15.234375 47.65625 15.28125 46.21875 
Q 15.328125 44.78125 15.328125 43.796875 
L 15.484375 43.796875 
Q 16.65625 46.09375 18.015625 47.953125 
Q 19.390625 49.8125 21.21875 51.09375 
Q 23.046875 52.390625 25.40625 53.09375 
Q 27.78125 53.8125 30.90625 53.8125 
Q 36.921875 53.8125 40.40625 51.421875 
Q 43.890625 49.03125 45.265625 43.796875 
L 45.40625 43.796875 
Q 46.578125 46.09375 48.046875 47.953125 
Q 49.515625 49.8125 51.46875 51.09375 
Q 53.421875 52.390625 55.859375 53.09375 
Q 58.296875 53.8125 61.421875 53.8125 
Q 65.4375 53.8125 68.328125 52.734375 
Q 71.234375 51.65625 73.09375 49.40625 
Q 74.953125 47.171875 75.828125 43.625 
Q 76.703125 40.09375 76.703125 35.203125 
L 76.703125 0 
L 68.015625 0 
L 68.015625 33.5 
Q 68.015625 37.359375 67.53125 39.9375 
Q 67.046875 42.53125 65.890625 44.109375 
Q 64.75 45.703125 62.890625 46.359375 
Q 61.03125 47.015625 58.34375 47.015625 
Q 55.5625 47.015625 53.3125 45.96875 
Q 51.078125 44.921875 49.484375 42.875 
Q 47.90625 40.828125 47.046875 37.75 
Q 46.1875 34.671875 46.1875 30.609375 
L 46.1875 0 
z
" id="LiberationSans-109"/>
       <path d="M 46.390625 14.59375 
Q 46.390625 10.890625 44.9375 7.984375 
Q 43.5 5.078125 40.765625 3.09375 
Q 38.03125 1.125 34.046875 0.0625 
Q 30.078125 -0.984375 24.953125 -0.984375 
Q 20.359375 -0.984375 16.671875 -0.265625 
Q 12.984375 0.4375 10.203125 2 
Q 7.421875 3.5625 5.53125 6.125 
Q 3.65625 8.6875 2.78125 12.40625 
L 10.546875 13.921875 
Q 11.671875 9.671875 15.1875 7.6875 
Q 18.703125 5.71875 24.953125 5.71875 
Q 27.78125 5.71875 30.140625 6.109375 
Q 32.515625 6.5 34.21875 7.453125 
Q 35.9375 8.40625 36.890625 9.984375 
Q 37.84375 11.578125 37.84375 13.921875 
Q 37.84375 16.3125 36.71875 17.84375 
Q 35.59375 19.390625 33.59375 20.40625 
Q 31.59375 21.4375 28.734375 22.1875 
Q 25.875 22.953125 22.46875 23.875 
Q 19.28125 24.703125 16.15625 25.734375 
Q 13.03125 26.765625 10.515625 28.4375 
Q 8.015625 30.125 6.453125 32.609375 
Q 4.890625 35.109375 4.890625 38.875 
Q 4.890625 46.09375 10.03125 49.875 
Q 15.1875 53.65625 25.046875 53.65625 
Q 33.796875 53.65625 38.9375 50.578125 
Q 44.09375 47.515625 45.453125 40.71875 
L 37.546875 39.75 
Q 37.109375 41.796875 35.9375 43.1875 
Q 34.765625 44.578125 33.109375 45.4375 
Q 31.453125 46.296875 29.375 46.65625 
Q 27.296875 47.015625 25.046875 47.015625 
Q 19.09375 47.015625 16.25 45.203125 
Q 13.421875 43.40625 13.421875 39.75 
Q 13.421875 37.59375 14.46875 36.203125 
Q 15.53125 34.8125 17.40625 33.859375 
Q 19.28125 32.90625 21.921875 32.203125 
Q 24.5625 31.5 27.734375 30.71875 
Q 29.828125 30.171875 32.03125 29.5625 
Q 34.234375 28.953125 36.296875 28.09375 
Q 38.375 27.25 40.203125 26.09375 
Q 42.046875 24.953125 43.40625 23.34375 
Q 44.78125 21.734375 45.578125 19.578125 
Q 46.390625 17.4375 46.390625 14.59375 
z
" id="LiberationSans-115"/>
       <path d="M 27.09375 25.78125 
Q 27.09375 18.953125 26.0625 12.765625 
Q 25.046875 6.59375 22.84375 0.875 
Q 20.65625 -4.828125 17.234375 -10.203125 
Q 13.8125 -15.578125 9.078125 -20.703125 
L 0.59375 -20.703125 
Q 5.171875 -15.578125 8.515625 -10.203125 
Q 11.859375 -4.828125 14 0.921875 
Q 16.15625 6.6875 17.203125 12.890625 
Q 18.265625 19.09375 18.265625 25.875 
Q 18.265625 32.671875 17.203125 38.859375 
Q 16.15625 45.0625 14 50.796875 
Q 11.859375 56.546875 8.515625 61.9375 
Q 5.171875 67.328125 0.59375 72.46875 
L 9.078125 72.46875 
Q 13.8125 67.328125 17.234375 61.953125 
Q 20.65625 56.59375 22.84375 50.875 
Q 25.046875 45.171875 26.0625 38.96875 
Q 27.09375 32.765625 27.09375 25.984375 
z
" id="LiberationSans-41"/>
      </defs>
      <use transform="translate(0 0.53125)" xlink:href="#DejaVuSans-Oblique-116"/>
      <use transform="translate(39.208984 0.53125)" xlink:href="#LiberationSans-32"/>
      <use transform="translate(66.992188 0.53125)" xlink:href="#LiberationSans-40"/>
      <use transform="translate(100.292969 0.53125)" xlink:href="#LiberationSans-109"/>
      <use transform="translate(183.59375 0.53125)" xlink:href="#LiberationSans-115"/>
      <use transform="translate(233.59375 0.53125)" xlink:href="#LiberationSans-41"/>
     </g>
    </g>
   </g>
   <g id="matplotlib.axis_4">
    <g id="ytick_4">
     <g id="line2d_17">
      <g>
       <use style="fill:#ffffff;stroke:#ffffff;stroke-width:0.8;" x="57.6" xlink:href="#m281be3ae05" y="213.662118"/>
      </g>
     </g>
     <g id="text_18">
      <!-- −1 -->
      <g style="fill:#ffffff;" transform="translate(39.198437 217.285555)scale(0.1 -0.1)">
       <use xlink:href="#LiberationSans-8722"/>
       <use x="58.398438" xlink:href="#LiberationSans-49"/>
      </g>
     </g>
    </g>
    <g id="ytick_5">
     <g id="line2d_18">
      <g>
       <use style="fill:#ffffff;stroke:#ffffff;stroke-width:0.8;" x="57.6" xlink:href="#m281be3ae05" y="174.528"/>
      </g>
     </g>
     <g id="text_19">
      <!-- 0 -->
      <g style="fill:#ffffff;" transform="translate(45.039062 178.151437)scale(0.1 -0.1)">
       <use xlink:href="#LiberationSans-48"/>
      </g>
     </g>
    </g>
    <g id="ytick_6">
     <g id="line2d_19">
      <g>
       <use style="fill:#ffffff;stroke:#ffffff;stroke-width:0.8;" x="57.6" xlink:href="#m281be3ae05" y="135.393882"/>
      </g>
     </g>
     <g id="text_20">
      <!-- 1 -->
      <g style="fill:#ffffff;" transform="translate(45.039062 139.01732)scale(0.1 -0.1)">
       <use xlink:href="#LiberationSans-49"/>
      </g>
     </g>
    </g>
    <g id="text_21">
     <!-- $u$ -->
     <g style="fill:#ffffff;" transform="translate(33.123437 177.728)rotate(-90)scale(0.1 -0.1)">
      <use transform="translate(0 0.3125)" xlink:href="#DejaVuSans-Oblique-117"/>
     </g>
    </g>
   </g>
   <g id="line2d_20">
    <path clip-path="url(#p1abe7fe169)" d="M 73.832727 180.993785 
L 76.170708 180.386638 
L 78.70352 179.934155 
L 78.768464 172.696706 
L 78.833407 172.759281 
L 80.327117 174.038563 
L 81.950715 175.132825 
L 82.275434 175.320723 
L 82.340378 168.129179 
L 82.405322 168.237201 
L 83.769144 170.273101 
L 85.132966 171.92337 
L 86.561731 173.318011 
L 88.120385 174.527299 
L 89.808926 175.548 
L 89.938814 175.616068 
L 90.003758 168.421585 
L 90.068702 168.526697 
L 91.432524 170.507762 
L 92.861289 172.181959 
L 94.354999 173.579862 
L 95.913653 174.733278 
L 96.628035 175.176216 
L 96.692979 167.986109 
L 96.757923 168.095555 
L 98.121745 170.158285 
L 99.485567 171.830302 
L 100.914333 173.243322 
L 102.472986 174.468546 
L 102.732762 174.645659 
L 102.797706 167.460832 
L 102.86265 167.575504 
L 104.226471 169.73674 
L 105.590293 171.488604 
L 107.019059 172.969103 
L 108.512769 174.205274 
L 108.577713 174.252838 
L 108.642657 167.071919 
L 108.7076 167.190461 
L 110.006478 169.328542 
L 111.3703 171.157725 
L 112.799066 172.703567 
L 114.292776 173.994296 
L 115.137046 174.602749 
L 115.20199 167.418348 
L 115.266934 167.533443 
L 116.630756 169.702646 
L 117.994578 171.460968 
L 119.423344 172.946925 
L 120.007839 173.466659 
L 120.072783 166.293563 
L 120.137726 166.41985 
L 121.436604 168.697619 
L 122.800426 170.646309 
L 124.229192 172.293145 
L 125.722902 173.668203 
L 126.762004 174.454401 
L 126.826948 167.271476 
L 126.891892 167.388033 
L 128.19077 169.4903 
L 129.554592 171.288843 
L 130.983357 172.808791 
L 132.477067 174.077901 
L 132.931674 174.409686 
L 132.996618 167.227206 
L 133.061562 167.344204 
L 134.36044 169.454415 
L 135.724262 171.259756 
L 137.153028 172.785448 
L 138.646737 174.059354 
L 140.270335 175.149017 
L 140.789886 175.443981 
L 140.85483 168.25121 
L 140.919774 168.358018 
L 142.283596 170.371034 
L 143.647417 172.002753 
L 143.777305 172.141021 
L 143.842249 164.981115 
L 143.907193 165.120461 
L 145.206071 167.633769 
L 146.569893 169.783969 
L 147.933715 171.526887 
L 148.323378 171.961243 
L 148.388322 164.803126 
L 148.453266 164.944243 
L 149.752144 167.489494 
L 151.115966 169.667022 
L 152.479788 171.432092 
L 153.908553 172.923751 
L 155.207431 174.022563 
L 155.272375 166.843935 
L 155.337319 166.964746 
L 156.636197 169.143742 
L 158.000019 171.007929 
L 159.428785 172.583352 
L 160.922494 173.898782 
L 161.896653 174.607323 
L 161.961597 167.422877 
L 162.026541 167.537927 
L 163.390362 169.706281 
L 164.754184 171.463914 
L 166.18295 172.949289 
L 166.247894 173.009351 
L 166.312838 165.840805 
L 166.377782 165.971597 
L 167.67666 168.33062 
L 169.040482 170.348825 
L 170.404303 171.984751 
L 170.858911 172.458046 
L 170.923855 165.294985 
L 170.988798 165.431208 
L 172.287676 167.888187 
L 173.651498 169.990196 
L 174.820488 171.471993 
L 174.885432 164.318744 
L 174.950376 164.464681 
L 176.249254 167.096862 
L 177.548132 169.251909 
L 178.911954 171.095608 
L 180.34072 172.653716 
L 181.834429 173.954688 
L 181.899373 174.004746 
L 181.964317 166.826296 
L 182.029261 166.947282 
L 183.328139 169.129444 
L 184.691961 170.996339 
L 186.120727 172.574051 
L 187.614436 173.891392 
L 188.069044 174.235786 
L 188.133988 167.055037 
L 188.198931 167.173747 
L 189.497809 169.314858 
L 190.861631 171.146633 
L 192.290397 172.694665 
L 193.784107 173.987223 
L 193.978938 174.134945 
L 194.043882 166.955199 
L 194.108826 167.074903 
L 195.407704 169.233931 
L 196.771526 171.081035 
L 198.200292 172.642021 
L 199.694001 173.945396 
L 200.213553 174.332899 
L 200.278496 167.151184 
L 200.34344 167.268937 
L 201.642318 169.392793 
L 203.00614 171.209806 
L 204.434906 172.745362 
L 205.928616 174.027504 
L 207.552213 175.124213 
L 207.747045 175.238331 
L 207.811989 168.047607 
L 207.876932 168.156441 
L 209.240754 170.207638 
L 210.604576 171.870306 
L 210.99424 172.284664 
L 211.059183 165.123329 
L 211.124127 165.26126 
L 212.423005 167.749045 
L 213.786827 169.87741 
L 215.150649 171.602629 
L 216.579415 173.06061 
L 218.073124 174.277979 
L 219.696722 175.319283 
L 221.190432 176.072571 
L 221.255375 168.873545 
L 221.320319 168.974161 
L 222.684141 170.870469 
L 224.112907 172.473038 
L 225.606617 173.811134 
L 226.126168 174.208959 
L 226.191112 167.028477 
L 226.256056 167.147451 
L 227.554934 169.293328 
L 228.918755 171.129181 
L 230.347521 172.68066 
L 230.99696 173.280646 
L 231.061904 166.109401 
L 231.126848 166.23752 
L 232.425726 168.54834 
L 233.789548 170.525306 
L 235.218313 172.196038 
L 236.712023 173.591048 
L 236.971799 173.802568 
L 237.036743 166.626129 
L 237.101687 166.749107 
L 238.400564 168.967192 
L 239.764386 170.86482 
L 241.193152 172.468505 
L 242.686862 173.807532 
L 243.336301 174.300282 
L 243.401245 167.118891 
L 243.466189 167.236966 
L 244.765066 169.366617 
L 246.128888 171.188588 
L 247.557654 172.728335 
L 248.98642 173.96401 
L 249.051364 166.785965 
L 249.116308 166.907353 
L 250.415186 169.096752 
L 251.389344 170.474178 
L 251.454288 163.330858 
L 251.519232 163.486624 
L 252.81811 166.296097 
L 254.116988 168.596298 
L 255.48081 170.56418 
L 256.909575 172.227235 
L 258.403285 173.615835 
L 259.961939 174.761575 
L 260.026882 167.575594 
L 260.091826 167.689125 
L 261.455648 169.828839 
L 262.81947 171.563258 
L 263.663741 172.468065 
L 263.728685 165.304905 
L 263.793629 165.44103 
L 265.092507 167.896228 
L 266.456328 169.996714 
L 267.82015 171.699335 
L 269.248916 173.138219 
L 270.80757 174.385869 
L 272.301279 175.330942 
L 272.366223 168.139296 
L 272.431167 168.247217 
L 273.794989 170.28122 
L 275.158811 171.929951 
L 276.587576 173.323293 
L 277.107128 173.758625 
L 277.172072 166.582624 
L 277.237015 166.706034 
L 278.535893 168.931927 
L 279.899715 170.836235 
L 281.328481 172.445565 
L 282.822191 173.789305 
L 283.211854 174.091909 
L 283.276798 166.912591 
L 283.341742 167.032719 
L 284.64062 169.199393 
L 286.004442 171.053039 
L 287.433207 172.619554 
L 288.797029 173.825368 
L 288.861973 166.648702 
L 288.926917 166.771456 
L 290.160851 168.884987 
L 290.225795 161.757479 
L 290.290739 161.928901 
L 290.355683 162.098617 
L 290.420627 196.390287 
L 290.485571 196.217107 
L 291.784449 193.093549 
L 293.083326 190.536197 
L 294.447148 188.348316 
L 294.771868 187.891687 
L 294.901756 180.559243 
L 297.564455 180.02992 
L 300.81165 179.618979 
L 301.655921 179.541757 
L 301.720865 172.308213 
L 301.785809 172.374653 
L 303.279518 173.732963 
L 304.838172 174.853712 
L 306.396826 175.735324 
L 306.461769 168.539654 
L 306.526713 168.643592 
L 307.890535 170.602515 
L 309.319301 172.258 
L 310.813011 173.640279 
L 312.371664 174.780803 
L 312.696384 174.98587 
L 312.761328 167.797657 
L 312.826271 167.908978 
L 314.190093 170.007049 
L 315.553915 171.707712 
L 316.982681 173.144941 
L 318.541334 174.391157 
L 318.80111 174.571305 
L 318.866054 167.387217 
L 318.930998 167.502622 
L 320.29482 169.677663 
L 321.658642 171.440717 
L 323.087407 172.930673 
L 324.321341 173.978408 
L 324.386285 166.80022 
L 324.451229 166.921466 
L 325.750107 169.108307 
L 327.113929 170.979206 
L 327.698424 171.6683 
L 327.763368 164.513097 
L 327.828312 164.6571 
L 329.12719 167.254401 
L 330.426068 169.380892 
L 331.78989 171.200159 
L 333.218655 172.737621 
L 334.712365 174.021353 
L 335.881355 174.839099 
L 335.946299 167.652346 
L 336.011243 167.765113 
L 337.375065 169.890434 
L 338.738887 171.613186 
L 340.167652 173.069083 
L 341.661362 174.284711 
L 343.28496 175.324525 
L 343.804511 175.605996 
L 343.869455 168.411613 
L 343.934399 168.516825 
L 345.29822 170.49976 
L 346.726986 172.175537 
L 348.220696 173.574759 
L 349.779349 174.729264 
L 350.169013 174.977129 
L 350.233957 167.789003 
L 350.298901 167.90041 
L 351.662722 170.000104 
L 353.026544 171.702082 
L 354.45531 173.140424 
L 354.844973 173.480815 
L 354.909917 166.307578 
L 354.974861 166.433726 
L 356.273739 168.708979 
L 357.637561 170.655517 
L 359.066327 172.300535 
L 359.131271 172.367052 
L 359.196215 165.204897 
L 359.261158 165.342017 
L 360.560036 167.815163 
L 361.923858 169.931004 
L 363.28768 171.646071 
L 364.716446 173.095474 
L 365.62566 173.864959 
L 365.690604 166.6879 
L 365.755548 166.810263 
L 367.054426 169.017262 
L 368.418248 170.905406 
L 369.847014 172.501076 
L 371.340723 173.833411 
L 371.860275 174.229523 
L 371.925218 167.048836 
L 371.990162 167.167608 
L 373.28904 169.309832 
L 374.652862 171.142559 
L 376.081628 172.691395 
L 376.666123 173.233123 
L 376.731067 166.06235 
L 376.796011 166.190938 
L 378.094889 168.510201 
L 379.458711 170.494391 
L 380.887476 172.171229 
L 382.381186 173.571336 
L 383.93984 174.726571 
L 385.628381 175.70165 
L 386.342764 176.043717 
L 386.407708 168.844978 
L 386.472652 168.945878 
L 387.836473 170.847544 
L 389.265239 172.45464 
L 390.758949 173.796516 
L 391.538276 174.383286 
L 391.60322 167.201069 
L 391.668163 167.318326 
L 392.967041 169.433229 
L 394.330863 171.242582 
L 395.564797 172.582426 
L 395.629741 165.418128 
L 395.694685 165.553126 
L 396.993563 167.988005 
L 398.357385 170.071107 
L 398.487273 170.247624 
L 398.487273 170.247624 
" style="fill:none;stroke:#9a72ac;stroke-linecap:round;stroke-width:1.5;"/>
   </g>
   <g id="patch_8">
    <path d="M 57.6 213.662118 
L 57.6 135.393882 
" style="fill:none;stroke:#ffffff;stroke-linecap:square;stroke-linejoin:miter;stroke-width:0.8;"/>
   </g>
   <g id="patch_9">
    <path d="M 414.72 213.662118 
L 414.72 135.393882 
" style="fill:none;stroke:#ffffff;stroke-linecap:square;stroke-linejoin:miter;stroke-width:0.8;"/>
   </g>
   <g id="patch_10">
    <path d="M 57.6 213.662118 
L 414.72 213.662118 
" style="fill:none;stroke:#ffffff;stroke-linecap:square;stroke-linejoin:miter;stroke-width:0.8;"/>
   </g>
   <g id="patch_11">
    <path d="M 57.6 135.393882 
L 414.72 135.393882 
" style="fill:none;stroke:#ffffff;stroke-linecap:square;stroke-linejoin:miter;stroke-width:0.8;"/>
   </g>
  </g>
  <g id="text_22">
   <!-- M2 - membrane potential -->
   <g style="fill:#ffffff;" transform="translate(163.708125 15.60825)scale(0.12 -0.12)">
    <defs>
     <path d="M 66.703125 0 
L 66.703125 45.90625 
Q 66.703125 48.390625 66.75 50.96875 
Q 66.796875 53.5625 66.890625 55.71875 
Q 67 58.203125 67.140625 60.546875 
Q 66.453125 58.0625 65.71875 55.609375 
Q 65.09375 53.515625 64.328125 51.140625 
Q 63.578125 48.78125 62.84375 46.875 
L 45.0625 0 
L 38.53125 0 
L 20.515625 46.875 
Q 20.21875 47.609375 19.890625 48.578125 
Q 19.578125 49.5625 19.203125 50.65625 
Q 18.84375 51.765625 18.46875 52.90625 
Q 18.109375 54.046875 17.78125 55.171875 
Q 16.9375 57.765625 16.15625 60.546875 
Q 16.21875 57.8125 16.3125 55.125 
Q 16.40625 52.828125 16.453125 50.3125 
Q 16.5 47.796875 16.5 45.90625 
L 16.5 0 
L 8.203125 0 
L 8.203125 68.796875 
L 20.453125 68.796875 
L 38.765625 21.09375 
Q 39.109375 20.125 39.59375 18.578125 
Q 40.09375 17.046875 40.53125 15.421875 
Q 40.96875 13.8125 41.328125 12.375 
Q 41.703125 10.9375 41.84375 10.15625 
Q 42 10.9375 42.390625 12.40625 
Q 42.78125 13.875 43.28125 15.484375 
Q 43.796875 17.09375 44.28125 18.609375 
Q 44.78125 20.125 45.171875 21.09375 
L 63.140625 68.796875 
L 75.09375 68.796875 
L 75.09375 0 
z
" id="LiberationSans-77"/>
     <path d="M 4.4375 22.65625 
L 4.4375 30.46875 
L 28.859375 30.46875 
L 28.859375 22.65625 
z
" id="LiberationSans-45"/>
     <path d="M 13.484375 24.5625 
Q 13.484375 20.40625 14.328125 16.90625 
Q 15.1875 13.421875 16.96875 10.90625 
Q 18.75 8.40625 21.53125 7 
Q 24.3125 5.609375 28.21875 5.609375 
Q 33.9375 5.609375 37.375 7.90625 
Q 40.828125 10.203125 42.046875 13.71875 
L 49.75 11.53125 
Q 48.921875 9.328125 47.4375 7.109375 
Q 45.953125 4.890625 43.453125 3.09375 
Q 40.96875 1.3125 37.234375 0.15625 
Q 33.5 -0.984375 28.21875 -0.984375 
Q 16.5 -0.984375 10.375 6 
Q 4.25 12.984375 4.25 26.765625 
Q 4.25 34.1875 6.09375 39.328125 
Q 7.953125 44.484375 11.171875 47.703125 
Q 14.40625 50.921875 18.703125 52.359375 
Q 23 53.8125 27.875 53.8125 
Q 34.515625 53.8125 38.984375 51.65625 
Q 43.453125 49.515625 46.15625 45.71875 
Q 48.875 41.9375 50.015625 36.8125 
Q 51.171875 31.6875 51.171875 25.734375 
L 51.171875 24.5625 
z
M 42.09375 31.296875 
Q 41.359375 39.65625 37.84375 43.484375 
Q 34.328125 47.3125 27.734375 47.3125 
Q 25.53125 47.3125 23.109375 46.609375 
Q 20.703125 45.90625 18.65625 44.09375 
Q 16.609375 42.28125 15.1875 39.171875 
Q 13.765625 36.078125 13.578125 31.296875 
z
" id="LiberationSans-101"/>
     <path d="M 51.421875 26.65625 
Q 51.421875 -0.984375 31.984375 -0.984375 
Q 25.984375 -0.984375 22 1.1875 
Q 18.015625 3.375 15.53125 8.203125 
L 15.4375 8.203125 
Q 15.4375 6.9375 15.359375 5.5625 
Q 15.28125 4.203125 15.203125 3.03125 
Q 15.140625 1.859375 15.0625 1.03125 
Q 14.984375 0.203125 14.9375 0 
L 6.453125 0 
Q 6.5 0.4375 6.546875 1.484375 
Q 6.59375 2.546875 6.640625 4 
Q 6.6875 5.46875 6.703125 7.21875 
Q 6.734375 8.984375 6.734375 10.890625 
L 6.734375 72.46875 
L 15.53125 72.46875 
L 15.53125 51.8125 
Q 15.53125 50.34375 15.5 49 
Q 15.484375 47.65625 15.4375 46.625 
Q 15.375 45.40625 15.328125 44.34375 
L 15.53125 44.34375 
Q 17.96875 49.421875 22 51.609375 
Q 26.03125 53.8125 31.984375 53.8125 
Q 42 53.8125 46.703125 47.0625 
Q 51.421875 40.328125 51.421875 26.65625 
z
M 42.1875 26.375 
Q 42.1875 31.84375 41.5 35.75 
Q 40.828125 39.65625 39.3125 42.15625 
Q 37.796875 44.671875 35.453125 45.84375 
Q 33.109375 47.015625 29.734375 47.015625 
Q 26.265625 47.015625 23.609375 45.890625 
Q 20.953125 44.78125 19.171875 42.28125 
Q 17.390625 39.796875 16.453125 35.734375 
Q 15.53125 31.6875 15.53125 25.828125 
Q 15.53125 20.171875 16.453125 16.3125 
Q 17.390625 12.453125 19.171875 10.03125 
Q 20.953125 7.625 23.578125 6.5625 
Q 26.21875 5.515625 29.640625 5.515625 
Q 32.859375 5.515625 35.203125 6.640625 
Q 37.546875 7.765625 39.109375 10.25 
Q 40.671875 12.75 41.421875 16.71875 
Q 42.1875 20.703125 42.1875 26.375 
z
" id="LiberationSans-98"/>
     <path d="M 6.9375 0 
L 6.9375 40.53125 
Q 6.9375 42.1875 6.90625 43.921875 
Q 6.890625 45.65625 6.828125 47.265625 
Q 6.78125 48.875 6.734375 50.28125 
Q 6.6875 51.703125 6.640625 52.828125 
L 14.9375 52.828125 
Q 14.984375 51.703125 15.0625 50.265625 
Q 15.140625 48.828125 15.203125 47.3125 
Q 15.28125 45.796875 15.296875 44.40625 
Q 15.328125 43.015625 15.328125 42.046875 
L 15.53125 42.046875 
Q 16.453125 45.0625 17.5 47.28125 
Q 18.5625 49.515625 19.96875 50.953125 
Q 21.390625 52.390625 23.34375 53.09375 
Q 25.296875 53.8125 28.078125 53.8125 
Q 29.15625 53.8125 30.125 53.640625 
Q 31.109375 53.46875 31.640625 53.328125 
L 31.640625 45.265625 
Q 30.765625 45.515625 29.59375 45.625 
Q 28.421875 45.75 26.953125 45.75 
Q 23.921875 45.75 21.796875 44.375 
Q 19.671875 43.015625 18.328125 40.59375 
Q 17 38.1875 16.359375 34.84375 
Q 15.71875 31.5 15.71875 27.546875 
L 15.71875 0 
z
" id="LiberationSans-114"/>
     <path d="M 20.21875 -0.984375 
Q 12.25 -0.984375 8.25 3.21875 
Q 4.25 7.421875 4.25 14.75 
Q 4.25 19.96875 6.21875 23.3125 
Q 8.203125 26.65625 11.390625 28.5625 
Q 14.59375 30.46875 18.6875 31.203125 
Q 22.796875 31.9375 27.046875 32.03125 
L 38.921875 32.234375 
L 38.921875 35.109375 
Q 38.921875 38.375 38.234375 40.671875 
Q 37.546875 42.96875 36.125 44.375 
Q 34.71875 45.796875 32.59375 46.453125 
Q 30.46875 47.125 27.59375 47.125 
Q 25.046875 47.125 23 46.75 
Q 20.953125 46.390625 19.4375 45.4375 
Q 17.921875 44.484375 16.984375 42.84375 
Q 16.0625 41.21875 15.765625 38.71875 
L 6.59375 39.546875 
Q 7.078125 42.671875 8.4375 45.28125 
Q 9.8125 47.90625 12.328125 49.796875 
Q 14.84375 51.703125 18.625 52.75 
Q 22.40625 53.8125 27.78125 53.8125 
Q 37.75 53.8125 42.765625 49.234375 
Q 47.796875 44.671875 47.796875 36.03125 
L 47.796875 13.28125 
Q 47.796875 9.375 48.828125 7.390625 
Q 49.859375 5.421875 52.734375 5.421875 
Q 53.46875 5.421875 54.203125 5.515625 
Q 54.9375 5.609375 55.609375 5.765625 
L 55.609375 0.296875 
Q 53.953125 -0.09375 52.3125 -0.28125 
Q 50.6875 -0.484375 48.828125 -0.484375 
Q 46.34375 -0.484375 44.5625 0.171875 
Q 42.78125 0.828125 41.65625 2.171875 
Q 40.53125 3.515625 39.9375 5.484375 
Q 39.359375 7.46875 39.203125 10.109375 
L 38.921875 10.109375 
Q 37.5 7.5625 35.8125 5.515625 
Q 34.125 3.46875 31.875 2.03125 
Q 29.640625 0.59375 26.78125 -0.1875 
Q 23.921875 -0.984375 20.21875 -0.984375 
z
M 22.21875 5.609375 
Q 26.421875 5.609375 29.5625 7.140625 
Q 32.71875 8.6875 34.78125 11.078125 
Q 36.859375 13.484375 37.890625 16.3125 
Q 38.921875 19.140625 38.921875 21.734375 
L 38.921875 26.078125 
L 29.296875 25.875 
Q 26.078125 25.828125 23.171875 25.40625 
Q 20.265625 25 18.0625 23.78125 
Q 15.875 22.5625 14.578125 20.359375 
Q 13.28125 18.171875 13.28125 14.59375 
Q 13.28125 10.296875 15.59375 7.953125 
Q 17.921875 5.609375 22.21875 5.609375 
z
" id="LiberationSans-97"/>
     <path d="M 40.28125 0 
L 40.28125 33.5 
Q 40.28125 37.359375 39.71875 39.9375 
Q 39.15625 42.53125 37.890625 44.109375 
Q 36.625 45.703125 34.546875 46.359375 
Q 32.46875 47.015625 29.390625 47.015625 
Q 26.265625 47.015625 23.75 45.921875 
Q 21.234375 44.828125 19.453125 42.75 
Q 17.671875 40.671875 16.6875 37.625 
Q 15.71875 34.578125 15.71875 30.609375 
L 15.71875 0 
L 6.9375 0 
L 6.9375 41.546875 
Q 6.9375 43.21875 6.90625 45.046875 
Q 6.890625 46.875 6.828125 48.5 
Q 6.78125 50.140625 6.734375 51.3125 
Q 6.6875 52.484375 6.640625 52.828125 
L 14.9375 52.828125 
Q 14.984375 52.59375 15.03125 51.515625 
Q 15.09375 50.4375 15.15625 49.046875 
Q 15.234375 47.65625 15.28125 46.21875 
Q 15.328125 44.78125 15.328125 43.796875 
L 15.484375 43.796875 
Q 16.75 46.09375 18.265625 47.953125 
Q 19.78125 49.8125 21.78125 51.09375 
Q 23.78125 52.390625 26.359375 53.09375 
Q 28.953125 53.8125 32.375 53.8125 
Q 36.765625 53.8125 39.9375 52.734375 
Q 43.109375 51.65625 45.15625 49.40625 
Q 47.21875 47.171875 48.171875 43.625 
Q 49.125 40.09375 49.125 35.203125 
L 49.125 0 
z
" id="LiberationSans-110"/>
     <path d="M 51.421875 26.65625 
Q 51.421875 20.65625 50.4375 15.578125 
Q 49.46875 10.5 47.1875 6.828125 
Q 44.921875 3.171875 41.1875 1.09375 
Q 37.453125 -0.984375 31.984375 -0.984375 
Q 26.3125 -0.984375 22.0625 1.171875 
Q 17.828125 3.328125 15.578125 8.203125 
L 15.328125 8.203125 
Q 15.375 8.109375 15.40625 7.328125 
Q 15.4375 6.546875 15.453125 5.375 
Q 15.484375 4.203125 15.5 2.75 
Q 15.53125 1.3125 15.53125 -0.09375 
L 15.53125 -20.75 
L 6.734375 -20.75 
L 6.734375 42.046875 
Q 6.734375 43.953125 6.703125 45.703125 
Q 6.6875 47.46875 6.640625 48.90625 
Q 6.59375 50.34375 6.546875 51.359375 
Q 6.5 52.390625 6.453125 52.828125 
L 14.9375 52.828125 
Q 14.984375 52.6875 15.0625 51.796875 
Q 15.140625 50.921875 15.203125 49.671875 
Q 15.28125 48.4375 15.359375 47.015625 
Q 15.4375 45.609375 15.4375 44.34375 
L 15.625 44.34375 
Q 16.84375 46.875 18.40625 48.65625 
Q 19.96875 50.4375 21.96875 51.578125 
Q 23.96875 52.734375 26.4375 53.25 
Q 28.90625 53.765625 31.984375 53.765625 
Q 37.453125 53.765625 41.1875 51.8125 
Q 44.921875 49.859375 47.1875 46.3125 
Q 49.46875 42.78125 50.4375 37.765625 
Q 51.421875 32.765625 51.421875 26.65625 
z
M 42.1875 26.46875 
Q 42.1875 31.34375 41.59375 35.15625 
Q 41.015625 38.96875 39.578125 41.59375 
Q 38.140625 44.234375 35.734375 45.59375 
Q 33.34375 46.96875 29.734375 46.96875 
Q 26.8125 46.96875 24.21875 46.140625 
Q 21.625 45.3125 19.703125 42.96875 
Q 17.78125 40.625 16.65625 36.5 
Q 15.53125 32.375 15.53125 25.78125 
Q 15.53125 20.171875 16.453125 16.28125 
Q 17.390625 12.40625 19.171875 10.015625 
Q 20.953125 7.625 23.578125 6.5625 
Q 26.21875 5.515625 29.640625 5.515625 
Q 33.296875 5.515625 35.71875 6.921875 
Q 38.140625 8.34375 39.578125 11.03125 
Q 41.015625 13.71875 41.59375 17.59375 
Q 42.1875 21.484375 42.1875 26.46875 
z
" id="LiberationSans-112"/>
     <path d="M 51.421875 26.46875 
Q 51.421875 12.59375 45.3125 5.796875 
Q 39.203125 -0.984375 27.59375 -0.984375 
Q 22.078125 -0.984375 17.71875 0.671875 
Q 13.375 2.34375 10.375 5.765625 
Q 7.375 9.1875 5.78125 14.328125 
Q 4.203125 19.484375 4.203125 26.46875 
Q 4.203125 53.8125 27.875 53.8125 
Q 34.03125 53.8125 38.5 52.09375 
Q 42.96875 50.390625 45.828125 46.96875 
Q 48.6875 43.5625 50.046875 38.421875 
Q 51.421875 33.296875 51.421875 26.46875 
z
M 42.1875 26.46875 
Q 42.1875 32.625 41.234375 36.625 
Q 40.28125 40.625 38.453125 43.015625 
Q 36.625 45.40625 33.984375 46.359375 
Q 31.34375 47.3125 28.03125 47.3125 
Q 24.65625 47.3125 21.9375 46.3125 
Q 19.234375 45.3125 17.328125 42.890625 
Q 15.4375 40.484375 14.421875 36.46875 
Q 13.421875 32.46875 13.421875 26.46875 
Q 13.421875 20.3125 14.5 16.28125 
Q 15.578125 12.25 17.453125 9.859375 
Q 19.34375 7.46875 21.90625 6.484375 
Q 24.46875 5.515625 27.484375 5.515625 
Q 30.859375 5.515625 33.59375 6.46875 
Q 36.328125 7.421875 38.234375 9.8125 
Q 40.140625 12.203125 41.15625 16.25 
Q 42.1875 20.3125 42.1875 26.46875 
z
" id="LiberationSans-111"/>
     <path d="M 27.046875 0.390625 
Q 25.046875 -0.140625 22.96875 -0.453125 
Q 20.90625 -0.78125 18.171875 -0.78125 
Q 7.625 -0.78125 7.625 11.1875 
L 7.625 46.4375 
L 1.515625 46.4375 
L 1.515625 52.828125 
L 7.953125 52.828125 
L 10.546875 64.65625 
L 16.40625 64.65625 
L 16.40625 52.828125 
L 26.171875 52.828125 
L 26.171875 46.4375 
L 16.40625 46.4375 
L 16.40625 13.09375 
Q 16.40625 9.28125 17.640625 7.734375 
Q 18.890625 6.203125 21.96875 6.203125 
Q 23.25 6.203125 24.4375 6.390625 
Q 25.640625 6.59375 27.046875 6.890625 
z
" id="LiberationSans-116"/>
     <path d="M 6.6875 64.0625 
L 6.6875 72.46875 
L 15.484375 72.46875 
L 15.484375 64.0625 
z
M 6.6875 0 
L 6.6875 52.828125 
L 15.484375 52.828125 
L 15.484375 0 
z
" id="LiberationSans-105"/>
     <path d="M 6.734375 0 
L 6.734375 72.46875 
L 15.53125 72.46875 
L 15.53125 0 
z
" id="LiberationSans-108"/>
    </defs>
    <use xlink:href="#LiberationSans-77"/>
    <use x="83.300781" xlink:href="#LiberationSans-50"/>
    <use x="138.916016" xlink:href="#LiberationSans-32"/>
    <use x="166.699219" xlink:href="#LiberationSans-45"/>
    <use x="200" xlink:href="#LiberationSans-32"/>
    <use x="227.783203" xlink:href="#LiberationSans-109"/>
    <use x="311.083984" xlink:href="#LiberationSans-101"/>
    <use x="366.699219" xlink:href="#LiberationSans-109"/>
    <use x="450" xlink:href="#LiberationSans-98"/>
    <use x="505.615234" xlink:href="#LiberationSans-114"/>
    <use x="538.916016" xlink:href="#LiberationSans-97"/>
    <use x="594.53125" xlink:href="#LiberationSans-110"/>
    <use x="650.146484" xlink:href="#LiberationSans-101"/>
    <use x="705.761719" xlink:href="#LiberationSans-32"/>
    <use x="733.544922" xlink:href="#LiberationSans-112"/>
    <use x="789.160156" xlink:href="#LiberationSans-111"/>
    <use x="844.775391" xlink:href="#LiberationSans-116"/>
    <use x="872.558594" xlink:href="#LiberationSans-101"/>
    <use x="928.173828" xlink:href="#LiberationSans-110"/>
    <use x="983.789062" xlink:href="#LiberationSans-116"/>
    <use x="1011.572266" xlink:href="#LiberationSans-105"/>
    <use x="1033.789062" xlink:href="#LiberationSans-97"/>
    <use x="1089.404297" xlink:href="#LiberationSans-108"/>
   </g>
  </g>
 </g>
 <defs>
  <clipPath id="p54014e6ef3">
   <rect height="78.268235" width="357.12" x="57.6" y="41.472"/>
  </clipPath>
  <clipPath id="p1abe7fe169">
   <rect height="78.268235" width="357.12" x="57.6" y="135.393882"/>
  </clipPath>
 </defs>
</svg>
