<?xml version="1.0" encoding="utf-8" standalone="no"?>
<!DOCTYPE svg PUBLIC "-//W3C//DTD SVG 1.1//EN"
  "http://www.w3.org/Graphics/SVG/1.1/DTD/svg11.dtd">
<!-- Created with matplotlib (https://matplotlib.org/) -->
<svg height="345.6pt" version="1.1" viewBox="0 0 460.8 345.6" width="460.8pt" xmlns="http://www.w3.org/2000/svg" xmlns:xlink="http://www.w3.org/1999/xlink">
 <metadata>
  <rdf:RDF xmlns:cc="http://creativecommons.org/ns#" xmlns:dc="http://purl.org/dc/elements/1.1/" xmlns:rdf="http://www.w3.org/1999/02/22-rdf-syntax-ns#">
   <cc:Work>
    <dc:type rdf:resource="http://purl.org/dc/dcmitype/StillImage"/>
    <dc:date>2022-05-05T12:31:07.895708</dc:date>
    <dc:format>image/svg+xml</dc:format>
    <dc:creator>
     <cc:Agent>
      <dc:title>Matplotlib v3.3.4, https://matplotlib.org/</dc:title>
     </cc:Agent>
    </dc:creator>
   </cc:Work>
  </rdf:RDF>
 </metadata>
 <defs>
  <style type="text/css">*{stroke-linecap:butt;stroke-linejoin:round;}</style>
 </defs>
 <g id="figure_1">
  <g id="patch_1">
   <path d="M 0 345.6 
L 460.8 345.6 
L 460.8 0 
L 0 0 
z
" style="fill:#262626;"/>
  </g>
  <g id="axes_1">
   <g id="patch_2">
    <path d="M 57.6 119.740235 
L 414.72 119.740235 
L 414.72 41.472 
L 57.6 41.472 
z
" style="fill:#1a1a1a;"/>
   </g>
   <g id="matplotlib.axis_1">
    <g id="xtick_1">
     <g id="line2d_1">
      <defs>
       <path d="M 0 0 
L 0 3.5 
" id="m0511ebf05d" style="stroke:#ffffff;stroke-width:0.8;"/>
      </defs>
      <g>
       <use style="fill:#ffffff;stroke:#ffffff;stroke-width:0.8;" x="73.832727" xlink:href="#m0511ebf05d" y="119.740235"/>
      </g>
     </g>
     <g id="text_1">
      <!-- 0 -->
      <g style="fill:#ffffff;" transform="translate(71.052259 133.98711)scale(0.1 -0.1)">
       <defs>
        <path d="M 51.703125 34.421875 
Q 51.703125 24.515625 49.828125 17.75 
Q 47.953125 10.984375 44.703125 6.8125 
Q 41.453125 2.640625 37.0625 0.828125 
Q 32.671875 -0.984375 27.6875 -0.984375 
Q 22.65625 -0.984375 18.3125 0.828125 
Q 13.96875 2.640625 10.765625 6.78125 
Q 7.5625 10.9375 5.734375 17.703125 
Q 3.90625 24.46875 3.90625 34.421875 
Q 3.90625 44.828125 5.734375 51.640625 
Q 7.5625 58.453125 10.78125 62.5 
Q 14.015625 66.546875 18.40625 68.1875 
Q 22.796875 69.828125 27.984375 69.828125 
Q 32.90625 69.828125 37.21875 68.1875 
Q 41.546875 66.546875 44.765625 62.5 
Q 48 58.453125 49.84375 51.640625 
Q 51.703125 44.828125 51.703125 34.421875 
z
M 42.78125 34.421875 
Q 42.78125 42.625 41.796875 48.0625 
Q 40.828125 53.515625 38.921875 56.765625 
Q 37.015625 60.015625 34.25 61.359375 
Q 31.5 62.703125 27.984375 62.703125 
Q 24.265625 62.703125 21.4375 61.328125 
Q 18.609375 59.96875 16.671875 56.71875 
Q 14.75 53.46875 13.765625 48.015625 
Q 12.796875 42.578125 12.796875 34.421875 
Q 12.796875 26.515625 13.796875 21.09375 
Q 14.796875 15.671875 16.71875 12.375 
Q 18.65625 9.078125 21.4375 7.640625 
Q 24.21875 6.203125 27.78125 6.203125 
Q 31.25 6.203125 34.03125 7.640625 
Q 36.8125 9.078125 38.734375 12.375 
Q 40.671875 15.671875 41.71875 21.09375 
Q 42.78125 26.515625 42.78125 34.421875 
z
" id="LiberationSans-48"/>
       </defs>
       <use xlink:href="#LiberationSans-48"/>
      </g>
     </g>
    </g>
    <g id="xtick_2">
     <g id="line2d_2">
      <g>
       <use style="fill:#ffffff;stroke:#ffffff;stroke-width:0.8;" x="138.776625" xlink:href="#m0511ebf05d" y="119.740235"/>
      </g>
     </g>
     <g id="text_2">
      <!-- 200 -->
      <g style="fill:#ffffff;" transform="translate(130.435219 133.98711)scale(0.1 -0.1)">
       <defs>
        <path d="M 5.03125 0 
L 5.03125 6.203125 
Q 7.515625 11.921875 11.109375 16.28125 
Q 14.703125 20.65625 18.65625 24.1875 
Q 22.609375 27.734375 26.484375 30.765625 
Q 30.375 33.796875 33.5 36.8125 
Q 36.625 39.84375 38.546875 43.15625 
Q 40.484375 46.484375 40.484375 50.6875 
Q 40.484375 53.609375 39.59375 55.828125 
Q 38.71875 58.0625 37.0625 59.5625 
Q 35.40625 61.078125 33.078125 61.828125 
Q 30.765625 62.59375 27.9375 62.59375 
Q 25.296875 62.59375 22.96875 61.859375 
Q 20.65625 61.140625 18.84375 59.671875 
Q 17.046875 58.203125 15.890625 56.03125 
Q 14.75 53.859375 14.40625 50.984375 
L 5.421875 51.8125 
Q 5.859375 55.515625 7.46875 58.78125 
Q 9.078125 62.0625 11.90625 64.53125 
Q 14.75 67 18.71875 68.40625 
Q 22.703125 69.828125 27.9375 69.828125 
Q 33.0625 69.828125 37.0625 68.609375 
Q 41.0625 67.390625 43.8125 64.984375 
Q 46.578125 62.59375 48.046875 59.078125 
Q 49.515625 55.5625 49.515625 50.984375 
Q 49.515625 47.515625 48.265625 44.390625 
Q 47.015625 41.265625 44.9375 38.421875 
Q 42.875 35.59375 40.140625 32.953125 
Q 37.40625 30.328125 34.421875 27.8125 
Q 31.453125 25.296875 28.421875 22.828125 
Q 25.390625 20.359375 22.71875 17.859375 
Q 20.0625 15.375 17.96875 12.8125 
Q 15.875 10.25 14.703125 7.46875 
L 50.59375 7.46875 
L 50.59375 0 
z
" id="LiberationSans-50"/>
       </defs>
       <use xlink:href="#LiberationSans-50"/>
       <use x="55.615234" xlink:href="#LiberationSans-48"/>
       <use x="111.230469" xlink:href="#LiberationSans-48"/>
      </g>
     </g>
    </g>
    <g id="xtick_3">
     <g id="line2d_3">
      <g>
       <use style="fill:#ffffff;stroke:#ffffff;stroke-width:0.8;" x="203.720523" xlink:href="#m0511ebf05d" y="119.740235"/>
      </g>
     </g>
     <g id="text_3">
      <!-- 400 -->
      <g style="fill:#ffffff;" transform="translate(195.379117 133.98711)scale(0.1 -0.1)">
       <defs>
        <path d="M 43.015625 15.578125 
L 43.015625 0 
L 34.71875 0 
L 34.71875 15.578125 
L 2.296875 15.578125 
L 2.296875 22.40625 
L 33.796875 68.796875 
L 43.015625 68.796875 
L 43.015625 22.515625 
L 52.6875 22.515625 
L 52.6875 15.578125 
z
M 34.71875 58.890625 
Q 34.625 58.640625 34.234375 57.9375 
Q 33.84375 57.234375 33.34375 56.34375 
Q 32.859375 55.46875 32.34375 54.5625 
Q 31.84375 53.65625 31.453125 53.078125 
L 13.8125 27.09375 
Q 13.578125 26.703125 13.109375 26.0625 
Q 12.640625 25.4375 12.15625 24.78125 
Q 11.671875 24.125 11.171875 23.484375 
Q 10.6875 22.859375 10.40625 22.515625 
L 34.71875 22.515625 
z
" id="LiberationSans-52"/>
       </defs>
       <use xlink:href="#LiberationSans-52"/>
       <use x="55.615234" xlink:href="#LiberationSans-48"/>
       <use x="111.230469" xlink:href="#LiberationSans-48"/>
      </g>
     </g>
    </g>
    <g id="xtick_4">
     <g id="line2d_4">
      <g>
       <use style="fill:#ffffff;stroke:#ffffff;stroke-width:0.8;" x="268.664421" xlink:href="#m0511ebf05d" y="119.740235"/>
      </g>
     </g>
     <g id="text_4">
      <!-- 600 -->
      <g style="fill:#ffffff;" transform="translate(260.323015 133.98711)scale(0.1 -0.1)">
       <defs>
        <path d="M 51.21875 22.515625 
Q 51.21875 17.328125 49.78125 13 
Q 48.34375 8.6875 45.53125 5.578125 
Q 42.71875 2.484375 38.5625 0.75 
Q 34.421875 -0.984375 29 -0.984375 
Q 23 -0.984375 18.5 1.3125 
Q 14.015625 3.609375 11.03125 7.921875 
Q 8.0625 12.25 6.5625 18.53125 
Q 5.078125 24.8125 5.078125 32.8125 
Q 5.078125 42 6.765625 48.921875 
Q 8.453125 55.859375 11.625 60.5 
Q 14.796875 65.140625 19.359375 67.484375 
Q 23.921875 69.828125 29.6875 69.828125 
Q 33.203125 69.828125 36.28125 69.09375 
Q 39.359375 68.359375 41.875 66.71875 
Q 44.390625 65.09375 46.28125 62.40625 
Q 48.1875 59.71875 49.3125 55.8125 
L 40.921875 54.296875 
Q 39.546875 58.734375 36.546875 60.71875 
Q 33.546875 62.703125 29.59375 62.703125 
Q 25.984375 62.703125 23.046875 60.984375 
Q 20.125 59.28125 18.0625 55.875 
Q 16.015625 52.484375 14.90625 47.359375 
Q 13.8125 42.234375 13.8125 35.40625 
Q 16.21875 39.84375 20.5625 42.15625 
Q 24.90625 44.484375 30.515625 44.484375 
Q 35.203125 44.484375 39.015625 42.96875 
Q 42.828125 41.453125 45.53125 38.59375 
Q 48.25 35.75 49.734375 31.671875 
Q 51.21875 27.59375 51.21875 22.515625 
z
M 42.28125 22.125 
Q 42.28125 25.6875 41.40625 28.5625 
Q 40.53125 31.453125 38.765625 33.46875 
Q 37.015625 35.5 34.421875 36.59375 
Q 31.84375 37.703125 28.421875 37.703125 
Q 26.03125 37.703125 23.578125 36.984375 
Q 21.140625 36.28125 19.15625 34.6875 
Q 17.1875 33.109375 15.9375 30.515625 
Q 14.703125 27.9375 14.703125 24.21875 
Q 14.703125 20.40625 15.671875 17.109375 
Q 16.65625 13.8125 18.484375 11.375 
Q 20.3125 8.9375 22.890625 7.515625 
Q 25.484375 6.109375 28.71875 6.109375 
Q 31.890625 6.109375 34.40625 7.203125 
Q 36.921875 8.296875 38.671875 10.375 
Q 40.4375 12.453125 41.359375 15.421875 
Q 42.28125 18.40625 42.28125 22.125 
z
" id="LiberationSans-54"/>
       </defs>
       <use xlink:href="#LiberationSans-54"/>
       <use x="55.615234" xlink:href="#LiberationSans-48"/>
       <use x="111.230469" xlink:href="#LiberationSans-48"/>
      </g>
     </g>
    </g>
    <g id="xtick_5">
     <g id="line2d_5">
      <g>
       <use style="fill:#ffffff;stroke:#ffffff;stroke-width:0.8;" x="333.608319" xlink:href="#m0511ebf05d" y="119.740235"/>
      </g>
     </g>
     <g id="text_5">
      <!-- 800 -->
      <g style="fill:#ffffff;" transform="translate(325.266913 133.98711)scale(0.1 -0.1)">
       <defs>
        <path d="M 51.265625 19.1875 
Q 51.265625 14.796875 49.875 11.109375 
Q 48.484375 7.421875 45.625 4.734375 
Q 42.78125 2.046875 38.328125 0.53125 
Q 33.890625 -0.984375 27.828125 -0.984375 
Q 21.78125 -0.984375 17.359375 0.53125 
Q 12.9375 2.046875 10.03125 4.703125 
Q 7.125 7.375 5.734375 11.0625 
Q 4.34375 14.75 4.34375 19.09375 
Q 4.34375 22.859375 5.484375 25.78125 
Q 6.640625 28.71875 8.5625 30.828125 
Q 10.5 32.953125 12.96875 34.25 
Q 15.4375 35.546875 18.0625 35.984375 
L 18.0625 36.1875 
Q 15.1875 36.859375 12.90625 38.375 
Q 10.640625 39.890625 9.09375 42.015625 
Q 7.5625 44.140625 6.75 46.71875 
Q 5.953125 49.3125 5.953125 52.203125 
Q 5.953125 55.8125 7.34375 59 
Q 8.734375 62.203125 11.46875 64.625 
Q 14.203125 67.046875 18.25 68.4375 
Q 22.3125 69.828125 27.640625 69.828125 
Q 33.25 69.828125 37.375 68.40625 
Q 41.5 67 44.203125 64.578125 
Q 46.921875 62.15625 48.234375 58.9375 
Q 49.5625 55.71875 49.5625 52.09375 
Q 49.5625 49.265625 48.75 46.671875 
Q 47.953125 44.09375 46.40625 41.96875 
Q 44.875 39.84375 42.59375 38.34375 
Q 40.328125 36.859375 37.359375 36.28125 
L 37.359375 36.078125 
Q 40.328125 35.59375 42.859375 34.296875 
Q 45.40625 33.015625 47.265625 30.890625 
Q 49.125 28.765625 50.1875 25.828125 
Q 51.265625 22.90625 51.265625 19.1875 
z
M 40.4375 51.609375 
Q 40.4375 54.203125 39.765625 56.34375 
Q 39.109375 58.5 37.59375 60.03125 
Q 36.078125 61.578125 33.640625 62.421875 
Q 31.203125 63.28125 27.640625 63.28125 
Q 24.171875 63.28125 21.78125 62.421875 
Q 19.390625 61.578125 17.84375 60.03125 
Q 16.3125 58.5 15.625 56.34375 
Q 14.9375 54.203125 14.9375 51.609375 
Q 14.9375 49.5625 15.46875 47.40625 
Q 16.015625 45.265625 17.421875 43.5 
Q 18.84375 41.75 21.328125 40.625 
Q 23.828125 39.5 27.734375 39.5 
Q 31.890625 39.5 34.40625 40.625 
Q 36.921875 41.75 38.25 43.5 
Q 39.59375 45.265625 40.015625 47.40625 
Q 40.4375 49.5625 40.4375 51.609375 
z
M 42.140625 20.015625 
Q 42.140625 22.515625 41.453125 24.828125 
Q 40.765625 27.15625 39.109375 28.9375 
Q 37.453125 30.71875 34.640625 31.8125 
Q 31.84375 32.90625 27.640625 32.90625 
Q 23.78125 32.90625 21.0625 31.8125 
Q 18.359375 30.71875 16.671875 28.90625 
Q 14.984375 27.09375 14.203125 24.71875 
Q 13.421875 22.359375 13.421875 19.828125 
Q 13.421875 16.65625 14.203125 14.03125 
Q 14.984375 11.421875 16.6875 9.546875 
Q 18.40625 7.671875 21.1875 6.640625 
Q 23.96875 5.609375 27.9375 5.609375 
Q 31.9375 5.609375 34.671875 6.640625 
Q 37.40625 7.671875 39.0625 9.546875 
Q 40.71875 11.421875 41.421875 14.078125 
Q 42.140625 16.75 42.140625 20.015625 
z
" id="LiberationSans-56"/>
       </defs>
       <use xlink:href="#LiberationSans-56"/>
       <use x="55.615234" xlink:href="#LiberationSans-48"/>
       <use x="111.230469" xlink:href="#LiberationSans-48"/>
      </g>
     </g>
    </g>
    <g id="xtick_6">
     <g id="line2d_6">
      <g>
       <use style="fill:#ffffff;stroke:#ffffff;stroke-width:0.8;" x="398.552217" xlink:href="#m0511ebf05d" y="119.740235"/>
      </g>
     </g>
     <g id="text_6">
      <!-- 1000 -->
      <g style="fill:#ffffff;" transform="translate(387.430342 133.98711)scale(0.1 -0.1)">
       <defs>
        <path d="M 7.625 0 
L 7.625 7.46875 
L 25.140625 7.46875 
L 25.140625 60.40625 
L 9.625 49.3125 
L 9.625 57.625 
L 25.875 68.796875 
L 33.984375 68.796875 
L 33.984375 7.46875 
L 50.734375 7.46875 
L 50.734375 0 
z
" id="LiberationSans-49"/>
       </defs>
       <use xlink:href="#LiberationSans-49"/>
       <use x="55.615234" xlink:href="#LiberationSans-48"/>
       <use x="111.230469" xlink:href="#LiberationSans-48"/>
       <use x="166.845703" xlink:href="#LiberationSans-48"/>
      </g>
     </g>
    </g>
   </g>
   <g id="matplotlib.axis_2">
    <g id="ytick_1">
     <g id="line2d_7">
      <defs>
       <path d="M 0 0 
L -3.5 0 
" id="m1b73baf85d" style="stroke:#ffffff;stroke-width:0.8;"/>
      </defs>
      <g>
       <use style="fill:#ffffff;stroke:#ffffff;stroke-width:0.8;" x="57.6" xlink:href="#m1b73baf85d" y="119.740235"/>
      </g>
     </g>
     <g id="text_7">
      <!-- −1 -->
      <g style="fill:#ffffff;" transform="translate(39.198437 123.363673)scale(0.1 -0.1)">
       <defs>
        <path d="M 4.9375 29.6875 
L 4.9375 36.8125 
L 53.515625 36.8125 
L 53.515625 29.6875 
z
" id="LiberationSans-8722"/>
       </defs>
       <use xlink:href="#LiberationSans-8722"/>
       <use x="58.398438" xlink:href="#LiberationSans-49"/>
      </g>
     </g>
    </g>
    <g id="ytick_2">
     <g id="line2d_8">
      <g>
       <use style="fill:#ffffff;stroke:#ffffff;stroke-width:0.8;" x="57.6" xlink:href="#m1b73baf85d" y="80.606118"/>
      </g>
     </g>
     <g id="text_8">
      <!-- 0 -->
      <g style="fill:#ffffff;" transform="translate(45.039062 84.229555)scale(0.1 -0.1)">
       <use xlink:href="#LiberationSans-48"/>
      </g>
     </g>
    </g>
    <g id="ytick_3">
     <g id="line2d_9">
      <g>
       <use style="fill:#ffffff;stroke:#ffffff;stroke-width:0.8;" x="57.6" xlink:href="#m1b73baf85d" y="41.472"/>
      </g>
     </g>
     <g id="text_9">
      <!-- 1 -->
      <g style="fill:#ffffff;" transform="translate(45.039062 45.095438)scale(0.1 -0.1)">
       <use xlink:href="#LiberationSans-49"/>
      </g>
     </g>
    </g>
    <g id="text_10">
     <!-- $u$ -->
     <g style="fill:#ffffff;" transform="translate(33.123437 83.806118)rotate(-90)scale(0.1 -0.1)">
      <defs>
       <path d="M 6.6875 21.6875 
L 13.09375 54.6875 
L 22.125 54.6875 
L 15.71875 22.015625 
Q 15.234375 19.625 15.015625 17.921875 
Q 14.796875 16.21875 14.796875 15.09375 
Q 14.796875 10.9375 17.328125 8.65625 
Q 19.875 6.390625 24.515625 6.390625 
Q 31.734375 6.390625 37 11.265625 
Q 42.28125 16.15625 43.890625 24.421875 
L 49.90625 54.6875 
L 58.890625 54.6875 
L 48.296875 0 
L 39.3125 0 
L 41.109375 8.59375 
Q 37.3125 3.8125 32.0625 1.1875 
Q 26.8125 -1.421875 20.90625 -1.421875 
Q 13.71875 -1.421875 9.71875 2.515625 
Q 5.71875 6.453125 5.71875 13.484375 
Q 5.71875 14.9375 5.953125 17.140625 
Q 6.203125 19.34375 6.6875 21.6875 
z
" id="DejaVuSans-Oblique-117"/>
      </defs>
      <use transform="translate(0 0.3125)" xlink:href="#DejaVuSans-Oblique-117"/>
     </g>
    </g>
   </g>
   <g id="line2d_10">
    <path clip-path="url(#pfed14a8c74)" d="M 73.832727 66.526859 
L 75.001717 63.84321 
L 75.066661 87.621462 
L 75.131605 87.249467 
L 76.365539 80.844562 
L 77.599473 75.547968 
L 78.833407 71.1679 
L 80.132285 67.373525 
L 81.431163 64.266953 
L 82.340378 62.433877 
L 82.405322 86.226153 
L 82.470266 85.868041 
L 83.7042 79.702179 
L 84.223751 77.436684 
L 84.288695 101.079679 
L 84.353639 100.573772 
L 85.587573 91.863218 
L 86.821507 84.659946 
L 88.055441 78.703134 
L 89.289375 73.777094 
L 90.523309 69.70346 
L 91.497467 66.991748 
L 91.562411 90.738671 
L 91.627355 90.335659 
L 92.861289 83.396717 
L 94.095223 77.658495 
L 95.329157 72.91322 
L 96.563092 68.989072 
L 97.53725 66.376868 
L 97.602194 90.12991 
L 97.667138 89.732956 
L 98.901072 82.898306 
L 100.135006 77.246329 
L 101.36894 72.572376 
L 102.667818 68.523413 
L 103.966696 65.208402 
L 105.265574 62.4943 
L 105.330518 86.285974 
L 105.395462 85.927267 
L 106.629396 79.751157 
L 107.86333 74.643766 
L 109.097264 70.420163 
L 109.421983 69.435752 
L 109.486927 93.158357 
L 109.551871 92.731269 
L 110.785805 85.377788 
L 112.019739 79.29676 
L 112.409403 77.604372 
L 112.474347 101.245699 
L 112.53929 100.73814 
L 113.773224 91.999143 
L 115.007159 84.77235 
L 116.241093 78.796088 
L 117.475027 73.853963 
L 118.708961 69.767028 
L 120.007839 66.226588 
L 121.306717 63.32792 
L 121.501548 62.940985 
L 121.566492 86.728214 
L 121.631436 86.365107 
L 122.86537 80.113233 
L 124.099304 74.943188 
L 124.813687 72.369505 
L 124.878631 96.062919 
L 124.943575 95.60693 
L 126.177509 87.755842 
L 127.411443 81.263314 
L 128.645377 75.894258 
L 129.879311 71.454268 
L 130.333918 70.019758 
L 130.398862 93.736552 
L 130.463806 93.303711 
L 131.69774 85.851174 
L 132.931674 79.688231 
L 134.165608 74.591729 
L 135.399542 70.37713 
L 136.69842 66.726097 
L 137.997298 63.736884 
L 138.127186 63.469542 
L 138.19213 87.251512 
L 138.257074 86.883198 
L 139.491008 80.541672 
L 140.724942 75.29749 
L 141.958876 70.960766 
L 143.257754 67.203937 
L 144.491688 64.267728 
L 144.556632 88.041756 
L 144.621576 87.665579 
L 145.85551 81.18867 
L 147.089444 75.832531 
L 148.323378 71.403222 
L 149.622256 67.56619 
L 150.791246 64.711332 
L 150.85619 88.480946 
L 150.921134 88.100399 
L 152.155068 81.548248 
L 153.389002 76.129887 
L 154.622936 71.649124 
L 155.921814 67.767518 
L 157.220692 64.589527 
L 158.51957 61.987609 
L 159.428785 60.45231 
L 159.493729 84.264303 
L 159.558672 83.925712 
L 160.792607 78.095952 
L 162.026541 73.274979 
L 163.260475 69.288232 
L 164.559353 65.834583 
L 164.884072 65.073813 
L 164.949016 88.839821 
L 165.01396 88.455703 
L 166.247894 81.84207 
L 167.481828 76.372865 
L 168.715762 71.850057 
L 170.01464 67.932028 
L 171.313518 64.724217 
L 171.768125 63.744699 
L 171.833069 87.523932 
L 171.898013 87.152907 
L 173.131947 80.764711 
L 174.365881 75.481934 
L 175.599815 71.113293 
L 176.898693 67.328816 
L 178.197571 64.230349 
L 179.236674 62.161144 
L 179.301617 85.956133 
L 179.366561 85.600708 
L 180.600495 79.481106 
L 181.834429 74.420445 
L 182.938476 70.639509 
L 183.00342 94.350137 
L 183.068363 93.91119 
L 184.302298 86.353535 
L 185.536232 80.103663 
L 186.770166 74.935274 
L 188.0041 70.661228 
L 189.17309 67.296525 
L 189.238034 91.040416 
L 189.302978 90.634401 
L 190.536912 83.643765 
L 191.770846 77.862794 
L 193.00478 73.082167 
L 194.238714 69.128784 
L 194.628377 68.028533 
L 194.693321 91.76514 
L 194.758265 91.351915 
L 195.992199 84.237119 
L 197.226133 78.353473 
L 198.460067 73.487939 
L 199.694001 69.464341 
L 200.018721 68.526546 
L 200.083665 92.258198 
L 200.148609 91.840066 
L 201.382543 84.6408 
L 202.616477 78.687301 
L 203.850411 73.764001 
L 205.084345 69.692633 
L 206.383223 66.165678 
L 207.682101 63.278052 
L 208.980979 60.913863 
L 209.50053 60.092882 
L 209.565474 83.908451 
L 209.630418 83.573401 
L 210.864352 77.804606 
L 212.098286 73.034048 
L 213.33222 69.088991 
L 214.306378 66.46287 
L 214.371322 90.215056 
L 214.436266 89.817254 
L 215.6702 82.968017 
L 216.904134 77.303978 
L 218.138068 72.620049 
L 218.722563 70.693449 
L 218.787507 94.40354 
L 218.852451 93.964062 
L 220.086385 86.397258 
L 221.320319 80.13982 
L 222.554253 74.965175 
L 223.788187 70.685954 
L 225.087065 66.978941 
L 226.385943 63.943895 
L 227.684821 61.45901 
L 228.918755 59.516908 
L 228.983699 83.338208 
L 229.048643 83.008831 
L 230.282577 77.33773 
L 231.191792 73.797065 
L 231.32168 66.88692 
L 232.295838 64.567529 
L 232.360782 88.338574 
L 232.425726 87.959444 
L 233.65966 81.431684 
L 234.893594 76.033493 
L 236.127528 71.56941 
L 237.426406 67.702253 
L 238.725284 64.536093 
L 239.439667 63.046474 
L 239.504611 86.832654 
L 239.569555 86.468507 
L 240.803489 80.19874 
L 242.037423 75.013899 
L 243.271357 70.726248 
L 244.570235 67.01193 
L 245.349562 65.114875 
L 245.414505 88.880474 
L 245.479449 88.495951 
L 246.713383 81.875353 
L 247.947317 76.40039 
L 249.181252 71.872819 
L 250.480129 67.950663 
L 251.194512 66.105362 
L 251.259456 89.861106 
L 251.3244 89.466826 
L 252.558334 82.678227 
L 253.792268 77.064334 
L 255.026202 72.421873 
L 255.091146 72.201116 
L 255.15609 95.896206 
L 255.221034 95.441876 
L 256.454968 87.619349 
L 257.688902 81.15044 
L 258.922836 75.800916 
L 260.15677 71.377078 
L 261.455648 67.544785 
L 262.234975 65.587474 
L 262.299919 89.348371 
L 262.364863 88.959193 
L 263.598797 82.258435 
L 264.832731 76.717183 
L 266.066665 72.134794 
L 267.365543 68.16515 
L 268.664421 64.915081 
L 269.963299 62.25415 
L 270.028243 62.134563 
L 270.093187 85.929817 
L 270.158131 85.574654 
L 271.392065 79.45956 
L 272.625999 74.402627 
L 273.859933 70.220751 
L 274.963979 67.096375 
L 275.028923 90.842257 
L 275.093867 90.438215 
L 276.068025 84.838316 
L 276.197913 77.70954 
L 277.431847 72.955432 
L 277.886454 71.419434 
L 277.951398 95.122301 
L 278.016342 94.675672 
L 279.250276 86.98573 
L 280.48421 80.626462 
L 281.718144 75.367608 
L 282.952078 71.01875 
L 284.250956 67.251411 
L 285.355003 64.591247 
L 285.419947 88.362056 
L 285.48489 87.982692 
L 286.718824 81.450909 
L 287.952759 76.049392 
L 289.186693 71.582558 
L 290.160851 68.609102 
L 290.225795 92.339933 
L 290.290739 91.920988 
L 291.524673 84.707719 
L 292.758607 78.74264 
L 293.992541 73.809764 
L 295.226475 69.730477 
L 296.525353 66.196662 
L 297.759287 63.434753 
L 297.824231 87.217069 
L 297.889175 86.849098 
L 299.123109 80.513473 
L 300.357043 75.274171 
L 301.071426 72.66601 
L 301.201314 65.778262 
L 301.266258 89.53726 
L 301.331202 89.146202 
L 302.565136 82.413085 
L 303.79907 76.845071 
L 305.033004 72.240552 
L 305.81233 69.752246 
L 305.877274 93.471702 
L 305.942218 93.041496 
L 307.176152 85.634334 
L 308.410086 79.508913 
L 309.64402 74.44344 
L 310.877954 70.254501 
L 311.917057 67.294588 
L 311.982001 91.038498 
L 312.046945 90.632503 
L 313.280879 83.642195 
L 314.514813 77.861495 
L 315.748747 73.081093 
L 316.982681 69.127896 
L 317.762008 66.991568 
L 317.826952 90.738493 
L 317.891895 90.335483 
L 319.12583 83.396571 
L 320.359764 77.658375 
L 321.593698 72.913121 
L 322.827632 68.98899 
L 324.12651 65.589584 
L 325.165612 63.319408 
L 325.230556 87.102872 
L 325.2955 86.736037 
L 326.529434 80.419976 
L 327.763368 75.196852 
L 328.997302 70.877542 
L 329.516853 69.290517 
L 329.581797 93.014568 
L 329.646741 92.58891 
L 330.880675 85.260063 
L 332.114609 79.199407 
L 333.348543 74.187491 
L 334.582477 70.042842 
L 335.881355 66.452405 
L 337.180233 63.512804 
L 337.829672 62.249315 
L 337.894616 86.043426 
L 337.95956 85.687133 
L 339.193494 79.552576 
L 340.427428 74.479547 
L 341.661362 70.28436 
L 342.895296 66.815112 
L 342.96024 90.563793 
L 343.025184 90.162522 
L 343.869455 85.295252 
L 343.999342 78.157428 
L 345.233276 73.325817 
L 346.467211 69.330273 
L 347.11665 67.513178 
L 347.181593 91.254914 
L 347.246537 90.846765 
L 348.480471 83.81938 
L 349.714405 78.008021 
L 350.948339 73.202264 
L 352.182274 69.228099 
L 352.312161 68.852023 
L 352.377105 92.580437 
L 352.442049 92.159099 
L 353.675983 84.904627 
L 354.909917 78.905475 
L 356.143851 73.944422 
L 357.377785 69.841833 
L 358.676663 66.287833 
L 359.45599 64.472658 
L 359.520934 88.244647 
L 359.585878 87.866451 
L 360.819812 81.354783 
L 362.053746 75.969899 
L 363.28768 71.51682 
L 364.002063 69.300048 
L 364.067007 93.024003 
L 364.131951 92.598252 
L 365.365885 85.267789 
L 366.599819 79.205795 
L 367.833753 74.192774 
L 369.067687 70.047211 
L 369.132631 69.850082 
L 369.197575 93.568565 
L 369.262519 93.137395 
L 370.496453 85.713638 
L 371.730387 79.574494 
L 372.964321 74.497673 
L 374.198255 70.29935 
L 374.587918 69.13093 
L 374.652862 92.856569 
L 374.717806 92.432483 
L 375.95174 85.130705 
L 377.185674 79.092432 
L 378.419608 74.099028 
L 379.653542 69.969686 
L 380.95242 66.39251 
L 382.251298 63.463766 
L 382.900737 62.204944 
L 382.965681 85.999497 
L 383.030625 85.64364 
L 384.264559 79.516609 
L 385.498493 74.449805 
L 386.732427 70.259764 
L 388.031305 66.630006 
L 388.356025 65.830443 
L 388.420969 89.588922 
L 388.485912 89.197351 
L 389.719847 82.455382 
L 390.953781 76.88005 
L 392.187715 72.269478 
L 393.291761 68.824814 
L 393.356705 92.553498 
L 393.421649 92.132428 
L 394.655583 84.882571 
L 395.889517 78.887236 
L 397.123451 73.929339 
L 398.357385 69.82936 
L 398.487273 69.441379 
L 398.487273 69.441379 
" style="fill:none;stroke:#9a72ac;stroke-linecap:round;stroke-width:1.5;"/>
   </g>
   <g id="patch_3">
    <path d="M 57.6 119.740235 
L 57.6 41.472 
" style="fill:none;stroke:#ffffff;stroke-linecap:square;stroke-linejoin:miter;stroke-width:0.8;"/>
   </g>
   <g id="patch_4">
    <path d="M 414.72 119.740235 
L 414.72 41.472 
" style="fill:none;stroke:#ffffff;stroke-linecap:square;stroke-linejoin:miter;stroke-width:0.8;"/>
   </g>
   <g id="patch_5">
    <path d="M 57.6 119.740235 
L 414.72 119.740235 
" style="fill:none;stroke:#ffffff;stroke-linecap:square;stroke-linejoin:miter;stroke-width:0.8;"/>
   </g>
   <g id="patch_6">
    <path d="M 57.6 41.472 
L 414.72 41.472 
" style="fill:none;stroke:#ffffff;stroke-linecap:square;stroke-linejoin:miter;stroke-width:0.8;"/>
   </g>
  </g>
  <g id="axes_2">
   <g id="patch_7">
    <path d="M 57.6 213.662118 
L 414.72 213.662118 
L 414.72 135.393882 
L 57.6 135.393882 
z
" style="fill:#1a1a1a;"/>
   </g>
   <g id="matplotlib.axis_3">
    <g id="xtick_7">
     <g id="line2d_11">
      <g>
       <use style="fill:#ffffff;stroke:#ffffff;stroke-width:0.8;" x="73.832727" xlink:href="#m0511ebf05d" y="213.662118"/>
      </g>
     </g>
     <g id="text_11">
      <!-- 0 -->
      <g style="fill:#ffffff;" transform="translate(71.052259 227.908993)scale(0.1 -0.1)">
       <use xlink:href="#LiberationSans-48"/>
      </g>
     </g>
    </g>
    <g id="xtick_8">
     <g id="line2d_12">
      <g>
       <use style="fill:#ffffff;stroke:#ffffff;stroke-width:0.8;" x="138.776625" xlink:href="#m0511ebf05d" y="213.662118"/>
      </g>
     </g>
     <g id="text_12">
      <!-- 200 -->
      <g style="fill:#ffffff;" transform="translate(130.435219 227.908993)scale(0.1 -0.1)">
       <use xlink:href="#LiberationSans-50"/>
       <use x="55.615234" xlink:href="#LiberationSans-48"/>
       <use x="111.230469" xlink:href="#LiberationSans-48"/>
      </g>
     </g>
    </g>
    <g id="xtick_9">
     <g id="line2d_13">
      <g>
       <use style="fill:#ffffff;stroke:#ffffff;stroke-width:0.8;" x="203.720523" xlink:href="#m0511ebf05d" y="213.662118"/>
      </g>
     </g>
     <g id="text_13">
      <!-- 400 -->
      <g style="fill:#ffffff;" transform="translate(195.379117 227.908993)scale(0.1 -0.1)">
       <use xlink:href="#LiberationSans-52"/>
       <use x="55.615234" xlink:href="#LiberationSans-48"/>
       <use x="111.230469" xlink:href="#LiberationSans-48"/>
      </g>
     </g>
    </g>
    <g id="xtick_10">
     <g id="line2d_14">
      <g>
       <use style="fill:#ffffff;stroke:#ffffff;stroke-width:0.8;" x="268.664421" xlink:href="#m0511ebf05d" y="213.662118"/>
      </g>
     </g>
     <g id="text_14">
      <!-- 600 -->
      <g style="fill:#ffffff;" transform="translate(260.323015 227.908993)scale(0.1 -0.1)">
       <use xlink:href="#LiberationSans-54"/>
       <use x="55.615234" xlink:href="#LiberationSans-48"/>
       <use x="111.230469" xlink:href="#LiberationSans-48"/>
      </g>
     </g>
    </g>
    <g id="xtick_11">
     <g id="line2d_15">
      <g>
       <use style="fill:#ffffff;stroke:#ffffff;stroke-width:0.8;" x="333.608319" xlink:href="#m0511ebf05d" y="213.662118"/>
      </g>
     </g>
     <g id="text_15">
      <!-- 800 -->
      <g style="fill:#ffffff;" transform="translate(325.266913 227.908993)scale(0.1 -0.1)">
       <use xlink:href="#LiberationSans-56"/>
       <use x="55.615234" xlink:href="#LiberationSans-48"/>
       <use x="111.230469" xlink:href="#LiberationSans-48"/>
      </g>
     </g>
    </g>
    <g id="xtick_12">
     <g id="line2d_16">
      <g>
       <use style="fill:#ffffff;stroke:#ffffff;stroke-width:0.8;" x="398.552217" xlink:href="#m0511ebf05d" y="213.662118"/>
      </g>
     </g>
     <g id="text_16">
      <!-- 1000 -->
      <g style="fill:#ffffff;" transform="translate(387.430342 227.908993)scale(0.1 -0.1)">
       <use xlink:href="#LiberationSans-49"/>
       <use x="55.615234" xlink:href="#LiberationSans-48"/>
       <use x="111.230469" xlink:href="#LiberationSans-48"/>
       <use x="166.845703" xlink:href="#LiberationSans-48"/>
      </g>
     </g>
    </g>
    <g id="text_17">
     <!-- $t$ (ms) -->
     <g style="fill:#ffffff;" transform="translate(222.81 241.283993)scale(0.1 -0.1)">
      <defs>
       <path d="M 42.28125 54.6875 
L 40.921875 47.703125 
L 23 47.703125 
L 17.1875 18.015625 
Q 16.890625 16.359375 16.75 15.234375 
Q 16.609375 14.109375 16.609375 13.484375 
Q 16.609375 10.359375 18.484375 8.9375 
Q 20.359375 7.515625 24.515625 7.515625 
L 33.59375 7.515625 
L 32.078125 0 
L 23.484375 0 
Q 15.484375 0 11.546875 3.125 
Q 7.625 6.25 7.625 12.59375 
Q 7.625 13.71875 7.765625 15.0625 
Q 7.90625 16.40625 8.203125 18.015625 
L 14.015625 47.703125 
L 6.390625 47.703125 
L 7.8125 54.6875 
L 15.28125 54.6875 
L 18.3125 70.21875 
L 27.296875 70.21875 
L 24.3125 54.6875 
z
" id="DejaVuSans-Oblique-116"/>
       <path id="LiberationSans-32"/>
       <path d="M 6.203125 25.984375 
Q 6.203125 32.765625 7.21875 38.96875 
Q 8.25 45.171875 10.4375 50.875 
Q 12.640625 56.59375 16.0625 61.953125 
Q 19.484375 67.328125 24.21875 72.46875 
L 32.71875 72.46875 
Q 28.125 67.328125 24.78125 61.9375 
Q 21.4375 56.546875 19.28125 50.796875 
Q 17.140625 45.0625 16.09375 38.859375 
Q 15.046875 32.671875 15.046875 25.875 
Q 15.046875 19.09375 16.09375 12.890625 
Q 17.140625 6.6875 19.28125 0.921875 
Q 21.4375 -4.828125 24.78125 -10.203125 
Q 28.125 -15.578125 32.71875 -20.703125 
L 24.21875 -20.703125 
Q 19.484375 -15.578125 16.0625 -10.203125 
Q 12.640625 -4.828125 10.4375 0.875 
Q 8.25 6.59375 7.21875 12.765625 
Q 6.203125 18.953125 6.203125 25.78125 
z
" id="LiberationSans-40"/>
       <path d="M 37.5 0 
L 37.5 33.5 
Q 37.5 37.359375 37.015625 39.9375 
Q 36.53125 42.53125 35.375 44.109375 
Q 34.234375 45.703125 32.375 46.359375 
Q 30.515625 47.015625 27.828125 47.015625 
Q 25.046875 47.015625 22.796875 45.921875 
Q 20.5625 44.828125 18.96875 42.75 
Q 17.390625 40.671875 16.53125 37.625 
Q 15.671875 34.578125 15.671875 30.609375 
L 15.671875 0 
L 6.9375 0 
L 6.9375 41.546875 
Q 6.9375 43.21875 6.90625 45.046875 
Q 6.890625 46.875 6.828125 48.5 
Q 6.78125 50.140625 6.734375 51.3125 
Q 6.6875 52.484375 6.640625 52.828125 
L 14.9375 52.828125 
Q 14.984375 52.59375 15.03125 51.515625 
Q 15.09375 50.4375 15.15625 49.046875 
Q 15.234375 47.65625 15.28125 46.21875 
Q 15.328125 44.78125 15.328125 43.796875 
L 15.484375 43.796875 
Q 16.65625 46.09375 18.015625 47.953125 
Q 19.390625 49.8125 21.21875 51.09375 
Q 23.046875 52.390625 25.40625 53.09375 
Q 27.78125 53.8125 30.90625 53.8125 
Q 36.921875 53.8125 40.40625 51.421875 
Q 43.890625 49.03125 45.265625 43.796875 
L 45.40625 43.796875 
Q 46.578125 46.09375 48.046875 47.953125 
Q 49.515625 49.8125 51.46875 51.09375 
Q 53.421875 52.390625 55.859375 53.09375 
Q 58.296875 53.8125 61.421875 53.8125 
Q 65.4375 53.8125 68.328125 52.734375 
Q 71.234375 51.65625 73.09375 49.40625 
Q 74.953125 47.171875 75.828125 43.625 
Q 76.703125 40.09375 76.703125 35.203125 
L 76.703125 0 
L 68.015625 0 
L 68.015625 33.5 
Q 68.015625 37.359375 67.53125 39.9375 
Q 67.046875 42.53125 65.890625 44.109375 
Q 64.75 45.703125 62.890625 46.359375 
Q 61.03125 47.015625 58.34375 47.015625 
Q 55.5625 47.015625 53.3125 45.96875 
Q 51.078125 44.921875 49.484375 42.875 
Q 47.90625 40.828125 47.046875 37.75 
Q 46.1875 34.671875 46.1875 30.609375 
L 46.1875 0 
z
" id="LiberationSans-109"/>
       <path d="M 46.390625 14.59375 
Q 46.390625 10.890625 44.9375 7.984375 
Q 43.5 5.078125 40.765625 3.09375 
Q 38.03125 1.125 34.046875 0.0625 
Q 30.078125 -0.984375 24.953125 -0.984375 
Q 20.359375 -0.984375 16.671875 -0.265625 
Q 12.984375 0.4375 10.203125 2 
Q 7.421875 3.5625 5.53125 6.125 
Q 3.65625 8.6875 2.78125 12.40625 
L 10.546875 13.921875 
Q 11.671875 9.671875 15.1875 7.6875 
Q 18.703125 5.71875 24.953125 5.71875 
Q 27.78125 5.71875 30.140625 6.109375 
Q 32.515625 6.5 34.21875 7.453125 
Q 35.9375 8.40625 36.890625 9.984375 
Q 37.84375 11.578125 37.84375 13.921875 
Q 37.84375 16.3125 36.71875 17.84375 
Q 35.59375 19.390625 33.59375 20.40625 
Q 31.59375 21.4375 28.734375 22.1875 
Q 25.875 22.953125 22.46875 23.875 
Q 19.28125 24.703125 16.15625 25.734375 
Q 13.03125 26.765625 10.515625 28.4375 
Q 8.015625 30.125 6.453125 32.609375 
Q 4.890625 35.109375 4.890625 38.875 
Q 4.890625 46.09375 10.03125 49.875 
Q 15.1875 53.65625 25.046875 53.65625 
Q 33.796875 53.65625 38.9375 50.578125 
Q 44.09375 47.515625 45.453125 40.71875 
L 37.546875 39.75 
Q 37.109375 41.796875 35.9375 43.1875 
Q 34.765625 44.578125 33.109375 45.4375 
Q 31.453125 46.296875 29.375 46.65625 
Q 27.296875 47.015625 25.046875 47.015625 
Q 19.09375 47.015625 16.25 45.203125 
Q 13.421875 43.40625 13.421875 39.75 
Q 13.421875 37.59375 14.46875 36.203125 
Q 15.53125 34.8125 17.40625 33.859375 
Q 19.28125 32.90625 21.921875 32.203125 
Q 24.5625 31.5 27.734375 30.71875 
Q 29.828125 30.171875 32.03125 29.5625 
Q 34.234375 28.953125 36.296875 28.09375 
Q 38.375 27.25 40.203125 26.09375 
Q 42.046875 24.953125 43.40625 23.34375 
Q 44.78125 21.734375 45.578125 19.578125 
Q 46.390625 17.4375 46.390625 14.59375 
z
" id="LiberationSans-115"/>
       <path d="M 27.09375 25.78125 
Q 27.09375 18.953125 26.0625 12.765625 
Q 25.046875 6.59375 22.84375 0.875 
Q 20.65625 -4.828125 17.234375 -10.203125 
Q 13.8125 -15.578125 9.078125 -20.703125 
L 0.59375 -20.703125 
Q 5.171875 -15.578125 8.515625 -10.203125 
Q 11.859375 -4.828125 14 0.921875 
Q 16.15625 6.6875 17.203125 12.890625 
Q 18.265625 19.09375 18.265625 25.875 
Q 18.265625 32.671875 17.203125 38.859375 
Q 16.15625 45.0625 14 50.796875 
Q 11.859375 56.546875 8.515625 61.9375 
Q 5.171875 67.328125 0.59375 72.46875 
L 9.078125 72.46875 
Q 13.8125 67.328125 17.234375 61.953125 
Q 20.65625 56.59375 22.84375 50.875 
Q 25.046875 45.171875 26.0625 38.96875 
Q 27.09375 32.765625 27.09375 25.984375 
z
" id="LiberationSans-41"/>
      </defs>
      <use transform="translate(0 0.53125)" xlink:href="#DejaVuSans-Oblique-116"/>
      <use transform="translate(39.208984 0.53125)" xlink:href="#LiberationSans-32"/>
      <use transform="translate(66.992188 0.53125)" xlink:href="#LiberationSans-40"/>
      <use transform="translate(100.292969 0.53125)" xlink:href="#LiberationSans-109"/>
      <use transform="translate(183.59375 0.53125)" xlink:href="#LiberationSans-115"/>
      <use transform="translate(233.59375 0.53125)" xlink:href="#LiberationSans-41"/>
     </g>
    </g>
   </g>
   <g id="matplotlib.axis_4">
    <g id="ytick_4">
     <g id="line2d_17">
      <g>
       <use style="fill:#ffffff;stroke:#ffffff;stroke-width:0.8;" x="57.6" xlink:href="#m1b73baf85d" y="213.662118"/>
      </g>
     </g>
     <g id="text_18">
      <!-- −1 -->
      <g style="fill:#ffffff;" transform="translate(39.198437 217.285555)scale(0.1 -0.1)">
       <use xlink:href="#LiberationSans-8722"/>
       <use x="58.398438" xlink:href="#LiberationSans-49"/>
      </g>
     </g>
    </g>
    <g id="ytick_5">
     <g id="line2d_18">
      <g>
       <use style="fill:#ffffff;stroke:#ffffff;stroke-width:0.8;" x="57.6" xlink:href="#m1b73baf85d" y="174.528"/>
      </g>
     </g>
     <g id="text_19">
      <!-- 0 -->
      <g style="fill:#ffffff;" transform="translate(45.039062 178.151437)scale(0.1 -0.1)">
       <use xlink:href="#LiberationSans-48"/>
      </g>
     </g>
    </g>
    <g id="ytick_6">
     <g id="line2d_19">
      <g>
       <use style="fill:#ffffff;stroke:#ffffff;stroke-width:0.8;" x="57.6" xlink:href="#m1b73baf85d" y="135.393882"/>
      </g>
     </g>
     <g id="text_20">
      <!-- 1 -->
      <g style="fill:#ffffff;" transform="translate(45.039062 139.01732)scale(0.1 -0.1)">
       <use xlink:href="#LiberationSans-49"/>
      </g>
     </g>
    </g>
    <g id="text_21">
     <!-- $u$ -->
     <g style="fill:#ffffff;" transform="translate(33.123437 177.728)rotate(-90)scale(0.1 -0.1)">
      <use transform="translate(0 0.3125)" xlink:href="#DejaVuSans-Oblique-117"/>
     </g>
    </g>
   </g>
   <g id="line2d_20">
    <path clip-path="url(#p4806e33e5d)" d="M 73.832727 174.371617 
L 75.001717 175.058663 
L 75.066661 168.58497 
L 75.131605 168.684047 
L 76.495427 170.551367 
L 77.924193 172.129439 
L 79.417902 173.447079 
L 81.0415 174.574152 
L 82.340378 175.293466 
L 82.405322 168.817437 
L 82.470266 168.914201 
L 83.834088 170.737927 
L 84.223751 171.192422 
L 84.288695 164.757198 
L 84.353639 164.894363 
L 85.652517 167.368325 
L 87.016339 169.484864 
L 88.38016 171.200497 
L 89.808926 172.650377 
L 91.302636 173.860982 
L 91.497467 173.999338 
L 91.562411 167.536185 
L 91.627355 167.645698 
L 92.991177 169.709698 
L 94.354999 171.382744 
L 95.783765 172.796634 
L 97.342418 174.022612 
L 97.53725 174.156191 
L 97.602194 167.691478 
L 97.667138 167.799446 
L 99.03096 169.834323 
L 100.394782 171.483763 
L 101.823547 172.877704 
L 103.382201 174.086384 
L 105.070742 175.106573 
L 105.265574 175.208116 
L 105.330518 168.732936 
L 105.395462 168.830541 
L 106.759283 170.670113 
L 108.188049 172.224734 
L 109.421983 173.317942 
L 109.486927 166.861569 
L 109.551871 166.977795 
L 110.915693 169.168306 
L 112.279515 170.9439 
L 112.409403 171.09436 
L 112.474347 164.660112 
L 112.53929 164.798243 
L 113.838168 167.289629 
L 115.20199 169.421074 
L 116.565812 171.14879 
L 117.994578 172.608881 
L 119.488287 173.828012 
L 121.111885 174.870823 
L 121.501548 175.084636 
L 121.566492 168.610685 
L 121.631436 168.709507 
L 122.995258 170.572004 
L 124.424024 172.146 
L 124.813687 172.518495 
L 124.878631 166.070077 
L 124.943575 166.194179 
L 126.242453 168.432525 
L 127.606275 170.347487 
L 129.03504 171.965821 
L 130.333918 173.157946 
L 130.398862 166.703165 
L 130.463806 166.820967 
L 131.762684 168.945695 
L 133.126506 170.763455 
L 134.555272 172.299643 
L 136.048981 173.582312 
L 137.672579 174.679471 
L 138.127186 174.940627 
L 138.19213 168.468108 
L 138.257074 168.568348 
L 139.620896 170.457584 
L 141.049662 172.054175 
L 142.543371 173.38728 
L 144.102025 174.487231 
L 144.491688 174.723383 
L 144.556632 168.253026 
L 144.621576 168.355407 
L 145.985398 170.284977 
L 147.414164 171.915655 
L 148.907873 173.277221 
L 150.466527 174.400655 
L 150.791246 174.602649 
L 150.85619 168.133493 
L 150.921134 168.237063 
L 152.284956 170.189049 
L 153.713722 171.838671 
L 155.207431 173.216054 
L 156.766085 174.35254 
L 158.454626 175.311793 
L 159.428785 175.761786 
L 159.493729 169.281096 
L 159.558672 169.373247 
L 160.922494 171.110022 
L 162.35126 172.57777 
L 163.84497 173.803293 
L 164.884072 174.503994 
L 164.949016 168.03582 
L 165.01396 168.140362 
L 166.377782 170.110664 
L 167.806547 171.775766 
L 169.300257 173.166074 
L 170.858911 174.313224 
L 171.768125 174.865726 
L 171.833069 168.393953 
L 171.898013 168.494931 
L 173.261835 170.398073 
L 174.690601 172.006417 
L 176.18431 173.349334 
L 177.742964 174.457382 
L 179.236674 175.296708 
L 179.301617 168.820646 
L 179.366561 168.917379 
L 180.730383 170.740502 
L 182.159149 172.281223 
L 182.938476 172.98923 
L 183.00342 166.536128 
L 183.068363 166.655592 
L 184.367241 168.810298 
L 185.731063 170.653704 
L 187.159829 172.211566 
L 188.653539 173.512332 
L 189.17309 173.899059 
L 189.238034 167.436904 
L 189.302978 167.547405 
L 190.6668 169.630023 
L 192.030621 171.318161 
L 193.459387 172.744805 
L 194.628377 173.699835 
L 194.693321 167.239662 
L 194.758265 167.352126 
L 196.122087 169.471733 
L 197.485909 171.189853 
L 198.914675 172.641835 
L 200.018721 173.564295 
L 200.083665 167.105471 
L 200.148609 167.21927 
L 201.51243 169.364042 
L 202.876252 171.102561 
L 204.305018 172.571782 
L 205.798728 173.798535 
L 207.422325 174.847866 
L 209.240754 175.750122 
L 209.50053 175.859607 
L 209.565474 169.377945 
L 209.630418 169.469132 
L 210.99424 171.187745 
L 212.423005 172.640144 
L 213.916715 173.852851 
L 214.306378 174.125947 
L 214.371322 167.661535 
L 214.436266 167.769801 
L 215.800088 169.810293 
L 217.16391 171.464285 
L 218.592676 172.862072 
L 218.722563 172.974549 
L 218.787507 166.521593 
L 218.852451 166.641202 
L 220.151329 168.798516 
L 221.515151 170.644154 
L 222.943917 172.203902 
L 224.437626 173.506242 
L 226.061224 174.620228 
L 227.814709 175.548285 
L 228.918755 176.016365 
L 228.983699 169.533143 
L 229.048643 169.622786 
L 230.412465 171.312294 
L 231.191792 172.129867 
L 231.256736 206.042754 
L 231.32168 205.769121 
L 232.295838 201.976651 
L 232.425726 195.069023 
L 233.724604 192.073248 
L 235.023482 189.620514 
L 236.387304 187.522138 
L 237.751125 185.821227 
L 239.179891 184.383788 
L 239.439667 184.154742 
L 239.504611 177.590542 
L 239.569555 177.600012 
L 243.011581 177.98769 
L 245.349562 178.155381 
L 245.414505 171.650875 
L 245.479449 171.719446 
L 246.973159 173.121326 
L 248.531813 174.278024 
L 250.220354 175.254338 
L 251.194512 175.712333 
L 251.259456 169.232136 
L 251.3244 169.324774 
L 252.688222 171.070731 
L 254.116988 172.546237 
L 255.091146 173.38145 
L 255.15609 166.924445 
L 255.221034 167.040045 
L 256.584856 169.218765 
L 257.948678 170.984801 
L 259.377443 172.477278 
L 260.871153 173.723449 
L 262.234975 174.636227 
L 262.299919 168.166737 
L 262.364863 168.269976 
L 263.728685 170.215728 
L 265.15745 171.860082 
L 266.65116 173.233066 
L 268.209814 174.365922 
L 269.898355 175.322111 
L 270.028243 175.385876 
L 270.093187 168.908927 
L 270.158131 169.004782 
L 271.521952 170.81135 
L 272.950718 172.338079 
L 274.444428 173.612851 
L 274.963979 173.99185 
L 275.028923 167.528772 
L 275.093867 167.638359 
L 276.068025 169.157199 
L 276.132969 203.099665 
L 276.197913 202.855316 
L 277.431847 198.648181 
L 277.886454 197.288904 
L 278.016342 190.4741 
L 279.31522 188.311243 
L 280.679042 186.460863 
L 282.107808 184.897108 
L 283.601517 183.591421 
L 285.225115 182.474573 
L 285.355003 182.39671 
L 285.419947 175.850002 
L 285.48489 175.876792 
L 287.563095 176.606761 
L 289.966019 177.205376 
L 290.160851 177.24489 
L 290.225795 170.749443 
L 290.290739 170.826984 
L 291.719505 172.350626 
L 293.213214 173.62282 
L 294.836812 174.711019 
L 296.590297 175.617593 
L 297.759287 176.09939 
L 297.824231 169.615341 
L 297.889175 169.704167 
L 299.252997 171.37826 
L 300.681763 172.793036 
L 301.071426 173.12785 
L 301.13637 207.030808 
L 301.201314 206.747343 
L 301.331202 199.745249 
L 302.630079 195.901818 
L 303.928957 192.755083 
L 305.227835 190.178753 
L 305.81233 189.177223 
L 305.942218 182.523041 
L 307.695704 181.581131 
L 309.64402 180.793537 
L 311.852113 180.144682 
L 311.917057 180.128739 
L 311.982001 173.604597 
L 312.046945 173.653729 
L 313.670542 174.735091 
L 315.424027 175.635969 
L 317.372344 176.389253 
L 317.762008 176.514641 
L 317.826952 170.02646 
L 317.891895 170.111195 
L 319.320661 171.776192 
L 320.814371 173.166413 
L 322.373024 174.31349 
L 324.061566 175.281684 
L 325.165612 175.791443 
L 325.230556 169.310458 
L 325.2955 169.402317 
L 326.659322 171.133586 
L 328.088087 172.59668 
L 329.516853 173.77084 
L 329.581797 167.309961 
L 329.646741 167.421725 
L 331.010563 169.528149 
L 332.374385 171.235583 
L 333.80315 172.678535 
L 335.361804 173.929712 
L 336.985401 174.950027 
L 337.829672 175.387949 
L 337.894616 168.910979 
L 337.95956 169.006813 
L 339.323382 170.812996 
L 340.752148 172.339401 
L 342.245857 173.613901 
L 342.895296 174.082906 
L 342.96024 167.618922 
L 343.025184 167.727612 
L 343.869455 169.045979 
L 343.934399 202.989552 
L 343.999342 202.746298 
L 345.233276 198.558028 
L 346.532154 194.929803 
L 347.11665 193.519356 
L 347.246537 186.779194 
L 348.675303 185.152575 
L 350.169013 183.794398 
L 351.727666 182.67376 
L 352.312161 182.318175 
L 352.377105 175.772249 
L 352.442049 175.799812 
L 354.45531 176.530847 
L 356.79329 177.138976 
L 359.45599 177.611004 
L 359.520934 171.111915 
L 359.585878 171.185849 
L 361.014644 172.638622 
L 362.508353 173.851642 
L 364.002063 174.815428 
L 364.067007 168.344155 
L 364.131951 168.445629 
L 365.495773 170.358109 
L 366.924538 171.974345 
L 368.418248 173.323852 
L 369.132631 173.867443 
L 369.197575 167.405602 
L 369.262519 167.516415 
L 370.626341 169.604903 
L 371.990162 171.297799 
L 373.418928 172.728464 
L 374.587918 173.686186 
L 374.652862 167.226149 
L 374.717806 167.338747 
L 376.081628 169.460889 
L 377.44545 171.181063 
L 378.874216 172.634781 
L 380.367925 173.84859 
L 381.991523 174.886849 
L 382.900737 175.364412 
L 382.965681 168.887676 
L 383.030625 168.983742 
L 384.394447 170.794295 
L 385.823213 172.324393 
L 387.316922 173.601977 
L 388.356025 174.332443 
L 388.420969 167.865976 
L 388.485912 167.972208 
L 389.849734 169.974362 
L 391.213556 171.597276 
L 392.642322 172.9688 
L 393.291761 173.499194 
L 393.356705 167.041018 
L 393.421649 167.155459 
L 394.785471 169.312318 
L 396.149292 171.060633 
L 397.578058 172.538134 
L 398.487273 173.322537 
L 398.487273 173.322537 
" style="fill:none;stroke:#9a72ac;stroke-linecap:round;stroke-width:1.5;"/>
   </g>
   <g id="patch_8">
    <path d="M 57.6 213.662118 
L 57.6 135.393882 
" style="fill:none;stroke:#ffffff;stroke-linecap:square;stroke-linejoin:miter;stroke-width:0.8;"/>
   </g>
   <g id="patch_9">
    <path d="M 414.72 213.662118 
L 414.72 135.393882 
" style="fill:none;stroke:#ffffff;stroke-linecap:square;stroke-linejoin:miter;stroke-width:0.8;"/>
   </g>
   <g id="patch_10">
    <path d="M 57.6 213.662118 
L 414.72 213.662118 
" style="fill:none;stroke:#ffffff;stroke-linecap:square;stroke-linejoin:miter;stroke-width:0.8;"/>
   </g>
   <g id="patch_11">
    <path d="M 57.6 135.393882 
L 414.72 135.393882 
" style="fill:none;stroke:#ffffff;stroke-linecap:square;stroke-linejoin:miter;stroke-width:0.8;"/>
   </g>
  </g>
  <g id="text_22">
   <!-- M2 - $u$ -->
   <g style="fill:#ffffff;" transform="translate(212.88 15.60825)scale(0.12 -0.12)">
    <defs>
     <path d="M 66.703125 0 
L 66.703125 45.90625 
Q 66.703125 48.390625 66.75 50.96875 
Q 66.796875 53.5625 66.890625 55.71875 
Q 67 58.203125 67.140625 60.546875 
Q 66.453125 58.0625 65.71875 55.609375 
Q 65.09375 53.515625 64.328125 51.140625 
Q 63.578125 48.78125 62.84375 46.875 
L 45.0625 0 
L 38.53125 0 
L 20.515625 46.875 
Q 20.21875 47.609375 19.890625 48.578125 
Q 19.578125 49.5625 19.203125 50.65625 
Q 18.84375 51.765625 18.46875 52.90625 
Q 18.109375 54.046875 17.78125 55.171875 
Q 16.9375 57.765625 16.15625 60.546875 
Q 16.21875 57.8125 16.3125 55.125 
Q 16.40625 52.828125 16.453125 50.3125 
Q 16.5 47.796875 16.5 45.90625 
L 16.5 0 
L 8.203125 0 
L 8.203125 68.796875 
L 20.453125 68.796875 
L 38.765625 21.09375 
Q 39.109375 20.125 39.59375 18.578125 
Q 40.09375 17.046875 40.53125 15.421875 
Q 40.96875 13.8125 41.328125 12.375 
Q 41.703125 10.9375 41.84375 10.15625 
Q 42 10.9375 42.390625 12.40625 
Q 42.78125 13.875 43.28125 15.484375 
Q 43.796875 17.09375 44.28125 18.609375 
Q 44.78125 20.125 45.171875 21.09375 
L 63.140625 68.796875 
L 75.09375 68.796875 
L 75.09375 0 
z
" id="LiberationSans-77"/>
     <path d="M 4.4375 22.65625 
L 4.4375 30.46875 
L 28.859375 30.46875 
L 28.859375 22.65625 
z
" id="LiberationSans-45"/>
    </defs>
    <use transform="translate(0 0.171875)" xlink:href="#LiberationSans-77"/>
    <use transform="translate(83.300781 0.171875)" xlink:href="#LiberationSans-50"/>
    <use transform="translate(138.916016 0.171875)" xlink:href="#LiberationSans-32"/>
    <use transform="translate(166.699219 0.171875)" xlink:href="#LiberationSans-45"/>
    <use transform="translate(200 0.171875)" xlink:href="#LiberationSans-32"/>
    <use transform="translate(227.783203 0.171875)" xlink:href="#DejaVuSans-Oblique-117"/>
   </g>
  </g>
 </g>
 <defs>
  <clipPath id="pfed14a8c74">
   <rect height="78.268235" width="357.12" x="57.6" y="41.472"/>
  </clipPath>
  <clipPath id="p4806e33e5d">
   <rect height="78.268235" width="357.12" x="57.6" y="135.393882"/>
  </clipPath>
 </defs>
</svg>
