<?xml version="1.0" encoding="utf-8" standalone="no"?>
<!DOCTYPE svg PUBLIC "-//W3C//DTD SVG 1.1//EN"
  "http://www.w3.org/Graphics/SVG/1.1/DTD/svg11.dtd">
<!-- Created with matplotlib (https://matplotlib.org/) -->
<svg height="345.6pt" version="1.1" viewBox="0 0 460.8 345.6" width="460.8pt" xmlns="http://www.w3.org/2000/svg" xmlns:xlink="http://www.w3.org/1999/xlink">
 <metadata>
  <rdf:RDF xmlns:cc="http://creativecommons.org/ns#" xmlns:dc="http://purl.org/dc/elements/1.1/" xmlns:rdf="http://www.w3.org/1999/02/22-rdf-syntax-ns#">
   <cc:Work>
    <dc:type rdf:resource="http://purl.org/dc/dcmitype/StillImage"/>
    <dc:date>2022-05-05T12:11:58.358866</dc:date>
    <dc:format>image/svg+xml</dc:format>
    <dc:creator>
     <cc:Agent>
      <dc:title>Matplotlib v3.3.4, https://matplotlib.org/</dc:title>
     </cc:Agent>
    </dc:creator>
   </cc:Work>
  </rdf:RDF>
 </metadata>
 <defs>
  <style type="text/css">*{stroke-linecap:butt;stroke-linejoin:round;}</style>
 </defs>
 <g id="figure_1">
  <g id="patch_1">
   <path d="M 0 345.6 
L 460.8 345.6 
L 460.8 0 
L 0 0 
z
" style="fill:#262626;"/>
  </g>
  <g id="axes_1">
   <g id="patch_2">
    <path d="M 57.6 162.432 
L 414.72 162.432 
L 414.72 41.472 
L 57.6 41.472 
z
" style="fill:#1a1a1a;"/>
   </g>
   <g id="matplotlib.axis_1">
    <g id="xtick_1">
     <g id="line2d_1">
      <defs>
       <path d="M 0 0 
L 0 3.5 
" id="m8b105c3c5e" style="stroke:#ffffff;stroke-width:0.8;"/>
      </defs>
      <g>
       <use style="fill:#ffffff;stroke:#ffffff;stroke-width:0.8;" x="73.832727" xlink:href="#m8b105c3c5e" y="162.432"/>
      </g>
     </g>
     <g id="text_1">
      <!-- 0 -->
      <g style="fill:#ffffff;" transform="translate(71.052259 176.678875)scale(0.1 -0.1)">
       <defs>
        <path d="M 51.703125 34.421875 
Q 51.703125 24.515625 49.828125 17.75 
Q 47.953125 10.984375 44.703125 6.8125 
Q 41.453125 2.640625 37.0625 0.828125 
Q 32.671875 -0.984375 27.6875 -0.984375 
Q 22.65625 -0.984375 18.3125 0.828125 
Q 13.96875 2.640625 10.765625 6.78125 
Q 7.5625 10.9375 5.734375 17.703125 
Q 3.90625 24.46875 3.90625 34.421875 
Q 3.90625 44.828125 5.734375 51.640625 
Q 7.5625 58.453125 10.78125 62.5 
Q 14.015625 66.546875 18.40625 68.1875 
Q 22.796875 69.828125 27.984375 69.828125 
Q 32.90625 69.828125 37.21875 68.1875 
Q 41.546875 66.546875 44.765625 62.5 
Q 48 58.453125 49.84375 51.640625 
Q 51.703125 44.828125 51.703125 34.421875 
z
M 42.78125 34.421875 
Q 42.78125 42.625 41.796875 48.0625 
Q 40.828125 53.515625 38.921875 56.765625 
Q 37.015625 60.015625 34.25 61.359375 
Q 31.5 62.703125 27.984375 62.703125 
Q 24.265625 62.703125 21.4375 61.328125 
Q 18.609375 59.96875 16.671875 56.71875 
Q 14.75 53.46875 13.765625 48.015625 
Q 12.796875 42.578125 12.796875 34.421875 
Q 12.796875 26.515625 13.796875 21.09375 
Q 14.796875 15.671875 16.71875 12.375 
Q 18.65625 9.078125 21.4375 7.640625 
Q 24.21875 6.203125 27.78125 6.203125 
Q 31.25 6.203125 34.03125 7.640625 
Q 36.8125 9.078125 38.734375 12.375 
Q 40.671875 15.671875 41.71875 21.09375 
Q 42.78125 26.515625 42.78125 34.421875 
z
" id="LiberationSans-48"/>
       </defs>
       <use xlink:href="#LiberationSans-48"/>
      </g>
     </g>
    </g>
    <g id="xtick_2">
     <g id="line2d_2">
      <g>
       <use style="fill:#ffffff;stroke:#ffffff;stroke-width:0.8;" x="138.776625" xlink:href="#m8b105c3c5e" y="162.432"/>
      </g>
     </g>
     <g id="text_2">
      <!-- 200 -->
      <g style="fill:#ffffff;" transform="translate(130.435219 176.678875)scale(0.1 -0.1)">
       <defs>
        <path d="M 5.03125 0 
L 5.03125 6.203125 
Q 7.515625 11.921875 11.109375 16.28125 
Q 14.703125 20.65625 18.65625 24.1875 
Q 22.609375 27.734375 26.484375 30.765625 
Q 30.375 33.796875 33.5 36.8125 
Q 36.625 39.84375 38.546875 43.15625 
Q 40.484375 46.484375 40.484375 50.6875 
Q 40.484375 53.609375 39.59375 55.828125 
Q 38.71875 58.0625 37.0625 59.5625 
Q 35.40625 61.078125 33.078125 61.828125 
Q 30.765625 62.59375 27.9375 62.59375 
Q 25.296875 62.59375 22.96875 61.859375 
Q 20.65625 61.140625 18.84375 59.671875 
Q 17.046875 58.203125 15.890625 56.03125 
Q 14.75 53.859375 14.40625 50.984375 
L 5.421875 51.8125 
Q 5.859375 55.515625 7.46875 58.78125 
Q 9.078125 62.0625 11.90625 64.53125 
Q 14.75 67 18.71875 68.40625 
Q 22.703125 69.828125 27.9375 69.828125 
Q 33.0625 69.828125 37.0625 68.609375 
Q 41.0625 67.390625 43.8125 64.984375 
Q 46.578125 62.59375 48.046875 59.078125 
Q 49.515625 55.5625 49.515625 50.984375 
Q 49.515625 47.515625 48.265625 44.390625 
Q 47.015625 41.265625 44.9375 38.421875 
Q 42.875 35.59375 40.140625 32.953125 
Q 37.40625 30.328125 34.421875 27.8125 
Q 31.453125 25.296875 28.421875 22.828125 
Q 25.390625 20.359375 22.71875 17.859375 
Q 20.0625 15.375 17.96875 12.8125 
Q 15.875 10.25 14.703125 7.46875 
L 50.59375 7.46875 
L 50.59375 0 
z
" id="LiberationSans-50"/>
       </defs>
       <use xlink:href="#LiberationSans-50"/>
       <use x="55.615234" xlink:href="#LiberationSans-48"/>
       <use x="111.230469" xlink:href="#LiberationSans-48"/>
      </g>
     </g>
    </g>
    <g id="xtick_3">
     <g id="line2d_3">
      <g>
       <use style="fill:#ffffff;stroke:#ffffff;stroke-width:0.8;" x="203.720523" xlink:href="#m8b105c3c5e" y="162.432"/>
      </g>
     </g>
     <g id="text_3">
      <!-- 400 -->
      <g style="fill:#ffffff;" transform="translate(195.379117 176.678875)scale(0.1 -0.1)">
       <defs>
        <path d="M 43.015625 15.578125 
L 43.015625 0 
L 34.71875 0 
L 34.71875 15.578125 
L 2.296875 15.578125 
L 2.296875 22.40625 
L 33.796875 68.796875 
L 43.015625 68.796875 
L 43.015625 22.515625 
L 52.6875 22.515625 
L 52.6875 15.578125 
z
M 34.71875 58.890625 
Q 34.625 58.640625 34.234375 57.9375 
Q 33.84375 57.234375 33.34375 56.34375 
Q 32.859375 55.46875 32.34375 54.5625 
Q 31.84375 53.65625 31.453125 53.078125 
L 13.8125 27.09375 
Q 13.578125 26.703125 13.109375 26.0625 
Q 12.640625 25.4375 12.15625 24.78125 
Q 11.671875 24.125 11.171875 23.484375 
Q 10.6875 22.859375 10.40625 22.515625 
L 34.71875 22.515625 
z
" id="LiberationSans-52"/>
       </defs>
       <use xlink:href="#LiberationSans-52"/>
       <use x="55.615234" xlink:href="#LiberationSans-48"/>
       <use x="111.230469" xlink:href="#LiberationSans-48"/>
      </g>
     </g>
    </g>
    <g id="xtick_4">
     <g id="line2d_4">
      <g>
       <use style="fill:#ffffff;stroke:#ffffff;stroke-width:0.8;" x="268.664421" xlink:href="#m8b105c3c5e" y="162.432"/>
      </g>
     </g>
     <g id="text_4">
      <!-- 600 -->
      <g style="fill:#ffffff;" transform="translate(260.323015 176.678875)scale(0.1 -0.1)">
       <defs>
        <path d="M 51.21875 22.515625 
Q 51.21875 17.328125 49.78125 13 
Q 48.34375 8.6875 45.53125 5.578125 
Q 42.71875 2.484375 38.5625 0.75 
Q 34.421875 -0.984375 29 -0.984375 
Q 23 -0.984375 18.5 1.3125 
Q 14.015625 3.609375 11.03125 7.921875 
Q 8.0625 12.25 6.5625 18.53125 
Q 5.078125 24.8125 5.078125 32.8125 
Q 5.078125 42 6.765625 48.921875 
Q 8.453125 55.859375 11.625 60.5 
Q 14.796875 65.140625 19.359375 67.484375 
Q 23.921875 69.828125 29.6875 69.828125 
Q 33.203125 69.828125 36.28125 69.09375 
Q 39.359375 68.359375 41.875 66.71875 
Q 44.390625 65.09375 46.28125 62.40625 
Q 48.1875 59.71875 49.3125 55.8125 
L 40.921875 54.296875 
Q 39.546875 58.734375 36.546875 60.71875 
Q 33.546875 62.703125 29.59375 62.703125 
Q 25.984375 62.703125 23.046875 60.984375 
Q 20.125 59.28125 18.0625 55.875 
Q 16.015625 52.484375 14.90625 47.359375 
Q 13.8125 42.234375 13.8125 35.40625 
Q 16.21875 39.84375 20.5625 42.15625 
Q 24.90625 44.484375 30.515625 44.484375 
Q 35.203125 44.484375 39.015625 42.96875 
Q 42.828125 41.453125 45.53125 38.59375 
Q 48.25 35.75 49.734375 31.671875 
Q 51.21875 27.59375 51.21875 22.515625 
z
M 42.28125 22.125 
Q 42.28125 25.6875 41.40625 28.5625 
Q 40.53125 31.453125 38.765625 33.46875 
Q 37.015625 35.5 34.421875 36.59375 
Q 31.84375 37.703125 28.421875 37.703125 
Q 26.03125 37.703125 23.578125 36.984375 
Q 21.140625 36.28125 19.15625 34.6875 
Q 17.1875 33.109375 15.9375 30.515625 
Q 14.703125 27.9375 14.703125 24.21875 
Q 14.703125 20.40625 15.671875 17.109375 
Q 16.65625 13.8125 18.484375 11.375 
Q 20.3125 8.9375 22.890625 7.515625 
Q 25.484375 6.109375 28.71875 6.109375 
Q 31.890625 6.109375 34.40625 7.203125 
Q 36.921875 8.296875 38.671875 10.375 
Q 40.4375 12.453125 41.359375 15.421875 
Q 42.28125 18.40625 42.28125 22.125 
z
" id="LiberationSans-54"/>
       </defs>
       <use xlink:href="#LiberationSans-54"/>
       <use x="55.615234" xlink:href="#LiberationSans-48"/>
       <use x="111.230469" xlink:href="#LiberationSans-48"/>
      </g>
     </g>
    </g>
    <g id="xtick_5">
     <g id="line2d_5">
      <g>
       <use style="fill:#ffffff;stroke:#ffffff;stroke-width:0.8;" x="333.608319" xlink:href="#m8b105c3c5e" y="162.432"/>
      </g>
     </g>
     <g id="text_5">
      <!-- 800 -->
      <g style="fill:#ffffff;" transform="translate(325.266913 176.678875)scale(0.1 -0.1)">
       <defs>
        <path d="M 51.265625 19.1875 
Q 51.265625 14.796875 49.875 11.109375 
Q 48.484375 7.421875 45.625 4.734375 
Q 42.78125 2.046875 38.328125 0.53125 
Q 33.890625 -0.984375 27.828125 -0.984375 
Q 21.78125 -0.984375 17.359375 0.53125 
Q 12.9375 2.046875 10.03125 4.703125 
Q 7.125 7.375 5.734375 11.0625 
Q 4.34375 14.75 4.34375 19.09375 
Q 4.34375 22.859375 5.484375 25.78125 
Q 6.640625 28.71875 8.5625 30.828125 
Q 10.5 32.953125 12.96875 34.25 
Q 15.4375 35.546875 18.0625 35.984375 
L 18.0625 36.1875 
Q 15.1875 36.859375 12.90625 38.375 
Q 10.640625 39.890625 9.09375 42.015625 
Q 7.5625 44.140625 6.75 46.71875 
Q 5.953125 49.3125 5.953125 52.203125 
Q 5.953125 55.8125 7.34375 59 
Q 8.734375 62.203125 11.46875 64.625 
Q 14.203125 67.046875 18.25 68.4375 
Q 22.3125 69.828125 27.640625 69.828125 
Q 33.25 69.828125 37.375 68.40625 
Q 41.5 67 44.203125 64.578125 
Q 46.921875 62.15625 48.234375 58.9375 
Q 49.5625 55.71875 49.5625 52.09375 
Q 49.5625 49.265625 48.75 46.671875 
Q 47.953125 44.09375 46.40625 41.96875 
Q 44.875 39.84375 42.59375 38.34375 
Q 40.328125 36.859375 37.359375 36.28125 
L 37.359375 36.078125 
Q 40.328125 35.59375 42.859375 34.296875 
Q 45.40625 33.015625 47.265625 30.890625 
Q 49.125 28.765625 50.1875 25.828125 
Q 51.265625 22.90625 51.265625 19.1875 
z
M 40.4375 51.609375 
Q 40.4375 54.203125 39.765625 56.34375 
Q 39.109375 58.5 37.59375 60.03125 
Q 36.078125 61.578125 33.640625 62.421875 
Q 31.203125 63.28125 27.640625 63.28125 
Q 24.171875 63.28125 21.78125 62.421875 
Q 19.390625 61.578125 17.84375 60.03125 
Q 16.3125 58.5 15.625 56.34375 
Q 14.9375 54.203125 14.9375 51.609375 
Q 14.9375 49.5625 15.46875 47.40625 
Q 16.015625 45.265625 17.421875 43.5 
Q 18.84375 41.75 21.328125 40.625 
Q 23.828125 39.5 27.734375 39.5 
Q 31.890625 39.5 34.40625 40.625 
Q 36.921875 41.75 38.25 43.5 
Q 39.59375 45.265625 40.015625 47.40625 
Q 40.4375 49.5625 40.4375 51.609375 
z
M 42.140625 20.015625 
Q 42.140625 22.515625 41.453125 24.828125 
Q 40.765625 27.15625 39.109375 28.9375 
Q 37.453125 30.71875 34.640625 31.8125 
Q 31.84375 32.90625 27.640625 32.90625 
Q 23.78125 32.90625 21.0625 31.8125 
Q 18.359375 30.71875 16.671875 28.90625 
Q 14.984375 27.09375 14.203125 24.71875 
Q 13.421875 22.359375 13.421875 19.828125 
Q 13.421875 16.65625 14.203125 14.03125 
Q 14.984375 11.421875 16.6875 9.546875 
Q 18.40625 7.671875 21.1875 6.640625 
Q 23.96875 5.609375 27.9375 5.609375 
Q 31.9375 5.609375 34.671875 6.640625 
Q 37.40625 7.671875 39.0625 9.546875 
Q 40.71875 11.421875 41.421875 14.078125 
Q 42.140625 16.75 42.140625 20.015625 
z
" id="LiberationSans-56"/>
       </defs>
       <use xlink:href="#LiberationSans-56"/>
       <use x="55.615234" xlink:href="#LiberationSans-48"/>
       <use x="111.230469" xlink:href="#LiberationSans-48"/>
      </g>
     </g>
    </g>
    <g id="xtick_6">
     <g id="line2d_6">
      <g>
       <use style="fill:#ffffff;stroke:#ffffff;stroke-width:0.8;" x="398.552217" xlink:href="#m8b105c3c5e" y="162.432"/>
      </g>
     </g>
     <g id="text_6">
      <!-- 1000 -->
      <g style="fill:#ffffff;" transform="translate(387.430342 176.678875)scale(0.1 -0.1)">
       <defs>
        <path d="M 7.625 0 
L 7.625 7.46875 
L 25.140625 7.46875 
L 25.140625 60.40625 
L 9.625 49.3125 
L 9.625 57.625 
L 25.875 68.796875 
L 33.984375 68.796875 
L 33.984375 7.46875 
L 50.734375 7.46875 
L 50.734375 0 
z
" id="LiberationSans-49"/>
       </defs>
       <use xlink:href="#LiberationSans-49"/>
       <use x="55.615234" xlink:href="#LiberationSans-48"/>
       <use x="111.230469" xlink:href="#LiberationSans-48"/>
       <use x="166.845703" xlink:href="#LiberationSans-48"/>
      </g>
     </g>
    </g>
   </g>
   <g id="matplotlib.axis_2">
    <g id="ytick_1">
     <g id="line2d_7">
      <defs>
       <path d="M 0 0 
L -3.5 0 
" id="me8f4b4d537" style="stroke:#ffffff;stroke-width:0.8;"/>
      </defs>
      <g>
       <use style="fill:#ffffff;stroke:#ffffff;stroke-width:0.8;" x="57.6" xlink:href="#me8f4b4d537" y="138.099656"/>
      </g>
     </g>
     <g id="text_7">
      <!-- 0.5 -->
      <g style="fill:#ffffff;" transform="translate(36.7 141.723094)scale(0.1 -0.1)">
       <defs>
        <path d="M 9.125 0 
L 9.125 10.6875 
L 18.65625 10.6875 
L 18.65625 0 
z
" id="LiberationSans-46"/>
        <path d="M 51.421875 22.40625 
Q 51.421875 17.234375 49.859375 12.9375 
Q 48.296875 8.640625 45.21875 5.53125 
Q 42.140625 2.4375 37.578125 0.71875 
Q 33.015625 -0.984375 27 -0.984375 
Q 21.578125 -0.984375 17.546875 0.28125 
Q 13.53125 1.5625 10.734375 3.78125 
Q 7.953125 6 6.3125 8.984375 
Q 4.6875 11.96875 4 15.375 
L 12.890625 16.40625 
Q 13.421875 14.453125 14.390625 12.625 
Q 15.375 10.796875 17.0625 9.34375 
Q 18.75 7.90625 21.21875 7.046875 
Q 23.6875 6.203125 27.203125 6.203125 
Q 30.609375 6.203125 33.390625 7.25 
Q 36.1875 8.296875 38.15625 10.34375 
Q 40.140625 12.40625 41.203125 15.375 
Q 42.28125 18.359375 42.28125 22.21875 
Q 42.28125 25.390625 41.25 28.046875 
Q 40.234375 30.71875 38.328125 32.640625 
Q 36.421875 34.578125 33.65625 35.640625 
Q 30.90625 36.71875 27.390625 36.71875 
Q 25.203125 36.71875 23.34375 36.328125 
Q 21.484375 35.9375 19.890625 35.25 
Q 18.3125 34.578125 17.015625 33.671875 
Q 15.71875 32.765625 14.59375 31.78125 
L 6 31.78125 
L 8.296875 68.796875 
L 47.40625 68.796875 
L 47.40625 61.328125 
L 16.3125 61.328125 
L 14.984375 39.5 
Q 17.328125 41.3125 20.84375 42.59375 
Q 24.359375 43.890625 29.203125 43.890625 
Q 34.328125 43.890625 38.421875 42.328125 
Q 42.53125 40.765625 45.40625 37.90625 
Q 48.296875 35.0625 49.859375 31.109375 
Q 51.421875 27.15625 51.421875 22.40625 
z
" id="LiberationSans-53"/>
       </defs>
       <use xlink:href="#LiberationSans-48"/>
       <use x="55.615234" xlink:href="#LiberationSans-46"/>
       <use x="83.398438" xlink:href="#LiberationSans-53"/>
      </g>
     </g>
    </g>
    <g id="ytick_2">
     <g id="line2d_8">
      <g>
       <use style="fill:#ffffff;stroke:#ffffff;stroke-width:0.8;" x="57.6" xlink:href="#me8f4b4d537" y="100.044848"/>
      </g>
     </g>
     <g id="text_8">
      <!-- 1.0 -->
      <g style="fill:#ffffff;" transform="translate(36.7 103.668285)scale(0.1 -0.1)">
       <use xlink:href="#LiberationSans-49"/>
       <use x="55.615234" xlink:href="#LiberationSans-46"/>
       <use x="83.398438" xlink:href="#LiberationSans-48"/>
      </g>
     </g>
    </g>
    <g id="ytick_3">
     <g id="line2d_9">
      <g>
       <use style="fill:#ffffff;stroke:#ffffff;stroke-width:0.8;" x="57.6" xlink:href="#me8f4b4d537" y="61.990039"/>
      </g>
     </g>
     <g id="text_9">
      <!-- 1.5 -->
      <g style="fill:#ffffff;" transform="translate(36.7 65.613476)scale(0.1 -0.1)">
       <use xlink:href="#LiberationSans-49"/>
       <use x="55.615234" xlink:href="#LiberationSans-46"/>
       <use x="83.398438" xlink:href="#LiberationSans-53"/>
      </g>
     </g>
    </g>
   </g>
   <g id="line2d_10">
    <path clip-path="url(#p7c2dbef9bd)" d="M 73.832727 70.35564 
L 75.066661 88.66316 
L 76.300595 103.802732 
L 77.534529 116.322538 
L 78.768464 126.675907 
L 80.002398 135.237719 
L 80.197229 136.446992 
L 80.262173 78.483838 
L 80.327117 79.455677 
L 81.561051 96.188519 
L 82.794985 110.025896 
L 84.028919 121.468841 
L 84.093863 63.654722 
L 84.158807 64.774113 
L 85.392741 84.047465 
L 86.626675 99.98574 
L 87.860609 113.166043 
L 88.315216 117.424449 
L 88.38016 59.650573 
L 88.445104 60.809806 
L 89.679038 80.769146 
L 90.912972 97.274704 
L 92.146906 110.924126 
L 93.380841 122.21164 
L 94.614775 131.545954 
L 95.394101 136.590265 
L 95.459045 78.625685 
L 95.523989 79.596113 
L 96.757923 96.304654 
L 97.991857 110.121934 
L 99.225791 121.54826 
L 100.459725 130.997365 
L 101.693659 138.811389 
L 102.148267 141.336012 
L 102.213211 83.324211 
L 102.278155 84.247888 
L 103.512089 100.151481 
L 104.746023 113.303104 
L 105.979957 124.178958 
L 107.213891 133.172844 
L 107.928274 137.650062 
L 107.993218 79.674937 
L 108.058161 80.634925 
L 109.292096 97.163709 
L 110.52603 110.832338 
L 111.759964 122.135735 
L 112.993898 131.483183 
L 114.162888 138.841874 
L 114.227832 80.85489 
L 114.292776 81.803137 
L 115.52671 98.129773 
L 116.760644 111.631233 
L 117.994578 122.796389 
L 118.059522 64.969061 
L 118.124466 66.075374 
L 119.3584 85.123555 
L 120.592334 100.875623 
L 121.826268 113.901939 
L 123.060202 124.67417 
L 124.294136 133.582365 
L 125.398182 140.237882 
L 125.463126 82.237008 
L 125.52807 83.171502 
L 126.762004 99.261355 
L 127.995938 112.567005 
L 129.229872 123.570234 
L 130.204031 130.894798 
L 130.268975 72.98689 
L 130.333918 74.013424 
L 131.567852 91.687998 
L 132.801787 106.304149 
L 134.035721 118.391108 
L 135.269655 128.386529 
L 136.503589 136.652334 
L 137.542691 142.49297 
L 137.607635 84.469657 
L 137.672579 85.381936 
L 138.906513 101.089293 
L 140.140447 114.078636 
L 141.374381 124.820291 
L 142.608315 133.703201 
L 143.842249 141.049004 
L 145.076183 147.123684 
L 145.141127 89.054295 
L 145.206071 89.920956 
L 146.440005 104.842877 
L 147.673939 117.182696 
L 148.907873 127.387222 
L 150.141807 135.825948 
L 150.661358 138.926552 
L 150.726302 80.938726 
L 150.791246 81.886138 
L 152.02518 98.198411 
L 153.259114 111.687994 
L 154.493048 122.843328 
L 155.726982 132.068334 
L 156.960917 139.697036 
L 158.194851 146.005661 
L 159.428785 151.222636 
L 159.883392 152.908182 
L 159.948336 94.781236 
L 160.01328 95.590914 
L 161.247214 109.5317 
L 162.481148 121.060161 
L 163.650138 130.135834 
L 163.715082 72.235477 
L 163.780026 73.269489 
L 165.01396 91.072794 
L 166.247894 105.7954 
L 167.481828 117.970394 
L 168.715762 128.038616 
L 168.910594 129.460654 
L 168.975538 71.567015 
L 169.040482 72.607678 
L 170.274416 90.525504 
L 171.50835 105.342813 
L 172.742284 117.596123 
L 173.976218 127.729109 
L 175.210152 136.108675 
L 175.729703 139.187541 
L 175.794647 81.197118 
L 175.859591 82.14196 
L 177.093525 98.409965 
L 178.327459 111.862941 
L 179.561393 122.988002 
L 180.795327 132.187973 
L 181.055103 133.911924 
L 181.120047 75.973994 
L 181.18499 76.970806 
L 182.418925 94.133633 
L 183.652859 108.326588 
L 184.886793 120.063583 
L 186.120727 129.769598 
L 186.51039 132.470842 
L 186.575334 74.547252 
L 186.640278 75.55826 
L 187.874212 92.965515 
L 189.108146 107.360603 
L 190.34208 119.264752 
L 191.576014 129.108997 
L 192.225453 133.585966 
L 192.290397 75.651279 
L 192.355341 76.651303 
L 193.589275 93.869416 
L 194.823209 108.108092 
L 196.057143 119.882896 
L 197.291077 129.620177 
L 197.356021 130.083201 
L 197.420965 72.183367 
L 197.485909 73.217897 
L 198.719843 91.03013 
L 199.953777 105.760119 
L 201.187711 117.941217 
L 201.772206 122.951563 
L 201.83715 65.12269 
L 201.902094 66.227475 
L 203.136028 85.249337 
L 204.369962 100.979639 
L 205.603896 113.987956 
L 206.83783 124.745302 
L 208.071764 133.641188 
L 209.305698 140.997723 
L 209.630418 142.712337 
L 209.695362 84.686842 
L 209.760306 85.59696 
L 210.99424 101.267109 
L 212.228174 114.225682 
L 213.462108 124.941892 
L 214.696042 133.80376 
L 215.929976 141.132163 
L 217.16391 147.192452 
L 218.397844 152.204064 
L 219.631778 156.348462 
L 219.82661 156.933818 
L 219.891554 98.766817 
L 219.956497 99.536837 
L 221.190432 112.794818 
L 222.424366 123.758626 
L 223.6583 132.825247 
L 224.892234 140.322973 
L 225.931336 145.620881 
L 225.99628 87.566446 
L 226.061224 88.447911 
L 227.295158 103.624729 
L 228.529092 116.175338 
L 229.763026 126.554178 
L 230.99696 135.137054 
L 231.256736 136.74537 
L 231.32168 78.779247 
L 231.386624 79.748147 
L 232.620558 96.43038 
L 233.854492 110.225904 
L 235.088426 121.63424 
L 236.32236 131.068467 
L 237.49135 138.495474 
L 237.556294 80.511937 
L 237.621238 81.463596 
L 238.855172 97.848986 
L 240.089106 111.399034 
L 241.258096 122.066182 
L 241.32304 64.24612 
L 241.387984 65.359627 
L 242.621918 84.531661 
L 243.855852 100.386151 
L 245.089786 113.497165 
L 246.32372 124.339439 
L 247.49271 132.874917 
L 247.557654 74.947306 
L 247.622598 75.954334 
L 248.856532 93.293052 
L 250.090466 107.631462 
L 251.3244 119.488742 
L 251.389344 61.694326 
L 251.454288 62.833223 
L 252.688222 82.442429 
L 253.922156 98.658441 
L 254.441707 104.616618 
L 254.506651 46.970182 
L 254.571595 48.255587 
L 255.805529 70.38732 
L 257.039463 88.689358 
L 258.273397 103.824396 
L 259.507331 116.340454 
L 260.741265 126.690722 
L 261.910256 134.838874 
L 261.975199 76.891721 
L 262.040143 77.879402 
L 263.274077 94.885004 
L 264.508011 108.947942 
L 265.741945 120.577417 
L 266.97588 130.194517 
L 268.209814 138.147467 
L 269.443748 144.724231 
L 270.677682 150.162946 
L 270.80757 150.677612 
L 270.872513 92.572861 
L 270.937457 93.404512 
L 272.171391 107.723636 
L 273.405325 119.564966 
L 274.509372 128.411895 
L 274.574316 70.528692 
L 274.639259 71.579686 
L 275.873194 89.675396 
L 277.107128 104.639809 
L 278.341062 117.014767 
L 279.574996 127.248352 
L 280.614098 134.479424 
L 280.679042 76.535848 
L 280.743986 77.52707 
L 281.97792 94.59364 
L 283.211854 108.706996 
L 284.445788 120.378164 
L 285.679722 130.029744 
L 285.744666 130.488692 
L 285.80961 72.584824 
L 285.874554 73.61536 
L 287.108488 91.358815 
L 288.342422 106.031928 
L 288.797029 110.772645 
L 288.861973 53.064955 
L 288.926917 54.289716 
L 290.160851 75.377298 
L 291.394785 92.815866 
L 292.628719 107.236849 
L 293.862653 119.162413 
L 295.096587 129.024367 
L 296.330521 137.1798 
L 296.785129 139.814728 
L 296.850073 81.818065 
L 296.915016 82.756728 
L 298.148951 98.918353 
L 299.382885 112.283357 
L 300.616819 123.335669 
L 301.850753 132.475479 
L 303.084687 140.033729 
L 304.318621 146.284092 
L 304.578396 147.455326 
L 304.64334 89.382638 
L 304.708284 90.246032 
L 305.942218 105.111701 
L 307.176152 117.405003 
L 308.410086 127.571061 
L 309.64402 135.977975 
L 310.358403 140.162994 
L 310.423347 82.162865 
L 310.488291 83.098097 
L 311.722225 99.200652 
L 312.956159 112.516806 
L 314.190093 123.528722 
L 315.424027 132.635126 
L 316.528074 139.43873 
L 316.593018 81.445808 
L 316.657961 82.388175 
L 317.891895 98.613575 
L 319.12583 112.031317 
L 320.359764 123.127242 
L 321.593698 132.303119 
L 322.827632 139.891194 
L 324.061566 146.166222 
L 324.516173 148.193612 
L 324.581117 90.113578 
L 324.646061 90.969699 
L 325.879995 105.710144 
L 327.113929 117.899891 
L 327.9582 125.00139 
L 328.023144 67.152121 
L 328.088087 68.236713 
L 329.322021 86.910894 
L 330.555956 102.353679 
L 331.78989 115.124231 
L 333.023824 125.684955 
L 334.257758 134.418243 
L 335.491692 141.640315 
L 336.725626 147.612674 
L 337.050345 149.004673 
L 337.115289 90.916568 
L 337.180233 91.764699 
L 338.414167 106.367578 
L 339.648101 118.443561 
L 340.882035 128.429906 
L 341.661362 133.826578 
L 341.726306 75.889498 
L 341.79125 76.887151 
L 343.025184 94.064453 
L 344.259118 108.26938 
L 344.843613 114.112169 
L 344.908557 56.37125 
L 344.973501 57.563113 
L 346.207435 78.084263 
L 347.441369 95.054416 
L 348.675303 109.088039 
L 349.909237 120.693271 
L 351.143171 130.290324 
L 351.662722 133.816527 
L 351.727666 75.879546 
L 351.79261 76.877299 
L 353.026544 94.056305 
L 354.260478 108.262642 
L 355.494412 120.010702 
L 356.728346 129.725867 
L 357.96228 137.759912 
L 358.287 139.632437 
L 358.351944 81.637587 
L 358.416888 82.578046 
L 359.650822 98.77059 
L 360.884756 112.161163 
L 362.11869 123.234619 
L 363.352624 132.391915 
L 364.586558 139.964625 
L 364.846334 141.383649 
L 364.911278 83.371374 
L 364.976221 84.294581 
L 366.210155 100.190095 
L 367.44409 113.335036 
L 368.678024 124.205364 
L 369.911958 133.194682 
L 370.886116 139.178637 
L 370.95106 81.188302 
L 371.016004 82.133232 
L 372.249938 98.402747 
L 373.483872 111.856972 
L 374.717806 122.983066 
L 375.95174 132.183891 
L 376.860955 137.928284 
L 376.925899 79.950391 
L 376.990843 80.907638 
L 378.224777 97.389231 
L 379.458711 111.018835 
L 380.692645 122.289961 
L 380.887476 123.881898 
L 380.95242 66.043769 
L 381.017364 67.139389 
L 382.251298 86.003452 
L 383.485232 101.603261 
L 384.719166 114.503666 
L 385.9531 125.171774 
L 387.187034 133.993863 
L 387.576698 136.449105 
L 387.641642 78.48593 
L 387.706586 79.457748 
L 388.94052 96.190232 
L 390.174454 110.027312 
L 391.408388 121.470012 
L 392.642322 130.932657 
L 393.876256 138.757878 
L 395.11019 145.229016 
L 395.954461 148.998969 
L 396.019405 90.910921 
L 396.084349 91.759109 
L 397.318283 106.362954 
L 398.487273 117.859695 
L 398.487273 117.859695 
" style="fill:none;stroke:#9a72ac;stroke-linecap:round;stroke-width:1.5;"/>
   </g>
   <g id="line2d_11">
    <path clip-path="url(#p7c2dbef9bd)" d="M 73.832727 100.044848 
L 398.487273 100.044848 
L 398.487273 100.044848 
" style="fill:none;stroke:#cf5044;stroke-linecap:round;stroke-width:1.5;"/>
   </g>
   <g id="patch_3">
    <path d="M 57.6 162.432 
L 57.6 41.472 
" style="fill:none;stroke:#ffffff;stroke-linecap:square;stroke-linejoin:miter;stroke-width:0.8;"/>
   </g>
   <g id="patch_4">
    <path d="M 414.72 162.432 
L 414.72 41.472 
" style="fill:none;stroke:#ffffff;stroke-linecap:square;stroke-linejoin:miter;stroke-width:0.8;"/>
   </g>
   <g id="patch_5">
    <path d="M 57.6 162.432 
L 414.72 162.432 
" style="fill:none;stroke:#ffffff;stroke-linecap:square;stroke-linejoin:miter;stroke-width:0.8;"/>
   </g>
   <g id="patch_6">
    <path d="M 57.6 41.472 
L 414.72 41.472 
" style="fill:none;stroke:#ffffff;stroke-linecap:square;stroke-linejoin:miter;stroke-width:0.8;"/>
   </g>
   <g id="legend_1">
    <g id="line2d_12">
     <path d="M 371.72 54.218875 
L 391.72 54.218875 
" style="fill:none;stroke:#9a72ac;stroke-linecap:round;stroke-width:1.5;"/>
    </g>
    <g id="line2d_13"/>
    <g id="text_10">
     <!-- $\hat{x}$ -->
     <g style="fill:#ffffff;" transform="translate(399.72 57.718875)scale(0.1 -0.1)">
      <defs>
       <path d="M -28.609375 79.984375 
L -21.390625 79.984375 
L -9.421875 61.625 
L -16.21875 61.625 
L -25 73.578125 
L -33.796875 61.625 
L -40.578125 61.625 
z
M -25 56 
z
" id="DejaVuSans-770"/>
       <path d="M 60.015625 54.6875 
L 34.90625 27.875 
L 50.296875 0 
L 39.984375 0 
L 28.421875 21.6875 
L 8.296875 0 
L -2.59375 0 
L 24.3125 28.8125 
L 10.015625 54.6875 
L 20.3125 54.6875 
L 30.8125 34.90625 
L 49.125 54.6875 
z
" id="DejaVuSans-Oblique-120"/>
      </defs>
      <use transform="translate(62.373047 12.015625)" xlink:href="#DejaVuSans-770"/>
      <use transform="translate(0 0.828125)" xlink:href="#DejaVuSans-Oblique-120"/>
     </g>
    </g>
    <g id="line2d_14">
     <path d="M 371.72 68.54075 
L 391.72 68.54075 
" style="fill:none;stroke:#cf5044;stroke-linecap:round;stroke-width:1.5;"/>
    </g>
    <g id="line2d_15"/>
    <g id="text_11">
     <!-- x -->
     <g style="fill:#ffffff;" transform="translate(399.72 72.04075)scale(0.1 -0.1)">
      <defs>
       <path d="M 39.109375 0 
L 24.90625 21.6875 
L 10.59375 0 
L 1.125 0 
L 19.921875 27.15625 
L 2 52.828125 
L 11.71875 52.828125 
L 24.90625 32.28125 
L 37.984375 52.828125 
L 47.796875 52.828125 
L 29.890625 27.25 
L 48.921875 0 
z
" id="LiberationSans-120"/>
      </defs>
      <use xlink:href="#LiberationSans-120"/>
     </g>
    </g>
   </g>
  </g>
  <g id="axes_2">
   <g id="patch_7">
    <path d="M 57.6 307.584 
L 414.72 307.584 
L 414.72 186.624 
L 57.6 186.624 
z
" style="fill:#1a1a1a;"/>
   </g>
   <g id="matplotlib.axis_3">
    <g id="xtick_7">
     <g id="line2d_16">
      <g>
       <use style="fill:#ffffff;stroke:#ffffff;stroke-width:0.8;" x="73.832727" xlink:href="#m8b105c3c5e" y="307.584"/>
      </g>
     </g>
     <g id="text_12">
      <!-- 0 -->
      <g style="fill:#ffffff;" transform="translate(71.052259 321.830875)scale(0.1 -0.1)">
       <use xlink:href="#LiberationSans-48"/>
      </g>
     </g>
    </g>
    <g id="xtick_8">
     <g id="line2d_17">
      <g>
       <use style="fill:#ffffff;stroke:#ffffff;stroke-width:0.8;" x="138.776625" xlink:href="#m8b105c3c5e" y="307.584"/>
      </g>
     </g>
     <g id="text_13">
      <!-- 200 -->
      <g style="fill:#ffffff;" transform="translate(130.435219 321.830875)scale(0.1 -0.1)">
       <use xlink:href="#LiberationSans-50"/>
       <use x="55.615234" xlink:href="#LiberationSans-48"/>
       <use x="111.230469" xlink:href="#LiberationSans-48"/>
      </g>
     </g>
    </g>
    <g id="xtick_9">
     <g id="line2d_18">
      <g>
       <use style="fill:#ffffff;stroke:#ffffff;stroke-width:0.8;" x="203.720523" xlink:href="#m8b105c3c5e" y="307.584"/>
      </g>
     </g>
     <g id="text_14">
      <!-- 400 -->
      <g style="fill:#ffffff;" transform="translate(195.379117 321.830875)scale(0.1 -0.1)">
       <use xlink:href="#LiberationSans-52"/>
       <use x="55.615234" xlink:href="#LiberationSans-48"/>
       <use x="111.230469" xlink:href="#LiberationSans-48"/>
      </g>
     </g>
    </g>
    <g id="xtick_10">
     <g id="line2d_19">
      <g>
       <use style="fill:#ffffff;stroke:#ffffff;stroke-width:0.8;" x="268.664421" xlink:href="#m8b105c3c5e" y="307.584"/>
      </g>
     </g>
     <g id="text_15">
      <!-- 600 -->
      <g style="fill:#ffffff;" transform="translate(260.323015 321.830875)scale(0.1 -0.1)">
       <use xlink:href="#LiberationSans-54"/>
       <use x="55.615234" xlink:href="#LiberationSans-48"/>
       <use x="111.230469" xlink:href="#LiberationSans-48"/>
      </g>
     </g>
    </g>
    <g id="xtick_11">
     <g id="line2d_20">
      <g>
       <use style="fill:#ffffff;stroke:#ffffff;stroke-width:0.8;" x="333.608319" xlink:href="#m8b105c3c5e" y="307.584"/>
      </g>
     </g>
     <g id="text_16">
      <!-- 800 -->
      <g style="fill:#ffffff;" transform="translate(325.266913 321.830875)scale(0.1 -0.1)">
       <use xlink:href="#LiberationSans-56"/>
       <use x="55.615234" xlink:href="#LiberationSans-48"/>
       <use x="111.230469" xlink:href="#LiberationSans-48"/>
      </g>
     </g>
    </g>
    <g id="xtick_12">
     <g id="line2d_21">
      <g>
       <use style="fill:#ffffff;stroke:#ffffff;stroke-width:0.8;" x="398.552217" xlink:href="#m8b105c3c5e" y="307.584"/>
      </g>
     </g>
     <g id="text_17">
      <!-- 1000 -->
      <g style="fill:#ffffff;" transform="translate(387.430342 321.830875)scale(0.1 -0.1)">
       <use xlink:href="#LiberationSans-49"/>
       <use x="55.615234" xlink:href="#LiberationSans-48"/>
       <use x="111.230469" xlink:href="#LiberationSans-48"/>
       <use x="166.845703" xlink:href="#LiberationSans-48"/>
      </g>
     </g>
    </g>
    <g id="text_18">
     <!-- $t$ (ms) -->
     <g style="fill:#ffffff;" transform="translate(222.81 335.205875)scale(0.1 -0.1)">
      <defs>
       <path d="M 42.28125 54.6875 
L 40.921875 47.703125 
L 23 47.703125 
L 17.1875 18.015625 
Q 16.890625 16.359375 16.75 15.234375 
Q 16.609375 14.109375 16.609375 13.484375 
Q 16.609375 10.359375 18.484375 8.9375 
Q 20.359375 7.515625 24.515625 7.515625 
L 33.59375 7.515625 
L 32.078125 0 
L 23.484375 0 
Q 15.484375 0 11.546875 3.125 
Q 7.625 6.25 7.625 12.59375 
Q 7.625 13.71875 7.765625 15.0625 
Q 7.90625 16.40625 8.203125 18.015625 
L 14.015625 47.703125 
L 6.390625 47.703125 
L 7.8125 54.6875 
L 15.28125 54.6875 
L 18.3125 70.21875 
L 27.296875 70.21875 
L 24.3125 54.6875 
z
" id="DejaVuSans-Oblique-116"/>
       <path id="LiberationSans-32"/>
       <path d="M 6.203125 25.984375 
Q 6.203125 32.765625 7.21875 38.96875 
Q 8.25 45.171875 10.4375 50.875 
Q 12.640625 56.59375 16.0625 61.953125 
Q 19.484375 67.328125 24.21875 72.46875 
L 32.71875 72.46875 
Q 28.125 67.328125 24.78125 61.9375 
Q 21.4375 56.546875 19.28125 50.796875 
Q 17.140625 45.0625 16.09375 38.859375 
Q 15.046875 32.671875 15.046875 25.875 
Q 15.046875 19.09375 16.09375 12.890625 
Q 17.140625 6.6875 19.28125 0.921875 
Q 21.4375 -4.828125 24.78125 -10.203125 
Q 28.125 -15.578125 32.71875 -20.703125 
L 24.21875 -20.703125 
Q 19.484375 -15.578125 16.0625 -10.203125 
Q 12.640625 -4.828125 10.4375 0.875 
Q 8.25 6.59375 7.21875 12.765625 
Q 6.203125 18.953125 6.203125 25.78125 
z
" id="LiberationSans-40"/>
       <path d="M 37.5 0 
L 37.5 33.5 
Q 37.5 37.359375 37.015625 39.9375 
Q 36.53125 42.53125 35.375 44.109375 
Q 34.234375 45.703125 32.375 46.359375 
Q 30.515625 47.015625 27.828125 47.015625 
Q 25.046875 47.015625 22.796875 45.921875 
Q 20.5625 44.828125 18.96875 42.75 
Q 17.390625 40.671875 16.53125 37.625 
Q 15.671875 34.578125 15.671875 30.609375 
L 15.671875 0 
L 6.9375 0 
L 6.9375 41.546875 
Q 6.9375 43.21875 6.90625 45.046875 
Q 6.890625 46.875 6.828125 48.5 
Q 6.78125 50.140625 6.734375 51.3125 
Q 6.6875 52.484375 6.640625 52.828125 
L 14.9375 52.828125 
Q 14.984375 52.59375 15.03125 51.515625 
Q 15.09375 50.4375 15.15625 49.046875 
Q 15.234375 47.65625 15.28125 46.21875 
Q 15.328125 44.78125 15.328125 43.796875 
L 15.484375 43.796875 
Q 16.65625 46.09375 18.015625 47.953125 
Q 19.390625 49.8125 21.21875 51.09375 
Q 23.046875 52.390625 25.40625 53.09375 
Q 27.78125 53.8125 30.90625 53.8125 
Q 36.921875 53.8125 40.40625 51.421875 
Q 43.890625 49.03125 45.265625 43.796875 
L 45.40625 43.796875 
Q 46.578125 46.09375 48.046875 47.953125 
Q 49.515625 49.8125 51.46875 51.09375 
Q 53.421875 52.390625 55.859375 53.09375 
Q 58.296875 53.8125 61.421875 53.8125 
Q 65.4375 53.8125 68.328125 52.734375 
Q 71.234375 51.65625 73.09375 49.40625 
Q 74.953125 47.171875 75.828125 43.625 
Q 76.703125 40.09375 76.703125 35.203125 
L 76.703125 0 
L 68.015625 0 
L 68.015625 33.5 
Q 68.015625 37.359375 67.53125 39.9375 
Q 67.046875 42.53125 65.890625 44.109375 
Q 64.75 45.703125 62.890625 46.359375 
Q 61.03125 47.015625 58.34375 47.015625 
Q 55.5625 47.015625 53.3125 45.96875 
Q 51.078125 44.921875 49.484375 42.875 
Q 47.90625 40.828125 47.046875 37.75 
Q 46.1875 34.671875 46.1875 30.609375 
L 46.1875 0 
z
" id="LiberationSans-109"/>
       <path d="M 46.390625 14.59375 
Q 46.390625 10.890625 44.9375 7.984375 
Q 43.5 5.078125 40.765625 3.09375 
Q 38.03125 1.125 34.046875 0.0625 
Q 30.078125 -0.984375 24.953125 -0.984375 
Q 20.359375 -0.984375 16.671875 -0.265625 
Q 12.984375 0.4375 10.203125 2 
Q 7.421875 3.5625 5.53125 6.125 
Q 3.65625 8.6875 2.78125 12.40625 
L 10.546875 13.921875 
Q 11.671875 9.671875 15.1875 7.6875 
Q 18.703125 5.71875 24.953125 5.71875 
Q 27.78125 5.71875 30.140625 6.109375 
Q 32.515625 6.5 34.21875 7.453125 
Q 35.9375 8.40625 36.890625 9.984375 
Q 37.84375 11.578125 37.84375 13.921875 
Q 37.84375 16.3125 36.71875 17.84375 
Q 35.59375 19.390625 33.59375 20.40625 
Q 31.59375 21.4375 28.734375 22.1875 
Q 25.875 22.953125 22.46875 23.875 
Q 19.28125 24.703125 16.15625 25.734375 
Q 13.03125 26.765625 10.515625 28.4375 
Q 8.015625 30.125 6.453125 32.609375 
Q 4.890625 35.109375 4.890625 38.875 
Q 4.890625 46.09375 10.03125 49.875 
Q 15.1875 53.65625 25.046875 53.65625 
Q 33.796875 53.65625 38.9375 50.578125 
Q 44.09375 47.515625 45.453125 40.71875 
L 37.546875 39.75 
Q 37.109375 41.796875 35.9375 43.1875 
Q 34.765625 44.578125 33.109375 45.4375 
Q 31.453125 46.296875 29.375 46.65625 
Q 27.296875 47.015625 25.046875 47.015625 
Q 19.09375 47.015625 16.25 45.203125 
Q 13.421875 43.40625 13.421875 39.75 
Q 13.421875 37.59375 14.46875 36.203125 
Q 15.53125 34.8125 17.40625 33.859375 
Q 19.28125 32.90625 21.921875 32.203125 
Q 24.5625 31.5 27.734375 30.71875 
Q 29.828125 30.171875 32.03125 29.5625 
Q 34.234375 28.953125 36.296875 28.09375 
Q 38.375 27.25 40.203125 26.09375 
Q 42.046875 24.953125 43.40625 23.34375 
Q 44.78125 21.734375 45.578125 19.578125 
Q 46.390625 17.4375 46.390625 14.59375 
z
" id="LiberationSans-115"/>
       <path d="M 27.09375 25.78125 
Q 27.09375 18.953125 26.0625 12.765625 
Q 25.046875 6.59375 22.84375 0.875 
Q 20.65625 -4.828125 17.234375 -10.203125 
Q 13.8125 -15.578125 9.078125 -20.703125 
L 0.59375 -20.703125 
Q 5.171875 -15.578125 8.515625 -10.203125 
Q 11.859375 -4.828125 14 0.921875 
Q 16.15625 6.6875 17.203125 12.890625 
Q 18.265625 19.09375 18.265625 25.875 
Q 18.265625 32.671875 17.203125 38.859375 
Q 16.15625 45.0625 14 50.796875 
Q 11.859375 56.546875 8.515625 61.9375 
Q 5.171875 67.328125 0.59375 72.46875 
L 9.078125 72.46875 
Q 13.8125 67.328125 17.234375 61.953125 
Q 20.65625 56.59375 22.84375 50.875 
Q 25.046875 45.171875 26.0625 38.96875 
Q 27.09375 32.765625 27.09375 25.984375 
z
" id="LiberationSans-41"/>
      </defs>
      <use transform="translate(0 0.53125)" xlink:href="#DejaVuSans-Oblique-116"/>
      <use transform="translate(39.208984 0.53125)" xlink:href="#LiberationSans-32"/>
      <use transform="translate(66.992188 0.53125)" xlink:href="#LiberationSans-40"/>
      <use transform="translate(100.292969 0.53125)" xlink:href="#LiberationSans-109"/>
      <use transform="translate(183.59375 0.53125)" xlink:href="#LiberationSans-115"/>
      <use transform="translate(233.59375 0.53125)" xlink:href="#LiberationSans-41"/>
     </g>
    </g>
   </g>
   <g id="matplotlib.axis_4">
    <g id="ytick_4">
     <g id="line2d_22">
      <g>
       <use style="fill:#ffffff;stroke:#ffffff;stroke-width:0.8;" x="57.6" xlink:href="#me8f4b4d537" y="289.362887"/>
      </g>
     </g>
     <g id="text_19">
      <!-- −0.100 -->
      <g style="fill:#ffffff;" transform="translate(19.7375 292.986325)scale(0.1 -0.1)">
       <defs>
        <path d="M 4.9375 29.6875 
L 4.9375 36.8125 
L 53.515625 36.8125 
L 53.515625 29.6875 
z
" id="LiberationSans-8722"/>
       </defs>
       <use xlink:href="#LiberationSans-8722"/>
       <use x="58.398438" xlink:href="#LiberationSans-48"/>
       <use x="114.013672" xlink:href="#LiberationSans-46"/>
       <use x="141.796875" xlink:href="#LiberationSans-49"/>
       <use x="197.412109" xlink:href="#LiberationSans-48"/>
       <use x="253.027344" xlink:href="#LiberationSans-48"/>
      </g>
     </g>
    </g>
    <g id="ytick_5">
     <g id="line2d_23">
      <g>
       <use style="fill:#ffffff;stroke:#ffffff;stroke-width:0.8;" x="57.6" xlink:href="#me8f4b4d537" y="265.052711"/>
      </g>
     </g>
     <g id="text_20">
      <!-- −0.075 -->
      <g style="fill:#ffffff;" transform="translate(19.7375 268.676148)scale(0.1 -0.1)">
       <defs>
        <path d="M 50.59375 61.671875 
Q 45.40625 53.765625 41.0625 46.453125 
Q 36.71875 39.15625 33.59375 31.75 
Q 30.46875 24.359375 28.734375 16.578125 
Q 27 8.796875 27 0 
L 17.828125 0 
Q 17.828125 8.25 19.78125 16.1875 
Q 21.734375 24.125 25.046875 31.765625 
Q 28.375 39.40625 32.765625 46.78125 
Q 37.15625 54.15625 42.09375 61.328125 
L 5.125 61.328125 
L 5.125 68.796875 
L 50.59375 68.796875 
z
" id="LiberationSans-55"/>
       </defs>
       <use xlink:href="#LiberationSans-8722"/>
       <use x="58.398438" xlink:href="#LiberationSans-48"/>
       <use x="114.013672" xlink:href="#LiberationSans-46"/>
       <use x="141.796875" xlink:href="#LiberationSans-48"/>
       <use x="197.412109" xlink:href="#LiberationSans-55"/>
       <use x="253.027344" xlink:href="#LiberationSans-53"/>
      </g>
     </g>
    </g>
    <g id="ytick_6">
     <g id="line2d_24">
      <g>
       <use style="fill:#ffffff;stroke:#ffffff;stroke-width:0.8;" x="57.6" xlink:href="#me8f4b4d537" y="240.742535"/>
      </g>
     </g>
     <g id="text_21">
      <!-- −0.050 -->
      <g style="fill:#ffffff;" transform="translate(19.7375 244.365972)scale(0.1 -0.1)">
       <use xlink:href="#LiberationSans-8722"/>
       <use x="58.398438" xlink:href="#LiberationSans-48"/>
       <use x="114.013672" xlink:href="#LiberationSans-46"/>
       <use x="141.796875" xlink:href="#LiberationSans-48"/>
       <use x="197.412109" xlink:href="#LiberationSans-53"/>
       <use x="253.027344" xlink:href="#LiberationSans-48"/>
      </g>
     </g>
    </g>
    <g id="ytick_7">
     <g id="line2d_25">
      <g>
       <use style="fill:#ffffff;stroke:#ffffff;stroke-width:0.8;" x="57.6" xlink:href="#me8f4b4d537" y="216.432358"/>
      </g>
     </g>
     <g id="text_22">
      <!-- −0.025 -->
      <g style="fill:#ffffff;" transform="translate(19.7375 220.055796)scale(0.1 -0.1)">
       <use xlink:href="#LiberationSans-8722"/>
       <use x="58.398438" xlink:href="#LiberationSans-48"/>
       <use x="114.013672" xlink:href="#LiberationSans-46"/>
       <use x="141.796875" xlink:href="#LiberationSans-48"/>
       <use x="197.412109" xlink:href="#LiberationSans-50"/>
       <use x="253.027344" xlink:href="#LiberationSans-53"/>
      </g>
     </g>
    </g>
    <g id="ytick_8">
     <g id="line2d_26">
      <g>
       <use style="fill:#ffffff;stroke:#ffffff;stroke-width:0.8;" x="57.6" xlink:href="#me8f4b4d537" y="192.122182"/>
      </g>
     </g>
     <g id="text_23">
      <!-- 0.000 -->
      <g style="fill:#ffffff;" transform="translate(25.578125 195.745619)scale(0.1 -0.1)">
       <use xlink:href="#LiberationSans-48"/>
       <use x="55.615234" xlink:href="#LiberationSans-46"/>
       <use x="83.398438" xlink:href="#LiberationSans-48"/>
       <use x="139.013672" xlink:href="#LiberationSans-48"/>
       <use x="194.628906" xlink:href="#LiberationSans-48"/>
      </g>
     </g>
    </g>
   </g>
   <g id="line2d_27">
    <path clip-path="url(#pe513cad923)" d="M 73.832727 282.158941 
L 75.066661 266.578903 
L 76.300595 253.694847 
L 77.534529 243.04026 
L 78.768464 234.229351 
L 80.002398 226.94309 
L 80.197229 225.913977 
L 80.262173 275.253177 
L 80.327117 274.42601 
L 81.561051 260.184084 
L 82.794985 248.406594 
L 84.028919 238.66709 
L 84.093863 287.879395 
L 84.158807 286.926595 
L 85.392741 270.521557 
L 86.626675 256.955261 
L 87.860609 245.736489 
L 88.315216 242.111831 
L 88.38016 291.289859 
L 88.445104 290.303125 
L 89.679038 273.313809 
L 90.912972 259.26434 
L 92.146906 247.646003 
L 93.380841 238.038113 
L 94.614775 230.09278 
L 95.394101 225.799081 
L 95.459045 275.139425 
L 95.523989 274.31339 
L 96.757923 260.090952 
L 97.991857 248.329577 
L 99.225791 238.603401 
L 100.459725 230.56025 
L 101.693659 223.908894 
L 102.148267 221.759915 
L 102.213211 271.140449 
L 102.278155 270.354204 
L 103.512089 256.816867 
L 104.746023 245.622043 
L 105.979957 236.364381 
L 107.213891 228.708672 
L 107.928274 224.897609 
L 107.993218 274.246922 
L 108.058161 273.429767 
L 109.292096 259.360232 
L 110.52603 247.725302 
L 111.759964 238.10369 
L 112.993898 230.14701 
L 114.162888 223.883188 
L 114.227832 273.242595 
L 114.292776 272.435433 
L 115.52671 258.537959 
L 116.760644 247.045315 
L 117.994578 237.541369 
L 118.059522 286.764874 
L 118.124466 285.823164 
L 119.3584 269.609065 
L 120.592334 256.200667 
L 121.826268 245.112471 
L 123.060202 235.942985 
L 124.294136 228.360196 
L 125.398182 222.694919 
L 125.463126 272.066149 
L 125.52807 271.270694 
L 126.762004 257.574767 
L 127.995938 246.248795 
L 129.229872 236.882679 
L 130.204031 230.647899 
L 130.268975 279.939995 
L 130.333918 279.066194 
L 131.567852 264.021327 
L 132.801787 251.579836 
L 134.035721 241.291232 
L 135.269655 232.782977 
L 136.503589 225.746998 
L 137.542691 220.77536 
L 137.607635 270.16569 
L 137.672579 269.389144 
L 138.906513 256.018802 
L 140.140447 244.962076 
L 141.374381 235.818615 
L 142.608315 228.257346 
L 143.842249 222.004486 
L 145.076183 216.833626 
L 145.141127 266.263177 
L 145.206071 265.525462 
L 146.440005 252.823695 
L 147.673939 242.319853 
L 148.907873 233.633604 
L 150.141807 226.450432 
L 150.661358 223.81115 
L 150.726302 273.171274 
L 150.791246 272.364822 
L 152.02518 258.479566 
L 153.259114 246.997027 
L 154.493048 237.501436 
L 155.726982 229.648971 
L 156.960917 223.155303 
L 158.194851 217.785305 
L 159.428785 213.344536 
L 159.883392 211.909773 
L 159.948336 261.388318 
L 160.01328 260.699108 
L 161.247214 248.832497 
L 162.481148 239.019295 
L 163.650138 231.293944 
L 163.715082 280.579612 
L 163.780026 279.699446 
L 165.01396 264.545001 
L 166.247894 252.012893 
L 167.481828 241.649353 
L 168.715762 233.079128 
L 168.910594 231.868667 
L 168.975538 281.148618 
L 169.040482 280.26279 
L 170.274416 265.010863 
L 171.50835 252.398142 
L 172.742284 241.967938 
L 173.976218 233.342585 
L 175.210152 226.209771 
L 175.729703 223.588992 
L 175.794647 272.951327 
L 175.859591 272.147063 
L 177.093525 258.299488 
L 178.327459 246.84811 
L 179.561393 237.378288 
L 180.795327 229.547132 
L 181.055103 228.079679 
L 181.120047 277.39733 
L 181.18499 276.548828 
L 182.418925 261.939568 
L 183.652859 249.858307 
L 184.886793 239.867598 
L 186.120727 231.60569 
L 186.51039 229.306349 
L 186.575334 278.611795 
L 186.640278 277.751209 
L 187.874212 262.933888 
L 189.108146 250.680569 
L 190.34208 240.547575 
L 191.576014 232.168003 
L 192.225453 228.357139 
L 192.290397 277.67203 
L 192.355341 276.820794 
L 193.589275 262.164473 
L 194.823209 250.044294 
L 196.057143 240.021402 
L 197.291077 231.732879 
L 197.356021 231.338746 
L 197.420965 280.623969 
L 197.485909 279.743362 
L 198.719843 264.581317 
L 199.953777 252.042925 
L 201.187711 241.674188 
L 201.772206 237.409306 
L 201.83715 286.634125 
L 201.902094 285.693716 
L 203.136028 269.502017 
L 204.369962 256.112143 
L 205.603896 245.039265 
L 206.83783 235.882447 
L 208.071764 228.310133 
L 209.305698 222.048138 
L 209.630418 220.588632 
L 209.695362 269.980821 
L 209.760306 269.206114 
L 210.99424 255.867444 
L 212.228174 244.836908 
L 213.462108 235.715106 
L 214.696042 228.171749 
L 215.929976 221.933701 
L 217.16391 216.77509 
L 218.397844 212.509129 
L 219.696722 208.813603 
L 219.82661 208.48309 
L 219.891554 257.995731 
L 219.956497 257.340278 
L 221.190432 246.054882 
L 222.424366 236.722321 
L 223.6583 229.004674 
L 224.892234 222.622496 
L 225.931336 218.112835 
L 225.99628 267.529658 
L 226.061224 266.779341 
L 227.295158 253.860601 
L 228.529092 243.177332 
L 229.763026 234.342704 
L 230.99696 227.036829 
L 231.256736 225.667806 
L 231.32168 275.009456 
L 231.386624 274.184713 
L 232.620558 259.984542 
L 233.854492 248.24158 
L 235.088426 238.530631 
L 236.32236 230.500073 
L 237.49135 224.178091 
L 237.556294 273.534563 
L 237.621238 272.724497 
L 238.855172 258.777002 
L 240.089106 247.242994 
L 241.258096 238.162955 
L 241.32304 287.380276 
L 241.387984 286.432442 
L 242.621918 270.112913 
L 243.855852 256.617329 
L 245.089786 245.457033 
L 246.32372 236.227924 
L 247.49271 228.962394 
L 247.557654 278.271262 
L 247.622598 277.414065 
L 248.856532 262.655084 
L 250.090466 250.450009 
L 251.3244 240.356911 
L 251.389344 289.552402 
L 251.454288 288.582955 
L 252.688222 271.891299 
L 253.922156 258.087982 
L 254.441707 253.01629 
L 254.506651 302.085818 
L 254.571595 300.991662 
L 255.805529 282.152793 
L 257.039463 266.573818 
L 258.273397 253.690642 
L 259.507331 243.036782 
L 260.741265 234.226476 
L 261.910256 227.290644 
L 261.975199 276.616147 
L 262.040143 275.775418 
L 263.274077 261.299989 
L 264.508011 249.329402 
L 265.741945 239.430215 
L 266.97588 231.243992 
L 268.209814 224.47432 
L 269.443748 218.876078 
L 270.677682 214.246561 
L 270.80757 213.808468 
L 270.872513 263.268121 
L 270.937457 262.560207 
L 272.171391 250.37155 
L 273.405325 240.292029 
L 274.509372 232.761387 
L 274.574316 282.032454 
L 274.639259 281.137832 
L 275.873194 265.734487 
L 277.107128 252.99655 
L 278.341062 242.462797 
L 279.574996 233.751813 
L 280.614098 227.596613 
L 280.679042 276.919071 
L 280.743986 276.075328 
L 281.97792 261.548003 
L 283.211854 249.534499 
L 284.445788 239.599822 
L 285.679722 231.38425 
L 285.744666 230.993586 
L 285.80961 280.282243 
L 285.874554 279.405036 
L 287.108488 264.301535 
L 288.342422 251.811557 
L 288.797029 247.776187 
L 288.861973 296.897854 
L 288.926917 295.855319 
L 290.160851 277.905247 
L 291.394785 263.061271 
L 292.628719 250.78591 
L 293.862653 240.634687 
L 295.096587 232.240041 
L 296.330521 225.298012 
L 296.785129 223.055121 
L 296.850073 272.422767 
L 296.915016 271.623763 
L 298.148951 257.866741 
L 299.382885 246.490245 
L 300.616819 237.082349 
L 301.850753 229.302402 
L 303.084687 222.868705 
L 304.318621 217.5483 
L 304.578396 216.551327 
L 304.64334 265.983688 
L 304.708284 265.248753 
L 305.942218 252.594868 
L 307.176152 242.130622 
L 308.410086 233.477118 
L 309.64402 226.321024 
L 310.358403 222.758672 
L 310.423347 272.129268 
L 310.488291 271.333185 
L 311.722225 257.626444 
L 312.956159 246.29153 
L 314.190093 236.918019 
L 315.424027 229.166508 
L 316.528074 223.375177 
L 316.593018 272.739639 
L 316.657961 271.937481 
L 317.891895 258.126173 
L 319.12583 246.704785 
L 320.359764 237.259764 
L 321.593698 229.449118 
L 322.827632 222.990032 
L 324.061566 217.648633 
L 324.516173 215.922887 
L 324.581117 265.3615 
L 324.646061 264.632757 
L 325.879995 252.085464 
L 327.113929 241.709366 
L 327.9582 235.664462 
L 328.023144 284.906643 
L 328.088087 283.983422 
L 329.322021 268.087674 
L 330.555956 254.942539 
L 331.78989 244.07205 
L 333.023824 235.0826 
L 334.257758 227.648692 
L 335.491692 221.501154 
L 336.725626 216.417391 
L 337.050345 215.2325 
L 337.115289 264.677982 
L 337.180233 263.95604 
L 338.414167 251.525847 
L 339.648101 241.246585 
L 340.882035 232.746056 
L 341.661362 228.152326 
L 341.726306 277.469254 
L 341.79125 276.620037 
L 343.025184 261.998455 
L 344.259118 249.907004 
L 344.843613 244.933533 
L 344.908557 294.083485 
L 344.973501 293.068953 
L 346.207435 275.601037 
L 347.441369 261.155783 
L 348.675303 249.210149 
L 349.909237 239.331598 
L 351.143171 231.16244 
L 351.662722 228.160882 
L 351.727666 277.477725 
L 351.79261 276.628423 
L 353.026544 262.00539 
L 354.260478 249.912739 
L 355.494412 239.912611 
L 356.728346 231.642914 
L 357.96228 224.804212 
L 358.287 223.210291 
L 358.351944 272.576393 
L 358.416888 271.77586 
L 359.650822 257.992519 
L 360.884756 246.594259 
L 362.11869 237.168363 
L 363.352624 229.373533 
L 364.586558 222.927527 
L 364.846334 221.719632 
L 364.911278 271.100567 
L 364.976221 270.314719 
L 366.210155 256.784214 
L 367.44409 245.59504 
L 368.678024 236.342051 
L 369.911958 228.690206 
L 370.886116 223.596572 
L 370.95106 272.958831 
L 371.016004 272.154493 
L 372.249938 258.305632 
L 373.483872 246.853191 
L 374.717806 237.38249 
L 375.95174 229.550607 
L 376.860955 224.660891 
L 376.925899 274.01256 
L 376.990843 273.197737 
L 378.224777 259.168353 
L 379.458711 247.566625 
L 380.692645 237.972471 
L 380.887476 236.61739 
L 380.95242 285.850089 
L 381.017364 284.917481 
L 382.251298 268.860102 
L 383.485232 255.581306 
L 384.719166 244.600284 
L 385.9531 235.519428 
L 387.187034 228.009931 
L 387.576698 225.919991 
L 387.641642 275.259131 
L 387.706586 274.431905 
L 388.94052 260.188959 
L 390.174454 248.410625 
L 391.408388 238.670424 
L 392.642322 230.615676 
L 393.876256 223.954728 
L 395.11019 218.446397 
L 395.954461 215.237355 
L 396.019405 264.682789 
L 396.084349 263.960799 
L 397.318283 251.529783 
L 398.487273 241.743581 
L 398.487273 241.743581 
" style="fill:none;stroke:#9a72ac;stroke-linecap:round;stroke-width:1.5;"/>
   </g>
   <g id="line2d_28">
    <path clip-path="url(#pe513cad923)" d="M 73.832727 192.122182 
L 398.487273 192.122182 
L 398.487273 192.122182 
" style="fill:none;stroke:#cf5044;stroke-linecap:round;stroke-width:1.5;"/>
   </g>
   <g id="patch_8">
    <path d="M 57.6 307.584 
L 57.6 186.624 
" style="fill:none;stroke:#ffffff;stroke-linecap:square;stroke-linejoin:miter;stroke-width:0.8;"/>
   </g>
   <g id="patch_9">
    <path d="M 414.72 307.584 
L 414.72 186.624 
" style="fill:none;stroke:#ffffff;stroke-linecap:square;stroke-linejoin:miter;stroke-width:0.8;"/>
   </g>
   <g id="patch_10">
    <path d="M 57.6 307.584 
L 414.72 307.584 
" style="fill:none;stroke:#ffffff;stroke-linecap:square;stroke-linejoin:miter;stroke-width:0.8;"/>
   </g>
   <g id="patch_11">
    <path d="M 57.6 186.624 
L 414.72 186.624 
" style="fill:none;stroke:#ffffff;stroke-linecap:square;stroke-linejoin:miter;stroke-width:0.8;"/>
   </g>
   <g id="legend_2">
    <g id="line2d_29">
     <path d="M 371.72 278.687125 
L 391.72 278.687125 
" style="fill:none;stroke:#9a72ac;stroke-linecap:round;stroke-width:1.5;"/>
    </g>
    <g id="line2d_30"/>
    <g id="text_24">
     <!-- $\hat{x}$ -->
     <g style="fill:#ffffff;" transform="translate(399.72 282.187125)scale(0.1 -0.1)">
      <use transform="translate(62.373047 12.015625)" xlink:href="#DejaVuSans-770"/>
      <use transform="translate(0 0.828125)" xlink:href="#DejaVuSans-Oblique-120"/>
     </g>
    </g>
    <g id="line2d_31">
     <path d="M 371.72 293.009 
L 391.72 293.009 
" style="fill:none;stroke:#cf5044;stroke-linecap:round;stroke-width:1.5;"/>
    </g>
    <g id="line2d_32"/>
    <g id="text_25">
     <!-- x -->
     <g style="fill:#ffffff;" transform="translate(399.72 296.509)scale(0.1 -0.1)">
      <use xlink:href="#LiberationSans-120"/>
     </g>
    </g>
   </g>
  </g>
  <g id="text_26">
   <!-- Egomotion input/decoding -->
   <g style="fill:#ffffff;" transform="translate(161.02125 15.60825)scale(0.12 -0.12)">
    <defs>
     <path d="M 8.203125 0 
L 8.203125 68.796875 
L 60.40625 68.796875 
L 60.40625 61.1875 
L 17.53125 61.1875 
L 17.53125 39.109375 
L 57.46875 39.109375 
L 57.46875 31.59375 
L 17.53125 31.59375 
L 17.53125 7.625 
L 62.40625 7.625 
L 62.40625 0 
z
" id="LiberationSans-69"/>
     <path d="M 26.765625 -20.75 
Q 22.21875 -20.75 18.703125 -19.8125 
Q 15.1875 -18.890625 12.6875 -17.15625 
Q 10.203125 -15.4375 8.640625 -13.03125 
Q 7.078125 -10.640625 6.390625 -7.71875 
L 15.234375 -6.453125 
Q 16.109375 -10.109375 19.109375 -12.078125 
Q 22.125 -14.0625 27 -14.0625 
Q 29.984375 -14.0625 32.421875 -13.234375 
Q 34.859375 -12.40625 36.5625 -10.5625 
Q 38.28125 -8.734375 39.203125 -5.796875 
Q 40.140625 -2.875 40.140625 1.3125 
L 40.140625 9.8125 
L 40.046875 9.8125 
Q 39.0625 7.8125 37.625 5.984375 
Q 36.1875 4.15625 34.109375 2.734375 
Q 32.03125 1.3125 29.296875 0.453125 
Q 26.5625 -0.390625 23.046875 -0.390625 
Q 18.015625 -0.390625 14.421875 1.296875 
Q 10.84375 2.984375 8.5625 6.34375 
Q 6.296875 9.71875 5.25 14.71875 
Q 4.203125 19.734375 4.203125 26.3125 
Q 4.203125 32.671875 5.25 37.75 
Q 6.296875 42.828125 8.65625 46.359375 
Q 11.03125 49.90625 14.8125 51.78125 
Q 18.609375 53.65625 24.03125 53.65625 
Q 29.640625 53.65625 33.765625 51.09375 
Q 37.890625 48.53125 40.140625 43.796875 
L 40.234375 43.796875 
Q 40.234375 45.015625 40.296875 46.53125 
Q 40.375 48.046875 40.453125 49.390625 
Q 40.53125 50.734375 40.625 51.703125 
Q 40.71875 52.6875 40.828125 52.828125 
L 49.171875 52.828125 
Q 49.125 52.390625 49.078125 51.34375 
Q 49.03125 50.296875 48.96875 48.828125 
Q 48.921875 47.359375 48.890625 45.578125 
Q 48.875 43.796875 48.875 41.890625 
L 48.875 1.515625 
Q 48.875 -9.578125 43.421875 -15.15625 
Q 37.984375 -20.75 26.765625 -20.75 
z
M 40.140625 26.421875 
Q 40.140625 31.9375 38.9375 35.859375 
Q 37.75 39.796875 35.796875 42.28125 
Q 33.84375 44.78125 31.328125 45.953125 
Q 28.8125 47.125 26.171875 47.125 
Q 22.796875 47.125 20.375 45.953125 
Q 17.96875 44.78125 16.375 42.265625 
Q 14.796875 39.75 14.03125 35.8125 
Q 13.28125 31.890625 13.28125 26.421875 
Q 13.28125 20.703125 14.03125 16.8125 
Q 14.796875 12.9375 16.359375 10.546875 
Q 17.921875 8.15625 20.3125 7.125 
Q 22.703125 6.109375 26.03125 6.109375 
Q 28.65625 6.109375 31.171875 7.21875 
Q 33.6875 8.34375 35.6875 10.78125 
Q 37.703125 13.234375 38.921875 17.09375 
Q 40.140625 20.953125 40.140625 26.421875 
z
" id="LiberationSans-103"/>
     <path d="M 51.421875 26.46875 
Q 51.421875 12.59375 45.3125 5.796875 
Q 39.203125 -0.984375 27.59375 -0.984375 
Q 22.078125 -0.984375 17.71875 0.671875 
Q 13.375 2.34375 10.375 5.765625 
Q 7.375 9.1875 5.78125 14.328125 
Q 4.203125 19.484375 4.203125 26.46875 
Q 4.203125 53.8125 27.875 53.8125 
Q 34.03125 53.8125 38.5 52.09375 
Q 42.96875 50.390625 45.828125 46.96875 
Q 48.6875 43.5625 50.046875 38.421875 
Q 51.421875 33.296875 51.421875 26.46875 
z
M 42.1875 26.46875 
Q 42.1875 32.625 41.234375 36.625 
Q 40.28125 40.625 38.453125 43.015625 
Q 36.625 45.40625 33.984375 46.359375 
Q 31.34375 47.3125 28.03125 47.3125 
Q 24.65625 47.3125 21.9375 46.3125 
Q 19.234375 45.3125 17.328125 42.890625 
Q 15.4375 40.484375 14.421875 36.46875 
Q 13.421875 32.46875 13.421875 26.46875 
Q 13.421875 20.3125 14.5 16.28125 
Q 15.578125 12.25 17.453125 9.859375 
Q 19.34375 7.46875 21.90625 6.484375 
Q 24.46875 5.515625 27.484375 5.515625 
Q 30.859375 5.515625 33.59375 6.46875 
Q 36.328125 7.421875 38.234375 9.8125 
Q 40.140625 12.203125 41.15625 16.25 
Q 42.1875 20.3125 42.1875 26.46875 
z
" id="LiberationSans-111"/>
     <path d="M 27.046875 0.390625 
Q 25.046875 -0.140625 22.96875 -0.453125 
Q 20.90625 -0.78125 18.171875 -0.78125 
Q 7.625 -0.78125 7.625 11.1875 
L 7.625 46.4375 
L 1.515625 46.4375 
L 1.515625 52.828125 
L 7.953125 52.828125 
L 10.546875 64.65625 
L 16.40625 64.65625 
L 16.40625 52.828125 
L 26.171875 52.828125 
L 26.171875 46.4375 
L 16.40625 46.4375 
L 16.40625 13.09375 
Q 16.40625 9.28125 17.640625 7.734375 
Q 18.890625 6.203125 21.96875 6.203125 
Q 23.25 6.203125 24.4375 6.390625 
Q 25.640625 6.59375 27.046875 6.890625 
z
" id="LiberationSans-116"/>
     <path d="M 6.6875 64.0625 
L 6.6875 72.46875 
L 15.484375 72.46875 
L 15.484375 64.0625 
z
M 6.6875 0 
L 6.6875 52.828125 
L 15.484375 52.828125 
L 15.484375 0 
z
" id="LiberationSans-105"/>
     <path d="M 40.28125 0 
L 40.28125 33.5 
Q 40.28125 37.359375 39.71875 39.9375 
Q 39.15625 42.53125 37.890625 44.109375 
Q 36.625 45.703125 34.546875 46.359375 
Q 32.46875 47.015625 29.390625 47.015625 
Q 26.265625 47.015625 23.75 45.921875 
Q 21.234375 44.828125 19.453125 42.75 
Q 17.671875 40.671875 16.6875 37.625 
Q 15.71875 34.578125 15.71875 30.609375 
L 15.71875 0 
L 6.9375 0 
L 6.9375 41.546875 
Q 6.9375 43.21875 6.90625 45.046875 
Q 6.890625 46.875 6.828125 48.5 
Q 6.78125 50.140625 6.734375 51.3125 
Q 6.6875 52.484375 6.640625 52.828125 
L 14.9375 52.828125 
Q 14.984375 52.59375 15.03125 51.515625 
Q 15.09375 50.4375 15.15625 49.046875 
Q 15.234375 47.65625 15.28125 46.21875 
Q 15.328125 44.78125 15.328125 43.796875 
L 15.484375 43.796875 
Q 16.75 46.09375 18.265625 47.953125 
Q 19.78125 49.8125 21.78125 51.09375 
Q 23.78125 52.390625 26.359375 53.09375 
Q 28.953125 53.8125 32.375 53.8125 
Q 36.765625 53.8125 39.9375 52.734375 
Q 43.109375 51.65625 45.15625 49.40625 
Q 47.21875 47.171875 48.171875 43.625 
Q 49.125 40.09375 49.125 35.203125 
L 49.125 0 
z
" id="LiberationSans-110"/>
     <path d="M 51.421875 26.65625 
Q 51.421875 20.65625 50.4375 15.578125 
Q 49.46875 10.5 47.1875 6.828125 
Q 44.921875 3.171875 41.1875 1.09375 
Q 37.453125 -0.984375 31.984375 -0.984375 
Q 26.3125 -0.984375 22.0625 1.171875 
Q 17.828125 3.328125 15.578125 8.203125 
L 15.328125 8.203125 
Q 15.375 8.109375 15.40625 7.328125 
Q 15.4375 6.546875 15.453125 5.375 
Q 15.484375 4.203125 15.5 2.75 
Q 15.53125 1.3125 15.53125 -0.09375 
L 15.53125 -20.75 
L 6.734375 -20.75 
L 6.734375 42.046875 
Q 6.734375 43.953125 6.703125 45.703125 
Q 6.6875 47.46875 6.640625 48.90625 
Q 6.59375 50.34375 6.546875 51.359375 
Q 6.5 52.390625 6.453125 52.828125 
L 14.9375 52.828125 
Q 14.984375 52.6875 15.0625 51.796875 
Q 15.140625 50.921875 15.203125 49.671875 
Q 15.28125 48.4375 15.359375 47.015625 
Q 15.4375 45.609375 15.4375 44.34375 
L 15.625 44.34375 
Q 16.84375 46.875 18.40625 48.65625 
Q 19.96875 50.4375 21.96875 51.578125 
Q 23.96875 52.734375 26.4375 53.25 
Q 28.90625 53.765625 31.984375 53.765625 
Q 37.453125 53.765625 41.1875 51.8125 
Q 44.921875 49.859375 47.1875 46.3125 
Q 49.46875 42.78125 50.4375 37.765625 
Q 51.421875 32.765625 51.421875 26.65625 
z
M 42.1875 26.46875 
Q 42.1875 31.34375 41.59375 35.15625 
Q 41.015625 38.96875 39.578125 41.59375 
Q 38.140625 44.234375 35.734375 45.59375 
Q 33.34375 46.96875 29.734375 46.96875 
Q 26.8125 46.96875 24.21875 46.140625 
Q 21.625 45.3125 19.703125 42.96875 
Q 17.78125 40.625 16.65625 36.5 
Q 15.53125 32.375 15.53125 25.78125 
Q 15.53125 20.171875 16.453125 16.28125 
Q 17.390625 12.40625 19.171875 10.015625 
Q 20.953125 7.625 23.578125 6.5625 
Q 26.21875 5.515625 29.640625 5.515625 
Q 33.296875 5.515625 35.71875 6.921875 
Q 38.140625 8.34375 39.578125 11.03125 
Q 41.015625 13.71875 41.59375 17.59375 
Q 42.1875 21.484375 42.1875 26.46875 
z
" id="LiberationSans-112"/>
     <path d="M 15.328125 52.828125 
L 15.328125 19.34375 
Q 15.328125 15.484375 15.890625 12.890625 
Q 16.453125 10.296875 17.71875 8.703125 
Q 19 7.125 21.0625 6.46875 
Q 23.140625 5.8125 26.21875 5.8125 
Q 29.34375 5.8125 31.859375 6.90625 
Q 34.375 8.015625 36.15625 10.078125 
Q 37.9375 12.15625 38.90625 15.203125 
Q 39.890625 18.265625 39.890625 22.21875 
L 39.890625 52.828125 
L 48.6875 52.828125 
L 48.6875 11.28125 
Q 48.6875 9.625 48.703125 7.78125 
Q 48.734375 5.953125 48.78125 4.3125 
Q 48.828125 2.6875 48.875 1.515625 
Q 48.921875 0.34375 48.96875 0 
L 40.671875 0 
Q 40.625 0.25 40.578125 1.3125 
Q 40.53125 2.390625 40.453125 3.78125 
Q 40.375 5.171875 40.328125 6.609375 
Q 40.28125 8.0625 40.28125 9.03125 
L 40.140625 9.03125 
Q 38.875 6.734375 37.359375 4.875 
Q 35.84375 3.03125 33.84375 1.734375 
Q 31.84375 0.4375 29.25 -0.265625 
Q 26.65625 -0.984375 23.25 -0.984375 
Q 18.84375 -0.984375 15.671875 0.09375 
Q 12.5 1.171875 10.453125 3.421875 
Q 8.40625 5.671875 7.453125 9.1875 
Q 6.5 12.703125 6.5 17.625 
L 6.5 52.828125 
z
" id="LiberationSans-117"/>
     <path d="M 0 -0.984375 
L 20.0625 72.46875 
L 27.78125 72.46875 
L 7.90625 -0.984375 
z
" id="LiberationSans-47"/>
     <path d="M 40.09375 8.5 
Q 37.640625 3.421875 33.609375 1.21875 
Q 29.59375 -0.984375 23.640625 -0.984375 
Q 13.625 -0.984375 8.90625 5.75 
Q 4.203125 12.5 4.203125 26.171875 
Q 4.203125 53.8125 23.640625 53.8125 
Q 29.640625 53.8125 33.640625 51.609375 
Q 37.640625 49.421875 40.09375 44.625 
L 40.1875 44.625 
Q 40.1875 45.125 40.15625 46.171875 
Q 40.140625 47.21875 40.109375 48.359375 
Q 40.09375 49.515625 40.09375 50.53125 
Q 40.09375 51.5625 40.09375 52 
L 40.09375 72.46875 
L 48.875 72.46875 
L 48.875 10.890625 
Q 48.875 8.984375 48.890625 7.21875 
Q 48.921875 5.46875 48.96875 4 
Q 49.03125 2.546875 49.078125 1.484375 
Q 49.125 0.4375 49.171875 0 
L 40.765625 0 
Q 40.671875 0.484375 40.59375 1.390625 
Q 40.53125 2.296875 40.453125 3.46875 
Q 40.375 4.640625 40.328125 5.9375 
Q 40.28125 7.234375 40.28125 8.5 
z
M 13.421875 26.46875 
Q 13.421875 21 14.109375 17.09375 
Q 14.796875 13.1875 16.3125 10.671875 
Q 17.828125 8.15625 20.171875 6.984375 
Q 22.515625 5.8125 25.875 5.8125 
Q 29.34375 5.8125 32 6.9375 
Q 34.671875 8.0625 36.453125 10.578125 
Q 38.234375 13.09375 39.15625 17.140625 
Q 40.09375 21.1875 40.09375 27.046875 
Q 40.09375 32.671875 39.15625 36.546875 
Q 38.234375 40.4375 36.421875 42.828125 
Q 34.625 45.21875 32 46.265625 
Q 29.390625 47.3125 25.984375 47.3125 
Q 22.75 47.3125 20.40625 46.1875 
Q 18.0625 45.0625 16.5 42.578125 
Q 14.9375 40.09375 14.171875 36.109375 
Q 13.421875 32.125 13.421875 26.46875 
z
" id="LiberationSans-100"/>
     <path d="M 13.484375 24.5625 
Q 13.484375 20.40625 14.328125 16.90625 
Q 15.1875 13.421875 16.96875 10.90625 
Q 18.75 8.40625 21.53125 7 
Q 24.3125 5.609375 28.21875 5.609375 
Q 33.9375 5.609375 37.375 7.90625 
Q 40.828125 10.203125 42.046875 13.71875 
L 49.75 11.53125 
Q 48.921875 9.328125 47.4375 7.109375 
Q 45.953125 4.890625 43.453125 3.09375 
Q 40.96875 1.3125 37.234375 0.15625 
Q 33.5 -0.984375 28.21875 -0.984375 
Q 16.5 -0.984375 10.375 6 
Q 4.25 12.984375 4.25 26.765625 
Q 4.25 34.1875 6.09375 39.328125 
Q 7.953125 44.484375 11.171875 47.703125 
Q 14.40625 50.921875 18.703125 52.359375 
Q 23 53.8125 27.875 53.8125 
Q 34.515625 53.8125 38.984375 51.65625 
Q 43.453125 49.515625 46.15625 45.71875 
Q 48.875 41.9375 50.015625 36.8125 
Q 51.171875 31.6875 51.171875 25.734375 
L 51.171875 24.5625 
z
M 42.09375 31.296875 
Q 41.359375 39.65625 37.84375 43.484375 
Q 34.328125 47.3125 27.734375 47.3125 
Q 25.53125 47.3125 23.109375 46.609375 
Q 20.703125 45.90625 18.65625 44.09375 
Q 16.609375 42.28125 15.1875 39.171875 
Q 13.765625 36.078125 13.578125 31.296875 
z
" id="LiberationSans-101"/>
     <path d="M 13.421875 26.65625 
Q 13.421875 22.125 14.078125 18.3125 
Q 14.75 14.5 16.3125 11.734375 
Q 17.875 8.984375 20.4375 7.46875 
Q 23 5.953125 26.765625 5.953125 
Q 31.453125 5.953125 34.59375 8.484375 
Q 37.75 11.03125 38.484375 16.3125 
L 47.359375 15.71875 
Q 46.921875 12.453125 45.453125 9.421875 
Q 44 6.390625 41.484375 4.09375 
Q 38.96875 1.8125 35.34375 0.40625 
Q 31.734375 -0.984375 27 -0.984375 
Q 20.796875 -0.984375 16.453125 1.109375 
Q 12.109375 3.21875 9.390625 6.90625 
Q 6.6875 10.59375 5.46875 15.59375 
Q 4.25 20.609375 4.25 26.46875 
Q 4.25 31.78125 5.125 35.859375 
Q 6 39.9375 7.59375 42.984375 
Q 9.1875 46.046875 11.328125 48.125 
Q 13.484375 50.203125 15.984375 51.4375 
Q 18.5 52.6875 21.28125 53.25 
Q 24.078125 53.8125 26.90625 53.8125 
Q 31.34375 53.8125 34.8125 52.59375 
Q 38.28125 51.375 40.796875 49.25 
Q 43.3125 47.125 44.875 44.234375 
Q 46.4375 41.359375 47.078125 38.03125 
L 38.03125 37.359375 
Q 37.359375 41.75 34.5625 44.328125 
Q 31.78125 46.921875 26.65625 46.921875 
Q 22.90625 46.921875 20.390625 45.671875 
Q 17.875 44.4375 16.3125 41.921875 
Q 14.75 39.40625 14.078125 35.59375 
Q 13.421875 31.78125 13.421875 26.65625 
z
" id="LiberationSans-99"/>
    </defs>
    <use xlink:href="#LiberationSans-69"/>
    <use x="66.699219" xlink:href="#LiberationSans-103"/>
    <use x="122.314453" xlink:href="#LiberationSans-111"/>
    <use x="177.929688" xlink:href="#LiberationSans-109"/>
    <use x="261.230469" xlink:href="#LiberationSans-111"/>
    <use x="316.845703" xlink:href="#LiberationSans-116"/>
    <use x="344.628906" xlink:href="#LiberationSans-105"/>
    <use x="366.845703" xlink:href="#LiberationSans-111"/>
    <use x="422.460938" xlink:href="#LiberationSans-110"/>
    <use x="478.076172" xlink:href="#LiberationSans-32"/>
    <use x="505.859375" xlink:href="#LiberationSans-105"/>
    <use x="528.076172" xlink:href="#LiberationSans-110"/>
    <use x="583.691406" xlink:href="#LiberationSans-112"/>
    <use x="639.306641" xlink:href="#LiberationSans-117"/>
    <use x="694.921875" xlink:href="#LiberationSans-116"/>
    <use x="722.705078" xlink:href="#LiberationSans-47"/>
    <use x="750.488281" xlink:href="#LiberationSans-100"/>
    <use x="806.103516" xlink:href="#LiberationSans-101"/>
    <use x="861.71875" xlink:href="#LiberationSans-99"/>
    <use x="911.71875" xlink:href="#LiberationSans-111"/>
    <use x="967.333984" xlink:href="#LiberationSans-100"/>
    <use x="1022.949219" xlink:href="#LiberationSans-105"/>
    <use x="1045.166016" xlink:href="#LiberationSans-110"/>
    <use x="1100.78125" xlink:href="#LiberationSans-103"/>
   </g>
  </g>
 </g>
 <defs>
  <clipPath id="p7c2dbef9bd">
   <rect height="120.96" width="357.12" x="57.6" y="41.472"/>
  </clipPath>
  <clipPath id="pe513cad923">
   <rect height="120.96" width="357.12" x="57.6" y="186.624"/>
  </clipPath>
 </defs>
</svg>
