<?xml version="1.0" encoding="utf-8" standalone="no"?>
<!DOCTYPE svg PUBLIC "-//W3C//DTD SVG 1.1//EN"
  "http://www.w3.org/Graphics/SVG/1.1/DTD/svg11.dtd">
<!-- Created with matplotlib (https://matplotlib.org/) -->
<svg height="345.6pt" version="1.1" viewBox="0 0 460.8 345.6" width="460.8pt" xmlns="http://www.w3.org/2000/svg" xmlns:xlink="http://www.w3.org/1999/xlink">
 <metadata>
  <rdf:RDF xmlns:cc="http://creativecommons.org/ns#" xmlns:dc="http://purl.org/dc/elements/1.1/" xmlns:rdf="http://www.w3.org/1999/02/22-rdf-syntax-ns#">
   <cc:Work>
    <dc:type rdf:resource="http://purl.org/dc/dcmitype/StillImage"/>
    <dc:date>2022-05-05T12:11:56.628225</dc:date>
    <dc:format>image/svg+xml</dc:format>
    <dc:creator>
     <cc:Agent>
      <dc:title>Matplotlib v3.3.4, https://matplotlib.org/</dc:title>
     </cc:Agent>
    </dc:creator>
   </cc:Work>
  </rdf:RDF>
 </metadata>
 <defs>
  <style type="text/css">*{stroke-linecap:butt;stroke-linejoin:round;}</style>
 </defs>
 <g id="figure_1">
  <g id="patch_1">
   <path d="M 0 345.6 
L 460.8 345.6 
L 460.8 0 
L 0 0 
z
" style="fill:#262626;"/>
  </g>
  <g id="axes_1">
   <g id="patch_2">
    <path d="M 57.6 119.740235 
L 414.72 119.740235 
L 414.72 41.472 
L 57.6 41.472 
z
" style="fill:#1a1a1a;"/>
   </g>
   <g id="matplotlib.axis_1">
    <g id="xtick_1">
     <g id="line2d_1">
      <defs>
       <path d="M 0 0 
L 0 3.5 
" id="m092c2c23ee" style="stroke:#ffffff;stroke-width:0.8;"/>
      </defs>
      <g>
       <use style="fill:#ffffff;stroke:#ffffff;stroke-width:0.8;" x="73.832727" xlink:href="#m092c2c23ee" y="119.740235"/>
      </g>
     </g>
     <g id="text_1">
      <!-- 0 -->
      <g style="fill:#ffffff;" transform="translate(71.052259 133.98711)scale(0.1 -0.1)">
       <defs>
        <path d="M 51.703125 34.421875 
Q 51.703125 24.515625 49.828125 17.75 
Q 47.953125 10.984375 44.703125 6.8125 
Q 41.453125 2.640625 37.0625 0.828125 
Q 32.671875 -0.984375 27.6875 -0.984375 
Q 22.65625 -0.984375 18.3125 0.828125 
Q 13.96875 2.640625 10.765625 6.78125 
Q 7.5625 10.9375 5.734375 17.703125 
Q 3.90625 24.46875 3.90625 34.421875 
Q 3.90625 44.828125 5.734375 51.640625 
Q 7.5625 58.453125 10.78125 62.5 
Q 14.015625 66.546875 18.40625 68.1875 
Q 22.796875 69.828125 27.984375 69.828125 
Q 32.90625 69.828125 37.21875 68.1875 
Q 41.546875 66.546875 44.765625 62.5 
Q 48 58.453125 49.84375 51.640625 
Q 51.703125 44.828125 51.703125 34.421875 
z
M 42.78125 34.421875 
Q 42.78125 42.625 41.796875 48.0625 
Q 40.828125 53.515625 38.921875 56.765625 
Q 37.015625 60.015625 34.25 61.359375 
Q 31.5 62.703125 27.984375 62.703125 
Q 24.265625 62.703125 21.4375 61.328125 
Q 18.609375 59.96875 16.671875 56.71875 
Q 14.75 53.46875 13.765625 48.015625 
Q 12.796875 42.578125 12.796875 34.421875 
Q 12.796875 26.515625 13.796875 21.09375 
Q 14.796875 15.671875 16.71875 12.375 
Q 18.65625 9.078125 21.4375 7.640625 
Q 24.21875 6.203125 27.78125 6.203125 
Q 31.25 6.203125 34.03125 7.640625 
Q 36.8125 9.078125 38.734375 12.375 
Q 40.671875 15.671875 41.71875 21.09375 
Q 42.78125 26.515625 42.78125 34.421875 
z
" id="LiberationSans-48"/>
       </defs>
       <use xlink:href="#LiberationSans-48"/>
      </g>
     </g>
    </g>
    <g id="xtick_2">
     <g id="line2d_2">
      <g>
       <use style="fill:#ffffff;stroke:#ffffff;stroke-width:0.8;" x="138.776625" xlink:href="#m092c2c23ee" y="119.740235"/>
      </g>
     </g>
     <g id="text_2">
      <!-- 200 -->
      <g style="fill:#ffffff;" transform="translate(130.435219 133.98711)scale(0.1 -0.1)">
       <defs>
        <path d="M 5.03125 0 
L 5.03125 6.203125 
Q 7.515625 11.921875 11.109375 16.28125 
Q 14.703125 20.65625 18.65625 24.1875 
Q 22.609375 27.734375 26.484375 30.765625 
Q 30.375 33.796875 33.5 36.8125 
Q 36.625 39.84375 38.546875 43.15625 
Q 40.484375 46.484375 40.484375 50.6875 
Q 40.484375 53.609375 39.59375 55.828125 
Q 38.71875 58.0625 37.0625 59.5625 
Q 35.40625 61.078125 33.078125 61.828125 
Q 30.765625 62.59375 27.9375 62.59375 
Q 25.296875 62.59375 22.96875 61.859375 
Q 20.65625 61.140625 18.84375 59.671875 
Q 17.046875 58.203125 15.890625 56.03125 
Q 14.75 53.859375 14.40625 50.984375 
L 5.421875 51.8125 
Q 5.859375 55.515625 7.46875 58.78125 
Q 9.078125 62.0625 11.90625 64.53125 
Q 14.75 67 18.71875 68.40625 
Q 22.703125 69.828125 27.9375 69.828125 
Q 33.0625 69.828125 37.0625 68.609375 
Q 41.0625 67.390625 43.8125 64.984375 
Q 46.578125 62.59375 48.046875 59.078125 
Q 49.515625 55.5625 49.515625 50.984375 
Q 49.515625 47.515625 48.265625 44.390625 
Q 47.015625 41.265625 44.9375 38.421875 
Q 42.875 35.59375 40.140625 32.953125 
Q 37.40625 30.328125 34.421875 27.8125 
Q 31.453125 25.296875 28.421875 22.828125 
Q 25.390625 20.359375 22.71875 17.859375 
Q 20.0625 15.375 17.96875 12.8125 
Q 15.875 10.25 14.703125 7.46875 
L 50.59375 7.46875 
L 50.59375 0 
z
" id="LiberationSans-50"/>
       </defs>
       <use xlink:href="#LiberationSans-50"/>
       <use x="55.615234" xlink:href="#LiberationSans-48"/>
       <use x="111.230469" xlink:href="#LiberationSans-48"/>
      </g>
     </g>
    </g>
    <g id="xtick_3">
     <g id="line2d_3">
      <g>
       <use style="fill:#ffffff;stroke:#ffffff;stroke-width:0.8;" x="203.720523" xlink:href="#m092c2c23ee" y="119.740235"/>
      </g>
     </g>
     <g id="text_3">
      <!-- 400 -->
      <g style="fill:#ffffff;" transform="translate(195.379117 133.98711)scale(0.1 -0.1)">
       <defs>
        <path d="M 43.015625 15.578125 
L 43.015625 0 
L 34.71875 0 
L 34.71875 15.578125 
L 2.296875 15.578125 
L 2.296875 22.40625 
L 33.796875 68.796875 
L 43.015625 68.796875 
L 43.015625 22.515625 
L 52.6875 22.515625 
L 52.6875 15.578125 
z
M 34.71875 58.890625 
Q 34.625 58.640625 34.234375 57.9375 
Q 33.84375 57.234375 33.34375 56.34375 
Q 32.859375 55.46875 32.34375 54.5625 
Q 31.84375 53.65625 31.453125 53.078125 
L 13.8125 27.09375 
Q 13.578125 26.703125 13.109375 26.0625 
Q 12.640625 25.4375 12.15625 24.78125 
Q 11.671875 24.125 11.171875 23.484375 
Q 10.6875 22.859375 10.40625 22.515625 
L 34.71875 22.515625 
z
" id="LiberationSans-52"/>
       </defs>
       <use xlink:href="#LiberationSans-52"/>
       <use x="55.615234" xlink:href="#LiberationSans-48"/>
       <use x="111.230469" xlink:href="#LiberationSans-48"/>
      </g>
     </g>
    </g>
    <g id="xtick_4">
     <g id="line2d_4">
      <g>
       <use style="fill:#ffffff;stroke:#ffffff;stroke-width:0.8;" x="268.664421" xlink:href="#m092c2c23ee" y="119.740235"/>
      </g>
     </g>
     <g id="text_4">
      <!-- 600 -->
      <g style="fill:#ffffff;" transform="translate(260.323015 133.98711)scale(0.1 -0.1)">
       <defs>
        <path d="M 51.21875 22.515625 
Q 51.21875 17.328125 49.78125 13 
Q 48.34375 8.6875 45.53125 5.578125 
Q 42.71875 2.484375 38.5625 0.75 
Q 34.421875 -0.984375 29 -0.984375 
Q 23 -0.984375 18.5 1.3125 
Q 14.015625 3.609375 11.03125 7.921875 
Q 8.0625 12.25 6.5625 18.53125 
Q 5.078125 24.8125 5.078125 32.8125 
Q 5.078125 42 6.765625 48.921875 
Q 8.453125 55.859375 11.625 60.5 
Q 14.796875 65.140625 19.359375 67.484375 
Q 23.921875 69.828125 29.6875 69.828125 
Q 33.203125 69.828125 36.28125 69.09375 
Q 39.359375 68.359375 41.875 66.71875 
Q 44.390625 65.09375 46.28125 62.40625 
Q 48.1875 59.71875 49.3125 55.8125 
L 40.921875 54.296875 
Q 39.546875 58.734375 36.546875 60.71875 
Q 33.546875 62.703125 29.59375 62.703125 
Q 25.984375 62.703125 23.046875 60.984375 
Q 20.125 59.28125 18.0625 55.875 
Q 16.015625 52.484375 14.90625 47.359375 
Q 13.8125 42.234375 13.8125 35.40625 
Q 16.21875 39.84375 20.5625 42.15625 
Q 24.90625 44.484375 30.515625 44.484375 
Q 35.203125 44.484375 39.015625 42.96875 
Q 42.828125 41.453125 45.53125 38.59375 
Q 48.25 35.75 49.734375 31.671875 
Q 51.21875 27.59375 51.21875 22.515625 
z
M 42.28125 22.125 
Q 42.28125 25.6875 41.40625 28.5625 
Q 40.53125 31.453125 38.765625 33.46875 
Q 37.015625 35.5 34.421875 36.59375 
Q 31.84375 37.703125 28.421875 37.703125 
Q 26.03125 37.703125 23.578125 36.984375 
Q 21.140625 36.28125 19.15625 34.6875 
Q 17.1875 33.109375 15.9375 30.515625 
Q 14.703125 27.9375 14.703125 24.21875 
Q 14.703125 20.40625 15.671875 17.109375 
Q 16.65625 13.8125 18.484375 11.375 
Q 20.3125 8.9375 22.890625 7.515625 
Q 25.484375 6.109375 28.71875 6.109375 
Q 31.890625 6.109375 34.40625 7.203125 
Q 36.921875 8.296875 38.671875 10.375 
Q 40.4375 12.453125 41.359375 15.421875 
Q 42.28125 18.40625 42.28125 22.125 
z
" id="LiberationSans-54"/>
       </defs>
       <use xlink:href="#LiberationSans-54"/>
       <use x="55.615234" xlink:href="#LiberationSans-48"/>
       <use x="111.230469" xlink:href="#LiberationSans-48"/>
      </g>
     </g>
    </g>
    <g id="xtick_5">
     <g id="line2d_5">
      <g>
       <use style="fill:#ffffff;stroke:#ffffff;stroke-width:0.8;" x="333.608319" xlink:href="#m092c2c23ee" y="119.740235"/>
      </g>
     </g>
     <g id="text_5">
      <!-- 800 -->
      <g style="fill:#ffffff;" transform="translate(325.266913 133.98711)scale(0.1 -0.1)">
       <defs>
        <path d="M 51.265625 19.1875 
Q 51.265625 14.796875 49.875 11.109375 
Q 48.484375 7.421875 45.625 4.734375 
Q 42.78125 2.046875 38.328125 0.53125 
Q 33.890625 -0.984375 27.828125 -0.984375 
Q 21.78125 -0.984375 17.359375 0.53125 
Q 12.9375 2.046875 10.03125 4.703125 
Q 7.125 7.375 5.734375 11.0625 
Q 4.34375 14.75 4.34375 19.09375 
Q 4.34375 22.859375 5.484375 25.78125 
Q 6.640625 28.71875 8.5625 30.828125 
Q 10.5 32.953125 12.96875 34.25 
Q 15.4375 35.546875 18.0625 35.984375 
L 18.0625 36.1875 
Q 15.1875 36.859375 12.90625 38.375 
Q 10.640625 39.890625 9.09375 42.015625 
Q 7.5625 44.140625 6.75 46.71875 
Q 5.953125 49.3125 5.953125 52.203125 
Q 5.953125 55.8125 7.34375 59 
Q 8.734375 62.203125 11.46875 64.625 
Q 14.203125 67.046875 18.25 68.4375 
Q 22.3125 69.828125 27.640625 69.828125 
Q 33.25 69.828125 37.375 68.40625 
Q 41.5 67 44.203125 64.578125 
Q 46.921875 62.15625 48.234375 58.9375 
Q 49.5625 55.71875 49.5625 52.09375 
Q 49.5625 49.265625 48.75 46.671875 
Q 47.953125 44.09375 46.40625 41.96875 
Q 44.875 39.84375 42.59375 38.34375 
Q 40.328125 36.859375 37.359375 36.28125 
L 37.359375 36.078125 
Q 40.328125 35.59375 42.859375 34.296875 
Q 45.40625 33.015625 47.265625 30.890625 
Q 49.125 28.765625 50.1875 25.828125 
Q 51.265625 22.90625 51.265625 19.1875 
z
M 40.4375 51.609375 
Q 40.4375 54.203125 39.765625 56.34375 
Q 39.109375 58.5 37.59375 60.03125 
Q 36.078125 61.578125 33.640625 62.421875 
Q 31.203125 63.28125 27.640625 63.28125 
Q 24.171875 63.28125 21.78125 62.421875 
Q 19.390625 61.578125 17.84375 60.03125 
Q 16.3125 58.5 15.625 56.34375 
Q 14.9375 54.203125 14.9375 51.609375 
Q 14.9375 49.5625 15.46875 47.40625 
Q 16.015625 45.265625 17.421875 43.5 
Q 18.84375 41.75 21.328125 40.625 
Q 23.828125 39.5 27.734375 39.5 
Q 31.890625 39.5 34.40625 40.625 
Q 36.921875 41.75 38.25 43.5 
Q 39.59375 45.265625 40.015625 47.40625 
Q 40.4375 49.5625 40.4375 51.609375 
z
M 42.140625 20.015625 
Q 42.140625 22.515625 41.453125 24.828125 
Q 40.765625 27.15625 39.109375 28.9375 
Q 37.453125 30.71875 34.640625 31.8125 
Q 31.84375 32.90625 27.640625 32.90625 
Q 23.78125 32.90625 21.0625 31.8125 
Q 18.359375 30.71875 16.671875 28.90625 
Q 14.984375 27.09375 14.203125 24.71875 
Q 13.421875 22.359375 13.421875 19.828125 
Q 13.421875 16.65625 14.203125 14.03125 
Q 14.984375 11.421875 16.6875 9.546875 
Q 18.40625 7.671875 21.1875 6.640625 
Q 23.96875 5.609375 27.9375 5.609375 
Q 31.9375 5.609375 34.671875 6.640625 
Q 37.40625 7.671875 39.0625 9.546875 
Q 40.71875 11.421875 41.421875 14.078125 
Q 42.140625 16.75 42.140625 20.015625 
z
" id="LiberationSans-56"/>
       </defs>
       <use xlink:href="#LiberationSans-56"/>
       <use x="55.615234" xlink:href="#LiberationSans-48"/>
       <use x="111.230469" xlink:href="#LiberationSans-48"/>
      </g>
     </g>
    </g>
    <g id="xtick_6">
     <g id="line2d_6">
      <g>
       <use style="fill:#ffffff;stroke:#ffffff;stroke-width:0.8;" x="398.552217" xlink:href="#m092c2c23ee" y="119.740235"/>
      </g>
     </g>
     <g id="text_6">
      <!-- 1000 -->
      <g style="fill:#ffffff;" transform="translate(387.430342 133.98711)scale(0.1 -0.1)">
       <defs>
        <path d="M 7.625 0 
L 7.625 7.46875 
L 25.140625 7.46875 
L 25.140625 60.40625 
L 9.625 49.3125 
L 9.625 57.625 
L 25.875 68.796875 
L 33.984375 68.796875 
L 33.984375 7.46875 
L 50.734375 7.46875 
L 50.734375 0 
z
" id="LiberationSans-49"/>
       </defs>
       <use xlink:href="#LiberationSans-49"/>
       <use x="55.615234" xlink:href="#LiberationSans-48"/>
       <use x="111.230469" xlink:href="#LiberationSans-48"/>
       <use x="166.845703" xlink:href="#LiberationSans-48"/>
      </g>
     </g>
    </g>
   </g>
   <g id="matplotlib.axis_2">
    <g id="ytick_1">
     <g id="line2d_7">
      <defs>
       <path d="M 0 0 
L -3.5 0 
" id="mfaf8abfd1a" style="stroke:#ffffff;stroke-width:0.8;"/>
      </defs>
      <g>
       <use style="fill:#ffffff;stroke:#ffffff;stroke-width:0.8;" x="57.6" xlink:href="#mfaf8abfd1a" y="107.359836"/>
      </g>
     </g>
     <g id="text_7">
      <!-- −1 -->
      <g style="fill:#ffffff;" transform="translate(39.198437 110.983274)scale(0.1 -0.1)">
       <defs>
        <path d="M 4.9375 29.6875 
L 4.9375 36.8125 
L 53.515625 36.8125 
L 53.515625 29.6875 
z
" id="LiberationSans-8722"/>
       </defs>
       <use xlink:href="#LiberationSans-8722"/>
       <use x="58.398438" xlink:href="#LiberationSans-49"/>
      </g>
     </g>
    </g>
    <g id="ytick_2">
     <g id="line2d_8">
      <g>
       <use style="fill:#ffffff;stroke:#ffffff;stroke-width:0.8;" x="57.6" xlink:href="#mfaf8abfd1a" y="73.904149"/>
      </g>
     </g>
     <g id="text_8">
      <!-- 0 -->
      <g style="fill:#ffffff;" transform="translate(45.039062 77.527586)scale(0.1 -0.1)">
       <use xlink:href="#LiberationSans-48"/>
      </g>
     </g>
    </g>
    <g id="text_9">
     <!-- $u$ -->
     <g style="fill:#ffffff;" transform="translate(33.123437 83.806118)rotate(-90)scale(0.1 -0.1)">
      <defs>
       <path d="M 6.6875 21.6875 
L 13.09375 54.6875 
L 22.125 54.6875 
L 15.71875 22.015625 
Q 15.234375 19.625 15.015625 17.921875 
Q 14.796875 16.21875 14.796875 15.09375 
Q 14.796875 10.9375 17.328125 8.65625 
Q 19.875 6.390625 24.515625 6.390625 
Q 31.734375 6.390625 37 11.265625 
Q 42.28125 16.15625 43.890625 24.421875 
L 49.90625 54.6875 
L 58.890625 54.6875 
L 48.296875 0 
L 39.3125 0 
L 41.109375 8.59375 
Q 37.3125 3.8125 32.0625 1.1875 
Q 26.8125 -1.421875 20.90625 -1.421875 
Q 13.71875 -1.421875 9.71875 2.515625 
Q 5.71875 6.453125 5.71875 13.484375 
Q 5.71875 14.9375 5.953125 17.140625 
Q 6.203125 19.34375 6.6875 21.6875 
z
" id="DejaVuSans-Oblique-117"/>
      </defs>
      <use transform="translate(0 0.3125)" xlink:href="#DejaVuSans-Oblique-117"/>
     </g>
    </g>
   </g>
   <g id="line2d_9">
    <path clip-path="url(#p0360174ec5)" d="M 73.832727 91.012239 
L 75.066661 76.973571 
L 76.300595 65.364167 
L 77.014978 59.584927 
L 77.079922 74.480861 
L 77.144866 73.838102 
L 78.3788 62.771262 
L 79.612734 53.619438 
L 80.197229 49.855097 
L 80.262173 84.192391 
L 80.327117 83.453001 
L 81.561051 70.72239 
L 82.275434 64.385006 
L 82.340378 75.390397 
L 82.405322 74.738588 
L 83.639256 63.515927 
L 84.028919 60.392591 
L 84.093863 94.625035 
L 84.158807 93.781838 
L 85.392741 79.263916 
L 86.626675 67.258189 
L 87.860609 57.329943 
L 88.315216 54.122238 
L 88.38016 114.918628 
L 88.445104 113.873506 
L 89.679038 95.878905 
L 90.912972 80.998106 
L 91.887131 71.092344 
L 91.952075 82.030995 
L 92.017019 81.313111 
L 93.250953 68.952789 
L 94.484887 58.731308 
L 95.394101 52.349683 
L 95.459045 86.662156 
L 95.523989 85.898191 
L 96.757923 72.744462 
L 97.991857 61.866867 
L 98.381521 58.839564 
L 98.446465 69.900133 
L 98.511408 69.302953 
L 99.745343 59.020879 
L 100.329838 54.791643 
L 100.394782 69.735271 
L 100.459725 69.139732 
L 101.693659 58.885902 
L 102.148267 55.573005 
L 102.213211 89.853405 
L 102.278155 89.057687 
L 103.512089 75.357236 
L 104.746023 64.027524 
L 105.395462 58.874995 
L 105.460406 73.777993 
L 105.525349 73.142228 
L 106.759283 62.195802 
L 107.928274 53.578331 
L 107.993218 87.878579 
L 108.058161 87.10251 
L 109.292096 73.740385 
L 110.52603 62.690454 
L 111.3703 56.252989 
L 111.435244 71.182077 
L 111.500188 70.572141 
L 112.734122 60.070446 
L 113.968056 51.385973 
L 114.162888 50.159376 
L 114.227832 84.493642 
L 114.292776 83.751254 
L 115.396822 72.203053 
L 115.461766 76.459279 
L 115.52671 75.796835 
L 116.760644 64.391054 
L 117.994578 54.958939 
L 118.059522 89.245449 
L 118.124466 88.45578 
L 119.3584 74.859484 
L 120.592334 63.615903 
L 120.787165 62.027857 
L 120.852109 73.056702 
L 120.917053 72.428113 
L 122.150987 61.605259 
L 122.605595 58.108517 
L 122.670538 69.176359 
L 122.735482 68.586381 
L 123.969416 58.428303 
L 125.20335 50.027988 
L 125.398182 48.841526 
L 125.463126 98.579382 
L 125.52807 97.696838 
L 126.762004 82.501462 
L 127.995938 69.935506 
L 129.229872 59.543975 
L 130.204031 52.626602 
L 130.268975 86.936319 
L 130.333918 86.169626 
L 131.567852 72.968929 
L 132.606955 63.641287 
L 132.671899 78.496861 
L 132.736843 77.814142 
L 133.970777 66.059284 
L 135.074823 57.27696 
L 135.139767 61.681704 
L 135.204711 61.166299 
L 136.438645 52.292198 
L 136.503589 60.368037 
L 136.568533 59.865703 
L 137.542691 52.903516 
L 137.607635 87.210478 
L 137.672579 86.441057 
L 138.776625 74.472344 
L 139.750784 68.877971 
L 140.724942 64.536777 
L 140.919774 63.803108 
L 140.984718 74.678979 
L 141.049662 74.337812 
L 142.543371 66.128109 
L 143.777305 58.357928 
L 145.011239 51.932306 
L 145.076183 51.626757 
L 145.141127 97.170349 
L 145.206071 96.414674 
L 146.440005 83.40368 
L 147.673939 72.644119 
L 148.907873 63.746402 
L 150.141807 56.388354 
L 150.661358 53.684819 
L 150.726302 88.096855 
L 150.791246 87.431463 
L 152.02518 75.974931 
L 153.259114 66.500848 
L 153.324058 77.161417 
L 153.389002 76.604834 
L 154.622936 67.021752 
L 155.337319 62.251229 
L 155.402263 66.719326 
L 155.467207 66.266644 
L 156.701141 58.472491 
L 157.545412 53.931776 
L 157.610356 64.717409 
L 157.675299 64.284646 
L 158.909233 56.83346 
L 159.883392 51.873399 
L 159.948336 86.303459 
L 160.01328 85.655911 
L 161.247214 74.506622 
L 162.481148 65.286616 
L 163.650138 58.028253 
L 163.715082 92.397071 
L 163.780026 91.688891 
L 165.01396 79.49565 
L 166.247894 69.412339 
L 167.481828 61.073852 
L 167.741604 59.511332 
L 167.806547 70.241448 
L 167.871491 69.75372 
L 168.910594 62.578355 
L 168.975538 96.901899 
L 169.040482 96.148895 
L 170.274416 83.183891 
L 172.287676 63.039165 
L 172.67734 59.031751 
L 172.742284 63.255402 
L 172.807228 62.558449 
L 173.521611 55.190692 
L 173.586554 69.937378 
L 173.651498 69.144598 
L 174.690601 57.86965 
L 175.729703 50.774531 
L 175.794647 85.102676 
L 175.859591 84.354229 
L 177.093525 71.467669 
L 178.132627 62.361998 
L 178.197571 76.639534 
L 178.262515 75.975295 
L 179.496449 64.538633 
L 180.730383 55.080981 
L 181.055103 52.876652 
L 181.120047 87.183881 
L 181.18499 86.414724 
L 182.418925 73.171615 
L 183.652859 62.220104 
L 184.627017 54.929968 
L 184.691961 69.87222 
L 184.756905 69.275318 
L 185.990839 58.998026 
L 186.51039 55.221886 
L 186.575334 89.50578 
L 186.640278 88.71352 
L 187.874212 75.072625 
L 189.108146 63.792162 
L 190.147248 55.821363 
L 190.212192 70.163978 
L 190.277136 69.564173 
L 191.51107 59.236897 
L 192.225453 54.09591 
L 192.290397 88.391007 
L 192.355341 87.60984 
L 193.589275 74.159926 
L 194.823209 63.037397 
L 195.018041 61.466448 
L 195.082985 65.829506 
L 195.147928 65.272829 
L 195.407704 63.100965 
L 195.472648 71.069254 
L 195.537592 70.460441 
L 196.771526 59.978074 
L 197.356021 55.666454 
L 197.420965 89.945924 
L 197.485909 89.149285 
L 198.719843 75.432984 
L 199.953777 64.090164 
L 200.018721 63.550795 
L 200.083665 74.564486 
L 200.148609 73.920894 
L 201.382543 62.839728 
L 201.772206 59.75577 
L 201.83715 93.994551 
L 201.902094 93.157627 
L 203.136028 78.74772 
L 203.915355 71.641012 
L 204.889513 66.535806 
L 205.149289 65.381819 
L 205.214233 76.217154 
L 205.279177 75.835856 
L 206.253335 70.80984 
L 207.227493 66.050529 
L 208.461428 58.293773 
L 209.630418 52.187339 
L 209.695362 86.614275 
L 209.760306 85.963635 
L 210.99424 74.761098 
L 211.773566 68.707189 
L 211.83851 79.345804 
L 211.903454 78.767486 
L 213.137388 68.810177 
L 213.267276 67.867915 
L 213.33222 78.951498 
L 213.397164 78.377104 
L 214.631098 68.487346 
L 215.865032 60.308921 
L 217.098966 53.545698 
L 217.16391 64.335173 
L 217.228854 63.906213 
L 218.462788 56.520511 
L 219.696722 50.412838 
L 219.82661 49.834867 
L 219.891554 84.285211 
L 219.956497 83.657745 
L 221.190432 72.854221 
L 222.424366 63.920148 
L 223.6583 56.532035 
L 223.853131 55.488536 
L 223.918075 66.258679 
L 223.983019 65.810581 
L 225.216953 58.095345 
L 225.931336 54.254649 
L 225.99628 88.661015 
L 226.061224 87.990009 
L 227.295158 76.436826 
L 228.529092 66.882816 
L 229.373363 61.316844 
L 229.438307 72.028995 
L 229.50325 71.52348 
L 230.087746 67.194296 
L 230.152689 71.613209 
L 230.217633 71.111832 
L 231.256736 63.735662 
L 231.32168 98.04769 
L 231.386624 97.283285 
L 232.620558 84.121986 
L 233.854492 73.238129 
L 235.088426 64.237624 
L 236.517191 54.609182 
L 236.582135 65.149964 
L 236.647079 64.472529 
L 237.49135 56.058074 
L 237.556294 90.17453 
L 237.621238 89.214241 
L 239.050003 69.811862 
L 239.504611 64.491351 
L 239.569555 75.495684 
L 239.634499 74.842827 
L 240.868433 63.602129 
L 241.258096 60.473772 
L 241.32304 94.705409 
L 241.387984 93.861412 
L 242.621918 79.329721 
L 243.855852 67.312606 
L 244.765066 59.809906 
L 244.83001 74.703602 
L 244.894954 74.058627 
L 246.128888 62.953627 
L 247.362822 53.770246 
L 247.49271 52.901221 
L 247.557654 87.208205 
L 247.622598 86.438807 
L 248.856532 73.19153 
L 250.090466 62.236573 
L 251.259456 53.612386 
L 251.389344 102.13396 
L 251.519232 100.307269 
L 252.947998 82.045265 
L 254.181932 69.55825 
L 254.441707 67.218352 
L 254.506651 116.182588 
L 254.571595 115.12489 
L 255.805529 96.913748 
L 257.039463 81.853878 
L 258.273397 69.399982 
L 259.507331 59.101118 
L 260.221714 53.974274 
L 260.286658 68.926035 
L 260.351602 68.338548 
L 261.585536 58.223355 
L 261.910256 55.86577 
L 261.975199 90.143257 
L 262.040143 89.344654 
L 263.274077 75.594547 
L 264.508011 64.22377 
L 265.547114 56.189155 
L 265.612058 70.528111 
L 265.677002 69.924683 
L 266.910936 59.535024 
L 268.14487 50.943201 
L 268.274757 50.130155 
L 268.339701 61.277384 
L 268.404645 60.766002 
L 269.638579 51.961169 
L 270.80757 45.029647 
L 270.872513 79.414955 
L 270.937457 78.723101 
L 272.171391 66.810956 
L 273.210494 58.39381 
L 273.275438 66.408936 
L 273.340382 65.846494 
L 274.509372 56.627646 
L 274.574316 90.897552 
L 274.639259 90.091444 
L 275.873194 76.212111 
L 277.107128 64.734471 
L 278.341062 55.242931 
L 278.535893 53.902343 
L 278.600837 68.264054 
L 278.665781 67.683153 
L 279.899715 57.68137 
L 280.614098 52.702416 
L 280.679042 87.011378 
L 280.743986 86.243938 
L 281.97792 73.030382 
L 283.211854 62.10331 
L 283.926237 56.66374 
L 283.991181 67.745959 
L 284.056125 67.170213 
L 285.290059 57.25719 
L 285.744666 54.054405 
L 285.80961 88.349915 
L 285.874554 87.569156 
L 287.108488 74.126283 
L 288.342422 63.009576 
L 288.797029 59.417893 
L 288.861973 93.660036 
L 288.926917 92.826441 
L 290.160851 78.473842 
L 291.394785 66.604829 
L 291.784449 63.301609 
L 291.849392 78.160562 
L 291.914336 77.48119 
L 293.14827 65.783947 
L 294.382204 56.110805 
L 294.836812 52.985522 
L 294.901756 67.356354 
L 294.9667 66.784485 
L 296.200634 56.938209 
L 296.785129 52.888226 
L 296.850073 87.19534 
L 296.915016 86.42607 
L 298.148951 73.180997 
L 299.382885 62.227863 
L 300.162211 56.308733 
L 300.227155 70.646499 
L 300.292099 70.041892 
L 301.526033 59.631952 
L 302.695023 51.436823 
L 302.759967 65.823066 
L 302.824911 65.266453 
L 304.058845 55.682859 
L 304.578396 52.161601 
L 304.64334 86.475945 
L 304.708284 85.713833 
L 305.942218 72.592006 
L 307.176152 61.740791 
L 308.215255 54.0733 
L 308.280199 65.181294 
L 308.345142 64.631067 
L 309.579077 55.15742 
L 310.358403 50.037813 
L 310.423347 84.373289 
L 310.488291 83.632098 
L 311.722225 70.870497 
L 311.982001 68.479144 
L 312.046945 83.28658 
L 312.111889 82.556202 
L 313.345823 69.980775 
L 314.579757 59.58141 
L 315.29414 54.404536 
L 315.359083 65.509234 
L 315.424027 64.955744 
L 316.528074 56.345942 
L 316.593018 90.618651 
L 316.657961 89.815318 
L 317.891895 75.983767 
L 319.12583 64.545639 
L 320.359764 55.086775 
L 321.009203 50.78507 
L 321.074146 65.177798 
L 321.13909 64.627606 
L 322.373024 55.154558 
L 322.567856 53.816582 
L 322.6328 68.769913 
L 322.697744 68.183979 
L 323.931678 58.095533 
L 324.516173 53.945941 
L 324.581117 88.24253 
L 324.646061 87.46284 
L 325.879995 74.038363 
L 327.113929 62.93687 
L 327.9582 56.469365 
L 328.023144 90.740846 
L 328.088087 89.936297 
L 329.322021 76.083812 
L 330.555956 64.628372 
L 331.78989 55.155192 
L 331.854834 54.704726 
L 331.919777 65.806437 
L 331.984721 65.24999 
L 333.218655 55.669244 
L 333.478431 53.873941 
L 333.543375 68.826701 
L 333.608319 68.240202 
L 335.102028 51.032748 
L 335.166972 50.344565 
L 335.231916 61.208666 
L 335.29686 60.414717 
L 335.686523 55.767576 
L 335.751467 63.509785 
L 335.816411 62.674883 
L 336.46585 54.648902 
L 336.530794 58.753662 
L 336.595738 57.939001 
L 337.050345 53.077408 
L 337.115289 87.269791 
L 337.180233 86.386932 
L 338.414167 71.186116 
L 339.518213 59.829237 
L 339.583157 70.76711 
L 339.648101 70.048455 
L 339.972821 66.561029 
L 340.037765 74.382042 
L 340.102709 73.627418 
L 341.336643 60.63452 
L 341.661362 57.606217 
L 341.726306 91.753538 
L 341.79125 90.826064 
L 343.025184 74.857097 
L 344.259118 61.651414 
L 344.518894 59.176846 
L 344.583837 70.121211 
L 344.648781 69.408983 
L 344.843613 67.314538 
L 344.908557 101.365259 
L 344.973501 100.342148 
L 346.207435 82.726509 
L 347.441369 68.159096 
L 347.701145 65.429358 
L 347.766088 76.311509 
L 347.831032 75.537687 
L 349.000023 62.854153 
L 349.064966 70.71205 
L 349.12991 69.993943 
L 349.974181 61.283588 
L 350.039125 65.535617 
L 350.104069 64.869016 
L 351.338003 53.391679 
L 351.662722 50.716614 
L 351.727666 93.430304 
L 351.79261 92.486146 
L 353.026544 76.229917 
L 354.195534 63.432353 
L 354.260478 67.663001 
L 354.325422 66.975232 
L 354.585198 64.291915 
L 354.650142 72.135506 
L 354.715086 71.403236 
L 355.94902 58.795211 
L 356.858234 50.923586 
L 356.923178 65.792854 
L 356.988122 65.123694 
L 358.222056 53.602287 
L 358.287 53.054425 
L 358.351944 87.247037 
L 358.416888 86.364404 
L 359.650822 71.167486 
L 360.62498 61.051293 
L 360.689924 71.977006 
L 360.754868 71.246312 
L 361.988802 58.665442 
L 362.11869 57.474912 
L 362.313522 78.862431 
L 362.378466 78.063226 
L 363.6124 64.302752 
L 364.846334 52.923401 
L 364.911278 87.117317 
L 364.976221 86.235975 
L 366.145212 72.016941 
L 367.184314 64.815937 
L 368.093529 59.83709 
L 368.158472 74.323693 
L 368.223416 73.8687 
L 369.262519 67.467109 
L 369.45735 65.985366 
L 370.691284 56.27737 
L 370.886116 54.90621 
L 370.95106 89.193245 
L 371.016004 88.404095 
L 372.249938 74.816743 
L 373.483872 63.580558 
L 374.198255 57.987109 
L 374.328143 72.973463 
L 374.458031 71.724189 
L 375.691965 61.023142 
L 376.860955 52.598843 
L 376.925899 86.908837 
L 376.990843 86.142417 
L 378.224777 72.946428 
L 379.328823 63.087401 
L 379.393767 71.055825 
L 379.458711 70.447146 
L 379.978262 65.790756 
L 380.043206 70.110786 
L 380.10815 69.51151 
L 380.887476 62.768748 
L 380.95242 96.977549 
L 381.017364 96.110944 
L 382.251298 81.189992 
L 383.485232 68.850975 
L 384.719166 58.647111 
L 385.043886 56.268859 
L 385.10883 70.607022 
L 385.173774 70.002809 
L 386.407708 59.599631 
L 387.576698 51.409827 
L 387.641642 85.731651 
L 387.706586 84.976945 
L 388.94052 71.98263 
L 390.174454 61.236862 
L 390.823893 56.349899 
L 390.888837 64.385363 
L 390.953781 63.843056 
L 391.213556 61.727253 
L 391.2785 66.087716 
L 391.343444 65.52847 
L 391.60322 63.346581 
L 391.668163 73.925688 
L 391.733107 73.288453 
L 392.967041 62.316724 
L 394.200975 53.243554 
L 394.850414 49.117255 
L 394.915358 63.526577 
L 394.980302 62.992815 
L 395.954461 55.595047 
L 396.019405 89.875227 
L 396.084349 89.079292 
L 397.318283 75.375103 
L 398.487273 64.586608 
L 398.487273 64.586608 
" style="fill:none;stroke:#9a72ac;stroke-linecap:round;stroke-width:1.5;"/>
   </g>
   <g id="patch_3">
    <path d="M 57.6 119.740235 
L 57.6 41.472 
" style="fill:none;stroke:#ffffff;stroke-linecap:square;stroke-linejoin:miter;stroke-width:0.8;"/>
   </g>
   <g id="patch_4">
    <path d="M 414.72 119.740235 
L 414.72 41.472 
" style="fill:none;stroke:#ffffff;stroke-linecap:square;stroke-linejoin:miter;stroke-width:0.8;"/>
   </g>
   <g id="patch_5">
    <path d="M 57.6 119.740235 
L 414.72 119.740235 
" style="fill:none;stroke:#ffffff;stroke-linecap:square;stroke-linejoin:miter;stroke-width:0.8;"/>
   </g>
   <g id="patch_6">
    <path d="M 57.6 41.472 
L 414.72 41.472 
" style="fill:none;stroke:#ffffff;stroke-linecap:square;stroke-linejoin:miter;stroke-width:0.8;"/>
   </g>
  </g>
  <g id="axes_2">
   <g id="patch_7">
    <path d="M 57.6 213.662118 
L 414.72 213.662118 
L 414.72 135.393882 
L 57.6 135.393882 
z
" style="fill:#1a1a1a;"/>
   </g>
   <g id="matplotlib.axis_3">
    <g id="xtick_7">
     <g id="line2d_10">
      <g>
       <use style="fill:#ffffff;stroke:#ffffff;stroke-width:0.8;" x="73.832727" xlink:href="#m092c2c23ee" y="213.662118"/>
      </g>
     </g>
     <g id="text_10">
      <!-- 0 -->
      <g style="fill:#ffffff;" transform="translate(71.052259 227.908993)scale(0.1 -0.1)">
       <use xlink:href="#LiberationSans-48"/>
      </g>
     </g>
    </g>
    <g id="xtick_8">
     <g id="line2d_11">
      <g>
       <use style="fill:#ffffff;stroke:#ffffff;stroke-width:0.8;" x="138.776625" xlink:href="#m092c2c23ee" y="213.662118"/>
      </g>
     </g>
     <g id="text_11">
      <!-- 200 -->
      <g style="fill:#ffffff;" transform="translate(130.435219 227.908993)scale(0.1 -0.1)">
       <use xlink:href="#LiberationSans-50"/>
       <use x="55.615234" xlink:href="#LiberationSans-48"/>
       <use x="111.230469" xlink:href="#LiberationSans-48"/>
      </g>
     </g>
    </g>
    <g id="xtick_9">
     <g id="line2d_12">
      <g>
       <use style="fill:#ffffff;stroke:#ffffff;stroke-width:0.8;" x="203.720523" xlink:href="#m092c2c23ee" y="213.662118"/>
      </g>
     </g>
     <g id="text_12">
      <!-- 400 -->
      <g style="fill:#ffffff;" transform="translate(195.379117 227.908993)scale(0.1 -0.1)">
       <use xlink:href="#LiberationSans-52"/>
       <use x="55.615234" xlink:href="#LiberationSans-48"/>
       <use x="111.230469" xlink:href="#LiberationSans-48"/>
      </g>
     </g>
    </g>
    <g id="xtick_10">
     <g id="line2d_13">
      <g>
       <use style="fill:#ffffff;stroke:#ffffff;stroke-width:0.8;" x="268.664421" xlink:href="#m092c2c23ee" y="213.662118"/>
      </g>
     </g>
     <g id="text_13">
      <!-- 600 -->
      <g style="fill:#ffffff;" transform="translate(260.323015 227.908993)scale(0.1 -0.1)">
       <use xlink:href="#LiberationSans-54"/>
       <use x="55.615234" xlink:href="#LiberationSans-48"/>
       <use x="111.230469" xlink:href="#LiberationSans-48"/>
      </g>
     </g>
    </g>
    <g id="xtick_11">
     <g id="line2d_14">
      <g>
       <use style="fill:#ffffff;stroke:#ffffff;stroke-width:0.8;" x="333.608319" xlink:href="#m092c2c23ee" y="213.662118"/>
      </g>
     </g>
     <g id="text_14">
      <!-- 800 -->
      <g style="fill:#ffffff;" transform="translate(325.266913 227.908993)scale(0.1 -0.1)">
       <use xlink:href="#LiberationSans-56"/>
       <use x="55.615234" xlink:href="#LiberationSans-48"/>
       <use x="111.230469" xlink:href="#LiberationSans-48"/>
      </g>
     </g>
    </g>
    <g id="xtick_12">
     <g id="line2d_15">
      <g>
       <use style="fill:#ffffff;stroke:#ffffff;stroke-width:0.8;" x="398.552217" xlink:href="#m092c2c23ee" y="213.662118"/>
      </g>
     </g>
     <g id="text_15">
      <!-- 1000 -->
      <g style="fill:#ffffff;" transform="translate(387.430342 227.908993)scale(0.1 -0.1)">
       <use xlink:href="#LiberationSans-49"/>
       <use x="55.615234" xlink:href="#LiberationSans-48"/>
       <use x="111.230469" xlink:href="#LiberationSans-48"/>
       <use x="166.845703" xlink:href="#LiberationSans-48"/>
      </g>
     </g>
    </g>
    <g id="text_16">
     <!-- $t$ (ms) -->
     <g style="fill:#ffffff;" transform="translate(222.81 241.283993)scale(0.1 -0.1)">
      <defs>
       <path d="M 42.28125 54.6875 
L 40.921875 47.703125 
L 23 47.703125 
L 17.1875 18.015625 
Q 16.890625 16.359375 16.75 15.234375 
Q 16.609375 14.109375 16.609375 13.484375 
Q 16.609375 10.359375 18.484375 8.9375 
Q 20.359375 7.515625 24.515625 7.515625 
L 33.59375 7.515625 
L 32.078125 0 
L 23.484375 0 
Q 15.484375 0 11.546875 3.125 
Q 7.625 6.25 7.625 12.59375 
Q 7.625 13.71875 7.765625 15.0625 
Q 7.90625 16.40625 8.203125 18.015625 
L 14.015625 47.703125 
L 6.390625 47.703125 
L 7.8125 54.6875 
L 15.28125 54.6875 
L 18.3125 70.21875 
L 27.296875 70.21875 
L 24.3125 54.6875 
z
" id="DejaVuSans-Oblique-116"/>
       <path id="LiberationSans-32"/>
       <path d="M 6.203125 25.984375 
Q 6.203125 32.765625 7.21875 38.96875 
Q 8.25 45.171875 10.4375 50.875 
Q 12.640625 56.59375 16.0625 61.953125 
Q 19.484375 67.328125 24.21875 72.46875 
L 32.71875 72.46875 
Q 28.125 67.328125 24.78125 61.9375 
Q 21.4375 56.546875 19.28125 50.796875 
Q 17.140625 45.0625 16.09375 38.859375 
Q 15.046875 32.671875 15.046875 25.875 
Q 15.046875 19.09375 16.09375 12.890625 
Q 17.140625 6.6875 19.28125 0.921875 
Q 21.4375 -4.828125 24.78125 -10.203125 
Q 28.125 -15.578125 32.71875 -20.703125 
L 24.21875 -20.703125 
Q 19.484375 -15.578125 16.0625 -10.203125 
Q 12.640625 -4.828125 10.4375 0.875 
Q 8.25 6.59375 7.21875 12.765625 
Q 6.203125 18.953125 6.203125 25.78125 
z
" id="LiberationSans-40"/>
       <path d="M 37.5 0 
L 37.5 33.5 
Q 37.5 37.359375 37.015625 39.9375 
Q 36.53125 42.53125 35.375 44.109375 
Q 34.234375 45.703125 32.375 46.359375 
Q 30.515625 47.015625 27.828125 47.015625 
Q 25.046875 47.015625 22.796875 45.921875 
Q 20.5625 44.828125 18.96875 42.75 
Q 17.390625 40.671875 16.53125 37.625 
Q 15.671875 34.578125 15.671875 30.609375 
L 15.671875 0 
L 6.9375 0 
L 6.9375 41.546875 
Q 6.9375 43.21875 6.90625 45.046875 
Q 6.890625 46.875 6.828125 48.5 
Q 6.78125 50.140625 6.734375 51.3125 
Q 6.6875 52.484375 6.640625 52.828125 
L 14.9375 52.828125 
Q 14.984375 52.59375 15.03125 51.515625 
Q 15.09375 50.4375 15.15625 49.046875 
Q 15.234375 47.65625 15.28125 46.21875 
Q 15.328125 44.78125 15.328125 43.796875 
L 15.484375 43.796875 
Q 16.65625 46.09375 18.015625 47.953125 
Q 19.390625 49.8125 21.21875 51.09375 
Q 23.046875 52.390625 25.40625 53.09375 
Q 27.78125 53.8125 30.90625 53.8125 
Q 36.921875 53.8125 40.40625 51.421875 
Q 43.890625 49.03125 45.265625 43.796875 
L 45.40625 43.796875 
Q 46.578125 46.09375 48.046875 47.953125 
Q 49.515625 49.8125 51.46875 51.09375 
Q 53.421875 52.390625 55.859375 53.09375 
Q 58.296875 53.8125 61.421875 53.8125 
Q 65.4375 53.8125 68.328125 52.734375 
Q 71.234375 51.65625 73.09375 49.40625 
Q 74.953125 47.171875 75.828125 43.625 
Q 76.703125 40.09375 76.703125 35.203125 
L 76.703125 0 
L 68.015625 0 
L 68.015625 33.5 
Q 68.015625 37.359375 67.53125 39.9375 
Q 67.046875 42.53125 65.890625 44.109375 
Q 64.75 45.703125 62.890625 46.359375 
Q 61.03125 47.015625 58.34375 47.015625 
Q 55.5625 47.015625 53.3125 45.96875 
Q 51.078125 44.921875 49.484375 42.875 
Q 47.90625 40.828125 47.046875 37.75 
Q 46.1875 34.671875 46.1875 30.609375 
L 46.1875 0 
z
" id="LiberationSans-109"/>
       <path d="M 46.390625 14.59375 
Q 46.390625 10.890625 44.9375 7.984375 
Q 43.5 5.078125 40.765625 3.09375 
Q 38.03125 1.125 34.046875 0.0625 
Q 30.078125 -0.984375 24.953125 -0.984375 
Q 20.359375 -0.984375 16.671875 -0.265625 
Q 12.984375 0.4375 10.203125 2 
Q 7.421875 3.5625 5.53125 6.125 
Q 3.65625 8.6875 2.78125 12.40625 
L 10.546875 13.921875 
Q 11.671875 9.671875 15.1875 7.6875 
Q 18.703125 5.71875 24.953125 5.71875 
Q 27.78125 5.71875 30.140625 6.109375 
Q 32.515625 6.5 34.21875 7.453125 
Q 35.9375 8.40625 36.890625 9.984375 
Q 37.84375 11.578125 37.84375 13.921875 
Q 37.84375 16.3125 36.71875 17.84375 
Q 35.59375 19.390625 33.59375 20.40625 
Q 31.59375 21.4375 28.734375 22.1875 
Q 25.875 22.953125 22.46875 23.875 
Q 19.28125 24.703125 16.15625 25.734375 
Q 13.03125 26.765625 10.515625 28.4375 
Q 8.015625 30.125 6.453125 32.609375 
Q 4.890625 35.109375 4.890625 38.875 
Q 4.890625 46.09375 10.03125 49.875 
Q 15.1875 53.65625 25.046875 53.65625 
Q 33.796875 53.65625 38.9375 50.578125 
Q 44.09375 47.515625 45.453125 40.71875 
L 37.546875 39.75 
Q 37.109375 41.796875 35.9375 43.1875 
Q 34.765625 44.578125 33.109375 45.4375 
Q 31.453125 46.296875 29.375 46.65625 
Q 27.296875 47.015625 25.046875 47.015625 
Q 19.09375 47.015625 16.25 45.203125 
Q 13.421875 43.40625 13.421875 39.75 
Q 13.421875 37.59375 14.46875 36.203125 
Q 15.53125 34.8125 17.40625 33.859375 
Q 19.28125 32.90625 21.921875 32.203125 
Q 24.5625 31.5 27.734375 30.71875 
Q 29.828125 30.171875 32.03125 29.5625 
Q 34.234375 28.953125 36.296875 28.09375 
Q 38.375 27.25 40.203125 26.09375 
Q 42.046875 24.953125 43.40625 23.34375 
Q 44.78125 21.734375 45.578125 19.578125 
Q 46.390625 17.4375 46.390625 14.59375 
z
" id="LiberationSans-115"/>
       <path d="M 27.09375 25.78125 
Q 27.09375 18.953125 26.0625 12.765625 
Q 25.046875 6.59375 22.84375 0.875 
Q 20.65625 -4.828125 17.234375 -10.203125 
Q 13.8125 -15.578125 9.078125 -20.703125 
L 0.59375 -20.703125 
Q 5.171875 -15.578125 8.515625 -10.203125 
Q 11.859375 -4.828125 14 0.921875 
Q 16.15625 6.6875 17.203125 12.890625 
Q 18.265625 19.09375 18.265625 25.875 
Q 18.265625 32.671875 17.203125 38.859375 
Q 16.15625 45.0625 14 50.796875 
Q 11.859375 56.546875 8.515625 61.9375 
Q 5.171875 67.328125 0.59375 72.46875 
L 9.078125 72.46875 
Q 13.8125 67.328125 17.234375 61.953125 
Q 20.65625 56.59375 22.84375 50.875 
Q 25.046875 45.171875 26.0625 38.96875 
Q 27.09375 32.765625 27.09375 25.984375 
z
" id="LiberationSans-41"/>
      </defs>
      <use transform="translate(0 0.53125)" xlink:href="#DejaVuSans-Oblique-116"/>
      <use transform="translate(39.208984 0.53125)" xlink:href="#LiberationSans-32"/>
      <use transform="translate(66.992188 0.53125)" xlink:href="#LiberationSans-40"/>
      <use transform="translate(100.292969 0.53125)" xlink:href="#LiberationSans-109"/>
      <use transform="translate(183.59375 0.53125)" xlink:href="#LiberationSans-115"/>
      <use transform="translate(233.59375 0.53125)" xlink:href="#LiberationSans-41"/>
     </g>
    </g>
   </g>
   <g id="matplotlib.axis_4">
    <g id="ytick_3">
     <g id="line2d_16">
      <g>
       <use style="fill:#ffffff;stroke:#ffffff;stroke-width:0.8;" x="57.6" xlink:href="#mfaf8abfd1a" y="213.000182"/>
      </g>
     </g>
     <g id="text_17">
      <!-- −0.25 -->
      <g style="fill:#ffffff;" transform="translate(25.298437 216.623619)scale(0.1 -0.1)">
       <defs>
        <path d="M 9.125 0 
L 9.125 10.6875 
L 18.65625 10.6875 
L 18.65625 0 
z
" id="LiberationSans-46"/>
        <path d="M 51.421875 22.40625 
Q 51.421875 17.234375 49.859375 12.9375 
Q 48.296875 8.640625 45.21875 5.53125 
Q 42.140625 2.4375 37.578125 0.71875 
Q 33.015625 -0.984375 27 -0.984375 
Q 21.578125 -0.984375 17.546875 0.28125 
Q 13.53125 1.5625 10.734375 3.78125 
Q 7.953125 6 6.3125 8.984375 
Q 4.6875 11.96875 4 15.375 
L 12.890625 16.40625 
Q 13.421875 14.453125 14.390625 12.625 
Q 15.375 10.796875 17.0625 9.34375 
Q 18.75 7.90625 21.21875 7.046875 
Q 23.6875 6.203125 27.203125 6.203125 
Q 30.609375 6.203125 33.390625 7.25 
Q 36.1875 8.296875 38.15625 10.34375 
Q 40.140625 12.40625 41.203125 15.375 
Q 42.28125 18.359375 42.28125 22.21875 
Q 42.28125 25.390625 41.25 28.046875 
Q 40.234375 30.71875 38.328125 32.640625 
Q 36.421875 34.578125 33.65625 35.640625 
Q 30.90625 36.71875 27.390625 36.71875 
Q 25.203125 36.71875 23.34375 36.328125 
Q 21.484375 35.9375 19.890625 35.25 
Q 18.3125 34.578125 17.015625 33.671875 
Q 15.71875 32.765625 14.59375 31.78125 
L 6 31.78125 
L 8.296875 68.796875 
L 47.40625 68.796875 
L 47.40625 61.328125 
L 16.3125 61.328125 
L 14.984375 39.5 
Q 17.328125 41.3125 20.84375 42.59375 
Q 24.359375 43.890625 29.203125 43.890625 
Q 34.328125 43.890625 38.421875 42.328125 
Q 42.53125 40.765625 45.40625 37.90625 
Q 48.296875 35.0625 49.859375 31.109375 
Q 51.421875 27.15625 51.421875 22.40625 
z
" id="LiberationSans-53"/>
       </defs>
       <use xlink:href="#LiberationSans-8722"/>
       <use x="58.398438" xlink:href="#LiberationSans-48"/>
       <use x="114.013672" xlink:href="#LiberationSans-46"/>
       <use x="141.796875" xlink:href="#LiberationSans-50"/>
       <use x="197.412109" xlink:href="#LiberationSans-53"/>
      </g>
     </g>
    </g>
    <g id="ytick_4">
     <g id="line2d_17">
      <g>
       <use style="fill:#ffffff;stroke:#ffffff;stroke-width:0.8;" x="57.6" xlink:href="#mfaf8abfd1a" y="182.210046"/>
      </g>
     </g>
     <g id="text_18">
      <!-- 0.00 -->
      <g style="fill:#ffffff;" transform="translate(31.139063 185.833484)scale(0.1 -0.1)">
       <use xlink:href="#LiberationSans-48"/>
       <use x="55.615234" xlink:href="#LiberationSans-46"/>
       <use x="83.398438" xlink:href="#LiberationSans-48"/>
       <use x="139.013672" xlink:href="#LiberationSans-48"/>
      </g>
     </g>
    </g>
    <g id="ytick_5">
     <g id="line2d_18">
      <g>
       <use style="fill:#ffffff;stroke:#ffffff;stroke-width:0.8;" x="57.6" xlink:href="#mfaf8abfd1a" y="151.41991"/>
      </g>
     </g>
     <g id="text_19">
      <!-- 0.25 -->
      <g style="fill:#ffffff;" transform="translate(31.139063 155.043348)scale(0.1 -0.1)">
       <use xlink:href="#LiberationSans-48"/>
       <use x="55.615234" xlink:href="#LiberationSans-46"/>
       <use x="83.398438" xlink:href="#LiberationSans-50"/>
       <use x="139.013672" xlink:href="#LiberationSans-53"/>
      </g>
     </g>
    </g>
    <g id="text_20">
     <!-- $u$ -->
     <g style="fill:#ffffff;" transform="translate(19.223437 177.728)rotate(-90)scale(0.1 -0.1)">
      <use transform="translate(0 0.3125)" xlink:href="#DejaVuSans-Oblique-117"/>
     </g>
    </g>
   </g>
   <g id="line2d_19">
    <path clip-path="url(#p93e10ead37)" d="M 73.832727 151.171573 
L 75.066661 161.464761 
L 76.300595 169.976808 
L 77.014978 174.214162 
L 77.079922 163.445149 
L 77.144866 163.914902 
L 78.3788 172.002974 
L 79.612734 178.691479 
L 80.197229 181.442604 
L 80.262173 158.313573 
L 80.327117 158.834386 
L 81.561051 167.801595 
L 82.275434 172.265532 
L 82.340378 166.706452 
L 82.405322 167.143754 
L 83.639256 174.673103 
L 84.028919 176.768567 
L 84.093863 153.686044 
L 84.158807 154.252901 
L 85.392741 164.012894 
L 86.626675 172.08401 
L 87.860609 178.758492 
L 88.315216 180.914942 
L 88.38016 138.951529 
L 88.445104 139.664998 
L 89.679038 151.949294 
L 90.912972 162.107906 
L 91.887131 168.870229 
L 91.952075 163.344933 
L 92.017019 163.815683 
L 93.250953 171.920924 
L 94.484887 178.623627 
L 95.394101 182.808356 
L 95.459045 159.665736 
L 95.523989 160.173095 
L 96.757923 168.908652 
L 97.991857 176.132601 
L 98.381521 178.143071 
L 98.446465 172.525509 
L 98.511408 172.904911 
L 99.745343 179.437344 
L 100.329838 182.124273 
L 100.394782 171.276553 
L 100.459725 171.668382 
L 101.693659 178.414785 
L 102.148267 180.594472 
L 102.213211 157.47388 
L 102.278155 158.003048 
L 103.512089 167.114112 
L 104.746023 174.64859 
L 105.395462 178.075122 
L 105.460406 167.267692 
L 105.525349 167.69941 
L 106.759283 175.132607 
L 107.928274 180.984323 
L 107.993218 157.859851 
L 108.058161 158.385179 
L 109.292096 167.430119 
L 110.52603 174.909915 
L 111.3703 179.267492 
L 111.435244 168.448198 
L 111.500188 168.86817 
L 112.734122 176.099124 
L 113.968056 182.078828 
L 114.162888 182.923403 
L 114.227832 159.779637 
L 114.292776 160.285863 
L 115.396822 168.160444 
L 115.461766 164.366915 
L 115.52671 164.827496 
L 116.760644 172.757652 
L 117.994578 179.315567 
L 118.059522 156.2077 
L 118.124466 156.749467 
L 119.3584 166.077452 
L 120.592334 173.791315 
L 120.787165 174.880822 
L 120.852109 169.295719 
L 120.917053 169.707258 
L 122.150987 176.793016 
L 122.605595 179.082344 
L 122.670538 173.455435 
L 122.735482 173.825585 
L 123.969416 180.198703 
L 125.20335 185.469012 
L 125.398182 186.213392 
L 125.463126 151.905278 
L 125.52807 152.489855 
L 126.762004 162.554927 
L 127.995938 170.87833 
L 129.229872 177.761445 
L 130.204031 182.343355 
L 130.268975 159.205361 
L 130.333918 159.717301 
L 131.567852 168.53173 
L 132.606955 174.760024 
L 132.671899 163.985579 
L 132.736843 164.449955 
L 133.970777 172.445441 
L 135.074823 178.419052 
L 135.139767 174.523448 
L 135.204711 174.88297 
L 136.438645 181.073118 
L 136.503589 178.815021 
L 136.568533 179.131841 
L 137.542691 183.522866 
L 137.607635 160.373136 
L 137.672579 160.873456 
L 138.776625 168.656176 
L 139.750784 172.119589 
L 140.724942 174.768116 
L 140.919774 175.210317 
L 140.984718 167.643618 
L 141.049662 167.858646 
L 142.478427 172.823668 
L 143.712361 177.993453 
L 144.946295 182.268654 
L 145.076183 182.673217 
L 145.141127 151.744759 
L 145.206071 152.251769 
L 146.440005 160.981334 
L 147.673939 168.200326 
L 148.907873 174.170138 
L 150.141807 179.106929 
L 150.661358 180.920832 
L 150.726302 157.717829 
L 150.791246 158.165407 
L 152.02518 165.87167 
L 153.259114 172.244435 
L 153.324058 164.839451 
L 153.389002 165.216167 
L 154.622936 171.702361 
L 155.337319 174.931232 
L 155.402263 170.991169 
L 155.467207 171.306675 
L 156.701141 176.738961 
L 157.545412 179.903702 
L 157.610356 172.422507 
L 157.675299 172.72377 
L 158.909233 177.910842 
L 159.883392 181.36374 
L 159.948336 158.156331 
L 160.01328 158.599545 
L 161.247214 166.230685 
L 162.481148 172.541325 
L 163.650138 177.509318 
L 163.715082 154.340261 
L 163.780026 154.821446 
L 165.01396 163.106351 
L 166.247894 169.957629 
L 167.481828 175.623356 
L 167.741604 176.685037 
L 167.806547 169.235868 
L 167.871491 169.568839 
L 168.910594 174.467452 
L 168.975538 151.328661 
L 169.040482 151.839812 
L 170.274416 160.640662 
L 172.157789 173.456139 
L 172.67734 177.14872 
L 172.742284 173.380544 
L 172.807228 173.867809 
L 173.521611 179.019221 
L 173.586554 168.337767 
L 173.651498 168.895792 
L 174.690601 176.832959 
L 175.729703 181.833864 
L 175.794647 158.70094 
L 175.859591 159.217899 
L 177.093525 168.118744 
L 178.132627 174.408101 
L 178.197571 157.609136 
L 178.262515 158.136958 
L 179.496449 167.224851 
L 180.730383 174.740166 
L 181.055103 176.491789 
L 181.120047 153.412019 
L 181.18499 153.981603 
L 182.418925 163.788542 
L 183.652859 171.898479 
L 184.627017 177.297054 
L 184.691961 166.497366 
L 184.756905 166.936749 
L 185.990839 174.501918 
L 186.51039 177.281555 
L 186.575334 154.193927 
L 186.640278 154.755731 
L 187.874212 164.428714 
L 189.108146 172.427875 
L 190.147248 178.0801 
L 190.212192 161.244598 
L 190.277136 161.736247 
L 191.51107 170.201315 
L 192.225453 174.415284 
L 192.290397 151.356175 
L 192.355341 151.946216 
L 193.589275 162.10536 
L 194.823209 170.506557 
L 195.018041 171.693144 
L 195.082985 167.864463 
L 195.147928 168.290244 
L 195.407704 169.951418 
L 195.472648 167.803983 
L 195.537592 168.230365 
L 196.771526 175.571686 
L 197.356021 178.591327 
L 197.420965 155.490667 
L 197.485909 156.039568 
L 198.719843 165.490395 
L 199.953777 173.305842 
L 200.018721 173.67748 
L 200.083665 168.10435 
L 200.148609 168.527743 
L 201.382543 175.817605 
L 201.772206 177.846419 
L 201.83715 154.753171 
L 201.902094 155.309411 
L 203.136028 164.886584 
L 203.915355 169.584781 
L 204.889513 172.852355 
L 205.149289 173.585864 
L 205.214233 166.052745 
L 205.279177 166.301018 
L 206.253335 169.560549 
L 207.227493 172.67007 
L 208.461428 177.866433 
L 209.630418 181.957222 
L 209.695362 158.743907 
L 209.760306 159.181275 
L 210.99424 166.711752 
L 211.773566 170.78126 
L 211.83851 163.390835 
L 211.903454 163.781965 
L 213.137388 170.516334 
L 213.267276 171.153609 
L 213.33222 165.526429 
L 213.397164 165.89631 
L 214.631098 172.264811 
L 215.865032 177.531301 
L 217.098966 181.886473 
L 217.16391 174.385549 
L 217.228854 174.667281 
L 218.462788 179.518045 
L 219.696722 183.529429 
L 219.82661 183.909027 
L 219.891554 160.676292 
L 219.956497 161.094432 
L 221.190432 168.293854 
L 222.424366 174.247482 
L 223.6583 179.170889 
L 223.853131 179.866272 
L 223.918075 172.38545 
L 223.983019 172.687082 
L 225.216953 177.880502 
L 225.931336 180.465822 
L 225.99628 157.267347 
L 226.061224 157.719407 
L 227.295158 165.502846 
L 228.529092 171.939432 
L 229.373363 175.689257 
L 229.438307 168.249997 
L 229.50325 168.592777 
L 230.087746 171.528325 
L 230.152689 167.622122 
L 230.217633 167.97115 
L 231.256736 173.105991 
L 231.32168 149.980747 
L 231.386624 150.50531 
L 232.620558 159.537083 
L 233.854492 167.00599 
L 235.088426 173.182471 
L 236.517191 179.807177 
L 236.582135 172.493978 
L 236.647079 172.96315 
L 237.49135 178.79251 
L 237.556294 155.801469 
L 237.621238 156.460483 
L 239.050003 169.783801 
L 239.504611 173.437166 
L 239.569555 167.866428 
L 239.634499 168.292189 
L 240.868433 175.622811 
L 241.258096 177.662969 
L 241.32304 154.571546 
L 241.387984 155.129593 
L 242.621918 164.737882 
L 243.855852 172.683545 
L 244.765066 177.644297 
L 244.83001 166.841154 
L 244.894954 167.277116 
L 246.128888 174.783388 
L 247.362822 180.990768 
L 247.49271 181.578173 
L 247.557654 158.447793 
L 247.622598 158.967271 
L 248.856532 167.911485 
L 250.090466 175.307985 
L 251.259456 181.13081 
L 251.389344 141.306843 
L 251.454288 141.996875 
L 252.428446 151.560505 
L 252.558334 209.919014 
L 254.441707 210.104471 
L 254.506651 169.530614 
L 254.571595 169.939816 
L 255.805529 176.985332 
L 257.039463 182.811685 
L 258.273397 187.629842 
L 259.507331 191.61426 
L 260.221714 193.59773 
L 260.286658 182.635848 
L 260.351602 182.91465 
L 261.585536 187.714989 
L 261.910256 188.833822 
L 261.975199 165.631247 
L 262.040143 166.079248 
L 263.274077 173.7928 
L 264.508011 180.171592 
L 265.547114 184.67886 
L 265.612058 167.777699 
L 265.677002 168.204343 
L 266.910936 175.550166 
L 268.14487 181.624862 
L 268.274757 182.199712 
L 268.339701 176.541784 
L 268.404645 176.881224 
L 269.638579 182.725592 
L 270.80757 187.326517 
L 270.872513 164.13894 
L 270.937457 164.601789 
L 272.171391 172.571002 
L 273.210494 178.202064 
L 273.275438 175.972535 
L 273.340382 176.317638 
L 274.509372 181.974143 
L 274.574316 158.839823 
L 274.639259 159.3554 
L 275.873194 168.232452 
L 277.107128 175.573412 
L 278.341062 181.644085 
L 278.535893 182.501509 
L 278.600837 165.622013 
L 278.665781 166.070106 
L 279.899715 173.78524 
L 280.614098 177.625885 
L 280.679042 154.534831 
L 280.743986 155.093243 
L 281.97792 164.707823 
L 283.211854 172.658687 
L 283.926237 176.616681 
L 283.991181 171.014306 
L 284.056125 171.408745 
L 285.290059 178.200076 
L 285.744666 180.394278 
L 285.80961 157.275678 
L 285.874554 157.806818 
L 287.108488 166.951838 
L 288.342422 174.514396 
L 288.797029 176.957773 
L 288.861973 153.873367 
L 288.926917 154.438361 
L 290.160851 164.166262 
L 291.394785 172.210838 
L 291.784449 174.449694 
L 291.849392 163.678337 
L 291.914336 164.14577 
L 293.14827 172.193893 
L 294.382204 178.849361 
L 294.836812 180.999668 
L 294.901756 164.135116 
L 294.9667 164.598003 
L 296.200634 172.567871 
L 296.785129 175.846047 
L 296.850073 152.772703 
L 296.915016 153.348648 
L 298.148951 163.265114 
L 299.382885 171.465626 
L 300.162211 175.897225 
L 300.227155 159.083443 
L 300.292099 159.596596 
L 301.526033 168.431911 
L 302.695023 175.387431 
L 302.759967 158.578721 
L 302.824911 159.096896 
L 304.058845 168.01868 
L 304.578396 171.296772 
L 304.64334 148.268693 
L 304.708284 148.889455 
L 305.942218 159.577543 
L 307.176152 168.416155 
L 308.215255 174.661538 
L 308.280199 169.078617 
L 308.345142 169.492316 
L 309.579077 176.615267 
L 310.358403 180.464547 
L 310.423347 157.345248 
L 310.488291 157.875696 
L 311.722225 167.008797 
L 311.982001 168.720218 
L 312.046945 158.00587 
L 312.111889 158.529745 
L 313.345823 167.549669 
L 314.579757 175.008778 
L 315.29414 178.721973 
L 315.359083 173.09865 
L 315.424027 173.472349 
L 316.528074 179.285418 
L 316.593018 156.177852 
L 316.657961 156.719916 
L 317.891895 166.053014 
L 319.12583 173.771106 
L 320.359764 180.153652 
L 321.009203 183.056307 
L 321.074146 166.171291 
L 321.13909 166.613919 
L 322.373024 174.234951 
L 322.567856 175.311347 
L 322.6328 164.531417 
L 322.697744 164.990362 
L 323.931678 172.892335 
L 324.516173 176.142585 
L 324.581117 153.06629 
L 324.646061 153.639314 
L 325.879995 163.505483 
L 327.113929 171.664401 
L 327.9582 176.417621 
L 328.023144 153.33859 
L 328.088087 153.908905 
L 329.322021 163.728423 
L 330.555956 171.848764 
L 331.78989 178.563953 
L 331.854834 178.883272 
L 331.919777 173.258344 
L 331.984721 173.630454 
L 333.218655 180.037338 
L 333.478431 181.237902 
L 333.543375 170.399002 
L 333.608319 170.799563 
L 335.102028 182.648407 
L 335.166972 183.122619 
L 335.231916 177.652626 
L 335.29686 178.179713 
L 335.686523 181.26661 
L 335.751467 179.216371 
L 335.816411 179.740565 
L 336.46585 184.788558 
L 336.530794 181.058359 
L 336.595738 181.583224 
L 337.050345 184.680024 
L 337.115289 161.597943 
L 337.180233 162.165239 
L 338.414167 171.932781 
L 339.518213 179.230336 
L 339.583157 173.681117 
L 339.648101 174.128184 
L 339.972821 176.29767 
L 340.037765 174.166252 
L 340.102709 174.608492 
L 341.336643 182.222842 
L 341.661362 183.997547 
L 341.726306 160.922257 
L 341.79125 161.496276 
L 343.025184 171.379576 
L 344.259118 179.552661 
L 344.518894 181.084187 
L 344.583837 175.516523 
L 344.648781 175.945327 
L 344.843613 177.206308 
L 344.908557 154.198592 
L 344.973501 154.839513 
L 346.207435 165.874705 
L 347.441369 175.000357 
L 347.701145 176.710382 
L 347.766088 171.186238 
L 347.831032 171.658129 
L 349.000023 179.392778 
L 349.064966 177.230563 
L 349.12991 177.642312 
L 349.974181 182.636666 
L 350.039125 178.778259 
L 350.104069 179.174608 
L 351.338003 185.998834 
L 351.662722 187.589381 
L 351.727666 161.925903 
L 351.79261 162.489936 
L 353.026544 172.201292 
L 354.195534 179.846466 
L 354.260478 176.015822 
L 354.325422 176.439658 
L 354.585198 178.093247 
L 354.650142 175.943963 
L 354.715086 176.368514 
L 355.94902 183.678308 
L 356.858234 188.242066 
L 356.923178 177.412636 
L 356.988122 177.822574 
L 358.222056 184.880757 
L 358.287 185.216385 
L 358.351944 162.128967 
L 358.416888 162.69098 
L 359.650822 172.367547 
L 360.62498 178.808986 
L 360.689924 173.263961 
L 360.754868 173.715178 
L 361.988802 181.484108 
L 362.11869 182.219284 
L 362.183634 180.028945 
L 362.248578 180.41285 
L 362.313522 163.6333 
L 362.378466 164.180344 
L 363.6124 173.59919 
L 364.846334 181.388191 
L 364.911278 158.338864 
L 364.976221 158.938589 
L 366.145212 168.609406 
L 367.184314 173.433119 
L 368.093529 176.754268 
L 368.158472 159.802921 
L 368.223416 160.178294 
L 369.262519 165.495743 
L 369.522294 167.113611 
L 370.756228 174.648175 
L 370.886116 175.361173 
L 370.95106 152.292653 
L 371.016004 152.873375 
L 372.249938 162.872082 
L 373.483872 171.140605 
L 374.198255 175.256731 
L 374.328143 164.075248 
L 374.458031 164.997603 
L 375.691965 172.898324 
L 376.860955 179.118092 
L 376.925899 156.01219 
L 376.990843 156.555902 
L 378.224777 165.917382 
L 379.328823 172.911559 
L 379.393767 170.73467 
L 379.458711 171.131891 
L 379.978262 174.170628 
L 380.043206 170.317296 
L 380.10815 170.71867 
L 380.887476 175.234735 
L 380.95242 152.167473 
L 381.017364 152.749441 
L 382.251298 162.769594 
L 383.485232 171.055851 
L 384.719166 177.908247 
L 385.043886 179.50536 
L 385.10883 162.655677 
L 385.173774 163.133285 
L 386.407708 171.356609 
L 387.576698 177.830344 
L 387.641642 154.737255 
L 387.706586 155.293653 
L 388.94052 164.873553 
L 390.174454 172.79574 
L 390.823893 176.398593 
L 390.888837 174.187008 
L 390.953781 174.549878 
L 391.213556 175.965609 
L 391.2785 172.094417 
L 391.343444 172.478108 
L 391.60322 173.975074 
L 391.668163 166.632033 
L 391.733107 167.070076 
L 392.967041 174.612174 
L 394.200975 180.849181 
L 394.850414 183.685648 
L 394.915358 166.79437 
L 394.980302 167.230798 
L 395.954461 173.279544 
L 396.019405 150.231736 
L 396.084349 150.832965 
L 397.318283 161.184747 
L 398.487273 169.33409 
L 398.487273 169.33409 
" style="fill:none;stroke:#9a72ac;stroke-linecap:round;stroke-width:1.5;"/>
   </g>
   <g id="patch_8">
    <path d="M 57.6 213.662118 
L 57.6 135.393882 
" style="fill:none;stroke:#ffffff;stroke-linecap:square;stroke-linejoin:miter;stroke-width:0.8;"/>
   </g>
   <g id="patch_9">
    <path d="M 414.72 213.662118 
L 414.72 135.393882 
" style="fill:none;stroke:#ffffff;stroke-linecap:square;stroke-linejoin:miter;stroke-width:0.8;"/>
   </g>
   <g id="patch_10">
    <path d="M 57.6 213.662118 
L 414.72 213.662118 
" style="fill:none;stroke:#ffffff;stroke-linecap:square;stroke-linejoin:miter;stroke-width:0.8;"/>
   </g>
   <g id="patch_11">
    <path d="M 57.6 135.393882 
L 414.72 135.393882 
" style="fill:none;stroke:#ffffff;stroke-linecap:square;stroke-linejoin:miter;stroke-width:0.8;"/>
   </g>
  </g>
  <g id="text_21">
   <!-- M2 - $u$ -->
   <g style="fill:#ffffff;" transform="translate(212.88 15.60825)scale(0.12 -0.12)">
    <defs>
     <path d="M 66.703125 0 
L 66.703125 45.90625 
Q 66.703125 48.390625 66.75 50.96875 
Q 66.796875 53.5625 66.890625 55.71875 
Q 67 58.203125 67.140625 60.546875 
Q 66.453125 58.0625 65.71875 55.609375 
Q 65.09375 53.515625 64.328125 51.140625 
Q 63.578125 48.78125 62.84375 46.875 
L 45.0625 0 
L 38.53125 0 
L 20.515625 46.875 
Q 20.21875 47.609375 19.890625 48.578125 
Q 19.578125 49.5625 19.203125 50.65625 
Q 18.84375 51.765625 18.46875 52.90625 
Q 18.109375 54.046875 17.78125 55.171875 
Q 16.9375 57.765625 16.15625 60.546875 
Q 16.21875 57.8125 16.3125 55.125 
Q 16.40625 52.828125 16.453125 50.3125 
Q 16.5 47.796875 16.5 45.90625 
L 16.5 0 
L 8.203125 0 
L 8.203125 68.796875 
L 20.453125 68.796875 
L 38.765625 21.09375 
Q 39.109375 20.125 39.59375 18.578125 
Q 40.09375 17.046875 40.53125 15.421875 
Q 40.96875 13.8125 41.328125 12.375 
Q 41.703125 10.9375 41.84375 10.15625 
Q 42 10.9375 42.390625 12.40625 
Q 42.78125 13.875 43.28125 15.484375 
Q 43.796875 17.09375 44.28125 18.609375 
Q 44.78125 20.125 45.171875 21.09375 
L 63.140625 68.796875 
L 75.09375 68.796875 
L 75.09375 0 
z
" id="LiberationSans-77"/>
     <path d="M 4.4375 22.65625 
L 4.4375 30.46875 
L 28.859375 30.46875 
L 28.859375 22.65625 
z
" id="LiberationSans-45"/>
    </defs>
    <use transform="translate(0 0.171875)" xlink:href="#LiberationSans-77"/>
    <use transform="translate(83.300781 0.171875)" xlink:href="#LiberationSans-50"/>
    <use transform="translate(138.916016 0.171875)" xlink:href="#LiberationSans-32"/>
    <use transform="translate(166.699219 0.171875)" xlink:href="#LiberationSans-45"/>
    <use transform="translate(200 0.171875)" xlink:href="#LiberationSans-32"/>
    <use transform="translate(227.783203 0.171875)" xlink:href="#DejaVuSans-Oblique-117"/>
   </g>
  </g>
 </g>
 <defs>
  <clipPath id="p0360174ec5">
   <rect height="78.268235" width="357.12" x="57.6" y="41.472"/>
  </clipPath>
  <clipPath id="p93e10ead37">
   <rect height="78.268235" width="357.12" x="57.6" y="135.393882"/>
  </clipPath>
 </defs>
</svg>
