<?xml version="1.0" encoding="utf-8" standalone="no"?>
<!DOCTYPE svg PUBLIC "-//W3C//DTD SVG 1.1//EN"
  "http://www.w3.org/Graphics/SVG/1.1/DTD/svg11.dtd">
<!-- Created with matplotlib (https://matplotlib.org/) -->
<svg height="345.6pt" version="1.1" viewBox="0 0 460.8 345.6" width="460.8pt" xmlns="http://www.w3.org/2000/svg" xmlns:xlink="http://www.w3.org/1999/xlink">
 <metadata>
  <rdf:RDF xmlns:cc="http://creativecommons.org/ns#" xmlns:dc="http://purl.org/dc/elements/1.1/" xmlns:rdf="http://www.w3.org/1999/02/22-rdf-syntax-ns#">
   <cc:Work>
    <dc:type rdf:resource="http://purl.org/dc/dcmitype/StillImage"/>
    <dc:date>2022-05-05T12:30:20.903110</dc:date>
    <dc:format>image/svg+xml</dc:format>
    <dc:creator>
     <cc:Agent>
      <dc:title>Matplotlib v3.3.4, https://matplotlib.org/</dc:title>
     </cc:Agent>
    </dc:creator>
   </cc:Work>
  </rdf:RDF>
 </metadata>
 <defs>
  <style type="text/css">*{stroke-linecap:butt;stroke-linejoin:round;}</style>
 </defs>
 <g id="figure_1">
  <g id="patch_1">
   <path d="M 0 345.6 
L 460.8 345.6 
L 460.8 0 
L 0 0 
z
" style="fill:#262626;"/>
  </g>
  <g id="axes_1">
   <g id="patch_2">
    <path d="M 57.6 162.432 
L 414.72 162.432 
L 414.72 41.472 
L 57.6 41.472 
z
" style="fill:#1a1a1a;"/>
   </g>
   <g id="matplotlib.axis_1">
    <g id="xtick_1">
     <g id="line2d_1">
      <defs>
       <path d="M 0 0 
L 0 3.5 
" id="m7086c6dc41" style="stroke:#ffffff;stroke-width:0.8;"/>
      </defs>
      <g>
       <use style="fill:#ffffff;stroke:#ffffff;stroke-width:0.8;" x="73.832727" xlink:href="#m7086c6dc41" y="162.432"/>
      </g>
     </g>
     <g id="text_1">
      <!-- 0 -->
      <g style="fill:#ffffff;" transform="translate(71.052259 176.678875)scale(0.1 -0.1)">
       <defs>
        <path d="M 51.703125 34.421875 
Q 51.703125 24.515625 49.828125 17.75 
Q 47.953125 10.984375 44.703125 6.8125 
Q 41.453125 2.640625 37.0625 0.828125 
Q 32.671875 -0.984375 27.6875 -0.984375 
Q 22.65625 -0.984375 18.3125 0.828125 
Q 13.96875 2.640625 10.765625 6.78125 
Q 7.5625 10.9375 5.734375 17.703125 
Q 3.90625 24.46875 3.90625 34.421875 
Q 3.90625 44.828125 5.734375 51.640625 
Q 7.5625 58.453125 10.78125 62.5 
Q 14.015625 66.546875 18.40625 68.1875 
Q 22.796875 69.828125 27.984375 69.828125 
Q 32.90625 69.828125 37.21875 68.1875 
Q 41.546875 66.546875 44.765625 62.5 
Q 48 58.453125 49.84375 51.640625 
Q 51.703125 44.828125 51.703125 34.421875 
z
M 42.78125 34.421875 
Q 42.78125 42.625 41.796875 48.0625 
Q 40.828125 53.515625 38.921875 56.765625 
Q 37.015625 60.015625 34.25 61.359375 
Q 31.5 62.703125 27.984375 62.703125 
Q 24.265625 62.703125 21.4375 61.328125 
Q 18.609375 59.96875 16.671875 56.71875 
Q 14.75 53.46875 13.765625 48.015625 
Q 12.796875 42.578125 12.796875 34.421875 
Q 12.796875 26.515625 13.796875 21.09375 
Q 14.796875 15.671875 16.71875 12.375 
Q 18.65625 9.078125 21.4375 7.640625 
Q 24.21875 6.203125 27.78125 6.203125 
Q 31.25 6.203125 34.03125 7.640625 
Q 36.8125 9.078125 38.734375 12.375 
Q 40.671875 15.671875 41.71875 21.09375 
Q 42.78125 26.515625 42.78125 34.421875 
z
" id="LiberationSans-48"/>
       </defs>
       <use xlink:href="#LiberationSans-48"/>
      </g>
     </g>
    </g>
    <g id="xtick_2">
     <g id="line2d_2">
      <g>
       <use style="fill:#ffffff;stroke:#ffffff;stroke-width:0.8;" x="138.776625" xlink:href="#m7086c6dc41" y="162.432"/>
      </g>
     </g>
     <g id="text_2">
      <!-- 200 -->
      <g style="fill:#ffffff;" transform="translate(130.435219 176.678875)scale(0.1 -0.1)">
       <defs>
        <path d="M 5.03125 0 
L 5.03125 6.203125 
Q 7.515625 11.921875 11.109375 16.28125 
Q 14.703125 20.65625 18.65625 24.1875 
Q 22.609375 27.734375 26.484375 30.765625 
Q 30.375 33.796875 33.5 36.8125 
Q 36.625 39.84375 38.546875 43.15625 
Q 40.484375 46.484375 40.484375 50.6875 
Q 40.484375 53.609375 39.59375 55.828125 
Q 38.71875 58.0625 37.0625 59.5625 
Q 35.40625 61.078125 33.078125 61.828125 
Q 30.765625 62.59375 27.9375 62.59375 
Q 25.296875 62.59375 22.96875 61.859375 
Q 20.65625 61.140625 18.84375 59.671875 
Q 17.046875 58.203125 15.890625 56.03125 
Q 14.75 53.859375 14.40625 50.984375 
L 5.421875 51.8125 
Q 5.859375 55.515625 7.46875 58.78125 
Q 9.078125 62.0625 11.90625 64.53125 
Q 14.75 67 18.71875 68.40625 
Q 22.703125 69.828125 27.9375 69.828125 
Q 33.0625 69.828125 37.0625 68.609375 
Q 41.0625 67.390625 43.8125 64.984375 
Q 46.578125 62.59375 48.046875 59.078125 
Q 49.515625 55.5625 49.515625 50.984375 
Q 49.515625 47.515625 48.265625 44.390625 
Q 47.015625 41.265625 44.9375 38.421875 
Q 42.875 35.59375 40.140625 32.953125 
Q 37.40625 30.328125 34.421875 27.8125 
Q 31.453125 25.296875 28.421875 22.828125 
Q 25.390625 20.359375 22.71875 17.859375 
Q 20.0625 15.375 17.96875 12.8125 
Q 15.875 10.25 14.703125 7.46875 
L 50.59375 7.46875 
L 50.59375 0 
z
" id="LiberationSans-50"/>
       </defs>
       <use xlink:href="#LiberationSans-50"/>
       <use x="55.615234" xlink:href="#LiberationSans-48"/>
       <use x="111.230469" xlink:href="#LiberationSans-48"/>
      </g>
     </g>
    </g>
    <g id="xtick_3">
     <g id="line2d_3">
      <g>
       <use style="fill:#ffffff;stroke:#ffffff;stroke-width:0.8;" x="203.720523" xlink:href="#m7086c6dc41" y="162.432"/>
      </g>
     </g>
     <g id="text_3">
      <!-- 400 -->
      <g style="fill:#ffffff;" transform="translate(195.379117 176.678875)scale(0.1 -0.1)">
       <defs>
        <path d="M 43.015625 15.578125 
L 43.015625 0 
L 34.71875 0 
L 34.71875 15.578125 
L 2.296875 15.578125 
L 2.296875 22.40625 
L 33.796875 68.796875 
L 43.015625 68.796875 
L 43.015625 22.515625 
L 52.6875 22.515625 
L 52.6875 15.578125 
z
M 34.71875 58.890625 
Q 34.625 58.640625 34.234375 57.9375 
Q 33.84375 57.234375 33.34375 56.34375 
Q 32.859375 55.46875 32.34375 54.5625 
Q 31.84375 53.65625 31.453125 53.078125 
L 13.8125 27.09375 
Q 13.578125 26.703125 13.109375 26.0625 
Q 12.640625 25.4375 12.15625 24.78125 
Q 11.671875 24.125 11.171875 23.484375 
Q 10.6875 22.859375 10.40625 22.515625 
L 34.71875 22.515625 
z
" id="LiberationSans-52"/>
       </defs>
       <use xlink:href="#LiberationSans-52"/>
       <use x="55.615234" xlink:href="#LiberationSans-48"/>
       <use x="111.230469" xlink:href="#LiberationSans-48"/>
      </g>
     </g>
    </g>
    <g id="xtick_4">
     <g id="line2d_4">
      <g>
       <use style="fill:#ffffff;stroke:#ffffff;stroke-width:0.8;" x="268.664421" xlink:href="#m7086c6dc41" y="162.432"/>
      </g>
     </g>
     <g id="text_4">
      <!-- 600 -->
      <g style="fill:#ffffff;" transform="translate(260.323015 176.678875)scale(0.1 -0.1)">
       <defs>
        <path d="M 51.21875 22.515625 
Q 51.21875 17.328125 49.78125 13 
Q 48.34375 8.6875 45.53125 5.578125 
Q 42.71875 2.484375 38.5625 0.75 
Q 34.421875 -0.984375 29 -0.984375 
Q 23 -0.984375 18.5 1.3125 
Q 14.015625 3.609375 11.03125 7.921875 
Q 8.0625 12.25 6.5625 18.53125 
Q 5.078125 24.8125 5.078125 32.8125 
Q 5.078125 42 6.765625 48.921875 
Q 8.453125 55.859375 11.625 60.5 
Q 14.796875 65.140625 19.359375 67.484375 
Q 23.921875 69.828125 29.6875 69.828125 
Q 33.203125 69.828125 36.28125 69.09375 
Q 39.359375 68.359375 41.875 66.71875 
Q 44.390625 65.09375 46.28125 62.40625 
Q 48.1875 59.71875 49.3125 55.8125 
L 40.921875 54.296875 
Q 39.546875 58.734375 36.546875 60.71875 
Q 33.546875 62.703125 29.59375 62.703125 
Q 25.984375 62.703125 23.046875 60.984375 
Q 20.125 59.28125 18.0625 55.875 
Q 16.015625 52.484375 14.90625 47.359375 
Q 13.8125 42.234375 13.8125 35.40625 
Q 16.21875 39.84375 20.5625 42.15625 
Q 24.90625 44.484375 30.515625 44.484375 
Q 35.203125 44.484375 39.015625 42.96875 
Q 42.828125 41.453125 45.53125 38.59375 
Q 48.25 35.75 49.734375 31.671875 
Q 51.21875 27.59375 51.21875 22.515625 
z
M 42.28125 22.125 
Q 42.28125 25.6875 41.40625 28.5625 
Q 40.53125 31.453125 38.765625 33.46875 
Q 37.015625 35.5 34.421875 36.59375 
Q 31.84375 37.703125 28.421875 37.703125 
Q 26.03125 37.703125 23.578125 36.984375 
Q 21.140625 36.28125 19.15625 34.6875 
Q 17.1875 33.109375 15.9375 30.515625 
Q 14.703125 27.9375 14.703125 24.21875 
Q 14.703125 20.40625 15.671875 17.109375 
Q 16.65625 13.8125 18.484375 11.375 
Q 20.3125 8.9375 22.890625 7.515625 
Q 25.484375 6.109375 28.71875 6.109375 
Q 31.890625 6.109375 34.40625 7.203125 
Q 36.921875 8.296875 38.671875 10.375 
Q 40.4375 12.453125 41.359375 15.421875 
Q 42.28125 18.40625 42.28125 22.125 
z
" id="LiberationSans-54"/>
       </defs>
       <use xlink:href="#LiberationSans-54"/>
       <use x="55.615234" xlink:href="#LiberationSans-48"/>
       <use x="111.230469" xlink:href="#LiberationSans-48"/>
      </g>
     </g>
    </g>
    <g id="xtick_5">
     <g id="line2d_5">
      <g>
       <use style="fill:#ffffff;stroke:#ffffff;stroke-width:0.8;" x="333.608319" xlink:href="#m7086c6dc41" y="162.432"/>
      </g>
     </g>
     <g id="text_5">
      <!-- 800 -->
      <g style="fill:#ffffff;" transform="translate(325.266913 176.678875)scale(0.1 -0.1)">
       <defs>
        <path d="M 51.265625 19.1875 
Q 51.265625 14.796875 49.875 11.109375 
Q 48.484375 7.421875 45.625 4.734375 
Q 42.78125 2.046875 38.328125 0.53125 
Q 33.890625 -0.984375 27.828125 -0.984375 
Q 21.78125 -0.984375 17.359375 0.53125 
Q 12.9375 2.046875 10.03125 4.703125 
Q 7.125 7.375 5.734375 11.0625 
Q 4.34375 14.75 4.34375 19.09375 
Q 4.34375 22.859375 5.484375 25.78125 
Q 6.640625 28.71875 8.5625 30.828125 
Q 10.5 32.953125 12.96875 34.25 
Q 15.4375 35.546875 18.0625 35.984375 
L 18.0625 36.1875 
Q 15.1875 36.859375 12.90625 38.375 
Q 10.640625 39.890625 9.09375 42.015625 
Q 7.5625 44.140625 6.75 46.71875 
Q 5.953125 49.3125 5.953125 52.203125 
Q 5.953125 55.8125 7.34375 59 
Q 8.734375 62.203125 11.46875 64.625 
Q 14.203125 67.046875 18.25 68.4375 
Q 22.3125 69.828125 27.640625 69.828125 
Q 33.25 69.828125 37.375 68.40625 
Q 41.5 67 44.203125 64.578125 
Q 46.921875 62.15625 48.234375 58.9375 
Q 49.5625 55.71875 49.5625 52.09375 
Q 49.5625 49.265625 48.75 46.671875 
Q 47.953125 44.09375 46.40625 41.96875 
Q 44.875 39.84375 42.59375 38.34375 
Q 40.328125 36.859375 37.359375 36.28125 
L 37.359375 36.078125 
Q 40.328125 35.59375 42.859375 34.296875 
Q 45.40625 33.015625 47.265625 30.890625 
Q 49.125 28.765625 50.1875 25.828125 
Q 51.265625 22.90625 51.265625 19.1875 
z
M 40.4375 51.609375 
Q 40.4375 54.203125 39.765625 56.34375 
Q 39.109375 58.5 37.59375 60.03125 
Q 36.078125 61.578125 33.640625 62.421875 
Q 31.203125 63.28125 27.640625 63.28125 
Q 24.171875 63.28125 21.78125 62.421875 
Q 19.390625 61.578125 17.84375 60.03125 
Q 16.3125 58.5 15.625 56.34375 
Q 14.9375 54.203125 14.9375 51.609375 
Q 14.9375 49.5625 15.46875 47.40625 
Q 16.015625 45.265625 17.421875 43.5 
Q 18.84375 41.75 21.328125 40.625 
Q 23.828125 39.5 27.734375 39.5 
Q 31.890625 39.5 34.40625 40.625 
Q 36.921875 41.75 38.25 43.5 
Q 39.59375 45.265625 40.015625 47.40625 
Q 40.4375 49.5625 40.4375 51.609375 
z
M 42.140625 20.015625 
Q 42.140625 22.515625 41.453125 24.828125 
Q 40.765625 27.15625 39.109375 28.9375 
Q 37.453125 30.71875 34.640625 31.8125 
Q 31.84375 32.90625 27.640625 32.90625 
Q 23.78125 32.90625 21.0625 31.8125 
Q 18.359375 30.71875 16.671875 28.90625 
Q 14.984375 27.09375 14.203125 24.71875 
Q 13.421875 22.359375 13.421875 19.828125 
Q 13.421875 16.65625 14.203125 14.03125 
Q 14.984375 11.421875 16.6875 9.546875 
Q 18.40625 7.671875 21.1875 6.640625 
Q 23.96875 5.609375 27.9375 5.609375 
Q 31.9375 5.609375 34.671875 6.640625 
Q 37.40625 7.671875 39.0625 9.546875 
Q 40.71875 11.421875 41.421875 14.078125 
Q 42.140625 16.75 42.140625 20.015625 
z
" id="LiberationSans-56"/>
       </defs>
       <use xlink:href="#LiberationSans-56"/>
       <use x="55.615234" xlink:href="#LiberationSans-48"/>
       <use x="111.230469" xlink:href="#LiberationSans-48"/>
      </g>
     </g>
    </g>
    <g id="xtick_6">
     <g id="line2d_6">
      <g>
       <use style="fill:#ffffff;stroke:#ffffff;stroke-width:0.8;" x="398.552217" xlink:href="#m7086c6dc41" y="162.432"/>
      </g>
     </g>
     <g id="text_6">
      <!-- 1000 -->
      <g style="fill:#ffffff;" transform="translate(387.430342 176.678875)scale(0.1 -0.1)">
       <defs>
        <path d="M 7.625 0 
L 7.625 7.46875 
L 25.140625 7.46875 
L 25.140625 60.40625 
L 9.625 49.3125 
L 9.625 57.625 
L 25.875 68.796875 
L 33.984375 68.796875 
L 33.984375 7.46875 
L 50.734375 7.46875 
L 50.734375 0 
z
" id="LiberationSans-49"/>
       </defs>
       <use xlink:href="#LiberationSans-49"/>
       <use x="55.615234" xlink:href="#LiberationSans-48"/>
       <use x="111.230469" xlink:href="#LiberationSans-48"/>
       <use x="166.845703" xlink:href="#LiberationSans-48"/>
      </g>
     </g>
    </g>
   </g>
   <g id="matplotlib.axis_2">
    <g id="ytick_1">
     <g id="line2d_7">
      <defs>
       <path d="M 0 0 
L -3.5 0 
" id="m20bc068bf2" style="stroke:#ffffff;stroke-width:0.8;"/>
      </defs>
      <g>
       <use style="fill:#ffffff;stroke:#ffffff;stroke-width:0.8;" x="57.6" xlink:href="#m20bc068bf2" y="137.669864"/>
      </g>
     </g>
     <g id="text_7">
      <!-- 0.5 -->
      <g style="fill:#ffffff;" transform="translate(36.7 141.293301)scale(0.1 -0.1)">
       <defs>
        <path d="M 9.125 0 
L 9.125 10.6875 
L 18.65625 10.6875 
L 18.65625 0 
z
" id="LiberationSans-46"/>
        <path d="M 51.421875 22.40625 
Q 51.421875 17.234375 49.859375 12.9375 
Q 48.296875 8.640625 45.21875 5.53125 
Q 42.140625 2.4375 37.578125 0.71875 
Q 33.015625 -0.984375 27 -0.984375 
Q 21.578125 -0.984375 17.546875 0.28125 
Q 13.53125 1.5625 10.734375 3.78125 
Q 7.953125 6 6.3125 8.984375 
Q 4.6875 11.96875 4 15.375 
L 12.890625 16.40625 
Q 13.421875 14.453125 14.390625 12.625 
Q 15.375 10.796875 17.0625 9.34375 
Q 18.75 7.90625 21.21875 7.046875 
Q 23.6875 6.203125 27.203125 6.203125 
Q 30.609375 6.203125 33.390625 7.25 
Q 36.1875 8.296875 38.15625 10.34375 
Q 40.140625 12.40625 41.203125 15.375 
Q 42.28125 18.359375 42.28125 22.21875 
Q 42.28125 25.390625 41.25 28.046875 
Q 40.234375 30.71875 38.328125 32.640625 
Q 36.421875 34.578125 33.65625 35.640625 
Q 30.90625 36.71875 27.390625 36.71875 
Q 25.203125 36.71875 23.34375 36.328125 
Q 21.484375 35.9375 19.890625 35.25 
Q 18.3125 34.578125 17.015625 33.671875 
Q 15.71875 32.765625 14.59375 31.78125 
L 6 31.78125 
L 8.296875 68.796875 
L 47.40625 68.796875 
L 47.40625 61.328125 
L 16.3125 61.328125 
L 14.984375 39.5 
Q 17.328125 41.3125 20.84375 42.59375 
Q 24.359375 43.890625 29.203125 43.890625 
Q 34.328125 43.890625 38.421875 42.328125 
Q 42.53125 40.765625 45.40625 37.90625 
Q 48.296875 35.0625 49.859375 31.109375 
Q 51.421875 27.15625 51.421875 22.40625 
z
" id="LiberationSans-53"/>
       </defs>
       <use xlink:href="#LiberationSans-48"/>
       <use x="55.615234" xlink:href="#LiberationSans-46"/>
       <use x="83.398438" xlink:href="#LiberationSans-53"/>
      </g>
     </g>
    </g>
    <g id="ytick_2">
     <g id="line2d_8">
      <g>
       <use style="fill:#ffffff;stroke:#ffffff;stroke-width:0.8;" x="57.6" xlink:href="#m20bc068bf2" y="100.922599"/>
      </g>
     </g>
     <g id="text_8">
      <!-- 1.0 -->
      <g style="fill:#ffffff;" transform="translate(36.7 104.546037)scale(0.1 -0.1)">
       <use xlink:href="#LiberationSans-49"/>
       <use x="55.615234" xlink:href="#LiberationSans-46"/>
       <use x="83.398438" xlink:href="#LiberationSans-48"/>
      </g>
     </g>
    </g>
    <g id="ytick_3">
     <g id="line2d_9">
      <g>
       <use style="fill:#ffffff;stroke:#ffffff;stroke-width:0.8;" x="57.6" xlink:href="#m20bc068bf2" y="64.175335"/>
      </g>
     </g>
     <g id="text_9">
      <!-- 1.5 -->
      <g style="fill:#ffffff;" transform="translate(36.7 67.798772)scale(0.1 -0.1)">
       <use xlink:href="#LiberationSans-49"/>
       <use x="55.615234" xlink:href="#LiberationSans-46"/>
       <use x="83.398438" xlink:href="#LiberationSans-53"/>
      </g>
     </g>
    </g>
   </g>
   <g id="line2d_10">
    <path clip-path="url(#p35745f0aae)" d="M 73.832727 132.380326 
L 75.066661 139.654411 
L 76.300595 145.669781 
L 76.625315 147.071806 
L 76.755203 156.03743 
L 77.079922 156.933818 
L 77.144866 90.814158 
L 77.20981 91.646021 
L 78.443744 105.968805 
L 79.677678 117.813163 
L 80.911612 127.607962 
L 81.171388 129.443376 
L 81.236332 63.59725 
L 81.301276 64.699926 
L 82.53521 83.685486 
L 83.769144 99.385768 
L 85.003078 112.369259 
L 86.237012 123.106076 
L 87.470946 131.984985 
L 88.70488 139.32748 
L 89.224431 142.025301 
L 89.289375 76.053982 
L 89.354319 77.032712 
L 90.588253 93.884196 
L 91.822187 107.819684 
L 92.796345 117.096177 
L 92.861289 51.372908 
L 92.926233 52.597218 
L 94.160167 73.677041 
L 95.394101 91.109193 
L 96.628035 105.52487 
L 97.861969 117.446046 
L 99.095904 127.304372 
L 99.160847 127.773152 
L 99.225791 61.943645 
L 99.290735 63.062775 
L 100.524669 82.331629 
L 101.758603 98.266183 
L 102.992537 111.443409 
L 104.226471 122.340436 
L 105.460406 131.351832 
L 106.69434 138.803888 
L 107.928274 144.966434 
L 108.123105 145.836834 
L 108.188049 79.82759 
L 108.252993 80.768772 
L 109.486927 96.973765 
L 110.720861 110.374631 
L 111.954795 121.456601 
L 113.188729 130.620936 
L 114.422663 138.199467 
L 115.656598 144.466603 
L 116.6957 148.894974 
L 116.760644 82.855302 
L 116.825588 83.766357 
L 117.150307 88.187447 
L 117.280195 98.319059 
L 118.514129 111.487135 
L 118.968736 115.741592 
L 119.03368 50.031801 
L 119.098624 51.269455 
L 120.332558 72.579035 
L 121.566492 90.201187 
L 122.800426 104.773987 
L 123.579753 112.649203 
L 123.644697 46.970182 
L 123.709641 48.2383 
L 124.943575 70.072394 
L 126.177509 88.128297 
L 127.411443 103.059791 
L 128.645377 115.407527 
L 129.879311 125.618599 
L 131.113245 134.062739 
L 132.347179 141.045698 
L 133.256394 145.4054 
L 133.321338 79.40045 
L 133.386282 80.345881 
L 134.620216 96.624051 
L 135.85415 110.085433 
L 137.088084 121.217445 
L 138.322018 130.423164 
L 138.906513 134.209673 
L 138.971457 68.316122 
L 139.036401 69.371844 
L 140.270335 87.548971 
L 141.504269 102.580712 
L 142.738203 115.011348 
L 143.972137 125.290976 
L 145.206071 133.791808 
L 145.271015 67.902414 
L 145.335959 68.962254 
L 146.569893 87.210256 
L 147.803827 102.300609 
L 149.037761 114.779714 
L 150.271695 125.099424 
L 151.505629 133.633402 
L 152.739563 140.690654 
L 152.999339 142.013088 
L 153.064283 76.041891 
L 153.129227 77.020741 
L 154.363161 93.874296 
L 155.597095 107.811498 
L 156.831029 119.336994 
L 158.064963 128.868108 
L 159.298897 136.74995 
L 160.532831 143.267911 
L 161.766765 148.657999 
L 161.831709 148.914306 
L 161.896653 82.874442 
L 161.961597 83.785307 
L 163.195531 99.468315 
L 164.429465 112.437523 
L 165.663399 123.162528 
L 166.897333 132.031668 
L 168.131267 139.366085 
L 168.910594 143.329642 
L 168.975538 77.345345 
L 169.040482 78.311226 
L 170.274416 94.941474 
L 171.378462 107.366315 
L 171.50835 117.11816 
L 172.742284 127.033223 
L 173.976218 135.232575 
L 174.820488 140.009351 
L 174.885432 74.058092 
L 174.950376 75.056682 
L 176.18431 92.250099 
L 177.418244 106.468353 
L 178.652178 118.226268 
L 179.886112 127.949583 
L 181.120047 135.990368 
L 181.769486 139.647157 
L 181.834429 73.699502 
L 181.899373 74.701659 
L 183.133307 91.956511 
L 184.367241 106.225567 
L 185.601176 118.025494 
L 186.83511 127.783551 
L 187.354661 131.368911 
L 187.419605 65.503626 
L 187.484549 66.587333 
L 188.718483 85.246295 
L 189.952417 100.676493 
L 191.186351 113.436636 
L 192.420285 123.988754 
L 193.654219 132.714923 
L 194.693321 138.880853 
L 194.758265 72.940823 
L 194.823209 73.950529 
L 196.057143 91.335357 
L 197.291077 105.711898 
L 198.525011 117.600711 
L 199.758945 127.432273 
L 200.992879 135.562573 
L 202.226813 142.285999 
L 202.421645 143.235617 
L 202.486589 77.252257 
L 202.551533 78.219063 
L 203.265916 88.239618 
L 203.395804 98.370197 
L 204.629738 111.529424 
L 205.863672 122.411567 
L 206.902774 130.100912 
L 206.967718 64.248244 
L 207.032662 65.344442 
L 208.266596 84.218474 
L 209.50053 99.826528 
L 210.734464 112.73375 
L 211.968398 123.407495 
L 212.423005 126.856062 
L 212.487949 61.03568 
L 212.552893 62.163844 
L 213.786827 81.58825 
L 215.020761 97.651439 
L 216.254695 110.935041 
L 217.488629 121.920036 
L 218.722563 131.004178 
L 219.956497 138.516393 
L 220.281217 140.267292 
L 220.411105 149.367654 
L 220.476049 149.616901 
L 220.540993 83.570045 
L 220.605936 84.473989 
L 221.839871 100.037828 
L 223.073805 112.908486 
L 224.307739 123.551995 
L 225.541673 132.353742 
L 226.775607 139.632427 
L 227.360102 142.626305 
L 227.425046 76.649007 
L 227.48999 77.621816 
L 228.723924 94.37136 
L 229.957858 108.222549 
L 231.191792 119.676917 
L 232.425726 129.14921 
L 233.269997 134.667576 
L 233.33494 68.769469 
L 233.399884 69.820681 
L 234.633818 87.920141 
L 235.867752 102.887654 
L 237.101687 115.265177 
L 238.335621 125.500882 
L 239.569555 133.965391 
L 240.803489 140.965195 
L 241.972479 146.475725 
L 242.037423 80.460124 
L 242.102367 81.395012 
L 243.336301 97.49164 
L 244.570235 110.802893 
L 245.024842 115.103608 
L 245.15473 124.702245 
L 246.063944 131.197085 
L 246.128888 65.333509 
L 246.193832 66.41891 
L 247.427766 85.107015 
L 248.6617 100.561314 
L 249.895634 113.341388 
L 251.129568 123.909987 
L 252.363503 132.649787 
L 253.337661 138.467644 
L 253.402605 72.531726 
L 253.467549 73.545502 
L 254.701483 91.000416 
L 255.935417 105.434916 
L 257.169351 117.371658 
L 258.403285 127.242856 
L 259.637219 135.405933 
L 260.741265 141.504755 
L 260.806209 75.538617 
L 260.871153 76.522474 
L 262.105087 93.46225 
L 263.339021 107.470752 
L 264.572955 119.055211 
L 265.806889 128.635085 
L 267.040823 136.55725 
L 268.274757 143.108556 
L 269.508692 148.526218 
L 269.833411 149.788933 
L 269.898355 83.740366 
L 269.963299 84.642614 
L 271.197233 100.177274 
L 272.431167 113.023803 
L 273.665101 123.647357 
L 274.899035 132.432602 
L 275.80825 137.917535 
L 275.873194 71.98709 
L 275.938137 73.006286 
L 277.172072 90.554506 
L 278.406006 105.066167 
L 279.63994 117.066717 
L 280.873874 126.990682 
L 281.523313 131.503905 
L 281.588257 65.637277 
L 281.6532 66.719654 
L 282.887135 85.355719 
L 284.121069 100.766982 
L 285.355003 113.511467 
L 286.588937 124.050636 
L 287.822871 132.766097 
L 289.056805 139.973428 
L 290.290739 145.933596 
L 291.264897 149.901124 
L 291.329841 83.851441 
L 291.394785 84.752584 
L 292.628719 100.268215 
L 293.862653 113.099007 
L 295.096587 123.709548 
L 296.330521 132.484032 
L 297.564455 139.740171 
L 298.668502 145.161399 
L 298.733446 79.158877 
L 298.798389 80.106712 
L 300.032324 96.426268 
L 301.266258 109.921874 
L 302.500192 121.082189 
L 303.734126 130.311313 
L 304.838172 137.206604 
L 304.903116 71.283233 
L 304.96806 72.309432 
L 306.201994 89.978236 
L 307.435928 104.589615 
L 308.669862 116.672629 
L 309.903796 126.664787 
L 310.942898 133.725267 
L 311.007842 67.836536 
L 311.072786 68.897031 
L 312.30672 87.15632 
L 313.540654 102.256006 
L 314.774588 114.742829 
L 316.008522 125.068921 
L 317.242456 133.608178 
L 318.476391 140.669794 
L 319.385605 145.078605 
L 319.450549 79.076906 
L 319.515493 80.025558 
L 320.749427 96.359157 
L 321.983361 109.866376 
L 323.217295 121.036294 
L 324.451229 130.27336 
L 325.685163 137.912036 
L 326.659322 142.996904 
L 326.724266 77.015918 
L 326.789209 77.985077 
L 328.023144 94.671762 
L 329.257078 108.47097 
L 330.491012 119.88235 
L 331.724946 129.319095 
L 332.95888 137.122898 
L 333.153711 138.225109 
L 333.218655 72.291604 
L 333.283599 73.30777 
L 334.517533 90.803821 
L 335.751467 105.27234 
L 336.985401 117.237214 
L 338.219336 127.131676 
L 339.45327 135.313992 
L 340.687204 142.080432 
L 340.752148 142.402188 
L 340.817091 76.42712 
L 340.882035 77.402137 
L 342.115969 94.189695 
L 343.349903 108.072319 
L 344.583837 119.552683 
L 345.493052 126.720271 
L 345.62294 136.088882 
L 345.687884 136.470254 
L 345.752828 70.55421 
L 345.817772 71.587663 
L 347.051706 89.381363 
L 348.28564 104.096025 
L 349.519574 116.26445 
L 350.753508 126.32724 
L 351.987442 134.648756 
L 353.091488 140.865952 
L 353.156432 74.906169 
L 353.221376 75.89632 
L 354.45531 92.944446 
L 355.689244 107.04255 
L 356.923178 118.701105 
L 358.157112 128.342254 
L 359.391046 136.31509 
L 360.235317 140.959903 
L 360.300261 74.999186 
L 360.365205 75.988411 
L 361.599139 93.020601 
L 362.833073 107.105527 
L 364.067007 118.753185 
L 365.300941 128.385322 
L 365.560717 130.190255 
L 365.690604 139.490155 
L 365.885436 140.522403 
L 365.95038 74.56604 
L 366.015324 75.559574 
L 367.249258 92.665971 
L 368.483192 106.812262 
L 369.717126 118.510667 
L 370.95106 128.184769 
L 372.184994 136.184857 
L 373.418928 142.800602 
L 373.548816 143.426651 
L 373.61376 77.44139 
L 373.678704 78.406314 
L 374.912638 95.020109 
L 376.146572 108.759038 
L 377.380506 120.120571 
L 378.61444 129.516094 
L 379.848374 137.285808 
L 380.692645 141.812286 
L 380.757589 75.843087 
L 380.822533 76.823915 
L 382.056467 93.711529 
L 383.290401 107.676896 
L 384.524335 119.225684 
L 385.758269 128.776059 
L 386.992203 136.673829 
L 388.226137 143.204963 
L 389.330183 148.084522 
L 389.395127 82.052914 
L 389.460071 82.971953 
L 390.694005 98.795706 
L 391.927939 111.881302 
L 393.161873 122.702556 
L 394.395807 131.65129 
L 395.629741 139.051528 
L 396.344124 142.735416 
L 396.409068 76.757032 
L 396.474012 77.728767 
L 397.707946 94.459805 
L 398.487273 103.501344 
L 398.487273 103.501344 
" style="fill:none;stroke:#9a72ac;stroke-linecap:round;stroke-width:1.5;"/>
   </g>
   <g id="line2d_11">
    <path clip-path="url(#p35745f0aae)" d="M 73.832727 100.922599 
L 398.487273 100.922599 
L 398.487273 100.922599 
" style="fill:none;stroke:#cf5044;stroke-linecap:round;stroke-width:1.5;"/>
   </g>
   <g id="patch_3">
    <path d="M 57.6 162.432 
L 57.6 41.472 
" style="fill:none;stroke:#ffffff;stroke-linecap:square;stroke-linejoin:miter;stroke-width:0.8;"/>
   </g>
   <g id="patch_4">
    <path d="M 414.72 162.432 
L 414.72 41.472 
" style="fill:none;stroke:#ffffff;stroke-linecap:square;stroke-linejoin:miter;stroke-width:0.8;"/>
   </g>
   <g id="patch_5">
    <path d="M 57.6 162.432 
L 414.72 162.432 
" style="fill:none;stroke:#ffffff;stroke-linecap:square;stroke-linejoin:miter;stroke-width:0.8;"/>
   </g>
   <g id="patch_6">
    <path d="M 57.6 41.472 
L 414.72 41.472 
" style="fill:none;stroke:#ffffff;stroke-linecap:square;stroke-linejoin:miter;stroke-width:0.8;"/>
   </g>
   <g id="legend_1">
    <g id="line2d_12">
     <path d="M 371.72 54.218875 
L 391.72 54.218875 
" style="fill:none;stroke:#9a72ac;stroke-linecap:round;stroke-width:1.5;"/>
    </g>
    <g id="line2d_13"/>
    <g id="text_10">
     <!-- $\hat{x}$ -->
     <g style="fill:#ffffff;" transform="translate(399.72 57.718875)scale(0.1 -0.1)">
      <defs>
       <path d="M -28.609375 79.984375 
L -21.390625 79.984375 
L -9.421875 61.625 
L -16.21875 61.625 
L -25 73.578125 
L -33.796875 61.625 
L -40.578125 61.625 
z
M -25 56 
z
" id="DejaVuSans-770"/>
       <path d="M 60.015625 54.6875 
L 34.90625 27.875 
L 50.296875 0 
L 39.984375 0 
L 28.421875 21.6875 
L 8.296875 0 
L -2.59375 0 
L 24.3125 28.8125 
L 10.015625 54.6875 
L 20.3125 54.6875 
L 30.8125 34.90625 
L 49.125 54.6875 
z
" id="DejaVuSans-Oblique-120"/>
      </defs>
      <use transform="translate(62.373047 12.015625)" xlink:href="#DejaVuSans-770"/>
      <use transform="translate(0 0.828125)" xlink:href="#DejaVuSans-Oblique-120"/>
     </g>
    </g>
    <g id="line2d_14">
     <path d="M 371.72 68.54075 
L 391.72 68.54075 
" style="fill:none;stroke:#cf5044;stroke-linecap:round;stroke-width:1.5;"/>
    </g>
    <g id="line2d_15"/>
    <g id="text_11">
     <!-- x -->
     <g style="fill:#ffffff;" transform="translate(399.72 72.04075)scale(0.1 -0.1)">
      <defs>
       <path d="M 39.109375 0 
L 24.90625 21.6875 
L 10.59375 0 
L 1.125 0 
L 19.921875 27.15625 
L 2 52.828125 
L 11.71875 52.828125 
L 24.90625 32.28125 
L 37.984375 52.828125 
L 47.796875 52.828125 
L 29.890625 27.25 
L 48.921875 0 
z
" id="LiberationSans-120"/>
      </defs>
      <use xlink:href="#LiberationSans-120"/>
     </g>
    </g>
   </g>
  </g>
  <g id="axes_2">
   <g id="patch_7">
    <path d="M 57.6 307.584 
L 414.72 307.584 
L 414.72 186.624 
L 57.6 186.624 
z
" style="fill:#1a1a1a;"/>
   </g>
   <g id="matplotlib.axis_3">
    <g id="xtick_7">
     <g id="line2d_16">
      <g>
       <use style="fill:#ffffff;stroke:#ffffff;stroke-width:0.8;" x="73.832727" xlink:href="#m7086c6dc41" y="307.584"/>
      </g>
     </g>
     <g id="text_12">
      <!-- 0 -->
      <g style="fill:#ffffff;" transform="translate(71.052259 321.830875)scale(0.1 -0.1)">
       <use xlink:href="#LiberationSans-48"/>
      </g>
     </g>
    </g>
    <g id="xtick_8">
     <g id="line2d_17">
      <g>
       <use style="fill:#ffffff;stroke:#ffffff;stroke-width:0.8;" x="138.776625" xlink:href="#m7086c6dc41" y="307.584"/>
      </g>
     </g>
     <g id="text_13">
      <!-- 200 -->
      <g style="fill:#ffffff;" transform="translate(130.435219 321.830875)scale(0.1 -0.1)">
       <use xlink:href="#LiberationSans-50"/>
       <use x="55.615234" xlink:href="#LiberationSans-48"/>
       <use x="111.230469" xlink:href="#LiberationSans-48"/>
      </g>
     </g>
    </g>
    <g id="xtick_9">
     <g id="line2d_18">
      <g>
       <use style="fill:#ffffff;stroke:#ffffff;stroke-width:0.8;" x="203.720523" xlink:href="#m7086c6dc41" y="307.584"/>
      </g>
     </g>
     <g id="text_14">
      <!-- 400 -->
      <g style="fill:#ffffff;" transform="translate(195.379117 321.830875)scale(0.1 -0.1)">
       <use xlink:href="#LiberationSans-52"/>
       <use x="55.615234" xlink:href="#LiberationSans-48"/>
       <use x="111.230469" xlink:href="#LiberationSans-48"/>
      </g>
     </g>
    </g>
    <g id="xtick_10">
     <g id="line2d_19">
      <g>
       <use style="fill:#ffffff;stroke:#ffffff;stroke-width:0.8;" x="268.664421" xlink:href="#m7086c6dc41" y="307.584"/>
      </g>
     </g>
     <g id="text_15">
      <!-- 600 -->
      <g style="fill:#ffffff;" transform="translate(260.323015 321.830875)scale(0.1 -0.1)">
       <use xlink:href="#LiberationSans-54"/>
       <use x="55.615234" xlink:href="#LiberationSans-48"/>
       <use x="111.230469" xlink:href="#LiberationSans-48"/>
      </g>
     </g>
    </g>
    <g id="xtick_11">
     <g id="line2d_20">
      <g>
       <use style="fill:#ffffff;stroke:#ffffff;stroke-width:0.8;" x="333.608319" xlink:href="#m7086c6dc41" y="307.584"/>
      </g>
     </g>
     <g id="text_16">
      <!-- 800 -->
      <g style="fill:#ffffff;" transform="translate(325.266913 321.830875)scale(0.1 -0.1)">
       <use xlink:href="#LiberationSans-56"/>
       <use x="55.615234" xlink:href="#LiberationSans-48"/>
       <use x="111.230469" xlink:href="#LiberationSans-48"/>
      </g>
     </g>
    </g>
    <g id="xtick_12">
     <g id="line2d_21">
      <g>
       <use style="fill:#ffffff;stroke:#ffffff;stroke-width:0.8;" x="398.552217" xlink:href="#m7086c6dc41" y="307.584"/>
      </g>
     </g>
     <g id="text_17">
      <!-- 1000 -->
      <g style="fill:#ffffff;" transform="translate(387.430342 321.830875)scale(0.1 -0.1)">
       <use xlink:href="#LiberationSans-49"/>
       <use x="55.615234" xlink:href="#LiberationSans-48"/>
       <use x="111.230469" xlink:href="#LiberationSans-48"/>
       <use x="166.845703" xlink:href="#LiberationSans-48"/>
      </g>
     </g>
    </g>
    <g id="text_18">
     <!-- $t$ (ms) -->
     <g style="fill:#ffffff;" transform="translate(222.81 335.205875)scale(0.1 -0.1)">
      <defs>
       <path d="M 42.28125 54.6875 
L 40.921875 47.703125 
L 23 47.703125 
L 17.1875 18.015625 
Q 16.890625 16.359375 16.75 15.234375 
Q 16.609375 14.109375 16.609375 13.484375 
Q 16.609375 10.359375 18.484375 8.9375 
Q 20.359375 7.515625 24.515625 7.515625 
L 33.59375 7.515625 
L 32.078125 0 
L 23.484375 0 
Q 15.484375 0 11.546875 3.125 
Q 7.625 6.25 7.625 12.59375 
Q 7.625 13.71875 7.765625 15.0625 
Q 7.90625 16.40625 8.203125 18.015625 
L 14.015625 47.703125 
L 6.390625 47.703125 
L 7.8125 54.6875 
L 15.28125 54.6875 
L 18.3125 70.21875 
L 27.296875 70.21875 
L 24.3125 54.6875 
z
" id="DejaVuSans-Oblique-116"/>
       <path id="LiberationSans-32"/>
       <path d="M 6.203125 25.984375 
Q 6.203125 32.765625 7.21875 38.96875 
Q 8.25 45.171875 10.4375 50.875 
Q 12.640625 56.59375 16.0625 61.953125 
Q 19.484375 67.328125 24.21875 72.46875 
L 32.71875 72.46875 
Q 28.125 67.328125 24.78125 61.9375 
Q 21.4375 56.546875 19.28125 50.796875 
Q 17.140625 45.0625 16.09375 38.859375 
Q 15.046875 32.671875 15.046875 25.875 
Q 15.046875 19.09375 16.09375 12.890625 
Q 17.140625 6.6875 19.28125 0.921875 
Q 21.4375 -4.828125 24.78125 -10.203125 
Q 28.125 -15.578125 32.71875 -20.703125 
L 24.21875 -20.703125 
Q 19.484375 -15.578125 16.0625 -10.203125 
Q 12.640625 -4.828125 10.4375 0.875 
Q 8.25 6.59375 7.21875 12.765625 
Q 6.203125 18.953125 6.203125 25.78125 
z
" id="LiberationSans-40"/>
       <path d="M 37.5 0 
L 37.5 33.5 
Q 37.5 37.359375 37.015625 39.9375 
Q 36.53125 42.53125 35.375 44.109375 
Q 34.234375 45.703125 32.375 46.359375 
Q 30.515625 47.015625 27.828125 47.015625 
Q 25.046875 47.015625 22.796875 45.921875 
Q 20.5625 44.828125 18.96875 42.75 
Q 17.390625 40.671875 16.53125 37.625 
Q 15.671875 34.578125 15.671875 30.609375 
L 15.671875 0 
L 6.9375 0 
L 6.9375 41.546875 
Q 6.9375 43.21875 6.90625 45.046875 
Q 6.890625 46.875 6.828125 48.5 
Q 6.78125 50.140625 6.734375 51.3125 
Q 6.6875 52.484375 6.640625 52.828125 
L 14.9375 52.828125 
Q 14.984375 52.59375 15.03125 51.515625 
Q 15.09375 50.4375 15.15625 49.046875 
Q 15.234375 47.65625 15.28125 46.21875 
Q 15.328125 44.78125 15.328125 43.796875 
L 15.484375 43.796875 
Q 16.65625 46.09375 18.015625 47.953125 
Q 19.390625 49.8125 21.21875 51.09375 
Q 23.046875 52.390625 25.40625 53.09375 
Q 27.78125 53.8125 30.90625 53.8125 
Q 36.921875 53.8125 40.40625 51.421875 
Q 43.890625 49.03125 45.265625 43.796875 
L 45.40625 43.796875 
Q 46.578125 46.09375 48.046875 47.953125 
Q 49.515625 49.8125 51.46875 51.09375 
Q 53.421875 52.390625 55.859375 53.09375 
Q 58.296875 53.8125 61.421875 53.8125 
Q 65.4375 53.8125 68.328125 52.734375 
Q 71.234375 51.65625 73.09375 49.40625 
Q 74.953125 47.171875 75.828125 43.625 
Q 76.703125 40.09375 76.703125 35.203125 
L 76.703125 0 
L 68.015625 0 
L 68.015625 33.5 
Q 68.015625 37.359375 67.53125 39.9375 
Q 67.046875 42.53125 65.890625 44.109375 
Q 64.75 45.703125 62.890625 46.359375 
Q 61.03125 47.015625 58.34375 47.015625 
Q 55.5625 47.015625 53.3125 45.96875 
Q 51.078125 44.921875 49.484375 42.875 
Q 47.90625 40.828125 47.046875 37.75 
Q 46.1875 34.671875 46.1875 30.609375 
L 46.1875 0 
z
" id="LiberationSans-109"/>
       <path d="M 46.390625 14.59375 
Q 46.390625 10.890625 44.9375 7.984375 
Q 43.5 5.078125 40.765625 3.09375 
Q 38.03125 1.125 34.046875 0.0625 
Q 30.078125 -0.984375 24.953125 -0.984375 
Q 20.359375 -0.984375 16.671875 -0.265625 
Q 12.984375 0.4375 10.203125 2 
Q 7.421875 3.5625 5.53125 6.125 
Q 3.65625 8.6875 2.78125 12.40625 
L 10.546875 13.921875 
Q 11.671875 9.671875 15.1875 7.6875 
Q 18.703125 5.71875 24.953125 5.71875 
Q 27.78125 5.71875 30.140625 6.109375 
Q 32.515625 6.5 34.21875 7.453125 
Q 35.9375 8.40625 36.890625 9.984375 
Q 37.84375 11.578125 37.84375 13.921875 
Q 37.84375 16.3125 36.71875 17.84375 
Q 35.59375 19.390625 33.59375 20.40625 
Q 31.59375 21.4375 28.734375 22.1875 
Q 25.875 22.953125 22.46875 23.875 
Q 19.28125 24.703125 16.15625 25.734375 
Q 13.03125 26.765625 10.515625 28.4375 
Q 8.015625 30.125 6.453125 32.609375 
Q 4.890625 35.109375 4.890625 38.875 
Q 4.890625 46.09375 10.03125 49.875 
Q 15.1875 53.65625 25.046875 53.65625 
Q 33.796875 53.65625 38.9375 50.578125 
Q 44.09375 47.515625 45.453125 40.71875 
L 37.546875 39.75 
Q 37.109375 41.796875 35.9375 43.1875 
Q 34.765625 44.578125 33.109375 45.4375 
Q 31.453125 46.296875 29.375 46.65625 
Q 27.296875 47.015625 25.046875 47.015625 
Q 19.09375 47.015625 16.25 45.203125 
Q 13.421875 43.40625 13.421875 39.75 
Q 13.421875 37.59375 14.46875 36.203125 
Q 15.53125 34.8125 17.40625 33.859375 
Q 19.28125 32.90625 21.921875 32.203125 
Q 24.5625 31.5 27.734375 30.71875 
Q 29.828125 30.171875 32.03125 29.5625 
Q 34.234375 28.953125 36.296875 28.09375 
Q 38.375 27.25 40.203125 26.09375 
Q 42.046875 24.953125 43.40625 23.34375 
Q 44.78125 21.734375 45.578125 19.578125 
Q 46.390625 17.4375 46.390625 14.59375 
z
" id="LiberationSans-115"/>
       <path d="M 27.09375 25.78125 
Q 27.09375 18.953125 26.0625 12.765625 
Q 25.046875 6.59375 22.84375 0.875 
Q 20.65625 -4.828125 17.234375 -10.203125 
Q 13.8125 -15.578125 9.078125 -20.703125 
L 0.59375 -20.703125 
Q 5.171875 -15.578125 8.515625 -10.203125 
Q 11.859375 -4.828125 14 0.921875 
Q 16.15625 6.6875 17.203125 12.890625 
Q 18.265625 19.09375 18.265625 25.875 
Q 18.265625 32.671875 17.203125 38.859375 
Q 16.15625 45.0625 14 50.796875 
Q 11.859375 56.546875 8.515625 61.9375 
Q 5.171875 67.328125 0.59375 72.46875 
L 9.078125 72.46875 
Q 13.8125 67.328125 17.234375 61.953125 
Q 20.65625 56.59375 22.84375 50.875 
Q 25.046875 45.171875 26.0625 38.96875 
Q 27.09375 32.765625 27.09375 25.984375 
z
" id="LiberationSans-41"/>
      </defs>
      <use transform="translate(0 0.53125)" xlink:href="#DejaVuSans-Oblique-116"/>
      <use transform="translate(39.208984 0.53125)" xlink:href="#LiberationSans-32"/>
      <use transform="translate(66.992188 0.53125)" xlink:href="#LiberationSans-40"/>
      <use transform="translate(100.292969 0.53125)" xlink:href="#LiberationSans-109"/>
      <use transform="translate(183.59375 0.53125)" xlink:href="#LiberationSans-115"/>
      <use transform="translate(233.59375 0.53125)" xlink:href="#LiberationSans-41"/>
     </g>
    </g>
   </g>
   <g id="matplotlib.axis_4">
    <g id="ytick_4">
     <g id="line2d_22">
      <g>
       <use style="fill:#ffffff;stroke:#ffffff;stroke-width:0.8;" x="57.6" xlink:href="#m20bc068bf2" y="287.460401"/>
      </g>
     </g>
     <g id="text_19">
      <!-- 0.0 -->
      <g style="fill:#ffffff;" transform="translate(36.7 291.083838)scale(0.1 -0.1)">
       <use xlink:href="#LiberationSans-48"/>
       <use x="55.615234" xlink:href="#LiberationSans-46"/>
       <use x="83.398438" xlink:href="#LiberationSans-48"/>
      </g>
     </g>
    </g>
    <g id="ytick_5">
     <g id="line2d_23">
      <g>
       <use style="fill:#ffffff;stroke:#ffffff;stroke-width:0.8;" x="57.6" xlink:href="#m20bc068bf2" y="264.963176"/>
      </g>
     </g>
     <g id="text_20">
      <!-- 0.2 -->
      <g style="fill:#ffffff;" transform="translate(36.7 268.586613)scale(0.1 -0.1)">
       <use xlink:href="#LiberationSans-48"/>
       <use x="55.615234" xlink:href="#LiberationSans-46"/>
       <use x="83.398438" xlink:href="#LiberationSans-50"/>
      </g>
     </g>
    </g>
    <g id="ytick_6">
     <g id="line2d_24">
      <g>
       <use style="fill:#ffffff;stroke:#ffffff;stroke-width:0.8;" x="57.6" xlink:href="#m20bc068bf2" y="242.465951"/>
      </g>
     </g>
     <g id="text_21">
      <!-- 0.4 -->
      <g style="fill:#ffffff;" transform="translate(36.7 246.089388)scale(0.1 -0.1)">
       <use xlink:href="#LiberationSans-48"/>
       <use x="55.615234" xlink:href="#LiberationSans-46"/>
       <use x="83.398438" xlink:href="#LiberationSans-52"/>
      </g>
     </g>
    </g>
    <g id="ytick_7">
     <g id="line2d_25">
      <g>
       <use style="fill:#ffffff;stroke:#ffffff;stroke-width:0.8;" x="57.6" xlink:href="#m20bc068bf2" y="219.968726"/>
      </g>
     </g>
     <g id="text_22">
      <!-- 0.6 -->
      <g style="fill:#ffffff;" transform="translate(36.7 223.592163)scale(0.1 -0.1)">
       <use xlink:href="#LiberationSans-48"/>
       <use x="55.615234" xlink:href="#LiberationSans-46"/>
       <use x="83.398438" xlink:href="#LiberationSans-54"/>
      </g>
     </g>
    </g>
    <g id="ytick_8">
     <g id="line2d_26">
      <g>
       <use style="fill:#ffffff;stroke:#ffffff;stroke-width:0.8;" x="57.6" xlink:href="#m20bc068bf2" y="197.471501"/>
      </g>
     </g>
     <g id="text_23">
      <!-- 0.8 -->
      <g style="fill:#ffffff;" transform="translate(36.7 201.094938)scale(0.1 -0.1)">
       <use xlink:href="#LiberationSans-48"/>
       <use x="55.615234" xlink:href="#LiberationSans-46"/>
       <use x="83.398438" xlink:href="#LiberationSans-56"/>
      </g>
     </g>
    </g>
   </g>
   <g id="line2d_27">
    <path clip-path="url(#p712be6be18)" d="M 73.832727 289.588641 
L 76.105764 288.960146 
L 76.625315 288.84484 
L 76.690259 195.603741 
L 76.755203 196.51773 
L 77.079922 200.953056 
L 77.20981 211.674844 
L 78.443744 224.788843 
L 79.677678 235.633583 
L 80.911612 244.601741 
L 81.171388 246.282253 
L 81.301276 256.106463 
L 82.53521 261.531975 
L 83.769144 266.018652 
L 85.068022 269.905382 
L 86.3669 273.087567 
L 87.665778 275.69292 
L 88.964655 277.826002 
L 89.224431 278.203772 
L 89.354319 287.395894 
L 92.796345 287.422432 
L 92.861289 296.522178 
L 92.926233 296.432011 
L 94.290055 294.732647 
L 95.718821 293.296515 
L 97.277474 292.051251 
L 98.901072 291.035758 
L 99.160847 290.895567 
L 99.225791 299.960754 
L 99.290735 299.836374 
L 100.589613 297.59299 
L 101.953435 295.673718 
L 103.382201 294.051742 
L 104.87591 292.697443 
L 106.434564 291.580004 
L 108.123105 290.636827 
L 108.188049 299.70459 
L 108.252993 299.582758 
L 109.551871 297.385347 
L 110.915693 295.505406 
L 112.344459 293.916669 
L 113.838168 292.590123 
L 115.396822 291.495583 
L 116.6957 290.764128 
L 116.760644 299.830624 
L 116.825588 299.707538 
L 117.150307 299.110238 
L 117.215251 205.766996 
L 117.280195 206.579859 
L 118.514129 220.575498 
L 118.968736 225.097331 
L 119.098624 235.34103 
L 120.332558 244.359811 
L 121.566492 251.817975 
L 122.800426 257.985571 
L 123.579753 261.318572 
L 123.709641 270.845043 
L 125.008519 273.856896 
L 126.307397 276.322793 
L 127.671219 278.432431 
L 129.03504 280.142471 
L 130.463806 281.587625 
L 132.02246 282.840711 
L 133.256394 283.640106 
L 133.321338 292.777487 
L 133.386282 292.724581 
L 134.944935 291.601352 
L 136.633477 290.653288 
L 138.51685 289.849522 
L 138.906513 289.71039 
L 138.971457 298.78737 
L 139.036401 298.674665 
L 140.400223 296.550507 
L 141.764044 294.828698 
L 143.19281 293.373597 
L 144.68652 292.158634 
L 145.206071 291.797417 
L 145.271015 300.853631 
L 145.335959 300.720366 
L 146.634837 298.316742 
L 147.998659 296.26038 
L 149.36248 294.593525 
L 150.791246 293.184867 
L 152.3499 291.963426 
L 152.999339 291.534906 
L 153.064283 300.593732 
L 153.129227 300.463053 
L 154.428105 298.106072 
L 155.791926 296.089614 
L 157.155748 294.455105 
L 158.584514 293.073783 
L 160.143168 291.876043 
L 161.831709 290.865089 
L 161.896653 299.93058 
L 161.961597 299.8065 
L 163.260475 297.568531 
L 164.624296 295.653892 
L 166.053062 294.035832 
L 167.546772 292.684802 
L 168.910594 291.695218 
L 168.975538 300.752449 
L 169.040482 300.620191 
L 170.33936 298.234725 
L 171.378462 296.641675 
L 171.443406 203.322995 
L 171.50835 204.160176 
L 172.742284 218.574519 
L 173.976218 230.494592 
L 174.820488 237.438984 
L 174.950376 247.438303 
L 176.18431 254.363761 
L 177.418244 260.090832 
L 178.652178 264.826886 
L 179.886112 268.743409 
L 181.18499 272.136224 
L 181.769486 273.455158 
L 181.899373 282.741308 
L 183.522971 283.785168 
L 185.3414 284.682719 
L 187.354661 285.423119 
L 187.419605 294.542758 
L 187.484549 294.472288 
L 188.913314 293.087572 
L 190.471968 291.88689 
L 192.160509 290.873452 
L 193.978938 290.03993 
L 194.693321 289.771231 
L 194.758265 298.847606 
L 194.823209 298.734301 
L 196.187031 296.598847 
L 197.550853 294.867881 
L 198.979618 293.405043 
L 200.473328 292.183619 
L 202.096926 291.138847 
L 202.421645 290.959447 
L 202.486589 300.023999 
L 202.551533 299.898989 
L 203.265916 298.603313 
L 203.33086 205.265115 
L 203.395804 206.082971 
L 204.629738 220.164592 
L 205.863672 231.809517 
L 206.902774 240.037846 
L 207.032662 249.985703 
L 208.266596 256.470357 
L 209.50053 261.832901 
L 210.734464 266.267506 
L 212.033342 270.109126 
L 212.423005 271.119586 
L 212.552893 280.451983 
L 213.981659 281.836014 
L 215.540312 283.036101 
L 217.228854 284.049038 
L 219.047283 284.882148 
L 220.281217 285.328291 
L 220.346161 192.122182 
L 220.411105 193.070813 
L 220.476049 194.010005 
L 220.605936 204.869275 
L 221.839871 219.160915 
L 223.073805 230.979517 
L 224.307739 240.753018 
L 225.541673 248.835304 
L 226.775607 255.519024 
L 227.360102 258.268181 
L 227.48999 267.855053 
L 228.788868 271.4089 
L 230.087746 274.318543 
L 231.386624 276.700758 
L 232.750445 278.738804 
L 233.269997 279.409352 
L 233.33494 288.588829 
L 233.399884 288.577601 
L 236.582135 288.144827 
L 240.673601 287.824921 
L 241.972479 287.758844 
L 242.037423 296.855243 
L 242.102367 296.761763 
L 243.466189 294.999938 
L 244.894954 293.511021 
L 245.024842 293.391211 
L 245.089786 200.104874 
L 245.15473 200.974076 
L 246.063944 212.272802 
L 246.193832 222.770444 
L 247.427766 233.964451 
L 248.6617 243.221436 
L 249.895634 250.876585 
L 251.129568 257.20708 
L 252.363503 262.442141 
L 253.337661 265.926985 
L 253.467549 275.362203 
L 254.766427 277.555234 
L 256.130249 279.431429 
L 257.559014 281.017 
L 259.052724 282.340902 
L 260.676321 283.473331 
L 260.741265 283.513003 
L 260.806209 292.651649 
L 260.871153 292.599995 
L 262.429807 291.503349 
L 264.183292 290.546704 
L 266.131609 289.746791 
L 268.339701 289.087785 
L 269.833411 288.753412 
L 269.898355 297.839915 
L 269.963299 297.736637 
L 271.327121 295.790156 
L 272.755886 294.145186 
L 274.249596 292.771687 
L 275.80825 291.638407 
L 275.873194 300.696203 
L 275.938137 300.564504 
L 277.237015 298.189133 
L 278.600837 296.156942 
L 279.964659 294.50968 
L 281.393425 293.11758 
L 281.523313 293.00556 
L 281.588257 302.049753 
L 281.6532 301.904587 
L 282.952078 299.2863 
L 284.250956 297.142628 
L 285.614778 295.308662 
L 287.043544 293.758778 
L 288.537254 292.464673 
L 290.160851 291.357732 
L 291.264897 290.748442 
L 291.329841 299.815093 
L 291.394785 299.692162 
L 292.693663 297.47492 
L 294.057485 295.578012 
L 295.486251 293.974937 
L 296.97996 292.636418 
L 298.538614 291.532 
L 298.668502 291.451377 
L 298.733446 300.511035 
L 298.798389 300.381179 
L 300.097267 298.039039 
L 301.461089 296.035278 
L 302.824911 294.411061 
L 304.253677 293.038436 
L 304.838172 292.558342 
L 304.903116 301.606984 
L 304.96806 301.466223 
L 306.266938 298.927399 
L 307.63076 296.755368 
L 308.994581 294.994755 
L 310.423347 293.506862 
L 310.942898 293.041988 
L 311.007842 302.085818 
L 311.072786 301.940293 
L 312.371664 299.315534 
L 313.670542 297.166563 
L 315.034364 295.328063 
L 316.46313 293.774347 
L 317.956839 292.477043 
L 319.385605 291.486351 
L 319.450549 300.54566 
L 319.515493 300.41546 
L 320.814371 298.067106 
L 322.178193 296.058029 
L 323.542015 294.429503 
L 324.97078 293.053236 
L 326.529434 291.859881 
L 326.659322 291.772765 
L 326.724266 300.829225 
L 326.789209 300.696203 
L 328.088087 298.296959 
L 329.451909 296.244344 
L 330.815731 294.580527 
L 332.244497 293.174436 
L 333.153711 292.427944 
L 333.218655 301.477884 
L 333.283599 301.338408 
L 334.582477 298.822752 
L 335.946299 296.670544 
L 337.310121 294.925997 
L 338.738887 293.451682 
L 340.232596 292.220675 
L 340.752148 291.854688 
L 340.817091 300.910332 
L 340.882035 300.776503 
L 342.180913 298.362703 
L 343.544735 296.297635 
L 344.908557 294.623724 
L 345.493052 294.007185 
L 345.557996 200.71472 
L 345.62294 201.577853 
L 345.687884 202.432399 
L 345.817772 213.124894 
L 347.051706 225.987975 
L 348.28564 236.625217 
L 349.519574 245.421781 
L 350.753508 252.69618 
L 351.987442 258.711811 
L 353.091488 263.206227 
L 353.221376 272.69532 
L 354.520254 275.371775 
L 355.819132 277.563071 
L 357.182954 279.437781 
L 358.611719 281.022098 
L 360.105429 282.344953 
L 360.235317 282.446245 
L 360.300261 291.595505 
L 360.365205 291.55436 
L 362.11869 290.585645 
L 364.067007 289.775639 
L 365.560717 289.299935 
L 365.62566 196.054307 
L 365.690604 196.963813 
L 365.885436 199.638392 
L 366.015324 210.386212 
L 367.249258 223.723196 
L 368.483192 234.752337 
L 369.717126 243.872986 
L 370.95106 251.41539 
L 372.184994 257.65265 
L 373.418928 262.810609 
L 373.548816 263.298708 
L 373.678704 272.785969 
L 374.977582 275.445992 
L 376.27646 277.623835 
L 377.640282 279.487035 
L 379.069047 281.061625 
L 380.562757 282.376359 
L 380.692645 282.477029 
L 380.757589 291.625983 
L 380.822533 291.584535 
L 382.511074 290.640321 
L 384.394447 289.839819 
L 386.537596 289.171021 
L 389.070408 288.618588 
L 389.330183 288.573175 
L 389.395127 297.661471 
L 389.460071 297.559968 
L 390.823893 295.646951 
L 392.252659 294.030261 
L 393.746368 292.680376 
L 395.305022 291.566578 
L 396.344124 290.959455 
L 396.409068 300.024007 
L 396.474012 299.898997 
L 397.77289 297.644262 
L 398.487273 296.583451 
L 398.487273 296.583451 
" style="fill:none;stroke:#9a72ac;stroke-linecap:round;stroke-width:1.5;"/>
   </g>
   <g id="line2d_28">
    <path clip-path="url(#p712be6be18)" d="M 73.832727 287.460401 
L 398.487273 287.460401 
L 398.487273 287.460401 
" style="fill:none;stroke:#cf5044;stroke-linecap:round;stroke-width:1.5;"/>
   </g>
   <g id="patch_8">
    <path d="M 57.6 307.584 
L 57.6 186.624 
" style="fill:none;stroke:#ffffff;stroke-linecap:square;stroke-linejoin:miter;stroke-width:0.8;"/>
   </g>
   <g id="patch_9">
    <path d="M 414.72 307.584 
L 414.72 186.624 
" style="fill:none;stroke:#ffffff;stroke-linecap:square;stroke-linejoin:miter;stroke-width:0.8;"/>
   </g>
   <g id="patch_10">
    <path d="M 57.6 307.584 
L 414.72 307.584 
" style="fill:none;stroke:#ffffff;stroke-linecap:square;stroke-linejoin:miter;stroke-width:0.8;"/>
   </g>
   <g id="patch_11">
    <path d="M 57.6 186.624 
L 414.72 186.624 
" style="fill:none;stroke:#ffffff;stroke-linecap:square;stroke-linejoin:miter;stroke-width:0.8;"/>
   </g>
   <g id="legend_2">
    <g id="line2d_29">
     <path d="M 371.72 199.370875 
L 391.72 199.370875 
" style="fill:none;stroke:#9a72ac;stroke-linecap:round;stroke-width:1.5;"/>
    </g>
    <g id="line2d_30"/>
    <g id="text_24">
     <!-- $\hat{x}$ -->
     <g style="fill:#ffffff;" transform="translate(399.72 202.870875)scale(0.1 -0.1)">
      <use transform="translate(62.373047 12.015625)" xlink:href="#DejaVuSans-770"/>
      <use transform="translate(0 0.828125)" xlink:href="#DejaVuSans-Oblique-120"/>
     </g>
    </g>
    <g id="line2d_31">
     <path d="M 371.72 213.69275 
L 391.72 213.69275 
" style="fill:none;stroke:#cf5044;stroke-linecap:round;stroke-width:1.5;"/>
    </g>
    <g id="line2d_32"/>
    <g id="text_25">
     <!-- x -->
     <g style="fill:#ffffff;" transform="translate(399.72 217.19275)scale(0.1 -0.1)">
      <use xlink:href="#LiberationSans-120"/>
     </g>
    </g>
   </g>
  </g>
  <g id="text_26">
   <!-- Egomotion input/decoding -->
   <g style="fill:#ffffff;" transform="translate(161.02125 15.60825)scale(0.12 -0.12)">
    <defs>
     <path d="M 8.203125 0 
L 8.203125 68.796875 
L 60.40625 68.796875 
L 60.40625 61.1875 
L 17.53125 61.1875 
L 17.53125 39.109375 
L 57.46875 39.109375 
L 57.46875 31.59375 
L 17.53125 31.59375 
L 17.53125 7.625 
L 62.40625 7.625 
L 62.40625 0 
z
" id="LiberationSans-69"/>
     <path d="M 26.765625 -20.75 
Q 22.21875 -20.75 18.703125 -19.8125 
Q 15.1875 -18.890625 12.6875 -17.15625 
Q 10.203125 -15.4375 8.640625 -13.03125 
Q 7.078125 -10.640625 6.390625 -7.71875 
L 15.234375 -6.453125 
Q 16.109375 -10.109375 19.109375 -12.078125 
Q 22.125 -14.0625 27 -14.0625 
Q 29.984375 -14.0625 32.421875 -13.234375 
Q 34.859375 -12.40625 36.5625 -10.5625 
Q 38.28125 -8.734375 39.203125 -5.796875 
Q 40.140625 -2.875 40.140625 1.3125 
L 40.140625 9.8125 
L 40.046875 9.8125 
Q 39.0625 7.8125 37.625 5.984375 
Q 36.1875 4.15625 34.109375 2.734375 
Q 32.03125 1.3125 29.296875 0.453125 
Q 26.5625 -0.390625 23.046875 -0.390625 
Q 18.015625 -0.390625 14.421875 1.296875 
Q 10.84375 2.984375 8.5625 6.34375 
Q 6.296875 9.71875 5.25 14.71875 
Q 4.203125 19.734375 4.203125 26.3125 
Q 4.203125 32.671875 5.25 37.75 
Q 6.296875 42.828125 8.65625 46.359375 
Q 11.03125 49.90625 14.8125 51.78125 
Q 18.609375 53.65625 24.03125 53.65625 
Q 29.640625 53.65625 33.765625 51.09375 
Q 37.890625 48.53125 40.140625 43.796875 
L 40.234375 43.796875 
Q 40.234375 45.015625 40.296875 46.53125 
Q 40.375 48.046875 40.453125 49.390625 
Q 40.53125 50.734375 40.625 51.703125 
Q 40.71875 52.6875 40.828125 52.828125 
L 49.171875 52.828125 
Q 49.125 52.390625 49.078125 51.34375 
Q 49.03125 50.296875 48.96875 48.828125 
Q 48.921875 47.359375 48.890625 45.578125 
Q 48.875 43.796875 48.875 41.890625 
L 48.875 1.515625 
Q 48.875 -9.578125 43.421875 -15.15625 
Q 37.984375 -20.75 26.765625 -20.75 
z
M 40.140625 26.421875 
Q 40.140625 31.9375 38.9375 35.859375 
Q 37.75 39.796875 35.796875 42.28125 
Q 33.84375 44.78125 31.328125 45.953125 
Q 28.8125 47.125 26.171875 47.125 
Q 22.796875 47.125 20.375 45.953125 
Q 17.96875 44.78125 16.375 42.265625 
Q 14.796875 39.75 14.03125 35.8125 
Q 13.28125 31.890625 13.28125 26.421875 
Q 13.28125 20.703125 14.03125 16.8125 
Q 14.796875 12.9375 16.359375 10.546875 
Q 17.921875 8.15625 20.3125 7.125 
Q 22.703125 6.109375 26.03125 6.109375 
Q 28.65625 6.109375 31.171875 7.21875 
Q 33.6875 8.34375 35.6875 10.78125 
Q 37.703125 13.234375 38.921875 17.09375 
Q 40.140625 20.953125 40.140625 26.421875 
z
" id="LiberationSans-103"/>
     <path d="M 51.421875 26.46875 
Q 51.421875 12.59375 45.3125 5.796875 
Q 39.203125 -0.984375 27.59375 -0.984375 
Q 22.078125 -0.984375 17.71875 0.671875 
Q 13.375 2.34375 10.375 5.765625 
Q 7.375 9.1875 5.78125 14.328125 
Q 4.203125 19.484375 4.203125 26.46875 
Q 4.203125 53.8125 27.875 53.8125 
Q 34.03125 53.8125 38.5 52.09375 
Q 42.96875 50.390625 45.828125 46.96875 
Q 48.6875 43.5625 50.046875 38.421875 
Q 51.421875 33.296875 51.421875 26.46875 
z
M 42.1875 26.46875 
Q 42.1875 32.625 41.234375 36.625 
Q 40.28125 40.625 38.453125 43.015625 
Q 36.625 45.40625 33.984375 46.359375 
Q 31.34375 47.3125 28.03125 47.3125 
Q 24.65625 47.3125 21.9375 46.3125 
Q 19.234375 45.3125 17.328125 42.890625 
Q 15.4375 40.484375 14.421875 36.46875 
Q 13.421875 32.46875 13.421875 26.46875 
Q 13.421875 20.3125 14.5 16.28125 
Q 15.578125 12.25 17.453125 9.859375 
Q 19.34375 7.46875 21.90625 6.484375 
Q 24.46875 5.515625 27.484375 5.515625 
Q 30.859375 5.515625 33.59375 6.46875 
Q 36.328125 7.421875 38.234375 9.8125 
Q 40.140625 12.203125 41.15625 16.25 
Q 42.1875 20.3125 42.1875 26.46875 
z
" id="LiberationSans-111"/>
     <path d="M 27.046875 0.390625 
Q 25.046875 -0.140625 22.96875 -0.453125 
Q 20.90625 -0.78125 18.171875 -0.78125 
Q 7.625 -0.78125 7.625 11.1875 
L 7.625 46.4375 
L 1.515625 46.4375 
L 1.515625 52.828125 
L 7.953125 52.828125 
L 10.546875 64.65625 
L 16.40625 64.65625 
L 16.40625 52.828125 
L 26.171875 52.828125 
L 26.171875 46.4375 
L 16.40625 46.4375 
L 16.40625 13.09375 
Q 16.40625 9.28125 17.640625 7.734375 
Q 18.890625 6.203125 21.96875 6.203125 
Q 23.25 6.203125 24.4375 6.390625 
Q 25.640625 6.59375 27.046875 6.890625 
z
" id="LiberationSans-116"/>
     <path d="M 6.6875 64.0625 
L 6.6875 72.46875 
L 15.484375 72.46875 
L 15.484375 64.0625 
z
M 6.6875 0 
L 6.6875 52.828125 
L 15.484375 52.828125 
L 15.484375 0 
z
" id="LiberationSans-105"/>
     <path d="M 40.28125 0 
L 40.28125 33.5 
Q 40.28125 37.359375 39.71875 39.9375 
Q 39.15625 42.53125 37.890625 44.109375 
Q 36.625 45.703125 34.546875 46.359375 
Q 32.46875 47.015625 29.390625 47.015625 
Q 26.265625 47.015625 23.75 45.921875 
Q 21.234375 44.828125 19.453125 42.75 
Q 17.671875 40.671875 16.6875 37.625 
Q 15.71875 34.578125 15.71875 30.609375 
L 15.71875 0 
L 6.9375 0 
L 6.9375 41.546875 
Q 6.9375 43.21875 6.90625 45.046875 
Q 6.890625 46.875 6.828125 48.5 
Q 6.78125 50.140625 6.734375 51.3125 
Q 6.6875 52.484375 6.640625 52.828125 
L 14.9375 52.828125 
Q 14.984375 52.59375 15.03125 51.515625 
Q 15.09375 50.4375 15.15625 49.046875 
Q 15.234375 47.65625 15.28125 46.21875 
Q 15.328125 44.78125 15.328125 43.796875 
L 15.484375 43.796875 
Q 16.75 46.09375 18.265625 47.953125 
Q 19.78125 49.8125 21.78125 51.09375 
Q 23.78125 52.390625 26.359375 53.09375 
Q 28.953125 53.8125 32.375 53.8125 
Q 36.765625 53.8125 39.9375 52.734375 
Q 43.109375 51.65625 45.15625 49.40625 
Q 47.21875 47.171875 48.171875 43.625 
Q 49.125 40.09375 49.125 35.203125 
L 49.125 0 
z
" id="LiberationSans-110"/>
     <path d="M 51.421875 26.65625 
Q 51.421875 20.65625 50.4375 15.578125 
Q 49.46875 10.5 47.1875 6.828125 
Q 44.921875 3.171875 41.1875 1.09375 
Q 37.453125 -0.984375 31.984375 -0.984375 
Q 26.3125 -0.984375 22.0625 1.171875 
Q 17.828125 3.328125 15.578125 8.203125 
L 15.328125 8.203125 
Q 15.375 8.109375 15.40625 7.328125 
Q 15.4375 6.546875 15.453125 5.375 
Q 15.484375 4.203125 15.5 2.75 
Q 15.53125 1.3125 15.53125 -0.09375 
L 15.53125 -20.75 
L 6.734375 -20.75 
L 6.734375 42.046875 
Q 6.734375 43.953125 6.703125 45.703125 
Q 6.6875 47.46875 6.640625 48.90625 
Q 6.59375 50.34375 6.546875 51.359375 
Q 6.5 52.390625 6.453125 52.828125 
L 14.9375 52.828125 
Q 14.984375 52.6875 15.0625 51.796875 
Q 15.140625 50.921875 15.203125 49.671875 
Q 15.28125 48.4375 15.359375 47.015625 
Q 15.4375 45.609375 15.4375 44.34375 
L 15.625 44.34375 
Q 16.84375 46.875 18.40625 48.65625 
Q 19.96875 50.4375 21.96875 51.578125 
Q 23.96875 52.734375 26.4375 53.25 
Q 28.90625 53.765625 31.984375 53.765625 
Q 37.453125 53.765625 41.1875 51.8125 
Q 44.921875 49.859375 47.1875 46.3125 
Q 49.46875 42.78125 50.4375 37.765625 
Q 51.421875 32.765625 51.421875 26.65625 
z
M 42.1875 26.46875 
Q 42.1875 31.34375 41.59375 35.15625 
Q 41.015625 38.96875 39.578125 41.59375 
Q 38.140625 44.234375 35.734375 45.59375 
Q 33.34375 46.96875 29.734375 46.96875 
Q 26.8125 46.96875 24.21875 46.140625 
Q 21.625 45.3125 19.703125 42.96875 
Q 17.78125 40.625 16.65625 36.5 
Q 15.53125 32.375 15.53125 25.78125 
Q 15.53125 20.171875 16.453125 16.28125 
Q 17.390625 12.40625 19.171875 10.015625 
Q 20.953125 7.625 23.578125 6.5625 
Q 26.21875 5.515625 29.640625 5.515625 
Q 33.296875 5.515625 35.71875 6.921875 
Q 38.140625 8.34375 39.578125 11.03125 
Q 41.015625 13.71875 41.59375 17.59375 
Q 42.1875 21.484375 42.1875 26.46875 
z
" id="LiberationSans-112"/>
     <path d="M 15.328125 52.828125 
L 15.328125 19.34375 
Q 15.328125 15.484375 15.890625 12.890625 
Q 16.453125 10.296875 17.71875 8.703125 
Q 19 7.125 21.0625 6.46875 
Q 23.140625 5.8125 26.21875 5.8125 
Q 29.34375 5.8125 31.859375 6.90625 
Q 34.375 8.015625 36.15625 10.078125 
Q 37.9375 12.15625 38.90625 15.203125 
Q 39.890625 18.265625 39.890625 22.21875 
L 39.890625 52.828125 
L 48.6875 52.828125 
L 48.6875 11.28125 
Q 48.6875 9.625 48.703125 7.78125 
Q 48.734375 5.953125 48.78125 4.3125 
Q 48.828125 2.6875 48.875 1.515625 
Q 48.921875 0.34375 48.96875 0 
L 40.671875 0 
Q 40.625 0.25 40.578125 1.3125 
Q 40.53125 2.390625 40.453125 3.78125 
Q 40.375 5.171875 40.328125 6.609375 
Q 40.28125 8.0625 40.28125 9.03125 
L 40.140625 9.03125 
Q 38.875 6.734375 37.359375 4.875 
Q 35.84375 3.03125 33.84375 1.734375 
Q 31.84375 0.4375 29.25 -0.265625 
Q 26.65625 -0.984375 23.25 -0.984375 
Q 18.84375 -0.984375 15.671875 0.09375 
Q 12.5 1.171875 10.453125 3.421875 
Q 8.40625 5.671875 7.453125 9.1875 
Q 6.5 12.703125 6.5 17.625 
L 6.5 52.828125 
z
" id="LiberationSans-117"/>
     <path d="M 0 -0.984375 
L 20.0625 72.46875 
L 27.78125 72.46875 
L 7.90625 -0.984375 
z
" id="LiberationSans-47"/>
     <path d="M 40.09375 8.5 
Q 37.640625 3.421875 33.609375 1.21875 
Q 29.59375 -0.984375 23.640625 -0.984375 
Q 13.625 -0.984375 8.90625 5.75 
Q 4.203125 12.5 4.203125 26.171875 
Q 4.203125 53.8125 23.640625 53.8125 
Q 29.640625 53.8125 33.640625 51.609375 
Q 37.640625 49.421875 40.09375 44.625 
L 40.1875 44.625 
Q 40.1875 45.125 40.15625 46.171875 
Q 40.140625 47.21875 40.109375 48.359375 
Q 40.09375 49.515625 40.09375 50.53125 
Q 40.09375 51.5625 40.09375 52 
L 40.09375 72.46875 
L 48.875 72.46875 
L 48.875 10.890625 
Q 48.875 8.984375 48.890625 7.21875 
Q 48.921875 5.46875 48.96875 4 
Q 49.03125 2.546875 49.078125 1.484375 
Q 49.125 0.4375 49.171875 0 
L 40.765625 0 
Q 40.671875 0.484375 40.59375 1.390625 
Q 40.53125 2.296875 40.453125 3.46875 
Q 40.375 4.640625 40.328125 5.9375 
Q 40.28125 7.234375 40.28125 8.5 
z
M 13.421875 26.46875 
Q 13.421875 21 14.109375 17.09375 
Q 14.796875 13.1875 16.3125 10.671875 
Q 17.828125 8.15625 20.171875 6.984375 
Q 22.515625 5.8125 25.875 5.8125 
Q 29.34375 5.8125 32 6.9375 
Q 34.671875 8.0625 36.453125 10.578125 
Q 38.234375 13.09375 39.15625 17.140625 
Q 40.09375 21.1875 40.09375 27.046875 
Q 40.09375 32.671875 39.15625 36.546875 
Q 38.234375 40.4375 36.421875 42.828125 
Q 34.625 45.21875 32 46.265625 
Q 29.390625 47.3125 25.984375 47.3125 
Q 22.75 47.3125 20.40625 46.1875 
Q 18.0625 45.0625 16.5 42.578125 
Q 14.9375 40.09375 14.171875 36.109375 
Q 13.421875 32.125 13.421875 26.46875 
z
" id="LiberationSans-100"/>
     <path d="M 13.484375 24.5625 
Q 13.484375 20.40625 14.328125 16.90625 
Q 15.1875 13.421875 16.96875 10.90625 
Q 18.75 8.40625 21.53125 7 
Q 24.3125 5.609375 28.21875 5.609375 
Q 33.9375 5.609375 37.375 7.90625 
Q 40.828125 10.203125 42.046875 13.71875 
L 49.75 11.53125 
Q 48.921875 9.328125 47.4375 7.109375 
Q 45.953125 4.890625 43.453125 3.09375 
Q 40.96875 1.3125 37.234375 0.15625 
Q 33.5 -0.984375 28.21875 -0.984375 
Q 16.5 -0.984375 10.375 6 
Q 4.25 12.984375 4.25 26.765625 
Q 4.25 34.1875 6.09375 39.328125 
Q 7.953125 44.484375 11.171875 47.703125 
Q 14.40625 50.921875 18.703125 52.359375 
Q 23 53.8125 27.875 53.8125 
Q 34.515625 53.8125 38.984375 51.65625 
Q 43.453125 49.515625 46.15625 45.71875 
Q 48.875 41.9375 50.015625 36.8125 
Q 51.171875 31.6875 51.171875 25.734375 
L 51.171875 24.5625 
z
M 42.09375 31.296875 
Q 41.359375 39.65625 37.84375 43.484375 
Q 34.328125 47.3125 27.734375 47.3125 
Q 25.53125 47.3125 23.109375 46.609375 
Q 20.703125 45.90625 18.65625 44.09375 
Q 16.609375 42.28125 15.1875 39.171875 
Q 13.765625 36.078125 13.578125 31.296875 
z
" id="LiberationSans-101"/>
     <path d="M 13.421875 26.65625 
Q 13.421875 22.125 14.078125 18.3125 
Q 14.75 14.5 16.3125 11.734375 
Q 17.875 8.984375 20.4375 7.46875 
Q 23 5.953125 26.765625 5.953125 
Q 31.453125 5.953125 34.59375 8.484375 
Q 37.75 11.03125 38.484375 16.3125 
L 47.359375 15.71875 
Q 46.921875 12.453125 45.453125 9.421875 
Q 44 6.390625 41.484375 4.09375 
Q 38.96875 1.8125 35.34375 0.40625 
Q 31.734375 -0.984375 27 -0.984375 
Q 20.796875 -0.984375 16.453125 1.109375 
Q 12.109375 3.21875 9.390625 6.90625 
Q 6.6875 10.59375 5.46875 15.59375 
Q 4.25 20.609375 4.25 26.46875 
Q 4.25 31.78125 5.125 35.859375 
Q 6 39.9375 7.59375 42.984375 
Q 9.1875 46.046875 11.328125 48.125 
Q 13.484375 50.203125 15.984375 51.4375 
Q 18.5 52.6875 21.28125 53.25 
Q 24.078125 53.8125 26.90625 53.8125 
Q 31.34375 53.8125 34.8125 52.59375 
Q 38.28125 51.375 40.796875 49.25 
Q 43.3125 47.125 44.875 44.234375 
Q 46.4375 41.359375 47.078125 38.03125 
L 38.03125 37.359375 
Q 37.359375 41.75 34.5625 44.328125 
Q 31.78125 46.921875 26.65625 46.921875 
Q 22.90625 46.921875 20.390625 45.671875 
Q 17.875 44.4375 16.3125 41.921875 
Q 14.75 39.40625 14.078125 35.59375 
Q 13.421875 31.78125 13.421875 26.65625 
z
" id="LiberationSans-99"/>
    </defs>
    <use xlink:href="#LiberationSans-69"/>
    <use x="66.699219" xlink:href="#LiberationSans-103"/>
    <use x="122.314453" xlink:href="#LiberationSans-111"/>
    <use x="177.929688" xlink:href="#LiberationSans-109"/>
    <use x="261.230469" xlink:href="#LiberationSans-111"/>
    <use x="316.845703" xlink:href="#LiberationSans-116"/>
    <use x="344.628906" xlink:href="#LiberationSans-105"/>
    <use x="366.845703" xlink:href="#LiberationSans-111"/>
    <use x="422.460938" xlink:href="#LiberationSans-110"/>
    <use x="478.076172" xlink:href="#LiberationSans-32"/>
    <use x="505.859375" xlink:href="#LiberationSans-105"/>
    <use x="528.076172" xlink:href="#LiberationSans-110"/>
    <use x="583.691406" xlink:href="#LiberationSans-112"/>
    <use x="639.306641" xlink:href="#LiberationSans-117"/>
    <use x="694.921875" xlink:href="#LiberationSans-116"/>
    <use x="722.705078" xlink:href="#LiberationSans-47"/>
    <use x="750.488281" xlink:href="#LiberationSans-100"/>
    <use x="806.103516" xlink:href="#LiberationSans-101"/>
    <use x="861.71875" xlink:href="#LiberationSans-99"/>
    <use x="911.71875" xlink:href="#LiberationSans-111"/>
    <use x="967.333984" xlink:href="#LiberationSans-100"/>
    <use x="1022.949219" xlink:href="#LiberationSans-105"/>
    <use x="1045.166016" xlink:href="#LiberationSans-110"/>
    <use x="1100.78125" xlink:href="#LiberationSans-103"/>
   </g>
  </g>
 </g>
 <defs>
  <clipPath id="p35745f0aae">
   <rect height="120.96" width="357.12" x="57.6" y="41.472"/>
  </clipPath>
  <clipPath id="p712be6be18">
   <rect height="120.96" width="357.12" x="57.6" y="186.624"/>
  </clipPath>
 </defs>
</svg>
