<?xml version="1.0" encoding="utf-8" standalone="no"?>
<!DOCTYPE svg PUBLIC "-//W3C//DTD SVG 1.1//EN"
  "http://www.w3.org/Graphics/SVG/1.1/DTD/svg11.dtd">
<!-- Created with matplotlib (https://matplotlib.org/) -->
<svg height="345.6pt" version="1.1" viewBox="0 0 460.8 345.6" width="460.8pt" xmlns="http://www.w3.org/2000/svg" xmlns:xlink="http://www.w3.org/1999/xlink">
 <metadata>
  <rdf:RDF xmlns:cc="http://creativecommons.org/ns#" xmlns:dc="http://purl.org/dc/elements/1.1/" xmlns:rdf="http://www.w3.org/1999/02/22-rdf-syntax-ns#">
   <cc:Work>
    <dc:type rdf:resource="http://purl.org/dc/dcmitype/StillImage"/>
    <dc:date>2022-05-05T12:30:19.389935</dc:date>
    <dc:format>image/svg+xml</dc:format>
    <dc:creator>
     <cc:Agent>
      <dc:title>Matplotlib v3.3.4, https://matplotlib.org/</dc:title>
     </cc:Agent>
    </dc:creator>
   </cc:Work>
  </rdf:RDF>
 </metadata>
 <defs>
  <style type="text/css">*{stroke-linecap:butt;stroke-linejoin:round;}</style>
 </defs>
 <g id="figure_1">
  <g id="patch_1">
   <path d="M 0 345.6 
L 460.8 345.6 
L 460.8 0 
L 0 0 
z
" style="fill:#262626;"/>
  </g>
  <g id="axes_1">
   <g id="patch_2">
    <path d="M 57.6 119.740235 
L 414.72 119.740235 
L 414.72 41.472 
L 57.6 41.472 
z
" style="fill:#1a1a1a;"/>
   </g>
   <g id="matplotlib.axis_1">
    <g id="xtick_1">
     <g id="line2d_1">
      <defs>
       <path d="M 0 0 
L 0 3.5 
" id="m707ec4ec5a" style="stroke:#ffffff;stroke-width:0.8;"/>
      </defs>
      <g>
       <use style="fill:#ffffff;stroke:#ffffff;stroke-width:0.8;" x="73.832727" xlink:href="#m707ec4ec5a" y="119.740235"/>
      </g>
     </g>
     <g id="text_1">
      <!-- 0 -->
      <g style="fill:#ffffff;" transform="translate(71.052259 133.98711)scale(0.1 -0.1)">
       <defs>
        <path d="M 51.703125 34.421875 
Q 51.703125 24.515625 49.828125 17.75 
Q 47.953125 10.984375 44.703125 6.8125 
Q 41.453125 2.640625 37.0625 0.828125 
Q 32.671875 -0.984375 27.6875 -0.984375 
Q 22.65625 -0.984375 18.3125 0.828125 
Q 13.96875 2.640625 10.765625 6.78125 
Q 7.5625 10.9375 5.734375 17.703125 
Q 3.90625 24.46875 3.90625 34.421875 
Q 3.90625 44.828125 5.734375 51.640625 
Q 7.5625 58.453125 10.78125 62.5 
Q 14.015625 66.546875 18.40625 68.1875 
Q 22.796875 69.828125 27.984375 69.828125 
Q 32.90625 69.828125 37.21875 68.1875 
Q 41.546875 66.546875 44.765625 62.5 
Q 48 58.453125 49.84375 51.640625 
Q 51.703125 44.828125 51.703125 34.421875 
z
M 42.78125 34.421875 
Q 42.78125 42.625 41.796875 48.0625 
Q 40.828125 53.515625 38.921875 56.765625 
Q 37.015625 60.015625 34.25 61.359375 
Q 31.5 62.703125 27.984375 62.703125 
Q 24.265625 62.703125 21.4375 61.328125 
Q 18.609375 59.96875 16.671875 56.71875 
Q 14.75 53.46875 13.765625 48.015625 
Q 12.796875 42.578125 12.796875 34.421875 
Q 12.796875 26.515625 13.796875 21.09375 
Q 14.796875 15.671875 16.71875 12.375 
Q 18.65625 9.078125 21.4375 7.640625 
Q 24.21875 6.203125 27.78125 6.203125 
Q 31.25 6.203125 34.03125 7.640625 
Q 36.8125 9.078125 38.734375 12.375 
Q 40.671875 15.671875 41.71875 21.09375 
Q 42.78125 26.515625 42.78125 34.421875 
z
" id="LiberationSans-48"/>
       </defs>
       <use xlink:href="#LiberationSans-48"/>
      </g>
     </g>
    </g>
    <g id="xtick_2">
     <g id="line2d_2">
      <g>
       <use style="fill:#ffffff;stroke:#ffffff;stroke-width:0.8;" x="138.776625" xlink:href="#m707ec4ec5a" y="119.740235"/>
      </g>
     </g>
     <g id="text_2">
      <!-- 200 -->
      <g style="fill:#ffffff;" transform="translate(130.435219 133.98711)scale(0.1 -0.1)">
       <defs>
        <path d="M 5.03125 0 
L 5.03125 6.203125 
Q 7.515625 11.921875 11.109375 16.28125 
Q 14.703125 20.65625 18.65625 24.1875 
Q 22.609375 27.734375 26.484375 30.765625 
Q 30.375 33.796875 33.5 36.8125 
Q 36.625 39.84375 38.546875 43.15625 
Q 40.484375 46.484375 40.484375 50.6875 
Q 40.484375 53.609375 39.59375 55.828125 
Q 38.71875 58.0625 37.0625 59.5625 
Q 35.40625 61.078125 33.078125 61.828125 
Q 30.765625 62.59375 27.9375 62.59375 
Q 25.296875 62.59375 22.96875 61.859375 
Q 20.65625 61.140625 18.84375 59.671875 
Q 17.046875 58.203125 15.890625 56.03125 
Q 14.75 53.859375 14.40625 50.984375 
L 5.421875 51.8125 
Q 5.859375 55.515625 7.46875 58.78125 
Q 9.078125 62.0625 11.90625 64.53125 
Q 14.75 67 18.71875 68.40625 
Q 22.703125 69.828125 27.9375 69.828125 
Q 33.0625 69.828125 37.0625 68.609375 
Q 41.0625 67.390625 43.8125 64.984375 
Q 46.578125 62.59375 48.046875 59.078125 
Q 49.515625 55.5625 49.515625 50.984375 
Q 49.515625 47.515625 48.265625 44.390625 
Q 47.015625 41.265625 44.9375 38.421875 
Q 42.875 35.59375 40.140625 32.953125 
Q 37.40625 30.328125 34.421875 27.8125 
Q 31.453125 25.296875 28.421875 22.828125 
Q 25.390625 20.359375 22.71875 17.859375 
Q 20.0625 15.375 17.96875 12.8125 
Q 15.875 10.25 14.703125 7.46875 
L 50.59375 7.46875 
L 50.59375 0 
z
" id="LiberationSans-50"/>
       </defs>
       <use xlink:href="#LiberationSans-50"/>
       <use x="55.615234" xlink:href="#LiberationSans-48"/>
       <use x="111.230469" xlink:href="#LiberationSans-48"/>
      </g>
     </g>
    </g>
    <g id="xtick_3">
     <g id="line2d_3">
      <g>
       <use style="fill:#ffffff;stroke:#ffffff;stroke-width:0.8;" x="203.720523" xlink:href="#m707ec4ec5a" y="119.740235"/>
      </g>
     </g>
     <g id="text_3">
      <!-- 400 -->
      <g style="fill:#ffffff;" transform="translate(195.379117 133.98711)scale(0.1 -0.1)">
       <defs>
        <path d="M 43.015625 15.578125 
L 43.015625 0 
L 34.71875 0 
L 34.71875 15.578125 
L 2.296875 15.578125 
L 2.296875 22.40625 
L 33.796875 68.796875 
L 43.015625 68.796875 
L 43.015625 22.515625 
L 52.6875 22.515625 
L 52.6875 15.578125 
z
M 34.71875 58.890625 
Q 34.625 58.640625 34.234375 57.9375 
Q 33.84375 57.234375 33.34375 56.34375 
Q 32.859375 55.46875 32.34375 54.5625 
Q 31.84375 53.65625 31.453125 53.078125 
L 13.8125 27.09375 
Q 13.578125 26.703125 13.109375 26.0625 
Q 12.640625 25.4375 12.15625 24.78125 
Q 11.671875 24.125 11.171875 23.484375 
Q 10.6875 22.859375 10.40625 22.515625 
L 34.71875 22.515625 
z
" id="LiberationSans-52"/>
       </defs>
       <use xlink:href="#LiberationSans-52"/>
       <use x="55.615234" xlink:href="#LiberationSans-48"/>
       <use x="111.230469" xlink:href="#LiberationSans-48"/>
      </g>
     </g>
    </g>
    <g id="xtick_4">
     <g id="line2d_4">
      <g>
       <use style="fill:#ffffff;stroke:#ffffff;stroke-width:0.8;" x="268.664421" xlink:href="#m707ec4ec5a" y="119.740235"/>
      </g>
     </g>
     <g id="text_4">
      <!-- 600 -->
      <g style="fill:#ffffff;" transform="translate(260.323015 133.98711)scale(0.1 -0.1)">
       <defs>
        <path d="M 51.21875 22.515625 
Q 51.21875 17.328125 49.78125 13 
Q 48.34375 8.6875 45.53125 5.578125 
Q 42.71875 2.484375 38.5625 0.75 
Q 34.421875 -0.984375 29 -0.984375 
Q 23 -0.984375 18.5 1.3125 
Q 14.015625 3.609375 11.03125 7.921875 
Q 8.0625 12.25 6.5625 18.53125 
Q 5.078125 24.8125 5.078125 32.8125 
Q 5.078125 42 6.765625 48.921875 
Q 8.453125 55.859375 11.625 60.5 
Q 14.796875 65.140625 19.359375 67.484375 
Q 23.921875 69.828125 29.6875 69.828125 
Q 33.203125 69.828125 36.28125 69.09375 
Q 39.359375 68.359375 41.875 66.71875 
Q 44.390625 65.09375 46.28125 62.40625 
Q 48.1875 59.71875 49.3125 55.8125 
L 40.921875 54.296875 
Q 39.546875 58.734375 36.546875 60.71875 
Q 33.546875 62.703125 29.59375 62.703125 
Q 25.984375 62.703125 23.046875 60.984375 
Q 20.125 59.28125 18.0625 55.875 
Q 16.015625 52.484375 14.90625 47.359375 
Q 13.8125 42.234375 13.8125 35.40625 
Q 16.21875 39.84375 20.5625 42.15625 
Q 24.90625 44.484375 30.515625 44.484375 
Q 35.203125 44.484375 39.015625 42.96875 
Q 42.828125 41.453125 45.53125 38.59375 
Q 48.25 35.75 49.734375 31.671875 
Q 51.21875 27.59375 51.21875 22.515625 
z
M 42.28125 22.125 
Q 42.28125 25.6875 41.40625 28.5625 
Q 40.53125 31.453125 38.765625 33.46875 
Q 37.015625 35.5 34.421875 36.59375 
Q 31.84375 37.703125 28.421875 37.703125 
Q 26.03125 37.703125 23.578125 36.984375 
Q 21.140625 36.28125 19.15625 34.6875 
Q 17.1875 33.109375 15.9375 30.515625 
Q 14.703125 27.9375 14.703125 24.21875 
Q 14.703125 20.40625 15.671875 17.109375 
Q 16.65625 13.8125 18.484375 11.375 
Q 20.3125 8.9375 22.890625 7.515625 
Q 25.484375 6.109375 28.71875 6.109375 
Q 31.890625 6.109375 34.40625 7.203125 
Q 36.921875 8.296875 38.671875 10.375 
Q 40.4375 12.453125 41.359375 15.421875 
Q 42.28125 18.40625 42.28125 22.125 
z
" id="LiberationSans-54"/>
       </defs>
       <use xlink:href="#LiberationSans-54"/>
       <use x="55.615234" xlink:href="#LiberationSans-48"/>
       <use x="111.230469" xlink:href="#LiberationSans-48"/>
      </g>
     </g>
    </g>
    <g id="xtick_5">
     <g id="line2d_5">
      <g>
       <use style="fill:#ffffff;stroke:#ffffff;stroke-width:0.8;" x="333.608319" xlink:href="#m707ec4ec5a" y="119.740235"/>
      </g>
     </g>
     <g id="text_5">
      <!-- 800 -->
      <g style="fill:#ffffff;" transform="translate(325.266913 133.98711)scale(0.1 -0.1)">
       <defs>
        <path d="M 51.265625 19.1875 
Q 51.265625 14.796875 49.875 11.109375 
Q 48.484375 7.421875 45.625 4.734375 
Q 42.78125 2.046875 38.328125 0.53125 
Q 33.890625 -0.984375 27.828125 -0.984375 
Q 21.78125 -0.984375 17.359375 0.53125 
Q 12.9375 2.046875 10.03125 4.703125 
Q 7.125 7.375 5.734375 11.0625 
Q 4.34375 14.75 4.34375 19.09375 
Q 4.34375 22.859375 5.484375 25.78125 
Q 6.640625 28.71875 8.5625 30.828125 
Q 10.5 32.953125 12.96875 34.25 
Q 15.4375 35.546875 18.0625 35.984375 
L 18.0625 36.1875 
Q 15.1875 36.859375 12.90625 38.375 
Q 10.640625 39.890625 9.09375 42.015625 
Q 7.5625 44.140625 6.75 46.71875 
Q 5.953125 49.3125 5.953125 52.203125 
Q 5.953125 55.8125 7.34375 59 
Q 8.734375 62.203125 11.46875 64.625 
Q 14.203125 67.046875 18.25 68.4375 
Q 22.3125 69.828125 27.640625 69.828125 
Q 33.25 69.828125 37.375 68.40625 
Q 41.5 67 44.203125 64.578125 
Q 46.921875 62.15625 48.234375 58.9375 
Q 49.5625 55.71875 49.5625 52.09375 
Q 49.5625 49.265625 48.75 46.671875 
Q 47.953125 44.09375 46.40625 41.96875 
Q 44.875 39.84375 42.59375 38.34375 
Q 40.328125 36.859375 37.359375 36.28125 
L 37.359375 36.078125 
Q 40.328125 35.59375 42.859375 34.296875 
Q 45.40625 33.015625 47.265625 30.890625 
Q 49.125 28.765625 50.1875 25.828125 
Q 51.265625 22.90625 51.265625 19.1875 
z
M 40.4375 51.609375 
Q 40.4375 54.203125 39.765625 56.34375 
Q 39.109375 58.5 37.59375 60.03125 
Q 36.078125 61.578125 33.640625 62.421875 
Q 31.203125 63.28125 27.640625 63.28125 
Q 24.171875 63.28125 21.78125 62.421875 
Q 19.390625 61.578125 17.84375 60.03125 
Q 16.3125 58.5 15.625 56.34375 
Q 14.9375 54.203125 14.9375 51.609375 
Q 14.9375 49.5625 15.46875 47.40625 
Q 16.015625 45.265625 17.421875 43.5 
Q 18.84375 41.75 21.328125 40.625 
Q 23.828125 39.5 27.734375 39.5 
Q 31.890625 39.5 34.40625 40.625 
Q 36.921875 41.75 38.25 43.5 
Q 39.59375 45.265625 40.015625 47.40625 
Q 40.4375 49.5625 40.4375 51.609375 
z
M 42.140625 20.015625 
Q 42.140625 22.515625 41.453125 24.828125 
Q 40.765625 27.15625 39.109375 28.9375 
Q 37.453125 30.71875 34.640625 31.8125 
Q 31.84375 32.90625 27.640625 32.90625 
Q 23.78125 32.90625 21.0625 31.8125 
Q 18.359375 30.71875 16.671875 28.90625 
Q 14.984375 27.09375 14.203125 24.71875 
Q 13.421875 22.359375 13.421875 19.828125 
Q 13.421875 16.65625 14.203125 14.03125 
Q 14.984375 11.421875 16.6875 9.546875 
Q 18.40625 7.671875 21.1875 6.640625 
Q 23.96875 5.609375 27.9375 5.609375 
Q 31.9375 5.609375 34.671875 6.640625 
Q 37.40625 7.671875 39.0625 9.546875 
Q 40.71875 11.421875 41.421875 14.078125 
Q 42.140625 16.75 42.140625 20.015625 
z
" id="LiberationSans-56"/>
       </defs>
       <use xlink:href="#LiberationSans-56"/>
       <use x="55.615234" xlink:href="#LiberationSans-48"/>
       <use x="111.230469" xlink:href="#LiberationSans-48"/>
      </g>
     </g>
    </g>
    <g id="xtick_6">
     <g id="line2d_6">
      <g>
       <use style="fill:#ffffff;stroke:#ffffff;stroke-width:0.8;" x="398.552217" xlink:href="#m707ec4ec5a" y="119.740235"/>
      </g>
     </g>
     <g id="text_6">
      <!-- 1000 -->
      <g style="fill:#ffffff;" transform="translate(387.430342 133.98711)scale(0.1 -0.1)">
       <defs>
        <path d="M 7.625 0 
L 7.625 7.46875 
L 25.140625 7.46875 
L 25.140625 60.40625 
L 9.625 49.3125 
L 9.625 57.625 
L 25.875 68.796875 
L 33.984375 68.796875 
L 33.984375 7.46875 
L 50.734375 7.46875 
L 50.734375 0 
z
" id="LiberationSans-49"/>
       </defs>
       <use xlink:href="#LiberationSans-49"/>
       <use x="55.615234" xlink:href="#LiberationSans-48"/>
       <use x="111.230469" xlink:href="#LiberationSans-48"/>
       <use x="166.845703" xlink:href="#LiberationSans-48"/>
      </g>
     </g>
    </g>
   </g>
   <g id="matplotlib.axis_2">
    <g id="ytick_1">
     <g id="line2d_7">
      <defs>
       <path d="M 0 0 
L -3.5 0 
" id="md8bca42ff7" style="stroke:#ffffff;stroke-width:0.8;"/>
      </defs>
      <g>
       <use style="fill:#ffffff;stroke:#ffffff;stroke-width:0.8;" x="57.6" xlink:href="#md8bca42ff7" y="119.740235"/>
      </g>
     </g>
     <g id="text_7">
      <!-- −1 -->
      <g style="fill:#ffffff;" transform="translate(39.198437 123.363673)scale(0.1 -0.1)">
       <defs>
        <path d="M 4.9375 29.6875 
L 4.9375 36.8125 
L 53.515625 36.8125 
L 53.515625 29.6875 
z
" id="LiberationSans-8722"/>
       </defs>
       <use xlink:href="#LiberationSans-8722"/>
       <use x="58.398438" xlink:href="#LiberationSans-49"/>
      </g>
     </g>
    </g>
    <g id="ytick_2">
     <g id="line2d_8">
      <g>
       <use style="fill:#ffffff;stroke:#ffffff;stroke-width:0.8;" x="57.6" xlink:href="#md8bca42ff7" y="80.606118"/>
      </g>
     </g>
     <g id="text_8">
      <!-- 0 -->
      <g style="fill:#ffffff;" transform="translate(45.039062 84.229555)scale(0.1 -0.1)">
       <use xlink:href="#LiberationSans-48"/>
      </g>
     </g>
    </g>
    <g id="ytick_3">
     <g id="line2d_9">
      <g>
       <use style="fill:#ffffff;stroke:#ffffff;stroke-width:0.8;" x="57.6" xlink:href="#md8bca42ff7" y="41.472"/>
      </g>
     </g>
     <g id="text_9">
      <!-- 1 -->
      <g style="fill:#ffffff;" transform="translate(45.039062 45.095438)scale(0.1 -0.1)">
       <use xlink:href="#LiberationSans-49"/>
      </g>
     </g>
    </g>
    <g id="text_10">
     <!-- $z$ -->
     <g style="fill:#ffffff;" transform="translate(33.123437 83.256118)rotate(-90)scale(0.1 -0.1)">
      <defs>
       <path d="M 11.625 54.6875 
L 54.296875 54.6875 
L 52.6875 46.484375 
L 11.53125 7.171875 
L 45.515625 7.171875 
L 44.09375 0 
L -0.296875 0 
L 1.3125 8.203125 
L 42.484375 47.515625 
L 10.203125 47.515625 
z
" id="DejaVuSans-Oblique-122"/>
      </defs>
      <use transform="translate(0 0.3125)" xlink:href="#DejaVuSans-Oblique-122"/>
     </g>
    </g>
   </g>
   <g id="line2d_10">
    <path clip-path="url(#pcf0b12b603)" d="M 73.832727 55.592469 
L 75.066661 59.920853 
L 76.365539 63.670455 
L 77.079922 65.434573 
L 77.144866 26.451415 
L 77.20981 26.990263 
L 78.443744 36.267997 
L 79.677678 43.940304 
L 80.911612 50.284988 
L 81.171388 51.473896 
L 81.236332 12.629649 
L 81.301276 13.306026 
L 82.53521 24.951693 
L 83.769144 34.582182 
L 85.003078 42.546204 
L 86.237012 49.132124 
L 87.470946 54.578411 
L 88.70488 59.082268 
L 89.224431 60.7371 
L 89.289375 21.800683 
L 89.354319 22.385807 
L 90.588253 32.4603 
L 91.822187 40.791494 
L 92.796345 46.337353 
L 92.861289 7.544216 
L 92.926233 8.271194 
L 94.160167 20.788092 
L 95.394101 31.139055 
L 96.628035 39.698878 
L 97.861969 46.777502 
L 99.095904 52.631235 
L 99.160847 52.90959 
L 99.225791 14.051057 
L 99.290735 14.713291 
L 100.524669 26.115443 
L 101.758603 35.544556 
L 102.992537 43.342048 
L 104.226471 49.790255 
L 105.460406 55.122658 
L 106.69434 59.532338 
L 107.993218 63.352366 
L 108.123105 63.694014 
L 108.188049 24.728174 
L 108.252993 25.284169 
L 109.486927 34.857127 
L 110.720861 42.773572 
L 111.954795 49.320148 
L 113.188729 54.7339 
L 114.422663 59.210851 
L 115.721541 63.089155 
L 116.6957 65.529128 
L 116.760644 26.545029 
L 116.825588 27.082946 
L 118.059522 36.344642 
L 118.968736 42.127039 
L 119.03368 3.375795 
L 119.098624 4.144249 
L 120.332558 17.375277 
L 121.566492 28.316796 
L 122.800426 37.364986 
L 123.579753 42.254674 
L 123.644697 3.50216 
L 123.709641 4.269357 
L 124.943575 17.478736 
L 126.177509 28.402353 
L 127.411443 37.435738 
L 128.645377 44.905978 
L 129.879311 51.083561 
L 131.113245 56.19217 
L 132.347179 60.41678 
L 133.256394 63.054351 
L 133.321338 24.094876 
L 133.386282 24.657173 
L 134.620216 34.338626 
L 135.85415 42.344793 
L 137.088084 48.965566 
L 138.322018 54.440674 
L 138.906513 56.692703 
L 138.971457 17.796528 
L 139.036401 18.421494 
L 140.270335 29.181975 
L 141.504269 38.080453 
L 142.738203 45.439131 
L 143.972137 51.524457 
L 145.206071 56.556773 
L 145.271015 17.66195 
L 145.335959 18.288255 
L 146.569893 29.071792 
L 147.803827 37.989336 
L 149.037761 45.363781 
L 150.271695 51.462145 
L 151.505629 56.505244 
L 152.739563 60.67568 
L 152.999339 61.457163 
L 153.064283 22.513581 
L 153.129227 23.091611 
L 154.363161 33.043971 
L 155.597095 41.274166 
L 156.831029 48.080201 
L 158.064963 53.708514 
L 159.298897 58.362899 
L 160.597775 62.39491 
L 161.831709 65.546193 
L 161.896653 26.561924 
L 161.961597 27.099673 
L 163.195531 36.358475 
L 164.429465 44.015125 
L 165.663399 50.346862 
L 166.897333 55.58295 
L 168.131267 59.912981 
L 168.910594 62.252951 
L 168.975538 23.301451 
L 169.040482 23.871642 
L 170.274416 33.689025 
L 171.50835 41.807599 
L 172.742284 48.521328 
L 173.976218 54.073308 
L 174.820488 57.307779 
L 174.885432 18.405483 
L 174.950376 19.02439 
L 176.18431 29.680546 
L 177.418244 38.492751 
L 178.652178 45.780084 
L 179.886112 51.806411 
L 181.120047 56.789937 
L 181.769486 59.056347 
L 181.834429 20.136653 
L 181.899373 20.738334 
L 183.133307 31.097907 
L 184.367241 39.664851 
L 185.601176 46.749363 
L 186.83511 52.607965 
L 187.354661 54.760565 
L 187.419605 15.883615 
L 187.484549 16.527615 
L 188.718483 27.615815 
L 189.952417 36.785302 
L 191.186351 44.368094 
L 192.420285 50.638753 
L 193.654219 55.824332 
L 194.693321 59.488473 
L 194.758265 20.564479 
L 194.823209 21.161904 
L 196.057143 31.448182 
L 197.291077 39.954514 
L 198.525011 46.988902 
L 199.758945 52.806054 
L 200.992879 57.616601 
L 202.226813 61.594727 
L 202.421645 62.156599 
L 202.486589 23.206057 
L 202.551533 23.777197 
L 203.785467 33.610923 
L 205.019401 41.743012 
L 206.253335 48.467917 
L 206.902774 51.526272 
L 206.967718 12.681503 
L 207.032662 13.357364 
L 208.266596 24.994147 
L 209.50053 34.61729 
L 210.734464 42.575237 
L 211.968398 49.156133 
L 212.423005 51.282347 
L 212.487949 12.440006 
L 212.552893 13.11827 
L 213.786827 24.796425 
L 215.020761 34.453783 
L 216.254695 42.440023 
L 217.488629 49.044317 
L 218.722563 54.505798 
L 219.956497 59.02222 
L 220.476049 60.681669 
L 220.540993 21.745803 
L 220.605936 22.331473 
L 221.839871 32.415368 
L 223.073805 40.754337 
L 224.307739 47.650324 
L 225.541673 53.353023 
L 226.775607 58.068922 
L 227.360102 60.008672 
L 227.425046 21.079502 
L 227.48999 21.671802 
L 228.723924 31.869847 
L 229.957858 40.303213 
L 231.191792 47.277263 
L 232.425726 53.044517 
L 233.269997 56.404402 
L 233.33494 17.511095 
L 233.399884 18.138901 
L 234.633818 28.948282 
L 235.867752 37.887199 
L 237.101687 45.279318 
L 238.335621 51.392298 
L 239.569555 56.447482 
L 240.803489 60.627914 
L 241.972479 63.918919 
L 242.037423 24.950842 
L 242.102367 25.504621 
L 243.336301 35.039432 
L 244.570235 42.92433 
L 245.804169 49.44482 
L 246.063944 50.666672 
L 246.128888 11.830456 
L 246.193832 12.514786 
L 247.427766 24.297369 
L 248.6617 34.041083 
L 249.895634 42.098737 
L 251.129568 48.762088 
L 252.363503 54.272406 
L 253.337661 57.940482 
L 253.402605 19.031891 
L 253.467549 19.644565 
L 254.701483 30.193405 
L 255.935417 38.916864 
L 257.169351 46.130809 
L 258.403285 52.096446 
L 259.637219 57.029784 
L 260.741265 60.715595 
L 260.806209 21.779391 
L 260.871153 22.364727 
L 262.105087 32.442868 
L 263.339021 40.777078 
L 264.572955 47.66913 
L 265.806889 53.368575 
L 267.040823 58.081783 
L 268.274757 61.979413 
L 269.573635 65.355862 
L 269.833411 65.953833 
L 269.898355 26.965508 
L 269.963299 27.499241 
L 271.197233 36.688901 
L 272.431167 44.288374 
L 273.665101 50.572828 
L 274.899035 55.769814 
L 275.80825 59.014473 
L 275.873194 20.095196 
L 275.938137 20.697289 
L 277.172072 31.063965 
L 278.406006 39.636782 
L 279.63994 46.726151 
L 280.873874 52.58877 
L 281.523313 55.254973 
L 281.588257 16.373104 
L 281.6532 17.012233 
L 282.887135 28.016574 
L 284.121069 37.116714 
L 285.355003 44.642158 
L 286.588937 50.865393 
L 287.822871 56.011754 
L 289.056805 60.267584 
L 290.355683 63.954334 
L 291.264897 66.129753 
L 291.329841 27.139677 
L 291.394785 27.671677 
L 292.628719 36.831499 
L 293.862653 44.406297 
L 295.096587 50.670345 
L 296.330521 55.850457 
L 297.564455 60.134198 
L 298.668502 63.334679 
L 298.733446 24.372415 
L 298.798389 24.93195 
L 300.032324 34.565856 
L 301.266258 42.532703 
L 302.500192 49.12096 
L 303.734126 54.569179 
L 304.838172 58.639668 
L 304.903116 19.72412 
L 304.96806 20.329906 
L 306.201994 30.760154 
L 307.435928 39.385543 
L 308.669862 46.518387 
L 309.903796 52.416957 
L 310.942898 56.5849 
L 311.007842 17.689797 
L 311.072786 18.315825 
L 312.30672 29.094591 
L 313.540654 38.00819 
L 314.774588 45.379373 
L 316.008522 51.475039 
L 317.242456 56.515906 
L 318.476391 60.684497 
L 319.385605 63.287093 
L 319.450549 24.325302 
L 319.515493 24.885306 
L 320.749427 34.527283 
L 321.983361 42.500805 
L 323.217295 49.094581 
L 324.451229 54.547365 
L 325.685163 59.056594 
L 326.659322 62.058271 
L 326.724266 23.108707 
L 326.789209 23.680816 
L 328.023144 33.531219 
L 329.257078 41.677101 
L 330.491012 48.413411 
L 331.724946 53.984065 
L 332.95888 58.590768 
L 333.153711 59.24142 
L 333.218655 20.319885 
L 333.283599 20.919743 
L 334.517533 31.247925 
L 335.751467 39.788909 
L 336.985401 46.851954 
L 338.219336 52.692804 
L 339.45327 57.522948 
L 340.687204 61.51728 
L 340.752148 61.707217 
L 340.817091 22.761146 
L 340.882035 23.336713 
L 342.115969 33.246661 
L 343.349903 41.441782 
L 344.583837 48.218813 
L 345.687884 53.282088 
L 345.752828 14.419849 
L 345.817772 15.078413 
L 347.051706 26.417384 
L 348.28564 35.794249 
L 349.519574 43.548534 
L 350.753508 49.96101 
L 351.987442 55.263866 
L 353.091488 59.225752 
L 353.156432 20.304372 
L 353.221376 20.904385 
L 354.45531 31.235224 
L 355.689244 39.778406 
L 356.923178 46.843269 
L 358.157112 52.685622 
L 359.391046 57.517008 
L 360.235317 60.331676 
L 360.300261 21.399293 
L 360.365205 21.98841 
L 361.599139 32.131669 
L 362.833073 40.51973 
L 364.067007 47.456313 
L 365.300941 53.192584 
L 365.885436 55.552034 
L 365.95038 16.667209 
L 366.015324 17.303412 
L 367.249258 28.257367 
L 368.483192 37.31584 
L 369.717126 44.806827 
L 370.95106 51.001567 
L 372.184994 56.124364 
L 373.418928 60.360708 
L 373.548816 60.761594 
L 373.61376 21.824933 
L 373.678704 22.409815 
L 374.912638 32.480154 
L 376.146572 40.807912 
L 377.380506 47.694628 
L 378.61444 53.389661 
L 379.848374 58.09922 
L 380.692645 60.842914 
L 380.757589 21.905443 
L 380.822533 22.489525 
L 382.056467 32.54607 
L 383.290401 40.862423 
L 384.524335 47.739706 
L 385.758269 53.426938 
L 386.992203 58.130047 
L 388.226137 62.019326 
L 389.330183 64.925095 
L 389.395127 25.947006 
L 389.460071 26.490874 
L 390.694005 35.855022 
L 391.927939 43.598791 
L 393.161873 50.002571 
L 394.395807 55.298235 
L 395.629741 59.677533 
L 396.344124 61.857577 
L 396.409068 22.91001 
L 396.474012 23.484096 
L 397.707946 33.36854 
L 398.487273 38.710145 
L 398.487273 38.710145 
" style="fill:none;stroke:#9a72ac;stroke-linecap:round;stroke-width:1.5;"/>
   </g>
   <g id="patch_3">
    <path d="M 57.6 119.740235 
L 57.6 41.472 
" style="fill:none;stroke:#ffffff;stroke-linecap:square;stroke-linejoin:miter;stroke-width:0.8;"/>
   </g>
   <g id="patch_4">
    <path d="M 414.72 119.740235 
L 414.72 41.472 
" style="fill:none;stroke:#ffffff;stroke-linecap:square;stroke-linejoin:miter;stroke-width:0.8;"/>
   </g>
   <g id="patch_5">
    <path d="M 57.6 119.740235 
L 414.72 119.740235 
" style="fill:none;stroke:#ffffff;stroke-linecap:square;stroke-linejoin:miter;stroke-width:0.8;"/>
   </g>
   <g id="patch_6">
    <path d="M 57.6 41.472 
L 414.72 41.472 
" style="fill:none;stroke:#ffffff;stroke-linecap:square;stroke-linejoin:miter;stroke-width:0.8;"/>
   </g>
  </g>
  <g id="axes_2">
   <g id="patch_7">
    <path d="M 57.6 213.662118 
L 414.72 213.662118 
L 414.72 135.393882 
L 57.6 135.393882 
z
" style="fill:#1a1a1a;"/>
   </g>
   <g id="matplotlib.axis_3">
    <g id="xtick_7">
     <g id="line2d_11">
      <g>
       <use style="fill:#ffffff;stroke:#ffffff;stroke-width:0.8;" x="73.832727" xlink:href="#m707ec4ec5a" y="213.662118"/>
      </g>
     </g>
     <g id="text_11">
      <!-- 0 -->
      <g style="fill:#ffffff;" transform="translate(71.052259 227.908993)scale(0.1 -0.1)">
       <use xlink:href="#LiberationSans-48"/>
      </g>
     </g>
    </g>
    <g id="xtick_8">
     <g id="line2d_12">
      <g>
       <use style="fill:#ffffff;stroke:#ffffff;stroke-width:0.8;" x="138.776625" xlink:href="#m707ec4ec5a" y="213.662118"/>
      </g>
     </g>
     <g id="text_12">
      <!-- 200 -->
      <g style="fill:#ffffff;" transform="translate(130.435219 227.908993)scale(0.1 -0.1)">
       <use xlink:href="#LiberationSans-50"/>
       <use x="55.615234" xlink:href="#LiberationSans-48"/>
       <use x="111.230469" xlink:href="#LiberationSans-48"/>
      </g>
     </g>
    </g>
    <g id="xtick_9">
     <g id="line2d_13">
      <g>
       <use style="fill:#ffffff;stroke:#ffffff;stroke-width:0.8;" x="203.720523" xlink:href="#m707ec4ec5a" y="213.662118"/>
      </g>
     </g>
     <g id="text_13">
      <!-- 400 -->
      <g style="fill:#ffffff;" transform="translate(195.379117 227.908993)scale(0.1 -0.1)">
       <use xlink:href="#LiberationSans-52"/>
       <use x="55.615234" xlink:href="#LiberationSans-48"/>
       <use x="111.230469" xlink:href="#LiberationSans-48"/>
      </g>
     </g>
    </g>
    <g id="xtick_10">
     <g id="line2d_14">
      <g>
       <use style="fill:#ffffff;stroke:#ffffff;stroke-width:0.8;" x="268.664421" xlink:href="#m707ec4ec5a" y="213.662118"/>
      </g>
     </g>
     <g id="text_14">
      <!-- 600 -->
      <g style="fill:#ffffff;" transform="translate(260.323015 227.908993)scale(0.1 -0.1)">
       <use xlink:href="#LiberationSans-54"/>
       <use x="55.615234" xlink:href="#LiberationSans-48"/>
       <use x="111.230469" xlink:href="#LiberationSans-48"/>
      </g>
     </g>
    </g>
    <g id="xtick_11">
     <g id="line2d_15">
      <g>
       <use style="fill:#ffffff;stroke:#ffffff;stroke-width:0.8;" x="333.608319" xlink:href="#m707ec4ec5a" y="213.662118"/>
      </g>
     </g>
     <g id="text_15">
      <!-- 800 -->
      <g style="fill:#ffffff;" transform="translate(325.266913 227.908993)scale(0.1 -0.1)">
       <use xlink:href="#LiberationSans-56"/>
       <use x="55.615234" xlink:href="#LiberationSans-48"/>
       <use x="111.230469" xlink:href="#LiberationSans-48"/>
      </g>
     </g>
    </g>
    <g id="xtick_12">
     <g id="line2d_16">
      <g>
       <use style="fill:#ffffff;stroke:#ffffff;stroke-width:0.8;" x="398.552217" xlink:href="#m707ec4ec5a" y="213.662118"/>
      </g>
     </g>
     <g id="text_16">
      <!-- 1000 -->
      <g style="fill:#ffffff;" transform="translate(387.430342 227.908993)scale(0.1 -0.1)">
       <use xlink:href="#LiberationSans-49"/>
       <use x="55.615234" xlink:href="#LiberationSans-48"/>
       <use x="111.230469" xlink:href="#LiberationSans-48"/>
       <use x="166.845703" xlink:href="#LiberationSans-48"/>
      </g>
     </g>
    </g>
    <g id="text_17">
     <!-- $t$ (ms) -->
     <g style="fill:#ffffff;" transform="translate(222.81 241.283993)scale(0.1 -0.1)">
      <defs>
       <path d="M 42.28125 54.6875 
L 40.921875 47.703125 
L 23 47.703125 
L 17.1875 18.015625 
Q 16.890625 16.359375 16.75 15.234375 
Q 16.609375 14.109375 16.609375 13.484375 
Q 16.609375 10.359375 18.484375 8.9375 
Q 20.359375 7.515625 24.515625 7.515625 
L 33.59375 7.515625 
L 32.078125 0 
L 23.484375 0 
Q 15.484375 0 11.546875 3.125 
Q 7.625 6.25 7.625 12.59375 
Q 7.625 13.71875 7.765625 15.0625 
Q 7.90625 16.40625 8.203125 18.015625 
L 14.015625 47.703125 
L 6.390625 47.703125 
L 7.8125 54.6875 
L 15.28125 54.6875 
L 18.3125 70.21875 
L 27.296875 70.21875 
L 24.3125 54.6875 
z
" id="DejaVuSans-Oblique-116"/>
       <path id="LiberationSans-32"/>
       <path d="M 6.203125 25.984375 
Q 6.203125 32.765625 7.21875 38.96875 
Q 8.25 45.171875 10.4375 50.875 
Q 12.640625 56.59375 16.0625 61.953125 
Q 19.484375 67.328125 24.21875 72.46875 
L 32.71875 72.46875 
Q 28.125 67.328125 24.78125 61.9375 
Q 21.4375 56.546875 19.28125 50.796875 
Q 17.140625 45.0625 16.09375 38.859375 
Q 15.046875 32.671875 15.046875 25.875 
Q 15.046875 19.09375 16.09375 12.890625 
Q 17.140625 6.6875 19.28125 0.921875 
Q 21.4375 -4.828125 24.78125 -10.203125 
Q 28.125 -15.578125 32.71875 -20.703125 
L 24.21875 -20.703125 
Q 19.484375 -15.578125 16.0625 -10.203125 
Q 12.640625 -4.828125 10.4375 0.875 
Q 8.25 6.59375 7.21875 12.765625 
Q 6.203125 18.953125 6.203125 25.78125 
z
" id="LiberationSans-40"/>
       <path d="M 37.5 0 
L 37.5 33.5 
Q 37.5 37.359375 37.015625 39.9375 
Q 36.53125 42.53125 35.375 44.109375 
Q 34.234375 45.703125 32.375 46.359375 
Q 30.515625 47.015625 27.828125 47.015625 
Q 25.046875 47.015625 22.796875 45.921875 
Q 20.5625 44.828125 18.96875 42.75 
Q 17.390625 40.671875 16.53125 37.625 
Q 15.671875 34.578125 15.671875 30.609375 
L 15.671875 0 
L 6.9375 0 
L 6.9375 41.546875 
Q 6.9375 43.21875 6.90625 45.046875 
Q 6.890625 46.875 6.828125 48.5 
Q 6.78125 50.140625 6.734375 51.3125 
Q 6.6875 52.484375 6.640625 52.828125 
L 14.9375 52.828125 
Q 14.984375 52.59375 15.03125 51.515625 
Q 15.09375 50.4375 15.15625 49.046875 
Q 15.234375 47.65625 15.28125 46.21875 
Q 15.328125 44.78125 15.328125 43.796875 
L 15.484375 43.796875 
Q 16.65625 46.09375 18.015625 47.953125 
Q 19.390625 49.8125 21.21875 51.09375 
Q 23.046875 52.390625 25.40625 53.09375 
Q 27.78125 53.8125 30.90625 53.8125 
Q 36.921875 53.8125 40.40625 51.421875 
Q 43.890625 49.03125 45.265625 43.796875 
L 45.40625 43.796875 
Q 46.578125 46.09375 48.046875 47.953125 
Q 49.515625 49.8125 51.46875 51.09375 
Q 53.421875 52.390625 55.859375 53.09375 
Q 58.296875 53.8125 61.421875 53.8125 
Q 65.4375 53.8125 68.328125 52.734375 
Q 71.234375 51.65625 73.09375 49.40625 
Q 74.953125 47.171875 75.828125 43.625 
Q 76.703125 40.09375 76.703125 35.203125 
L 76.703125 0 
L 68.015625 0 
L 68.015625 33.5 
Q 68.015625 37.359375 67.53125 39.9375 
Q 67.046875 42.53125 65.890625 44.109375 
Q 64.75 45.703125 62.890625 46.359375 
Q 61.03125 47.015625 58.34375 47.015625 
Q 55.5625 47.015625 53.3125 45.96875 
Q 51.078125 44.921875 49.484375 42.875 
Q 47.90625 40.828125 47.046875 37.75 
Q 46.1875 34.671875 46.1875 30.609375 
L 46.1875 0 
z
" id="LiberationSans-109"/>
       <path d="M 46.390625 14.59375 
Q 46.390625 10.890625 44.9375 7.984375 
Q 43.5 5.078125 40.765625 3.09375 
Q 38.03125 1.125 34.046875 0.0625 
Q 30.078125 -0.984375 24.953125 -0.984375 
Q 20.359375 -0.984375 16.671875 -0.265625 
Q 12.984375 0.4375 10.203125 2 
Q 7.421875 3.5625 5.53125 6.125 
Q 3.65625 8.6875 2.78125 12.40625 
L 10.546875 13.921875 
Q 11.671875 9.671875 15.1875 7.6875 
Q 18.703125 5.71875 24.953125 5.71875 
Q 27.78125 5.71875 30.140625 6.109375 
Q 32.515625 6.5 34.21875 7.453125 
Q 35.9375 8.40625 36.890625 9.984375 
Q 37.84375 11.578125 37.84375 13.921875 
Q 37.84375 16.3125 36.71875 17.84375 
Q 35.59375 19.390625 33.59375 20.40625 
Q 31.59375 21.4375 28.734375 22.1875 
Q 25.875 22.953125 22.46875 23.875 
Q 19.28125 24.703125 16.15625 25.734375 
Q 13.03125 26.765625 10.515625 28.4375 
Q 8.015625 30.125 6.453125 32.609375 
Q 4.890625 35.109375 4.890625 38.875 
Q 4.890625 46.09375 10.03125 49.875 
Q 15.1875 53.65625 25.046875 53.65625 
Q 33.796875 53.65625 38.9375 50.578125 
Q 44.09375 47.515625 45.453125 40.71875 
L 37.546875 39.75 
Q 37.109375 41.796875 35.9375 43.1875 
Q 34.765625 44.578125 33.109375 45.4375 
Q 31.453125 46.296875 29.375 46.65625 
Q 27.296875 47.015625 25.046875 47.015625 
Q 19.09375 47.015625 16.25 45.203125 
Q 13.421875 43.40625 13.421875 39.75 
Q 13.421875 37.59375 14.46875 36.203125 
Q 15.53125 34.8125 17.40625 33.859375 
Q 19.28125 32.90625 21.921875 32.203125 
Q 24.5625 31.5 27.734375 30.71875 
Q 29.828125 30.171875 32.03125 29.5625 
Q 34.234375 28.953125 36.296875 28.09375 
Q 38.375 27.25 40.203125 26.09375 
Q 42.046875 24.953125 43.40625 23.34375 
Q 44.78125 21.734375 45.578125 19.578125 
Q 46.390625 17.4375 46.390625 14.59375 
z
" id="LiberationSans-115"/>
       <path d="M 27.09375 25.78125 
Q 27.09375 18.953125 26.0625 12.765625 
Q 25.046875 6.59375 22.84375 0.875 
Q 20.65625 -4.828125 17.234375 -10.203125 
Q 13.8125 -15.578125 9.078125 -20.703125 
L 0.59375 -20.703125 
Q 5.171875 -15.578125 8.515625 -10.203125 
Q 11.859375 -4.828125 14 0.921875 
Q 16.15625 6.6875 17.203125 12.890625 
Q 18.265625 19.09375 18.265625 25.875 
Q 18.265625 32.671875 17.203125 38.859375 
Q 16.15625 45.0625 14 50.796875 
Q 11.859375 56.546875 8.515625 61.9375 
Q 5.171875 67.328125 0.59375 72.46875 
L 9.078125 72.46875 
Q 13.8125 67.328125 17.234375 61.953125 
Q 20.65625 56.59375 22.84375 50.875 
Q 25.046875 45.171875 26.0625 38.96875 
Q 27.09375 32.765625 27.09375 25.984375 
z
" id="LiberationSans-41"/>
      </defs>
      <use transform="translate(0 0.53125)" xlink:href="#DejaVuSans-Oblique-116"/>
      <use transform="translate(39.208984 0.53125)" xlink:href="#LiberationSans-32"/>
      <use transform="translate(66.992188 0.53125)" xlink:href="#LiberationSans-40"/>
      <use transform="translate(100.292969 0.53125)" xlink:href="#LiberationSans-109"/>
      <use transform="translate(183.59375 0.53125)" xlink:href="#LiberationSans-115"/>
      <use transform="translate(233.59375 0.53125)" xlink:href="#LiberationSans-41"/>
     </g>
    </g>
   </g>
   <g id="matplotlib.axis_4">
    <g id="ytick_4">
     <g id="line2d_17">
      <g>
       <use style="fill:#ffffff;stroke:#ffffff;stroke-width:0.8;" x="57.6" xlink:href="#md8bca42ff7" y="213.662118"/>
      </g>
     </g>
     <g id="text_18">
      <!-- −1 -->
      <g style="fill:#ffffff;" transform="translate(39.198437 217.285555)scale(0.1 -0.1)">
       <use xlink:href="#LiberationSans-8722"/>
       <use x="58.398438" xlink:href="#LiberationSans-49"/>
      </g>
     </g>
    </g>
    <g id="ytick_5">
     <g id="line2d_18">
      <g>
       <use style="fill:#ffffff;stroke:#ffffff;stroke-width:0.8;" x="57.6" xlink:href="#md8bca42ff7" y="174.528"/>
      </g>
     </g>
     <g id="text_19">
      <!-- 0 -->
      <g style="fill:#ffffff;" transform="translate(45.039062 178.151437)scale(0.1 -0.1)">
       <use xlink:href="#LiberationSans-48"/>
      </g>
     </g>
    </g>
    <g id="ytick_6">
     <g id="line2d_19">
      <g>
       <use style="fill:#ffffff;stroke:#ffffff;stroke-width:0.8;" x="57.6" xlink:href="#md8bca42ff7" y="135.393882"/>
      </g>
     </g>
     <g id="text_20">
      <!-- 1 -->
      <g style="fill:#ffffff;" transform="translate(45.039062 139.01732)scale(0.1 -0.1)">
       <use xlink:href="#LiberationSans-49"/>
      </g>
     </g>
    </g>
    <g id="text_21">
     <!-- $z$ -->
     <g style="fill:#ffffff;" transform="translate(33.123437 177.178)rotate(-90)scale(0.1 -0.1)">
      <use transform="translate(0 0.3125)" xlink:href="#DejaVuSans-Oblique-122"/>
     </g>
    </g>
   </g>
   <g id="line2d_20">
    <path clip-path="url(#p301a05a51c)" d="M 73.832727 172.979939 
L 76.495427 173.500629 
L 76.625315 173.520972 
L 76.690259 134.396875 
L 76.755203 134.796186 
L 77.989137 141.671413 
L 79.223071 147.356946 
L 80.457005 152.058648 
L 81.690939 155.946764 
L 82.989817 159.314971 
L 84.288695 162.072625 
L 85.587573 164.330402 
L 86.951395 166.261988 
L 88.38016 167.89437 
L 89.87387 169.257358 
L 91.432524 170.381966 
L 93.121065 171.331194 
L 95.004438 172.135946 
L 97.147587 172.808296 
L 99.680399 173.363663 
L 102.797706 173.807527 
L 106.824227 174.140426 
L 112.474347 174.365625 
L 117.150307 174.448964 
L 117.215251 135.315632 
L 117.280195 135.705802 
L 118.514129 142.423629 
L 119.748063 147.978997 
L 120.981997 152.573059 
L 122.280875 156.552815 
L 123.579753 159.811163 
L 124.878631 162.478873 
L 126.177509 164.663009 
L 127.541331 166.531594 
L 128.970097 168.110734 
L 130.463806 169.429266 
L 132.087404 170.557102 
L 133.840889 171.496698 
L 135.789206 172.282356 
L 137.997298 172.929617 
L 140.595054 173.456572 
L 143.842249 173.878146 
L 148.063603 174.188747 
L 154.168329 174.395478 
L 164.884072 174.502549 
L 171.378462 174.518637 
L 171.443406 135.384613 
L 171.50835 135.774096 
L 172.742284 142.480105 
L 173.976218 148.025701 
L 175.210152 152.611681 
L 176.50903 156.584436 
L 177.807908 159.837052 
L 179.106786 162.500069 
L 180.405664 164.680363 
L 181.769486 166.545661 
L 183.198251 168.122023 
L 184.691961 169.438236 
L 186.315558 170.564088 
L 188.069044 171.502031 
L 190.017361 172.286307 
L 192.225453 172.932429 
L 194.888153 173.469099 
L 198.135348 173.885744 
L 202.421645 174.196049 
L 203.265916 174.236516 
L 203.33086 135.105298 
L 203.395804 135.497561 
L 204.629738 142.251422 
L 205.863672 147.836589 
L 207.097606 152.455294 
L 208.396484 156.456397 
L 209.695362 159.732222 
L 210.99424 162.414242 
L 212.293118 164.610094 
L 213.656939 166.488701 
L 215.085705 168.076312 
L 216.579415 169.401917 
L 218.203012 170.535802 
L 219.956497 171.480438 
L 220.281217 171.62907 
L 220.346161 132.523797 
L 220.411105 132.941746 
L 221.645039 140.137867 
L 222.878973 146.088765 
L 224.112907 151.009915 
L 225.346841 155.079505 
L 226.645719 158.604919 
L 227.944597 161.491284 
L 229.243475 163.85444 
L 230.607297 165.87618 
L 231.971119 167.514971 
L 233.399884 168.899912 
L 234.958538 170.10079 
L 236.647079 171.114392 
L 238.465508 171.948051 
L 240.543713 172.654572 
L 242.946637 173.233959 
L 245.024842 173.588334 
L 245.089786 134.463566 
L 245.15473 134.862214 
L 246.388664 141.726016 
L 247.622598 147.402099 
L 248.856532 152.095989 
L 250.090466 155.977643 
L 251.389344 159.340253 
L 252.688222 162.093324 
L 253.9871 164.347348 
L 255.350922 166.275724 
L 256.779688 167.905394 
L 258.273397 169.266117 
L 259.832051 170.388856 
L 261.520592 171.336506 
L 263.403965 172.139922 
L 265.547114 172.811154 
L 268.079926 173.365597 
L 271.197233 173.808725 
L 275.223755 174.14107 
L 280.873874 174.365895 
L 290.355683 174.490353 
L 316.008522 174.527275 
L 345.493052 174.527992 
L 345.557996 135.393875 
L 345.62294 135.783266 
L 346.856874 142.487688 
L 348.090808 148.031971 
L 349.324742 152.616867 
L 350.62362 156.588682 
L 351.922498 159.840528 
L 353.221376 162.502915 
L 354.520254 164.682693 
L 355.884076 166.54755 
L 357.312841 168.123539 
L 358.806551 169.43944 
L 360.430149 170.565026 
L 362.183634 171.502747 
L 364.131951 172.286837 
L 365.560717 172.729425 
L 365.62566 133.613203 
L 365.690604 134.020312 
L 366.924538 141.029798 
L 368.158472 146.826356 
L 369.392406 151.619872 
L 370.626341 155.583914 
L 371.925218 159.017895 
L 373.224096 161.8294 
L 374.522974 164.131265 
L 375.886796 166.100571 
L 377.315562 167.76483 
L 378.809272 169.154434 
L 380.367925 170.301003 
L 382.056467 171.268767 
L 383.93984 172.089235 
L 386.082988 172.774714 
L 388.6158 173.340926 
L 391.668163 173.786076 
L 395.629741 174.124875 
L 398.487273 174.268373 
L 398.487273 174.268373 
" style="fill:none;stroke:#9a72ac;stroke-linecap:round;stroke-width:1.5;"/>
   </g>
   <g id="patch_8">
    <path d="M 57.6 213.662118 
L 57.6 135.393882 
" style="fill:none;stroke:#ffffff;stroke-linecap:square;stroke-linejoin:miter;stroke-width:0.8;"/>
   </g>
   <g id="patch_9">
    <path d="M 414.72 213.662118 
L 414.72 135.393882 
" style="fill:none;stroke:#ffffff;stroke-linecap:square;stroke-linejoin:miter;stroke-width:0.8;"/>
   </g>
   <g id="patch_10">
    <path d="M 57.6 213.662118 
L 414.72 213.662118 
" style="fill:none;stroke:#ffffff;stroke-linecap:square;stroke-linejoin:miter;stroke-width:0.8;"/>
   </g>
   <g id="patch_11">
    <path d="M 57.6 135.393882 
L 414.72 135.393882 
" style="fill:none;stroke:#ffffff;stroke-linecap:square;stroke-linejoin:miter;stroke-width:0.8;"/>
   </g>
  </g>
  <g id="text_22">
   <!-- M2 - $z$ -->
   <g style="fill:#ffffff;" transform="translate(213.54 15.60825)scale(0.12 -0.12)">
    <defs>
     <path d="M 66.703125 0 
L 66.703125 45.90625 
Q 66.703125 48.390625 66.75 50.96875 
Q 66.796875 53.5625 66.890625 55.71875 
Q 67 58.203125 67.140625 60.546875 
Q 66.453125 58.0625 65.71875 55.609375 
Q 65.09375 53.515625 64.328125 51.140625 
Q 63.578125 48.78125 62.84375 46.875 
L 45.0625 0 
L 38.53125 0 
L 20.515625 46.875 
Q 20.21875 47.609375 19.890625 48.578125 
Q 19.578125 49.5625 19.203125 50.65625 
Q 18.84375 51.765625 18.46875 52.90625 
Q 18.109375 54.046875 17.78125 55.171875 
Q 16.9375 57.765625 16.15625 60.546875 
Q 16.21875 57.8125 16.3125 55.125 
Q 16.40625 52.828125 16.453125 50.3125 
Q 16.5 47.796875 16.5 45.90625 
L 16.5 0 
L 8.203125 0 
L 8.203125 68.796875 
L 20.453125 68.796875 
L 38.765625 21.09375 
Q 39.109375 20.125 39.59375 18.578125 
Q 40.09375 17.046875 40.53125 15.421875 
Q 40.96875 13.8125 41.328125 12.375 
Q 41.703125 10.9375 41.84375 10.15625 
Q 42 10.9375 42.390625 12.40625 
Q 42.78125 13.875 43.28125 15.484375 
Q 43.796875 17.09375 44.28125 18.609375 
Q 44.78125 20.125 45.171875 21.09375 
L 63.140625 68.796875 
L 75.09375 68.796875 
L 75.09375 0 
z
" id="LiberationSans-77"/>
     <path d="M 4.4375 22.65625 
L 4.4375 30.46875 
L 28.859375 30.46875 
L 28.859375 22.65625 
z
" id="LiberationSans-45"/>
    </defs>
    <use transform="translate(0 0.171875)" xlink:href="#LiberationSans-77"/>
    <use transform="translate(83.300781 0.171875)" xlink:href="#LiberationSans-50"/>
    <use transform="translate(138.916016 0.171875)" xlink:href="#LiberationSans-32"/>
    <use transform="translate(166.699219 0.171875)" xlink:href="#LiberationSans-45"/>
    <use transform="translate(200 0.171875)" xlink:href="#LiberationSans-32"/>
    <use transform="translate(227.783203 0.171875)" xlink:href="#DejaVuSans-Oblique-122"/>
   </g>
  </g>
 </g>
 <defs>
  <clipPath id="pcf0b12b603">
   <rect height="78.268235" width="357.12" x="57.6" y="41.472"/>
  </clipPath>
  <clipPath id="p301a05a51c">
   <rect height="78.268235" width="357.12" x="57.6" y="135.393882"/>
  </clipPath>
 </defs>
</svg>
