<?xml version="1.0" encoding="utf-8" standalone="no"?>
<!DOCTYPE svg PUBLIC "-//W3C//DTD SVG 1.1//EN"
  "http://www.w3.org/Graphics/SVG/1.1/DTD/svg11.dtd">
<!-- Created with matplotlib (https://matplotlib.org/) -->
<svg height="345.6pt" version="1.1" viewBox="0 0 460.8 345.6" width="460.8pt" xmlns="http://www.w3.org/2000/svg" xmlns:xlink="http://www.w3.org/1999/xlink">
 <metadata>
  <rdf:RDF xmlns:cc="http://creativecommons.org/ns#" xmlns:dc="http://purl.org/dc/elements/1.1/" xmlns:rdf="http://www.w3.org/1999/02/22-rdf-syntax-ns#">
   <cc:Work>
    <dc:type rdf:resource="http://purl.org/dc/dcmitype/StillImage"/>
    <dc:date>2022-05-05T12:30:19.307456</dc:date>
    <dc:format>image/svg+xml</dc:format>
    <dc:creator>
     <cc:Agent>
      <dc:title>Matplotlib v3.3.4, https://matplotlib.org/</dc:title>
     </cc:Agent>
    </dc:creator>
   </cc:Work>
  </rdf:RDF>
 </metadata>
 <defs>
  <style type="text/css">*{stroke-linecap:butt;stroke-linejoin:round;}</style>
 </defs>
 <g id="figure_1">
  <g id="patch_1">
   <path d="M 0 345.6 
L 460.8 345.6 
L 460.8 0 
L 0 0 
z
" style="fill:#262626;"/>
  </g>
  <g id="axes_1">
   <g id="patch_2">
    <path d="M 57.6 119.740235 
L 414.72 119.740235 
L 414.72 41.472 
L 57.6 41.472 
z
" style="fill:#1a1a1a;"/>
   </g>
   <g id="matplotlib.axis_1">
    <g id="xtick_1">
     <g id="line2d_1">
      <defs>
       <path d="M 0 0 
L 0 3.5 
" id="m338451bd6b" style="stroke:#ffffff;stroke-width:0.8;"/>
      </defs>
      <g>
       <use style="fill:#ffffff;stroke:#ffffff;stroke-width:0.8;" x="73.832727" xlink:href="#m338451bd6b" y="119.740235"/>
      </g>
     </g>
     <g id="text_1">
      <!-- 0 -->
      <g style="fill:#ffffff;" transform="translate(71.052259 133.98711)scale(0.1 -0.1)">
       <defs>
        <path d="M 51.703125 34.421875 
Q 51.703125 24.515625 49.828125 17.75 
Q 47.953125 10.984375 44.703125 6.8125 
Q 41.453125 2.640625 37.0625 0.828125 
Q 32.671875 -0.984375 27.6875 -0.984375 
Q 22.65625 -0.984375 18.3125 0.828125 
Q 13.96875 2.640625 10.765625 6.78125 
Q 7.5625 10.9375 5.734375 17.703125 
Q 3.90625 24.46875 3.90625 34.421875 
Q 3.90625 44.828125 5.734375 51.640625 
Q 7.5625 58.453125 10.78125 62.5 
Q 14.015625 66.546875 18.40625 68.1875 
Q 22.796875 69.828125 27.984375 69.828125 
Q 32.90625 69.828125 37.21875 68.1875 
Q 41.546875 66.546875 44.765625 62.5 
Q 48 58.453125 49.84375 51.640625 
Q 51.703125 44.828125 51.703125 34.421875 
z
M 42.78125 34.421875 
Q 42.78125 42.625 41.796875 48.0625 
Q 40.828125 53.515625 38.921875 56.765625 
Q 37.015625 60.015625 34.25 61.359375 
Q 31.5 62.703125 27.984375 62.703125 
Q 24.265625 62.703125 21.4375 61.328125 
Q 18.609375 59.96875 16.671875 56.71875 
Q 14.75 53.46875 13.765625 48.015625 
Q 12.796875 42.578125 12.796875 34.421875 
Q 12.796875 26.515625 13.796875 21.09375 
Q 14.796875 15.671875 16.71875 12.375 
Q 18.65625 9.078125 21.4375 7.640625 
Q 24.21875 6.203125 27.78125 6.203125 
Q 31.25 6.203125 34.03125 7.640625 
Q 36.8125 9.078125 38.734375 12.375 
Q 40.671875 15.671875 41.71875 21.09375 
Q 42.78125 26.515625 42.78125 34.421875 
z
" id="LiberationSans-48"/>
       </defs>
       <use xlink:href="#LiberationSans-48"/>
      </g>
     </g>
    </g>
    <g id="xtick_2">
     <g id="line2d_2">
      <g>
       <use style="fill:#ffffff;stroke:#ffffff;stroke-width:0.8;" x="138.776625" xlink:href="#m338451bd6b" y="119.740235"/>
      </g>
     </g>
     <g id="text_2">
      <!-- 200 -->
      <g style="fill:#ffffff;" transform="translate(130.435219 133.98711)scale(0.1 -0.1)">
       <defs>
        <path d="M 5.03125 0 
L 5.03125 6.203125 
Q 7.515625 11.921875 11.109375 16.28125 
Q 14.703125 20.65625 18.65625 24.1875 
Q 22.609375 27.734375 26.484375 30.765625 
Q 30.375 33.796875 33.5 36.8125 
Q 36.625 39.84375 38.546875 43.15625 
Q 40.484375 46.484375 40.484375 50.6875 
Q 40.484375 53.609375 39.59375 55.828125 
Q 38.71875 58.0625 37.0625 59.5625 
Q 35.40625 61.078125 33.078125 61.828125 
Q 30.765625 62.59375 27.9375 62.59375 
Q 25.296875 62.59375 22.96875 61.859375 
Q 20.65625 61.140625 18.84375 59.671875 
Q 17.046875 58.203125 15.890625 56.03125 
Q 14.75 53.859375 14.40625 50.984375 
L 5.421875 51.8125 
Q 5.859375 55.515625 7.46875 58.78125 
Q 9.078125 62.0625 11.90625 64.53125 
Q 14.75 67 18.71875 68.40625 
Q 22.703125 69.828125 27.9375 69.828125 
Q 33.0625 69.828125 37.0625 68.609375 
Q 41.0625 67.390625 43.8125 64.984375 
Q 46.578125 62.59375 48.046875 59.078125 
Q 49.515625 55.5625 49.515625 50.984375 
Q 49.515625 47.515625 48.265625 44.390625 
Q 47.015625 41.265625 44.9375 38.421875 
Q 42.875 35.59375 40.140625 32.953125 
Q 37.40625 30.328125 34.421875 27.8125 
Q 31.453125 25.296875 28.421875 22.828125 
Q 25.390625 20.359375 22.71875 17.859375 
Q 20.0625 15.375 17.96875 12.8125 
Q 15.875 10.25 14.703125 7.46875 
L 50.59375 7.46875 
L 50.59375 0 
z
" id="LiberationSans-50"/>
       </defs>
       <use xlink:href="#LiberationSans-50"/>
       <use x="55.615234" xlink:href="#LiberationSans-48"/>
       <use x="111.230469" xlink:href="#LiberationSans-48"/>
      </g>
     </g>
    </g>
    <g id="xtick_3">
     <g id="line2d_3">
      <g>
       <use style="fill:#ffffff;stroke:#ffffff;stroke-width:0.8;" x="203.720523" xlink:href="#m338451bd6b" y="119.740235"/>
      </g>
     </g>
     <g id="text_3">
      <!-- 400 -->
      <g style="fill:#ffffff;" transform="translate(195.379117 133.98711)scale(0.1 -0.1)">
       <defs>
        <path d="M 43.015625 15.578125 
L 43.015625 0 
L 34.71875 0 
L 34.71875 15.578125 
L 2.296875 15.578125 
L 2.296875 22.40625 
L 33.796875 68.796875 
L 43.015625 68.796875 
L 43.015625 22.515625 
L 52.6875 22.515625 
L 52.6875 15.578125 
z
M 34.71875 58.890625 
Q 34.625 58.640625 34.234375 57.9375 
Q 33.84375 57.234375 33.34375 56.34375 
Q 32.859375 55.46875 32.34375 54.5625 
Q 31.84375 53.65625 31.453125 53.078125 
L 13.8125 27.09375 
Q 13.578125 26.703125 13.109375 26.0625 
Q 12.640625 25.4375 12.15625 24.78125 
Q 11.671875 24.125 11.171875 23.484375 
Q 10.6875 22.859375 10.40625 22.515625 
L 34.71875 22.515625 
z
" id="LiberationSans-52"/>
       </defs>
       <use xlink:href="#LiberationSans-52"/>
       <use x="55.615234" xlink:href="#LiberationSans-48"/>
       <use x="111.230469" xlink:href="#LiberationSans-48"/>
      </g>
     </g>
    </g>
    <g id="xtick_4">
     <g id="line2d_4">
      <g>
       <use style="fill:#ffffff;stroke:#ffffff;stroke-width:0.8;" x="268.664421" xlink:href="#m338451bd6b" y="119.740235"/>
      </g>
     </g>
     <g id="text_4">
      <!-- 600 -->
      <g style="fill:#ffffff;" transform="translate(260.323015 133.98711)scale(0.1 -0.1)">
       <defs>
        <path d="M 51.21875 22.515625 
Q 51.21875 17.328125 49.78125 13 
Q 48.34375 8.6875 45.53125 5.578125 
Q 42.71875 2.484375 38.5625 0.75 
Q 34.421875 -0.984375 29 -0.984375 
Q 23 -0.984375 18.5 1.3125 
Q 14.015625 3.609375 11.03125 7.921875 
Q 8.0625 12.25 6.5625 18.53125 
Q 5.078125 24.8125 5.078125 32.8125 
Q 5.078125 42 6.765625 48.921875 
Q 8.453125 55.859375 11.625 60.5 
Q 14.796875 65.140625 19.359375 67.484375 
Q 23.921875 69.828125 29.6875 69.828125 
Q 33.203125 69.828125 36.28125 69.09375 
Q 39.359375 68.359375 41.875 66.71875 
Q 44.390625 65.09375 46.28125 62.40625 
Q 48.1875 59.71875 49.3125 55.8125 
L 40.921875 54.296875 
Q 39.546875 58.734375 36.546875 60.71875 
Q 33.546875 62.703125 29.59375 62.703125 
Q 25.984375 62.703125 23.046875 60.984375 
Q 20.125 59.28125 18.0625 55.875 
Q 16.015625 52.484375 14.90625 47.359375 
Q 13.8125 42.234375 13.8125 35.40625 
Q 16.21875 39.84375 20.5625 42.15625 
Q 24.90625 44.484375 30.515625 44.484375 
Q 35.203125 44.484375 39.015625 42.96875 
Q 42.828125 41.453125 45.53125 38.59375 
Q 48.25 35.75 49.734375 31.671875 
Q 51.21875 27.59375 51.21875 22.515625 
z
M 42.28125 22.125 
Q 42.28125 25.6875 41.40625 28.5625 
Q 40.53125 31.453125 38.765625 33.46875 
Q 37.015625 35.5 34.421875 36.59375 
Q 31.84375 37.703125 28.421875 37.703125 
Q 26.03125 37.703125 23.578125 36.984375 
Q 21.140625 36.28125 19.15625 34.6875 
Q 17.1875 33.109375 15.9375 30.515625 
Q 14.703125 27.9375 14.703125 24.21875 
Q 14.703125 20.40625 15.671875 17.109375 
Q 16.65625 13.8125 18.484375 11.375 
Q 20.3125 8.9375 22.890625 7.515625 
Q 25.484375 6.109375 28.71875 6.109375 
Q 31.890625 6.109375 34.40625 7.203125 
Q 36.921875 8.296875 38.671875 10.375 
Q 40.4375 12.453125 41.359375 15.421875 
Q 42.28125 18.40625 42.28125 22.125 
z
" id="LiberationSans-54"/>
       </defs>
       <use xlink:href="#LiberationSans-54"/>
       <use x="55.615234" xlink:href="#LiberationSans-48"/>
       <use x="111.230469" xlink:href="#LiberationSans-48"/>
      </g>
     </g>
    </g>
    <g id="xtick_5">
     <g id="line2d_5">
      <g>
       <use style="fill:#ffffff;stroke:#ffffff;stroke-width:0.8;" x="333.608319" xlink:href="#m338451bd6b" y="119.740235"/>
      </g>
     </g>
     <g id="text_5">
      <!-- 800 -->
      <g style="fill:#ffffff;" transform="translate(325.266913 133.98711)scale(0.1 -0.1)">
       <defs>
        <path d="M 51.265625 19.1875 
Q 51.265625 14.796875 49.875 11.109375 
Q 48.484375 7.421875 45.625 4.734375 
Q 42.78125 2.046875 38.328125 0.53125 
Q 33.890625 -0.984375 27.828125 -0.984375 
Q 21.78125 -0.984375 17.359375 0.53125 
Q 12.9375 2.046875 10.03125 4.703125 
Q 7.125 7.375 5.734375 11.0625 
Q 4.34375 14.75 4.34375 19.09375 
Q 4.34375 22.859375 5.484375 25.78125 
Q 6.640625 28.71875 8.5625 30.828125 
Q 10.5 32.953125 12.96875 34.25 
Q 15.4375 35.546875 18.0625 35.984375 
L 18.0625 36.1875 
Q 15.1875 36.859375 12.90625 38.375 
Q 10.640625 39.890625 9.09375 42.015625 
Q 7.5625 44.140625 6.75 46.71875 
Q 5.953125 49.3125 5.953125 52.203125 
Q 5.953125 55.8125 7.34375 59 
Q 8.734375 62.203125 11.46875 64.625 
Q 14.203125 67.046875 18.25 68.4375 
Q 22.3125 69.828125 27.640625 69.828125 
Q 33.25 69.828125 37.375 68.40625 
Q 41.5 67 44.203125 64.578125 
Q 46.921875 62.15625 48.234375 58.9375 
Q 49.5625 55.71875 49.5625 52.09375 
Q 49.5625 49.265625 48.75 46.671875 
Q 47.953125 44.09375 46.40625 41.96875 
Q 44.875 39.84375 42.59375 38.34375 
Q 40.328125 36.859375 37.359375 36.28125 
L 37.359375 36.078125 
Q 40.328125 35.59375 42.859375 34.296875 
Q 45.40625 33.015625 47.265625 30.890625 
Q 49.125 28.765625 50.1875 25.828125 
Q 51.265625 22.90625 51.265625 19.1875 
z
M 40.4375 51.609375 
Q 40.4375 54.203125 39.765625 56.34375 
Q 39.109375 58.5 37.59375 60.03125 
Q 36.078125 61.578125 33.640625 62.421875 
Q 31.203125 63.28125 27.640625 63.28125 
Q 24.171875 63.28125 21.78125 62.421875 
Q 19.390625 61.578125 17.84375 60.03125 
Q 16.3125 58.5 15.625 56.34375 
Q 14.9375 54.203125 14.9375 51.609375 
Q 14.9375 49.5625 15.46875 47.40625 
Q 16.015625 45.265625 17.421875 43.5 
Q 18.84375 41.75 21.328125 40.625 
Q 23.828125 39.5 27.734375 39.5 
Q 31.890625 39.5 34.40625 40.625 
Q 36.921875 41.75 38.25 43.5 
Q 39.59375 45.265625 40.015625 47.40625 
Q 40.4375 49.5625 40.4375 51.609375 
z
M 42.140625 20.015625 
Q 42.140625 22.515625 41.453125 24.828125 
Q 40.765625 27.15625 39.109375 28.9375 
Q 37.453125 30.71875 34.640625 31.8125 
Q 31.84375 32.90625 27.640625 32.90625 
Q 23.78125 32.90625 21.0625 31.8125 
Q 18.359375 30.71875 16.671875 28.90625 
Q 14.984375 27.09375 14.203125 24.71875 
Q 13.421875 22.359375 13.421875 19.828125 
Q 13.421875 16.65625 14.203125 14.03125 
Q 14.984375 11.421875 16.6875 9.546875 
Q 18.40625 7.671875 21.1875 6.640625 
Q 23.96875 5.609375 27.9375 5.609375 
Q 31.9375 5.609375 34.671875 6.640625 
Q 37.40625 7.671875 39.0625 9.546875 
Q 40.71875 11.421875 41.421875 14.078125 
Q 42.140625 16.75 42.140625 20.015625 
z
" id="LiberationSans-56"/>
       </defs>
       <use xlink:href="#LiberationSans-56"/>
       <use x="55.615234" xlink:href="#LiberationSans-48"/>
       <use x="111.230469" xlink:href="#LiberationSans-48"/>
      </g>
     </g>
    </g>
    <g id="xtick_6">
     <g id="line2d_6">
      <g>
       <use style="fill:#ffffff;stroke:#ffffff;stroke-width:0.8;" x="398.552217" xlink:href="#m338451bd6b" y="119.740235"/>
      </g>
     </g>
     <g id="text_6">
      <!-- 1000 -->
      <g style="fill:#ffffff;" transform="translate(387.430342 133.98711)scale(0.1 -0.1)">
       <defs>
        <path d="M 7.625 0 
L 7.625 7.46875 
L 25.140625 7.46875 
L 25.140625 60.40625 
L 9.625 49.3125 
L 9.625 57.625 
L 25.875 68.796875 
L 33.984375 68.796875 
L 33.984375 7.46875 
L 50.734375 7.46875 
L 50.734375 0 
z
" id="LiberationSans-49"/>
       </defs>
       <use xlink:href="#LiberationSans-49"/>
       <use x="55.615234" xlink:href="#LiberationSans-48"/>
       <use x="111.230469" xlink:href="#LiberationSans-48"/>
       <use x="166.845703" xlink:href="#LiberationSans-48"/>
      </g>
     </g>
    </g>
   </g>
   <g id="matplotlib.axis_2">
    <g id="ytick_1">
     <g id="line2d_7">
      <defs>
       <path d="M 0 0 
L -3.5 0 
" id="mcd257d403a" style="stroke:#ffffff;stroke-width:0.8;"/>
      </defs>
      <g>
       <use style="fill:#ffffff;stroke:#ffffff;stroke-width:0.8;" x="57.6" xlink:href="#mcd257d403a" y="119.740235"/>
      </g>
     </g>
     <g id="text_7">
      <!-- −1 -->
      <g style="fill:#ffffff;" transform="translate(39.198437 123.363673)scale(0.1 -0.1)">
       <defs>
        <path d="M 4.9375 29.6875 
L 4.9375 36.8125 
L 53.515625 36.8125 
L 53.515625 29.6875 
z
" id="LiberationSans-8722"/>
       </defs>
       <use xlink:href="#LiberationSans-8722"/>
       <use x="58.398438" xlink:href="#LiberationSans-49"/>
      </g>
     </g>
    </g>
    <g id="ytick_2">
     <g id="line2d_8">
      <g>
       <use style="fill:#ffffff;stroke:#ffffff;stroke-width:0.8;" x="57.6" xlink:href="#mcd257d403a" y="80.606118"/>
      </g>
     </g>
     <g id="text_8">
      <!-- 0 -->
      <g style="fill:#ffffff;" transform="translate(45.039062 84.229555)scale(0.1 -0.1)">
       <use xlink:href="#LiberationSans-48"/>
      </g>
     </g>
    </g>
    <g id="ytick_3">
     <g id="line2d_9">
      <g>
       <use style="fill:#ffffff;stroke:#ffffff;stroke-width:0.8;" x="57.6" xlink:href="#mcd257d403a" y="41.472"/>
      </g>
     </g>
     <g id="text_9">
      <!-- 1 -->
      <g style="fill:#ffffff;" transform="translate(45.039062 45.095438)scale(0.1 -0.1)">
       <use xlink:href="#LiberationSans-49"/>
      </g>
     </g>
    </g>
    <g id="text_10">
     <!-- $u$ -->
     <g style="fill:#ffffff;" transform="translate(33.123437 83.806118)rotate(-90)scale(0.1 -0.1)">
      <defs>
       <path d="M 6.6875 21.6875 
L 13.09375 54.6875 
L 22.125 54.6875 
L 15.71875 22.015625 
Q 15.234375 19.625 15.015625 17.921875 
Q 14.796875 16.21875 14.796875 15.09375 
Q 14.796875 10.9375 17.328125 8.65625 
Q 19.875 6.390625 24.515625 6.390625 
Q 31.734375 6.390625 37 11.265625 
Q 42.28125 16.15625 43.890625 24.421875 
L 49.90625 54.6875 
L 58.890625 54.6875 
L 48.296875 0 
L 39.3125 0 
L 41.109375 8.59375 
Q 37.3125 3.8125 32.0625 1.1875 
Q 26.8125 -1.421875 20.90625 -1.421875 
Q 13.71875 -1.421875 9.71875 2.515625 
Q 5.71875 6.453125 5.71875 13.484375 
Q 5.71875 14.9375 5.953125 17.140625 
Q 6.203125 19.34375 6.6875 21.6875 
z
" id="DejaVuSans-Oblique-117"/>
      </defs>
      <use transform="translate(0 0.3125)" xlink:href="#DejaVuSans-Oblique-117"/>
     </g>
    </g>
   </g>
   <g id="line2d_10">
    <path clip-path="url(#p1f7a41fe6c)" d="M 73.832727 65.556704 
L 75.131605 61.885931 
L 76.430483 58.880556 
L 76.625315 58.479377 
L 76.755203 51.574789 
L 77.079922 51.269071 
L 77.144866 83.306994 
L 77.20981 82.928881 
L 78.443744 76.418639 
L 79.677678 71.034936 
L 80.911612 66.582833 
L 81.171388 65.748569 
L 81.236332 97.642417 
L 81.301276 97.121664 
L 82.53521 88.155491 
L 83.769144 80.740833 
L 85.003078 74.609213 
L 86.237012 69.538614 
L 87.470946 65.345436 
L 88.769824 61.71296 
L 89.224431 60.603769 
L 89.289375 92.548809 
L 89.354319 92.078739 
L 90.588253 83.985198 
L 91.822187 77.292171 
L 92.796345 72.836796 
L 92.861289 104.660116 
L 92.926233 104.069536 
L 94.160167 93.901097 
L 95.394101 85.492214 
L 96.628035 78.538411 
L 97.861969 72.7879 
L 99.095904 68.032463 
L 99.160847 67.806334 
L 99.225791 99.679708 
L 99.290735 99.138683 
L 100.524669 89.823484 
L 101.758603 82.120194 
L 102.992537 75.749889 
L 104.226471 70.481906 
L 105.460406 66.1255 
L 106.759283 62.351622 
L 108.058161 59.261832 
L 108.123105 59.122972 
L 108.188049 91.082747 
L 108.252993 90.627264 
L 109.486927 82.784887 
L 110.720861 76.299563 
L 111.954795 70.936464 
L 113.188729 66.501401 
L 114.487607 62.659384 
L 115.786485 59.513806 
L 116.6957 57.657714 
L 116.760644 89.632068 
L 116.825588 89.19102 
L 117.150307 87.050737 
L 117.280195 79.580398 
L 118.514129 73.649581 
L 118.968736 71.733401 
L 119.03368 103.5677 
L 119.098624 102.98799 
L 120.332558 93.006703 
L 121.566492 84.752586 
L 122.800426 77.926769 
L 123.579753 74.238062 
L 123.644697 106.047439 
L 123.709641 105.443055 
L 124.943575 95.036941 
L 126.177509 86.431511 
L 127.411443 79.315171 
L 128.645377 73.430249 
L 129.879311 68.563659 
L 131.113245 64.539188 
L 132.412123 61.05286 
L 133.256394 59.133284 
L 133.321338 91.092956 
L 133.386282 90.637371 
L 134.620216 82.793246 
L 135.85415 76.306475 
L 137.088084 70.94218 
L 138.322018 66.506128 
L 138.906513 64.681485 
L 138.971457 96.585952 
L 139.036401 96.075711 
L 140.270335 87.29053 
L 141.504269 80.025545 
L 142.738203 74.0177 
L 143.972137 69.049457 
L 145.206071 64.940923 
L 145.271015 96.842808 
L 145.335959 96.330011 
L 146.569893 87.500827 
L 147.803827 80.199452 
L 149.037761 74.161513 
L 150.271695 69.168384 
L 151.505629 65.039271 
L 152.804507 61.462293 
L 152.999339 60.984812 
L 153.064283 92.926061 
L 153.129227 92.452236 
L 154.363161 84.294065 
L 155.597095 77.547591 
L 156.831029 71.968533 
L 158.064963 67.354879 
L 159.363841 63.358153 
L 160.662719 60.08591 
L 161.831709 57.65127 
L 161.896653 89.625688 
L 161.961597 89.184703 
L 163.195531 81.591949 
L 164.429465 75.313051 
L 165.663399 70.12066 
L 166.897333 65.826764 
L 168.196211 62.107037 
L 168.910594 60.356976 
L 168.975538 92.304472 
L 169.040482 91.836832 
L 170.274416 83.785151 
L 171.378462 77.769555 
L 171.50835 70.482996 
L 172.742284 66.126401 
L 174.041162 62.35236 
L 174.820488 60.4248 
L 174.885432 92.371622 
L 174.950376 91.903314 
L 176.18431 83.840129 
L 177.418244 77.172204 
L 178.652178 71.658103 
L 179.886112 67.098167 
L 181.18499 63.147974 
L 181.769486 61.612364 
L 181.834429 93.547368 
L 181.899373 93.067362 
L 183.133307 84.802749 
L 184.367241 77.968252 
L 185.601176 72.316402 
L 186.83511 67.642553 
L 187.354661 65.925261 
L 187.419605 97.817352 
L 187.484549 97.294859 
L 188.718483 88.298716 
L 189.952417 80.859274 
L 191.186351 74.707159 
L 192.420285 69.619611 
L 193.654219 65.412417 
L 194.693321 62.439605 
L 194.758265 94.366379 
L 194.823209 93.878223 
L 196.057143 85.473298 
L 197.291077 78.522768 
L 198.525011 72.774964 
L 199.758945 68.021765 
L 200.992879 64.091064 
L 202.291757 60.685967 
L 202.421645 60.381429 
L 202.486589 92.328682 
L 202.551533 91.860802 
L 203.265916 87.011413 
L 203.395804 79.541853 
L 204.629738 73.617706 
L 205.863672 68.718678 
L 206.902774 65.257015 
L 206.967718 97.155755 
L 207.032662 96.639844 
L 208.266596 87.757046 
L 209.50053 80.411334 
L 210.734464 74.336731 
L 211.968398 69.313283 
L 212.423005 67.690263 
L 212.487949 99.564792 
L 212.552893 99.024911 
L 213.786827 89.729399 
L 215.020761 82.04239 
L 216.254695 75.685548 
L 217.488629 70.428699 
L 218.722563 66.0815 
L 220.021441 62.315598 
L 220.281217 61.648654 
L 220.411105 54.68131 
L 220.476049 54.588027 
L 220.540993 86.592925 
L 220.605936 86.182117 
L 221.839871 79.108932 
L 223.073805 73.259698 
L 224.307739 68.42262 
L 225.541673 64.422555 
L 226.840551 60.957368 
L 227.360102 59.754058 
L 227.425046 91.707553 
L 227.48999 91.245853 
L 228.723924 83.296436 
L 229.957858 76.722592 
L 231.191792 71.286292 
L 232.425726 66.790695 
L 233.269997 64.17165 
L 233.33494 96.08119 
L 233.399884 95.575971 
L 234.633818 86.877267 
L 235.867752 79.683793 
L 237.101687 73.735084 
L 238.335621 68.815745 
L 239.569555 64.747653 
L 240.868433 61.223536 
L 241.972479 58.735115 
L 242.037423 90.698748 
L 242.102367 90.247086 
L 243.336301 82.470496 
L 244.570235 76.039574 
L 245.024842 73.961816 
L 245.15473 66.750655 
L 246.063944 63.949128 
L 246.128888 95.860882 
L 246.193832 95.357855 
L 247.427766 86.696894 
L 248.6617 79.534632 
L 249.895634 73.611734 
L 251.129568 68.71374 
L 252.363503 64.663299 
L 253.337661 61.967025 
L 253.402605 93.898501 
L 253.467549 93.415001 
L 254.701483 85.090232 
L 255.935417 78.205989 
L 257.169351 72.513 
L 258.403285 67.805132 
L 259.637219 63.911917 
L 260.741265 61.003207 
L 260.806209 92.944273 
L 260.871153 92.470267 
L 262.105087 84.308976 
L 263.339021 77.559922 
L 264.572955 71.97873 
L 265.806889 67.363312 
L 267.105767 63.365057 
L 268.404645 60.091562 
L 269.703523 57.411451 
L 269.833411 57.171754 
L 269.898355 89.150943 
L 269.963299 88.714682 
L 271.197233 81.20326 
L 272.431167 74.991622 
L 273.665101 69.854851 
L 274.899035 65.606951 
L 275.80825 62.95484 
L 275.873194 94.876487 
L 275.938137 94.383255 
L 277.172072 85.890939 
L 278.406006 78.86814 
L 279.63994 73.060573 
L 280.873874 68.257952 
L 281.523313 66.073815 
L 281.588257 97.964428 
L 281.6532 97.440471 
L 282.887135 88.419131 
L 284.121069 80.958852 
L 285.355003 74.789506 
L 286.588937 69.687709 
L 287.822871 65.468731 
L 289.121749 61.813905 
L 290.420627 58.821587 
L 291.264897 57.174013 
L 291.329841 89.15318 
L 291.394785 88.716897 
L 292.628719 81.205092 
L 293.862653 74.993137 
L 295.096587 69.856103 
L 296.330521 65.607987 
L 297.629399 61.927918 
L 298.668502 59.47031 
L 298.733446 91.426629 
L 298.798389 90.967724 
L 300.032324 83.066434 
L 301.266258 76.532391 
L 302.500192 71.129003 
L 303.734126 66.660623 
L 304.838172 63.322193 
L 304.903116 95.240185 
L 304.96806 94.743335 
L 306.201994 86.18871 
L 307.435928 79.114385 
L 308.669862 73.264207 
L 309.903796 68.426349 
L 310.942898 65.007908 
L 311.007842 96.909127 
L 311.072786 96.39567 
L 312.30672 87.555124 
L 313.540654 80.244353 
L 314.774588 74.198645 
L 316.008522 69.199091 
L 317.242456 65.064664 
L 318.541334 61.483083 
L 319.385605 59.511061 
L 319.450549 91.466974 
L 319.515493 91.007668 
L 320.749427 83.099466 
L 321.983361 76.559707 
L 323.217295 71.151593 
L 324.451229 66.679303 
L 325.750107 62.805038 
L 326.659322 60.518974 
L 326.724266 92.464858 
L 326.789209 91.995623 
L 328.023144 83.916464 
L 329.257078 77.23533 
L 330.491012 71.710306 
L 331.724946 67.141336 
L 333.023824 63.183318 
L 333.153711 62.82933 
L 333.218655 94.752226 
L 333.283599 94.260231 
L 334.517533 85.789203 
L 335.751467 78.784009 
L 336.985401 72.991 
L 338.219336 68.200418 
L 339.45327 64.238802 
L 340.752148 60.806924 
L 340.817091 92.749944 
L 340.882035 92.277872 
L 342.115969 84.149873 
L 343.349903 77.42835 
L 344.583837 71.869925 
L 345.493052 68.399608 
L 345.62294 61.298586 
L 345.687884 61.13946 
L 345.752828 93.079171 
L 345.817772 92.603823 
L 347.051706 84.419421 
L 348.28564 77.651255 
L 349.519574 72.054259 
L 350.753508 67.425771 
L 352.052386 63.416194 
L 353.091488 60.738536 
L 353.156432 92.682235 
L 353.221376 92.210837 
L 354.45531 84.094438 
L 355.689244 77.382507 
L 356.923178 71.832015 
L 358.157112 67.241985 
L 359.45599 63.265723 
L 360.235317 61.234881 
L 360.300261 93.173641 
L 360.365205 92.697354 
L 361.599139 84.496767 
L 362.833073 77.715217 
L 364.067007 72.107153 
L 365.300941 67.469512 
L 365.560717 66.600481 
L 365.690604 59.535084 
L 365.885436 59.11456 
L 365.95038 91.074419 
L 366.015324 90.619019 
L 367.249258 82.778069 
L 368.483192 76.293924 
L 369.717126 70.931801 
L 370.95106 66.497545 
L 372.249938 62.656227 
L 373.548816 59.511221 
L 373.61376 91.467133 
L 373.678704 91.007825 
L 374.912638 83.099596 
L 376.146572 76.559814 
L 377.380506 71.151681 
L 378.61444 66.679377 
L 379.913318 62.805098 
L 380.692645 60.826343 
L 380.757589 92.769169 
L 380.822533 92.296906 
L 382.056467 84.165613 
L 383.290401 77.441366 
L 384.524335 71.880689 
L 385.758269 67.282236 
L 387.057147 63.298678 
L 388.356025 60.037215 
L 389.330183 57.985318 
L 389.395127 89.956413 
L 389.460071 89.512137 
L 390.694005 81.862723 
L 391.927939 75.536971 
L 393.161873 70.305832 
L 394.395807 65.979894 
L 395.694685 62.23241 
L 396.344124 60.621679 
L 396.409068 92.566541 
L 396.474012 92.096294 
L 397.707946 83.999715 
L 398.487273 79.624282 
L 398.487273 79.624282 
" style="fill:none;stroke:#9a72ac;stroke-linecap:round;stroke-width:1.5;"/>
   </g>
   <g id="patch_3">
    <path d="M 57.6 119.740235 
L 57.6 41.472 
" style="fill:none;stroke:#ffffff;stroke-linecap:square;stroke-linejoin:miter;stroke-width:0.8;"/>
   </g>
   <g id="patch_4">
    <path d="M 414.72 119.740235 
L 414.72 41.472 
" style="fill:none;stroke:#ffffff;stroke-linecap:square;stroke-linejoin:miter;stroke-width:0.8;"/>
   </g>
   <g id="patch_5">
    <path d="M 57.6 119.740235 
L 414.72 119.740235 
" style="fill:none;stroke:#ffffff;stroke-linecap:square;stroke-linejoin:miter;stroke-width:0.8;"/>
   </g>
   <g id="patch_6">
    <path d="M 57.6 41.472 
L 414.72 41.472 
" style="fill:none;stroke:#ffffff;stroke-linecap:square;stroke-linejoin:miter;stroke-width:0.8;"/>
   </g>
  </g>
  <g id="axes_2">
   <g id="patch_7">
    <path d="M 57.6 213.662118 
L 414.72 213.662118 
L 414.72 135.393882 
L 57.6 135.393882 
z
" style="fill:#1a1a1a;"/>
   </g>
   <g id="matplotlib.axis_3">
    <g id="xtick_7">
     <g id="line2d_11">
      <g>
       <use style="fill:#ffffff;stroke:#ffffff;stroke-width:0.8;" x="73.832727" xlink:href="#m338451bd6b" y="213.662118"/>
      </g>
     </g>
     <g id="text_11">
      <!-- 0 -->
      <g style="fill:#ffffff;" transform="translate(71.052259 227.908993)scale(0.1 -0.1)">
       <use xlink:href="#LiberationSans-48"/>
      </g>
     </g>
    </g>
    <g id="xtick_8">
     <g id="line2d_12">
      <g>
       <use style="fill:#ffffff;stroke:#ffffff;stroke-width:0.8;" x="138.776625" xlink:href="#m338451bd6b" y="213.662118"/>
      </g>
     </g>
     <g id="text_12">
      <!-- 200 -->
      <g style="fill:#ffffff;" transform="translate(130.435219 227.908993)scale(0.1 -0.1)">
       <use xlink:href="#LiberationSans-50"/>
       <use x="55.615234" xlink:href="#LiberationSans-48"/>
       <use x="111.230469" xlink:href="#LiberationSans-48"/>
      </g>
     </g>
    </g>
    <g id="xtick_9">
     <g id="line2d_13">
      <g>
       <use style="fill:#ffffff;stroke:#ffffff;stroke-width:0.8;" x="203.720523" xlink:href="#m338451bd6b" y="213.662118"/>
      </g>
     </g>
     <g id="text_13">
      <!-- 400 -->
      <g style="fill:#ffffff;" transform="translate(195.379117 227.908993)scale(0.1 -0.1)">
       <use xlink:href="#LiberationSans-52"/>
       <use x="55.615234" xlink:href="#LiberationSans-48"/>
       <use x="111.230469" xlink:href="#LiberationSans-48"/>
      </g>
     </g>
    </g>
    <g id="xtick_10">
     <g id="line2d_14">
      <g>
       <use style="fill:#ffffff;stroke:#ffffff;stroke-width:0.8;" x="268.664421" xlink:href="#m338451bd6b" y="213.662118"/>
      </g>
     </g>
     <g id="text_14">
      <!-- 600 -->
      <g style="fill:#ffffff;" transform="translate(260.323015 227.908993)scale(0.1 -0.1)">
       <use xlink:href="#LiberationSans-54"/>
       <use x="55.615234" xlink:href="#LiberationSans-48"/>
       <use x="111.230469" xlink:href="#LiberationSans-48"/>
      </g>
     </g>
    </g>
    <g id="xtick_11">
     <g id="line2d_15">
      <g>
       <use style="fill:#ffffff;stroke:#ffffff;stroke-width:0.8;" x="333.608319" xlink:href="#m338451bd6b" y="213.662118"/>
      </g>
     </g>
     <g id="text_15">
      <!-- 800 -->
      <g style="fill:#ffffff;" transform="translate(325.266913 227.908993)scale(0.1 -0.1)">
       <use xlink:href="#LiberationSans-56"/>
       <use x="55.615234" xlink:href="#LiberationSans-48"/>
       <use x="111.230469" xlink:href="#LiberationSans-48"/>
      </g>
     </g>
    </g>
    <g id="xtick_12">
     <g id="line2d_16">
      <g>
       <use style="fill:#ffffff;stroke:#ffffff;stroke-width:0.8;" x="398.552217" xlink:href="#m338451bd6b" y="213.662118"/>
      </g>
     </g>
     <g id="text_16">
      <!-- 1000 -->
      <g style="fill:#ffffff;" transform="translate(387.430342 227.908993)scale(0.1 -0.1)">
       <use xlink:href="#LiberationSans-49"/>
       <use x="55.615234" xlink:href="#LiberationSans-48"/>
       <use x="111.230469" xlink:href="#LiberationSans-48"/>
       <use x="166.845703" xlink:href="#LiberationSans-48"/>
      </g>
     </g>
    </g>
    <g id="text_17">
     <!-- $t$ (ms) -->
     <g style="fill:#ffffff;" transform="translate(222.81 241.283993)scale(0.1 -0.1)">
      <defs>
       <path d="M 42.28125 54.6875 
L 40.921875 47.703125 
L 23 47.703125 
L 17.1875 18.015625 
Q 16.890625 16.359375 16.75 15.234375 
Q 16.609375 14.109375 16.609375 13.484375 
Q 16.609375 10.359375 18.484375 8.9375 
Q 20.359375 7.515625 24.515625 7.515625 
L 33.59375 7.515625 
L 32.078125 0 
L 23.484375 0 
Q 15.484375 0 11.546875 3.125 
Q 7.625 6.25 7.625 12.59375 
Q 7.625 13.71875 7.765625 15.0625 
Q 7.90625 16.40625 8.203125 18.015625 
L 14.015625 47.703125 
L 6.390625 47.703125 
L 7.8125 54.6875 
L 15.28125 54.6875 
L 18.3125 70.21875 
L 27.296875 70.21875 
L 24.3125 54.6875 
z
" id="DejaVuSans-Oblique-116"/>
       <path id="LiberationSans-32"/>
       <path d="M 6.203125 25.984375 
Q 6.203125 32.765625 7.21875 38.96875 
Q 8.25 45.171875 10.4375 50.875 
Q 12.640625 56.59375 16.0625 61.953125 
Q 19.484375 67.328125 24.21875 72.46875 
L 32.71875 72.46875 
Q 28.125 67.328125 24.78125 61.9375 
Q 21.4375 56.546875 19.28125 50.796875 
Q 17.140625 45.0625 16.09375 38.859375 
Q 15.046875 32.671875 15.046875 25.875 
Q 15.046875 19.09375 16.09375 12.890625 
Q 17.140625 6.6875 19.28125 0.921875 
Q 21.4375 -4.828125 24.78125 -10.203125 
Q 28.125 -15.578125 32.71875 -20.703125 
L 24.21875 -20.703125 
Q 19.484375 -15.578125 16.0625 -10.203125 
Q 12.640625 -4.828125 10.4375 0.875 
Q 8.25 6.59375 7.21875 12.765625 
Q 6.203125 18.953125 6.203125 25.78125 
z
" id="LiberationSans-40"/>
       <path d="M 37.5 0 
L 37.5 33.5 
Q 37.5 37.359375 37.015625 39.9375 
Q 36.53125 42.53125 35.375 44.109375 
Q 34.234375 45.703125 32.375 46.359375 
Q 30.515625 47.015625 27.828125 47.015625 
Q 25.046875 47.015625 22.796875 45.921875 
Q 20.5625 44.828125 18.96875 42.75 
Q 17.390625 40.671875 16.53125 37.625 
Q 15.671875 34.578125 15.671875 30.609375 
L 15.671875 0 
L 6.9375 0 
L 6.9375 41.546875 
Q 6.9375 43.21875 6.90625 45.046875 
Q 6.890625 46.875 6.828125 48.5 
Q 6.78125 50.140625 6.734375 51.3125 
Q 6.6875 52.484375 6.640625 52.828125 
L 14.9375 52.828125 
Q 14.984375 52.59375 15.03125 51.515625 
Q 15.09375 50.4375 15.15625 49.046875 
Q 15.234375 47.65625 15.28125 46.21875 
Q 15.328125 44.78125 15.328125 43.796875 
L 15.484375 43.796875 
Q 16.65625 46.09375 18.015625 47.953125 
Q 19.390625 49.8125 21.21875 51.09375 
Q 23.046875 52.390625 25.40625 53.09375 
Q 27.78125 53.8125 30.90625 53.8125 
Q 36.921875 53.8125 40.40625 51.421875 
Q 43.890625 49.03125 45.265625 43.796875 
L 45.40625 43.796875 
Q 46.578125 46.09375 48.046875 47.953125 
Q 49.515625 49.8125 51.46875 51.09375 
Q 53.421875 52.390625 55.859375 53.09375 
Q 58.296875 53.8125 61.421875 53.8125 
Q 65.4375 53.8125 68.328125 52.734375 
Q 71.234375 51.65625 73.09375 49.40625 
Q 74.953125 47.171875 75.828125 43.625 
Q 76.703125 40.09375 76.703125 35.203125 
L 76.703125 0 
L 68.015625 0 
L 68.015625 33.5 
Q 68.015625 37.359375 67.53125 39.9375 
Q 67.046875 42.53125 65.890625 44.109375 
Q 64.75 45.703125 62.890625 46.359375 
Q 61.03125 47.015625 58.34375 47.015625 
Q 55.5625 47.015625 53.3125 45.96875 
Q 51.078125 44.921875 49.484375 42.875 
Q 47.90625 40.828125 47.046875 37.75 
Q 46.1875 34.671875 46.1875 30.609375 
L 46.1875 0 
z
" id="LiberationSans-109"/>
       <path d="M 46.390625 14.59375 
Q 46.390625 10.890625 44.9375 7.984375 
Q 43.5 5.078125 40.765625 3.09375 
Q 38.03125 1.125 34.046875 0.0625 
Q 30.078125 -0.984375 24.953125 -0.984375 
Q 20.359375 -0.984375 16.671875 -0.265625 
Q 12.984375 0.4375 10.203125 2 
Q 7.421875 3.5625 5.53125 6.125 
Q 3.65625 8.6875 2.78125 12.40625 
L 10.546875 13.921875 
Q 11.671875 9.671875 15.1875 7.6875 
Q 18.703125 5.71875 24.953125 5.71875 
Q 27.78125 5.71875 30.140625 6.109375 
Q 32.515625 6.5 34.21875 7.453125 
Q 35.9375 8.40625 36.890625 9.984375 
Q 37.84375 11.578125 37.84375 13.921875 
Q 37.84375 16.3125 36.71875 17.84375 
Q 35.59375 19.390625 33.59375 20.40625 
Q 31.59375 21.4375 28.734375 22.1875 
Q 25.875 22.953125 22.46875 23.875 
Q 19.28125 24.703125 16.15625 25.734375 
Q 13.03125 26.765625 10.515625 28.4375 
Q 8.015625 30.125 6.453125 32.609375 
Q 4.890625 35.109375 4.890625 38.875 
Q 4.890625 46.09375 10.03125 49.875 
Q 15.1875 53.65625 25.046875 53.65625 
Q 33.796875 53.65625 38.9375 50.578125 
Q 44.09375 47.515625 45.453125 40.71875 
L 37.546875 39.75 
Q 37.109375 41.796875 35.9375 43.1875 
Q 34.765625 44.578125 33.109375 45.4375 
Q 31.453125 46.296875 29.375 46.65625 
Q 27.296875 47.015625 25.046875 47.015625 
Q 19.09375 47.015625 16.25 45.203125 
Q 13.421875 43.40625 13.421875 39.75 
Q 13.421875 37.59375 14.46875 36.203125 
Q 15.53125 34.8125 17.40625 33.859375 
Q 19.28125 32.90625 21.921875 32.203125 
Q 24.5625 31.5 27.734375 30.71875 
Q 29.828125 30.171875 32.03125 29.5625 
Q 34.234375 28.953125 36.296875 28.09375 
Q 38.375 27.25 40.203125 26.09375 
Q 42.046875 24.953125 43.40625 23.34375 
Q 44.78125 21.734375 45.578125 19.578125 
Q 46.390625 17.4375 46.390625 14.59375 
z
" id="LiberationSans-115"/>
       <path d="M 27.09375 25.78125 
Q 27.09375 18.953125 26.0625 12.765625 
Q 25.046875 6.59375 22.84375 0.875 
Q 20.65625 -4.828125 17.234375 -10.203125 
Q 13.8125 -15.578125 9.078125 -20.703125 
L 0.59375 -20.703125 
Q 5.171875 -15.578125 8.515625 -10.203125 
Q 11.859375 -4.828125 14 0.921875 
Q 16.15625 6.6875 17.203125 12.890625 
Q 18.265625 19.09375 18.265625 25.875 
Q 18.265625 32.671875 17.203125 38.859375 
Q 16.15625 45.0625 14 50.796875 
Q 11.859375 56.546875 8.515625 61.9375 
Q 5.171875 67.328125 0.59375 72.46875 
L 9.078125 72.46875 
Q 13.8125 67.328125 17.234375 61.953125 
Q 20.65625 56.59375 22.84375 50.875 
Q 25.046875 45.171875 26.0625 38.96875 
Q 27.09375 32.765625 27.09375 25.984375 
z
" id="LiberationSans-41"/>
      </defs>
      <use transform="translate(0 0.53125)" xlink:href="#DejaVuSans-Oblique-116"/>
      <use transform="translate(39.208984 0.53125)" xlink:href="#LiberationSans-32"/>
      <use transform="translate(66.992188 0.53125)" xlink:href="#LiberationSans-40"/>
      <use transform="translate(100.292969 0.53125)" xlink:href="#LiberationSans-109"/>
      <use transform="translate(183.59375 0.53125)" xlink:href="#LiberationSans-115"/>
      <use transform="translate(233.59375 0.53125)" xlink:href="#LiberationSans-41"/>
     </g>
    </g>
   </g>
   <g id="matplotlib.axis_4">
    <g id="ytick_4">
     <g id="line2d_17">
      <g>
       <use style="fill:#ffffff;stroke:#ffffff;stroke-width:0.8;" x="57.6" xlink:href="#mcd257d403a" y="213.662118"/>
      </g>
     </g>
     <g id="text_18">
      <!-- −1 -->
      <g style="fill:#ffffff;" transform="translate(39.198437 217.285555)scale(0.1 -0.1)">
       <use xlink:href="#LiberationSans-8722"/>
       <use x="58.398438" xlink:href="#LiberationSans-49"/>
      </g>
     </g>
    </g>
    <g id="ytick_5">
     <g id="line2d_18">
      <g>
       <use style="fill:#ffffff;stroke:#ffffff;stroke-width:0.8;" x="57.6" xlink:href="#mcd257d403a" y="174.528"/>
      </g>
     </g>
     <g id="text_19">
      <!-- 0 -->
      <g style="fill:#ffffff;" transform="translate(45.039062 178.151437)scale(0.1 -0.1)">
       <use xlink:href="#LiberationSans-48"/>
      </g>
     </g>
    </g>
    <g id="ytick_6">
     <g id="line2d_19">
      <g>
       <use style="fill:#ffffff;stroke:#ffffff;stroke-width:0.8;" x="57.6" xlink:href="#mcd257d403a" y="135.393882"/>
      </g>
     </g>
     <g id="text_20">
      <!-- 1 -->
      <g style="fill:#ffffff;" transform="translate(45.039062 139.01732)scale(0.1 -0.1)">
       <use xlink:href="#LiberationSans-49"/>
      </g>
     </g>
    </g>
    <g id="text_21">
     <!-- $u$ -->
     <g style="fill:#ffffff;" transform="translate(33.123437 177.728)rotate(-90)scale(0.1 -0.1)">
      <use transform="translate(0 0.3125)" xlink:href="#DejaVuSans-Oblique-117"/>
     </g>
    </g>
   </g>
   <g id="line2d_20">
    <path clip-path="url(#p55f613ac92)" d="M 73.832727 175.853635 
L 75.7161 176.660478 
L 76.625315 176.973792 
L 76.690259 204.4 
L 76.755203 204.14785 
L 77.079922 202.92424 
L 77.20981 195.807927 
L 78.508688 192.771816 
L 79.807566 190.286058 
L 81.171388 188.159428 
L 81.301276 181.335478 
L 83.509368 180.679256 
L 86.107124 180.145006 
L 89.224431 179.730905 
L 89.289375 173.013702 
L 89.354319 173.073851 
L 90.848029 174.303546 
L 92.471626 175.355392 
L 92.796345 175.536006 
L 92.861289 168.860543 
L 92.926233 168.962017 
L 94.290055 170.874496 
L 95.718821 172.490732 
L 97.212531 173.840237 
L 98.771184 174.953721 
L 99.160847 175.192779 
L 99.225791 168.520732 
L 99.290735 168.625587 
L 100.654557 170.601791 
L 102.083323 172.27188 
L 103.577032 173.666353 
L 105.135686 174.816939 
L 106.824227 175.788094 
L 108.123105 176.380962 
L 108.188049 169.697092 
L 108.252993 169.790242 
L 109.616815 171.545842 
L 111.045581 173.029499 
L 112.53929 174.268306 
L 114.162888 175.327948 
L 115.916373 176.210731 
L 116.6957 176.532783 
L 116.760644 169.847402 
L 116.825588 169.939056 
L 117.150307 170.383828 
L 117.215251 197.875608 
L 117.280195 197.688377 
L 118.579073 194.311397 
L 118.968736 193.423152 
L 119.098624 186.494974 
L 120.52739 185.026458 
L 122.021099 183.800294 
L 123.579753 182.788579 
L 123.644697 176.040952 
L 123.709641 176.070979 
L 125.657958 176.845354 
L 127.930994 177.498994 
L 130.593694 178.023616 
L 133.256394 178.371781 
L 133.321338 171.668102 
L 133.386282 171.74164 
L 134.815047 173.18663 
L 136.373701 174.439576 
L 137.997298 175.461332 
L 138.906513 175.931305 
L 138.971457 169.251908 
L 139.036401 169.349488 
L 140.400223 171.188574 
L 141.828988 172.742785 
L 143.322698 174.040502 
L 144.946295 175.150534 
L 145.206071 175.303777 
L 145.271015 168.630624 
L 145.335959 168.734386 
L 146.699781 170.689982 
L 148.128546 172.342655 
L 149.622256 173.722586 
L 151.18091 174.861173 
L 152.869451 175.822201 
L 152.999339 175.886289 
L 153.064283 169.20734 
L 153.129227 169.305363 
L 154.493048 171.152807 
L 155.921814 172.714081 
L 157.415524 174.017696 
L 159.039121 175.132772 
L 160.792607 176.061738 
L 161.831709 176.504864 
L 161.896653 169.81976 
L 161.961597 169.91169 
L 163.325419 171.644286 
L 164.754184 173.108502 
L 166.247894 174.331077 
L 167.871491 175.376833 
L 168.910594 175.921227 
L 168.975538 169.241931 
L 169.040482 169.33961 
L 170.404303 171.180567 
L 171.378462 172.277934 
L 171.443406 199.750867 
L 171.50835 199.544977 
L 172.807228 195.831453 
L 174.106106 192.791077 
L 174.820488 191.360636 
L 174.950376 184.473299 
L 176.50903 183.317984 
L 178.197571 182.342838 
L 180.080944 181.516112 
L 181.769486 180.953501 
L 181.834429 174.224133 
L 181.899373 174.272238 
L 183.522971 175.33101 
L 185.276456 176.213068 
L 187.289717 176.971592 
L 187.354661 176.992359 
L 187.419605 170.302405 
L 187.484549 170.389532 
L 188.84837 172.031618 
L 190.277136 173.419343 
L 191.83579 174.622634 
L 193.524331 175.638275 
L 194.693321 176.201728 
L 194.758265 169.519641 
L 194.823209 169.614557 
L 196.187031 171.403435 
L 197.615797 172.915214 
L 199.109506 174.177503 
L 200.733104 175.25723 
L 202.421645 176.127581 
L 202.486589 169.446231 
L 202.551533 169.541878 
L 203.265916 170.53321 
L 203.33086 198.023503 
L 203.395804 197.834801 
L 204.694681 194.431279 
L 205.993559 191.644711 
L 206.902774 190.000458 
L 207.032662 183.140054 
L 208.786147 182.174332 
L 210.734464 181.366829 
L 212.423005 180.838396 
L 212.487949 174.110174 
L 212.552893 174.159413 
L 214.176491 175.243141 
L 215.929976 176.145991 
L 217.878293 176.900924 
L 220.151329 177.538154 
L 220.281217 177.568264 
L 220.346161 204.988557 
L 220.411105 204.730551 
L 220.476049 204.475112 
L 220.605936 197.32809 
L 221.904814 194.01642 
L 223.203692 191.305053 
L 224.50257 189.085174 
L 225.866392 187.18601 
L 227.295158 185.581028 
L 227.360102 185.51613 
L 227.425046 178.741363 
L 227.48999 178.744521 
L 233.269997 178.929707 
L 233.33494 172.220476 
L 233.399884 172.288518 
L 234.893594 173.679572 
L 236.452248 174.827337 
L 238.140789 175.796111 
L 240.024162 176.617435 
L 241.972479 177.250178 
L 242.037423 170.557659 
L 242.102367 170.642246 
L 243.531132 172.304346 
L 245.024842 173.692148 
L 245.089786 201.151009 
L 245.15473 200.931187 
L 246.063944 198.073733 
L 246.193832 191.053467 
L 247.49271 188.879192 
L 248.856532 187.019045 
L 250.285298 185.447035 
L 251.779007 184.134456 
L 253.337661 183.051441 
L 253.402605 176.301198 
L 253.467549 176.328636 
L 255.48081 177.056355 
L 257.81879 177.661724 
L 260.611378 178.14997 
L 260.741265 178.167965 
L 260.806209 171.466314 
L 260.871153 171.54186 
L 262.299919 173.026303 
L 263.793629 174.265767 
L 265.417226 175.32597 
L 267.170711 176.209221 
L 269.183972 176.96877 
L 269.833411 177.167657 
L 269.898355 170.475959 
L 269.963299 170.561359 
L 271.392065 172.239433 
L 272.885774 173.640572 
L 274.444428 174.796659 
L 275.80825 175.603965 
L 275.873194 168.927826 
L 275.938137 169.028631 
L 277.301959 170.928492 
L 278.730725 172.534064 
L 280.224435 173.874667 
L 281.523313 174.814381 
L 281.588257 168.146098 
L 281.6532 168.25468 
L 283.017022 170.30114 
L 284.380844 171.959969 
L 285.80961 173.361843 
L 287.368263 174.577403 
L 289.056805 175.603399 
L 290.875234 176.447251 
L 291.264897 176.599332 
L 291.329841 169.913289 
L 291.394785 170.004288 
L 292.758607 171.719345 
L 294.187373 173.168738 
L 295.681082 174.378936 
L 297.30468 175.414106 
L 298.668502 176.104458 
L 298.733446 169.423339 
L 298.798389 169.519213 
L 300.162211 171.32615 
L 301.590977 172.853192 
L 303.084687 174.128225 
L 304.708284 175.218852 
L 304.838172 175.294887 
L 304.903116 168.621823 
L 304.96806 168.725672 
L 306.331882 170.682919 
L 307.760647 172.336987 
L 309.254357 173.718082 
L 310.813011 174.857631 
L 310.942898 174.940818 
L 311.007842 168.271278 
L 311.072786 168.378615 
L 312.436608 170.401599 
L 313.80043 172.041399 
L 315.229196 173.427193 
L 316.787849 174.628809 
L 318.476391 175.643036 
L 319.385605 176.08927 
L 319.450549 169.408302 
L 319.515493 169.504325 
L 320.879315 171.314083 
L 322.308081 172.843508 
L 323.80179 174.12053 
L 325.425388 175.212859 
L 326.659322 175.878355 
L 326.724266 169.199485 
L 326.789209 169.297586 
L 328.153031 171.146504 
L 329.581797 172.709022 
L 331.075507 174.013677 
L 332.699104 175.129642 
L 333.153711 175.395274 
L 333.218655 168.721211 
L 333.283599 168.824071 
L 334.647421 170.762679 
L 336.076187 172.400996 
L 337.569897 173.76894 
L 339.12855 174.897637 
L 340.752148 175.81807 
L 340.817091 169.139801 
L 340.882035 169.238496 
L 342.245857 171.098606 
L 343.674623 172.670584 
L 345.168333 173.983136 
L 345.493052 174.230676 
L 345.557996 201.684179 
L 345.62294 201.459052 
L 345.687884 201.236165 
L 345.817772 194.153279 
L 347.11665 191.417104 
L 348.415527 189.176913 
L 349.779349 187.260373 
L 351.208115 185.640705 
L 352.701825 184.288334 
L 353.091488 183.983786 
L 353.156432 177.224266 
L 353.221376 177.24252 
L 355.689244 177.816698 
L 358.676663 178.274661 
L 360.235317 178.441963 
L 360.300261 171.737585 
L 360.365205 171.810432 
L 361.79397 173.241837 
L 363.352624 174.483003 
L 364.976221 175.495153 
L 365.560717 175.801868 
L 365.62566 203.239737 
L 365.690604 202.999132 
L 365.885436 202.291586 
L 366.015324 195.187801 
L 367.314202 192.264099 
L 368.61308 189.870374 
L 369.976902 187.822481 
L 371.340723 186.162492 
L 372.769489 184.759635 
L 373.548816 184.114981 
L 373.61376 177.354156 
L 373.678704 177.371116 
L 376.211516 177.916124 
L 379.328823 178.35171 
L 380.692645 178.485634 
L 380.757589 171.780821 
L 380.822533 171.853238 
L 382.251298 173.27619 
L 383.809952 174.510026 
L 385.498493 175.551448 
L 387.316922 176.407987 
L 389.330183 177.114554 
L 389.395127 170.423384 
L 389.460071 170.509308 
L 390.823893 172.128706 
L 392.252659 173.497258 
L 393.811312 174.683924 
L 395.499853 175.685532 
L 396.344124 176.096742 
L 396.409068 169.4157 
L 396.474012 169.51165 
L 397.837834 171.32002 
L 398.487273 172.056457 
L 398.487273 172.056457 
" style="fill:none;stroke:#9a72ac;stroke-linecap:round;stroke-width:1.5;"/>
   </g>
   <g id="patch_8">
    <path d="M 57.6 213.662118 
L 57.6 135.393882 
" style="fill:none;stroke:#ffffff;stroke-linecap:square;stroke-linejoin:miter;stroke-width:0.8;"/>
   </g>
   <g id="patch_9">
    <path d="M 414.72 213.662118 
L 414.72 135.393882 
" style="fill:none;stroke:#ffffff;stroke-linecap:square;stroke-linejoin:miter;stroke-width:0.8;"/>
   </g>
   <g id="patch_10">
    <path d="M 57.6 213.662118 
L 414.72 213.662118 
" style="fill:none;stroke:#ffffff;stroke-linecap:square;stroke-linejoin:miter;stroke-width:0.8;"/>
   </g>
   <g id="patch_11">
    <path d="M 57.6 135.393882 
L 414.72 135.393882 
" style="fill:none;stroke:#ffffff;stroke-linecap:square;stroke-linejoin:miter;stroke-width:0.8;"/>
   </g>
  </g>
  <g id="text_22">
   <!-- M2 - $u$ -->
   <g style="fill:#ffffff;" transform="translate(212.88 15.60825)scale(0.12 -0.12)">
    <defs>
     <path d="M 66.703125 0 
L 66.703125 45.90625 
Q 66.703125 48.390625 66.75 50.96875 
Q 66.796875 53.5625 66.890625 55.71875 
Q 67 58.203125 67.140625 60.546875 
Q 66.453125 58.0625 65.71875 55.609375 
Q 65.09375 53.515625 64.328125 51.140625 
Q 63.578125 48.78125 62.84375 46.875 
L 45.0625 0 
L 38.53125 0 
L 20.515625 46.875 
Q 20.21875 47.609375 19.890625 48.578125 
Q 19.578125 49.5625 19.203125 50.65625 
Q 18.84375 51.765625 18.46875 52.90625 
Q 18.109375 54.046875 17.78125 55.171875 
Q 16.9375 57.765625 16.15625 60.546875 
Q 16.21875 57.8125 16.3125 55.125 
Q 16.40625 52.828125 16.453125 50.3125 
Q 16.5 47.796875 16.5 45.90625 
L 16.5 0 
L 8.203125 0 
L 8.203125 68.796875 
L 20.453125 68.796875 
L 38.765625 21.09375 
Q 39.109375 20.125 39.59375 18.578125 
Q 40.09375 17.046875 40.53125 15.421875 
Q 40.96875 13.8125 41.328125 12.375 
Q 41.703125 10.9375 41.84375 10.15625 
Q 42 10.9375 42.390625 12.40625 
Q 42.78125 13.875 43.28125 15.484375 
Q 43.796875 17.09375 44.28125 18.609375 
Q 44.78125 20.125 45.171875 21.09375 
L 63.140625 68.796875 
L 75.09375 68.796875 
L 75.09375 0 
z
" id="LiberationSans-77"/>
     <path d="M 4.4375 22.65625 
L 4.4375 30.46875 
L 28.859375 30.46875 
L 28.859375 22.65625 
z
" id="LiberationSans-45"/>
    </defs>
    <use transform="translate(0 0.171875)" xlink:href="#LiberationSans-77"/>
    <use transform="translate(83.300781 0.171875)" xlink:href="#LiberationSans-50"/>
    <use transform="translate(138.916016 0.171875)" xlink:href="#LiberationSans-32"/>
    <use transform="translate(166.699219 0.171875)" xlink:href="#LiberationSans-45"/>
    <use transform="translate(200 0.171875)" xlink:href="#LiberationSans-32"/>
    <use transform="translate(227.783203 0.171875)" xlink:href="#DejaVuSans-Oblique-117"/>
   </g>
  </g>
 </g>
 <defs>
  <clipPath id="p1f7a41fe6c">
   <rect height="78.268235" width="357.12" x="57.6" y="41.472"/>
  </clipPath>
  <clipPath id="p55f613ac92">
   <rect height="78.268235" width="357.12" x="57.6" y="135.393882"/>
  </clipPath>
 </defs>
</svg>
