<?xml version="1.0" encoding="utf-8" standalone="no"?>
<!DOCTYPE svg PUBLIC "-//W3C//DTD SVG 1.1//EN"
  "http://www.w3.org/Graphics/SVG/1.1/DTD/svg11.dtd">
<!-- Created with matplotlib (https://matplotlib.org/) -->
<svg height="345.6pt" version="1.1" viewBox="0 0 460.8 345.6" width="460.8pt" xmlns="http://www.w3.org/2000/svg" xmlns:xlink="http://www.w3.org/1999/xlink">
 <metadata>
  <rdf:RDF xmlns:cc="http://creativecommons.org/ns#" xmlns:dc="http://purl.org/dc/elements/1.1/" xmlns:rdf="http://www.w3.org/1999/02/22-rdf-syntax-ns#">
   <cc:Work>
    <dc:type rdf:resource="http://purl.org/dc/dcmitype/StillImage"/>
    <dc:date>2022-05-06T11:31:06.970559</dc:date>
    <dc:format>image/svg+xml</dc:format>
    <dc:creator>
     <cc:Agent>
      <dc:title>Matplotlib v3.3.4, https://matplotlib.org/</dc:title>
     </cc:Agent>
    </dc:creator>
   </cc:Work>
  </rdf:RDF>
 </metadata>
 <defs>
  <style type="text/css">*{stroke-linecap:butt;stroke-linejoin:round;}</style>
 </defs>
 <g id="figure_1">
  <g id="patch_1">
   <path d="M 0 345.6 
L 460.8 345.6 
L 460.8 0 
L 0 0 
z
" style="fill:#262626;"/>
  </g>
  <g id="axes_1">
   <g id="patch_2">
    <path d="M 57.6 307.584 
L 414.72 307.584 
L 414.72 41.472 
L 57.6 41.472 
z
" style="fill:#1a1a1a;"/>
   </g>
   <g id="matplotlib.axis_1">
    <g id="xtick_1">
     <g id="line2d_1">
      <defs>
       <path d="M 0 0 
L 0 3.5 
" id="m77b7429afd" style="stroke:#ffffff;stroke-width:0.8;"/>
      </defs>
      <g>
       <use style="fill:#ffffff;stroke:#ffffff;stroke-width:0.8;" x="73.020685" xlink:href="#m77b7429afd" y="307.584"/>
      </g>
     </g>
     <g id="text_1">
      <!-- 0 -->
      <g style="fill:#ffffff;" transform="translate(70.240216 321.830875)scale(0.1 -0.1)">
       <defs>
        <path d="M 51.703125 34.421875 
Q 51.703125 24.515625 49.828125 17.75 
Q 47.953125 10.984375 44.703125 6.8125 
Q 41.453125 2.640625 37.0625 0.828125 
Q 32.671875 -0.984375 27.6875 -0.984375 
Q 22.65625 -0.984375 18.3125 0.828125 
Q 13.96875 2.640625 10.765625 6.78125 
Q 7.5625 10.9375 5.734375 17.703125 
Q 3.90625 24.46875 3.90625 34.421875 
Q 3.90625 44.828125 5.734375 51.640625 
Q 7.5625 58.453125 10.78125 62.5 
Q 14.015625 66.546875 18.40625 68.1875 
Q 22.796875 69.828125 27.984375 69.828125 
Q 32.90625 69.828125 37.21875 68.1875 
Q 41.546875 66.546875 44.765625 62.5 
Q 48 58.453125 49.84375 51.640625 
Q 51.703125 44.828125 51.703125 34.421875 
z
M 42.78125 34.421875 
Q 42.78125 42.625 41.796875 48.0625 
Q 40.828125 53.515625 38.921875 56.765625 
Q 37.015625 60.015625 34.25 61.359375 
Q 31.5 62.703125 27.984375 62.703125 
Q 24.265625 62.703125 21.4375 61.328125 
Q 18.609375 59.96875 16.671875 56.71875 
Q 14.75 53.46875 13.765625 48.015625 
Q 12.796875 42.578125 12.796875 34.421875 
Q 12.796875 26.515625 13.796875 21.09375 
Q 14.796875 15.671875 16.71875 12.375 
Q 18.65625 9.078125 21.4375 7.640625 
Q 24.21875 6.203125 27.78125 6.203125 
Q 31.25 6.203125 34.03125 7.640625 
Q 36.8125 9.078125 38.734375 12.375 
Q 40.671875 15.671875 41.71875 21.09375 
Q 42.78125 26.515625 42.78125 34.421875 
z
" id="LiberationSans-48"/>
       </defs>
       <use xlink:href="#LiberationSans-48"/>
      </g>
     </g>
    </g>
    <g id="xtick_2">
     <g id="line2d_2">
      <g>
       <use style="fill:#ffffff;stroke:#ffffff;stroke-width:0.8;" x="113.622804" xlink:href="#m77b7429afd" y="307.584"/>
      </g>
     </g>
     <g id="text_2">
      <!-- 50 -->
      <g style="fill:#ffffff;" transform="translate(108.061867 321.830875)scale(0.1 -0.1)">
       <defs>
        <path d="M 51.421875 22.40625 
Q 51.421875 17.234375 49.859375 12.9375 
Q 48.296875 8.640625 45.21875 5.53125 
Q 42.140625 2.4375 37.578125 0.71875 
Q 33.015625 -0.984375 27 -0.984375 
Q 21.578125 -0.984375 17.546875 0.28125 
Q 13.53125 1.5625 10.734375 3.78125 
Q 7.953125 6 6.3125 8.984375 
Q 4.6875 11.96875 4 15.375 
L 12.890625 16.40625 
Q 13.421875 14.453125 14.390625 12.625 
Q 15.375 10.796875 17.0625 9.34375 
Q 18.75 7.90625 21.21875 7.046875 
Q 23.6875 6.203125 27.203125 6.203125 
Q 30.609375 6.203125 33.390625 7.25 
Q 36.1875 8.296875 38.15625 10.34375 
Q 40.140625 12.40625 41.203125 15.375 
Q 42.28125 18.359375 42.28125 22.21875 
Q 42.28125 25.390625 41.25 28.046875 
Q 40.234375 30.71875 38.328125 32.640625 
Q 36.421875 34.578125 33.65625 35.640625 
Q 30.90625 36.71875 27.390625 36.71875 
Q 25.203125 36.71875 23.34375 36.328125 
Q 21.484375 35.9375 19.890625 35.25 
Q 18.3125 34.578125 17.015625 33.671875 
Q 15.71875 32.765625 14.59375 31.78125 
L 6 31.78125 
L 8.296875 68.796875 
L 47.40625 68.796875 
L 47.40625 61.328125 
L 16.3125 61.328125 
L 14.984375 39.5 
Q 17.328125 41.3125 20.84375 42.59375 
Q 24.359375 43.890625 29.203125 43.890625 
Q 34.328125 43.890625 38.421875 42.328125 
Q 42.53125 40.765625 45.40625 37.90625 
Q 48.296875 35.0625 49.859375 31.109375 
Q 51.421875 27.15625 51.421875 22.40625 
z
" id="LiberationSans-53"/>
       </defs>
       <use xlink:href="#LiberationSans-53"/>
       <use x="55.615234" xlink:href="#LiberationSans-48"/>
      </g>
     </g>
    </g>
    <g id="xtick_3">
     <g id="line2d_3">
      <g>
       <use style="fill:#ffffff;stroke:#ffffff;stroke-width:0.8;" x="154.224923" xlink:href="#m77b7429afd" y="307.584"/>
      </g>
     </g>
     <g id="text_3">
      <!-- 100 -->
      <g style="fill:#ffffff;" transform="translate(145.883517 321.830875)scale(0.1 -0.1)">
       <defs>
        <path d="M 7.625 0 
L 7.625 7.46875 
L 25.140625 7.46875 
L 25.140625 60.40625 
L 9.625 49.3125 
L 9.625 57.625 
L 25.875 68.796875 
L 33.984375 68.796875 
L 33.984375 7.46875 
L 50.734375 7.46875 
L 50.734375 0 
z
" id="LiberationSans-49"/>
       </defs>
       <use xlink:href="#LiberationSans-49"/>
       <use x="55.615234" xlink:href="#LiberationSans-48"/>
       <use x="111.230469" xlink:href="#LiberationSans-48"/>
      </g>
     </g>
    </g>
    <g id="xtick_4">
     <g id="line2d_4">
      <g>
       <use style="fill:#ffffff;stroke:#ffffff;stroke-width:0.8;" x="194.827043" xlink:href="#m77b7429afd" y="307.584"/>
      </g>
     </g>
     <g id="text_4">
      <!-- 150 -->
      <g style="fill:#ffffff;" transform="translate(186.485636 321.830875)scale(0.1 -0.1)">
       <use xlink:href="#LiberationSans-49"/>
       <use x="55.615234" xlink:href="#LiberationSans-53"/>
       <use x="111.230469" xlink:href="#LiberationSans-48"/>
      </g>
     </g>
    </g>
    <g id="xtick_5">
     <g id="line2d_5">
      <g>
       <use style="fill:#ffffff;stroke:#ffffff;stroke-width:0.8;" x="235.429162" xlink:href="#m77b7429afd" y="307.584"/>
      </g>
     </g>
     <g id="text_5">
      <!-- 200 -->
      <g style="fill:#ffffff;" transform="translate(227.087756 321.830875)scale(0.1 -0.1)">
       <defs>
        <path d="M 5.03125 0 
L 5.03125 6.203125 
Q 7.515625 11.921875 11.109375 16.28125 
Q 14.703125 20.65625 18.65625 24.1875 
Q 22.609375 27.734375 26.484375 30.765625 
Q 30.375 33.796875 33.5 36.8125 
Q 36.625 39.84375 38.546875 43.15625 
Q 40.484375 46.484375 40.484375 50.6875 
Q 40.484375 53.609375 39.59375 55.828125 
Q 38.71875 58.0625 37.0625 59.5625 
Q 35.40625 61.078125 33.078125 61.828125 
Q 30.765625 62.59375 27.9375 62.59375 
Q 25.296875 62.59375 22.96875 61.859375 
Q 20.65625 61.140625 18.84375 59.671875 
Q 17.046875 58.203125 15.890625 56.03125 
Q 14.75 53.859375 14.40625 50.984375 
L 5.421875 51.8125 
Q 5.859375 55.515625 7.46875 58.78125 
Q 9.078125 62.0625 11.90625 64.53125 
Q 14.75 67 18.71875 68.40625 
Q 22.703125 69.828125 27.9375 69.828125 
Q 33.0625 69.828125 37.0625 68.609375 
Q 41.0625 67.390625 43.8125 64.984375 
Q 46.578125 62.59375 48.046875 59.078125 
Q 49.515625 55.5625 49.515625 50.984375 
Q 49.515625 47.515625 48.265625 44.390625 
Q 47.015625 41.265625 44.9375 38.421875 
Q 42.875 35.59375 40.140625 32.953125 
Q 37.40625 30.328125 34.421875 27.8125 
Q 31.453125 25.296875 28.421875 22.828125 
Q 25.390625 20.359375 22.71875 17.859375 
Q 20.0625 15.375 17.96875 12.8125 
Q 15.875 10.25 14.703125 7.46875 
L 50.59375 7.46875 
L 50.59375 0 
z
" id="LiberationSans-50"/>
       </defs>
       <use xlink:href="#LiberationSans-50"/>
       <use x="55.615234" xlink:href="#LiberationSans-48"/>
       <use x="111.230469" xlink:href="#LiberationSans-48"/>
      </g>
     </g>
    </g>
    <g id="xtick_6">
     <g id="line2d_6">
      <g>
       <use style="fill:#ffffff;stroke:#ffffff;stroke-width:0.8;" x="276.031281" xlink:href="#m77b7429afd" y="307.584"/>
      </g>
     </g>
     <g id="text_6">
      <!-- 250 -->
      <g style="fill:#ffffff;" transform="translate(267.689875 321.830875)scale(0.1 -0.1)">
       <use xlink:href="#LiberationSans-50"/>
       <use x="55.615234" xlink:href="#LiberationSans-53"/>
       <use x="111.230469" xlink:href="#LiberationSans-48"/>
      </g>
     </g>
    </g>
    <g id="xtick_7">
     <g id="line2d_7">
      <g>
       <use style="fill:#ffffff;stroke:#ffffff;stroke-width:0.8;" x="316.6334" xlink:href="#m77b7429afd" y="307.584"/>
      </g>
     </g>
     <g id="text_7">
      <!-- 300 -->
      <g style="fill:#ffffff;" transform="translate(308.291994 321.830875)scale(0.1 -0.1)">
       <defs>
        <path d="M 51.21875 19 
Q 51.21875 14.265625 49.671875 10.546875 
Q 48.140625 6.84375 45.1875 4.265625 
Q 42.234375 1.703125 37.859375 0.359375 
Q 33.5 -0.984375 27.875 -0.984375 
Q 21.484375 -0.984375 17.109375 0.609375 
Q 12.75 2.203125 9.90625 4.8125 
Q 7.078125 7.421875 5.65625 10.765625 
Q 4.25 14.109375 3.8125 17.671875 
L 12.890625 18.5 
Q 13.28125 15.765625 14.328125 13.515625 
Q 15.375 11.28125 17.1875 9.671875 
Q 19 8.0625 21.625 7.171875 
Q 24.265625 6.296875 27.875 6.296875 
Q 34.515625 6.296875 38.296875 9.5625 
Q 42.09375 12.84375 42.09375 19.28125 
Q 42.09375 23.09375 40.40625 25.40625 
Q 38.71875 27.734375 36.203125 29.03125 
Q 33.6875 30.328125 30.734375 30.765625 
Q 27.78125 31.203125 25.296875 31.203125 
L 20.3125 31.203125 
L 20.3125 38.8125 
L 25.09375 38.8125 
Q 27.59375 38.8125 30.265625 39.328125 
Q 32.953125 39.84375 35.171875 41.1875 
Q 37.40625 42.53125 38.84375 44.828125 
Q 40.28125 47.125 40.28125 50.6875 
Q 40.28125 56.203125 37.03125 59.390625 
Q 33.796875 62.59375 27.390625 62.59375 
Q 21.578125 62.59375 17.984375 59.609375 
Q 14.40625 56.640625 13.8125 51.21875 
L 4.984375 51.90625 
Q 5.515625 56.453125 7.46875 59.8125 
Q 9.421875 63.1875 12.421875 65.40625 
Q 15.4375 67.625 19.28125 68.71875 
Q 23.140625 69.828125 27.484375 69.828125 
Q 33.25 69.828125 37.390625 68.375 
Q 41.546875 66.9375 44.1875 64.46875 
Q 46.828125 62.015625 48.0625 58.6875 
Q 49.3125 55.375 49.3125 51.609375 
Q 49.3125 48.578125 48.484375 45.9375 
Q 47.65625 43.3125 45.890625 41.203125 
Q 44.140625 39.109375 41.421875 37.59375 
Q 38.71875 36.078125 34.90625 35.296875 
L 34.90625 35.109375 
Q 39.0625 34.671875 42.140625 33.21875 
Q 45.21875 31.78125 47.21875 29.625 
Q 49.21875 27.484375 50.21875 24.75 
Q 51.21875 22.015625 51.21875 19 
z
" id="LiberationSans-51"/>
       </defs>
       <use xlink:href="#LiberationSans-51"/>
       <use x="55.615234" xlink:href="#LiberationSans-48"/>
       <use x="111.230469" xlink:href="#LiberationSans-48"/>
      </g>
     </g>
    </g>
    <g id="xtick_8">
     <g id="line2d_8">
      <g>
       <use style="fill:#ffffff;stroke:#ffffff;stroke-width:0.8;" x="357.23552" xlink:href="#m77b7429afd" y="307.584"/>
      </g>
     </g>
     <g id="text_8">
      <!-- 350 -->
      <g style="fill:#ffffff;" transform="translate(348.894113 321.830875)scale(0.1 -0.1)">
       <use xlink:href="#LiberationSans-51"/>
       <use x="55.615234" xlink:href="#LiberationSans-53"/>
       <use x="111.230469" xlink:href="#LiberationSans-48"/>
      </g>
     </g>
    </g>
    <g id="xtick_9">
     <g id="line2d_9">
      <g>
       <use style="fill:#ffffff;stroke:#ffffff;stroke-width:0.8;" x="397.837639" xlink:href="#m77b7429afd" y="307.584"/>
      </g>
     </g>
     <g id="text_9">
      <!-- 400 -->
      <g style="fill:#ffffff;" transform="translate(389.496233 321.830875)scale(0.1 -0.1)">
       <defs>
        <path d="M 43.015625 15.578125 
L 43.015625 0 
L 34.71875 0 
L 34.71875 15.578125 
L 2.296875 15.578125 
L 2.296875 22.40625 
L 33.796875 68.796875 
L 43.015625 68.796875 
L 43.015625 22.515625 
L 52.6875 22.515625 
L 52.6875 15.578125 
z
M 34.71875 58.890625 
Q 34.625 58.640625 34.234375 57.9375 
Q 33.84375 57.234375 33.34375 56.34375 
Q 32.859375 55.46875 32.34375 54.5625 
Q 31.84375 53.65625 31.453125 53.078125 
L 13.8125 27.09375 
Q 13.578125 26.703125 13.109375 26.0625 
Q 12.640625 25.4375 12.15625 24.78125 
Q 11.671875 24.125 11.171875 23.484375 
Q 10.6875 22.859375 10.40625 22.515625 
L 34.71875 22.515625 
z
" id="LiberationSans-52"/>
       </defs>
       <use xlink:href="#LiberationSans-52"/>
       <use x="55.615234" xlink:href="#LiberationSans-48"/>
       <use x="111.230469" xlink:href="#LiberationSans-48"/>
      </g>
     </g>
    </g>
    <g id="text_10">
     <!-- $t$ (ms) -->
     <g style="fill:#ffffff;" transform="translate(222.81 335.205875)scale(0.1 -0.1)">
      <defs>
       <path d="M 42.28125 54.6875 
L 40.921875 47.703125 
L 23 47.703125 
L 17.1875 18.015625 
Q 16.890625 16.359375 16.75 15.234375 
Q 16.609375 14.109375 16.609375 13.484375 
Q 16.609375 10.359375 18.484375 8.9375 
Q 20.359375 7.515625 24.515625 7.515625 
L 33.59375 7.515625 
L 32.078125 0 
L 23.484375 0 
Q 15.484375 0 11.546875 3.125 
Q 7.625 6.25 7.625 12.59375 
Q 7.625 13.71875 7.765625 15.0625 
Q 7.90625 16.40625 8.203125 18.015625 
L 14.015625 47.703125 
L 6.390625 47.703125 
L 7.8125 54.6875 
L 15.28125 54.6875 
L 18.3125 70.21875 
L 27.296875 70.21875 
L 24.3125 54.6875 
z
" id="DejaVuSans-Oblique-116"/>
       <path id="LiberationSans-32"/>
       <path d="M 6.203125 25.984375 
Q 6.203125 32.765625 7.21875 38.96875 
Q 8.25 45.171875 10.4375 50.875 
Q 12.640625 56.59375 16.0625 61.953125 
Q 19.484375 67.328125 24.21875 72.46875 
L 32.71875 72.46875 
Q 28.125 67.328125 24.78125 61.9375 
Q 21.4375 56.546875 19.28125 50.796875 
Q 17.140625 45.0625 16.09375 38.859375 
Q 15.046875 32.671875 15.046875 25.875 
Q 15.046875 19.09375 16.09375 12.890625 
Q 17.140625 6.6875 19.28125 0.921875 
Q 21.4375 -4.828125 24.78125 -10.203125 
Q 28.125 -15.578125 32.71875 -20.703125 
L 24.21875 -20.703125 
Q 19.484375 -15.578125 16.0625 -10.203125 
Q 12.640625 -4.828125 10.4375 0.875 
Q 8.25 6.59375 7.21875 12.765625 
Q 6.203125 18.953125 6.203125 25.78125 
z
" id="LiberationSans-40"/>
       <path d="M 37.5 0 
L 37.5 33.5 
Q 37.5 37.359375 37.015625 39.9375 
Q 36.53125 42.53125 35.375 44.109375 
Q 34.234375 45.703125 32.375 46.359375 
Q 30.515625 47.015625 27.828125 47.015625 
Q 25.046875 47.015625 22.796875 45.921875 
Q 20.5625 44.828125 18.96875 42.75 
Q 17.390625 40.671875 16.53125 37.625 
Q 15.671875 34.578125 15.671875 30.609375 
L 15.671875 0 
L 6.9375 0 
L 6.9375 41.546875 
Q 6.9375 43.21875 6.90625 45.046875 
Q 6.890625 46.875 6.828125 48.5 
Q 6.78125 50.140625 6.734375 51.3125 
Q 6.6875 52.484375 6.640625 52.828125 
L 14.9375 52.828125 
Q 14.984375 52.59375 15.03125 51.515625 
Q 15.09375 50.4375 15.15625 49.046875 
Q 15.234375 47.65625 15.28125 46.21875 
Q 15.328125 44.78125 15.328125 43.796875 
L 15.484375 43.796875 
Q 16.65625 46.09375 18.015625 47.953125 
Q 19.390625 49.8125 21.21875 51.09375 
Q 23.046875 52.390625 25.40625 53.09375 
Q 27.78125 53.8125 30.90625 53.8125 
Q 36.921875 53.8125 40.40625 51.421875 
Q 43.890625 49.03125 45.265625 43.796875 
L 45.40625 43.796875 
Q 46.578125 46.09375 48.046875 47.953125 
Q 49.515625 49.8125 51.46875 51.09375 
Q 53.421875 52.390625 55.859375 53.09375 
Q 58.296875 53.8125 61.421875 53.8125 
Q 65.4375 53.8125 68.328125 52.734375 
Q 71.234375 51.65625 73.09375 49.40625 
Q 74.953125 47.171875 75.828125 43.625 
Q 76.703125 40.09375 76.703125 35.203125 
L 76.703125 0 
L 68.015625 0 
L 68.015625 33.5 
Q 68.015625 37.359375 67.53125 39.9375 
Q 67.046875 42.53125 65.890625 44.109375 
Q 64.75 45.703125 62.890625 46.359375 
Q 61.03125 47.015625 58.34375 47.015625 
Q 55.5625 47.015625 53.3125 45.96875 
Q 51.078125 44.921875 49.484375 42.875 
Q 47.90625 40.828125 47.046875 37.75 
Q 46.1875 34.671875 46.1875 30.609375 
L 46.1875 0 
z
" id="LiberationSans-109"/>
       <path d="M 46.390625 14.59375 
Q 46.390625 10.890625 44.9375 7.984375 
Q 43.5 5.078125 40.765625 3.09375 
Q 38.03125 1.125 34.046875 0.0625 
Q 30.078125 -0.984375 24.953125 -0.984375 
Q 20.359375 -0.984375 16.671875 -0.265625 
Q 12.984375 0.4375 10.203125 2 
Q 7.421875 3.5625 5.53125 6.125 
Q 3.65625 8.6875 2.78125 12.40625 
L 10.546875 13.921875 
Q 11.671875 9.671875 15.1875 7.6875 
Q 18.703125 5.71875 24.953125 5.71875 
Q 27.78125 5.71875 30.140625 6.109375 
Q 32.515625 6.5 34.21875 7.453125 
Q 35.9375 8.40625 36.890625 9.984375 
Q 37.84375 11.578125 37.84375 13.921875 
Q 37.84375 16.3125 36.71875 17.84375 
Q 35.59375 19.390625 33.59375 20.40625 
Q 31.59375 21.4375 28.734375 22.1875 
Q 25.875 22.953125 22.46875 23.875 
Q 19.28125 24.703125 16.15625 25.734375 
Q 13.03125 26.765625 10.515625 28.4375 
Q 8.015625 30.125 6.453125 32.609375 
Q 4.890625 35.109375 4.890625 38.875 
Q 4.890625 46.09375 10.03125 49.875 
Q 15.1875 53.65625 25.046875 53.65625 
Q 33.796875 53.65625 38.9375 50.578125 
Q 44.09375 47.515625 45.453125 40.71875 
L 37.546875 39.75 
Q 37.109375 41.796875 35.9375 43.1875 
Q 34.765625 44.578125 33.109375 45.4375 
Q 31.453125 46.296875 29.375 46.65625 
Q 27.296875 47.015625 25.046875 47.015625 
Q 19.09375 47.015625 16.25 45.203125 
Q 13.421875 43.40625 13.421875 39.75 
Q 13.421875 37.59375 14.46875 36.203125 
Q 15.53125 34.8125 17.40625 33.859375 
Q 19.28125 32.90625 21.921875 32.203125 
Q 24.5625 31.5 27.734375 30.71875 
Q 29.828125 30.171875 32.03125 29.5625 
Q 34.234375 28.953125 36.296875 28.09375 
Q 38.375 27.25 40.203125 26.09375 
Q 42.046875 24.953125 43.40625 23.34375 
Q 44.78125 21.734375 45.578125 19.578125 
Q 46.390625 17.4375 46.390625 14.59375 
z
" id="LiberationSans-115"/>
       <path d="M 27.09375 25.78125 
Q 27.09375 18.953125 26.0625 12.765625 
Q 25.046875 6.59375 22.84375 0.875 
Q 20.65625 -4.828125 17.234375 -10.203125 
Q 13.8125 -15.578125 9.078125 -20.703125 
L 0.59375 -20.703125 
Q 5.171875 -15.578125 8.515625 -10.203125 
Q 11.859375 -4.828125 14 0.921875 
Q 16.15625 6.6875 17.203125 12.890625 
Q 18.265625 19.09375 18.265625 25.875 
Q 18.265625 32.671875 17.203125 38.859375 
Q 16.15625 45.0625 14 50.796875 
Q 11.859375 56.546875 8.515625 61.9375 
Q 5.171875 67.328125 0.59375 72.46875 
L 9.078125 72.46875 
Q 13.8125 67.328125 17.234375 61.953125 
Q 20.65625 56.59375 22.84375 50.875 
Q 25.046875 45.171875 26.0625 38.96875 
Q 27.09375 32.765625 27.09375 25.984375 
z
" id="LiberationSans-41"/>
      </defs>
      <use transform="translate(0 0.53125)" xlink:href="#DejaVuSans-Oblique-116"/>
      <use transform="translate(39.208984 0.53125)" xlink:href="#LiberationSans-32"/>
      <use transform="translate(66.992188 0.53125)" xlink:href="#LiberationSans-40"/>
      <use transform="translate(100.292969 0.53125)" xlink:href="#LiberationSans-109"/>
      <use transform="translate(183.59375 0.53125)" xlink:href="#LiberationSans-115"/>
      <use transform="translate(233.59375 0.53125)" xlink:href="#LiberationSans-41"/>
     </g>
    </g>
   </g>
   <g id="matplotlib.axis_2">
    <g id="ytick_1">
     <g id="line2d_10">
      <defs>
       <path d="M 0 0 
L -3.5 0 
" id="mb57f61c8d4" style="stroke:#ffffff;stroke-width:0.8;"/>
      </defs>
      <g>
       <use style="fill:#ffffff;stroke:#ffffff;stroke-width:0.8;" x="57.6" xlink:href="#mb57f61c8d4" y="299.268227"/>
      </g>
     </g>
     <g id="text_11">
      <!-- 0.0155 -->
      <g style="fill:#ffffff;" transform="translate(20.017187 302.891664)scale(0.1 -0.1)">
       <defs>
        <path d="M 9.125 0 
L 9.125 10.6875 
L 18.65625 10.6875 
L 18.65625 0 
z
" id="LiberationSans-46"/>
       </defs>
       <use xlink:href="#LiberationSans-48"/>
       <use x="55.615234" xlink:href="#LiberationSans-46"/>
       <use x="83.398438" xlink:href="#LiberationSans-48"/>
       <use x="139.013672" xlink:href="#LiberationSans-49"/>
       <use x="194.628906" xlink:href="#LiberationSans-53"/>
       <use x="250.244141" xlink:href="#LiberationSans-53"/>
      </g>
     </g>
    </g>
    <g id="ytick_2">
     <g id="line2d_11">
      <g>
       <use style="fill:#ffffff;stroke:#ffffff;stroke-width:0.8;" x="57.6" xlink:href="#mb57f61c8d4" y="247.152279"/>
      </g>
     </g>
     <g id="text_12">
      <!-- 0.0160 -->
      <g style="fill:#ffffff;" transform="translate(20.017187 250.775717)scale(0.1 -0.1)">
       <defs>
        <path d="M 51.21875 22.515625 
Q 51.21875 17.328125 49.78125 13 
Q 48.34375 8.6875 45.53125 5.578125 
Q 42.71875 2.484375 38.5625 0.75 
Q 34.421875 -0.984375 29 -0.984375 
Q 23 -0.984375 18.5 1.3125 
Q 14.015625 3.609375 11.03125 7.921875 
Q 8.0625 12.25 6.5625 18.53125 
Q 5.078125 24.8125 5.078125 32.8125 
Q 5.078125 42 6.765625 48.921875 
Q 8.453125 55.859375 11.625 60.5 
Q 14.796875 65.140625 19.359375 67.484375 
Q 23.921875 69.828125 29.6875 69.828125 
Q 33.203125 69.828125 36.28125 69.09375 
Q 39.359375 68.359375 41.875 66.71875 
Q 44.390625 65.09375 46.28125 62.40625 
Q 48.1875 59.71875 49.3125 55.8125 
L 40.921875 54.296875 
Q 39.546875 58.734375 36.546875 60.71875 
Q 33.546875 62.703125 29.59375 62.703125 
Q 25.984375 62.703125 23.046875 60.984375 
Q 20.125 59.28125 18.0625 55.875 
Q 16.015625 52.484375 14.90625 47.359375 
Q 13.8125 42.234375 13.8125 35.40625 
Q 16.21875 39.84375 20.5625 42.15625 
Q 24.90625 44.484375 30.515625 44.484375 
Q 35.203125 44.484375 39.015625 42.96875 
Q 42.828125 41.453125 45.53125 38.59375 
Q 48.25 35.75 49.734375 31.671875 
Q 51.21875 27.59375 51.21875 22.515625 
z
M 42.28125 22.125 
Q 42.28125 25.6875 41.40625 28.5625 
Q 40.53125 31.453125 38.765625 33.46875 
Q 37.015625 35.5 34.421875 36.59375 
Q 31.84375 37.703125 28.421875 37.703125 
Q 26.03125 37.703125 23.578125 36.984375 
Q 21.140625 36.28125 19.15625 34.6875 
Q 17.1875 33.109375 15.9375 30.515625 
Q 14.703125 27.9375 14.703125 24.21875 
Q 14.703125 20.40625 15.671875 17.109375 
Q 16.65625 13.8125 18.484375 11.375 
Q 20.3125 8.9375 22.890625 7.515625 
Q 25.484375 6.109375 28.71875 6.109375 
Q 31.890625 6.109375 34.40625 7.203125 
Q 36.921875 8.296875 38.671875 10.375 
Q 40.4375 12.453125 41.359375 15.421875 
Q 42.28125 18.40625 42.28125 22.125 
z
" id="LiberationSans-54"/>
       </defs>
       <use xlink:href="#LiberationSans-48"/>
       <use x="55.615234" xlink:href="#LiberationSans-46"/>
       <use x="83.398438" xlink:href="#LiberationSans-48"/>
       <use x="139.013672" xlink:href="#LiberationSans-49"/>
       <use x="194.628906" xlink:href="#LiberationSans-54"/>
       <use x="250.244141" xlink:href="#LiberationSans-48"/>
      </g>
     </g>
    </g>
    <g id="ytick_3">
     <g id="line2d_12">
      <g>
       <use style="fill:#ffffff;stroke:#ffffff;stroke-width:0.8;" x="57.6" xlink:href="#mb57f61c8d4" y="195.036331"/>
      </g>
     </g>
     <g id="text_13">
      <!-- 0.0165 -->
      <g style="fill:#ffffff;" transform="translate(20.017187 198.659769)scale(0.1 -0.1)">
       <use xlink:href="#LiberationSans-48"/>
       <use x="55.615234" xlink:href="#LiberationSans-46"/>
       <use x="83.398438" xlink:href="#LiberationSans-48"/>
       <use x="139.013672" xlink:href="#LiberationSans-49"/>
       <use x="194.628906" xlink:href="#LiberationSans-54"/>
       <use x="250.244141" xlink:href="#LiberationSans-53"/>
      </g>
     </g>
    </g>
    <g id="ytick_4">
     <g id="line2d_13">
      <g>
       <use style="fill:#ffffff;stroke:#ffffff;stroke-width:0.8;" x="57.6" xlink:href="#mb57f61c8d4" y="142.920384"/>
      </g>
     </g>
     <g id="text_14">
      <!-- 0.0170 -->
      <g style="fill:#ffffff;" transform="translate(20.017187 146.543821)scale(0.1 -0.1)">
       <defs>
        <path d="M 50.59375 61.671875 
Q 45.40625 53.765625 41.0625 46.453125 
Q 36.71875 39.15625 33.59375 31.75 
Q 30.46875 24.359375 28.734375 16.578125 
Q 27 8.796875 27 0 
L 17.828125 0 
Q 17.828125 8.25 19.78125 16.1875 
Q 21.734375 24.125 25.046875 31.765625 
Q 28.375 39.40625 32.765625 46.78125 
Q 37.15625 54.15625 42.09375 61.328125 
L 5.125 61.328125 
L 5.125 68.796875 
L 50.59375 68.796875 
z
" id="LiberationSans-55"/>
       </defs>
       <use xlink:href="#LiberationSans-48"/>
       <use x="55.615234" xlink:href="#LiberationSans-46"/>
       <use x="83.398438" xlink:href="#LiberationSans-48"/>
       <use x="139.013672" xlink:href="#LiberationSans-49"/>
       <use x="194.628906" xlink:href="#LiberationSans-55"/>
       <use x="250.244141" xlink:href="#LiberationSans-48"/>
      </g>
     </g>
    </g>
    <g id="ytick_5">
     <g id="line2d_14">
      <g>
       <use style="fill:#ffffff;stroke:#ffffff;stroke-width:0.8;" x="57.6" xlink:href="#mb57f61c8d4" y="90.804436"/>
      </g>
     </g>
     <g id="text_15">
      <!-- 0.0175 -->
      <g style="fill:#ffffff;" transform="translate(20.017187 94.427873)scale(0.1 -0.1)">
       <use xlink:href="#LiberationSans-48"/>
       <use x="55.615234" xlink:href="#LiberationSans-46"/>
       <use x="83.398438" xlink:href="#LiberationSans-48"/>
       <use x="139.013672" xlink:href="#LiberationSans-49"/>
       <use x="194.628906" xlink:href="#LiberationSans-55"/>
       <use x="250.244141" xlink:href="#LiberationSans-53"/>
      </g>
     </g>
    </g>
    <g id="text_16">
     <!-- $L$ -->
     <g style="fill:#ffffff;" transform="translate(13.942187 177.328)rotate(-90)scale(0.1 -0.1)">
      <defs>
       <path d="M 16.796875 72.90625 
L 26.703125 72.90625 
L 14.203125 8.203125 
L 49.703125 8.203125 
L 48.09375 0 
L 2.6875 0 
z
" id="DejaVuSans-Oblique-76"/>
      </defs>
      <use transform="translate(0 0.09375)" xlink:href="#DejaVuSans-Oblique-76"/>
     </g>
    </g>
   </g>
   <g id="line2d_15">
    <path clip-path="url(#p0ecdc7cc02)" d="M 73.832727 280.234802 
L 74.969587 282.070551 
L 75.456812 282.974764 
L 76.106446 289.283065 
L 76.75608 293.273643 
L 77.243305 294.896842 
L 77.568122 295.381388 
L 77.892939 295.419774 
L 78.217756 295.037952 
L 78.542573 294.26069 
L 79.029799 292.404743 
L 79.354615 290.454172 
L 80.166658 285.535775 
L 80.9787 281.944434 
L 81.628334 279.913203 
L 82.277968 278.545601 
L 82.765194 277.912503 
L 83.252419 277.58508 
L 83.739644 277.537589 
L 84.22687 277.746016 
L 84.714095 278.187977 
L 85.363729 279.104684 
L 86.175772 280.713511 
L 87.150222 283.218847 
L 88.287082 286.783096 
L 89.748758 292.132746 
L 90.235983 294.304579 
L 90.5608 295.125717 
L 90.885617 295.478638 
L 91.210434 295.390333 
L 91.535251 294.886567 
L 92.022477 293.405399 
L 92.509702 291.122763 
L 93.159336 286.957809 
L 93.971378 280.170359 
L 94.945829 271.834538 
L 95.595463 268.984165 
L 96.245097 267.081524 
L 96.732323 266.21513 
L 97.219548 265.785131 
L 97.544365 265.72262 
L 97.869182 265.827355 
L 98.356407 266.276688 
L 98.843633 267.049065 
L 99.493267 268.531354 
L 100.305309 271.023018 
L 101.27976 274.804435 
L 101.929394 277.726436 
L 102.579028 283.210882 
L 103.228662 286.724993 
L 103.715887 288.195919 
L 104.040704 288.668334 
L 104.365521 288.761269 
L 104.690338 288.49675 
L 105.015155 287.8958 
L 105.50238 286.40719 
L 106.152014 283.424455 
L 106.964057 278.285887 
L 107.938507 270.370356 
L 109.075367 259.185987 
L 109.887409 251.28665 
L 110.374635 249.539974 
L 110.86186 248.499683 
L 111.186677 248.169288 
L 111.511494 248.11004 
L 111.836311 248.306195 
L 112.161128 248.742728 
L 112.648353 249.817052 
L 113.297987 251.962444 
L 114.11003 255.651592 
L 115.08448 261.328121 
L 116.22134 269.343211 
L 118.007833 282.490018 
L 118.495058 283.511903 
L 118.819875 283.727321 
L 119.144692 283.59509 
L 119.469509 283.135557 
L 119.956735 281.874798 
L 120.606369 279.222086 
L 121.256003 275.581794 
L 122.068045 269.828408 
L 123.204904 259.906562 
L 124.828989 245.128962 
L 125.316214 243.736803 
L 125.80344 243.056852 
L 126.128257 242.96936 
L 126.453074 243.154793 
L 126.777891 243.597113 
L 127.265116 244.708974 
L 127.91475 246.953547 
L 128.726792 250.836304 
L 129.701243 256.831905 
L 130.838103 265.316533 
L 131.974962 273.776784 
L 132.462187 275.459836 
L 132.949413 276.31369 
L 133.27423 276.456976 
L 133.599047 276.282427 
L 133.923864 275.80869 
L 134.411089 274.575797 
L 135.060723 272.044069 
L 135.872765 267.624257 
L 136.847216 260.762565 
L 137.984076 251.019359 
L 139.445752 236.415047 
L 139.60816 234.679318 
L 140.095386 233.324985 
L 140.420203 232.861021 
L 140.74502 232.724858 
L 141.069837 232.897511 
L 141.394654 233.360863 
L 141.881879 234.563348 
L 142.531513 237.029316 
L 143.343555 241.331251 
L 144.318006 248.007162 
L 145.454866 257.484095 
L 146.1045 262.918035 
L 146.754133 265.645515 
L 147.241359 266.77017 
L 147.566176 267.118115 
L 147.890993 267.166036 
L 148.21581 266.931368 
L 148.540627 266.43075 
L 149.027852 265.215694 
L 149.677486 262.806934 
L 150.489528 258.681722 
L 151.463979 252.349651 
L 152.600839 243.422822 
L 154.062515 230.109372 
L 156.011417 210.226237 
L 156.173825 208.49562 
L 156.498642 208.841217 
L 156.823459 209.534275 
L 157.310684 211.180172 
L 157.960318 214.404841 
L 158.772361 219.890738 
L 159.746812 228.277653 
L 160.883671 240.070955 
L 162.345347 257.627487 
L 163.15739 268.237432 
L 163.482207 268.67712 
L 163.807024 268.80817 
L 164.13184 268.648453 
L 164.456657 268.215028 
L 164.943883 267.087083 
L 165.593517 264.770899 
L 166.405559 260.727412 
L 167.38001 254.449986 
L 168.516869 245.536433 
L 169.816137 235.33937 
L 170.303363 233.827899 
L 170.62818 233.268495 
L 170.952996 233.04393 
L 171.277813 233.134877 
L 171.60263 233.522892 
L 172.089856 234.623637 
L 172.577081 236.297342 
L 173.226715 239.330527 
L 174.038758 244.252018 
L 175.013208 251.554653 
L 175.662842 256.334335 
L 176.312476 259.604352 
L 176.799702 261.162907 
L 177.286927 262.025213 
L 177.611744 262.242304 
L 177.936561 262.192342 
L 178.261378 261.890916 
L 178.748603 260.999642 
L 179.235829 259.623256 
L 179.885463 257.109273 
L 180.697505 253.009639 
L 181.671956 246.906482 
L 182.971224 237.172376 
L 184.595309 223.138836 
L 185.569759 214.032385 
L 185.894576 214.010474 
L 186.219393 214.360408 
L 186.54421 215.060261 
L 187.031436 216.720638 
L 187.193844 217.427003 
L 188.005887 224.14381 
L 188.817929 229.099609 
L 189.467563 231.946522 
L 190.117197 233.911839 
L 190.604422 234.864001 
L 191.091648 235.409664 
L 191.578873 235.582878 
L 192.066099 235.415399 
L 192.553324 234.936839 
L 193.202958 233.862283 
L 193.852592 232.343792 
L 194.664634 229.904362 
L 195.801493 225.647804 
L 197.100761 219.842348 
L 198.887255 210.709816 
L 199.861705 205.354171 
L 200.186522 205.686638 
L 200.511339 206.444955 
L 200.998565 208.325683 
L 201.648199 212.096494 
L 202.460241 216.400736 
L 203.272283 219.511986 
L 203.921917 221.244561 
L 204.571551 222.381142 
L 205.058777 222.881154 
L 205.546002 223.106904 
L 206.033228 223.081609 
L 206.520453 222.82692 
L 207.170087 222.165182 
L 207.819721 221.175422 
L 208.631763 219.537644 
L 209.606214 217.076489 
L 210.905482 213.125111 
L 212.529567 207.400948 
L 213.666426 203.561815 
L 213.828834 203.567259 
L 214.153651 203.924413 
L 214.478468 204.720524 
L 214.965694 206.680795 
L 215.615328 210.59644 
L 216.42737 217.330661 
L 217.401821 227.693591 
L 217.726638 230.401923 
L 218.376272 232.925286 
L 219.025906 234.621647 
L 219.513131 235.404676 
L 220.000357 235.806799 
L 220.487582 235.860109 
L 220.974807 235.594534 
L 221.462033 235.03798 
L 222.111667 233.887954 
L 222.923709 231.873657 
L 223.89816 228.740508 
L 225.035019 224.286291 
L 226.496696 217.604203 
L 227.308738 213.854172 
L 227.633555 213.170907 
L 227.958372 212.944143 
L 228.283189 213.147473 
L 228.608006 213.75569 
L 229.095231 215.374874 
L 229.744865 218.735555 
L 230.556908 224.635583 
L 231.856175 234.918546 
L 232.505809 237.708112 
L 233.155443 239.568621 
L 233.642669 240.414469 
L 234.129894 240.832535 
L 234.454711 240.891517 
L 234.779528 240.786557 
L 235.266753 240.342667 
L 235.753979 239.582124 
L 236.403613 238.124579 
L 237.215655 235.676519 
L 238.190106 231.963167 
L 239.489374 225.96265 
L 241.113459 217.229296 
L 243.387177 203.592608 
L 243.711994 201.565361 
L 244.19922 203.430822 
L 244.848854 207.23349 
L 245.336079 210.09412 
L 246.148121 213.522041 
L 246.960164 215.913022 
L 247.609798 217.16931 
L 248.259432 217.909146 
L 248.746657 218.159081 
L 249.233882 218.172055 
L 249.721108 217.968439 
L 250.370742 217.392672 
L 251.020376 216.506947 
L 251.832418 215.021045 
L 252.806869 212.768785 
L 254.106137 209.131106 
L 255.730221 203.838604 
L 258.00394 195.576845 
L 258.978391 191.550092 
L 259.303208 189.280122 
L 260.277659 190.736934 
L 261.089701 191.596474 
L 261.901744 192.177205 
L 262.713786 192.515269 
L 263.525828 192.642899 
L 264.500279 192.558491 
L 265.47473 192.255935 
L 266.611589 191.67755 
L 268.073266 190.655281 
L 269.859759 189.100082 
L 272.295886 186.650125 
L 274.244788 184.558535 
L 274.407196 185.728608 
L 275.381647 186.499056 
L 276.356098 187.022355 
L 277.492957 187.36995 
L 278.629817 187.482756 
L 279.929085 187.379645 
L 281.390761 187.032228 
L 283.177254 186.362795 
L 285.450973 185.253361 
L 287.399874 184.169222 
L 287.724691 184.967121 
L 288.211917 186.498251 
L 289.186368 187.73295 
L 290.160819 188.589863 
L 291.135269 189.12558 
L 292.10972 189.389483 
L 293.084171 189.424611 
L 294.221031 189.226137 
L 295.520298 188.7454 
L 296.981975 187.956311 
L 298.768468 186.737453 
L 301.367004 184.662629 
L 302.016637 184.11234 
L 302.503863 181.875642 
L 303.153497 177.265437 
L 304.127948 168.898727 
L 304.93999 167.652776 
L 305.752032 166.808906 
L 306.564075 166.315027 
L 307.376117 166.124679 
L 308.18816 166.196467 
L 309.000202 166.493544 
L 309.974653 167.101554 
L 311.111512 168.095615 
L 312.573188 169.722104 
L 314.359682 172.085725 
L 316.795809 175.697834 
L 317.283034 177.964656 
L 317.932668 182.645698 
L 318.257485 185.631785 
L 319.231936 186.528005 
L 320.206387 187.114155 
L 321.180838 187.437452 
L 322.155289 187.539068 
L 323.292148 187.424999 
L 324.591416 187.047125 
L 326.053092 186.37879 
L 327.839585 185.310607 
L 330.275712 183.576158 
L 330.925346 183.081303 
L 331.250163 182.206602 
L 331.737389 179.960124 
L 332.387023 175.376429 
L 332.71184 172.466435 
L 333.523882 171.111071 
L 334.335924 170.146673 
L 335.147967 169.523257 
L 335.960009 169.196221 
L 336.772051 169.125799 
L 337.584094 169.276574 
L 338.558545 169.705367 
L 339.695404 170.487616 
L 340.994672 171.674718 
L 342.618757 173.481686 
L 343.593208 174.688976 
L 343.918024 175.591842 
L 344.080433 175.839221 
L 345.054884 173.739658 
L 346.029335 172.190409 
L 346.841377 171.26139 
L 347.653419 170.617372 
L 348.465462 170.221645 
L 349.277504 170.04146 
L 350.251955 170.06889 
L 351.226406 170.320426 
L 352.363265 170.845961 
L 353.662533 171.68907 
L 355.286618 173.012549 
L 356.261069 173.910625 
L 356.748294 175.657827 
L 357.073111 176.1365 
L 357.23552 176.181865 
L 357.560337 175.903527 
L 357.885153 175.157259 
L 358.372379 173.221014 
L 359.184421 170.249734 
L 359.996464 168.030809 
L 360.808506 166.46974 
L 361.45814 165.637519 
L 362.107774 165.133169 
L 362.757408 164.921134 
L 363.407042 164.968999 
L 364.056676 165.247231 
L 364.868718 165.878245 
L 365.843169 166.989237 
L 366.980028 168.683745 
L 368.279296 171.028034 
L 368.92893 172.326811 
L 369.416155 174.967904 
L 369.903381 176.386395 
L 370.228198 176.703881 
L 370.390606 176.685072 
L 370.715423 176.309683 
L 371.04024 175.506126 
L 371.527466 173.55356 
L 372.177099 169.680372 
L 372.664325 166.694658 
L 373.476367 163.042186 
L 374.126001 160.931987 
L 374.775635 159.46221 
L 375.425269 158.564868 
L 375.912494 158.229999 
L 376.39972 158.157998 
L 376.886945 158.326365 
L 377.374171 158.714121 
L 378.023805 159.538806 
L 378.835847 161.004836 
L 379.810298 163.304622 
L 380.947157 166.591376 
L 382.408834 171.540086 
L 383.708101 175.897383 
L 384.032918 176.138454 
L 384.357735 175.920515 
L 384.682552 175.270465 
L 385.169778 173.541009 
L 385.819412 169.952505 
L 386.631454 163.653474 
L 387.605905 153.843278 
L 388.742764 139.885728 
L 389.392398 132.610998 
L 390.042032 130.772936 
L 390.529257 130.007936 
L 390.854074 129.765651 
L 391.178891 129.723265 
L 391.503708 129.86917 
L 391.990934 130.416978 
L 392.478159 131.328363 
L 393.127793 133.052636 
L 393.939835 135.926514 
L 394.914286 140.264936 
L 396.213554 147.252381 
L 396.863188 140.376632 
L 397.67523 134.931527 
L 398.487273 130.499115 
L 398.487273 130.499115 
" style="fill:none;stroke:#9a72ac;stroke-linecap:round;stroke-width:1.5;"/>
   </g>
   <g id="line2d_16">
    <path clip-path="url(#p0ecdc7cc02)" d="M 73.832727 190.878339 
L 74.64477 205.018573 
L 75.619221 219.836686 
L 76.431263 237.022998 
L 77.243305 249.294857 
L 78.055348 257.715603 
L 78.86739 264.964104 
L 79.192207 267.281243 
L 81.953151 272.960824 
L 88.287082 286.127788 
L 89.748758 288.946112 
L 90.5608 284.673834 
L 91.535251 278.328123 
L 92.672111 270.916478 
L 93.159336 271.182641 
L 93.646561 271.751258 
L 94.296195 272.933478 
L 94.621012 273.689657 
L 95.108238 272.710331 
L 95.433055 272.551201 
L 95.757872 272.760492 
L 96.082689 273.316586 
L 96.569914 274.75612 
L 97.219548 277.704622 
L 97.544365 279.57939 
L 98.518816 280.238958 
L 99.493267 280.607951 
L 100.467717 280.731804 
L 101.604577 280.618963 
L 101.929394 280.543069 
L 102.416619 281.197637 
L 102.741436 281.284513 
L 103.066253 281.110628 
L 103.39107 280.691302 
L 103.878296 279.633904 
L 104.527929 277.495882 
L 105.339972 273.794243 
L 106.314423 268.075397 
L 107.451282 259.979807 
L 107.776099 257.434289 
L 108.588141 245.756255 
L 109.237775 238.964615 
L 109.725001 235.203825 
L 110.537043 217.888515 
L 111.186677 207.828756 
L 112.648353 190.816745 
L 113.460396 183.448325 
L 114.11003 179.189237 
L 114.759663 176.220558 
L 115.246889 174.758022 
L 115.734114 173.890746 
L 116.058931 173.618558 
L 116.383748 173.574851 
L 116.708565 173.746352 
L 117.195791 174.379571 
L 117.683016 175.428322 
L 118.495058 174.983512 
L 119.307101 174.273878 
L 120.281552 173.129 
L 121.58082 171.202911 
L 122.392862 169.967179 
L 122.717679 169.867217 
L 123.042496 169.985684 
L 123.367313 170.309768 
L 123.854538 171.154835 
L 124.504172 172.891788 
L 124.991398 171.474954 
L 125.316214 171.113271 
L 126.128257 171.09335 
L 126.615482 171.334894 
L 127.102708 171.882059 
L 127.752342 173.040202 
L 128.564384 175.09403 
L 129.538835 178.311482 
L 130.675694 182.905822 
L 131.812554 187.505467 
L 132.299779 187.566844 
L 132.787004 187.314177 
L 133.27423 186.77493 
L 133.923864 185.654126 
L 134.735906 183.684993 
L 135.547949 180.117826 
L 136.197582 178.09849 
L 136.847216 176.736935 
L 137.334442 176.104923 
L 137.821667 175.775912 
L 138.308893 175.724387 
L 138.796118 175.926555 
L 139.283343 176.360232 
L 139.445752 176.552623 
L 139.932977 178.752897 
L 141.069837 184.324109 
L 142.044288 185.274937 
L 143.018738 185.912103 
L 143.993189 186.283081 
L 144.96764 186.429276 
L 145.779683 186.405563 
L 146.1045 185.464627 
L 146.591725 184.285935 
L 147.241359 182.123002 
L 148.053401 178.585385 
L 149.027852 173.308793 
L 150.002303 167.946379 
L 150.651937 165.962513 
L 151.139162 165.00725 
L 151.626388 164.466875 
L 152.113613 164.306609 
L 152.600839 164.494011 
L 153.088064 164.998837 
L 153.737698 166.117265 
L 153.900106 166.469911 
L 154.387332 166.35392 
L 154.874557 165.976344 
L 155.524191 165.105806 
L 156.823459 163.008531 
L 157.310684 162.767486 
L 157.79791 162.836258 
L 158.285135 163.188061 
L 158.934769 164.054502 
L 159.584403 165.325411 
L 160.396445 167.407754 
L 161.370896 170.517266 
L 162.670164 175.487486 
L 163.15739 177.545356 
L 163.969432 174.556521 
L 164.943883 170.153699 
L 166.243151 163.184335 
L 166.892785 159.32944 
L 167.217602 159.659829 
L 167.704827 160.53028 
L 168.354461 162.328184 
L 169.166503 165.476579 
L 169.49132 166.983931 
L 169.816137 167.001942 
L 170.140954 167.447745 
L 170.465771 168.296083 
L 170.952996 170.270926 
L 171.440222 173.020798 
L 172.252264 172.384499 
L 173.064307 172.057899 
L 173.876349 171.999377 
L 174.688391 172.171863 
L 175.175617 172.372362 
L 175.662842 173.582397 
L 176.150068 174.254994 
L 176.474885 174.427214 
L 176.799702 174.393285 
L 177.124519 174.165238 
L 177.611744 173.484168 
L 178.261378 171.999469 
L 178.911012 169.928493 
L 179.723054 166.625188 
L 180.859914 160.890578 
L 182.159181 153.096765 
L 183.133632 146.599706 
L 183.620858 147.736332 
L 184.270492 149.856161 
L 185.082534 153.358593 
L 185.732168 156.037862 
L 186.056985 156.710441 
L 186.706619 158.57224 
L 187.193844 159.141006 
L 188.005887 163.397341 
L 188.817929 166.622394 
L 189.629971 168.944848 
L 190.279605 170.230608 
L 190.929239 171.065607 
L 191.578873 171.498299 
L 192.066099 171.585537 
L 192.553324 171.488594 
L 193.202958 171.100363 
L 193.852592 170.448044 
L 194.664634 169.309479 
L 195.639085 167.542088 
L 196.775944 165.032684 
L 197.26317 165.605727 
L 197.750395 166.577821 
L 198.400029 168.432794 
L 199.212071 171.540434 
L 199.861705 174.571656 
L 200.673748 173.011828 
L 201.323382 172.170182 
L 201.648199 171.871509 
L 202.460241 176.055031 
L 203.109875 178.330569 
L 203.759509 179.76262 
L 204.246734 180.338208 
L 204.73396 180.526146 
L 205.058777 180.452486 
L 205.546002 180.066655 
L 206.033228 179.376389 
L 206.682861 178.029537 
L 207.494904 175.743599 
L 208.469355 172.253801 
L 209.606214 167.351104 
L 211.06789 160.057269 
L 211.555116 160.974888 
L 212.20475 162.915254 
L 213.016792 166.354568 
L 213.504017 168.89145 
L 213.828834 169.104261 
L 214.153651 169.75664 
L 214.640877 171.502626 
L 214.803285 172.276885 
L 215.777736 185.912048 
L 216.752187 196.515527 
L 217.564229 203.34747 
L 218.53868 223.3843 
L 219.350723 235.797014 
L 220.162765 244.829661 
L 220.812399 249.911933 
L 221.462033 253.304496 
L 221.949258 254.849447 
L 222.436484 255.616348 
L 222.761301 255.72797 
L 223.086118 255.541406 
L 223.410935 255.074167 
L 223.89816 253.883379 
L 224.547794 251.462887 
L 225.359836 247.260202 
L 226.334287 240.7278 
L 227.14633 235.821276 
L 227.958372 221.896488 
L 228.770414 211.9437 
L 229.420048 206.498677 
L 230.069682 203.035933 
L 230.556908 201.610459 
L 230.881724 201.171316 
L 231.206541 201.113839 
L 231.36895 201.221253 
L 232.180992 198.407728 
L 232.993035 196.458427 
L 233.642669 195.445997 
L 234.292303 194.863777 
L 234.779528 194.68107 
L 235.266753 194.695659 
L 235.916387 194.992787 
L 236.566021 195.573229 
L 237.865289 196.77082 
L 238.514923 197.042585 
L 239.002148 196.985765 
L 239.489374 196.643326 
L 239.976599 195.962305 
L 240.301416 195.295241 
L 241.275867 196.271242 
L 241.925501 196.619636 
L 242.412726 196.610339 
L 242.899952 196.300281 
L 243.387177 195.630938 
L 243.874403 194.500526 
L 244.524037 193.040004 
L 245.011262 192.211079 
L 245.823304 196.631127 
L 246.472938 199.166831 
L 246.960164 200.402098 
L 247.447389 201.010643 
L 247.772206 201.044825 
L 248.097023 200.766187 
L 248.42184 200.161888 
L 248.909065 198.617882 
L 249.396291 196.273524 
L 250.53315 200.162344 
L 251.182784 201.772392 
L 251.67001 202.525594 
L 252.806869 209.183358 
L 253.456503 210.828323 
L 253.943728 211.449824 
L 254.268545 211.563784 
L 254.593362 211.432678 
L 254.918179 211.052902 
L 255.405405 210.010082 
L 255.89263 208.391425 
L 256.542264 205.324864 
L 257.191898 201.20844 
L 258.00394 195.971479 
L 258.491166 194.050067 
L 258.815983 193.182466 
L 259.303208 196.053785 
L 259.952842 191.74429 
L 260.440067 189.60896 
L 260.927293 188.26202 
L 261.414518 187.578154 
L 261.739335 187.433119 
L 262.064152 187.499165 
L 262.551378 187.928132 
L 263.201011 188.969302 
L 264.175462 191.127817 
L 265.961956 195.209832 
L 266.773998 196.477997 
L 267.261223 196.926499 
L 267.748449 197.09151 
L 268.235674 196.937368 
L 268.7229 196.432027 
L 269.210125 195.546808 
L 269.859759 193.731836 
L 270.184576 192.53739 
L 271.159027 195.908051 
L 271.808661 193.915244 
L 272.458295 191.191005 
L 273.107929 188.429493 
L 273.919971 187.628508 
L 274.244788 187.371826 
L 274.407196 186.051831 
L 275.05683 184.774659 
L 275.706464 184.002713 
L 276.518507 183.454114 
L 278.142591 182.528381 
L 278.792225 181.83943 
L 279.441859 180.795292 
L 280.091493 179.299672 
L 280.741127 177.268523 
L 281.553169 173.866375 
L 282.365212 169.393704 
L 282.52762 168.36166 
L 283.339663 154.668845 
L 283.66448 150.390039 
L 284.314113 147.56763 
L 284.801339 146.219684 
L 285.288564 145.404315 
L 285.77579 145.017309 
L 286.263015 144.962684 
L 286.750241 145.152149 
L 287.399874 145.645242 
L 288.049508 140.135163 
L 289.023959 148.913119 
L 289.836002 154.589109 
L 290.648044 158.681705 
L 291.297678 160.770054 
L 291.784903 161.626759 
L 292.10972 161.854942 
L 292.434537 161.806196 
L 292.759354 161.47871 
L 293.24658 160.461663 
L 293.733805 158.810399 
L 294.383439 155.618282 
L 295.033073 151.292606 
L 295.520298 147.305299 
L 296.169932 147.205199 
L 296.657158 146.936845 
L 297.144383 146.452856 
L 297.794017 145.402875 
L 298.443651 143.813172 
L 299.093285 141.609963 
L 299.742919 139.381849 
L 300.230144 139.166578 
L 300.71737 139.168093 
L 301.529412 139.442281 
L 302.016637 139.655901 
L 302.666271 141.243966 
L 303.153497 141.814228 
L 303.478314 141.890351 
L 303.803131 141.7187 
L 303.965539 141.538876 
L 304.93999 142.382354 
L 306.076849 143.314182 
L 306.726483 143.555686 
L 307.213709 143.508707 
L 307.700934 143.218663 
L 308.18816 142.647195 
L 308.675385 141.759729 
L 308.837793 141.388222 
L 309.974653 146.183162 
L 310.624287 149.144829 
L 310.949104 148.878447 
L 311.436329 148.100821 
L 311.923555 146.852308 
L 312.573188 144.425912 
L 313.060414 142.515438 
L 313.872456 141.021322 
L 316.308583 137.00498 
L 317.283034 135.035383 
L 317.77026 134.664878 
L 318.095077 134.65705 
L 319.231936 135.022223 
L 319.88157 134.868703 
L 320.531204 134.489943 
L 321.505655 133.617475 
L 324.591416 130.535616 
L 325.24105 130.247219 
L 325.890684 130.223187 
L 326.377909 130.415727 
L 326.865134 130.817439 
L 327.514768 131.722619 
L 327.839585 132.350464 
L 328.814036 128.283191 
L 329.950895 122.772139 
L 330.600529 124.924995 
L 331.087755 126.551247 
L 331.899797 127.638698 
L 332.71184 128.465937 
L 333.361473 125.532962 
L 333.848699 124.053757 
L 334.335924 123.238145 
L 334.660741 123.026919 
L 334.985558 123.0639 
L 335.310375 123.334602 
L 335.797601 124.148826 
L 336.284826 125.413976 
L 336.772051 126.775229 
L 339.04577 130.565591 
L 341.319489 133.937788 
L 343.593208 136.927644 
L 344.080433 135.008327 
L 347.166194 137.874856 
L 350.251955 140.842393 
L 350.73918 139.558736 
L 351.226406 137.628552 
L 351.87604 134.150591 
L 352.200857 132.642097 
L 356.261069 120.590393 
L 356.748294 119.435426 
L 357.397928 117.066585 
L 358.20997 112.933793 
L 358.372379 111.96749 
L 359.996464 111.39092 
L 361.945365 110.951823 
L 364.056676 110.707222 
L 365.68076 110.638513 
L 366.330394 113.473243 
L 366.980028 113.965519 
L 367.467254 114.091359 
L 367.954479 114.028226 
L 368.604113 113.678227 
L 368.766521 113.547027 
L 368.92893 112.084238 
L 369.416155 110.702119 
L 370.065789 107.919772 
L 370.877832 103.114105 
L 371.852283 95.700091 
L 372.501916 90.75174 
L 373.963593 85.19597 
L 375.587677 79.91696 
L 377.211762 75.430574 
L 379.323072 69.928233 
L 379.972706 67.059206 
L 380.784749 62.453156 
L 381.109566 60.331075 
L 381.596791 60.394313 
L 382.084017 60.708475 
L 382.73365 61.47964 
L 384.195327 63.681 
L 384.682552 63.856476 
L 385.169778 63.717539 
L 385.657003 63.291491 
L 386.306637 62.320535 
L 386.956271 60.939744 
L 387.768313 58.713925 
L 388.905173 54.820681 
L 389.22999 53.568 
L 389.717215 54.270343 
L 390.366849 55.633413 
L 391.178891 57.939722 
L 392.153342 61.453964 
L 393.290201 66.384974 
L 394.102244 70.341495 
L 394.589469 69.543178 
L 395.076695 68.282087 
L 395.726329 65.952937 
L 396.213554 63.770407 
L 397.025596 63.912509 
L 397.188005 63.970573 
L 397.837639 66.618029 
L 398.487273 68.273111 
L 398.487273 68.273111 
" style="fill:none;stroke:#cf5044;stroke-linecap:round;stroke-width:1.5;"/>
   </g>
   <g id="patch_3">
    <path d="M 57.6 307.584 
L 57.6 41.472 
" style="fill:none;stroke:#ffffff;stroke-linecap:square;stroke-linejoin:miter;stroke-width:0.8;"/>
   </g>
   <g id="patch_4">
    <path d="M 414.72 307.584 
L 414.72 41.472 
" style="fill:none;stroke:#ffffff;stroke-linecap:square;stroke-linejoin:miter;stroke-width:0.8;"/>
   </g>
   <g id="patch_5">
    <path d="M 57.6 307.584 
L 414.72 307.584 
" style="fill:none;stroke:#ffffff;stroke-linecap:square;stroke-linejoin:miter;stroke-width:0.8;"/>
   </g>
   <g id="patch_6">
    <path d="M 57.6 41.472 
L 414.72 41.472 
" style="fill:none;stroke:#ffffff;stroke-linecap:square;stroke-linejoin:miter;stroke-width:0.8;"/>
   </g>
   <g id="legend_1">
    <g id="line2d_17">
     <path d="M 66.6 54.218875 
L 86.6 54.218875 
" style="fill:none;stroke:#9a72ac;stroke-linecap:round;stroke-width:1.5;"/>
    </g>
    <g id="line2d_18"/>
    <g id="text_17">
     <!-- Egomotion -->
     <g style="fill:#ffffff;" transform="translate(94.6 57.718875)scale(0.1 -0.1)">
      <defs>
       <path d="M 8.203125 0 
L 8.203125 68.796875 
L 60.40625 68.796875 
L 60.40625 61.1875 
L 17.53125 61.1875 
L 17.53125 39.109375 
L 57.46875 39.109375 
L 57.46875 31.59375 
L 17.53125 31.59375 
L 17.53125 7.625 
L 62.40625 7.625 
L 62.40625 0 
z
" id="LiberationSans-69"/>
       <path d="M 26.765625 -20.75 
Q 22.21875 -20.75 18.703125 -19.8125 
Q 15.1875 -18.890625 12.6875 -17.15625 
Q 10.203125 -15.4375 8.640625 -13.03125 
Q 7.078125 -10.640625 6.390625 -7.71875 
L 15.234375 -6.453125 
Q 16.109375 -10.109375 19.109375 -12.078125 
Q 22.125 -14.0625 27 -14.0625 
Q 29.984375 -14.0625 32.421875 -13.234375 
Q 34.859375 -12.40625 36.5625 -10.5625 
Q 38.28125 -8.734375 39.203125 -5.796875 
Q 40.140625 -2.875 40.140625 1.3125 
L 40.140625 9.8125 
L 40.046875 9.8125 
Q 39.0625 7.8125 37.625 5.984375 
Q 36.1875 4.15625 34.109375 2.734375 
Q 32.03125 1.3125 29.296875 0.453125 
Q 26.5625 -0.390625 23.046875 -0.390625 
Q 18.015625 -0.390625 14.421875 1.296875 
Q 10.84375 2.984375 8.5625 6.34375 
Q 6.296875 9.71875 5.25 14.71875 
Q 4.203125 19.734375 4.203125 26.3125 
Q 4.203125 32.671875 5.25 37.75 
Q 6.296875 42.828125 8.65625 46.359375 
Q 11.03125 49.90625 14.8125 51.78125 
Q 18.609375 53.65625 24.03125 53.65625 
Q 29.640625 53.65625 33.765625 51.09375 
Q 37.890625 48.53125 40.140625 43.796875 
L 40.234375 43.796875 
Q 40.234375 45.015625 40.296875 46.53125 
Q 40.375 48.046875 40.453125 49.390625 
Q 40.53125 50.734375 40.625 51.703125 
Q 40.71875 52.6875 40.828125 52.828125 
L 49.171875 52.828125 
Q 49.125 52.390625 49.078125 51.34375 
Q 49.03125 50.296875 48.96875 48.828125 
Q 48.921875 47.359375 48.890625 45.578125 
Q 48.875 43.796875 48.875 41.890625 
L 48.875 1.515625 
Q 48.875 -9.578125 43.421875 -15.15625 
Q 37.984375 -20.75 26.765625 -20.75 
z
M 40.140625 26.421875 
Q 40.140625 31.9375 38.9375 35.859375 
Q 37.75 39.796875 35.796875 42.28125 
Q 33.84375 44.78125 31.328125 45.953125 
Q 28.8125 47.125 26.171875 47.125 
Q 22.796875 47.125 20.375 45.953125 
Q 17.96875 44.78125 16.375 42.265625 
Q 14.796875 39.75 14.03125 35.8125 
Q 13.28125 31.890625 13.28125 26.421875 
Q 13.28125 20.703125 14.03125 16.8125 
Q 14.796875 12.9375 16.359375 10.546875 
Q 17.921875 8.15625 20.3125 7.125 
Q 22.703125 6.109375 26.03125 6.109375 
Q 28.65625 6.109375 31.171875 7.21875 
Q 33.6875 8.34375 35.6875 10.78125 
Q 37.703125 13.234375 38.921875 17.09375 
Q 40.140625 20.953125 40.140625 26.421875 
z
" id="LiberationSans-103"/>
       <path d="M 51.421875 26.46875 
Q 51.421875 12.59375 45.3125 5.796875 
Q 39.203125 -0.984375 27.59375 -0.984375 
Q 22.078125 -0.984375 17.71875 0.671875 
Q 13.375 2.34375 10.375 5.765625 
Q 7.375 9.1875 5.78125 14.328125 
Q 4.203125 19.484375 4.203125 26.46875 
Q 4.203125 53.8125 27.875 53.8125 
Q 34.03125 53.8125 38.5 52.09375 
Q 42.96875 50.390625 45.828125 46.96875 
Q 48.6875 43.5625 50.046875 38.421875 
Q 51.421875 33.296875 51.421875 26.46875 
z
M 42.1875 26.46875 
Q 42.1875 32.625 41.234375 36.625 
Q 40.28125 40.625 38.453125 43.015625 
Q 36.625 45.40625 33.984375 46.359375 
Q 31.34375 47.3125 28.03125 47.3125 
Q 24.65625 47.3125 21.9375 46.3125 
Q 19.234375 45.3125 17.328125 42.890625 
Q 15.4375 40.484375 14.421875 36.46875 
Q 13.421875 32.46875 13.421875 26.46875 
Q 13.421875 20.3125 14.5 16.28125 
Q 15.578125 12.25 17.453125 9.859375 
Q 19.34375 7.46875 21.90625 6.484375 
Q 24.46875 5.515625 27.484375 5.515625 
Q 30.859375 5.515625 33.59375 6.46875 
Q 36.328125 7.421875 38.234375 9.8125 
Q 40.140625 12.203125 41.15625 16.25 
Q 42.1875 20.3125 42.1875 26.46875 
z
" id="LiberationSans-111"/>
       <path d="M 27.046875 0.390625 
Q 25.046875 -0.140625 22.96875 -0.453125 
Q 20.90625 -0.78125 18.171875 -0.78125 
Q 7.625 -0.78125 7.625 11.1875 
L 7.625 46.4375 
L 1.515625 46.4375 
L 1.515625 52.828125 
L 7.953125 52.828125 
L 10.546875 64.65625 
L 16.40625 64.65625 
L 16.40625 52.828125 
L 26.171875 52.828125 
L 26.171875 46.4375 
L 16.40625 46.4375 
L 16.40625 13.09375 
Q 16.40625 9.28125 17.640625 7.734375 
Q 18.890625 6.203125 21.96875 6.203125 
Q 23.25 6.203125 24.4375 6.390625 
Q 25.640625 6.59375 27.046875 6.890625 
z
" id="LiberationSans-116"/>
       <path d="M 6.6875 64.0625 
L 6.6875 72.46875 
L 15.484375 72.46875 
L 15.484375 64.0625 
z
M 6.6875 0 
L 6.6875 52.828125 
L 15.484375 52.828125 
L 15.484375 0 
z
" id="LiberationSans-105"/>
       <path d="M 40.28125 0 
L 40.28125 33.5 
Q 40.28125 37.359375 39.71875 39.9375 
Q 39.15625 42.53125 37.890625 44.109375 
Q 36.625 45.703125 34.546875 46.359375 
Q 32.46875 47.015625 29.390625 47.015625 
Q 26.265625 47.015625 23.75 45.921875 
Q 21.234375 44.828125 19.453125 42.75 
Q 17.671875 40.671875 16.6875 37.625 
Q 15.71875 34.578125 15.71875 30.609375 
L 15.71875 0 
L 6.9375 0 
L 6.9375 41.546875 
Q 6.9375 43.21875 6.90625 45.046875 
Q 6.890625 46.875 6.828125 48.5 
Q 6.78125 50.140625 6.734375 51.3125 
Q 6.6875 52.484375 6.640625 52.828125 
L 14.9375 52.828125 
Q 14.984375 52.59375 15.03125 51.515625 
Q 15.09375 50.4375 15.15625 49.046875 
Q 15.234375 47.65625 15.28125 46.21875 
Q 15.328125 44.78125 15.328125 43.796875 
L 15.484375 43.796875 
Q 16.75 46.09375 18.265625 47.953125 
Q 19.78125 49.8125 21.78125 51.09375 
Q 23.78125 52.390625 26.359375 53.09375 
Q 28.953125 53.8125 32.375 53.8125 
Q 36.765625 53.8125 39.9375 52.734375 
Q 43.109375 51.65625 45.15625 49.40625 
Q 47.21875 47.171875 48.171875 43.625 
Q 49.125 40.09375 49.125 35.203125 
L 49.125 0 
z
" id="LiberationSans-110"/>
      </defs>
      <use xlink:href="#LiberationSans-69"/>
      <use x="66.699219" xlink:href="#LiberationSans-103"/>
      <use x="122.314453" xlink:href="#LiberationSans-111"/>
      <use x="177.929688" xlink:href="#LiberationSans-109"/>
      <use x="261.230469" xlink:href="#LiberationSans-111"/>
      <use x="316.845703" xlink:href="#LiberationSans-116"/>
      <use x="344.628906" xlink:href="#LiberationSans-105"/>
      <use x="366.845703" xlink:href="#LiberationSans-111"/>
      <use x="422.460938" xlink:href="#LiberationSans-110"/>
     </g>
    </g>
    <g id="line2d_19">
     <path d="M 66.6 68.54075 
L 86.6 68.54075 
" style="fill:none;stroke:#cf5044;stroke-linecap:round;stroke-width:1.5;"/>
    </g>
    <g id="line2d_20"/>
    <g id="text_18">
     <!-- Visual -->
     <g style="fill:#ffffff;" transform="translate(94.6 72.04075)scale(0.1 -0.1)">
      <defs>
       <path d="M 38.1875 0 
L 28.515625 0 
L 0.4375 68.796875 
L 10.25 68.796875 
L 29.296875 20.359375 
Q 30.03125 18.171875 30.765625 15.984375 
Q 31.5 13.8125 32.078125 12.109375 
Q 32.765625 10.109375 33.40625 8.203125 
Q 33.984375 10.015625 34.671875 12.015625 
Q 35.25 13.71875 35.953125 15.859375 
Q 36.671875 18.015625 37.5 20.359375 
L 56.453125 68.796875 
L 66.265625 68.796875 
z
" id="LiberationSans-86"/>
       <path d="M 15.328125 52.828125 
L 15.328125 19.34375 
Q 15.328125 15.484375 15.890625 12.890625 
Q 16.453125 10.296875 17.71875 8.703125 
Q 19 7.125 21.0625 6.46875 
Q 23.140625 5.8125 26.21875 5.8125 
Q 29.34375 5.8125 31.859375 6.90625 
Q 34.375 8.015625 36.15625 10.078125 
Q 37.9375 12.15625 38.90625 15.203125 
Q 39.890625 18.265625 39.890625 22.21875 
L 39.890625 52.828125 
L 48.6875 52.828125 
L 48.6875 11.28125 
Q 48.6875 9.625 48.703125 7.78125 
Q 48.734375 5.953125 48.78125 4.3125 
Q 48.828125 2.6875 48.875 1.515625 
Q 48.921875 0.34375 48.96875 0 
L 40.671875 0 
Q 40.625 0.25 40.578125 1.3125 
Q 40.53125 2.390625 40.453125 3.78125 
Q 40.375 5.171875 40.328125 6.609375 
Q 40.28125 8.0625 40.28125 9.03125 
L 40.140625 9.03125 
Q 38.875 6.734375 37.359375 4.875 
Q 35.84375 3.03125 33.84375 1.734375 
Q 31.84375 0.4375 29.25 -0.265625 
Q 26.65625 -0.984375 23.25 -0.984375 
Q 18.84375 -0.984375 15.671875 0.09375 
Q 12.5 1.171875 10.453125 3.421875 
Q 8.40625 5.671875 7.453125 9.1875 
Q 6.5 12.703125 6.5 17.625 
L 6.5 52.828125 
z
" id="LiberationSans-117"/>
       <path d="M 20.21875 -0.984375 
Q 12.25 -0.984375 8.25 3.21875 
Q 4.25 7.421875 4.25 14.75 
Q 4.25 19.96875 6.21875 23.3125 
Q 8.203125 26.65625 11.390625 28.5625 
Q 14.59375 30.46875 18.6875 31.203125 
Q 22.796875 31.9375 27.046875 32.03125 
L 38.921875 32.234375 
L 38.921875 35.109375 
Q 38.921875 38.375 38.234375 40.671875 
Q 37.546875 42.96875 36.125 44.375 
Q 34.71875 45.796875 32.59375 46.453125 
Q 30.46875 47.125 27.59375 47.125 
Q 25.046875 47.125 23 46.75 
Q 20.953125 46.390625 19.4375 45.4375 
Q 17.921875 44.484375 16.984375 42.84375 
Q 16.0625 41.21875 15.765625 38.71875 
L 6.59375 39.546875 
Q 7.078125 42.671875 8.4375 45.28125 
Q 9.8125 47.90625 12.328125 49.796875 
Q 14.84375 51.703125 18.625 52.75 
Q 22.40625 53.8125 27.78125 53.8125 
Q 37.75 53.8125 42.765625 49.234375 
Q 47.796875 44.671875 47.796875 36.03125 
L 47.796875 13.28125 
Q 47.796875 9.375 48.828125 7.390625 
Q 49.859375 5.421875 52.734375 5.421875 
Q 53.46875 5.421875 54.203125 5.515625 
Q 54.9375 5.609375 55.609375 5.765625 
L 55.609375 0.296875 
Q 53.953125 -0.09375 52.3125 -0.28125 
Q 50.6875 -0.484375 48.828125 -0.484375 
Q 46.34375 -0.484375 44.5625 0.171875 
Q 42.78125 0.828125 41.65625 2.171875 
Q 40.53125 3.515625 39.9375 5.484375 
Q 39.359375 7.46875 39.203125 10.109375 
L 38.921875 10.109375 
Q 37.5 7.5625 35.8125 5.515625 
Q 34.125 3.46875 31.875 2.03125 
Q 29.640625 0.59375 26.78125 -0.1875 
Q 23.921875 -0.984375 20.21875 -0.984375 
z
M 22.21875 5.609375 
Q 26.421875 5.609375 29.5625 7.140625 
Q 32.71875 8.6875 34.78125 11.078125 
Q 36.859375 13.484375 37.890625 16.3125 
Q 38.921875 19.140625 38.921875 21.734375 
L 38.921875 26.078125 
L 29.296875 25.875 
Q 26.078125 25.828125 23.171875 25.40625 
Q 20.265625 25 18.0625 23.78125 
Q 15.875 22.5625 14.578125 20.359375 
Q 13.28125 18.171875 13.28125 14.59375 
Q 13.28125 10.296875 15.59375 7.953125 
Q 17.921875 5.609375 22.21875 5.609375 
z
" id="LiberationSans-97"/>
       <path d="M 6.734375 0 
L 6.734375 72.46875 
L 15.53125 72.46875 
L 15.53125 0 
z
" id="LiberationSans-108"/>
      </defs>
      <use xlink:href="#LiberationSans-86"/>
      <use x="64.949219" xlink:href="#LiberationSans-105"/>
      <use x="87.166016" xlink:href="#LiberationSans-115"/>
      <use x="137.166016" xlink:href="#LiberationSans-117"/>
      <use x="192.78125" xlink:href="#LiberationSans-97"/>
      <use x="248.396484" xlink:href="#LiberationSans-108"/>
     </g>
    </g>
   </g>
  </g>
  <g id="text_19">
   <!-- Decoding performance -->
   <g style="fill:#ffffff;" transform="translate(169.704375 15.60825)scale(0.12 -0.12)">
    <defs>
     <path d="M 67.4375 35.109375 
Q 67.4375 26.515625 64.84375 19.9375 
Q 62.25 13.375 57.75 8.953125 
Q 53.265625 4.546875 47.140625 2.265625 
Q 41.015625 0 33.9375 0 
L 8.203125 0 
L 8.203125 68.796875 
L 30.953125 68.796875 
Q 38.921875 68.796875 45.625 66.8125 
Q 52.34375 64.84375 57.171875 60.71875 
Q 62.015625 56.59375 64.71875 50.234375 
Q 67.4375 43.890625 67.4375 35.109375 
z
M 58.0625 35.109375 
Q 58.0625 42.09375 56.046875 47.046875 
Q 54.046875 52 50.4375 55.171875 
Q 46.828125 58.34375 41.796875 59.828125 
Q 36.765625 61.328125 30.765625 61.328125 
L 17.53125 61.328125 
L 17.53125 7.46875 
L 32.859375 7.46875 
Q 38.28125 7.46875 42.890625 9.21875 
Q 47.515625 10.984375 50.875 14.453125 
Q 54.25 17.921875 56.15625 23.09375 
Q 58.0625 28.265625 58.0625 35.109375 
z
" id="LiberationSans-68"/>
     <path d="M 13.484375 24.5625 
Q 13.484375 20.40625 14.328125 16.90625 
Q 15.1875 13.421875 16.96875 10.90625 
Q 18.75 8.40625 21.53125 7 
Q 24.3125 5.609375 28.21875 5.609375 
Q 33.9375 5.609375 37.375 7.90625 
Q 40.828125 10.203125 42.046875 13.71875 
L 49.75 11.53125 
Q 48.921875 9.328125 47.4375 7.109375 
Q 45.953125 4.890625 43.453125 3.09375 
Q 40.96875 1.3125 37.234375 0.15625 
Q 33.5 -0.984375 28.21875 -0.984375 
Q 16.5 -0.984375 10.375 6 
Q 4.25 12.984375 4.25 26.765625 
Q 4.25 34.1875 6.09375 39.328125 
Q 7.953125 44.484375 11.171875 47.703125 
Q 14.40625 50.921875 18.703125 52.359375 
Q 23 53.8125 27.875 53.8125 
Q 34.515625 53.8125 38.984375 51.65625 
Q 43.453125 49.515625 46.15625 45.71875 
Q 48.875 41.9375 50.015625 36.8125 
Q 51.171875 31.6875 51.171875 25.734375 
L 51.171875 24.5625 
z
M 42.09375 31.296875 
Q 41.359375 39.65625 37.84375 43.484375 
Q 34.328125 47.3125 27.734375 47.3125 
Q 25.53125 47.3125 23.109375 46.609375 
Q 20.703125 45.90625 18.65625 44.09375 
Q 16.609375 42.28125 15.1875 39.171875 
Q 13.765625 36.078125 13.578125 31.296875 
z
" id="LiberationSans-101"/>
     <path d="M 13.421875 26.65625 
Q 13.421875 22.125 14.078125 18.3125 
Q 14.75 14.5 16.3125 11.734375 
Q 17.875 8.984375 20.4375 7.46875 
Q 23 5.953125 26.765625 5.953125 
Q 31.453125 5.953125 34.59375 8.484375 
Q 37.75 11.03125 38.484375 16.3125 
L 47.359375 15.71875 
Q 46.921875 12.453125 45.453125 9.421875 
Q 44 6.390625 41.484375 4.09375 
Q 38.96875 1.8125 35.34375 0.40625 
Q 31.734375 -0.984375 27 -0.984375 
Q 20.796875 -0.984375 16.453125 1.109375 
Q 12.109375 3.21875 9.390625 6.90625 
Q 6.6875 10.59375 5.46875 15.59375 
Q 4.25 20.609375 4.25 26.46875 
Q 4.25 31.78125 5.125 35.859375 
Q 6 39.9375 7.59375 42.984375 
Q 9.1875 46.046875 11.328125 48.125 
Q 13.484375 50.203125 15.984375 51.4375 
Q 18.5 52.6875 21.28125 53.25 
Q 24.078125 53.8125 26.90625 53.8125 
Q 31.34375 53.8125 34.8125 52.59375 
Q 38.28125 51.375 40.796875 49.25 
Q 43.3125 47.125 44.875 44.234375 
Q 46.4375 41.359375 47.078125 38.03125 
L 38.03125 37.359375 
Q 37.359375 41.75 34.5625 44.328125 
Q 31.78125 46.921875 26.65625 46.921875 
Q 22.90625 46.921875 20.390625 45.671875 
Q 17.875 44.4375 16.3125 41.921875 
Q 14.75 39.40625 14.078125 35.59375 
Q 13.421875 31.78125 13.421875 26.65625 
z
" id="LiberationSans-99"/>
     <path d="M 40.09375 8.5 
Q 37.640625 3.421875 33.609375 1.21875 
Q 29.59375 -0.984375 23.640625 -0.984375 
Q 13.625 -0.984375 8.90625 5.75 
Q 4.203125 12.5 4.203125 26.171875 
Q 4.203125 53.8125 23.640625 53.8125 
Q 29.640625 53.8125 33.640625 51.609375 
Q 37.640625 49.421875 40.09375 44.625 
L 40.1875 44.625 
Q 40.1875 45.125 40.15625 46.171875 
Q 40.140625 47.21875 40.109375 48.359375 
Q 40.09375 49.515625 40.09375 50.53125 
Q 40.09375 51.5625 40.09375 52 
L 40.09375 72.46875 
L 48.875 72.46875 
L 48.875 10.890625 
Q 48.875 8.984375 48.890625 7.21875 
Q 48.921875 5.46875 48.96875 4 
Q 49.03125 2.546875 49.078125 1.484375 
Q 49.125 0.4375 49.171875 0 
L 40.765625 0 
Q 40.671875 0.484375 40.59375 1.390625 
Q 40.53125 2.296875 40.453125 3.46875 
Q 40.375 4.640625 40.328125 5.9375 
Q 40.28125 7.234375 40.28125 8.5 
z
M 13.421875 26.46875 
Q 13.421875 21 14.109375 17.09375 
Q 14.796875 13.1875 16.3125 10.671875 
Q 17.828125 8.15625 20.171875 6.984375 
Q 22.515625 5.8125 25.875 5.8125 
Q 29.34375 5.8125 32 6.9375 
Q 34.671875 8.0625 36.453125 10.578125 
Q 38.234375 13.09375 39.15625 17.140625 
Q 40.09375 21.1875 40.09375 27.046875 
Q 40.09375 32.671875 39.15625 36.546875 
Q 38.234375 40.4375 36.421875 42.828125 
Q 34.625 45.21875 32 46.265625 
Q 29.390625 47.3125 25.984375 47.3125 
Q 22.75 47.3125 20.40625 46.1875 
Q 18.0625 45.0625 16.5 42.578125 
Q 14.9375 40.09375 14.171875 36.109375 
Q 13.421875 32.125 13.421875 26.46875 
z
" id="LiberationSans-100"/>
     <path d="M 51.421875 26.65625 
Q 51.421875 20.65625 50.4375 15.578125 
Q 49.46875 10.5 47.1875 6.828125 
Q 44.921875 3.171875 41.1875 1.09375 
Q 37.453125 -0.984375 31.984375 -0.984375 
Q 26.3125 -0.984375 22.0625 1.171875 
Q 17.828125 3.328125 15.578125 8.203125 
L 15.328125 8.203125 
Q 15.375 8.109375 15.40625 7.328125 
Q 15.4375 6.546875 15.453125 5.375 
Q 15.484375 4.203125 15.5 2.75 
Q 15.53125 1.3125 15.53125 -0.09375 
L 15.53125 -20.75 
L 6.734375 -20.75 
L 6.734375 42.046875 
Q 6.734375 43.953125 6.703125 45.703125 
Q 6.6875 47.46875 6.640625 48.90625 
Q 6.59375 50.34375 6.546875 51.359375 
Q 6.5 52.390625 6.453125 52.828125 
L 14.9375 52.828125 
Q 14.984375 52.6875 15.0625 51.796875 
Q 15.140625 50.921875 15.203125 49.671875 
Q 15.28125 48.4375 15.359375 47.015625 
Q 15.4375 45.609375 15.4375 44.34375 
L 15.625 44.34375 
Q 16.84375 46.875 18.40625 48.65625 
Q 19.96875 50.4375 21.96875 51.578125 
Q 23.96875 52.734375 26.4375 53.25 
Q 28.90625 53.765625 31.984375 53.765625 
Q 37.453125 53.765625 41.1875 51.8125 
Q 44.921875 49.859375 47.1875 46.3125 
Q 49.46875 42.78125 50.4375 37.765625 
Q 51.421875 32.765625 51.421875 26.65625 
z
M 42.1875 26.46875 
Q 42.1875 31.34375 41.59375 35.15625 
Q 41.015625 38.96875 39.578125 41.59375 
Q 38.140625 44.234375 35.734375 45.59375 
Q 33.34375 46.96875 29.734375 46.96875 
Q 26.8125 46.96875 24.21875 46.140625 
Q 21.625 45.3125 19.703125 42.96875 
Q 17.78125 40.625 16.65625 36.5 
Q 15.53125 32.375 15.53125 25.78125 
Q 15.53125 20.171875 16.453125 16.28125 
Q 17.390625 12.40625 19.171875 10.015625 
Q 20.953125 7.625 23.578125 6.5625 
Q 26.21875 5.515625 29.640625 5.515625 
Q 33.296875 5.515625 35.71875 6.921875 
Q 38.140625 8.34375 39.578125 11.03125 
Q 41.015625 13.71875 41.59375 17.59375 
Q 42.1875 21.484375 42.1875 26.46875 
z
" id="LiberationSans-112"/>
     <path d="M 6.9375 0 
L 6.9375 40.53125 
Q 6.9375 42.1875 6.90625 43.921875 
Q 6.890625 45.65625 6.828125 47.265625 
Q 6.78125 48.875 6.734375 50.28125 
Q 6.6875 51.703125 6.640625 52.828125 
L 14.9375 52.828125 
Q 14.984375 51.703125 15.0625 50.265625 
Q 15.140625 48.828125 15.203125 47.3125 
Q 15.28125 45.796875 15.296875 44.40625 
Q 15.328125 43.015625 15.328125 42.046875 
L 15.53125 42.046875 
Q 16.453125 45.0625 17.5 47.28125 
Q 18.5625 49.515625 19.96875 50.953125 
Q 21.390625 52.390625 23.34375 53.09375 
Q 25.296875 53.8125 28.078125 53.8125 
Q 29.15625 53.8125 30.125 53.640625 
Q 31.109375 53.46875 31.640625 53.328125 
L 31.640625 45.265625 
Q 30.765625 45.515625 29.59375 45.625 
Q 28.421875 45.75 26.953125 45.75 
Q 23.921875 45.75 21.796875 44.375 
Q 19.671875 43.015625 18.328125 40.59375 
Q 17 38.1875 16.359375 34.84375 
Q 15.71875 31.5 15.71875 27.546875 
L 15.71875 0 
z
" id="LiberationSans-114"/>
     <path d="M 17.625 46.4375 
L 17.625 0 
L 8.84375 0 
L 8.84375 46.4375 
L 1.421875 46.4375 
L 1.421875 52.828125 
L 8.84375 52.828125 
L 8.84375 58.796875 
Q 8.84375 61.671875 9.375 64.140625 
Q 9.90625 66.609375 11.34375 68.4375 
Q 12.796875 70.265625 15.28125 71.3125 
Q 17.78125 72.359375 21.734375 72.359375 
Q 23.296875 72.359375 24.96875 72.21875 
Q 26.65625 72.078125 27.9375 71.78125 
L 27.9375 65.09375 
Q 27.09375 65.234375 26 65.359375 
Q 24.90625 65.484375 24.03125 65.484375 
Q 22.078125 65.484375 20.828125 64.9375 
Q 19.578125 64.40625 18.875 63.40625 
Q 18.171875 62.40625 17.890625 60.9375 
Q 17.625 59.46875 17.625 57.5625 
L 17.625 52.828125 
L 27.9375 52.828125 
L 27.9375 46.4375 
z
" id="LiberationSans-102"/>
    </defs>
    <use xlink:href="#LiberationSans-68"/>
    <use x="72.216797" xlink:href="#LiberationSans-101"/>
    <use x="127.832031" xlink:href="#LiberationSans-99"/>
    <use x="177.832031" xlink:href="#LiberationSans-111"/>
    <use x="233.447266" xlink:href="#LiberationSans-100"/>
    <use x="289.0625" xlink:href="#LiberationSans-105"/>
    <use x="311.279297" xlink:href="#LiberationSans-110"/>
    <use x="366.894531" xlink:href="#LiberationSans-103"/>
    <use x="422.509766" xlink:href="#LiberationSans-32"/>
    <use x="450.292969" xlink:href="#LiberationSans-112"/>
    <use x="505.908203" xlink:href="#LiberationSans-101"/>
    <use x="561.523438" xlink:href="#LiberationSans-114"/>
    <use x="594.824219" xlink:href="#LiberationSans-102"/>
    <use x="622.607422" xlink:href="#LiberationSans-111"/>
    <use x="678.222656" xlink:href="#LiberationSans-114"/>
    <use x="711.523438" xlink:href="#LiberationSans-109"/>
    <use x="794.824219" xlink:href="#LiberationSans-97"/>
    <use x="850.439453" xlink:href="#LiberationSans-110"/>
    <use x="906.054688" xlink:href="#LiberationSans-99"/>
    <use x="956.054688" xlink:href="#LiberationSans-101"/>
   </g>
  </g>
 </g>
 <defs>
  <clipPath id="p0ecdc7cc02">
   <rect height="266.112" width="357.12" x="57.6" y="41.472"/>
  </clipPath>
 </defs>
</svg>
