<?xml version="1.0" encoding="utf-8" standalone="no"?>
<!DOCTYPE svg PUBLIC "-//W3C//DTD SVG 1.1//EN"
  "http://www.w3.org/Graphics/SVG/1.1/DTD/svg11.dtd">
<!-- Created with matplotlib (https://matplotlib.org/) -->
<svg height="345.6pt" version="1.1" viewBox="0 0 460.8 345.6" width="460.8pt" xmlns="http://www.w3.org/2000/svg" xmlns:xlink="http://www.w3.org/1999/xlink">
 <metadata>
  <rdf:RDF xmlns:cc="http://creativecommons.org/ns#" xmlns:dc="http://purl.org/dc/elements/1.1/" xmlns:rdf="http://www.w3.org/1999/02/22-rdf-syntax-ns#">
   <cc:Work>
    <dc:type rdf:resource="http://purl.org/dc/dcmitype/StillImage"/>
    <dc:date>2022-05-06T11:31:09.094407</dc:date>
    <dc:format>image/svg+xml</dc:format>
    <dc:creator>
     <cc:Agent>
      <dc:title>Matplotlib v3.3.4, https://matplotlib.org/</dc:title>
     </cc:Agent>
    </dc:creator>
   </cc:Work>
  </rdf:RDF>
 </metadata>
 <defs>
  <style type="text/css">*{stroke-linecap:butt;stroke-linejoin:round;}</style>
 </defs>
 <g id="figure_1">
  <g id="patch_1">
   <path d="M 0 345.6 
L 460.8 345.6 
L 460.8 0 
L 0 0 
z
" style="fill:#262626;"/>
  </g>
  <g id="axes_1">
   <g id="patch_2">
    <path d="M 57.6 162.432 
L 414.72 162.432 
L 414.72 41.472 
L 57.6 41.472 
z
" style="fill:#1a1a1a;"/>
   </g>
   <g id="matplotlib.axis_1">
    <g id="xtick_1">
     <g id="line2d_1">
      <defs>
       <path d="M 0 0 
L 0 3.5 
" id="me72d720991" style="stroke:#ffffff;stroke-width:0.8;"/>
      </defs>
      <g>
       <use style="fill:#ffffff;stroke:#ffffff;stroke-width:0.8;" x="73.832727" xlink:href="#me72d720991" y="162.432"/>
      </g>
     </g>
     <g id="text_1">
      <!-- 0 -->
      <g style="fill:#ffffff;" transform="translate(71.052259 176.678875)scale(0.1 -0.1)">
       <defs>
        <path d="M 51.703125 34.421875 
Q 51.703125 24.515625 49.828125 17.75 
Q 47.953125 10.984375 44.703125 6.8125 
Q 41.453125 2.640625 37.0625 0.828125 
Q 32.671875 -0.984375 27.6875 -0.984375 
Q 22.65625 -0.984375 18.3125 0.828125 
Q 13.96875 2.640625 10.765625 6.78125 
Q 7.5625 10.9375 5.734375 17.703125 
Q 3.90625 24.46875 3.90625 34.421875 
Q 3.90625 44.828125 5.734375 51.640625 
Q 7.5625 58.453125 10.78125 62.5 
Q 14.015625 66.546875 18.40625 68.1875 
Q 22.796875 69.828125 27.984375 69.828125 
Q 32.90625 69.828125 37.21875 68.1875 
Q 41.546875 66.546875 44.765625 62.5 
Q 48 58.453125 49.84375 51.640625 
Q 51.703125 44.828125 51.703125 34.421875 
z
M 42.78125 34.421875 
Q 42.78125 42.625 41.796875 48.0625 
Q 40.828125 53.515625 38.921875 56.765625 
Q 37.015625 60.015625 34.25 61.359375 
Q 31.5 62.703125 27.984375 62.703125 
Q 24.265625 62.703125 21.4375 61.328125 
Q 18.609375 59.96875 16.671875 56.71875 
Q 14.75 53.46875 13.765625 48.015625 
Q 12.796875 42.578125 12.796875 34.421875 
Q 12.796875 26.515625 13.796875 21.09375 
Q 14.796875 15.671875 16.71875 12.375 
Q 18.65625 9.078125 21.4375 7.640625 
Q 24.21875 6.203125 27.78125 6.203125 
Q 31.25 6.203125 34.03125 7.640625 
Q 36.8125 9.078125 38.734375 12.375 
Q 40.671875 15.671875 41.71875 21.09375 
Q 42.78125 26.515625 42.78125 34.421875 
z
" id="LiberationSans-48"/>
       </defs>
       <use xlink:href="#LiberationSans-48"/>
      </g>
     </g>
    </g>
    <g id="xtick_2">
     <g id="line2d_2">
      <g>
       <use style="fill:#ffffff;stroke:#ffffff;stroke-width:0.8;" x="138.776625" xlink:href="#me72d720991" y="162.432"/>
      </g>
     </g>
     <g id="text_2">
      <!-- 200 -->
      <g style="fill:#ffffff;" transform="translate(130.435219 176.678875)scale(0.1 -0.1)">
       <defs>
        <path d="M 5.03125 0 
L 5.03125 6.203125 
Q 7.515625 11.921875 11.109375 16.28125 
Q 14.703125 20.65625 18.65625 24.1875 
Q 22.609375 27.734375 26.484375 30.765625 
Q 30.375 33.796875 33.5 36.8125 
Q 36.625 39.84375 38.546875 43.15625 
Q 40.484375 46.484375 40.484375 50.6875 
Q 40.484375 53.609375 39.59375 55.828125 
Q 38.71875 58.0625 37.0625 59.5625 
Q 35.40625 61.078125 33.078125 61.828125 
Q 30.765625 62.59375 27.9375 62.59375 
Q 25.296875 62.59375 22.96875 61.859375 
Q 20.65625 61.140625 18.84375 59.671875 
Q 17.046875 58.203125 15.890625 56.03125 
Q 14.75 53.859375 14.40625 50.984375 
L 5.421875 51.8125 
Q 5.859375 55.515625 7.46875 58.78125 
Q 9.078125 62.0625 11.90625 64.53125 
Q 14.75 67 18.71875 68.40625 
Q 22.703125 69.828125 27.9375 69.828125 
Q 33.0625 69.828125 37.0625 68.609375 
Q 41.0625 67.390625 43.8125 64.984375 
Q 46.578125 62.59375 48.046875 59.078125 
Q 49.515625 55.5625 49.515625 50.984375 
Q 49.515625 47.515625 48.265625 44.390625 
Q 47.015625 41.265625 44.9375 38.421875 
Q 42.875 35.59375 40.140625 32.953125 
Q 37.40625 30.328125 34.421875 27.8125 
Q 31.453125 25.296875 28.421875 22.828125 
Q 25.390625 20.359375 22.71875 17.859375 
Q 20.0625 15.375 17.96875 12.8125 
Q 15.875 10.25 14.703125 7.46875 
L 50.59375 7.46875 
L 50.59375 0 
z
" id="LiberationSans-50"/>
       </defs>
       <use xlink:href="#LiberationSans-50"/>
       <use x="55.615234" xlink:href="#LiberationSans-48"/>
       <use x="111.230469" xlink:href="#LiberationSans-48"/>
      </g>
     </g>
    </g>
    <g id="xtick_3">
     <g id="line2d_3">
      <g>
       <use style="fill:#ffffff;stroke:#ffffff;stroke-width:0.8;" x="203.720523" xlink:href="#me72d720991" y="162.432"/>
      </g>
     </g>
     <g id="text_3">
      <!-- 400 -->
      <g style="fill:#ffffff;" transform="translate(195.379117 176.678875)scale(0.1 -0.1)">
       <defs>
        <path d="M 43.015625 15.578125 
L 43.015625 0 
L 34.71875 0 
L 34.71875 15.578125 
L 2.296875 15.578125 
L 2.296875 22.40625 
L 33.796875 68.796875 
L 43.015625 68.796875 
L 43.015625 22.515625 
L 52.6875 22.515625 
L 52.6875 15.578125 
z
M 34.71875 58.890625 
Q 34.625 58.640625 34.234375 57.9375 
Q 33.84375 57.234375 33.34375 56.34375 
Q 32.859375 55.46875 32.34375 54.5625 
Q 31.84375 53.65625 31.453125 53.078125 
L 13.8125 27.09375 
Q 13.578125 26.703125 13.109375 26.0625 
Q 12.640625 25.4375 12.15625 24.78125 
Q 11.671875 24.125 11.171875 23.484375 
Q 10.6875 22.859375 10.40625 22.515625 
L 34.71875 22.515625 
z
" id="LiberationSans-52"/>
       </defs>
       <use xlink:href="#LiberationSans-52"/>
       <use x="55.615234" xlink:href="#LiberationSans-48"/>
       <use x="111.230469" xlink:href="#LiberationSans-48"/>
      </g>
     </g>
    </g>
    <g id="xtick_4">
     <g id="line2d_4">
      <g>
       <use style="fill:#ffffff;stroke:#ffffff;stroke-width:0.8;" x="268.664421" xlink:href="#me72d720991" y="162.432"/>
      </g>
     </g>
     <g id="text_4">
      <!-- 600 -->
      <g style="fill:#ffffff;" transform="translate(260.323015 176.678875)scale(0.1 -0.1)">
       <defs>
        <path d="M 51.21875 22.515625 
Q 51.21875 17.328125 49.78125 13 
Q 48.34375 8.6875 45.53125 5.578125 
Q 42.71875 2.484375 38.5625 0.75 
Q 34.421875 -0.984375 29 -0.984375 
Q 23 -0.984375 18.5 1.3125 
Q 14.015625 3.609375 11.03125 7.921875 
Q 8.0625 12.25 6.5625 18.53125 
Q 5.078125 24.8125 5.078125 32.8125 
Q 5.078125 42 6.765625 48.921875 
Q 8.453125 55.859375 11.625 60.5 
Q 14.796875 65.140625 19.359375 67.484375 
Q 23.921875 69.828125 29.6875 69.828125 
Q 33.203125 69.828125 36.28125 69.09375 
Q 39.359375 68.359375 41.875 66.71875 
Q 44.390625 65.09375 46.28125 62.40625 
Q 48.1875 59.71875 49.3125 55.8125 
L 40.921875 54.296875 
Q 39.546875 58.734375 36.546875 60.71875 
Q 33.546875 62.703125 29.59375 62.703125 
Q 25.984375 62.703125 23.046875 60.984375 
Q 20.125 59.28125 18.0625 55.875 
Q 16.015625 52.484375 14.90625 47.359375 
Q 13.8125 42.234375 13.8125 35.40625 
Q 16.21875 39.84375 20.5625 42.15625 
Q 24.90625 44.484375 30.515625 44.484375 
Q 35.203125 44.484375 39.015625 42.96875 
Q 42.828125 41.453125 45.53125 38.59375 
Q 48.25 35.75 49.734375 31.671875 
Q 51.21875 27.59375 51.21875 22.515625 
z
M 42.28125 22.125 
Q 42.28125 25.6875 41.40625 28.5625 
Q 40.53125 31.453125 38.765625 33.46875 
Q 37.015625 35.5 34.421875 36.59375 
Q 31.84375 37.703125 28.421875 37.703125 
Q 26.03125 37.703125 23.578125 36.984375 
Q 21.140625 36.28125 19.15625 34.6875 
Q 17.1875 33.109375 15.9375 30.515625 
Q 14.703125 27.9375 14.703125 24.21875 
Q 14.703125 20.40625 15.671875 17.109375 
Q 16.65625 13.8125 18.484375 11.375 
Q 20.3125 8.9375 22.890625 7.515625 
Q 25.484375 6.109375 28.71875 6.109375 
Q 31.890625 6.109375 34.40625 7.203125 
Q 36.921875 8.296875 38.671875 10.375 
Q 40.4375 12.453125 41.359375 15.421875 
Q 42.28125 18.40625 42.28125 22.125 
z
" id="LiberationSans-54"/>
       </defs>
       <use xlink:href="#LiberationSans-54"/>
       <use x="55.615234" xlink:href="#LiberationSans-48"/>
       <use x="111.230469" xlink:href="#LiberationSans-48"/>
      </g>
     </g>
    </g>
    <g id="xtick_5">
     <g id="line2d_5">
      <g>
       <use style="fill:#ffffff;stroke:#ffffff;stroke-width:0.8;" x="333.608319" xlink:href="#me72d720991" y="162.432"/>
      </g>
     </g>
     <g id="text_5">
      <!-- 800 -->
      <g style="fill:#ffffff;" transform="translate(325.266913 176.678875)scale(0.1 -0.1)">
       <defs>
        <path d="M 51.265625 19.1875 
Q 51.265625 14.796875 49.875 11.109375 
Q 48.484375 7.421875 45.625 4.734375 
Q 42.78125 2.046875 38.328125 0.53125 
Q 33.890625 -0.984375 27.828125 -0.984375 
Q 21.78125 -0.984375 17.359375 0.53125 
Q 12.9375 2.046875 10.03125 4.703125 
Q 7.125 7.375 5.734375 11.0625 
Q 4.34375 14.75 4.34375 19.09375 
Q 4.34375 22.859375 5.484375 25.78125 
Q 6.640625 28.71875 8.5625 30.828125 
Q 10.5 32.953125 12.96875 34.25 
Q 15.4375 35.546875 18.0625 35.984375 
L 18.0625 36.1875 
Q 15.1875 36.859375 12.90625 38.375 
Q 10.640625 39.890625 9.09375 42.015625 
Q 7.5625 44.140625 6.75 46.71875 
Q 5.953125 49.3125 5.953125 52.203125 
Q 5.953125 55.8125 7.34375 59 
Q 8.734375 62.203125 11.46875 64.625 
Q 14.203125 67.046875 18.25 68.4375 
Q 22.3125 69.828125 27.640625 69.828125 
Q 33.25 69.828125 37.375 68.40625 
Q 41.5 67 44.203125 64.578125 
Q 46.921875 62.15625 48.234375 58.9375 
Q 49.5625 55.71875 49.5625 52.09375 
Q 49.5625 49.265625 48.75 46.671875 
Q 47.953125 44.09375 46.40625 41.96875 
Q 44.875 39.84375 42.59375 38.34375 
Q 40.328125 36.859375 37.359375 36.28125 
L 37.359375 36.078125 
Q 40.328125 35.59375 42.859375 34.296875 
Q 45.40625 33.015625 47.265625 30.890625 
Q 49.125 28.765625 50.1875 25.828125 
Q 51.265625 22.90625 51.265625 19.1875 
z
M 40.4375 51.609375 
Q 40.4375 54.203125 39.765625 56.34375 
Q 39.109375 58.5 37.59375 60.03125 
Q 36.078125 61.578125 33.640625 62.421875 
Q 31.203125 63.28125 27.640625 63.28125 
Q 24.171875 63.28125 21.78125 62.421875 
Q 19.390625 61.578125 17.84375 60.03125 
Q 16.3125 58.5 15.625 56.34375 
Q 14.9375 54.203125 14.9375 51.609375 
Q 14.9375 49.5625 15.46875 47.40625 
Q 16.015625 45.265625 17.421875 43.5 
Q 18.84375 41.75 21.328125 40.625 
Q 23.828125 39.5 27.734375 39.5 
Q 31.890625 39.5 34.40625 40.625 
Q 36.921875 41.75 38.25 43.5 
Q 39.59375 45.265625 40.015625 47.40625 
Q 40.4375 49.5625 40.4375 51.609375 
z
M 42.140625 20.015625 
Q 42.140625 22.515625 41.453125 24.828125 
Q 40.765625 27.15625 39.109375 28.9375 
Q 37.453125 30.71875 34.640625 31.8125 
Q 31.84375 32.90625 27.640625 32.90625 
Q 23.78125 32.90625 21.0625 31.8125 
Q 18.359375 30.71875 16.671875 28.90625 
Q 14.984375 27.09375 14.203125 24.71875 
Q 13.421875 22.359375 13.421875 19.828125 
Q 13.421875 16.65625 14.203125 14.03125 
Q 14.984375 11.421875 16.6875 9.546875 
Q 18.40625 7.671875 21.1875 6.640625 
Q 23.96875 5.609375 27.9375 5.609375 
Q 31.9375 5.609375 34.671875 6.640625 
Q 37.40625 7.671875 39.0625 9.546875 
Q 40.71875 11.421875 41.421875 14.078125 
Q 42.140625 16.75 42.140625 20.015625 
z
" id="LiberationSans-56"/>
       </defs>
       <use xlink:href="#LiberationSans-56"/>
       <use x="55.615234" xlink:href="#LiberationSans-48"/>
       <use x="111.230469" xlink:href="#LiberationSans-48"/>
      </g>
     </g>
    </g>
    <g id="xtick_6">
     <g id="line2d_6">
      <g>
       <use style="fill:#ffffff;stroke:#ffffff;stroke-width:0.8;" x="398.552217" xlink:href="#me72d720991" y="162.432"/>
      </g>
     </g>
     <g id="text_6">
      <!-- 1000 -->
      <g style="fill:#ffffff;" transform="translate(387.430342 176.678875)scale(0.1 -0.1)">
       <defs>
        <path d="M 7.625 0 
L 7.625 7.46875 
L 25.140625 7.46875 
L 25.140625 60.40625 
L 9.625 49.3125 
L 9.625 57.625 
L 25.875 68.796875 
L 33.984375 68.796875 
L 33.984375 7.46875 
L 50.734375 7.46875 
L 50.734375 0 
z
" id="LiberationSans-49"/>
       </defs>
       <use xlink:href="#LiberationSans-49"/>
       <use x="55.615234" xlink:href="#LiberationSans-48"/>
       <use x="111.230469" xlink:href="#LiberationSans-48"/>
       <use x="166.845703" xlink:href="#LiberationSans-48"/>
      </g>
     </g>
    </g>
   </g>
   <g id="matplotlib.axis_2">
    <g id="ytick_1">
     <g id="line2d_7">
      <defs>
       <path d="M 0 0 
L -3.5 0 
" id="mc116364dbb" style="stroke:#ffffff;stroke-width:0.8;"/>
      </defs>
      <g>
       <use style="fill:#ffffff;stroke:#ffffff;stroke-width:0.8;" x="57.6" xlink:href="#mc116364dbb" y="154.069336"/>
      </g>
     </g>
     <g id="text_7">
      <!-- 0.50 -->
      <g style="fill:#ffffff;" transform="translate(31.139063 157.692774)scale(0.1 -0.1)">
       <defs>
        <path d="M 9.125 0 
L 9.125 10.6875 
L 18.65625 10.6875 
L 18.65625 0 
z
" id="LiberationSans-46"/>
        <path d="M 51.421875 22.40625 
Q 51.421875 17.234375 49.859375 12.9375 
Q 48.296875 8.640625 45.21875 5.53125 
Q 42.140625 2.4375 37.578125 0.71875 
Q 33.015625 -0.984375 27 -0.984375 
Q 21.578125 -0.984375 17.546875 0.28125 
Q 13.53125 1.5625 10.734375 3.78125 
Q 7.953125 6 6.3125 8.984375 
Q 4.6875 11.96875 4 15.375 
L 12.890625 16.40625 
Q 13.421875 14.453125 14.390625 12.625 
Q 15.375 10.796875 17.0625 9.34375 
Q 18.75 7.90625 21.21875 7.046875 
Q 23.6875 6.203125 27.203125 6.203125 
Q 30.609375 6.203125 33.390625 7.25 
Q 36.1875 8.296875 38.15625 10.34375 
Q 40.140625 12.40625 41.203125 15.375 
Q 42.28125 18.359375 42.28125 22.21875 
Q 42.28125 25.390625 41.25 28.046875 
Q 40.234375 30.71875 38.328125 32.640625 
Q 36.421875 34.578125 33.65625 35.640625 
Q 30.90625 36.71875 27.390625 36.71875 
Q 25.203125 36.71875 23.34375 36.328125 
Q 21.484375 35.9375 19.890625 35.25 
Q 18.3125 34.578125 17.015625 33.671875 
Q 15.71875 32.765625 14.59375 31.78125 
L 6 31.78125 
L 8.296875 68.796875 
L 47.40625 68.796875 
L 47.40625 61.328125 
L 16.3125 61.328125 
L 14.984375 39.5 
Q 17.328125 41.3125 20.84375 42.59375 
Q 24.359375 43.890625 29.203125 43.890625 
Q 34.328125 43.890625 38.421875 42.328125 
Q 42.53125 40.765625 45.40625 37.90625 
Q 48.296875 35.0625 49.859375 31.109375 
Q 51.421875 27.15625 51.421875 22.40625 
z
" id="LiberationSans-53"/>
       </defs>
       <use xlink:href="#LiberationSans-48"/>
       <use x="55.615234" xlink:href="#LiberationSans-46"/>
       <use x="83.398438" xlink:href="#LiberationSans-53"/>
       <use x="139.013672" xlink:href="#LiberationSans-48"/>
      </g>
     </g>
    </g>
    <g id="ytick_2">
     <g id="line2d_8">
      <g>
       <use style="fill:#ffffff;stroke:#ffffff;stroke-width:0.8;" x="57.6" xlink:href="#mc116364dbb" y="129.930756"/>
      </g>
     </g>
     <g id="text_8">
      <!-- 0.75 -->
      <g style="fill:#ffffff;" transform="translate(31.139063 133.554194)scale(0.1 -0.1)">
       <defs>
        <path d="M 50.59375 61.671875 
Q 45.40625 53.765625 41.0625 46.453125 
Q 36.71875 39.15625 33.59375 31.75 
Q 30.46875 24.359375 28.734375 16.578125 
Q 27 8.796875 27 0 
L 17.828125 0 
Q 17.828125 8.25 19.78125 16.1875 
Q 21.734375 24.125 25.046875 31.765625 
Q 28.375 39.40625 32.765625 46.78125 
Q 37.15625 54.15625 42.09375 61.328125 
L 5.125 61.328125 
L 5.125 68.796875 
L 50.59375 68.796875 
z
" id="LiberationSans-55"/>
       </defs>
       <use xlink:href="#LiberationSans-48"/>
       <use x="55.615234" xlink:href="#LiberationSans-46"/>
       <use x="83.398438" xlink:href="#LiberationSans-55"/>
       <use x="139.013672" xlink:href="#LiberationSans-53"/>
      </g>
     </g>
    </g>
    <g id="ytick_3">
     <g id="line2d_9">
      <g>
       <use style="fill:#ffffff;stroke:#ffffff;stroke-width:0.8;" x="57.6" xlink:href="#mc116364dbb" y="105.792176"/>
      </g>
     </g>
     <g id="text_9">
      <!-- 1.00 -->
      <g style="fill:#ffffff;" transform="translate(31.139063 109.415614)scale(0.1 -0.1)">
       <use xlink:href="#LiberationSans-49"/>
       <use x="55.615234" xlink:href="#LiberationSans-46"/>
       <use x="83.398438" xlink:href="#LiberationSans-48"/>
       <use x="139.013672" xlink:href="#LiberationSans-48"/>
      </g>
     </g>
    </g>
    <g id="ytick_4">
     <g id="line2d_10">
      <g>
       <use style="fill:#ffffff;stroke:#ffffff;stroke-width:0.8;" x="57.6" xlink:href="#mc116364dbb" y="81.653596"/>
      </g>
     </g>
     <g id="text_10">
      <!-- 1.25 -->
      <g style="fill:#ffffff;" transform="translate(31.139063 85.277034)scale(0.1 -0.1)">
       <use xlink:href="#LiberationSans-49"/>
       <use x="55.615234" xlink:href="#LiberationSans-46"/>
       <use x="83.398438" xlink:href="#LiberationSans-50"/>
       <use x="139.013672" xlink:href="#LiberationSans-53"/>
      </g>
     </g>
    </g>
    <g id="ytick_5">
     <g id="line2d_11">
      <g>
       <use style="fill:#ffffff;stroke:#ffffff;stroke-width:0.8;" x="57.6" xlink:href="#mc116364dbb" y="57.515016"/>
      </g>
     </g>
     <g id="text_11">
      <!-- 1.50 -->
      <g style="fill:#ffffff;" transform="translate(31.139063 61.138454)scale(0.1 -0.1)">
       <use xlink:href="#LiberationSans-49"/>
       <use x="55.615234" xlink:href="#LiberationSans-46"/>
       <use x="83.398438" xlink:href="#LiberationSans-53"/>
       <use x="139.013672" xlink:href="#LiberationSans-48"/>
      </g>
     </g>
    </g>
   </g>
   <g id="line2d_12">
    <path clip-path="url(#pb729ae52e5)" d="M 73.832727 125.959117 
L 74.417222 132.533688 
L 74.482166 57.479179 
L 74.54711 58.920633 
L 75.781044 83.739168 
L 77.014978 104.263083 
L 78.248912 121.235522 
L 79.482846 135.271035 
L 80.132285 141.654109 
L 80.197229 66.50885 
L 80.262173 67.860457 
L 81.496107 91.132038 
L 82.730041 110.376684 
L 83.963975 126.29122 
L 85.003078 137.536465 
L 85.068022 62.432177 
L 85.132966 63.824347 
L 86.3669 87.79434 
L 87.600834 107.616544 
L 88.834768 124.008697 
L 90.068702 137.564338 
L 91.302636 148.774299 
L 91.36758 73.558192 
L 91.432524 74.839657 
L 92.666458 96.903551 
L 93.900392 115.14949 
L 95.134326 130.238135 
L 96.36826 142.715828 
L 96.887811 147.300452 
L 96.952755 72.099011 
L 97.017699 73.394995 
L 98.251633 95.708874 
L 99.485567 114.161541 
L 100.719501 129.421142 
L 101.953435 142.040208 
L 102.602874 147.77911 
L 102.667818 72.572906 
L 102.732762 73.864175 
L 103.966696 96.096867 
L 105.20063 114.482395 
L 106.434564 129.686475 
L 107.668498 142.259628 
L 108.902432 152.657112 
L 109.486927 156.933818 
L 109.551871 81.636523 
L 109.616815 82.837608 
L 110.850749 103.517529 
L 112.084683 120.618979 
L 113.318617 134.761179 
L 114.292776 144.175275 
L 114.35772 69.00493 
L 114.422663 70.3317 
L 115.656598 93.175655 
L 116.890532 112.066672 
L 118.124466 127.688771 
L 119.098624 138.087996 
L 119.163568 62.978221 
L 119.228512 64.364958 
L 120.462446 88.241403 
L 121.69638 107.986247 
L 122.930314 124.314426 
L 124.164248 137.817163 
L 124.878631 144.538917 
L 124.943575 69.364953 
L 125.008519 70.688142 
L 126.242453 93.470417 
L 127.476387 112.310428 
L 128.710321 127.890348 
L 129.944255 140.774304 
L 131.178189 151.428809 
L 131.243133 151.935449 
L 131.308077 76.687889 
L 131.373021 77.938213 
L 132.606955 99.46593 
L 133.840889 117.268472 
L 135.074823 131.990447 
L 136.308757 144.164919 
L 136.763364 148.098353 
L 136.828308 72.888972 
L 136.893252 74.177096 
L 138.127186 96.35564 
L 139.36112 114.69639 
L 140.595054 129.86344 
L 141.828988 142.405971 
L 142.218652 145.896635 
L 142.283596 70.709162 
L 142.34854 72.018975 
L 143.582474 94.570962 
L 144.816408 113.220534 
L 146.050342 128.642968 
L 147.284276 141.39669 
L 147.738883 145.517274 
L 147.803827 70.333575 
L 147.868771 71.647126 
L 149.102705 94.263458 
L 150.336639 112.966241 
L 151.570573 128.432677 
L 152.804507 141.222789 
L 153.973497 151.291684 
L 154.038441 76.050529 
L 154.103385 77.307195 
L 155.337319 98.944104 
L 156.571253 116.836944 
L 157.805187 131.633591 
L 159.039121 143.869813 
L 159.428785 147.27523 
L 159.493729 72.074039 
L 159.558672 73.370272 
L 160.792607 95.68843 
L 162.026541 114.144634 
L 163.260475 129.40716 
L 164.494409 142.028646 
L 165.01396 146.666103 
L 165.078904 71.470973 
L 165.143848 72.773207 
L 166.377782 95.194681 
L 167.611716 113.736324 
L 168.84565 129.069505 
L 170.079584 141.749419 
L 171.313518 152.23519 
L 171.50835 153.716202 
L 171.573294 78.450923 
L 171.638237 79.683705 
L 172.872172 100.909381 
L 174.106106 118.462147 
L 175.34004 132.977567 
L 176.573974 144.981227 
L 176.638918 69.802862 
L 176.703861 71.121693 
L 177.937796 93.828947 
L 179.17173 112.606918 
L 180.405664 128.135532 
L 181.639598 140.977061 
L 181.704542 65.838539 
L 181.769486 67.196816 
L 183.00342 90.583233 
L 184.237354 109.922845 
L 185.471288 125.915914 
L 186.705222 139.141528 
L 186.770166 64.021269 
L 186.83511 65.397628 
L 188.069044 89.095379 
L 189.302978 108.69245 
L 190.536912 124.898428 
L 191.770846 138.300108 
L 191.83579 63.188222 
L 191.900734 64.57287 
L 193.134668 88.413338 
L 194.368602 108.12843 
L 195.602536 124.432006 
L 196.83647 137.914397 
L 197.550853 144.626022 
L 197.615797 69.451192 
L 197.680741 70.773522 
L 198.914675 93.541023 
L 200.148609 112.368817 
L 201.382543 127.938632 
L 202.616477 140.814233 
L 203.071084 144.974195 
L 203.136028 69.7959 
L 203.200972 71.1148 
L 204.434906 93.823247 
L 205.66884 112.602204 
L 206.902774 128.131634 
L 208.136708 140.973838 
L 209.045923 148.99167 
L 209.110867 73.773401 
L 209.17581 75.052725 
L 210.409744 97.079749 
L 211.643679 115.295198 
L 212.877613 130.35863 
L 214.111547 142.815473 
L 214.176491 143.407816 
L 214.241434 68.245107 
L 214.306378 69.579439 
L 215.540312 92.553565 
L 216.774246 111.552229 
L 218.008181 127.263348 
L 219.242115 140.255801 
L 220.476049 151.000028 
L 220.605936 152.016757 
L 220.67088 76.768387 
L 220.735824 78.01791 
L 221.969758 99.531836 
L 223.203692 117.322974 
L 224.437626 132.035518 
L 225.67156 144.202191 
L 226.191112 148.672537 
L 226.256056 73.457443 
L 226.320999 74.739911 
L 227.554934 96.821065 
L 228.788868 115.081277 
L 230.022802 130.181726 
L 231.256736 142.66918 
L 232.230894 150.981754 
L 232.295838 75.743683 
L 232.360782 77.003403 
L 233.594716 98.69288 
L 234.82865 116.629192 
L 236.062584 131.461788 
L 237.296518 143.727739 
L 237.361462 68.561847 
L 237.426406 69.893027 
L 238.66034 92.81289 
L 239.894274 111.76668 
L 241.128208 127.44069 
L 242.362142 140.402455 
L 243.401245 149.561266 
L 243.466189 74.33733 
L 243.531132 75.611042 
L 244.765066 97.541455 
L 245.999001 115.67701 
L 247.232935 130.674373 
L 248.466869 143.076579 
L 249.181252 149.250481 
L 249.246195 74.029637 
L 249.311139 75.306411 
L 250.545073 97.289537 
L 251.779007 115.468684 
L 253.012941 130.502096 
L 253.597437 136.685659 
L 253.66238 61.589836 
L 253.727324 62.990388 
L 254.961258 87.10469 
L 256.195192 107.046232 
L 257.429127 123.537072 
L 258.663061 137.174323 
L 259.896995 148.451772 
L 260.221714 151.080249 
L 260.286658 75.841198 
L 260.351602 77.099947 
L 261.585536 98.772718 
L 262.81947 116.695214 
L 264.053404 131.516386 
L 265.287338 143.77289 
L 265.936777 149.346906 
L 266.001721 74.125102 
L 266.066665 75.400926 
L 267.300599 97.367697 
L 268.534533 115.53332 
L 269.768467 130.555547 
L 270.80757 141.170285 
L 270.872513 66.029839 
L 270.937457 67.386213 
L 272.171391 90.739857 
L 273.405325 110.052367 
L 274.639259 126.023023 
L 275.873194 139.230103 
L 276.97724 149.097416 
L 277.042184 73.878094 
L 277.107128 75.156376 
L 278.341062 97.165465 
L 279.574996 115.366081 
L 280.80893 130.417248 
L 282.042864 142.863947 
L 283.017022 151.149392 
L 283.081966 75.909653 
L 283.14691 77.16772 
L 284.380844 98.828764 
L 285.614778 116.741562 
L 286.848712 131.554714 
L 288.082646 143.804585 
L 288.926917 150.941112 
L 288.991861 75.703445 
L 289.056805 76.963565 
L 290.290739 98.659936 
L 291.524673 116.601948 
L 292.758607 131.439259 
L 293.992541 143.709109 
L 294.9667 151.876829 
L 295.031643 76.629852 
L 295.096587 77.880753 
L 296.330521 99.418413 
L 297.564455 117.229178 
L 298.798389 131.957952 
L 300.032324 144.138047 
L 301.266258 154.210487 
L 301.590977 156.558108 
L 301.655921 81.264552 
L 301.720865 82.469337 
L 302.954799 103.212985 
L 304.188733 120.367133 
L 305.422667 134.552913 
L 306.656601 146.283974 
L 306.916377 148.482216 
L 306.981321 73.269016 
L 307.046265 74.553359 
L 308.280199 96.666794 
L 309.514133 114.953701 
L 310.748067 130.076226 
L 311.982001 142.581936 
L 313.215935 152.923647 
L 313.345823 153.902285 
L 313.410767 78.635155 
L 313.47571 79.866103 
L 314.709644 101.060216 
L 315.943579 118.586882 
L 317.177513 133.080718 
L 318.411447 145.066528 
L 319.060886 150.517438 
L 319.12583 75.283987 
L 319.190773 76.54828 
L 320.424707 98.316512 
L 321.658642 116.317951 
L 322.892576 131.204405 
L 324.12651 143.514894 
L 324.516173 146.94098 
L 324.581117 71.743115 
L 324.646061 73.042641 
L 325.879995 95.417492 
L 327.113929 113.920579 
L 328.347863 129.221876 
L 329.581797 141.875424 
L 329.97146 145.396985 
L 330.036404 70.214484 
L 330.101348 71.529219 
L 331.335282 94.165954 
L 332.569216 112.885609 
L 333.80315 128.365998 
L 335.037085 141.167648 
L 336.271019 151.754089 
L 336.595738 154.221509 
L 336.660682 78.951202 
L 336.725626 80.179006 
L 337.95956 101.318974 
L 339.193494 118.800864 
L 340.427428 133.257673 
L 341.661362 145.212863 
L 342.830352 154.624474 
L 342.895296 79.350157 
L 342.96024 80.573991 
L 344.194174 101.645611 
L 345.428108 119.070979 
L 346.662042 133.481047 
L 347.895976 145.397584 
L 348.805191 152.83749 
L 348.870135 77.580954 
L 348.935079 78.822392 
L 350.169013 100.19711 
L 351.402947 117.873128 
L 352.636881 132.490473 
L 353.870815 144.57842 
L 354.065647 146.285725 
L 354.13059 71.09438 
L 354.195534 72.40036 
L 355.429468 94.886352 
L 356.663402 113.481349 
L 357.897337 128.858651 
L 359.131271 141.575051 
L 360.365205 152.090995 
L 360.689924 154.541984 
L 360.754868 79.268488 
L 360.819812 80.493135 
L 362.053746 101.578746 
L 363.28768 119.015685 
L 364.521614 133.435321 
L 365.755548 145.35977 
L 365.820492 145.926798 
L 365.885436 70.739024 
L 365.95038 72.048541 
L 367.184314 94.595412 
L 368.418248 113.240753 
L 369.652182 128.659688 
L 370.886116 141.410517 
L 372.12005 151.954931 
L 372.184994 152.456336 
L 372.249938 77.203593 
L 372.314882 78.448785 
L 373.548816 99.888152 
L 374.78275 117.617633 
L 376.016684 132.279189 
L 376.731067 139.577811 
L 376.796011 64.453211 
L 376.860955 65.825272 
L 378.094889 89.449023 
L 379.328823 108.984899 
L 380.562757 125.140271 
L 381.796691 138.500103 
L 382.44613 144.575891 
L 382.511074 69.401559 
L 382.576018 70.724383 
L 383.809952 93.500388 
L 385.043886 112.335213 
L 386.27782 127.910843 
L 387.511754 140.791253 
L 388.031305 145.523845 
L 388.096249 70.340081 
L 388.161193 71.653567 
L 389.395127 94.268785 
L 390.629061 112.970645 
L 391.862995 128.43632 
L 393.096929 141.225801 
L 394.330863 151.802179 
L 394.785471 155.219287 
L 394.850414 79.939052 
L 394.915358 81.157026 
L 396.149292 102.127757 
L 397.383226 119.469695 
L 397.578058 121.919074 
L 397.643002 46.970182 
L 397.707946 48.516202 
L 398.487273 65.911264 
L 398.487273 65.911264 
" style="fill:none;stroke:#9a72ac;stroke-linecap:round;stroke-width:1.5;"/>
   </g>
   <g id="line2d_13">
    <path clip-path="url(#pb729ae52e5)" d="M 73.832727 105.792176 
L 398.487273 105.792176 
L 398.487273 105.792176 
" style="fill:none;stroke:#cf5044;stroke-linecap:round;stroke-width:1.5;"/>
   </g>
   <g id="patch_3">
    <path d="M 57.6 162.432 
L 57.6 41.472 
" style="fill:none;stroke:#ffffff;stroke-linecap:square;stroke-linejoin:miter;stroke-width:0.8;"/>
   </g>
   <g id="patch_4">
    <path d="M 414.72 162.432 
L 414.72 41.472 
" style="fill:none;stroke:#ffffff;stroke-linecap:square;stroke-linejoin:miter;stroke-width:0.8;"/>
   </g>
   <g id="patch_5">
    <path d="M 57.6 162.432 
L 414.72 162.432 
" style="fill:none;stroke:#ffffff;stroke-linecap:square;stroke-linejoin:miter;stroke-width:0.8;"/>
   </g>
   <g id="patch_6">
    <path d="M 57.6 41.472 
L 414.72 41.472 
" style="fill:none;stroke:#ffffff;stroke-linecap:square;stroke-linejoin:miter;stroke-width:0.8;"/>
   </g>
   <g id="legend_1">
    <g id="line2d_14">
     <path d="M 219.16 54.218875 
L 239.16 54.218875 
" style="fill:none;stroke:#9a72ac;stroke-linecap:round;stroke-width:1.5;"/>
    </g>
    <g id="line2d_15"/>
    <g id="text_12">
     <!-- $\hat{x}$ -->
     <g style="fill:#ffffff;" transform="translate(247.16 57.718875)scale(0.1 -0.1)">
      <defs>
       <path d="M -28.609375 79.984375 
L -21.390625 79.984375 
L -9.421875 61.625 
L -16.21875 61.625 
L -25 73.578125 
L -33.796875 61.625 
L -40.578125 61.625 
z
M -25 56 
z
" id="DejaVuSans-770"/>
       <path d="M 60.015625 54.6875 
L 34.90625 27.875 
L 50.296875 0 
L 39.984375 0 
L 28.421875 21.6875 
L 8.296875 0 
L -2.59375 0 
L 24.3125 28.8125 
L 10.015625 54.6875 
L 20.3125 54.6875 
L 30.8125 34.90625 
L 49.125 54.6875 
z
" id="DejaVuSans-Oblique-120"/>
      </defs>
      <use transform="translate(62.373047 12.015625)" xlink:href="#DejaVuSans-770"/>
      <use transform="translate(0 0.828125)" xlink:href="#DejaVuSans-Oblique-120"/>
     </g>
    </g>
    <g id="line2d_16">
     <path d="M 219.16 68.54075 
L 239.16 68.54075 
" style="fill:none;stroke:#cf5044;stroke-linecap:round;stroke-width:1.5;"/>
    </g>
    <g id="line2d_17"/>
    <g id="text_13">
     <!-- x -->
     <g style="fill:#ffffff;" transform="translate(247.16 72.04075)scale(0.1 -0.1)">
      <defs>
       <path d="M 39.109375 0 
L 24.90625 21.6875 
L 10.59375 0 
L 1.125 0 
L 19.921875 27.15625 
L 2 52.828125 
L 11.71875 52.828125 
L 24.90625 32.28125 
L 37.984375 52.828125 
L 47.796875 52.828125 
L 29.890625 27.25 
L 48.921875 0 
z
" id="LiberationSans-120"/>
      </defs>
      <use xlink:href="#LiberationSans-120"/>
     </g>
    </g>
   </g>
  </g>
  <g id="axes_2">
   <g id="patch_7">
    <path d="M 57.6 307.584 
L 414.72 307.584 
L 414.72 186.624 
L 57.6 186.624 
z
" style="fill:#1a1a1a;"/>
   </g>
   <g id="matplotlib.axis_3">
    <g id="xtick_7">
     <g id="line2d_18">
      <g>
       <use style="fill:#ffffff;stroke:#ffffff;stroke-width:0.8;" x="73.832727" xlink:href="#me72d720991" y="307.584"/>
      </g>
     </g>
     <g id="text_14">
      <!-- 0 -->
      <g style="fill:#ffffff;" transform="translate(71.052259 321.830875)scale(0.1 -0.1)">
       <use xlink:href="#LiberationSans-48"/>
      </g>
     </g>
    </g>
    <g id="xtick_8">
     <g id="line2d_19">
      <g>
       <use style="fill:#ffffff;stroke:#ffffff;stroke-width:0.8;" x="138.776625" xlink:href="#me72d720991" y="307.584"/>
      </g>
     </g>
     <g id="text_15">
      <!-- 200 -->
      <g style="fill:#ffffff;" transform="translate(130.435219 321.830875)scale(0.1 -0.1)">
       <use xlink:href="#LiberationSans-50"/>
       <use x="55.615234" xlink:href="#LiberationSans-48"/>
       <use x="111.230469" xlink:href="#LiberationSans-48"/>
      </g>
     </g>
    </g>
    <g id="xtick_9">
     <g id="line2d_20">
      <g>
       <use style="fill:#ffffff;stroke:#ffffff;stroke-width:0.8;" x="203.720523" xlink:href="#me72d720991" y="307.584"/>
      </g>
     </g>
     <g id="text_16">
      <!-- 400 -->
      <g style="fill:#ffffff;" transform="translate(195.379117 321.830875)scale(0.1 -0.1)">
       <use xlink:href="#LiberationSans-52"/>
       <use x="55.615234" xlink:href="#LiberationSans-48"/>
       <use x="111.230469" xlink:href="#LiberationSans-48"/>
      </g>
     </g>
    </g>
    <g id="xtick_10">
     <g id="line2d_21">
      <g>
       <use style="fill:#ffffff;stroke:#ffffff;stroke-width:0.8;" x="268.664421" xlink:href="#me72d720991" y="307.584"/>
      </g>
     </g>
     <g id="text_17">
      <!-- 600 -->
      <g style="fill:#ffffff;" transform="translate(260.323015 321.830875)scale(0.1 -0.1)">
       <use xlink:href="#LiberationSans-54"/>
       <use x="55.615234" xlink:href="#LiberationSans-48"/>
       <use x="111.230469" xlink:href="#LiberationSans-48"/>
      </g>
     </g>
    </g>
    <g id="xtick_11">
     <g id="line2d_22">
      <g>
       <use style="fill:#ffffff;stroke:#ffffff;stroke-width:0.8;" x="333.608319" xlink:href="#me72d720991" y="307.584"/>
      </g>
     </g>
     <g id="text_18">
      <!-- 800 -->
      <g style="fill:#ffffff;" transform="translate(325.266913 321.830875)scale(0.1 -0.1)">
       <use xlink:href="#LiberationSans-56"/>
       <use x="55.615234" xlink:href="#LiberationSans-48"/>
       <use x="111.230469" xlink:href="#LiberationSans-48"/>
      </g>
     </g>
    </g>
    <g id="xtick_12">
     <g id="line2d_23">
      <g>
       <use style="fill:#ffffff;stroke:#ffffff;stroke-width:0.8;" x="398.552217" xlink:href="#me72d720991" y="307.584"/>
      </g>
     </g>
     <g id="text_19">
      <!-- 1000 -->
      <g style="fill:#ffffff;" transform="translate(387.430342 321.830875)scale(0.1 -0.1)">
       <use xlink:href="#LiberationSans-49"/>
       <use x="55.615234" xlink:href="#LiberationSans-48"/>
       <use x="111.230469" xlink:href="#LiberationSans-48"/>
       <use x="166.845703" xlink:href="#LiberationSans-48"/>
      </g>
     </g>
    </g>
    <g id="text_20">
     <!-- $t$ (ms) -->
     <g style="fill:#ffffff;" transform="translate(222.81 335.205875)scale(0.1 -0.1)">
      <defs>
       <path d="M 42.28125 54.6875 
L 40.921875 47.703125 
L 23 47.703125 
L 17.1875 18.015625 
Q 16.890625 16.359375 16.75 15.234375 
Q 16.609375 14.109375 16.609375 13.484375 
Q 16.609375 10.359375 18.484375 8.9375 
Q 20.359375 7.515625 24.515625 7.515625 
L 33.59375 7.515625 
L 32.078125 0 
L 23.484375 0 
Q 15.484375 0 11.546875 3.125 
Q 7.625 6.25 7.625 12.59375 
Q 7.625 13.71875 7.765625 15.0625 
Q 7.90625 16.40625 8.203125 18.015625 
L 14.015625 47.703125 
L 6.390625 47.703125 
L 7.8125 54.6875 
L 15.28125 54.6875 
L 18.3125 70.21875 
L 27.296875 70.21875 
L 24.3125 54.6875 
z
" id="DejaVuSans-Oblique-116"/>
       <path id="LiberationSans-32"/>
       <path d="M 6.203125 25.984375 
Q 6.203125 32.765625 7.21875 38.96875 
Q 8.25 45.171875 10.4375 50.875 
Q 12.640625 56.59375 16.0625 61.953125 
Q 19.484375 67.328125 24.21875 72.46875 
L 32.71875 72.46875 
Q 28.125 67.328125 24.78125 61.9375 
Q 21.4375 56.546875 19.28125 50.796875 
Q 17.140625 45.0625 16.09375 38.859375 
Q 15.046875 32.671875 15.046875 25.875 
Q 15.046875 19.09375 16.09375 12.890625 
Q 17.140625 6.6875 19.28125 0.921875 
Q 21.4375 -4.828125 24.78125 -10.203125 
Q 28.125 -15.578125 32.71875 -20.703125 
L 24.21875 -20.703125 
Q 19.484375 -15.578125 16.0625 -10.203125 
Q 12.640625 -4.828125 10.4375 0.875 
Q 8.25 6.59375 7.21875 12.765625 
Q 6.203125 18.953125 6.203125 25.78125 
z
" id="LiberationSans-40"/>
       <path d="M 37.5 0 
L 37.5 33.5 
Q 37.5 37.359375 37.015625 39.9375 
Q 36.53125 42.53125 35.375 44.109375 
Q 34.234375 45.703125 32.375 46.359375 
Q 30.515625 47.015625 27.828125 47.015625 
Q 25.046875 47.015625 22.796875 45.921875 
Q 20.5625 44.828125 18.96875 42.75 
Q 17.390625 40.671875 16.53125 37.625 
Q 15.671875 34.578125 15.671875 30.609375 
L 15.671875 0 
L 6.9375 0 
L 6.9375 41.546875 
Q 6.9375 43.21875 6.90625 45.046875 
Q 6.890625 46.875 6.828125 48.5 
Q 6.78125 50.140625 6.734375 51.3125 
Q 6.6875 52.484375 6.640625 52.828125 
L 14.9375 52.828125 
Q 14.984375 52.59375 15.03125 51.515625 
Q 15.09375 50.4375 15.15625 49.046875 
Q 15.234375 47.65625 15.28125 46.21875 
Q 15.328125 44.78125 15.328125 43.796875 
L 15.484375 43.796875 
Q 16.65625 46.09375 18.015625 47.953125 
Q 19.390625 49.8125 21.21875 51.09375 
Q 23.046875 52.390625 25.40625 53.09375 
Q 27.78125 53.8125 30.90625 53.8125 
Q 36.921875 53.8125 40.40625 51.421875 
Q 43.890625 49.03125 45.265625 43.796875 
L 45.40625 43.796875 
Q 46.578125 46.09375 48.046875 47.953125 
Q 49.515625 49.8125 51.46875 51.09375 
Q 53.421875 52.390625 55.859375 53.09375 
Q 58.296875 53.8125 61.421875 53.8125 
Q 65.4375 53.8125 68.328125 52.734375 
Q 71.234375 51.65625 73.09375 49.40625 
Q 74.953125 47.171875 75.828125 43.625 
Q 76.703125 40.09375 76.703125 35.203125 
L 76.703125 0 
L 68.015625 0 
L 68.015625 33.5 
Q 68.015625 37.359375 67.53125 39.9375 
Q 67.046875 42.53125 65.890625 44.109375 
Q 64.75 45.703125 62.890625 46.359375 
Q 61.03125 47.015625 58.34375 47.015625 
Q 55.5625 47.015625 53.3125 45.96875 
Q 51.078125 44.921875 49.484375 42.875 
Q 47.90625 40.828125 47.046875 37.75 
Q 46.1875 34.671875 46.1875 30.609375 
L 46.1875 0 
z
" id="LiberationSans-109"/>
       <path d="M 46.390625 14.59375 
Q 46.390625 10.890625 44.9375 7.984375 
Q 43.5 5.078125 40.765625 3.09375 
Q 38.03125 1.125 34.046875 0.0625 
Q 30.078125 -0.984375 24.953125 -0.984375 
Q 20.359375 -0.984375 16.671875 -0.265625 
Q 12.984375 0.4375 10.203125 2 
Q 7.421875 3.5625 5.53125 6.125 
Q 3.65625 8.6875 2.78125 12.40625 
L 10.546875 13.921875 
Q 11.671875 9.671875 15.1875 7.6875 
Q 18.703125 5.71875 24.953125 5.71875 
Q 27.78125 5.71875 30.140625 6.109375 
Q 32.515625 6.5 34.21875 7.453125 
Q 35.9375 8.40625 36.890625 9.984375 
Q 37.84375 11.578125 37.84375 13.921875 
Q 37.84375 16.3125 36.71875 17.84375 
Q 35.59375 19.390625 33.59375 20.40625 
Q 31.59375 21.4375 28.734375 22.1875 
Q 25.875 22.953125 22.46875 23.875 
Q 19.28125 24.703125 16.15625 25.734375 
Q 13.03125 26.765625 10.515625 28.4375 
Q 8.015625 30.125 6.453125 32.609375 
Q 4.890625 35.109375 4.890625 38.875 
Q 4.890625 46.09375 10.03125 49.875 
Q 15.1875 53.65625 25.046875 53.65625 
Q 33.796875 53.65625 38.9375 50.578125 
Q 44.09375 47.515625 45.453125 40.71875 
L 37.546875 39.75 
Q 37.109375 41.796875 35.9375 43.1875 
Q 34.765625 44.578125 33.109375 45.4375 
Q 31.453125 46.296875 29.375 46.65625 
Q 27.296875 47.015625 25.046875 47.015625 
Q 19.09375 47.015625 16.25 45.203125 
Q 13.421875 43.40625 13.421875 39.75 
Q 13.421875 37.59375 14.46875 36.203125 
Q 15.53125 34.8125 17.40625 33.859375 
Q 19.28125 32.90625 21.921875 32.203125 
Q 24.5625 31.5 27.734375 30.71875 
Q 29.828125 30.171875 32.03125 29.5625 
Q 34.234375 28.953125 36.296875 28.09375 
Q 38.375 27.25 40.203125 26.09375 
Q 42.046875 24.953125 43.40625 23.34375 
Q 44.78125 21.734375 45.578125 19.578125 
Q 46.390625 17.4375 46.390625 14.59375 
z
" id="LiberationSans-115"/>
       <path d="M 27.09375 25.78125 
Q 27.09375 18.953125 26.0625 12.765625 
Q 25.046875 6.59375 22.84375 0.875 
Q 20.65625 -4.828125 17.234375 -10.203125 
Q 13.8125 -15.578125 9.078125 -20.703125 
L 0.59375 -20.703125 
Q 5.171875 -15.578125 8.515625 -10.203125 
Q 11.859375 -4.828125 14 0.921875 
Q 16.15625 6.6875 17.203125 12.890625 
Q 18.265625 19.09375 18.265625 25.875 
Q 18.265625 32.671875 17.203125 38.859375 
Q 16.15625 45.0625 14 50.796875 
Q 11.859375 56.546875 8.515625 61.9375 
Q 5.171875 67.328125 0.59375 72.46875 
L 9.078125 72.46875 
Q 13.8125 67.328125 17.234375 61.953125 
Q 20.65625 56.59375 22.84375 50.875 
Q 25.046875 45.171875 26.0625 38.96875 
Q 27.09375 32.765625 27.09375 25.984375 
z
" id="LiberationSans-41"/>
      </defs>
      <use transform="translate(0 0.53125)" xlink:href="#DejaVuSans-Oblique-116"/>
      <use transform="translate(39.208984 0.53125)" xlink:href="#LiberationSans-32"/>
      <use transform="translate(66.992188 0.53125)" xlink:href="#LiberationSans-40"/>
      <use transform="translate(100.292969 0.53125)" xlink:href="#LiberationSans-109"/>
      <use transform="translate(183.59375 0.53125)" xlink:href="#LiberationSans-115"/>
      <use transform="translate(233.59375 0.53125)" xlink:href="#LiberationSans-41"/>
     </g>
    </g>
   </g>
   <g id="matplotlib.axis_4">
    <g id="ytick_6">
     <g id="line2d_24">
      <g>
       <use style="fill:#ffffff;stroke:#ffffff;stroke-width:0.8;" x="57.6" xlink:href="#mc116364dbb" y="301.938678"/>
      </g>
     </g>
     <g id="text_21">
      <!-- −0.06 -->
      <g style="fill:#ffffff;" transform="translate(25.298437 305.562115)scale(0.1 -0.1)">
       <defs>
        <path d="M 4.9375 29.6875 
L 4.9375 36.8125 
L 53.515625 36.8125 
L 53.515625 29.6875 
z
" id="LiberationSans-8722"/>
       </defs>
       <use xlink:href="#LiberationSans-8722"/>
       <use x="58.398438" xlink:href="#LiberationSans-48"/>
       <use x="114.013672" xlink:href="#LiberationSans-46"/>
       <use x="141.796875" xlink:href="#LiberationSans-48"/>
       <use x="197.412109" xlink:href="#LiberationSans-54"/>
      </g>
     </g>
    </g>
    <g id="ytick_7">
     <g id="line2d_25">
      <g>
       <use style="fill:#ffffff;stroke:#ffffff;stroke-width:0.8;" x="57.6" xlink:href="#mc116364dbb" y="265.333179"/>
      </g>
     </g>
     <g id="text_22">
      <!-- −0.04 -->
      <g style="fill:#ffffff;" transform="translate(25.298437 268.956617)scale(0.1 -0.1)">
       <use xlink:href="#LiberationSans-8722"/>
       <use x="58.398438" xlink:href="#LiberationSans-48"/>
       <use x="114.013672" xlink:href="#LiberationSans-46"/>
       <use x="141.796875" xlink:href="#LiberationSans-48"/>
       <use x="197.412109" xlink:href="#LiberationSans-52"/>
      </g>
     </g>
    </g>
    <g id="ytick_8">
     <g id="line2d_26">
      <g>
       <use style="fill:#ffffff;stroke:#ffffff;stroke-width:0.8;" x="57.6" xlink:href="#mc116364dbb" y="228.72768"/>
      </g>
     </g>
     <g id="text_23">
      <!-- −0.02 -->
      <g style="fill:#ffffff;" transform="translate(25.298437 232.351118)scale(0.1 -0.1)">
       <use xlink:href="#LiberationSans-8722"/>
       <use x="58.398438" xlink:href="#LiberationSans-48"/>
       <use x="114.013672" xlink:href="#LiberationSans-46"/>
       <use x="141.796875" xlink:href="#LiberationSans-48"/>
       <use x="197.412109" xlink:href="#LiberationSans-50"/>
      </g>
     </g>
    </g>
    <g id="ytick_9">
     <g id="line2d_27">
      <g>
       <use style="fill:#ffffff;stroke:#ffffff;stroke-width:0.8;" x="57.6" xlink:href="#mc116364dbb" y="192.122182"/>
      </g>
     </g>
     <g id="text_24">
      <!-- 0.00 -->
      <g style="fill:#ffffff;" transform="translate(31.139063 195.745619)scale(0.1 -0.1)">
       <use xlink:href="#LiberationSans-48"/>
       <use x="55.615234" xlink:href="#LiberationSans-46"/>
       <use x="83.398438" xlink:href="#LiberationSans-48"/>
       <use x="139.013672" xlink:href="#LiberationSans-48"/>
      </g>
     </g>
    </g>
   </g>
   <g id="line2d_28">
    <path clip-path="url(#p4847459608)" d="M 73.832727 246.071656 
L 74.417222 241.428288 
L 74.482166 294.547226 
L 74.54711 293.52808 
L 75.781044 275.980715 
L 77.014978 261.469762 
L 78.248912 249.469797 
L 79.482846 239.546316 
L 80.132285 235.033313 
L 80.197229 288.215881 
L 80.262173 287.259733 
L 81.496107 270.797049 
L 82.730041 257.183081 
L 83.963975 245.924887 
L 85.003078 237.969823 
L 85.068022 291.123173 
L 85.132966 290.138096 
L 86.3669 273.177338 
L 87.600834 259.151483 
L 88.834768 247.552675 
L 90.068702 237.960934 
L 91.302636 230.028957 
L 91.36758 283.261319 
L 91.432524 282.35447 
L 92.666458 266.740597 
L 93.900392 253.828561 
L 95.134326 243.150836 
L 96.36826 234.320794 
L 96.887811 231.07641 
L 96.952755 284.29835 
L 97.017699 283.381182 
L 98.251633 267.589646 
L 99.485567 254.53069 
L 100.719501 243.731468 
L 101.953435 234.800952 
L 102.602874 230.73953 
L 102.667818 283.964823 
L 102.732762 283.050973 
L 103.966696 267.316576 
L 105.20063 254.304873 
L 106.434564 243.544726 
L 107.668498 234.646525 
L 108.902432 227.288076 
L 109.486927 224.261389 
L 109.551871 277.55114 
L 109.616815 276.701107 
L 110.850749 262.065497 
L 112.084683 249.962445 
L 113.318617 239.953716 
L 114.292776 233.291165 
L 114.35772 286.491068 
L 114.422663 285.552082 
L 115.656598 269.384891 
L 116.890532 256.015285 
L 118.124466 244.959167 
L 119.098624 237.599396 
L 119.163568 290.756432 
L 119.228512 289.775005 
L 120.462446 272.877076 
L 121.69638 258.903179 
L 122.930314 247.347337 
L 124.164248 237.791129 
L 124.878631 233.033983 
L 124.943575 286.236445 
L 125.008519 285.299993 
L 126.242453 269.176424 
L 127.476387 255.842891 
L 128.710321 244.816604 
L 129.944255 235.698316 
L 131.178189 228.157864 
L 131.243133 227.799303 
L 131.308077 281.053851 
L 131.373021 280.168966 
L 132.606955 264.933274 
L 133.840889 252.33398 
L 135.074823 241.914878 
L 136.308757 233.298707 
L 136.763364 230.514919 
L 136.828308 283.742446 
L 136.893252 282.830809 
L 138.127186 267.13451 
L 139.36112 254.154312 
L 140.595054 243.420218 
L 141.828988 234.543562 
L 142.218652 232.073133 
L 142.283596 285.285155 
L 142.34854 284.358168 
L 143.582474 268.397573 
L 144.816408 255.198814 
L 146.050342 244.283979 
L 147.284276 235.257856 
L 147.738883 232.341618 
L 147.803827 285.550969 
L 147.868771 284.621337 
L 149.102705 268.615203 
L 150.336639 255.378785 
L 151.570573 244.432807 
L 152.804507 235.380931 
L 153.973497 228.254927 
L 154.038441 281.504941 
L 154.103385 280.615568 
L 155.337319 265.302596 
L 156.571253 252.639393 
L 157.805187 242.167443 
L 159.039121 233.507567 
L 159.428785 231.09747 
L 159.493729 284.319201 
L 159.558672 283.401825 
L 160.792607 267.606717 
L 162.026541 254.544807 
L 163.260475 243.743142 
L 164.494409 234.810607 
L 165.01396 231.528564 
L 165.078904 284.746006 
L 165.143848 283.824383 
L 166.377782 267.956155 
L 167.611716 254.833779 
L 168.84565 243.98211 
L 170.079584 235.008223 
L 171.313518 227.587185 
L 171.50835 226.539036 
L 171.573294 279.806124 
L 171.638237 278.933654 
L 172.872172 263.911722 
L 174.106106 251.489197 
L 175.34004 241.216278 
L 176.573974 232.720993 
L 176.638918 285.926569 
L 176.703861 284.9932 
L 177.937796 268.922718 
L 179.17173 255.633087 
L 180.405664 244.643105 
L 181.639598 235.554839 
L 181.704542 288.732218 
L 181.769486 287.770932 
L 183.00342 271.21979 
L 184.237354 257.532671 
L 185.471288 246.213983 
L 186.705222 236.853891 
L 186.770166 290.018345 
L 186.83511 289.044261 
L 188.069044 272.272781 
L 189.302978 258.403452 
L 190.536912 246.934083 
L 191.770846 237.449384 
L 191.83579 290.607913 
L 191.900734 289.627963 
L 193.134668 272.755478 
L 194.368602 258.802623 
L 195.602536 247.264182 
L 196.83647 237.722362 
L 197.550853 232.97238 
L 197.615797 286.175455 
L 197.680741 285.239609 
L 198.914675 269.126489 
L 200.148609 255.801597 
L 201.382543 244.782456 
L 202.616477 235.670076 
L 203.071084 232.72597 
L 203.136028 285.931496 
L 203.200972 284.998078 
L 204.434906 268.926753 
L 205.66884 255.636423 
L 206.902774 244.645864 
L 208.136708 235.55712 
L 209.045923 229.882703 
L 209.110867 283.116521 
L 209.17581 282.211112 
L 210.409744 266.622046 
L 211.643679 253.730525 
L 212.877613 243.069764 
L 214.111547 234.25375 
L 214.176491 233.834534 
L 214.241434 287.02903 
L 214.306378 286.084692 
L 215.540312 269.825337 
L 216.774246 256.379516 
L 218.008181 245.260371 
L 219.242115 236.065293 
L 220.476049 228.461339 
L 220.605936 227.741775 
L 220.67088 280.996896 
L 220.735824 280.112578 
L 221.969758 264.886643 
L 223.203692 252.295418 
L 224.437626 241.882989 
L 225.67156 233.272336 
L 226.191112 230.108562 
L 226.256056 283.340132 
L 226.320999 282.432498 
L 227.554934 266.805123 
L 228.788868 253.881922 
L 230.022802 243.194963 
L 231.256736 234.357285 
L 232.230894 228.474272 
L 232.295838 281.722104 
L 232.360782 280.83057 
L 233.594716 265.480393 
L 234.82865 252.786425 
L 236.062584 242.289032 
L 237.296518 233.608117 
L 237.361462 286.804866 
L 237.426406 285.862758 
L 238.66034 269.641807 
L 239.894274 256.227744 
L 241.128208 245.134862 
L 242.362142 235.961502 
L 243.401245 229.479586 
L 243.466189 282.717415 
L 243.531132 281.815977 
L 244.765066 266.295285 
L 245.999001 253.460307 
L 247.232935 242.846305 
L 248.466869 234.068959 
L 249.181252 229.699536 
L 249.246195 282.935177 
L 249.311139 282.031572 
L 250.545073 266.473574 
L 251.779007 253.607744 
L 253.012941 242.968229 
L 253.597437 238.59197 
L 253.66238 291.739129 
L 253.727324 290.747924 
L 254.961258 273.68164 
L 256.195192 259.568521 
L 257.429127 247.897548 
L 258.663061 238.24613 
L 259.896995 230.264802 
L 260.221714 228.404565 
L 260.286658 281.65309 
L 260.351602 280.762243 
L 261.585536 265.42389 
L 262.81947 252.739699 
L 264.053404 242.250391 
L 265.287338 233.576163 
L 265.936777 229.631295 
L 266.001721 282.867614 
L 266.066665 281.964682 
L 267.300599 266.418258 
L 268.534533 253.562001 
L 269.768467 242.930401 
L 270.80757 235.41809 
L 270.872513 288.59683 
L 270.937457 287.636891 
L 272.171391 271.108943 
L 273.405325 257.441006 
L 274.639259 246.13818 
L 275.873194 236.791205 
L 276.97724 229.807865 
L 277.042184 283.042427 
L 277.107128 282.137756 
L 278.341062 266.561383 
L 279.574996 253.680359 
L 280.80893 243.028279 
L 282.042864 234.219444 
L 283.017022 228.355631 
L 283.081966 281.604643 
L 283.14691 280.714278 
L 284.380844 265.384225 
L 285.614778 252.706898 
L 286.848712 242.223266 
L 288.082646 233.553731 
L 288.926917 228.503036 
L 288.991861 281.750581 
L 289.056805 280.858764 
L 290.290739 265.503709 
L 291.524673 252.805706 
L 292.758607 242.304976 
L 293.992541 233.621302 
L 294.9667 227.840806 
L 295.031643 281.094941 
L 295.096587 280.209647 
L 296.330521 264.966916 
L 297.564455 252.3618 
L 298.798389 241.937884 
L 300.032324 233.317732 
L 301.266258 226.189218 
L 301.590977 224.527749 
L 301.655921 277.81485 
L 301.720865 276.962193 
L 302.954799 262.281404 
L 304.188733 250.140992 
L 305.422667 240.101367 
L 306.656601 231.799007 
L 306.916377 230.243256 
L 306.981321 283.473487 
L 307.046265 282.564526 
L 308.280199 266.914304 
L 309.514133 253.972211 
L 310.748067 243.269628 
L 311.982001 234.41903 
L 313.215935 227.099947 
L 313.345823 226.40734 
L 313.410767 279.675739 
L 313.47571 278.804566 
L 314.709644 263.804971 
L 315.943579 251.400919 
L 317.177513 241.143275 
L 318.411447 232.660623 
L 319.060886 228.80288 
L 319.12583 282.047442 
L 319.190773 281.152671 
L 320.424707 265.746758 
L 321.658642 253.006698 
L 322.892576 242.471188 
L 324.12651 233.758753 
L 324.516173 231.334027 
L 324.581117 284.553404 
L 324.646061 283.633698 
L 325.879995 267.798466 
L 327.113929 254.703376 
L 328.347863 243.874272 
L 329.581797 234.919046 
L 329.97146 232.42675 
L 330.036404 285.635255 
L 330.101348 284.704784 
L 331.335282 268.68421 
L 332.569216 255.435851 
L 333.80315 244.479999 
L 335.037085 235.419957 
L 336.271019 227.927672 
L 336.595738 226.181418 
L 336.660682 279.452064 
L 336.725626 278.583117 
L 337.95956 263.621842 
L 339.193494 251.249479 
L 340.427428 241.01804 
L 341.661362 232.557059 
L 342.830352 225.89623 
L 342.895296 279.169714 
L 342.96024 278.303576 
L 344.194174 263.390673 
L 345.428108 251.058312 
L 346.662042 240.859953 
L 347.895976 232.426327 
L 348.805191 227.160922 
L 348.870135 280.421822 
L 348.935079 279.543226 
L 350.169013 264.415813 
L 351.402947 251.90606 
L 352.636881 241.561006 
L 353.870815 233.006069 
L 354.065647 231.797768 
L 354.13059 285.01253 
L 354.195534 284.088256 
L 355.429468 268.174367 
L 356.663402 255.014231 
L 357.897337 244.131336 
L 359.131271 235.131627 
L 360.365205 227.689235 
L 360.689924 225.95461 
L 360.754868 279.227513 
L 360.819812 278.3608 
L 362.053746 263.437995 
L 363.28768 251.097445 
L 364.521614 240.892314 
L 365.755548 232.453088 
L 365.820492 232.051789 
L 365.885436 285.264024 
L 365.95038 284.337247 
L 367.184314 268.380273 
L 368.418248 255.184507 
L 369.652182 244.272147 
L 370.886116 235.248072 
L 372.12005 227.785531 
L 372.184994 227.430674 
L 372.249938 280.68889 
L 372.314882 279.807637 
L 373.548816 264.63447 
L 374.78275 252.086881 
L 376.016684 241.710537 
L 376.731067 236.545123 
L 376.796011 289.712649 
L 376.860955 288.741608 
L 378.094889 272.022498 
L 379.328823 258.196478 
L 380.562757 246.762925 
L 381.796691 237.307843 
L 382.44613 233.007859 
L 382.511074 286.210581 
L 382.576018 285.274386 
L 383.809952 269.155248 
L 385.043886 255.825379 
L 386.27782 244.802123 
L 387.511754 235.68634 
L 388.031305 232.336969 
L 388.096249 285.546366 
L 388.161193 284.61678 
L 389.395127 268.611435 
L 390.629061 255.375668 
L 391.862995 244.43023 
L 393.096929 235.3788 
L 394.330863 227.893637 
L 394.785471 225.475266 
L 394.850414 278.752938 
L 394.915358 277.890948 
L 396.149292 263.049446 
L 397.383226 250.776131 
L 397.578058 249.042645 
L 397.643002 302.085818 
L 397.707946 300.991662 
L 398.487273 288.680748 
L 398.487273 288.680748 
" style="fill:none;stroke:#9a72ac;stroke-linecap:round;stroke-width:1.5;"/>
   </g>
   <g id="line2d_29">
    <path clip-path="url(#p4847459608)" d="M 73.832727 192.122182 
L 398.487273 192.122182 
L 398.487273 192.122182 
" style="fill:none;stroke:#cf5044;stroke-linecap:round;stroke-width:1.5;"/>
   </g>
   <g id="patch_8">
    <path d="M 57.6 307.584 
L 57.6 186.624 
" style="fill:none;stroke:#ffffff;stroke-linecap:square;stroke-linejoin:miter;stroke-width:0.8;"/>
   </g>
   <g id="patch_9">
    <path d="M 414.72 307.584 
L 414.72 186.624 
" style="fill:none;stroke:#ffffff;stroke-linecap:square;stroke-linejoin:miter;stroke-width:0.8;"/>
   </g>
   <g id="patch_10">
    <path d="M 57.6 307.584 
L 414.72 307.584 
" style="fill:none;stroke:#ffffff;stroke-linecap:square;stroke-linejoin:miter;stroke-width:0.8;"/>
   </g>
   <g id="patch_11">
    <path d="M 57.6 186.624 
L 414.72 186.624 
" style="fill:none;stroke:#ffffff;stroke-linecap:square;stroke-linejoin:miter;stroke-width:0.8;"/>
   </g>
   <g id="legend_2">
    <g id="line2d_30">
     <path d="M 371.72 278.687125 
L 391.72 278.687125 
" style="fill:none;stroke:#9a72ac;stroke-linecap:round;stroke-width:1.5;"/>
    </g>
    <g id="line2d_31"/>
    <g id="text_25">
     <!-- $\hat{x}$ -->
     <g style="fill:#ffffff;" transform="translate(399.72 282.187125)scale(0.1 -0.1)">
      <use transform="translate(62.373047 12.015625)" xlink:href="#DejaVuSans-770"/>
      <use transform="translate(0 0.828125)" xlink:href="#DejaVuSans-Oblique-120"/>
     </g>
    </g>
    <g id="line2d_32">
     <path d="M 371.72 293.009 
L 391.72 293.009 
" style="fill:none;stroke:#cf5044;stroke-linecap:round;stroke-width:1.5;"/>
    </g>
    <g id="line2d_33"/>
    <g id="text_26">
     <!-- x -->
     <g style="fill:#ffffff;" transform="translate(399.72 296.509)scale(0.1 -0.1)">
      <use xlink:href="#LiberationSans-120"/>
     </g>
    </g>
   </g>
  </g>
  <g id="text_27">
   <!-- Egomotion input/decoding -->
   <g style="fill:#ffffff;" transform="translate(161.02125 15.60825)scale(0.12 -0.12)">
    <defs>
     <path d="M 8.203125 0 
L 8.203125 68.796875 
L 60.40625 68.796875 
L 60.40625 61.1875 
L 17.53125 61.1875 
L 17.53125 39.109375 
L 57.46875 39.109375 
L 57.46875 31.59375 
L 17.53125 31.59375 
L 17.53125 7.625 
L 62.40625 7.625 
L 62.40625 0 
z
" id="LiberationSans-69"/>
     <path d="M 26.765625 -20.75 
Q 22.21875 -20.75 18.703125 -19.8125 
Q 15.1875 -18.890625 12.6875 -17.15625 
Q 10.203125 -15.4375 8.640625 -13.03125 
Q 7.078125 -10.640625 6.390625 -7.71875 
L 15.234375 -6.453125 
Q 16.109375 -10.109375 19.109375 -12.078125 
Q 22.125 -14.0625 27 -14.0625 
Q 29.984375 -14.0625 32.421875 -13.234375 
Q 34.859375 -12.40625 36.5625 -10.5625 
Q 38.28125 -8.734375 39.203125 -5.796875 
Q 40.140625 -2.875 40.140625 1.3125 
L 40.140625 9.8125 
L 40.046875 9.8125 
Q 39.0625 7.8125 37.625 5.984375 
Q 36.1875 4.15625 34.109375 2.734375 
Q 32.03125 1.3125 29.296875 0.453125 
Q 26.5625 -0.390625 23.046875 -0.390625 
Q 18.015625 -0.390625 14.421875 1.296875 
Q 10.84375 2.984375 8.5625 6.34375 
Q 6.296875 9.71875 5.25 14.71875 
Q 4.203125 19.734375 4.203125 26.3125 
Q 4.203125 32.671875 5.25 37.75 
Q 6.296875 42.828125 8.65625 46.359375 
Q 11.03125 49.90625 14.8125 51.78125 
Q 18.609375 53.65625 24.03125 53.65625 
Q 29.640625 53.65625 33.765625 51.09375 
Q 37.890625 48.53125 40.140625 43.796875 
L 40.234375 43.796875 
Q 40.234375 45.015625 40.296875 46.53125 
Q 40.375 48.046875 40.453125 49.390625 
Q 40.53125 50.734375 40.625 51.703125 
Q 40.71875 52.6875 40.828125 52.828125 
L 49.171875 52.828125 
Q 49.125 52.390625 49.078125 51.34375 
Q 49.03125 50.296875 48.96875 48.828125 
Q 48.921875 47.359375 48.890625 45.578125 
Q 48.875 43.796875 48.875 41.890625 
L 48.875 1.515625 
Q 48.875 -9.578125 43.421875 -15.15625 
Q 37.984375 -20.75 26.765625 -20.75 
z
M 40.140625 26.421875 
Q 40.140625 31.9375 38.9375 35.859375 
Q 37.75 39.796875 35.796875 42.28125 
Q 33.84375 44.78125 31.328125 45.953125 
Q 28.8125 47.125 26.171875 47.125 
Q 22.796875 47.125 20.375 45.953125 
Q 17.96875 44.78125 16.375 42.265625 
Q 14.796875 39.75 14.03125 35.8125 
Q 13.28125 31.890625 13.28125 26.421875 
Q 13.28125 20.703125 14.03125 16.8125 
Q 14.796875 12.9375 16.359375 10.546875 
Q 17.921875 8.15625 20.3125 7.125 
Q 22.703125 6.109375 26.03125 6.109375 
Q 28.65625 6.109375 31.171875 7.21875 
Q 33.6875 8.34375 35.6875 10.78125 
Q 37.703125 13.234375 38.921875 17.09375 
Q 40.140625 20.953125 40.140625 26.421875 
z
" id="LiberationSans-103"/>
     <path d="M 51.421875 26.46875 
Q 51.421875 12.59375 45.3125 5.796875 
Q 39.203125 -0.984375 27.59375 -0.984375 
Q 22.078125 -0.984375 17.71875 0.671875 
Q 13.375 2.34375 10.375 5.765625 
Q 7.375 9.1875 5.78125 14.328125 
Q 4.203125 19.484375 4.203125 26.46875 
Q 4.203125 53.8125 27.875 53.8125 
Q 34.03125 53.8125 38.5 52.09375 
Q 42.96875 50.390625 45.828125 46.96875 
Q 48.6875 43.5625 50.046875 38.421875 
Q 51.421875 33.296875 51.421875 26.46875 
z
M 42.1875 26.46875 
Q 42.1875 32.625 41.234375 36.625 
Q 40.28125 40.625 38.453125 43.015625 
Q 36.625 45.40625 33.984375 46.359375 
Q 31.34375 47.3125 28.03125 47.3125 
Q 24.65625 47.3125 21.9375 46.3125 
Q 19.234375 45.3125 17.328125 42.890625 
Q 15.4375 40.484375 14.421875 36.46875 
Q 13.421875 32.46875 13.421875 26.46875 
Q 13.421875 20.3125 14.5 16.28125 
Q 15.578125 12.25 17.453125 9.859375 
Q 19.34375 7.46875 21.90625 6.484375 
Q 24.46875 5.515625 27.484375 5.515625 
Q 30.859375 5.515625 33.59375 6.46875 
Q 36.328125 7.421875 38.234375 9.8125 
Q 40.140625 12.203125 41.15625 16.25 
Q 42.1875 20.3125 42.1875 26.46875 
z
" id="LiberationSans-111"/>
     <path d="M 27.046875 0.390625 
Q 25.046875 -0.140625 22.96875 -0.453125 
Q 20.90625 -0.78125 18.171875 -0.78125 
Q 7.625 -0.78125 7.625 11.1875 
L 7.625 46.4375 
L 1.515625 46.4375 
L 1.515625 52.828125 
L 7.953125 52.828125 
L 10.546875 64.65625 
L 16.40625 64.65625 
L 16.40625 52.828125 
L 26.171875 52.828125 
L 26.171875 46.4375 
L 16.40625 46.4375 
L 16.40625 13.09375 
Q 16.40625 9.28125 17.640625 7.734375 
Q 18.890625 6.203125 21.96875 6.203125 
Q 23.25 6.203125 24.4375 6.390625 
Q 25.640625 6.59375 27.046875 6.890625 
z
" id="LiberationSans-116"/>
     <path d="M 6.6875 64.0625 
L 6.6875 72.46875 
L 15.484375 72.46875 
L 15.484375 64.0625 
z
M 6.6875 0 
L 6.6875 52.828125 
L 15.484375 52.828125 
L 15.484375 0 
z
" id="LiberationSans-105"/>
     <path d="M 40.28125 0 
L 40.28125 33.5 
Q 40.28125 37.359375 39.71875 39.9375 
Q 39.15625 42.53125 37.890625 44.109375 
Q 36.625 45.703125 34.546875 46.359375 
Q 32.46875 47.015625 29.390625 47.015625 
Q 26.265625 47.015625 23.75 45.921875 
Q 21.234375 44.828125 19.453125 42.75 
Q 17.671875 40.671875 16.6875 37.625 
Q 15.71875 34.578125 15.71875 30.609375 
L 15.71875 0 
L 6.9375 0 
L 6.9375 41.546875 
Q 6.9375 43.21875 6.90625 45.046875 
Q 6.890625 46.875 6.828125 48.5 
Q 6.78125 50.140625 6.734375 51.3125 
Q 6.6875 52.484375 6.640625 52.828125 
L 14.9375 52.828125 
Q 14.984375 52.59375 15.03125 51.515625 
Q 15.09375 50.4375 15.15625 49.046875 
Q 15.234375 47.65625 15.28125 46.21875 
Q 15.328125 44.78125 15.328125 43.796875 
L 15.484375 43.796875 
Q 16.75 46.09375 18.265625 47.953125 
Q 19.78125 49.8125 21.78125 51.09375 
Q 23.78125 52.390625 26.359375 53.09375 
Q 28.953125 53.8125 32.375 53.8125 
Q 36.765625 53.8125 39.9375 52.734375 
Q 43.109375 51.65625 45.15625 49.40625 
Q 47.21875 47.171875 48.171875 43.625 
Q 49.125 40.09375 49.125 35.203125 
L 49.125 0 
z
" id="LiberationSans-110"/>
     <path d="M 51.421875 26.65625 
Q 51.421875 20.65625 50.4375 15.578125 
Q 49.46875 10.5 47.1875 6.828125 
Q 44.921875 3.171875 41.1875 1.09375 
Q 37.453125 -0.984375 31.984375 -0.984375 
Q 26.3125 -0.984375 22.0625 1.171875 
Q 17.828125 3.328125 15.578125 8.203125 
L 15.328125 8.203125 
Q 15.375 8.109375 15.40625 7.328125 
Q 15.4375 6.546875 15.453125 5.375 
Q 15.484375 4.203125 15.5 2.75 
Q 15.53125 1.3125 15.53125 -0.09375 
L 15.53125 -20.75 
L 6.734375 -20.75 
L 6.734375 42.046875 
Q 6.734375 43.953125 6.703125 45.703125 
Q 6.6875 47.46875 6.640625 48.90625 
Q 6.59375 50.34375 6.546875 51.359375 
Q 6.5 52.390625 6.453125 52.828125 
L 14.9375 52.828125 
Q 14.984375 52.6875 15.0625 51.796875 
Q 15.140625 50.921875 15.203125 49.671875 
Q 15.28125 48.4375 15.359375 47.015625 
Q 15.4375 45.609375 15.4375 44.34375 
L 15.625 44.34375 
Q 16.84375 46.875 18.40625 48.65625 
Q 19.96875 50.4375 21.96875 51.578125 
Q 23.96875 52.734375 26.4375 53.25 
Q 28.90625 53.765625 31.984375 53.765625 
Q 37.453125 53.765625 41.1875 51.8125 
Q 44.921875 49.859375 47.1875 46.3125 
Q 49.46875 42.78125 50.4375 37.765625 
Q 51.421875 32.765625 51.421875 26.65625 
z
M 42.1875 26.46875 
Q 42.1875 31.34375 41.59375 35.15625 
Q 41.015625 38.96875 39.578125 41.59375 
Q 38.140625 44.234375 35.734375 45.59375 
Q 33.34375 46.96875 29.734375 46.96875 
Q 26.8125 46.96875 24.21875 46.140625 
Q 21.625 45.3125 19.703125 42.96875 
Q 17.78125 40.625 16.65625 36.5 
Q 15.53125 32.375 15.53125 25.78125 
Q 15.53125 20.171875 16.453125 16.28125 
Q 17.390625 12.40625 19.171875 10.015625 
Q 20.953125 7.625 23.578125 6.5625 
Q 26.21875 5.515625 29.640625 5.515625 
Q 33.296875 5.515625 35.71875 6.921875 
Q 38.140625 8.34375 39.578125 11.03125 
Q 41.015625 13.71875 41.59375 17.59375 
Q 42.1875 21.484375 42.1875 26.46875 
z
" id="LiberationSans-112"/>
     <path d="M 15.328125 52.828125 
L 15.328125 19.34375 
Q 15.328125 15.484375 15.890625 12.890625 
Q 16.453125 10.296875 17.71875 8.703125 
Q 19 7.125 21.0625 6.46875 
Q 23.140625 5.8125 26.21875 5.8125 
Q 29.34375 5.8125 31.859375 6.90625 
Q 34.375 8.015625 36.15625 10.078125 
Q 37.9375 12.15625 38.90625 15.203125 
Q 39.890625 18.265625 39.890625 22.21875 
L 39.890625 52.828125 
L 48.6875 52.828125 
L 48.6875 11.28125 
Q 48.6875 9.625 48.703125 7.78125 
Q 48.734375 5.953125 48.78125 4.3125 
Q 48.828125 2.6875 48.875 1.515625 
Q 48.921875 0.34375 48.96875 0 
L 40.671875 0 
Q 40.625 0.25 40.578125 1.3125 
Q 40.53125 2.390625 40.453125 3.78125 
Q 40.375 5.171875 40.328125 6.609375 
Q 40.28125 8.0625 40.28125 9.03125 
L 40.140625 9.03125 
Q 38.875 6.734375 37.359375 4.875 
Q 35.84375 3.03125 33.84375 1.734375 
Q 31.84375 0.4375 29.25 -0.265625 
Q 26.65625 -0.984375 23.25 -0.984375 
Q 18.84375 -0.984375 15.671875 0.09375 
Q 12.5 1.171875 10.453125 3.421875 
Q 8.40625 5.671875 7.453125 9.1875 
Q 6.5 12.703125 6.5 17.625 
L 6.5 52.828125 
z
" id="LiberationSans-117"/>
     <path d="M 0 -0.984375 
L 20.0625 72.46875 
L 27.78125 72.46875 
L 7.90625 -0.984375 
z
" id="LiberationSans-47"/>
     <path d="M 40.09375 8.5 
Q 37.640625 3.421875 33.609375 1.21875 
Q 29.59375 -0.984375 23.640625 -0.984375 
Q 13.625 -0.984375 8.90625 5.75 
Q 4.203125 12.5 4.203125 26.171875 
Q 4.203125 53.8125 23.640625 53.8125 
Q 29.640625 53.8125 33.640625 51.609375 
Q 37.640625 49.421875 40.09375 44.625 
L 40.1875 44.625 
Q 40.1875 45.125 40.15625 46.171875 
Q 40.140625 47.21875 40.109375 48.359375 
Q 40.09375 49.515625 40.09375 50.53125 
Q 40.09375 51.5625 40.09375 52 
L 40.09375 72.46875 
L 48.875 72.46875 
L 48.875 10.890625 
Q 48.875 8.984375 48.890625 7.21875 
Q 48.921875 5.46875 48.96875 4 
Q 49.03125 2.546875 49.078125 1.484375 
Q 49.125 0.4375 49.171875 0 
L 40.765625 0 
Q 40.671875 0.484375 40.59375 1.390625 
Q 40.53125 2.296875 40.453125 3.46875 
Q 40.375 4.640625 40.328125 5.9375 
Q 40.28125 7.234375 40.28125 8.5 
z
M 13.421875 26.46875 
Q 13.421875 21 14.109375 17.09375 
Q 14.796875 13.1875 16.3125 10.671875 
Q 17.828125 8.15625 20.171875 6.984375 
Q 22.515625 5.8125 25.875 5.8125 
Q 29.34375 5.8125 32 6.9375 
Q 34.671875 8.0625 36.453125 10.578125 
Q 38.234375 13.09375 39.15625 17.140625 
Q 40.09375 21.1875 40.09375 27.046875 
Q 40.09375 32.671875 39.15625 36.546875 
Q 38.234375 40.4375 36.421875 42.828125 
Q 34.625 45.21875 32 46.265625 
Q 29.390625 47.3125 25.984375 47.3125 
Q 22.75 47.3125 20.40625 46.1875 
Q 18.0625 45.0625 16.5 42.578125 
Q 14.9375 40.09375 14.171875 36.109375 
Q 13.421875 32.125 13.421875 26.46875 
z
" id="LiberationSans-100"/>
     <path d="M 13.484375 24.5625 
Q 13.484375 20.40625 14.328125 16.90625 
Q 15.1875 13.421875 16.96875 10.90625 
Q 18.75 8.40625 21.53125 7 
Q 24.3125 5.609375 28.21875 5.609375 
Q 33.9375 5.609375 37.375 7.90625 
Q 40.828125 10.203125 42.046875 13.71875 
L 49.75 11.53125 
Q 48.921875 9.328125 47.4375 7.109375 
Q 45.953125 4.890625 43.453125 3.09375 
Q 40.96875 1.3125 37.234375 0.15625 
Q 33.5 -0.984375 28.21875 -0.984375 
Q 16.5 -0.984375 10.375 6 
Q 4.25 12.984375 4.25 26.765625 
Q 4.25 34.1875 6.09375 39.328125 
Q 7.953125 44.484375 11.171875 47.703125 
Q 14.40625 50.921875 18.703125 52.359375 
Q 23 53.8125 27.875 53.8125 
Q 34.515625 53.8125 38.984375 51.65625 
Q 43.453125 49.515625 46.15625 45.71875 
Q 48.875 41.9375 50.015625 36.8125 
Q 51.171875 31.6875 51.171875 25.734375 
L 51.171875 24.5625 
z
M 42.09375 31.296875 
Q 41.359375 39.65625 37.84375 43.484375 
Q 34.328125 47.3125 27.734375 47.3125 
Q 25.53125 47.3125 23.109375 46.609375 
Q 20.703125 45.90625 18.65625 44.09375 
Q 16.609375 42.28125 15.1875 39.171875 
Q 13.765625 36.078125 13.578125 31.296875 
z
" id="LiberationSans-101"/>
     <path d="M 13.421875 26.65625 
Q 13.421875 22.125 14.078125 18.3125 
Q 14.75 14.5 16.3125 11.734375 
Q 17.875 8.984375 20.4375 7.46875 
Q 23 5.953125 26.765625 5.953125 
Q 31.453125 5.953125 34.59375 8.484375 
Q 37.75 11.03125 38.484375 16.3125 
L 47.359375 15.71875 
Q 46.921875 12.453125 45.453125 9.421875 
Q 44 6.390625 41.484375 4.09375 
Q 38.96875 1.8125 35.34375 0.40625 
Q 31.734375 -0.984375 27 -0.984375 
Q 20.796875 -0.984375 16.453125 1.109375 
Q 12.109375 3.21875 9.390625 6.90625 
Q 6.6875 10.59375 5.46875 15.59375 
Q 4.25 20.609375 4.25 26.46875 
Q 4.25 31.78125 5.125 35.859375 
Q 6 39.9375 7.59375 42.984375 
Q 9.1875 46.046875 11.328125 48.125 
Q 13.484375 50.203125 15.984375 51.4375 
Q 18.5 52.6875 21.28125 53.25 
Q 24.078125 53.8125 26.90625 53.8125 
Q 31.34375 53.8125 34.8125 52.59375 
Q 38.28125 51.375 40.796875 49.25 
Q 43.3125 47.125 44.875 44.234375 
Q 46.4375 41.359375 47.078125 38.03125 
L 38.03125 37.359375 
Q 37.359375 41.75 34.5625 44.328125 
Q 31.78125 46.921875 26.65625 46.921875 
Q 22.90625 46.921875 20.390625 45.671875 
Q 17.875 44.4375 16.3125 41.921875 
Q 14.75 39.40625 14.078125 35.59375 
Q 13.421875 31.78125 13.421875 26.65625 
z
" id="LiberationSans-99"/>
    </defs>
    <use xlink:href="#LiberationSans-69"/>
    <use x="66.699219" xlink:href="#LiberationSans-103"/>
    <use x="122.314453" xlink:href="#LiberationSans-111"/>
    <use x="177.929688" xlink:href="#LiberationSans-109"/>
    <use x="261.230469" xlink:href="#LiberationSans-111"/>
    <use x="316.845703" xlink:href="#LiberationSans-116"/>
    <use x="344.628906" xlink:href="#LiberationSans-105"/>
    <use x="366.845703" xlink:href="#LiberationSans-111"/>
    <use x="422.460938" xlink:href="#LiberationSans-110"/>
    <use x="478.076172" xlink:href="#LiberationSans-32"/>
    <use x="505.859375" xlink:href="#LiberationSans-105"/>
    <use x="528.076172" xlink:href="#LiberationSans-110"/>
    <use x="583.691406" xlink:href="#LiberationSans-112"/>
    <use x="639.306641" xlink:href="#LiberationSans-117"/>
    <use x="694.921875" xlink:href="#LiberationSans-116"/>
    <use x="722.705078" xlink:href="#LiberationSans-47"/>
    <use x="750.488281" xlink:href="#LiberationSans-100"/>
    <use x="806.103516" xlink:href="#LiberationSans-101"/>
    <use x="861.71875" xlink:href="#LiberationSans-99"/>
    <use x="911.71875" xlink:href="#LiberationSans-111"/>
    <use x="967.333984" xlink:href="#LiberationSans-100"/>
    <use x="1022.949219" xlink:href="#LiberationSans-105"/>
    <use x="1045.166016" xlink:href="#LiberationSans-110"/>
    <use x="1100.78125" xlink:href="#LiberationSans-103"/>
   </g>
  </g>
 </g>
 <defs>
  <clipPath id="pb729ae52e5">
   <rect height="120.96" width="357.12" x="57.6" y="41.472"/>
  </clipPath>
  <clipPath id="p4847459608">
   <rect height="120.96" width="357.12" x="57.6" y="186.624"/>
  </clipPath>
 </defs>
</svg>
