<?xml version="1.0" encoding="utf-8" standalone="no"?>
<!DOCTYPE svg PUBLIC "-//W3C//DTD SVG 1.1//EN"
  "http://www.w3.org/Graphics/SVG/1.1/DTD/svg11.dtd">
<!-- Created with matplotlib (https://matplotlib.org/) -->
<svg height="345.6pt" version="1.1" viewBox="0 0 460.8 345.6" width="460.8pt" xmlns="http://www.w3.org/2000/svg" xmlns:xlink="http://www.w3.org/1999/xlink">
 <metadata>
  <rdf:RDF xmlns:cc="http://creativecommons.org/ns#" xmlns:dc="http://purl.org/dc/elements/1.1/" xmlns:rdf="http://www.w3.org/1999/02/22-rdf-syntax-ns#">
   <cc:Work>
    <dc:type rdf:resource="http://purl.org/dc/dcmitype/StillImage"/>
    <dc:date>2022-05-06T11:28:58.153573</dc:date>
    <dc:format>image/svg+xml</dc:format>
    <dc:creator>
     <cc:Agent>
      <dc:title>Matplotlib v3.3.4, https://matplotlib.org/</dc:title>
     </cc:Agent>
    </dc:creator>
   </cc:Work>
  </rdf:RDF>
 </metadata>
 <defs>
  <style type="text/css">*{stroke-linecap:butt;stroke-linejoin:round;}</style>
 </defs>
 <g id="figure_1">
  <g id="patch_1">
   <path d="M 0 345.6 
L 460.8 345.6 
L 460.8 0 
L 0 0 
z
" style="fill:#262626;"/>
  </g>
  <g id="axes_1">
   <g id="patch_2">
    <path d="M 57.6 119.740235 
L 414.72 119.740235 
L 414.72 41.472 
L 57.6 41.472 
z
" style="fill:#1a1a1a;"/>
   </g>
   <g id="matplotlib.axis_1">
    <g id="xtick_1">
     <g id="line2d_1">
      <defs>
       <path d="M 0 0 
L 0 3.5 
" id="m87f66a1242" style="stroke:#ffffff;stroke-width:0.8;"/>
      </defs>
      <g>
       <use style="fill:#ffffff;stroke:#ffffff;stroke-width:0.8;" x="73.832727" xlink:href="#m87f66a1242" y="119.740235"/>
      </g>
     </g>
     <g id="text_1">
      <!-- 0 -->
      <g style="fill:#ffffff;" transform="translate(71.052259 133.98711)scale(0.1 -0.1)">
       <defs>
        <path d="M 51.703125 34.421875 
Q 51.703125 24.515625 49.828125 17.75 
Q 47.953125 10.984375 44.703125 6.8125 
Q 41.453125 2.640625 37.0625 0.828125 
Q 32.671875 -0.984375 27.6875 -0.984375 
Q 22.65625 -0.984375 18.3125 0.828125 
Q 13.96875 2.640625 10.765625 6.78125 
Q 7.5625 10.9375 5.734375 17.703125 
Q 3.90625 24.46875 3.90625 34.421875 
Q 3.90625 44.828125 5.734375 51.640625 
Q 7.5625 58.453125 10.78125 62.5 
Q 14.015625 66.546875 18.40625 68.1875 
Q 22.796875 69.828125 27.984375 69.828125 
Q 32.90625 69.828125 37.21875 68.1875 
Q 41.546875 66.546875 44.765625 62.5 
Q 48 58.453125 49.84375 51.640625 
Q 51.703125 44.828125 51.703125 34.421875 
z
M 42.78125 34.421875 
Q 42.78125 42.625 41.796875 48.0625 
Q 40.828125 53.515625 38.921875 56.765625 
Q 37.015625 60.015625 34.25 61.359375 
Q 31.5 62.703125 27.984375 62.703125 
Q 24.265625 62.703125 21.4375 61.328125 
Q 18.609375 59.96875 16.671875 56.71875 
Q 14.75 53.46875 13.765625 48.015625 
Q 12.796875 42.578125 12.796875 34.421875 
Q 12.796875 26.515625 13.796875 21.09375 
Q 14.796875 15.671875 16.71875 12.375 
Q 18.65625 9.078125 21.4375 7.640625 
Q 24.21875 6.203125 27.78125 6.203125 
Q 31.25 6.203125 34.03125 7.640625 
Q 36.8125 9.078125 38.734375 12.375 
Q 40.671875 15.671875 41.71875 21.09375 
Q 42.78125 26.515625 42.78125 34.421875 
z
" id="LiberationSans-48"/>
       </defs>
       <use xlink:href="#LiberationSans-48"/>
      </g>
     </g>
    </g>
    <g id="xtick_2">
     <g id="line2d_2">
      <g>
       <use style="fill:#ffffff;stroke:#ffffff;stroke-width:0.8;" x="138.776625" xlink:href="#m87f66a1242" y="119.740235"/>
      </g>
     </g>
     <g id="text_2">
      <!-- 200 -->
      <g style="fill:#ffffff;" transform="translate(130.435219 133.98711)scale(0.1 -0.1)">
       <defs>
        <path d="M 5.03125 0 
L 5.03125 6.203125 
Q 7.515625 11.921875 11.109375 16.28125 
Q 14.703125 20.65625 18.65625 24.1875 
Q 22.609375 27.734375 26.484375 30.765625 
Q 30.375 33.796875 33.5 36.8125 
Q 36.625 39.84375 38.546875 43.15625 
Q 40.484375 46.484375 40.484375 50.6875 
Q 40.484375 53.609375 39.59375 55.828125 
Q 38.71875 58.0625 37.0625 59.5625 
Q 35.40625 61.078125 33.078125 61.828125 
Q 30.765625 62.59375 27.9375 62.59375 
Q 25.296875 62.59375 22.96875 61.859375 
Q 20.65625 61.140625 18.84375 59.671875 
Q 17.046875 58.203125 15.890625 56.03125 
Q 14.75 53.859375 14.40625 50.984375 
L 5.421875 51.8125 
Q 5.859375 55.515625 7.46875 58.78125 
Q 9.078125 62.0625 11.90625 64.53125 
Q 14.75 67 18.71875 68.40625 
Q 22.703125 69.828125 27.9375 69.828125 
Q 33.0625 69.828125 37.0625 68.609375 
Q 41.0625 67.390625 43.8125 64.984375 
Q 46.578125 62.59375 48.046875 59.078125 
Q 49.515625 55.5625 49.515625 50.984375 
Q 49.515625 47.515625 48.265625 44.390625 
Q 47.015625 41.265625 44.9375 38.421875 
Q 42.875 35.59375 40.140625 32.953125 
Q 37.40625 30.328125 34.421875 27.8125 
Q 31.453125 25.296875 28.421875 22.828125 
Q 25.390625 20.359375 22.71875 17.859375 
Q 20.0625 15.375 17.96875 12.8125 
Q 15.875 10.25 14.703125 7.46875 
L 50.59375 7.46875 
L 50.59375 0 
z
" id="LiberationSans-50"/>
       </defs>
       <use xlink:href="#LiberationSans-50"/>
       <use x="55.615234" xlink:href="#LiberationSans-48"/>
       <use x="111.230469" xlink:href="#LiberationSans-48"/>
      </g>
     </g>
    </g>
    <g id="xtick_3">
     <g id="line2d_3">
      <g>
       <use style="fill:#ffffff;stroke:#ffffff;stroke-width:0.8;" x="203.720523" xlink:href="#m87f66a1242" y="119.740235"/>
      </g>
     </g>
     <g id="text_3">
      <!-- 400 -->
      <g style="fill:#ffffff;" transform="translate(195.379117 133.98711)scale(0.1 -0.1)">
       <defs>
        <path d="M 43.015625 15.578125 
L 43.015625 0 
L 34.71875 0 
L 34.71875 15.578125 
L 2.296875 15.578125 
L 2.296875 22.40625 
L 33.796875 68.796875 
L 43.015625 68.796875 
L 43.015625 22.515625 
L 52.6875 22.515625 
L 52.6875 15.578125 
z
M 34.71875 58.890625 
Q 34.625 58.640625 34.234375 57.9375 
Q 33.84375 57.234375 33.34375 56.34375 
Q 32.859375 55.46875 32.34375 54.5625 
Q 31.84375 53.65625 31.453125 53.078125 
L 13.8125 27.09375 
Q 13.578125 26.703125 13.109375 26.0625 
Q 12.640625 25.4375 12.15625 24.78125 
Q 11.671875 24.125 11.171875 23.484375 
Q 10.6875 22.859375 10.40625 22.515625 
L 34.71875 22.515625 
z
" id="LiberationSans-52"/>
       </defs>
       <use xlink:href="#LiberationSans-52"/>
       <use x="55.615234" xlink:href="#LiberationSans-48"/>
       <use x="111.230469" xlink:href="#LiberationSans-48"/>
      </g>
     </g>
    </g>
    <g id="xtick_4">
     <g id="line2d_4">
      <g>
       <use style="fill:#ffffff;stroke:#ffffff;stroke-width:0.8;" x="268.664421" xlink:href="#m87f66a1242" y="119.740235"/>
      </g>
     </g>
     <g id="text_4">
      <!-- 600 -->
      <g style="fill:#ffffff;" transform="translate(260.323015 133.98711)scale(0.1 -0.1)">
       <defs>
        <path d="M 51.21875 22.515625 
Q 51.21875 17.328125 49.78125 13 
Q 48.34375 8.6875 45.53125 5.578125 
Q 42.71875 2.484375 38.5625 0.75 
Q 34.421875 -0.984375 29 -0.984375 
Q 23 -0.984375 18.5 1.3125 
Q 14.015625 3.609375 11.03125 7.921875 
Q 8.0625 12.25 6.5625 18.53125 
Q 5.078125 24.8125 5.078125 32.8125 
Q 5.078125 42 6.765625 48.921875 
Q 8.453125 55.859375 11.625 60.5 
Q 14.796875 65.140625 19.359375 67.484375 
Q 23.921875 69.828125 29.6875 69.828125 
Q 33.203125 69.828125 36.28125 69.09375 
Q 39.359375 68.359375 41.875 66.71875 
Q 44.390625 65.09375 46.28125 62.40625 
Q 48.1875 59.71875 49.3125 55.8125 
L 40.921875 54.296875 
Q 39.546875 58.734375 36.546875 60.71875 
Q 33.546875 62.703125 29.59375 62.703125 
Q 25.984375 62.703125 23.046875 60.984375 
Q 20.125 59.28125 18.0625 55.875 
Q 16.015625 52.484375 14.90625 47.359375 
Q 13.8125 42.234375 13.8125 35.40625 
Q 16.21875 39.84375 20.5625 42.15625 
Q 24.90625 44.484375 30.515625 44.484375 
Q 35.203125 44.484375 39.015625 42.96875 
Q 42.828125 41.453125 45.53125 38.59375 
Q 48.25 35.75 49.734375 31.671875 
Q 51.21875 27.59375 51.21875 22.515625 
z
M 42.28125 22.125 
Q 42.28125 25.6875 41.40625 28.5625 
Q 40.53125 31.453125 38.765625 33.46875 
Q 37.015625 35.5 34.421875 36.59375 
Q 31.84375 37.703125 28.421875 37.703125 
Q 26.03125 37.703125 23.578125 36.984375 
Q 21.140625 36.28125 19.15625 34.6875 
Q 17.1875 33.109375 15.9375 30.515625 
Q 14.703125 27.9375 14.703125 24.21875 
Q 14.703125 20.40625 15.671875 17.109375 
Q 16.65625 13.8125 18.484375 11.375 
Q 20.3125 8.9375 22.890625 7.515625 
Q 25.484375 6.109375 28.71875 6.109375 
Q 31.890625 6.109375 34.40625 7.203125 
Q 36.921875 8.296875 38.671875 10.375 
Q 40.4375 12.453125 41.359375 15.421875 
Q 42.28125 18.40625 42.28125 22.125 
z
" id="LiberationSans-54"/>
       </defs>
       <use xlink:href="#LiberationSans-54"/>
       <use x="55.615234" xlink:href="#LiberationSans-48"/>
       <use x="111.230469" xlink:href="#LiberationSans-48"/>
      </g>
     </g>
    </g>
    <g id="xtick_5">
     <g id="line2d_5">
      <g>
       <use style="fill:#ffffff;stroke:#ffffff;stroke-width:0.8;" x="333.608319" xlink:href="#m87f66a1242" y="119.740235"/>
      </g>
     </g>
     <g id="text_5">
      <!-- 800 -->
      <g style="fill:#ffffff;" transform="translate(325.266913 133.98711)scale(0.1 -0.1)">
       <defs>
        <path d="M 51.265625 19.1875 
Q 51.265625 14.796875 49.875 11.109375 
Q 48.484375 7.421875 45.625 4.734375 
Q 42.78125 2.046875 38.328125 0.53125 
Q 33.890625 -0.984375 27.828125 -0.984375 
Q 21.78125 -0.984375 17.359375 0.53125 
Q 12.9375 2.046875 10.03125 4.703125 
Q 7.125 7.375 5.734375 11.0625 
Q 4.34375 14.75 4.34375 19.09375 
Q 4.34375 22.859375 5.484375 25.78125 
Q 6.640625 28.71875 8.5625 30.828125 
Q 10.5 32.953125 12.96875 34.25 
Q 15.4375 35.546875 18.0625 35.984375 
L 18.0625 36.1875 
Q 15.1875 36.859375 12.90625 38.375 
Q 10.640625 39.890625 9.09375 42.015625 
Q 7.5625 44.140625 6.75 46.71875 
Q 5.953125 49.3125 5.953125 52.203125 
Q 5.953125 55.8125 7.34375 59 
Q 8.734375 62.203125 11.46875 64.625 
Q 14.203125 67.046875 18.25 68.4375 
Q 22.3125 69.828125 27.640625 69.828125 
Q 33.25 69.828125 37.375 68.40625 
Q 41.5 67 44.203125 64.578125 
Q 46.921875 62.15625 48.234375 58.9375 
Q 49.5625 55.71875 49.5625 52.09375 
Q 49.5625 49.265625 48.75 46.671875 
Q 47.953125 44.09375 46.40625 41.96875 
Q 44.875 39.84375 42.59375 38.34375 
Q 40.328125 36.859375 37.359375 36.28125 
L 37.359375 36.078125 
Q 40.328125 35.59375 42.859375 34.296875 
Q 45.40625 33.015625 47.265625 30.890625 
Q 49.125 28.765625 50.1875 25.828125 
Q 51.265625 22.90625 51.265625 19.1875 
z
M 40.4375 51.609375 
Q 40.4375 54.203125 39.765625 56.34375 
Q 39.109375 58.5 37.59375 60.03125 
Q 36.078125 61.578125 33.640625 62.421875 
Q 31.203125 63.28125 27.640625 63.28125 
Q 24.171875 63.28125 21.78125 62.421875 
Q 19.390625 61.578125 17.84375 60.03125 
Q 16.3125 58.5 15.625 56.34375 
Q 14.9375 54.203125 14.9375 51.609375 
Q 14.9375 49.5625 15.46875 47.40625 
Q 16.015625 45.265625 17.421875 43.5 
Q 18.84375 41.75 21.328125 40.625 
Q 23.828125 39.5 27.734375 39.5 
Q 31.890625 39.5 34.40625 40.625 
Q 36.921875 41.75 38.25 43.5 
Q 39.59375 45.265625 40.015625 47.40625 
Q 40.4375 49.5625 40.4375 51.609375 
z
M 42.140625 20.015625 
Q 42.140625 22.515625 41.453125 24.828125 
Q 40.765625 27.15625 39.109375 28.9375 
Q 37.453125 30.71875 34.640625 31.8125 
Q 31.84375 32.90625 27.640625 32.90625 
Q 23.78125 32.90625 21.0625 31.8125 
Q 18.359375 30.71875 16.671875 28.90625 
Q 14.984375 27.09375 14.203125 24.71875 
Q 13.421875 22.359375 13.421875 19.828125 
Q 13.421875 16.65625 14.203125 14.03125 
Q 14.984375 11.421875 16.6875 9.546875 
Q 18.40625 7.671875 21.1875 6.640625 
Q 23.96875 5.609375 27.9375 5.609375 
Q 31.9375 5.609375 34.671875 6.640625 
Q 37.40625 7.671875 39.0625 9.546875 
Q 40.71875 11.421875 41.421875 14.078125 
Q 42.140625 16.75 42.140625 20.015625 
z
" id="LiberationSans-56"/>
       </defs>
       <use xlink:href="#LiberationSans-56"/>
       <use x="55.615234" xlink:href="#LiberationSans-48"/>
       <use x="111.230469" xlink:href="#LiberationSans-48"/>
      </g>
     </g>
    </g>
    <g id="xtick_6">
     <g id="line2d_6">
      <g>
       <use style="fill:#ffffff;stroke:#ffffff;stroke-width:0.8;" x="398.552217" xlink:href="#m87f66a1242" y="119.740235"/>
      </g>
     </g>
     <g id="text_6">
      <!-- 1000 -->
      <g style="fill:#ffffff;" transform="translate(387.430342 133.98711)scale(0.1 -0.1)">
       <defs>
        <path d="M 7.625 0 
L 7.625 7.46875 
L 25.140625 7.46875 
L 25.140625 60.40625 
L 9.625 49.3125 
L 9.625 57.625 
L 25.875 68.796875 
L 33.984375 68.796875 
L 33.984375 7.46875 
L 50.734375 7.46875 
L 50.734375 0 
z
" id="LiberationSans-49"/>
       </defs>
       <use xlink:href="#LiberationSans-49"/>
       <use x="55.615234" xlink:href="#LiberationSans-48"/>
       <use x="111.230469" xlink:href="#LiberationSans-48"/>
       <use x="166.845703" xlink:href="#LiberationSans-48"/>
      </g>
     </g>
    </g>
   </g>
   <g id="matplotlib.axis_2">
    <g id="ytick_1">
     <g id="line2d_7">
      <defs>
       <path d="M 0 0 
L -3.5 0 
" id="ma5b382792f" style="stroke:#ffffff;stroke-width:0.8;"/>
      </defs>
      <g>
       <use style="fill:#ffffff;stroke:#ffffff;stroke-width:0.8;" x="57.6" xlink:href="#ma5b382792f" y="119.740235"/>
      </g>
     </g>
     <g id="text_7">
      <!-- −1 -->
      <g style="fill:#ffffff;" transform="translate(39.198437 123.363673)scale(0.1 -0.1)">
       <defs>
        <path d="M 4.9375 29.6875 
L 4.9375 36.8125 
L 53.515625 36.8125 
L 53.515625 29.6875 
z
" id="LiberationSans-8722"/>
       </defs>
       <use xlink:href="#LiberationSans-8722"/>
       <use x="58.398438" xlink:href="#LiberationSans-49"/>
      </g>
     </g>
    </g>
    <g id="ytick_2">
     <g id="line2d_8">
      <g>
       <use style="fill:#ffffff;stroke:#ffffff;stroke-width:0.8;" x="57.6" xlink:href="#ma5b382792f" y="80.606118"/>
      </g>
     </g>
     <g id="text_8">
      <!-- 0 -->
      <g style="fill:#ffffff;" transform="translate(45.039062 84.229555)scale(0.1 -0.1)">
       <use xlink:href="#LiberationSans-48"/>
      </g>
     </g>
    </g>
    <g id="ytick_3">
     <g id="line2d_9">
      <g>
       <use style="fill:#ffffff;stroke:#ffffff;stroke-width:0.8;" x="57.6" xlink:href="#ma5b382792f" y="41.472"/>
      </g>
     </g>
     <g id="text_9">
      <!-- 1 -->
      <g style="fill:#ffffff;" transform="translate(45.039062 45.095438)scale(0.1 -0.1)">
       <use xlink:href="#LiberationSans-49"/>
      </g>
     </g>
    </g>
    <g id="text_10">
     <!-- $u$ -->
     <g style="fill:#ffffff;" transform="translate(33.123437 83.806118)rotate(-90)scale(0.1 -0.1)">
      <defs>
       <path d="M 6.6875 21.6875 
L 13.09375 54.6875 
L 22.125 54.6875 
L 15.71875 22.015625 
Q 15.234375 19.625 15.015625 17.921875 
Q 14.796875 16.21875 14.796875 15.09375 
Q 14.796875 10.9375 17.328125 8.65625 
Q 19.875 6.390625 24.515625 6.390625 
Q 31.734375 6.390625 37 11.265625 
Q 42.28125 16.15625 43.890625 24.421875 
L 49.90625 54.6875 
L 58.890625 54.6875 
L 48.296875 0 
L 39.3125 0 
L 41.109375 8.59375 
Q 37.3125 3.8125 32.0625 1.1875 
Q 26.8125 -1.421875 20.90625 -1.421875 
Q 13.71875 -1.421875 9.71875 2.515625 
Q 5.71875 6.453125 5.71875 13.484375 
Q 5.71875 14.9375 5.953125 17.140625 
Q 6.203125 19.34375 6.6875 21.6875 
z
" id="DejaVuSans-Oblique-117"/>
      </defs>
      <use transform="translate(0 0.3125)" xlink:href="#DejaVuSans-Oblique-117"/>
     </g>
    </g>
   </g>
   <g id="line2d_10">
    <path clip-path="url(#pce47c50004)" d="M 73.832727 63.399105 
L 74.092503 62.72686 
L 74.157447 92.771306 
L 74.222391 92.308457 
L 75.456325 84.339258 
L 76.690259 77.749057 
L 77.924193 72.299229 
L 79.093183 68.008904 
L 79.158127 98.000793 
L 79.223071 97.48591 
L 80.457005 88.6208 
L 81.690939 81.289717 
L 82.924873 75.227211 
L 84.158807 70.213766 
L 85.392741 66.067852 
L 85.652517 65.290963 
L 85.717461 95.309896 
L 85.782404 94.821788 
L 87.016339 86.41768 
L 88.250273 79.467827 
L 89.484207 73.720582 
L 90.718141 68.967845 
L 91.04286 67.860107 
L 91.107804 97.853477 
L 91.172748 97.34006 
L 92.406682 88.500188 
L 93.640616 81.189976 
L 94.87455 75.144729 
L 96.108484 70.145557 
L 97.342418 66.011445 
L 98.511408 62.756905 
L 98.576352 92.801052 
L 98.641296 92.337908 
L 99.87523 84.363613 
L 101.109164 77.769197 
L 102.343098 72.315884 
L 103.577032 67.806218 
L 103.966696 66.55115 
L 104.03164 96.557544 
L 104.096584 96.057021 
L 105.330518 87.439168 
L 106.564452 80.312555 
L 107.798386 74.419138 
L 109.03232 69.545522 
L 110.266254 65.515242 
L 111.565132 62.02388 
L 111.630076 61.866974 
L 111.69502 91.919976 
L 111.759964 91.465598 
L 112.993898 83.642248 
L 114.227832 77.172658 
L 115.461766 71.822571 
L 116.37098 68.482327 
L 116.435924 98.469505 
L 116.500868 97.949958 
L 117.734802 89.004549 
L 118.968736 81.607062 
L 120.20267 75.489642 
L 121.436604 70.430786 
L 122.670538 66.247318 
L 123.969416 62.623254 
L 124.488968 61.364772 
L 124.553912 91.422772 
L 124.618855 90.973341 
L 125.852789 83.235172 
L 127.086724 76.836022 
L 128.320658 71.544187 
L 129.554592 67.168056 
L 130.85347 63.37709 
L 131.048301 62.871044 
L 131.113245 92.914056 
L 131.178189 92.449787 
L 132.412123 84.456132 
L 133.646057 77.845707 
L 134.879991 72.379155 
L 136.113925 67.85854 
L 137.412803 63.942411 
L 137.542691 63.592169 
L 137.607635 93.628005 
L 137.672579 93.156632 
L 138.906513 85.040664 
L 140.140447 78.329091 
L 141.374381 72.778894 
L 142.608315 68.189108 
L 143.907193 64.213057 
L 143.972137 64.034367 
L 144.037081 94.065804 
L 144.102025 93.590074 
L 145.335959 85.399103 
L 146.569893 78.625505 
L 147.803827 73.024017 
L 149.037761 68.391814 
L 150.336639 64.379019 
L 150.401583 94.407026 
L 150.466527 93.927901 
L 151.700461 85.678473 
L 152.934395 78.856532 
L 154.168329 73.215066 
L 155.402263 68.549805 
L 156.701141 64.50837 
L 157.02586 63.618124 
L 157.090804 93.653702 
L 157.155748 93.182073 
L 158.389682 85.061703 
L 159.623616 78.346489 
L 160.85755 72.793281 
L 162.091484 68.201006 
L 162.221372 67.766438 
L 162.286316 97.760739 
L 162.35126 97.248245 
L 163.585194 88.424261 
L 164.819128 81.127187 
L 166.053062 75.092805 
L 167.286996 70.102618 
L 168.52093 65.975937 
L 169.819808 62.401066 
L 169.884752 92.448754 
L 169.949696 91.989114 
L 171.18363 84.075175 
L 172.417564 77.530671 
L 173.651498 72.118633 
L 174.885432 67.643099 
L 175.924535 64.480677 
L 175.989479 94.507673 
L 176.054423 94.027547 
L 177.288357 85.760875 
L 178.522291 78.924676 
L 179.756225 73.271418 
L 180.990159 68.596405 
L 182.289037 64.546524 
L 182.6787 63.481285 
L 182.743644 93.518225 
L 182.808588 93.047944 
L 184.042522 84.950784 
L 185.276456 78.254764 
L 186.51039 72.717428 
L 187.744324 68.138278 
L 188.653539 65.279356 
L 188.718483 95.298405 
L 188.783427 94.810411 
L 190.017361 86.408272 
L 191.251295 79.460047 
L 192.485229 73.714148 
L 193.719163 68.962525 
L 194.953097 65.033126 
L 196.251975 61.629158 
L 196.576694 60.879332 
L 196.641638 90.942161 
L 196.706582 90.497513 
L 197.940516 82.841682 
L 199.17445 76.510622 
L 200.408384 71.275094 
L 201.642318 66.945527 
L 202.226813 65.164684 
L 202.291757 95.184873 
L 202.356701 94.698009 
L 203.590635 86.31532 
L 204.824569 79.383179 
L 206.058503 73.650582 
L 207.292437 68.909958 
L 208.526371 64.989656 
L 209.110867 63.377152 
L 209.17581 93.415128 
L 209.240754 92.945873 
L 210.474688 84.866375 
L 211.708622 78.184961 
L 212.942557 72.659704 
L 214.176491 68.090543 
L 214.306378 67.658162 
L 214.371322 97.653541 
L 214.436266 97.142113 
L 215.6702 88.336495 
L 216.904134 81.054608 
L 218.138068 75.032785 
L 218.527732 73.356874 
L 218.592676 103.29555 
L 218.65762 102.727983 
L 219.891554 92.955781 
L 221.125488 84.874569 
L 222.359422 78.191737 
L 223.593356 72.665308 
L 224.82729 68.095177 
L 225.281897 66.618619 
L 225.346841 96.624341 
L 225.411785 96.123154 
L 226.645719 87.493857 
L 227.879653 80.357781 
L 229.113587 74.456538 
L 230.347521 69.576451 
L 231.581455 65.540818 
L 231.646399 95.557265 
L 231.711343 95.066695 
L 232.945277 86.620209 
L 234.179211 79.63531 
L 235.413145 73.859083 
L 236.647079 69.08238 
L 237.881013 65.132242 
L 237.945957 64.944407 
L 238.010901 94.966788 
L 238.075845 94.482094 
L 239.309779 86.136767 
L 240.543713 79.235523 
L 241.777647 73.528476 
L 243.011581 68.808982 
L 244.050684 65.474177 
L 244.115627 95.491287 
L 244.180571 95.001374 
L 245.414505 86.56619 
L 246.64844 79.590639 
L 247.882374 73.822142 
L 249.116308 69.051832 
L 250.350242 65.10698 
L 251.194512 62.808789 
L 251.259456 92.85242 
L 251.3244 92.388764 
L 252.558334 84.405669 
L 253.792268 77.803976 
L 255.026202 72.344645 
L 256.260136 67.830002 
L 257.299239 64.639945 
L 257.364183 94.665356 
L 257.429127 94.183661 
L 258.663061 85.889975 
L 259.896995 79.031436 
L 261.130929 73.359705 
L 262.364863 68.669415 
L 263.598797 64.790737 
L 264.897675 61.430706 
L 264.962619 61.279701 
L 265.027563 91.338547 
L 265.092507 90.889954 
L 266.326441 83.166214 
L 267.560375 76.778997 
L 268.794309 71.49703 
L 270.028243 67.129059 
L 271.327121 63.345162 
L 271.846672 62.031177 
L 271.911616 92.082546 
L 271.97656 91.62655 
L 273.210494 83.775349 
L 274.444428 77.282727 
L 275.678362 71.913594 
L 276.782408 67.902191 
L 276.847352 97.895142 
L 276.912296 97.38131 
L 278.14623 88.5343 
L 279.380164 81.218185 
L 280.614098 75.168057 
L 281.848032 70.164848 
L 283.081966 66.027399 
L 284.380844 62.443199 
L 284.445788 92.490468 
L 284.510732 92.030413 
L 285.744666 84.109328 
L 286.9786 77.558913 
L 288.212534 72.141989 
L 289.446468 67.662413 
L 290.745346 63.781836 
L 291.070066 62.927023 
L 291.13501 92.969477 
L 291.199953 92.504656 
L 292.433888 84.501507 
L 293.667822 77.88323 
L 294.901756 72.410185 
L 296.13569 67.884201 
L 296.395465 67.036092 
L 296.460409 97.037661 
L 296.525353 96.532361 
L 297.759287 87.832254 
L 298.993221 80.637622 
L 300.227155 74.687955 
L 301.461089 69.767823 
L 302.695023 65.699075 
L 303.928957 62.334387 
L 303.993901 92.382739 
L 304.058845 91.923756 
L 305.292779 84.021126 
L 306.526713 77.485975 
L 307.760647 72.081671 
L 308.994581 67.612533 
L 309.319301 66.570895 
L 309.384245 96.577092 
L 309.449189 96.076375 
L 310.683123 87.455173 
L 311.917057 80.325791 
L 313.150991 74.430083 
L 314.384925 69.554574 
L 315.618859 65.522727 
L 316.657961 62.673815 
L 316.722905 92.718789 
L 316.787849 92.256463 
L 318.021783 84.296261 
L 319.255717 77.7135 
L 320.489651 72.269825 
L 321.723585 67.768129 
L 323.022463 63.868389 
L 323.152351 63.519612 
L 323.217295 93.55617 
L 323.282239 93.085512 
L 324.516173 84.981851 
L 325.750107 78.280455 
L 326.984041 72.738674 
L 328.217975 68.155847 
L 329.516853 64.185826 
L 330.685843 61.232019 
L 330.750787 91.291339 
L 330.815731 90.843216 
L 332.049665 83.127564 
L 333.283599 76.747035 
L 334.517533 71.470599 
L 335.751467 67.107201 
L 336.141131 65.89284 
L 336.206075 95.905785 
L 336.271019 95.411747 
L 337.504953 86.905552 
L 338.738887 79.871277 
L 339.972821 74.054219 
L 341.206755 69.243749 
L 342.440689 65.265688 
L 343.025184 63.629426 
L 343.090128 93.664892 
L 343.155072 93.193152 
L 344.389006 85.070865 
L 345.62294 78.354065 
L 346.856874 72.799547 
L 348.090808 68.206187 
L 349.389686 64.22704 
L 350.104069 62.354926 
L 350.169013 92.403073 
L 350.233957 91.943888 
L 351.467891 84.037775 
L 352.701825 77.499742 
L 353.935759 72.093056 
L 355.169693 67.621948 
L 356.273739 64.28148 
L 356.338683 94.310458 
L 356.403627 93.832294 
L 357.637561 85.59941 
L 358.871495 78.79115 
L 360.105429 73.160998 
L 361.339363 68.505092 
L 362.638241 64.471763 
L 362.703185 64.290499 
L 362.768129 94.319387 
L 362.833073 93.841135 
L 364.067007 85.60672 
L 365.300941 78.797196 
L 366.534875 73.165998 
L 367.768809 68.509227 
L 368.093529 67.423856 
L 368.158472 97.421566 
L 368.223416 96.912447 
L 369.45735 88.14657 
L 370.691284 80.897548 
L 371.925218 74.902903 
L 373.159153 69.945576 
L 374.393087 65.84607 
L 375.107469 63.805308 
L 375.172413 93.839023 
L 375.237357 93.365551 
L 376.471291 85.213432 
L 377.705225 78.471962 
L 378.939159 72.897043 
L 380.173094 68.286812 
L 381.471971 64.29305 
L 382.44613 61.780439 
L 382.511074 91.834302 
L 382.576018 91.380776 
L 383.809952 83.572104 
L 385.043886 77.114652 
L 386.27782 71.774602 
L 387.511754 67.3586 
L 388.810632 63.533094 
L 389.200295 62.526873 
L 389.265239 92.57331 
L 389.330183 92.112431 
L 390.564117 84.177153 
L 391.798051 77.615002 
L 393.031985 72.188372 
L 394.265919 67.70077 
L 395.43491 64.167948 
L 395.499853 94.198055 
L 395.564797 93.72101 
L 396.798731 85.507382 
L 398.032665 78.715047 
L 398.487273 76.52052 
L 398.487273 76.52052 
" style="fill:none;stroke:#9a72ac;stroke-linecap:round;stroke-width:1.5;"/>
   </g>
   <g id="patch_3">
    <path d="M 57.6 119.740235 
L 57.6 41.472 
" style="fill:none;stroke:#ffffff;stroke-linecap:square;stroke-linejoin:miter;stroke-width:0.8;"/>
   </g>
   <g id="patch_4">
    <path d="M 414.72 119.740235 
L 414.72 41.472 
" style="fill:none;stroke:#ffffff;stroke-linecap:square;stroke-linejoin:miter;stroke-width:0.8;"/>
   </g>
   <g id="patch_5">
    <path d="M 57.6 119.740235 
L 414.72 119.740235 
" style="fill:none;stroke:#ffffff;stroke-linecap:square;stroke-linejoin:miter;stroke-width:0.8;"/>
   </g>
   <g id="patch_6">
    <path d="M 57.6 41.472 
L 414.72 41.472 
" style="fill:none;stroke:#ffffff;stroke-linecap:square;stroke-linejoin:miter;stroke-width:0.8;"/>
   </g>
  </g>
  <g id="axes_2">
   <g id="patch_7">
    <path d="M 57.6 213.662118 
L 414.72 213.662118 
L 414.72 135.393882 
L 57.6 135.393882 
z
" style="fill:#1a1a1a;"/>
   </g>
   <g id="matplotlib.axis_3">
    <g id="xtick_7">
     <g id="line2d_11">
      <g>
       <use style="fill:#ffffff;stroke:#ffffff;stroke-width:0.8;" x="73.832727" xlink:href="#m87f66a1242" y="213.662118"/>
      </g>
     </g>
     <g id="text_11">
      <!-- 0 -->
      <g style="fill:#ffffff;" transform="translate(71.052259 227.908993)scale(0.1 -0.1)">
       <use xlink:href="#LiberationSans-48"/>
      </g>
     </g>
    </g>
    <g id="xtick_8">
     <g id="line2d_12">
      <g>
       <use style="fill:#ffffff;stroke:#ffffff;stroke-width:0.8;" x="138.776625" xlink:href="#m87f66a1242" y="213.662118"/>
      </g>
     </g>
     <g id="text_12">
      <!-- 200 -->
      <g style="fill:#ffffff;" transform="translate(130.435219 227.908993)scale(0.1 -0.1)">
       <use xlink:href="#LiberationSans-50"/>
       <use x="55.615234" xlink:href="#LiberationSans-48"/>
       <use x="111.230469" xlink:href="#LiberationSans-48"/>
      </g>
     </g>
    </g>
    <g id="xtick_9">
     <g id="line2d_13">
      <g>
       <use style="fill:#ffffff;stroke:#ffffff;stroke-width:0.8;" x="203.720523" xlink:href="#m87f66a1242" y="213.662118"/>
      </g>
     </g>
     <g id="text_13">
      <!-- 400 -->
      <g style="fill:#ffffff;" transform="translate(195.379117 227.908993)scale(0.1 -0.1)">
       <use xlink:href="#LiberationSans-52"/>
       <use x="55.615234" xlink:href="#LiberationSans-48"/>
       <use x="111.230469" xlink:href="#LiberationSans-48"/>
      </g>
     </g>
    </g>
    <g id="xtick_10">
     <g id="line2d_14">
      <g>
       <use style="fill:#ffffff;stroke:#ffffff;stroke-width:0.8;" x="268.664421" xlink:href="#m87f66a1242" y="213.662118"/>
      </g>
     </g>
     <g id="text_14">
      <!-- 600 -->
      <g style="fill:#ffffff;" transform="translate(260.323015 227.908993)scale(0.1 -0.1)">
       <use xlink:href="#LiberationSans-54"/>
       <use x="55.615234" xlink:href="#LiberationSans-48"/>
       <use x="111.230469" xlink:href="#LiberationSans-48"/>
      </g>
     </g>
    </g>
    <g id="xtick_11">
     <g id="line2d_15">
      <g>
       <use style="fill:#ffffff;stroke:#ffffff;stroke-width:0.8;" x="333.608319" xlink:href="#m87f66a1242" y="213.662118"/>
      </g>
     </g>
     <g id="text_15">
      <!-- 800 -->
      <g style="fill:#ffffff;" transform="translate(325.266913 227.908993)scale(0.1 -0.1)">
       <use xlink:href="#LiberationSans-56"/>
       <use x="55.615234" xlink:href="#LiberationSans-48"/>
       <use x="111.230469" xlink:href="#LiberationSans-48"/>
      </g>
     </g>
    </g>
    <g id="xtick_12">
     <g id="line2d_16">
      <g>
       <use style="fill:#ffffff;stroke:#ffffff;stroke-width:0.8;" x="398.552217" xlink:href="#m87f66a1242" y="213.662118"/>
      </g>
     </g>
     <g id="text_16">
      <!-- 1000 -->
      <g style="fill:#ffffff;" transform="translate(387.430342 227.908993)scale(0.1 -0.1)">
       <use xlink:href="#LiberationSans-49"/>
       <use x="55.615234" xlink:href="#LiberationSans-48"/>
       <use x="111.230469" xlink:href="#LiberationSans-48"/>
       <use x="166.845703" xlink:href="#LiberationSans-48"/>
      </g>
     </g>
    </g>
    <g id="text_17">
     <!-- $t$ (ms) -->
     <g style="fill:#ffffff;" transform="translate(222.81 241.283993)scale(0.1 -0.1)">
      <defs>
       <path d="M 42.28125 54.6875 
L 40.921875 47.703125 
L 23 47.703125 
L 17.1875 18.015625 
Q 16.890625 16.359375 16.75 15.234375 
Q 16.609375 14.109375 16.609375 13.484375 
Q 16.609375 10.359375 18.484375 8.9375 
Q 20.359375 7.515625 24.515625 7.515625 
L 33.59375 7.515625 
L 32.078125 0 
L 23.484375 0 
Q 15.484375 0 11.546875 3.125 
Q 7.625 6.25 7.625 12.59375 
Q 7.625 13.71875 7.765625 15.0625 
Q 7.90625 16.40625 8.203125 18.015625 
L 14.015625 47.703125 
L 6.390625 47.703125 
L 7.8125 54.6875 
L 15.28125 54.6875 
L 18.3125 70.21875 
L 27.296875 70.21875 
L 24.3125 54.6875 
z
" id="DejaVuSans-Oblique-116"/>
       <path id="LiberationSans-32"/>
       <path d="M 6.203125 25.984375 
Q 6.203125 32.765625 7.21875 38.96875 
Q 8.25 45.171875 10.4375 50.875 
Q 12.640625 56.59375 16.0625 61.953125 
Q 19.484375 67.328125 24.21875 72.46875 
L 32.71875 72.46875 
Q 28.125 67.328125 24.78125 61.9375 
Q 21.4375 56.546875 19.28125 50.796875 
Q 17.140625 45.0625 16.09375 38.859375 
Q 15.046875 32.671875 15.046875 25.875 
Q 15.046875 19.09375 16.09375 12.890625 
Q 17.140625 6.6875 19.28125 0.921875 
Q 21.4375 -4.828125 24.78125 -10.203125 
Q 28.125 -15.578125 32.71875 -20.703125 
L 24.21875 -20.703125 
Q 19.484375 -15.578125 16.0625 -10.203125 
Q 12.640625 -4.828125 10.4375 0.875 
Q 8.25 6.59375 7.21875 12.765625 
Q 6.203125 18.953125 6.203125 25.78125 
z
" id="LiberationSans-40"/>
       <path d="M 37.5 0 
L 37.5 33.5 
Q 37.5 37.359375 37.015625 39.9375 
Q 36.53125 42.53125 35.375 44.109375 
Q 34.234375 45.703125 32.375 46.359375 
Q 30.515625 47.015625 27.828125 47.015625 
Q 25.046875 47.015625 22.796875 45.921875 
Q 20.5625 44.828125 18.96875 42.75 
Q 17.390625 40.671875 16.53125 37.625 
Q 15.671875 34.578125 15.671875 30.609375 
L 15.671875 0 
L 6.9375 0 
L 6.9375 41.546875 
Q 6.9375 43.21875 6.90625 45.046875 
Q 6.890625 46.875 6.828125 48.5 
Q 6.78125 50.140625 6.734375 51.3125 
Q 6.6875 52.484375 6.640625 52.828125 
L 14.9375 52.828125 
Q 14.984375 52.59375 15.03125 51.515625 
Q 15.09375 50.4375 15.15625 49.046875 
Q 15.234375 47.65625 15.28125 46.21875 
Q 15.328125 44.78125 15.328125 43.796875 
L 15.484375 43.796875 
Q 16.65625 46.09375 18.015625 47.953125 
Q 19.390625 49.8125 21.21875 51.09375 
Q 23.046875 52.390625 25.40625 53.09375 
Q 27.78125 53.8125 30.90625 53.8125 
Q 36.921875 53.8125 40.40625 51.421875 
Q 43.890625 49.03125 45.265625 43.796875 
L 45.40625 43.796875 
Q 46.578125 46.09375 48.046875 47.953125 
Q 49.515625 49.8125 51.46875 51.09375 
Q 53.421875 52.390625 55.859375 53.09375 
Q 58.296875 53.8125 61.421875 53.8125 
Q 65.4375 53.8125 68.328125 52.734375 
Q 71.234375 51.65625 73.09375 49.40625 
Q 74.953125 47.171875 75.828125 43.625 
Q 76.703125 40.09375 76.703125 35.203125 
L 76.703125 0 
L 68.015625 0 
L 68.015625 33.5 
Q 68.015625 37.359375 67.53125 39.9375 
Q 67.046875 42.53125 65.890625 44.109375 
Q 64.75 45.703125 62.890625 46.359375 
Q 61.03125 47.015625 58.34375 47.015625 
Q 55.5625 47.015625 53.3125 45.96875 
Q 51.078125 44.921875 49.484375 42.875 
Q 47.90625 40.828125 47.046875 37.75 
Q 46.1875 34.671875 46.1875 30.609375 
L 46.1875 0 
z
" id="LiberationSans-109"/>
       <path d="M 46.390625 14.59375 
Q 46.390625 10.890625 44.9375 7.984375 
Q 43.5 5.078125 40.765625 3.09375 
Q 38.03125 1.125 34.046875 0.0625 
Q 30.078125 -0.984375 24.953125 -0.984375 
Q 20.359375 -0.984375 16.671875 -0.265625 
Q 12.984375 0.4375 10.203125 2 
Q 7.421875 3.5625 5.53125 6.125 
Q 3.65625 8.6875 2.78125 12.40625 
L 10.546875 13.921875 
Q 11.671875 9.671875 15.1875 7.6875 
Q 18.703125 5.71875 24.953125 5.71875 
Q 27.78125 5.71875 30.140625 6.109375 
Q 32.515625 6.5 34.21875 7.453125 
Q 35.9375 8.40625 36.890625 9.984375 
Q 37.84375 11.578125 37.84375 13.921875 
Q 37.84375 16.3125 36.71875 17.84375 
Q 35.59375 19.390625 33.59375 20.40625 
Q 31.59375 21.4375 28.734375 22.1875 
Q 25.875 22.953125 22.46875 23.875 
Q 19.28125 24.703125 16.15625 25.734375 
Q 13.03125 26.765625 10.515625 28.4375 
Q 8.015625 30.125 6.453125 32.609375 
Q 4.890625 35.109375 4.890625 38.875 
Q 4.890625 46.09375 10.03125 49.875 
Q 15.1875 53.65625 25.046875 53.65625 
Q 33.796875 53.65625 38.9375 50.578125 
Q 44.09375 47.515625 45.453125 40.71875 
L 37.546875 39.75 
Q 37.109375 41.796875 35.9375 43.1875 
Q 34.765625 44.578125 33.109375 45.4375 
Q 31.453125 46.296875 29.375 46.65625 
Q 27.296875 47.015625 25.046875 47.015625 
Q 19.09375 47.015625 16.25 45.203125 
Q 13.421875 43.40625 13.421875 39.75 
Q 13.421875 37.59375 14.46875 36.203125 
Q 15.53125 34.8125 17.40625 33.859375 
Q 19.28125 32.90625 21.921875 32.203125 
Q 24.5625 31.5 27.734375 30.71875 
Q 29.828125 30.171875 32.03125 29.5625 
Q 34.234375 28.953125 36.296875 28.09375 
Q 38.375 27.25 40.203125 26.09375 
Q 42.046875 24.953125 43.40625 23.34375 
Q 44.78125 21.734375 45.578125 19.578125 
Q 46.390625 17.4375 46.390625 14.59375 
z
" id="LiberationSans-115"/>
       <path d="M 27.09375 25.78125 
Q 27.09375 18.953125 26.0625 12.765625 
Q 25.046875 6.59375 22.84375 0.875 
Q 20.65625 -4.828125 17.234375 -10.203125 
Q 13.8125 -15.578125 9.078125 -20.703125 
L 0.59375 -20.703125 
Q 5.171875 -15.578125 8.515625 -10.203125 
Q 11.859375 -4.828125 14 0.921875 
Q 16.15625 6.6875 17.203125 12.890625 
Q 18.265625 19.09375 18.265625 25.875 
Q 18.265625 32.671875 17.203125 38.859375 
Q 16.15625 45.0625 14 50.796875 
Q 11.859375 56.546875 8.515625 61.9375 
Q 5.171875 67.328125 0.59375 72.46875 
L 9.078125 72.46875 
Q 13.8125 67.328125 17.234375 61.953125 
Q 20.65625 56.59375 22.84375 50.875 
Q 25.046875 45.171875 26.0625 38.96875 
Q 27.09375 32.765625 27.09375 25.984375 
z
" id="LiberationSans-41"/>
      </defs>
      <use transform="translate(0 0.53125)" xlink:href="#DejaVuSans-Oblique-116"/>
      <use transform="translate(39.208984 0.53125)" xlink:href="#LiberationSans-32"/>
      <use transform="translate(66.992188 0.53125)" xlink:href="#LiberationSans-40"/>
      <use transform="translate(100.292969 0.53125)" xlink:href="#LiberationSans-109"/>
      <use transform="translate(183.59375 0.53125)" xlink:href="#LiberationSans-115"/>
      <use transform="translate(233.59375 0.53125)" xlink:href="#LiberationSans-41"/>
     </g>
    </g>
   </g>
   <g id="matplotlib.axis_4">
    <g id="ytick_4">
     <g id="line2d_17">
      <g>
       <use style="fill:#ffffff;stroke:#ffffff;stroke-width:0.8;" x="57.6" xlink:href="#ma5b382792f" y="213.662118"/>
      </g>
     </g>
     <g id="text_18">
      <!-- −1 -->
      <g style="fill:#ffffff;" transform="translate(39.198437 217.285555)scale(0.1 -0.1)">
       <use xlink:href="#LiberationSans-8722"/>
       <use x="58.398438" xlink:href="#LiberationSans-49"/>
      </g>
     </g>
    </g>
    <g id="ytick_5">
     <g id="line2d_18">
      <g>
       <use style="fill:#ffffff;stroke:#ffffff;stroke-width:0.8;" x="57.6" xlink:href="#ma5b382792f" y="174.528"/>
      </g>
     </g>
     <g id="text_19">
      <!-- 0 -->
      <g style="fill:#ffffff;" transform="translate(45.039062 178.151437)scale(0.1 -0.1)">
       <use xlink:href="#LiberationSans-48"/>
      </g>
     </g>
    </g>
    <g id="ytick_6">
     <g id="line2d_19">
      <g>
       <use style="fill:#ffffff;stroke:#ffffff;stroke-width:0.8;" x="57.6" xlink:href="#ma5b382792f" y="135.393882"/>
      </g>
     </g>
     <g id="text_20">
      <!-- 1 -->
      <g style="fill:#ffffff;" transform="translate(45.039062 139.01732)scale(0.1 -0.1)">
       <use xlink:href="#LiberationSans-49"/>
      </g>
     </g>
    </g>
    <g id="text_21">
     <!-- $u$ -->
     <g style="fill:#ffffff;" transform="translate(33.123437 177.728)rotate(-90)scale(0.1 -0.1)">
      <use transform="translate(0 0.3125)" xlink:href="#DejaVuSans-Oblique-117"/>
     </g>
    </g>
   </g>
   <g id="line2d_20">
    <path clip-path="url(#p9c361c6745)" d="M 73.832727 174.746405 
L 74.092503 174.79394 
L 74.157447 172.298875 
L 74.222391 172.335291 
L 76.04082 173.220187 
L 78.054081 173.950147 
L 79.093183 174.247124 
L 79.158127 171.7575 
L 79.223071 171.799302 
L 80.911612 172.751591 
L 82.794985 173.558938 
L 84.938134 174.233455 
L 85.652517 174.413167 
L 85.717461 171.92189 
L 85.782404 171.962057 
L 87.53589 172.907745 
L 89.484207 173.698498 
L 91.04286 174.180763 
L 91.107804 171.691798 
L 91.172748 171.734255 
L 92.861289 172.701436 
L 94.744662 173.521408 
L 96.887811 174.206474 
L 98.511408 174.594066 
L 98.576352 172.100989 
L 98.641296 172.139374 
L 100.394782 173.043105 
L 102.343098 173.798775 
L 103.966696 174.27655 
L 104.03164 171.786632 
L 104.096584 171.828145 
L 105.785125 172.77383 
L 107.668498 173.575578 
L 109.811647 174.245418 
L 111.630076 174.66383 
L 111.69502 172.170059 
L 111.759964 172.207757 
L 113.513449 173.095308 
L 115.52671 173.858554 
L 116.37098 174.114572 
L 116.435924 171.626266 
L 116.500868 171.669375 
L 118.18941 172.65141 
L 120.072783 173.483976 
L 122.215931 174.179563 
L 124.488968 174.704964 
L 124.553912 172.210784 
L 124.618855 172.248076 
L 126.437285 173.154272 
L 128.450545 173.901801 
L 130.788526 174.523651 
L 131.048301 174.579921 
L 131.113245 172.086985 
L 131.178189 172.125509 
L 132.931674 173.032521 
L 134.879991 173.790934 
L 137.153028 174.431102 
L 137.542691 174.520063 
L 137.607635 172.027722 
L 137.672579 172.066836 
L 139.426064 172.987732 
L 141.374381 173.757753 
L 143.647417 174.40772 
L 143.972137 174.483362 
L 144.037081 171.991387 
L 144.102025 172.030863 
L 145.85551 172.96027 
L 147.803827 173.737409 
L 150.011919 174.377652 
L 150.336639 174.454761 
L 150.401583 171.96307 
L 150.466527 172.002827 
L 152.220012 172.938869 
L 154.168329 173.721555 
L 156.376421 174.366367 
L 157.02586 174.517898 
L 157.090804 172.025579 
L 157.155748 172.064714 
L 158.909233 172.986112 
L 160.85755 173.756553 
L 162.221372 174.173675 
L 162.286316 171.684782 
L 162.35126 171.727308 
L 164.039801 172.696079 
L 165.923174 173.5174 
L 168.066323 174.203592 
L 169.819808 174.618888 
L 169.884752 172.125564 
L 169.949696 172.163704 
L 171.703181 173.061679 
L 173.716442 173.833889 
L 175.924535 174.446324 
L 175.989479 171.954717 
L 176.054423 171.994557 
L 177.807908 172.932556 
L 179.756225 173.716878 
L 181.964317 174.363038 
L 182.6787 174.529252 
L 182.743644 172.03682 
L 182.808588 172.075844 
L 184.562073 172.994608 
L 186.51039 173.762847 
L 188.653539 174.38005 
L 188.718483 171.889103 
L 188.783427 171.929596 
L 190.536912 172.882965 
L 192.485229 173.680141 
L 194.693321 174.33689 
L 196.576694 174.745159 
L 196.641638 172.250579 
L 196.706582 172.287476 
L 198.525011 173.184049 
L 200.538272 173.923641 
L 202.226813 174.389566 
L 202.291757 171.898524 
L 202.356701 171.938923 
L 204.110186 172.890085 
L 206.058503 173.685415 
L 208.266596 174.340644 
L 209.110867 174.537893 
L 209.17581 172.045375 
L 209.240754 172.084313 
L 210.99424 173.001073 
L 212.942557 173.767637 
L 214.306378 174.182659 
L 214.371322 171.693676 
L 214.436266 171.736114 
L 216.124808 172.702869 
L 218.008181 173.522481 
L 218.527732 173.709787 
L 218.592676 171.225509 
L 218.65762 171.272605 
L 220.281217 172.309166 
L 222.099646 173.200442 
L 224.112907 173.935665 
L 225.281897 174.26892 
L 225.346841 171.779078 
L 225.411785 171.820666 
L 227.100326 172.768063 
L 228.983699 173.571263 
L 231.126848 174.242316 
L 231.581455 174.358354 
L 231.646399 171.867623 
L 231.711343 171.90833 
L 233.464828 172.866731 
L 235.413145 173.668114 
L 237.621238 174.32833 
L 237.945957 174.407844 
L 238.010901 171.91662 
L 238.075845 171.95684 
L 239.82933 172.903763 
L 241.777647 173.695547 
L 243.98574 174.347856 
L 244.050684 174.363884 
L 244.115627 171.873098 
L 244.180571 171.91375 
L 245.934057 172.870869 
L 247.882374 173.671179 
L 250.090466 174.330511 
L 251.194512 174.585055 
L 251.259456 172.092068 
L 251.3244 172.130542 
L 253.077885 173.036363 
L 255.026202 173.79378 
L 257.299239 174.433108 
L 257.364183 171.941633 
L 257.429127 171.981603 
L 259.182612 172.922667 
L 261.130929 173.709552 
L 263.339021 174.357824 
L 264.962619 174.711937 
L 265.027563 172.217688 
L 265.092507 172.254911 
L 266.910936 173.159437 
L 268.924196 173.90559 
L 271.262177 174.526295 
L 271.846672 174.64958 
L 271.911616 172.155951 
L 271.97656 172.193789 
L 273.730045 173.084645 
L 275.743306 173.850734 
L 276.782408 174.16241 
L 276.847352 171.673629 
L 276.912296 171.716266 
L 278.600837 172.687565 
L 280.48421 173.51103 
L 282.627359 174.199012 
L 284.380844 174.615391 
L 284.445788 172.122103 
L 284.510732 172.160277 
L 286.264217 173.059063 
L 288.277478 173.831971 
L 290.550514 174.46002 
L 291.070066 174.575244 
L 291.13501 172.082355 
L 291.199953 172.120925 
L 292.953439 173.029022 
L 294.901756 173.788342 
L 296.395465 174.234278 
L 296.460409 171.744782 
L 296.525353 171.786711 
L 298.213894 172.741882 
L 300.097267 173.551673 
L 302.240416 174.228232 
L 303.928957 174.62442 
L 303.993901 172.131042 
L 304.058845 172.169128 
L 305.81233 173.065819 
L 307.825591 173.836926 
L 309.319301 174.27288 
L 309.384245 171.782999 
L 309.449189 171.824548 
L 311.13773 172.771056 
L 313.021103 173.573503 
L 315.164252 174.243926 
L 316.657961 174.596255 
L 316.722905 172.103157 
L 316.787849 172.14152 
L 318.541334 173.044744 
L 320.489651 173.799989 
L 322.762688 174.437483 
L 323.152351 174.526072 
L 323.217295 172.033672 
L 323.282239 172.072726 
L 325.035724 172.992228 
L 326.984041 173.761084 
L 329.257078 174.410067 
L 330.685843 174.715894 
L 330.750787 172.221605 
L 330.815731 172.25879 
L 332.63416 173.162369 
L 334.647421 173.90774 
L 336.141131 174.329144 
L 336.206075 171.838703 
L 336.271019 171.879698 
L 338.024504 172.844874 
L 339.972821 173.651922 
L 342.180913 174.316805 
L 343.025184 174.516959 
L 343.090128 172.02465 
L 343.155072 172.063795 
L 344.908557 172.98541 
L 346.856874 173.756033 
L 349.12991 174.406508 
L 350.104069 174.622716 
L 350.169013 172.129354 
L 350.233957 172.167457 
L 351.987442 173.064544 
L 354.000703 173.835991 
L 356.273739 174.462853 
L 356.338683 171.971082 
L 356.403627 172.010759 
L 358.157112 172.944924 
L 360.105429 173.72604 
L 362.313522 174.36956 
L 362.703185 174.462104 
L 362.768129 171.970341 
L 362.833073 172.010026 
L 364.586558 172.944364 
L 366.534875 173.725625 
L 368.093529 174.202102 
L 368.158472 171.712925 
L 368.223416 171.755172 
L 369.911958 172.717563 
L 371.795331 173.533476 
L 373.938479 174.21515 
L 375.107469 174.502365 
L 375.172413 172.010201 
L 375.237357 172.049489 
L 376.990843 172.974489 
L 378.939159 173.747943 
L 381.212196 174.400807 
L 382.44613 174.670386 
L 382.511074 172.17655 
L 382.576018 172.214183 
L 384.329503 173.100214 
L 386.342764 173.862153 
L 388.6158 174.481289 
L 389.200295 174.608448 
L 389.265239 172.115228 
L 389.330183 172.153472 
L 391.083668 173.053867 
L 393.031985 173.806748 
L 395.305022 174.442246 
L 395.43491 174.472274 
L 395.499853 171.980409 
L 395.564797 172.019994 
L 397.318283 172.951973 
L 398.487273 173.447271 
L 398.487273 173.447271 
" style="fill:none;stroke:#9a72ac;stroke-linecap:round;stroke-width:1.5;"/>
   </g>
   <g id="patch_8">
    <path d="M 57.6 213.662118 
L 57.6 135.393882 
" style="fill:none;stroke:#ffffff;stroke-linecap:square;stroke-linejoin:miter;stroke-width:0.8;"/>
   </g>
   <g id="patch_9">
    <path d="M 414.72 213.662118 
L 414.72 135.393882 
" style="fill:none;stroke:#ffffff;stroke-linecap:square;stroke-linejoin:miter;stroke-width:0.8;"/>
   </g>
   <g id="patch_10">
    <path d="M 57.6 213.662118 
L 414.72 213.662118 
" style="fill:none;stroke:#ffffff;stroke-linecap:square;stroke-linejoin:miter;stroke-width:0.8;"/>
   </g>
   <g id="patch_11">
    <path d="M 57.6 135.393882 
L 414.72 135.393882 
" style="fill:none;stroke:#ffffff;stroke-linecap:square;stroke-linejoin:miter;stroke-width:0.8;"/>
   </g>
  </g>
  <g id="text_22">
   <!-- M2 - membrane potential -->
   <g style="fill:#ffffff;" transform="translate(163.708125 15.60825)scale(0.12 -0.12)">
    <defs>
     <path d="M 66.703125 0 
L 66.703125 45.90625 
Q 66.703125 48.390625 66.75 50.96875 
Q 66.796875 53.5625 66.890625 55.71875 
Q 67 58.203125 67.140625 60.546875 
Q 66.453125 58.0625 65.71875 55.609375 
Q 65.09375 53.515625 64.328125 51.140625 
Q 63.578125 48.78125 62.84375 46.875 
L 45.0625 0 
L 38.53125 0 
L 20.515625 46.875 
Q 20.21875 47.609375 19.890625 48.578125 
Q 19.578125 49.5625 19.203125 50.65625 
Q 18.84375 51.765625 18.46875 52.90625 
Q 18.109375 54.046875 17.78125 55.171875 
Q 16.9375 57.765625 16.15625 60.546875 
Q 16.21875 57.8125 16.3125 55.125 
Q 16.40625 52.828125 16.453125 50.3125 
Q 16.5 47.796875 16.5 45.90625 
L 16.5 0 
L 8.203125 0 
L 8.203125 68.796875 
L 20.453125 68.796875 
L 38.765625 21.09375 
Q 39.109375 20.125 39.59375 18.578125 
Q 40.09375 17.046875 40.53125 15.421875 
Q 40.96875 13.8125 41.328125 12.375 
Q 41.703125 10.9375 41.84375 10.15625 
Q 42 10.9375 42.390625 12.40625 
Q 42.78125 13.875 43.28125 15.484375 
Q 43.796875 17.09375 44.28125 18.609375 
Q 44.78125 20.125 45.171875 21.09375 
L 63.140625 68.796875 
L 75.09375 68.796875 
L 75.09375 0 
z
" id="LiberationSans-77"/>
     <path d="M 4.4375 22.65625 
L 4.4375 30.46875 
L 28.859375 30.46875 
L 28.859375 22.65625 
z
" id="LiberationSans-45"/>
     <path d="M 13.484375 24.5625 
Q 13.484375 20.40625 14.328125 16.90625 
Q 15.1875 13.421875 16.96875 10.90625 
Q 18.75 8.40625 21.53125 7 
Q 24.3125 5.609375 28.21875 5.609375 
Q 33.9375 5.609375 37.375 7.90625 
Q 40.828125 10.203125 42.046875 13.71875 
L 49.75 11.53125 
Q 48.921875 9.328125 47.4375 7.109375 
Q 45.953125 4.890625 43.453125 3.09375 
Q 40.96875 1.3125 37.234375 0.15625 
Q 33.5 -0.984375 28.21875 -0.984375 
Q 16.5 -0.984375 10.375 6 
Q 4.25 12.984375 4.25 26.765625 
Q 4.25 34.1875 6.09375 39.328125 
Q 7.953125 44.484375 11.171875 47.703125 
Q 14.40625 50.921875 18.703125 52.359375 
Q 23 53.8125 27.875 53.8125 
Q 34.515625 53.8125 38.984375 51.65625 
Q 43.453125 49.515625 46.15625 45.71875 
Q 48.875 41.9375 50.015625 36.8125 
Q 51.171875 31.6875 51.171875 25.734375 
L 51.171875 24.5625 
z
M 42.09375 31.296875 
Q 41.359375 39.65625 37.84375 43.484375 
Q 34.328125 47.3125 27.734375 47.3125 
Q 25.53125 47.3125 23.109375 46.609375 
Q 20.703125 45.90625 18.65625 44.09375 
Q 16.609375 42.28125 15.1875 39.171875 
Q 13.765625 36.078125 13.578125 31.296875 
z
" id="LiberationSans-101"/>
     <path d="M 51.421875 26.65625 
Q 51.421875 -0.984375 31.984375 -0.984375 
Q 25.984375 -0.984375 22 1.1875 
Q 18.015625 3.375 15.53125 8.203125 
L 15.4375 8.203125 
Q 15.4375 6.9375 15.359375 5.5625 
Q 15.28125 4.203125 15.203125 3.03125 
Q 15.140625 1.859375 15.0625 1.03125 
Q 14.984375 0.203125 14.9375 0 
L 6.453125 0 
Q 6.5 0.4375 6.546875 1.484375 
Q 6.59375 2.546875 6.640625 4 
Q 6.6875 5.46875 6.703125 7.21875 
Q 6.734375 8.984375 6.734375 10.890625 
L 6.734375 72.46875 
L 15.53125 72.46875 
L 15.53125 51.8125 
Q 15.53125 50.34375 15.5 49 
Q 15.484375 47.65625 15.4375 46.625 
Q 15.375 45.40625 15.328125 44.34375 
L 15.53125 44.34375 
Q 17.96875 49.421875 22 51.609375 
Q 26.03125 53.8125 31.984375 53.8125 
Q 42 53.8125 46.703125 47.0625 
Q 51.421875 40.328125 51.421875 26.65625 
z
M 42.1875 26.375 
Q 42.1875 31.84375 41.5 35.75 
Q 40.828125 39.65625 39.3125 42.15625 
Q 37.796875 44.671875 35.453125 45.84375 
Q 33.109375 47.015625 29.734375 47.015625 
Q 26.265625 47.015625 23.609375 45.890625 
Q 20.953125 44.78125 19.171875 42.28125 
Q 17.390625 39.796875 16.453125 35.734375 
Q 15.53125 31.6875 15.53125 25.828125 
Q 15.53125 20.171875 16.453125 16.3125 
Q 17.390625 12.453125 19.171875 10.03125 
Q 20.953125 7.625 23.578125 6.5625 
Q 26.21875 5.515625 29.640625 5.515625 
Q 32.859375 5.515625 35.203125 6.640625 
Q 37.546875 7.765625 39.109375 10.25 
Q 40.671875 12.75 41.421875 16.71875 
Q 42.1875 20.703125 42.1875 26.375 
z
" id="LiberationSans-98"/>
     <path d="M 6.9375 0 
L 6.9375 40.53125 
Q 6.9375 42.1875 6.90625 43.921875 
Q 6.890625 45.65625 6.828125 47.265625 
Q 6.78125 48.875 6.734375 50.28125 
Q 6.6875 51.703125 6.640625 52.828125 
L 14.9375 52.828125 
Q 14.984375 51.703125 15.0625 50.265625 
Q 15.140625 48.828125 15.203125 47.3125 
Q 15.28125 45.796875 15.296875 44.40625 
Q 15.328125 43.015625 15.328125 42.046875 
L 15.53125 42.046875 
Q 16.453125 45.0625 17.5 47.28125 
Q 18.5625 49.515625 19.96875 50.953125 
Q 21.390625 52.390625 23.34375 53.09375 
Q 25.296875 53.8125 28.078125 53.8125 
Q 29.15625 53.8125 30.125 53.640625 
Q 31.109375 53.46875 31.640625 53.328125 
L 31.640625 45.265625 
Q 30.765625 45.515625 29.59375 45.625 
Q 28.421875 45.75 26.953125 45.75 
Q 23.921875 45.75 21.796875 44.375 
Q 19.671875 43.015625 18.328125 40.59375 
Q 17 38.1875 16.359375 34.84375 
Q 15.71875 31.5 15.71875 27.546875 
L 15.71875 0 
z
" id="LiberationSans-114"/>
     <path d="M 20.21875 -0.984375 
Q 12.25 -0.984375 8.25 3.21875 
Q 4.25 7.421875 4.25 14.75 
Q 4.25 19.96875 6.21875 23.3125 
Q 8.203125 26.65625 11.390625 28.5625 
Q 14.59375 30.46875 18.6875 31.203125 
Q 22.796875 31.9375 27.046875 32.03125 
L 38.921875 32.234375 
L 38.921875 35.109375 
Q 38.921875 38.375 38.234375 40.671875 
Q 37.546875 42.96875 36.125 44.375 
Q 34.71875 45.796875 32.59375 46.453125 
Q 30.46875 47.125 27.59375 47.125 
Q 25.046875 47.125 23 46.75 
Q 20.953125 46.390625 19.4375 45.4375 
Q 17.921875 44.484375 16.984375 42.84375 
Q 16.0625 41.21875 15.765625 38.71875 
L 6.59375 39.546875 
Q 7.078125 42.671875 8.4375 45.28125 
Q 9.8125 47.90625 12.328125 49.796875 
Q 14.84375 51.703125 18.625 52.75 
Q 22.40625 53.8125 27.78125 53.8125 
Q 37.75 53.8125 42.765625 49.234375 
Q 47.796875 44.671875 47.796875 36.03125 
L 47.796875 13.28125 
Q 47.796875 9.375 48.828125 7.390625 
Q 49.859375 5.421875 52.734375 5.421875 
Q 53.46875 5.421875 54.203125 5.515625 
Q 54.9375 5.609375 55.609375 5.765625 
L 55.609375 0.296875 
Q 53.953125 -0.09375 52.3125 -0.28125 
Q 50.6875 -0.484375 48.828125 -0.484375 
Q 46.34375 -0.484375 44.5625 0.171875 
Q 42.78125 0.828125 41.65625 2.171875 
Q 40.53125 3.515625 39.9375 5.484375 
Q 39.359375 7.46875 39.203125 10.109375 
L 38.921875 10.109375 
Q 37.5 7.5625 35.8125 5.515625 
Q 34.125 3.46875 31.875 2.03125 
Q 29.640625 0.59375 26.78125 -0.1875 
Q 23.921875 -0.984375 20.21875 -0.984375 
z
M 22.21875 5.609375 
Q 26.421875 5.609375 29.5625 7.140625 
Q 32.71875 8.6875 34.78125 11.078125 
Q 36.859375 13.484375 37.890625 16.3125 
Q 38.921875 19.140625 38.921875 21.734375 
L 38.921875 26.078125 
L 29.296875 25.875 
Q 26.078125 25.828125 23.171875 25.40625 
Q 20.265625 25 18.0625 23.78125 
Q 15.875 22.5625 14.578125 20.359375 
Q 13.28125 18.171875 13.28125 14.59375 
Q 13.28125 10.296875 15.59375 7.953125 
Q 17.921875 5.609375 22.21875 5.609375 
z
" id="LiberationSans-97"/>
     <path d="M 40.28125 0 
L 40.28125 33.5 
Q 40.28125 37.359375 39.71875 39.9375 
Q 39.15625 42.53125 37.890625 44.109375 
Q 36.625 45.703125 34.546875 46.359375 
Q 32.46875 47.015625 29.390625 47.015625 
Q 26.265625 47.015625 23.75 45.921875 
Q 21.234375 44.828125 19.453125 42.75 
Q 17.671875 40.671875 16.6875 37.625 
Q 15.71875 34.578125 15.71875 30.609375 
L 15.71875 0 
L 6.9375 0 
L 6.9375 41.546875 
Q 6.9375 43.21875 6.90625 45.046875 
Q 6.890625 46.875 6.828125 48.5 
Q 6.78125 50.140625 6.734375 51.3125 
Q 6.6875 52.484375 6.640625 52.828125 
L 14.9375 52.828125 
Q 14.984375 52.59375 15.03125 51.515625 
Q 15.09375 50.4375 15.15625 49.046875 
Q 15.234375 47.65625 15.28125 46.21875 
Q 15.328125 44.78125 15.328125 43.796875 
L 15.484375 43.796875 
Q 16.75 46.09375 18.265625 47.953125 
Q 19.78125 49.8125 21.78125 51.09375 
Q 23.78125 52.390625 26.359375 53.09375 
Q 28.953125 53.8125 32.375 53.8125 
Q 36.765625 53.8125 39.9375 52.734375 
Q 43.109375 51.65625 45.15625 49.40625 
Q 47.21875 47.171875 48.171875 43.625 
Q 49.125 40.09375 49.125 35.203125 
L 49.125 0 
z
" id="LiberationSans-110"/>
     <path d="M 51.421875 26.65625 
Q 51.421875 20.65625 50.4375 15.578125 
Q 49.46875 10.5 47.1875 6.828125 
Q 44.921875 3.171875 41.1875 1.09375 
Q 37.453125 -0.984375 31.984375 -0.984375 
Q 26.3125 -0.984375 22.0625 1.171875 
Q 17.828125 3.328125 15.578125 8.203125 
L 15.328125 8.203125 
Q 15.375 8.109375 15.40625 7.328125 
Q 15.4375 6.546875 15.453125 5.375 
Q 15.484375 4.203125 15.5 2.75 
Q 15.53125 1.3125 15.53125 -0.09375 
L 15.53125 -20.75 
L 6.734375 -20.75 
L 6.734375 42.046875 
Q 6.734375 43.953125 6.703125 45.703125 
Q 6.6875 47.46875 6.640625 48.90625 
Q 6.59375 50.34375 6.546875 51.359375 
Q 6.5 52.390625 6.453125 52.828125 
L 14.9375 52.828125 
Q 14.984375 52.6875 15.0625 51.796875 
Q 15.140625 50.921875 15.203125 49.671875 
Q 15.28125 48.4375 15.359375 47.015625 
Q 15.4375 45.609375 15.4375 44.34375 
L 15.625 44.34375 
Q 16.84375 46.875 18.40625 48.65625 
Q 19.96875 50.4375 21.96875 51.578125 
Q 23.96875 52.734375 26.4375 53.25 
Q 28.90625 53.765625 31.984375 53.765625 
Q 37.453125 53.765625 41.1875 51.8125 
Q 44.921875 49.859375 47.1875 46.3125 
Q 49.46875 42.78125 50.4375 37.765625 
Q 51.421875 32.765625 51.421875 26.65625 
z
M 42.1875 26.46875 
Q 42.1875 31.34375 41.59375 35.15625 
Q 41.015625 38.96875 39.578125 41.59375 
Q 38.140625 44.234375 35.734375 45.59375 
Q 33.34375 46.96875 29.734375 46.96875 
Q 26.8125 46.96875 24.21875 46.140625 
Q 21.625 45.3125 19.703125 42.96875 
Q 17.78125 40.625 16.65625 36.5 
Q 15.53125 32.375 15.53125 25.78125 
Q 15.53125 20.171875 16.453125 16.28125 
Q 17.390625 12.40625 19.171875 10.015625 
Q 20.953125 7.625 23.578125 6.5625 
Q 26.21875 5.515625 29.640625 5.515625 
Q 33.296875 5.515625 35.71875 6.921875 
Q 38.140625 8.34375 39.578125 11.03125 
Q 41.015625 13.71875 41.59375 17.59375 
Q 42.1875 21.484375 42.1875 26.46875 
z
" id="LiberationSans-112"/>
     <path d="M 51.421875 26.46875 
Q 51.421875 12.59375 45.3125 5.796875 
Q 39.203125 -0.984375 27.59375 -0.984375 
Q 22.078125 -0.984375 17.71875 0.671875 
Q 13.375 2.34375 10.375 5.765625 
Q 7.375 9.1875 5.78125 14.328125 
Q 4.203125 19.484375 4.203125 26.46875 
Q 4.203125 53.8125 27.875 53.8125 
Q 34.03125 53.8125 38.5 52.09375 
Q 42.96875 50.390625 45.828125 46.96875 
Q 48.6875 43.5625 50.046875 38.421875 
Q 51.421875 33.296875 51.421875 26.46875 
z
M 42.1875 26.46875 
Q 42.1875 32.625 41.234375 36.625 
Q 40.28125 40.625 38.453125 43.015625 
Q 36.625 45.40625 33.984375 46.359375 
Q 31.34375 47.3125 28.03125 47.3125 
Q 24.65625 47.3125 21.9375 46.3125 
Q 19.234375 45.3125 17.328125 42.890625 
Q 15.4375 40.484375 14.421875 36.46875 
Q 13.421875 32.46875 13.421875 26.46875 
Q 13.421875 20.3125 14.5 16.28125 
Q 15.578125 12.25 17.453125 9.859375 
Q 19.34375 7.46875 21.90625 6.484375 
Q 24.46875 5.515625 27.484375 5.515625 
Q 30.859375 5.515625 33.59375 6.46875 
Q 36.328125 7.421875 38.234375 9.8125 
Q 40.140625 12.203125 41.15625 16.25 
Q 42.1875 20.3125 42.1875 26.46875 
z
" id="LiberationSans-111"/>
     <path d="M 27.046875 0.390625 
Q 25.046875 -0.140625 22.96875 -0.453125 
Q 20.90625 -0.78125 18.171875 -0.78125 
Q 7.625 -0.78125 7.625 11.1875 
L 7.625 46.4375 
L 1.515625 46.4375 
L 1.515625 52.828125 
L 7.953125 52.828125 
L 10.546875 64.65625 
L 16.40625 64.65625 
L 16.40625 52.828125 
L 26.171875 52.828125 
L 26.171875 46.4375 
L 16.40625 46.4375 
L 16.40625 13.09375 
Q 16.40625 9.28125 17.640625 7.734375 
Q 18.890625 6.203125 21.96875 6.203125 
Q 23.25 6.203125 24.4375 6.390625 
Q 25.640625 6.59375 27.046875 6.890625 
z
" id="LiberationSans-116"/>
     <path d="M 6.6875 64.0625 
L 6.6875 72.46875 
L 15.484375 72.46875 
L 15.484375 64.0625 
z
M 6.6875 0 
L 6.6875 52.828125 
L 15.484375 52.828125 
L 15.484375 0 
z
" id="LiberationSans-105"/>
     <path d="M 6.734375 0 
L 6.734375 72.46875 
L 15.53125 72.46875 
L 15.53125 0 
z
" id="LiberationSans-108"/>
    </defs>
    <use xlink:href="#LiberationSans-77"/>
    <use x="83.300781" xlink:href="#LiberationSans-50"/>
    <use x="138.916016" xlink:href="#LiberationSans-32"/>
    <use x="166.699219" xlink:href="#LiberationSans-45"/>
    <use x="200" xlink:href="#LiberationSans-32"/>
    <use x="227.783203" xlink:href="#LiberationSans-109"/>
    <use x="311.083984" xlink:href="#LiberationSans-101"/>
    <use x="366.699219" xlink:href="#LiberationSans-109"/>
    <use x="450" xlink:href="#LiberationSans-98"/>
    <use x="505.615234" xlink:href="#LiberationSans-114"/>
    <use x="538.916016" xlink:href="#LiberationSans-97"/>
    <use x="594.53125" xlink:href="#LiberationSans-110"/>
    <use x="650.146484" xlink:href="#LiberationSans-101"/>
    <use x="705.761719" xlink:href="#LiberationSans-32"/>
    <use x="733.544922" xlink:href="#LiberationSans-112"/>
    <use x="789.160156" xlink:href="#LiberationSans-111"/>
    <use x="844.775391" xlink:href="#LiberationSans-116"/>
    <use x="872.558594" xlink:href="#LiberationSans-101"/>
    <use x="928.173828" xlink:href="#LiberationSans-110"/>
    <use x="983.789062" xlink:href="#LiberationSans-116"/>
    <use x="1011.572266" xlink:href="#LiberationSans-105"/>
    <use x="1033.789062" xlink:href="#LiberationSans-97"/>
    <use x="1089.404297" xlink:href="#LiberationSans-108"/>
   </g>
  </g>
 </g>
 <defs>
  <clipPath id="pce47c50004">
   <rect height="78.268235" width="357.12" x="57.6" y="41.472"/>
  </clipPath>
  <clipPath id="p9c361c6745">
   <rect height="78.268235" width="357.12" x="57.6" y="135.393882"/>
  </clipPath>
 </defs>
</svg>
