<?xml version="1.0" encoding="utf-8" standalone="no"?>
<!DOCTYPE svg PUBLIC "-//W3C//DTD SVG 1.1//EN"
  "http://www.w3.org/Graphics/SVG/1.1/DTD/svg11.dtd">
<!-- Created with matplotlib (https://matplotlib.org/) -->
<svg height="345.6pt" version="1.1" viewBox="0 0 460.8 345.6" width="460.8pt" xmlns="http://www.w3.org/2000/svg" xmlns:xlink="http://www.w3.org/1999/xlink">
 <metadata>
  <rdf:RDF xmlns:cc="http://creativecommons.org/ns#" xmlns:dc="http://purl.org/dc/elements/1.1/" xmlns:rdf="http://www.w3.org/1999/02/22-rdf-syntax-ns#">
   <cc:Work>
    <dc:type rdf:resource="http://purl.org/dc/dcmitype/StillImage"/>
    <dc:date>2022-05-05T12:17:09.531282</dc:date>
    <dc:format>image/svg+xml</dc:format>
    <dc:creator>
     <cc:Agent>
      <dc:title>Matplotlib v3.3.4, https://matplotlib.org/</dc:title>
     </cc:Agent>
    </dc:creator>
   </cc:Work>
  </rdf:RDF>
 </metadata>
 <defs>
  <style type="text/css">*{stroke-linecap:butt;stroke-linejoin:round;}</style>
 </defs>
 <g id="figure_1">
  <g id="patch_1">
   <path d="M 0 345.6 
L 460.8 345.6 
L 460.8 0 
L 0 0 
z
" style="fill:#262626;"/>
  </g>
  <g id="axes_1">
   <g id="patch_2">
    <path d="M 57.6 162.432 
L 414.72 162.432 
L 414.72 41.472 
L 57.6 41.472 
z
" style="fill:#1a1a1a;"/>
   </g>
   <g id="matplotlib.axis_1">
    <g id="xtick_1">
     <g id="line2d_1">
      <defs>
       <path d="M 0 0 
L 0 3.5 
" id="m7df0f8f558" style="stroke:#ffffff;stroke-width:0.8;"/>
      </defs>
      <g>
       <use style="fill:#ffffff;stroke:#ffffff;stroke-width:0.8;" x="73.832727" xlink:href="#m7df0f8f558" y="162.432"/>
      </g>
     </g>
     <g id="text_1">
      <!-- 0 -->
      <g style="fill:#ffffff;" transform="translate(71.052259 176.678875)scale(0.1 -0.1)">
       <defs>
        <path d="M 51.703125 34.421875 
Q 51.703125 24.515625 49.828125 17.75 
Q 47.953125 10.984375 44.703125 6.8125 
Q 41.453125 2.640625 37.0625 0.828125 
Q 32.671875 -0.984375 27.6875 -0.984375 
Q 22.65625 -0.984375 18.3125 0.828125 
Q 13.96875 2.640625 10.765625 6.78125 
Q 7.5625 10.9375 5.734375 17.703125 
Q 3.90625 24.46875 3.90625 34.421875 
Q 3.90625 44.828125 5.734375 51.640625 
Q 7.5625 58.453125 10.78125 62.5 
Q 14.015625 66.546875 18.40625 68.1875 
Q 22.796875 69.828125 27.984375 69.828125 
Q 32.90625 69.828125 37.21875 68.1875 
Q 41.546875 66.546875 44.765625 62.5 
Q 48 58.453125 49.84375 51.640625 
Q 51.703125 44.828125 51.703125 34.421875 
z
M 42.78125 34.421875 
Q 42.78125 42.625 41.796875 48.0625 
Q 40.828125 53.515625 38.921875 56.765625 
Q 37.015625 60.015625 34.25 61.359375 
Q 31.5 62.703125 27.984375 62.703125 
Q 24.265625 62.703125 21.4375 61.328125 
Q 18.609375 59.96875 16.671875 56.71875 
Q 14.75 53.46875 13.765625 48.015625 
Q 12.796875 42.578125 12.796875 34.421875 
Q 12.796875 26.515625 13.796875 21.09375 
Q 14.796875 15.671875 16.71875 12.375 
Q 18.65625 9.078125 21.4375 7.640625 
Q 24.21875 6.203125 27.78125 6.203125 
Q 31.25 6.203125 34.03125 7.640625 
Q 36.8125 9.078125 38.734375 12.375 
Q 40.671875 15.671875 41.71875 21.09375 
Q 42.78125 26.515625 42.78125 34.421875 
z
" id="LiberationSans-48"/>
       </defs>
       <use xlink:href="#LiberationSans-48"/>
      </g>
     </g>
    </g>
    <g id="xtick_2">
     <g id="line2d_2">
      <g>
       <use style="fill:#ffffff;stroke:#ffffff;stroke-width:0.8;" x="138.776625" xlink:href="#m7df0f8f558" y="162.432"/>
      </g>
     </g>
     <g id="text_2">
      <!-- 200 -->
      <g style="fill:#ffffff;" transform="translate(130.435219 176.678875)scale(0.1 -0.1)">
       <defs>
        <path d="M 5.03125 0 
L 5.03125 6.203125 
Q 7.515625 11.921875 11.109375 16.28125 
Q 14.703125 20.65625 18.65625 24.1875 
Q 22.609375 27.734375 26.484375 30.765625 
Q 30.375 33.796875 33.5 36.8125 
Q 36.625 39.84375 38.546875 43.15625 
Q 40.484375 46.484375 40.484375 50.6875 
Q 40.484375 53.609375 39.59375 55.828125 
Q 38.71875 58.0625 37.0625 59.5625 
Q 35.40625 61.078125 33.078125 61.828125 
Q 30.765625 62.59375 27.9375 62.59375 
Q 25.296875 62.59375 22.96875 61.859375 
Q 20.65625 61.140625 18.84375 59.671875 
Q 17.046875 58.203125 15.890625 56.03125 
Q 14.75 53.859375 14.40625 50.984375 
L 5.421875 51.8125 
Q 5.859375 55.515625 7.46875 58.78125 
Q 9.078125 62.0625 11.90625 64.53125 
Q 14.75 67 18.71875 68.40625 
Q 22.703125 69.828125 27.9375 69.828125 
Q 33.0625 69.828125 37.0625 68.609375 
Q 41.0625 67.390625 43.8125 64.984375 
Q 46.578125 62.59375 48.046875 59.078125 
Q 49.515625 55.5625 49.515625 50.984375 
Q 49.515625 47.515625 48.265625 44.390625 
Q 47.015625 41.265625 44.9375 38.421875 
Q 42.875 35.59375 40.140625 32.953125 
Q 37.40625 30.328125 34.421875 27.8125 
Q 31.453125 25.296875 28.421875 22.828125 
Q 25.390625 20.359375 22.71875 17.859375 
Q 20.0625 15.375 17.96875 12.8125 
Q 15.875 10.25 14.703125 7.46875 
L 50.59375 7.46875 
L 50.59375 0 
z
" id="LiberationSans-50"/>
       </defs>
       <use xlink:href="#LiberationSans-50"/>
       <use x="55.615234" xlink:href="#LiberationSans-48"/>
       <use x="111.230469" xlink:href="#LiberationSans-48"/>
      </g>
     </g>
    </g>
    <g id="xtick_3">
     <g id="line2d_3">
      <g>
       <use style="fill:#ffffff;stroke:#ffffff;stroke-width:0.8;" x="203.720523" xlink:href="#m7df0f8f558" y="162.432"/>
      </g>
     </g>
     <g id="text_3">
      <!-- 400 -->
      <g style="fill:#ffffff;" transform="translate(195.379117 176.678875)scale(0.1 -0.1)">
       <defs>
        <path d="M 43.015625 15.578125 
L 43.015625 0 
L 34.71875 0 
L 34.71875 15.578125 
L 2.296875 15.578125 
L 2.296875 22.40625 
L 33.796875 68.796875 
L 43.015625 68.796875 
L 43.015625 22.515625 
L 52.6875 22.515625 
L 52.6875 15.578125 
z
M 34.71875 58.890625 
Q 34.625 58.640625 34.234375 57.9375 
Q 33.84375 57.234375 33.34375 56.34375 
Q 32.859375 55.46875 32.34375 54.5625 
Q 31.84375 53.65625 31.453125 53.078125 
L 13.8125 27.09375 
Q 13.578125 26.703125 13.109375 26.0625 
Q 12.640625 25.4375 12.15625 24.78125 
Q 11.671875 24.125 11.171875 23.484375 
Q 10.6875 22.859375 10.40625 22.515625 
L 34.71875 22.515625 
z
" id="LiberationSans-52"/>
       </defs>
       <use xlink:href="#LiberationSans-52"/>
       <use x="55.615234" xlink:href="#LiberationSans-48"/>
       <use x="111.230469" xlink:href="#LiberationSans-48"/>
      </g>
     </g>
    </g>
    <g id="xtick_4">
     <g id="line2d_4">
      <g>
       <use style="fill:#ffffff;stroke:#ffffff;stroke-width:0.8;" x="268.664421" xlink:href="#m7df0f8f558" y="162.432"/>
      </g>
     </g>
     <g id="text_4">
      <!-- 600 -->
      <g style="fill:#ffffff;" transform="translate(260.323015 176.678875)scale(0.1 -0.1)">
       <defs>
        <path d="M 51.21875 22.515625 
Q 51.21875 17.328125 49.78125 13 
Q 48.34375 8.6875 45.53125 5.578125 
Q 42.71875 2.484375 38.5625 0.75 
Q 34.421875 -0.984375 29 -0.984375 
Q 23 -0.984375 18.5 1.3125 
Q 14.015625 3.609375 11.03125 7.921875 
Q 8.0625 12.25 6.5625 18.53125 
Q 5.078125 24.8125 5.078125 32.8125 
Q 5.078125 42 6.765625 48.921875 
Q 8.453125 55.859375 11.625 60.5 
Q 14.796875 65.140625 19.359375 67.484375 
Q 23.921875 69.828125 29.6875 69.828125 
Q 33.203125 69.828125 36.28125 69.09375 
Q 39.359375 68.359375 41.875 66.71875 
Q 44.390625 65.09375 46.28125 62.40625 
Q 48.1875 59.71875 49.3125 55.8125 
L 40.921875 54.296875 
Q 39.546875 58.734375 36.546875 60.71875 
Q 33.546875 62.703125 29.59375 62.703125 
Q 25.984375 62.703125 23.046875 60.984375 
Q 20.125 59.28125 18.0625 55.875 
Q 16.015625 52.484375 14.90625 47.359375 
Q 13.8125 42.234375 13.8125 35.40625 
Q 16.21875 39.84375 20.5625 42.15625 
Q 24.90625 44.484375 30.515625 44.484375 
Q 35.203125 44.484375 39.015625 42.96875 
Q 42.828125 41.453125 45.53125 38.59375 
Q 48.25 35.75 49.734375 31.671875 
Q 51.21875 27.59375 51.21875 22.515625 
z
M 42.28125 22.125 
Q 42.28125 25.6875 41.40625 28.5625 
Q 40.53125 31.453125 38.765625 33.46875 
Q 37.015625 35.5 34.421875 36.59375 
Q 31.84375 37.703125 28.421875 37.703125 
Q 26.03125 37.703125 23.578125 36.984375 
Q 21.140625 36.28125 19.15625 34.6875 
Q 17.1875 33.109375 15.9375 30.515625 
Q 14.703125 27.9375 14.703125 24.21875 
Q 14.703125 20.40625 15.671875 17.109375 
Q 16.65625 13.8125 18.484375 11.375 
Q 20.3125 8.9375 22.890625 7.515625 
Q 25.484375 6.109375 28.71875 6.109375 
Q 31.890625 6.109375 34.40625 7.203125 
Q 36.921875 8.296875 38.671875 10.375 
Q 40.4375 12.453125 41.359375 15.421875 
Q 42.28125 18.40625 42.28125 22.125 
z
" id="LiberationSans-54"/>
       </defs>
       <use xlink:href="#LiberationSans-54"/>
       <use x="55.615234" xlink:href="#LiberationSans-48"/>
       <use x="111.230469" xlink:href="#LiberationSans-48"/>
      </g>
     </g>
    </g>
    <g id="xtick_5">
     <g id="line2d_5">
      <g>
       <use style="fill:#ffffff;stroke:#ffffff;stroke-width:0.8;" x="333.608319" xlink:href="#m7df0f8f558" y="162.432"/>
      </g>
     </g>
     <g id="text_5">
      <!-- 800 -->
      <g style="fill:#ffffff;" transform="translate(325.266913 176.678875)scale(0.1 -0.1)">
       <defs>
        <path d="M 51.265625 19.1875 
Q 51.265625 14.796875 49.875 11.109375 
Q 48.484375 7.421875 45.625 4.734375 
Q 42.78125 2.046875 38.328125 0.53125 
Q 33.890625 -0.984375 27.828125 -0.984375 
Q 21.78125 -0.984375 17.359375 0.53125 
Q 12.9375 2.046875 10.03125 4.703125 
Q 7.125 7.375 5.734375 11.0625 
Q 4.34375 14.75 4.34375 19.09375 
Q 4.34375 22.859375 5.484375 25.78125 
Q 6.640625 28.71875 8.5625 30.828125 
Q 10.5 32.953125 12.96875 34.25 
Q 15.4375 35.546875 18.0625 35.984375 
L 18.0625 36.1875 
Q 15.1875 36.859375 12.90625 38.375 
Q 10.640625 39.890625 9.09375 42.015625 
Q 7.5625 44.140625 6.75 46.71875 
Q 5.953125 49.3125 5.953125 52.203125 
Q 5.953125 55.8125 7.34375 59 
Q 8.734375 62.203125 11.46875 64.625 
Q 14.203125 67.046875 18.25 68.4375 
Q 22.3125 69.828125 27.640625 69.828125 
Q 33.25 69.828125 37.375 68.40625 
Q 41.5 67 44.203125 64.578125 
Q 46.921875 62.15625 48.234375 58.9375 
Q 49.5625 55.71875 49.5625 52.09375 
Q 49.5625 49.265625 48.75 46.671875 
Q 47.953125 44.09375 46.40625 41.96875 
Q 44.875 39.84375 42.59375 38.34375 
Q 40.328125 36.859375 37.359375 36.28125 
L 37.359375 36.078125 
Q 40.328125 35.59375 42.859375 34.296875 
Q 45.40625 33.015625 47.265625 30.890625 
Q 49.125 28.765625 50.1875 25.828125 
Q 51.265625 22.90625 51.265625 19.1875 
z
M 40.4375 51.609375 
Q 40.4375 54.203125 39.765625 56.34375 
Q 39.109375 58.5 37.59375 60.03125 
Q 36.078125 61.578125 33.640625 62.421875 
Q 31.203125 63.28125 27.640625 63.28125 
Q 24.171875 63.28125 21.78125 62.421875 
Q 19.390625 61.578125 17.84375 60.03125 
Q 16.3125 58.5 15.625 56.34375 
Q 14.9375 54.203125 14.9375 51.609375 
Q 14.9375 49.5625 15.46875 47.40625 
Q 16.015625 45.265625 17.421875 43.5 
Q 18.84375 41.75 21.328125 40.625 
Q 23.828125 39.5 27.734375 39.5 
Q 31.890625 39.5 34.40625 40.625 
Q 36.921875 41.75 38.25 43.5 
Q 39.59375 45.265625 40.015625 47.40625 
Q 40.4375 49.5625 40.4375 51.609375 
z
M 42.140625 20.015625 
Q 42.140625 22.515625 41.453125 24.828125 
Q 40.765625 27.15625 39.109375 28.9375 
Q 37.453125 30.71875 34.640625 31.8125 
Q 31.84375 32.90625 27.640625 32.90625 
Q 23.78125 32.90625 21.0625 31.8125 
Q 18.359375 30.71875 16.671875 28.90625 
Q 14.984375 27.09375 14.203125 24.71875 
Q 13.421875 22.359375 13.421875 19.828125 
Q 13.421875 16.65625 14.203125 14.03125 
Q 14.984375 11.421875 16.6875 9.546875 
Q 18.40625 7.671875 21.1875 6.640625 
Q 23.96875 5.609375 27.9375 5.609375 
Q 31.9375 5.609375 34.671875 6.640625 
Q 37.40625 7.671875 39.0625 9.546875 
Q 40.71875 11.421875 41.421875 14.078125 
Q 42.140625 16.75 42.140625 20.015625 
z
" id="LiberationSans-56"/>
       </defs>
       <use xlink:href="#LiberationSans-56"/>
       <use x="55.615234" xlink:href="#LiberationSans-48"/>
       <use x="111.230469" xlink:href="#LiberationSans-48"/>
      </g>
     </g>
    </g>
    <g id="xtick_6">
     <g id="line2d_6">
      <g>
       <use style="fill:#ffffff;stroke:#ffffff;stroke-width:0.8;" x="398.552217" xlink:href="#m7df0f8f558" y="162.432"/>
      </g>
     </g>
     <g id="text_6">
      <!-- 1000 -->
      <g style="fill:#ffffff;" transform="translate(387.430342 176.678875)scale(0.1 -0.1)">
       <defs>
        <path d="M 7.625 0 
L 7.625 7.46875 
L 25.140625 7.46875 
L 25.140625 60.40625 
L 9.625 49.3125 
L 9.625 57.625 
L 25.875 68.796875 
L 33.984375 68.796875 
L 33.984375 7.46875 
L 50.734375 7.46875 
L 50.734375 0 
z
" id="LiberationSans-49"/>
       </defs>
       <use xlink:href="#LiberationSans-49"/>
       <use x="55.615234" xlink:href="#LiberationSans-48"/>
       <use x="111.230469" xlink:href="#LiberationSans-48"/>
       <use x="166.845703" xlink:href="#LiberationSans-48"/>
      </g>
     </g>
    </g>
   </g>
   <g id="matplotlib.axis_2">
    <g id="ytick_1">
     <g id="line2d_7">
      <defs>
       <path d="M 0 0 
L -3.5 0 
" id="m90ef93e7c9" style="stroke:#ffffff;stroke-width:0.8;"/>
      </defs>
      <g>
       <use style="fill:#ffffff;stroke:#ffffff;stroke-width:0.8;" x="57.6" xlink:href="#m90ef93e7c9" y="160.984819"/>
      </g>
     </g>
     <g id="text_7">
      <!-- 0.25 -->
      <g style="fill:#ffffff;" transform="translate(31.139063 164.608256)scale(0.1 -0.1)">
       <defs>
        <path d="M 9.125 0 
L 9.125 10.6875 
L 18.65625 10.6875 
L 18.65625 0 
z
" id="LiberationSans-46"/>
        <path d="M 51.421875 22.40625 
Q 51.421875 17.234375 49.859375 12.9375 
Q 48.296875 8.640625 45.21875 5.53125 
Q 42.140625 2.4375 37.578125 0.71875 
Q 33.015625 -0.984375 27 -0.984375 
Q 21.578125 -0.984375 17.546875 0.28125 
Q 13.53125 1.5625 10.734375 3.78125 
Q 7.953125 6 6.3125 8.984375 
Q 4.6875 11.96875 4 15.375 
L 12.890625 16.40625 
Q 13.421875 14.453125 14.390625 12.625 
Q 15.375 10.796875 17.0625 9.34375 
Q 18.75 7.90625 21.21875 7.046875 
Q 23.6875 6.203125 27.203125 6.203125 
Q 30.609375 6.203125 33.390625 7.25 
Q 36.1875 8.296875 38.15625 10.34375 
Q 40.140625 12.40625 41.203125 15.375 
Q 42.28125 18.359375 42.28125 22.21875 
Q 42.28125 25.390625 41.25 28.046875 
Q 40.234375 30.71875 38.328125 32.640625 
Q 36.421875 34.578125 33.65625 35.640625 
Q 30.90625 36.71875 27.390625 36.71875 
Q 25.203125 36.71875 23.34375 36.328125 
Q 21.484375 35.9375 19.890625 35.25 
Q 18.3125 34.578125 17.015625 33.671875 
Q 15.71875 32.765625 14.59375 31.78125 
L 6 31.78125 
L 8.296875 68.796875 
L 47.40625 68.796875 
L 47.40625 61.328125 
L 16.3125 61.328125 
L 14.984375 39.5 
Q 17.328125 41.3125 20.84375 42.59375 
Q 24.359375 43.890625 29.203125 43.890625 
Q 34.328125 43.890625 38.421875 42.328125 
Q 42.53125 40.765625 45.40625 37.90625 
Q 48.296875 35.0625 49.859375 31.109375 
Q 51.421875 27.15625 51.421875 22.40625 
z
" id="LiberationSans-53"/>
       </defs>
       <use xlink:href="#LiberationSans-48"/>
       <use x="55.615234" xlink:href="#LiberationSans-46"/>
       <use x="83.398438" xlink:href="#LiberationSans-50"/>
       <use x="139.013672" xlink:href="#LiberationSans-53"/>
      </g>
     </g>
    </g>
    <g id="ytick_2">
     <g id="line2d_8">
      <g>
       <use style="fill:#ffffff;stroke:#ffffff;stroke-width:0.8;" x="57.6" xlink:href="#m90ef93e7c9" y="140.736343"/>
      </g>
     </g>
     <g id="text_8">
      <!-- 0.50 -->
      <g style="fill:#ffffff;" transform="translate(31.139063 144.359781)scale(0.1 -0.1)">
       <use xlink:href="#LiberationSans-48"/>
       <use x="55.615234" xlink:href="#LiberationSans-46"/>
       <use x="83.398438" xlink:href="#LiberationSans-53"/>
       <use x="139.013672" xlink:href="#LiberationSans-48"/>
      </g>
     </g>
    </g>
    <g id="ytick_3">
     <g id="line2d_9">
      <g>
       <use style="fill:#ffffff;stroke:#ffffff;stroke-width:0.8;" x="57.6" xlink:href="#m90ef93e7c9" y="120.487868"/>
      </g>
     </g>
     <g id="text_9">
      <!-- 0.75 -->
      <g style="fill:#ffffff;" transform="translate(31.139063 124.111306)scale(0.1 -0.1)">
       <defs>
        <path d="M 50.59375 61.671875 
Q 45.40625 53.765625 41.0625 46.453125 
Q 36.71875 39.15625 33.59375 31.75 
Q 30.46875 24.359375 28.734375 16.578125 
Q 27 8.796875 27 0 
L 17.828125 0 
Q 17.828125 8.25 19.78125 16.1875 
Q 21.734375 24.125 25.046875 31.765625 
Q 28.375 39.40625 32.765625 46.78125 
Q 37.15625 54.15625 42.09375 61.328125 
L 5.125 61.328125 
L 5.125 68.796875 
L 50.59375 68.796875 
z
" id="LiberationSans-55"/>
       </defs>
       <use xlink:href="#LiberationSans-48"/>
       <use x="55.615234" xlink:href="#LiberationSans-46"/>
       <use x="83.398438" xlink:href="#LiberationSans-55"/>
       <use x="139.013672" xlink:href="#LiberationSans-53"/>
      </g>
     </g>
    </g>
    <g id="ytick_4">
     <g id="line2d_10">
      <g>
       <use style="fill:#ffffff;stroke:#ffffff;stroke-width:0.8;" x="57.6" xlink:href="#m90ef93e7c9" y="100.239393"/>
      </g>
     </g>
     <g id="text_10">
      <!-- 1.00 -->
      <g style="fill:#ffffff;" transform="translate(31.139063 103.862831)scale(0.1 -0.1)">
       <use xlink:href="#LiberationSans-49"/>
       <use x="55.615234" xlink:href="#LiberationSans-46"/>
       <use x="83.398438" xlink:href="#LiberationSans-48"/>
       <use x="139.013672" xlink:href="#LiberationSans-48"/>
      </g>
     </g>
    </g>
    <g id="ytick_5">
     <g id="line2d_11">
      <g>
       <use style="fill:#ffffff;stroke:#ffffff;stroke-width:0.8;" x="57.6" xlink:href="#m90ef93e7c9" y="79.990918"/>
      </g>
     </g>
     <g id="text_11">
      <!-- 1.25 -->
      <g style="fill:#ffffff;" transform="translate(31.139063 83.614355)scale(0.1 -0.1)">
       <use xlink:href="#LiberationSans-49"/>
       <use x="55.615234" xlink:href="#LiberationSans-46"/>
       <use x="83.398438" xlink:href="#LiberationSans-50"/>
       <use x="139.013672" xlink:href="#LiberationSans-53"/>
      </g>
     </g>
    </g>
    <g id="ytick_6">
     <g id="line2d_12">
      <g>
       <use style="fill:#ffffff;stroke:#ffffff;stroke-width:0.8;" x="57.6" xlink:href="#m90ef93e7c9" y="59.742443"/>
      </g>
     </g>
     <g id="text_12">
      <!-- 1.50 -->
      <g style="fill:#ffffff;" transform="translate(31.139063 63.36588)scale(0.1 -0.1)">
       <use xlink:href="#LiberationSans-49"/>
       <use x="55.615234" xlink:href="#LiberationSans-46"/>
       <use x="83.398438" xlink:href="#LiberationSans-53"/>
       <use x="139.013672" xlink:href="#LiberationSans-48"/>
      </g>
     </g>
    </g>
   </g>
   <g id="line2d_13">
    <path clip-path="url(#pefbd871879)" d="M 73.832727 104.365514 
L 75.066661 117.666781 
L 76.300595 128.666386 
L 77.534529 137.762609 
L 78.768464 145.284814 
L 79.028239 146.694374 
L 79.093183 89.007907 
L 79.158127 89.925565 
L 80.392061 105.725534 
L 81.625995 118.791462 
L 82.859929 129.596451 
L 83.509368 134.510346 
L 83.574312 76.945112 
L 83.639256 77.982797 
L 84.87319 95.849352 
L 86.107124 110.624264 
L 87.341058 122.842511 
L 87.925553 127.868137 
L 87.990497 70.368994 
L 88.055441 71.472113 
L 89.289375 90.465282 
L 90.523309 106.171858 
L 91.757243 119.160554 
L 91.822187 119.778188 
L 91.887131 62.359542 
L 91.952075 63.542355 
L 92.991177 80.943691 
L 93.121065 89.385627 
L 94.354999 105.279027 
L 94.939494 111.81632 
L 95.004438 54.476896 
L 95.069382 55.738143 
L 96.303316 77.453933 
L 97.53725 95.412003 
L 98.771184 110.262594 
L 99.290735 115.719081 
L 99.355679 58.340823 
L 99.420623 59.563624 
L 100.654557 80.617449 
L 101.888491 98.028102 
L 103.122425 112.426 
L 104.356359 124.332474 
L 105.590293 134.178641 
L 106.824227 142.321019 
L 107.928274 148.404377 
L 107.993218 90.700895 
L 108.058161 91.601708 
L 109.292096 107.111635 
L 110.52603 119.937711 
L 111.759964 130.544352 
L 112.474347 135.824409 
L 112.53929 78.2461 
L 112.604234 79.27084 
L 113.838168 96.914511 
L 115.072102 111.505107 
L 116.306036 123.570932 
L 116.37098 124.144683 
L 116.435924 66.682589 
L 116.500868 67.822388 
L 117.734802 87.447109 
L 118.968736 103.675952 
L 120.20267 117.096541 
L 120.397502 118.992069 
L 120.462446 61.581245 
L 120.52739 62.771803 
L 121.761324 83.270482 
L 122.995258 100.222051 
L 124.099304 112.886959 
L 124.164248 55.536882 
L 124.229192 56.787582 
L 125.463126 78.321776 
L 126.69706 96.129674 
L 127.930994 110.856078 
L 129.164928 123.034212 
L 130.398862 133.105032 
L 131.632796 141.433188 
L 132.86673 148.320233 
L 133.061562 149.292961 
L 133.126506 91.580638 
L 133.19145 92.472697 
L 134.425384 107.831907 
L 135.659318 120.533347 
L 136.893252 131.036918 
L 137.412803 134.896199 
L 137.477747 77.327126 
L 137.542691 78.36101 
L 138.776625 96.162119 
L 139.620896 106.532684 
L 139.68584 49.245833 
L 139.750784 50.55913 
L 139.815728 51.859359 
L 140.010559 62.074766 
L 141.244493 82.694061 
L 142.478427 99.745375 
L 143.712361 113.846115 
L 144.946295 125.506851 
L 146.18023 135.149803 
L 147.414164 143.12413 
L 148.648098 149.718573 
L 149.882032 155.171907 
L 150.336639 156.933818 
L 150.401583 99.145467 
L 150.466527 99.962255 
L 151.700461 114.025466 
L 152.934395 125.655167 
L 154.168329 135.272454 
L 155.402263 143.225557 
L 155.85687 145.795115 
L 155.921814 88.117596 
L 155.986758 89.044113 
L 157.220692 104.996609 
L 158.454626 118.188671 
L 159.68856 129.097967 
L 160.792607 137.248553 
L 160.85755 79.656074 
L 160.922494 80.666784 
L 162.156428 98.0689 
L 163.390362 112.459739 
L 164.624296 124.360374 
L 165.858231 134.201713 
L 166.442726 138.249666 
L 166.50767 80.647225 
L 166.572613 81.648074 
L 167.806547 98.880386 
L 169.040482 113.130805 
L 170.274416 124.915318 
L 171.50835 134.66063 
L 172.742284 142.719604 
L 173.391723 146.384666 
L 173.456667 88.701281 
L 173.521611 89.62199 
L 174.755545 105.474489 
L 175.989479 118.583858 
L 177.223413 129.424771 
L 178.457347 138.389763 
L 179.301617 143.612585 
L 179.366561 85.956783 
L 179.431505 86.9048 
L 179.821169 92.398064 
L 179.951056 100.613187 
L 181.18499 114.56376 
L 182.224093 124.421265 
L 182.289037 66.956419 
L 182.353981 68.093493 
L 183.587915 87.671302 
L 184.821849 103.86135 
L 186.055783 117.249858 
L 187.289717 128.321607 
L 187.549492 130.396304 
L 187.614436 72.872006 
L 187.67938 73.950219 
L 188.913314 92.514575 
L 190.082304 107.129191 
L 190.147248 49.836405 
L 190.212192 51.143825 
L 191.446126 73.65462 
L 192.68006 92.270127 
L 193.913994 107.66439 
L 194.953097 118.542009 
L 195.018041 61.135664 
L 195.082985 62.330655 
L 196.316919 82.905671 
L 197.550853 99.920368 
L 198.784787 113.990827 
L 200.018721 125.626522 
L 201.252655 135.248766 
L 202.486589 143.205968 
L 203.460747 148.502871 
L 203.525691 90.79841 
L 203.590635 91.698252 
L 204.824569 107.191473 
L 206.058503 120.003734 
L 207.292437 130.59895 
L 208.526371 139.360761 
L 209.435586 144.831062 
L 209.50053 87.163136 
L 209.565474 88.09915 
L 210.799408 104.215163 
L 212.033342 117.542447 
L 213.267276 128.563566 
L 214.50121 137.677581 
L 215.735144 145.2145 
L 216.969078 151.447223 
L 218.073124 156.103834 
L 218.138068 98.323741 
L 218.203012 99.148705 
L 219.436946 113.352694 
L 220.67088 125.098811 
L 221.904814 134.812371 
L 223.138748 142.845088 
L 224.372683 149.487816 
L 224.697402 151.036061 
L 224.762346 93.306394 
L 224.82729 94.181281 
L 226.061224 109.244837 
L 227.295158 121.701782 
L 227.749765 125.72648 
L 227.879653 133.281657 
L 229.113587 141.579249 
L 230.347521 148.44102 
L 231.581455 154.115423 
L 232.230894 156.69603 
L 232.295838 98.910045 
L 232.360782 99.729175 
L 233.594716 113.832718 
L 234.82865 125.495772 
L 236.062584 135.140641 
L 237.296518 143.116554 
L 237.361462 85.465687 
L 237.426406 86.418591 
L 238.66034 102.825409 
L 239.82933 115.741523 
L 239.894274 58.363043 
L 239.959218 59.585622 
L 241.193152 80.635641 
L 242.427086 98.043146 
L 243.66102 112.438441 
L 243.98574 115.793605 
L 244.050684 58.414607 
L 244.115627 59.636673 
L 245.349562 80.677858 
L 246.583496 98.078057 
L 247.752486 111.776202 
L 247.81743 54.437177 
L 247.882374 55.698819 
L 249.116308 77.421413 
L 250.350242 95.385111 
L 251.584176 110.240355 
L 252.298559 117.635396 
L 252.363503 60.238071 
L 252.428446 61.441993 
L 253.66238 82.170784 
L 254.896315 99.312646 
L 255.675641 108.576197 
L 255.740585 51.269013 
L 255.805529 52.562179 
L 255.870473 53.842478 
L 256.065305 63.999275 
L 257.299239 84.285551 
L 258.533173 101.061472 
L 259.247556 109.41264 
L 259.3125 52.097132 
L 259.377443 53.382059 
L 260.611378 75.505547 
L 261.845312 93.800768 
L 263.079246 108.930168 
L 264.31318 121.441563 
L 265.547114 131.787976 
L 266.781048 140.344037 
L 267.365543 143.863327 
L 267.430487 86.205029 
L 267.495431 87.150576 
L 268.729365 103.430731 
L 269.963299 116.893754 
L 271.197233 128.027124 
L 271.521952 130.622019 
L 271.586896 73.095475 
L 271.65184 74.171465 
L 272.885774 92.697536 
L 274.119708 108.01784 
L 275.353642 120.687106 
L 275.548474 122.476516 
L 275.613418 65.031021 
L 275.678362 66.187253 
L 276.197913 75.032413 
L 276.327801 83.5914 
L 277.561735 100.487437 
L 278.795669 114.45977 
L 280.029603 126.014319 
L 281.133649 134.646987 
L 281.198593 77.080394 
L 281.263537 78.116733 
L 282.497471 95.960112 
L 283.731405 110.715857 
L 284.965339 122.918255 
L 285.290059 125.762313 
L 285.355003 68.284124 
L 285.419947 69.407987 
L 286.653881 88.758335 
L 287.887815 104.760282 
L 289.121749 117.993238 
L 289.706244 123.436235 
L 289.771188 65.981191 
L 289.836132 67.127968 
L 291.070066 86.872853 
L 292.304 103.201065 
L 293.018383 111.32936 
L 293.083326 53.994781 
L 293.14827 55.260825 
L 294.382204 77.05921 
L 295.616139 95.085584 
L 296.850073 109.992658 
L 298.084007 122.320199 
L 299.317941 132.514572 
L 300.551875 140.944902 
L 301.720865 147.5816 
L 301.785809 89.886306 
L 301.850753 90.795223 
L 303.084687 106.444705 
L 304.318621 119.386188 
L 305.552555 130.088264 
L 305.81233 132.09369 
L 305.877274 74.552502 
L 305.942218 75.613994 
L 307.176152 93.890449 
L 308.410086 109.004331 
L 308.79975 113.210618 
L 308.864694 55.85732 
L 308.929638 57.104832 
L 310.163572 78.584129 
L 310.748067 87.41902 
L 310.877954 95.732736 
L 312.111889 110.527826 
L 312.371664 113.300227 
L 312.436608 55.946038 
L 312.501552 57.192667 
L 313.735486 78.656765 
L 314.96942 96.406696 
L 315.943579 108.222364 
L 316.008522 50.918701 
L 316.073466 52.215353 
L 317.3074 74.540729 
L 318.541334 93.002903 
L 319.775269 108.270366 
L 320.944259 120.289534 
L 321.009203 62.8658 
L 321.074146 64.043576 
L 322.308081 84.322186 
L 323.542015 101.091768 
L 323.80179 104.234162 
L 323.866734 46.970182 
L 323.931678 48.306122 
L 325.165612 71.307955 
L 325.360444 74.55674 
L 325.490332 83.125145 
L 326.724266 100.101864 
L 327.178873 105.58685 
L 327.243817 48.30941 
L 327.308761 49.632025 
L 328.542695 72.404423 
L 329.776629 91.236265 
L 331.010563 106.809429 
L 332.244497 119.687799 
L 333.478431 130.337684 
L 334.322702 136.542092 
L 334.387646 78.956642 
L 334.452589 79.974312 
L 335.686523 97.496254 
L 336.920458 111.986184 
L 337.115289 114.032745 
L 337.180233 56.671267 
L 337.245177 57.91068 
L 338.479111 79.250532 
L 339.713045 96.897717 
L 340.946979 111.491218 
L 341.79125 119.993096 
L 341.856194 62.572312 
L 341.921138 63.753008 
L 343.155072 84.081899 
L 344.389006 100.89306 
L 345.62294 114.795204 
L 346.856874 126.291708 
L 348.090808 135.798848 
L 348.740247 140.122507 
L 348.805191 82.501432 
L 348.870135 83.48383 
L 350.104069 100.398482 
L 351.338003 114.386208 
L 352.571937 125.953485 
L 353.481152 133.175337 
L 353.546095 75.623387 
L 353.611039 76.674223 
L 354.844973 94.767215 
L 356.078907 109.729381 
L 357.312841 122.10248 
L 358.546776 132.334527 
L 359.45599 138.722748 
L 359.520934 81.1156 
L 359.585878 82.111788 
L 360.819812 99.263859 
L 362.053746 113.447921 
L 363.28768 125.177561 
L 364.521614 134.877493 
L 364.911278 137.577045 
L 364.976221 79.981297 
L 365.041165 80.988772 
L 366.275099 98.335171 
L 366.340043 99.160021 
L 366.469931 107.241248 
L 367.703865 120.044896 
L 368.678024 128.567952 
L 368.742968 71.061846 
L 368.807911 72.15807 
L 370.041845 91.032541 
L 371.27578 106.640958 
L 372.509714 119.54848 
L 373.743648 130.222474 
L 373.873535 131.232556 
L 373.938479 73.699937 
L 374.003423 74.769911 
L 374.198255 77.91638 
L 374.328143 86.41826 
L 375.562077 102.825136 
L 376.796011 116.392951 
L 377.44545 122.563326 
L 377.510394 65.116967 
L 377.575338 66.272344 
L 378.809272 86.165286 
L 380.043206 102.615936 
L 380.627701 109.382439 
L 380.692645 52.067233 
L 380.757589 53.352456 
L 381.991523 75.481067 
L 383.225457 93.780524 
L 384.459391 108.913427 
L 384.654222 111.050802 
L 384.719166 53.718995 
L 384.78411 54.987783 
L 386.018044 76.833416 
L 387.251978 94.898861 
L 388.485912 109.838246 
L 389.719847 122.192507 
L 390.953781 132.408976 
L 392.187715 140.857578 
L 392.967041 145.423246 
L 393.031985 87.749428 
L 393.096929 88.679608 
L 393.226817 96.968362 
L 394.460751 111.549638 
L 395.694685 123.607759 
L 396.474012 130.124029 
L 396.538956 72.60244 
L 396.6039 73.683335 
L 397.837834 92.293873 
L 398.487273 100.757578 
L 398.487273 100.757578 
" style="fill:none;stroke:#9a72ac;stroke-linecap:round;stroke-width:1.5;"/>
   </g>
   <g id="line2d_14">
    <path clip-path="url(#pefbd871879)" d="M 73.832727 100.239393 
L 398.487273 100.239393 
L 398.487273 100.239393 
" style="fill:none;stroke:#cf5044;stroke-linecap:round;stroke-width:1.5;"/>
   </g>
   <g id="patch_3">
    <path d="M 57.6 162.432 
L 57.6 41.472 
" style="fill:none;stroke:#ffffff;stroke-linecap:square;stroke-linejoin:miter;stroke-width:0.8;"/>
   </g>
   <g id="patch_4">
    <path d="M 414.72 162.432 
L 414.72 41.472 
" style="fill:none;stroke:#ffffff;stroke-linecap:square;stroke-linejoin:miter;stroke-width:0.8;"/>
   </g>
   <g id="patch_5">
    <path d="M 57.6 162.432 
L 414.72 162.432 
" style="fill:none;stroke:#ffffff;stroke-linecap:square;stroke-linejoin:miter;stroke-width:0.8;"/>
   </g>
   <g id="patch_6">
    <path d="M 57.6 41.472 
L 414.72 41.472 
" style="fill:none;stroke:#ffffff;stroke-linecap:square;stroke-linejoin:miter;stroke-width:0.8;"/>
   </g>
   <g id="legend_1">
    <g id="line2d_15">
     <path d="M 66.6 54.218875 
L 86.6 54.218875 
" style="fill:none;stroke:#9a72ac;stroke-linecap:round;stroke-width:1.5;"/>
    </g>
    <g id="line2d_16"/>
    <g id="text_13">
     <!-- $\hat{x}$ -->
     <g style="fill:#ffffff;" transform="translate(94.6 57.718875)scale(0.1 -0.1)">
      <defs>
       <path d="M -28.609375 79.984375 
L -21.390625 79.984375 
L -9.421875 61.625 
L -16.21875 61.625 
L -25 73.578125 
L -33.796875 61.625 
L -40.578125 61.625 
z
M -25 56 
z
" id="DejaVuSans-770"/>
       <path d="M 60.015625 54.6875 
L 34.90625 27.875 
L 50.296875 0 
L 39.984375 0 
L 28.421875 21.6875 
L 8.296875 0 
L -2.59375 0 
L 24.3125 28.8125 
L 10.015625 54.6875 
L 20.3125 54.6875 
L 30.8125 34.90625 
L 49.125 54.6875 
z
" id="DejaVuSans-Oblique-120"/>
      </defs>
      <use transform="translate(62.373047 12.015625)" xlink:href="#DejaVuSans-770"/>
      <use transform="translate(0 0.828125)" xlink:href="#DejaVuSans-Oblique-120"/>
     </g>
    </g>
    <g id="line2d_17">
     <path d="M 66.6 68.54075 
L 86.6 68.54075 
" style="fill:none;stroke:#cf5044;stroke-linecap:round;stroke-width:1.5;"/>
    </g>
    <g id="line2d_18"/>
    <g id="text_14">
     <!-- x -->
     <g style="fill:#ffffff;" transform="translate(94.6 72.04075)scale(0.1 -0.1)">
      <defs>
       <path d="M 39.109375 0 
L 24.90625 21.6875 
L 10.59375 0 
L 1.125 0 
L 19.921875 27.15625 
L 2 52.828125 
L 11.71875 52.828125 
L 24.90625 32.28125 
L 37.984375 52.828125 
L 47.796875 52.828125 
L 29.890625 27.25 
L 48.921875 0 
z
" id="LiberationSans-120"/>
      </defs>
      <use xlink:href="#LiberationSans-120"/>
     </g>
    </g>
   </g>
  </g>
  <g id="axes_2">
   <g id="patch_7">
    <path d="M 57.6 307.584 
L 414.72 307.584 
L 414.72 186.624 
L 57.6 186.624 
z
" style="fill:#1a1a1a;"/>
   </g>
   <g id="matplotlib.axis_3">
    <g id="xtick_7">
     <g id="line2d_19">
      <g>
       <use style="fill:#ffffff;stroke:#ffffff;stroke-width:0.8;" x="73.832727" xlink:href="#m7df0f8f558" y="307.584"/>
      </g>
     </g>
     <g id="text_15">
      <!-- 0 -->
      <g style="fill:#ffffff;" transform="translate(71.052259 321.830875)scale(0.1 -0.1)">
       <use xlink:href="#LiberationSans-48"/>
      </g>
     </g>
    </g>
    <g id="xtick_8">
     <g id="line2d_20">
      <g>
       <use style="fill:#ffffff;stroke:#ffffff;stroke-width:0.8;" x="138.776625" xlink:href="#m7df0f8f558" y="307.584"/>
      </g>
     </g>
     <g id="text_16">
      <!-- 200 -->
      <g style="fill:#ffffff;" transform="translate(130.435219 321.830875)scale(0.1 -0.1)">
       <use xlink:href="#LiberationSans-50"/>
       <use x="55.615234" xlink:href="#LiberationSans-48"/>
       <use x="111.230469" xlink:href="#LiberationSans-48"/>
      </g>
     </g>
    </g>
    <g id="xtick_9">
     <g id="line2d_21">
      <g>
       <use style="fill:#ffffff;stroke:#ffffff;stroke-width:0.8;" x="203.720523" xlink:href="#m7df0f8f558" y="307.584"/>
      </g>
     </g>
     <g id="text_17">
      <!-- 400 -->
      <g style="fill:#ffffff;" transform="translate(195.379117 321.830875)scale(0.1 -0.1)">
       <use xlink:href="#LiberationSans-52"/>
       <use x="55.615234" xlink:href="#LiberationSans-48"/>
       <use x="111.230469" xlink:href="#LiberationSans-48"/>
      </g>
     </g>
    </g>
    <g id="xtick_10">
     <g id="line2d_22">
      <g>
       <use style="fill:#ffffff;stroke:#ffffff;stroke-width:0.8;" x="268.664421" xlink:href="#m7df0f8f558" y="307.584"/>
      </g>
     </g>
     <g id="text_18">
      <!-- 600 -->
      <g style="fill:#ffffff;" transform="translate(260.323015 321.830875)scale(0.1 -0.1)">
       <use xlink:href="#LiberationSans-54"/>
       <use x="55.615234" xlink:href="#LiberationSans-48"/>
       <use x="111.230469" xlink:href="#LiberationSans-48"/>
      </g>
     </g>
    </g>
    <g id="xtick_11">
     <g id="line2d_23">
      <g>
       <use style="fill:#ffffff;stroke:#ffffff;stroke-width:0.8;" x="333.608319" xlink:href="#m7df0f8f558" y="307.584"/>
      </g>
     </g>
     <g id="text_19">
      <!-- 800 -->
      <g style="fill:#ffffff;" transform="translate(325.266913 321.830875)scale(0.1 -0.1)">
       <use xlink:href="#LiberationSans-56"/>
       <use x="55.615234" xlink:href="#LiberationSans-48"/>
       <use x="111.230469" xlink:href="#LiberationSans-48"/>
      </g>
     </g>
    </g>
    <g id="xtick_12">
     <g id="line2d_24">
      <g>
       <use style="fill:#ffffff;stroke:#ffffff;stroke-width:0.8;" x="398.552217" xlink:href="#m7df0f8f558" y="307.584"/>
      </g>
     </g>
     <g id="text_20">
      <!-- 1000 -->
      <g style="fill:#ffffff;" transform="translate(387.430342 321.830875)scale(0.1 -0.1)">
       <use xlink:href="#LiberationSans-49"/>
       <use x="55.615234" xlink:href="#LiberationSans-48"/>
       <use x="111.230469" xlink:href="#LiberationSans-48"/>
       <use x="166.845703" xlink:href="#LiberationSans-48"/>
      </g>
     </g>
    </g>
    <g id="text_21">
     <!-- $t$ (ms) -->
     <g style="fill:#ffffff;" transform="translate(222.81 335.205875)scale(0.1 -0.1)">
      <defs>
       <path d="M 42.28125 54.6875 
L 40.921875 47.703125 
L 23 47.703125 
L 17.1875 18.015625 
Q 16.890625 16.359375 16.75 15.234375 
Q 16.609375 14.109375 16.609375 13.484375 
Q 16.609375 10.359375 18.484375 8.9375 
Q 20.359375 7.515625 24.515625 7.515625 
L 33.59375 7.515625 
L 32.078125 0 
L 23.484375 0 
Q 15.484375 0 11.546875 3.125 
Q 7.625 6.25 7.625 12.59375 
Q 7.625 13.71875 7.765625 15.0625 
Q 7.90625 16.40625 8.203125 18.015625 
L 14.015625 47.703125 
L 6.390625 47.703125 
L 7.8125 54.6875 
L 15.28125 54.6875 
L 18.3125 70.21875 
L 27.296875 70.21875 
L 24.3125 54.6875 
z
" id="DejaVuSans-Oblique-116"/>
       <path id="LiberationSans-32"/>
       <path d="M 6.203125 25.984375 
Q 6.203125 32.765625 7.21875 38.96875 
Q 8.25 45.171875 10.4375 50.875 
Q 12.640625 56.59375 16.0625 61.953125 
Q 19.484375 67.328125 24.21875 72.46875 
L 32.71875 72.46875 
Q 28.125 67.328125 24.78125 61.9375 
Q 21.4375 56.546875 19.28125 50.796875 
Q 17.140625 45.0625 16.09375 38.859375 
Q 15.046875 32.671875 15.046875 25.875 
Q 15.046875 19.09375 16.09375 12.890625 
Q 17.140625 6.6875 19.28125 0.921875 
Q 21.4375 -4.828125 24.78125 -10.203125 
Q 28.125 -15.578125 32.71875 -20.703125 
L 24.21875 -20.703125 
Q 19.484375 -15.578125 16.0625 -10.203125 
Q 12.640625 -4.828125 10.4375 0.875 
Q 8.25 6.59375 7.21875 12.765625 
Q 6.203125 18.953125 6.203125 25.78125 
z
" id="LiberationSans-40"/>
       <path d="M 37.5 0 
L 37.5 33.5 
Q 37.5 37.359375 37.015625 39.9375 
Q 36.53125 42.53125 35.375 44.109375 
Q 34.234375 45.703125 32.375 46.359375 
Q 30.515625 47.015625 27.828125 47.015625 
Q 25.046875 47.015625 22.796875 45.921875 
Q 20.5625 44.828125 18.96875 42.75 
Q 17.390625 40.671875 16.53125 37.625 
Q 15.671875 34.578125 15.671875 30.609375 
L 15.671875 0 
L 6.9375 0 
L 6.9375 41.546875 
Q 6.9375 43.21875 6.90625 45.046875 
Q 6.890625 46.875 6.828125 48.5 
Q 6.78125 50.140625 6.734375 51.3125 
Q 6.6875 52.484375 6.640625 52.828125 
L 14.9375 52.828125 
Q 14.984375 52.59375 15.03125 51.515625 
Q 15.09375 50.4375 15.15625 49.046875 
Q 15.234375 47.65625 15.28125 46.21875 
Q 15.328125 44.78125 15.328125 43.796875 
L 15.484375 43.796875 
Q 16.65625 46.09375 18.015625 47.953125 
Q 19.390625 49.8125 21.21875 51.09375 
Q 23.046875 52.390625 25.40625 53.09375 
Q 27.78125 53.8125 30.90625 53.8125 
Q 36.921875 53.8125 40.40625 51.421875 
Q 43.890625 49.03125 45.265625 43.796875 
L 45.40625 43.796875 
Q 46.578125 46.09375 48.046875 47.953125 
Q 49.515625 49.8125 51.46875 51.09375 
Q 53.421875 52.390625 55.859375 53.09375 
Q 58.296875 53.8125 61.421875 53.8125 
Q 65.4375 53.8125 68.328125 52.734375 
Q 71.234375 51.65625 73.09375 49.40625 
Q 74.953125 47.171875 75.828125 43.625 
Q 76.703125 40.09375 76.703125 35.203125 
L 76.703125 0 
L 68.015625 0 
L 68.015625 33.5 
Q 68.015625 37.359375 67.53125 39.9375 
Q 67.046875 42.53125 65.890625 44.109375 
Q 64.75 45.703125 62.890625 46.359375 
Q 61.03125 47.015625 58.34375 47.015625 
Q 55.5625 47.015625 53.3125 45.96875 
Q 51.078125 44.921875 49.484375 42.875 
Q 47.90625 40.828125 47.046875 37.75 
Q 46.1875 34.671875 46.1875 30.609375 
L 46.1875 0 
z
" id="LiberationSans-109"/>
       <path d="M 46.390625 14.59375 
Q 46.390625 10.890625 44.9375 7.984375 
Q 43.5 5.078125 40.765625 3.09375 
Q 38.03125 1.125 34.046875 0.0625 
Q 30.078125 -0.984375 24.953125 -0.984375 
Q 20.359375 -0.984375 16.671875 -0.265625 
Q 12.984375 0.4375 10.203125 2 
Q 7.421875 3.5625 5.53125 6.125 
Q 3.65625 8.6875 2.78125 12.40625 
L 10.546875 13.921875 
Q 11.671875 9.671875 15.1875 7.6875 
Q 18.703125 5.71875 24.953125 5.71875 
Q 27.78125 5.71875 30.140625 6.109375 
Q 32.515625 6.5 34.21875 7.453125 
Q 35.9375 8.40625 36.890625 9.984375 
Q 37.84375 11.578125 37.84375 13.921875 
Q 37.84375 16.3125 36.71875 17.84375 
Q 35.59375 19.390625 33.59375 20.40625 
Q 31.59375 21.4375 28.734375 22.1875 
Q 25.875 22.953125 22.46875 23.875 
Q 19.28125 24.703125 16.15625 25.734375 
Q 13.03125 26.765625 10.515625 28.4375 
Q 8.015625 30.125 6.453125 32.609375 
Q 4.890625 35.109375 4.890625 38.875 
Q 4.890625 46.09375 10.03125 49.875 
Q 15.1875 53.65625 25.046875 53.65625 
Q 33.796875 53.65625 38.9375 50.578125 
Q 44.09375 47.515625 45.453125 40.71875 
L 37.546875 39.75 
Q 37.109375 41.796875 35.9375 43.1875 
Q 34.765625 44.578125 33.109375 45.4375 
Q 31.453125 46.296875 29.375 46.65625 
Q 27.296875 47.015625 25.046875 47.015625 
Q 19.09375 47.015625 16.25 45.203125 
Q 13.421875 43.40625 13.421875 39.75 
Q 13.421875 37.59375 14.46875 36.203125 
Q 15.53125 34.8125 17.40625 33.859375 
Q 19.28125 32.90625 21.921875 32.203125 
Q 24.5625 31.5 27.734375 30.71875 
Q 29.828125 30.171875 32.03125 29.5625 
Q 34.234375 28.953125 36.296875 28.09375 
Q 38.375 27.25 40.203125 26.09375 
Q 42.046875 24.953125 43.40625 23.34375 
Q 44.78125 21.734375 45.578125 19.578125 
Q 46.390625 17.4375 46.390625 14.59375 
z
" id="LiberationSans-115"/>
       <path d="M 27.09375 25.78125 
Q 27.09375 18.953125 26.0625 12.765625 
Q 25.046875 6.59375 22.84375 0.875 
Q 20.65625 -4.828125 17.234375 -10.203125 
Q 13.8125 -15.578125 9.078125 -20.703125 
L 0.59375 -20.703125 
Q 5.171875 -15.578125 8.515625 -10.203125 
Q 11.859375 -4.828125 14 0.921875 
Q 16.15625 6.6875 17.203125 12.890625 
Q 18.265625 19.09375 18.265625 25.875 
Q 18.265625 32.671875 17.203125 38.859375 
Q 16.15625 45.0625 14 50.796875 
Q 11.859375 56.546875 8.515625 61.9375 
Q 5.171875 67.328125 0.59375 72.46875 
L 9.078125 72.46875 
Q 13.8125 67.328125 17.234375 61.953125 
Q 20.65625 56.59375 22.84375 50.875 
Q 25.046875 45.171875 26.0625 38.96875 
Q 27.09375 32.765625 27.09375 25.984375 
z
" id="LiberationSans-41"/>
      </defs>
      <use transform="translate(0 0.53125)" xlink:href="#DejaVuSans-Oblique-116"/>
      <use transform="translate(39.208984 0.53125)" xlink:href="#LiberationSans-32"/>
      <use transform="translate(66.992188 0.53125)" xlink:href="#LiberationSans-40"/>
      <use transform="translate(100.292969 0.53125)" xlink:href="#LiberationSans-109"/>
      <use transform="translate(183.59375 0.53125)" xlink:href="#LiberationSans-115"/>
      <use transform="translate(233.59375 0.53125)" xlink:href="#LiberationSans-41"/>
     </g>
    </g>
   </g>
   <g id="matplotlib.axis_4">
    <g id="ytick_7">
     <g id="line2d_25">
      <g>
       <use style="fill:#ffffff;stroke:#ffffff;stroke-width:0.8;" x="57.6" xlink:href="#m90ef93e7c9" y="292.722519"/>
      </g>
     </g>
     <g id="text_22">
      <!-- −0.2 -->
      <g style="fill:#ffffff;" transform="translate(30.859375 296.345956)scale(0.1 -0.1)">
       <defs>
        <path d="M 4.9375 29.6875 
L 4.9375 36.8125 
L 53.515625 36.8125 
L 53.515625 29.6875 
z
" id="LiberationSans-8722"/>
       </defs>
       <use xlink:href="#LiberationSans-8722"/>
       <use x="58.398438" xlink:href="#LiberationSans-48"/>
       <use x="114.013672" xlink:href="#LiberationSans-46"/>
       <use x="141.796875" xlink:href="#LiberationSans-50"/>
      </g>
     </g>
    </g>
    <g id="ytick_8">
     <g id="line2d_26">
      <g>
       <use style="fill:#ffffff;stroke:#ffffff;stroke-width:0.8;" x="57.6" xlink:href="#m90ef93e7c9" y="268.385233"/>
      </g>
     </g>
     <g id="text_23">
      <!-- 0.0 -->
      <g style="fill:#ffffff;" transform="translate(36.7 272.008671)scale(0.1 -0.1)">
       <use xlink:href="#LiberationSans-48"/>
       <use x="55.615234" xlink:href="#LiberationSans-46"/>
       <use x="83.398438" xlink:href="#LiberationSans-48"/>
      </g>
     </g>
    </g>
    <g id="ytick_9">
     <g id="line2d_27">
      <g>
       <use style="fill:#ffffff;stroke:#ffffff;stroke-width:0.8;" x="57.6" xlink:href="#m90ef93e7c9" y="244.047948"/>
      </g>
     </g>
     <g id="text_24">
      <!-- 0.2 -->
      <g style="fill:#ffffff;" transform="translate(36.7 247.671386)scale(0.1 -0.1)">
       <use xlink:href="#LiberationSans-48"/>
       <use x="55.615234" xlink:href="#LiberationSans-46"/>
       <use x="83.398438" xlink:href="#LiberationSans-50"/>
      </g>
     </g>
    </g>
    <g id="ytick_10">
     <g id="line2d_28">
      <g>
       <use style="fill:#ffffff;stroke:#ffffff;stroke-width:0.8;" x="57.6" xlink:href="#m90ef93e7c9" y="219.710663"/>
      </g>
     </g>
     <g id="text_25">
      <!-- 0.4 -->
      <g style="fill:#ffffff;" transform="translate(36.7 223.3341)scale(0.1 -0.1)">
       <use xlink:href="#LiberationSans-48"/>
       <use x="55.615234" xlink:href="#LiberationSans-46"/>
       <use x="83.398438" xlink:href="#LiberationSans-52"/>
      </g>
     </g>
    </g>
    <g id="ytick_11">
     <g id="line2d_29">
      <g>
       <use style="fill:#ffffff;stroke:#ffffff;stroke-width:0.8;" x="57.6" xlink:href="#m90ef93e7c9" y="195.373378"/>
      </g>
     </g>
     <g id="text_26">
      <!-- 0.6 -->
      <g style="fill:#ffffff;" transform="translate(36.7 198.996815)scale(0.1 -0.1)">
       <use xlink:href="#LiberationSans-48"/>
       <use x="55.615234" xlink:href="#LiberationSans-46"/>
       <use x="83.398438" xlink:href="#LiberationSans-54"/>
      </g>
     </g>
    </g>
   </g>
   <g id="line2d_30">
    <path clip-path="url(#p86d9a0742e)" d="M 73.832727 222.051998 
L 75.066661 230.069541 
L 76.300595 236.699722 
L 77.534529 242.18261 
L 78.768464 246.716735 
L 79.028239 247.566369 
L 79.158127 262.674968 
L 80.71678 263.893379 
L 82.405322 264.921782 
L 83.509368 265.463241 
L 83.574312 280.336375 
L 83.639256 280.217459 
L 84.938134 278.07264 
L 86.301956 276.237693 
L 87.730721 274.68698 
L 87.925553 274.500735 
L 87.990497 289.283943 
L 88.055441 289.075998 
L 89.354319 285.325398 
L 90.653197 282.254667 
L 91.822187 279.969958 
L 91.887131 294.698747 
L 91.952075 294.436924 
L 92.991177 290.585019 
L 93.056121 211.116266 
L 93.121065 211.686102 
L 94.354999 221.497369 
L 94.939494 225.532952 
L 95.069382 241.077842 
L 96.303316 245.803136 
L 97.53725 249.710762 
L 98.836128 253.095869 
L 99.290735 254.129525 
L 99.355679 269.11543 
L 99.420623 269.108165 
L 103.382201 268.778039 
L 107.928274 268.580295 
L 107.993218 283.422413 
L 108.058161 283.27279 
L 109.357039 280.574134 
L 110.655917 278.364661 
L 112.019739 276.4744 
L 112.474347 275.927523 
L 112.53929 290.696534 
L 112.604234 290.474533 
L 113.903112 286.470422 
L 115.20199 283.192134 
L 116.37098 280.752996 
L 116.435924 295.473994 
L 116.500868 295.204456 
L 117.734802 290.563635 
L 119.03368 286.543372 
L 120.332558 283.25186 
L 120.397502 283.103935 
L 120.462446 297.80154 
L 120.52739 297.508843 
L 121.761324 292.469268 
L 122.995258 288.301746 
L 124.099304 285.188094 
L 124.164248 299.864962 
L 124.229192 299.551733 
L 125.463126 294.158655 
L 126.69706 289.6988 
L 127.995938 285.835306 
L 129.294816 282.672144 
L 130.593694 280.082367 
L 131.892572 277.962036 
L 133.061562 276.384451 
L 133.126506 291.148917 
L 133.19145 290.922414 
L 134.425384 287.022561 
L 135.724262 283.644187 
L 137.02314 280.878208 
L 137.412803 280.150673 
L 137.477747 294.877664 
L 137.542691 294.61406 
L 138.776625 290.075401 
L 139.620896 287.431271 
L 139.68584 302.085818 
L 139.750784 301.750492 
L 139.815728 301.418502 
L 139.880671 221.841954 
L 139.945615 222.305067 
L 141.179549 230.278819 
L 142.413483 236.872786 
L 143.647417 242.325727 
L 144.881352 246.835087 
L 146.18023 250.741466 
L 147.479107 253.939738 
L 148.777985 256.558262 
L 150.076863 258.702128 
L 150.336639 259.081808 
L 150.401583 274.018438 
L 150.466527 273.962386 
L 152.02518 272.772377 
L 153.713722 271.767948 
L 155.597095 270.916395 
L 155.85687 270.817147 
L 155.921814 285.637008 
L 155.986758 285.46535 
L 157.285636 282.36925 
L 158.584514 279.834378 
L 159.948336 277.665729 
L 160.792607 276.534395 
L 160.85755 291.297368 
L 160.922494 291.069388 
L 162.156428 287.144102 
L 163.455306 283.743696 
L 164.754184 280.959679 
L 166.053062 278.680319 
L 166.442726 278.08078 
L 166.50767 292.828366 
L 166.572613 292.585153 
L 167.806547 288.397578 
L 169.105425 284.769955 
L 170.404303 281.799909 
L 171.703181 279.368241 
L 173.067003 277.287886 
L 173.391723 276.853699 
L 173.456667 291.613495 
L 173.521611 291.38237 
L 174.755545 287.402925 
L 176.054423 283.955603 
L 177.3533 281.133174 
L 178.652178 278.822364 
L 179.301617 277.82914 
L 179.366561 292.57923 
L 179.431505 292.338496 
L 179.821169 290.943566 
L 179.886112 211.471246 
L 179.951056 212.03755 
L 181.18499 221.788002 
L 182.224093 228.677692 
L 182.353981 244.160312 
L 183.587915 248.352213 
L 184.886793 251.983584 
L 186.185671 254.956698 
L 187.484549 257.390879 
L 187.549492 257.500274 
L 187.614436 272.45264 
L 187.67938 272.412169 
L 189.432865 271.459313 
L 190.082304 271.166776 
L 190.147248 285.983158 
L 190.212192 285.808056 
L 191.51107 282.649834 
L 192.809948 280.0641 
L 194.108826 277.947081 
L 194.953097 276.781448 
L 195.018041 291.541963 
L 195.082985 291.31155 
L 196.316919 287.34436 
L 197.615797 283.907653 
L 198.914675 281.093916 
L 200.213553 278.790223 
L 201.577374 276.819354 
L 203.00614 275.153774 
L 203.460747 274.696178 
L 203.525691 289.477442 
L 203.590635 289.267571 
L 204.889513 285.482246 
L 206.188391 282.383083 
L 207.487269 279.845703 
L 208.851091 277.67491 
L 209.435586 276.875358 
L 209.50053 291.634939 
L 209.565474 291.403601 
L 210.799408 287.420482 
L 212.098286 283.969977 
L 213.397164 281.144942 
L 214.696042 278.831999 
L 216.059864 276.853217 
L 217.488629 275.18095 
L 218.073124 274.59605 
L 218.138068 289.378311 
L 218.203012 289.169426 
L 219.50189 285.401891 
L 220.800768 282.317294 
L 222.099646 279.79184 
L 223.463468 277.631249 
L 224.697402 276.03131 
L 224.762346 290.79929 
L 224.82729 290.576266 
L 226.126168 286.553714 
L 227.425046 283.260327 
L 227.749765 282.53486 
L 227.814709 203.146208 
L 227.879653 203.795347 
L 229.113587 214.972037 
L 230.347521 224.214703 
L 231.581455 231.85801 
L 232.230894 235.334034 
L 232.360782 250.68485 
L 233.65966 253.893385 
L 234.958538 256.520312 
L 236.257416 258.671057 
L 237.296518 260.107358 
L 237.361462 275.033783 
L 237.426406 274.967629 
L 238.920116 273.615168 
L 239.82933 272.93192 
L 239.894274 287.730739 
L 239.959218 287.538248 
L 241.258096 284.066395 
L 242.556974 281.223883 
L 243.855852 278.89663 
L 243.98574 278.688491 
L 244.050684 293.430031 
L 244.115627 293.180831 
L 245.349562 288.890179 
L 246.64844 285.173263 
L 247.752486 282.548703 
L 247.81743 297.251833 
L 247.882374 296.964606 
L 249.116308 292.019206 
L 250.350242 287.929563 
L 251.64912 284.386777 
L 252.298559 282.864029 
L 252.363503 297.564021 
L 252.428446 297.273688 
L 253.66238 292.274804 
L 254.896315 288.140932 
L 255.675641 285.906967 
L 255.740585 300.576681 
L 255.805529 300.256371 
L 255.870473 299.939248 
L 255.935417 220.377419 
L 256.000361 220.855105 
L 257.234295 229.079759 
L 258.468229 235.881212 
L 259.247556 239.556753 
L 259.377443 254.823953 
L 260.676321 257.282196 
L 262.040143 259.385286 
L 263.403965 261.090018 
L 264.832731 262.530686 
L 266.391384 263.779883 
L 267.365543 264.421372 
L 267.430487 279.304872 
L 267.495431 279.196219 
L 268.859253 277.148448 
L 270.223074 275.488557 
L 271.521952 274.200943 
L 271.586896 288.987135 
L 271.65184 288.782142 
L 272.950718 285.08481 
L 274.249596 282.05769 
L 275.548474 279.579294 
L 275.613418 294.31197 
L 275.678362 294.053995 
L 276.197913 292.080487 
L 276.262857 212.596854 
L 276.327801 213.151957 
L 277.561735 222.709571 
L 278.795669 230.613327 
L 280.029603 237.149411 
L 281.133649 242.032669 
L 281.263537 257.250842 
L 282.627359 259.359872 
L 283.991181 261.069417 
L 285.290059 262.39555 
L 285.355003 277.299207 
L 285.419947 277.210511 
L 286.783768 275.538865 
L 288.212534 274.126157 
L 289.706244 272.94659 
L 289.771188 287.745263 
L 289.836132 287.552627 
L 291.13501 284.078168 
L 292.433888 281.233522 
L 293.018383 280.127685 
L 293.083326 294.854904 
L 293.14827 294.591526 
L 294.382204 290.056767 
L 295.681082 286.128384 
L 296.97996 282.912097 
L 298.278838 280.278823 
L 299.577716 278.122881 
L 300.941538 276.278417 
L 301.720865 275.385859 
L 301.785809 290.160261 
L 301.850753 289.943596 
L 303.149631 286.035728 
L 304.448509 282.836236 
L 305.747387 280.216713 
L 305.81233 280.098988 
L 305.877274 294.826493 
L 305.942218 294.563398 
L 307.176152 290.033506 
L 308.47503 286.10934 
L 308.79975 285.244925 
L 308.864694 299.921227 
L 308.929638 299.607439 
L 310.163572 294.204721 
L 310.748067 291.982468 
L 310.813011 212.499811 
L 310.877954 213.05588 
L 312.111889 222.630119 
L 312.371664 224.424203 
L 312.501552 239.991048 
L 313.735486 244.904402 
L 314.96942 248.967545 
L 315.943579 251.672274 
L 316.073466 266.699571 
L 318.606278 267.243944 
L 320.944259 267.588983 
L 321.009203 282.440965 
L 321.074146 282.301108 
L 322.373024 279.778588 
L 323.736846 277.620507 
L 323.80179 277.528614 
L 323.866734 292.281695 
L 323.931678 292.043921 
L 325.165612 287.950001 
L 325.360444 287.371775 
L 325.425388 207.934994 
L 325.490332 208.536484 
L 326.724266 218.892764 
L 327.178873 222.238761 
L 327.308761 237.84888 
L 328.542695 243.132917 
L 329.776629 247.5026 
L 331.075507 251.287979 
L 332.374385 254.387185 
L 333.673263 256.924601 
L 334.322702 258.015224 
L 334.387646 272.962466 
L 334.452589 272.916922 
L 336.141131 271.879399 
L 337.115289 271.39269 
L 337.180233 286.206824 
L 337.245177 286.029496 
L 338.544055 282.831134 
L 339.842933 280.212536 
L 341.141811 278.06861 
L 341.79125 277.147115 
L 341.856194 291.903992 
L 341.921138 291.669976 
L 343.155072 287.640764 
L 344.45395 284.150328 
L 345.752828 281.292601 
L 347.051706 278.952893 
L 348.415527 276.951211 
L 348.740247 276.533444 
L 348.805191 291.296427 
L 348.870135 291.068456 
L 350.104069 287.143332 
L 351.402947 283.743065 
L 352.701825 280.959163 
L 353.481152 279.537308 
L 353.546095 294.270402 
L 353.611039 294.01284 
L 354.844973 289.578217 
L 356.143851 285.736581 
L 357.442729 282.591315 
L 358.741607 280.016189 
L 359.45599 278.804641 
L 359.520934 293.545025 
L 359.585878 293.294681 
L 360.819812 288.984328 
L 362.11869 285.250346 
L 363.417568 282.19322 
L 364.716446 279.690256 
L 364.911278 279.356142 
L 364.976221 294.091039 
L 365.041165 293.835262 
L 366.275099 289.431367 
L 366.340043 289.221954 
L 366.404987 209.766764 
L 366.469931 210.350028 
L 367.703865 220.39249 
L 368.678024 227.077496 
L 368.807911 242.591802 
L 370.041845 247.05512 
L 371.340723 250.921613 
L 372.639601 254.087231 
L 373.873535 256.561369 
L 373.938479 271.523078 
L 374.003423 271.491856 
L 374.198255 271.400041 
L 374.263199 192.122182 
L 374.328143 192.881012 
L 375.562077 205.946328 
L 376.796011 216.75081 
L 377.44545 221.664475 
L 377.575338 237.285966 
L 378.809272 242.66741 
L 380.043206 247.117645 
L 380.627701 248.948121 
L 380.757589 264.029359 
L 382.44613 265.02663 
L 384.329503 265.872113 
L 384.654222 265.994679 
L 384.719166 280.862524 
L 384.78411 280.738373 
L 386.082988 278.499129 
L 387.44681 276.583398 
L 388.875576 274.964414 
L 390.369285 273.612614 
L 391.927939 272.497236 
L 392.967041 271.889251 
L 393.031985 286.698444 
L 393.096929 286.516225 
L 393.161873 207.087957 
L 393.226817 207.697875 
L 394.460751 218.199268 
L 395.694685 226.883491 
L 396.474012 231.57649 
L 396.6039 247.00171 
L 397.902778 250.877885 
L 398.487273 252.384722 
L 398.487273 252.384722 
" style="fill:none;stroke:#9a72ac;stroke-linecap:round;stroke-width:1.5;"/>
   </g>
   <g id="line2d_31">
    <path clip-path="url(#p86d9a0742e)" d="M 73.832727 268.385233 
L 398.487273 268.385233 
L 398.487273 268.385233 
" style="fill:none;stroke:#cf5044;stroke-linecap:round;stroke-width:1.5;"/>
   </g>
   <g id="patch_8">
    <path d="M 57.6 307.584 
L 57.6 186.624 
" style="fill:none;stroke:#ffffff;stroke-linecap:square;stroke-linejoin:miter;stroke-width:0.8;"/>
   </g>
   <g id="patch_9">
    <path d="M 414.72 307.584 
L 414.72 186.624 
" style="fill:none;stroke:#ffffff;stroke-linecap:square;stroke-linejoin:miter;stroke-width:0.8;"/>
   </g>
   <g id="patch_10">
    <path d="M 57.6 307.584 
L 414.72 307.584 
" style="fill:none;stroke:#ffffff;stroke-linecap:square;stroke-linejoin:miter;stroke-width:0.8;"/>
   </g>
   <g id="patch_11">
    <path d="M 57.6 186.624 
L 414.72 186.624 
" style="fill:none;stroke:#ffffff;stroke-linecap:square;stroke-linejoin:miter;stroke-width:0.8;"/>
   </g>
   <g id="legend_2">
    <g id="line2d_32">
     <path d="M 66.6 199.370875 
L 86.6 199.370875 
" style="fill:none;stroke:#9a72ac;stroke-linecap:round;stroke-width:1.5;"/>
    </g>
    <g id="line2d_33"/>
    <g id="text_27">
     <!-- $\hat{x}$ -->
     <g style="fill:#ffffff;" transform="translate(94.6 202.870875)scale(0.1 -0.1)">
      <use transform="translate(62.373047 12.015625)" xlink:href="#DejaVuSans-770"/>
      <use transform="translate(0 0.828125)" xlink:href="#DejaVuSans-Oblique-120"/>
     </g>
    </g>
    <g id="line2d_34">
     <path d="M 66.6 213.69275 
L 86.6 213.69275 
" style="fill:none;stroke:#cf5044;stroke-linecap:round;stroke-width:1.5;"/>
    </g>
    <g id="line2d_35"/>
    <g id="text_28">
     <!-- x -->
     <g style="fill:#ffffff;" transform="translate(94.6 217.19275)scale(0.1 -0.1)">
      <use xlink:href="#LiberationSans-120"/>
     </g>
    </g>
   </g>
  </g>
  <g id="text_29">
   <!-- Egomotion input/decoding -->
   <g style="fill:#ffffff;" transform="translate(161.02125 15.60825)scale(0.12 -0.12)">
    <defs>
     <path d="M 8.203125 0 
L 8.203125 68.796875 
L 60.40625 68.796875 
L 60.40625 61.1875 
L 17.53125 61.1875 
L 17.53125 39.109375 
L 57.46875 39.109375 
L 57.46875 31.59375 
L 17.53125 31.59375 
L 17.53125 7.625 
L 62.40625 7.625 
L 62.40625 0 
z
" id="LiberationSans-69"/>
     <path d="M 26.765625 -20.75 
Q 22.21875 -20.75 18.703125 -19.8125 
Q 15.1875 -18.890625 12.6875 -17.15625 
Q 10.203125 -15.4375 8.640625 -13.03125 
Q 7.078125 -10.640625 6.390625 -7.71875 
L 15.234375 -6.453125 
Q 16.109375 -10.109375 19.109375 -12.078125 
Q 22.125 -14.0625 27 -14.0625 
Q 29.984375 -14.0625 32.421875 -13.234375 
Q 34.859375 -12.40625 36.5625 -10.5625 
Q 38.28125 -8.734375 39.203125 -5.796875 
Q 40.140625 -2.875 40.140625 1.3125 
L 40.140625 9.8125 
L 40.046875 9.8125 
Q 39.0625 7.8125 37.625 5.984375 
Q 36.1875 4.15625 34.109375 2.734375 
Q 32.03125 1.3125 29.296875 0.453125 
Q 26.5625 -0.390625 23.046875 -0.390625 
Q 18.015625 -0.390625 14.421875 1.296875 
Q 10.84375 2.984375 8.5625 6.34375 
Q 6.296875 9.71875 5.25 14.71875 
Q 4.203125 19.734375 4.203125 26.3125 
Q 4.203125 32.671875 5.25 37.75 
Q 6.296875 42.828125 8.65625 46.359375 
Q 11.03125 49.90625 14.8125 51.78125 
Q 18.609375 53.65625 24.03125 53.65625 
Q 29.640625 53.65625 33.765625 51.09375 
Q 37.890625 48.53125 40.140625 43.796875 
L 40.234375 43.796875 
Q 40.234375 45.015625 40.296875 46.53125 
Q 40.375 48.046875 40.453125 49.390625 
Q 40.53125 50.734375 40.625 51.703125 
Q 40.71875 52.6875 40.828125 52.828125 
L 49.171875 52.828125 
Q 49.125 52.390625 49.078125 51.34375 
Q 49.03125 50.296875 48.96875 48.828125 
Q 48.921875 47.359375 48.890625 45.578125 
Q 48.875 43.796875 48.875 41.890625 
L 48.875 1.515625 
Q 48.875 -9.578125 43.421875 -15.15625 
Q 37.984375 -20.75 26.765625 -20.75 
z
M 40.140625 26.421875 
Q 40.140625 31.9375 38.9375 35.859375 
Q 37.75 39.796875 35.796875 42.28125 
Q 33.84375 44.78125 31.328125 45.953125 
Q 28.8125 47.125 26.171875 47.125 
Q 22.796875 47.125 20.375 45.953125 
Q 17.96875 44.78125 16.375 42.265625 
Q 14.796875 39.75 14.03125 35.8125 
Q 13.28125 31.890625 13.28125 26.421875 
Q 13.28125 20.703125 14.03125 16.8125 
Q 14.796875 12.9375 16.359375 10.546875 
Q 17.921875 8.15625 20.3125 7.125 
Q 22.703125 6.109375 26.03125 6.109375 
Q 28.65625 6.109375 31.171875 7.21875 
Q 33.6875 8.34375 35.6875 10.78125 
Q 37.703125 13.234375 38.921875 17.09375 
Q 40.140625 20.953125 40.140625 26.421875 
z
" id="LiberationSans-103"/>
     <path d="M 51.421875 26.46875 
Q 51.421875 12.59375 45.3125 5.796875 
Q 39.203125 -0.984375 27.59375 -0.984375 
Q 22.078125 -0.984375 17.71875 0.671875 
Q 13.375 2.34375 10.375 5.765625 
Q 7.375 9.1875 5.78125 14.328125 
Q 4.203125 19.484375 4.203125 26.46875 
Q 4.203125 53.8125 27.875 53.8125 
Q 34.03125 53.8125 38.5 52.09375 
Q 42.96875 50.390625 45.828125 46.96875 
Q 48.6875 43.5625 50.046875 38.421875 
Q 51.421875 33.296875 51.421875 26.46875 
z
M 42.1875 26.46875 
Q 42.1875 32.625 41.234375 36.625 
Q 40.28125 40.625 38.453125 43.015625 
Q 36.625 45.40625 33.984375 46.359375 
Q 31.34375 47.3125 28.03125 47.3125 
Q 24.65625 47.3125 21.9375 46.3125 
Q 19.234375 45.3125 17.328125 42.890625 
Q 15.4375 40.484375 14.421875 36.46875 
Q 13.421875 32.46875 13.421875 26.46875 
Q 13.421875 20.3125 14.5 16.28125 
Q 15.578125 12.25 17.453125 9.859375 
Q 19.34375 7.46875 21.90625 6.484375 
Q 24.46875 5.515625 27.484375 5.515625 
Q 30.859375 5.515625 33.59375 6.46875 
Q 36.328125 7.421875 38.234375 9.8125 
Q 40.140625 12.203125 41.15625 16.25 
Q 42.1875 20.3125 42.1875 26.46875 
z
" id="LiberationSans-111"/>
     <path d="M 27.046875 0.390625 
Q 25.046875 -0.140625 22.96875 -0.453125 
Q 20.90625 -0.78125 18.171875 -0.78125 
Q 7.625 -0.78125 7.625 11.1875 
L 7.625 46.4375 
L 1.515625 46.4375 
L 1.515625 52.828125 
L 7.953125 52.828125 
L 10.546875 64.65625 
L 16.40625 64.65625 
L 16.40625 52.828125 
L 26.171875 52.828125 
L 26.171875 46.4375 
L 16.40625 46.4375 
L 16.40625 13.09375 
Q 16.40625 9.28125 17.640625 7.734375 
Q 18.890625 6.203125 21.96875 6.203125 
Q 23.25 6.203125 24.4375 6.390625 
Q 25.640625 6.59375 27.046875 6.890625 
z
" id="LiberationSans-116"/>
     <path d="M 6.6875 64.0625 
L 6.6875 72.46875 
L 15.484375 72.46875 
L 15.484375 64.0625 
z
M 6.6875 0 
L 6.6875 52.828125 
L 15.484375 52.828125 
L 15.484375 0 
z
" id="LiberationSans-105"/>
     <path d="M 40.28125 0 
L 40.28125 33.5 
Q 40.28125 37.359375 39.71875 39.9375 
Q 39.15625 42.53125 37.890625 44.109375 
Q 36.625 45.703125 34.546875 46.359375 
Q 32.46875 47.015625 29.390625 47.015625 
Q 26.265625 47.015625 23.75 45.921875 
Q 21.234375 44.828125 19.453125 42.75 
Q 17.671875 40.671875 16.6875 37.625 
Q 15.71875 34.578125 15.71875 30.609375 
L 15.71875 0 
L 6.9375 0 
L 6.9375 41.546875 
Q 6.9375 43.21875 6.90625 45.046875 
Q 6.890625 46.875 6.828125 48.5 
Q 6.78125 50.140625 6.734375 51.3125 
Q 6.6875 52.484375 6.640625 52.828125 
L 14.9375 52.828125 
Q 14.984375 52.59375 15.03125 51.515625 
Q 15.09375 50.4375 15.15625 49.046875 
Q 15.234375 47.65625 15.28125 46.21875 
Q 15.328125 44.78125 15.328125 43.796875 
L 15.484375 43.796875 
Q 16.75 46.09375 18.265625 47.953125 
Q 19.78125 49.8125 21.78125 51.09375 
Q 23.78125 52.390625 26.359375 53.09375 
Q 28.953125 53.8125 32.375 53.8125 
Q 36.765625 53.8125 39.9375 52.734375 
Q 43.109375 51.65625 45.15625 49.40625 
Q 47.21875 47.171875 48.171875 43.625 
Q 49.125 40.09375 49.125 35.203125 
L 49.125 0 
z
" id="LiberationSans-110"/>
     <path d="M 51.421875 26.65625 
Q 51.421875 20.65625 50.4375 15.578125 
Q 49.46875 10.5 47.1875 6.828125 
Q 44.921875 3.171875 41.1875 1.09375 
Q 37.453125 -0.984375 31.984375 -0.984375 
Q 26.3125 -0.984375 22.0625 1.171875 
Q 17.828125 3.328125 15.578125 8.203125 
L 15.328125 8.203125 
Q 15.375 8.109375 15.40625 7.328125 
Q 15.4375 6.546875 15.453125 5.375 
Q 15.484375 4.203125 15.5 2.75 
Q 15.53125 1.3125 15.53125 -0.09375 
L 15.53125 -20.75 
L 6.734375 -20.75 
L 6.734375 42.046875 
Q 6.734375 43.953125 6.703125 45.703125 
Q 6.6875 47.46875 6.640625 48.90625 
Q 6.59375 50.34375 6.546875 51.359375 
Q 6.5 52.390625 6.453125 52.828125 
L 14.9375 52.828125 
Q 14.984375 52.6875 15.0625 51.796875 
Q 15.140625 50.921875 15.203125 49.671875 
Q 15.28125 48.4375 15.359375 47.015625 
Q 15.4375 45.609375 15.4375 44.34375 
L 15.625 44.34375 
Q 16.84375 46.875 18.40625 48.65625 
Q 19.96875 50.4375 21.96875 51.578125 
Q 23.96875 52.734375 26.4375 53.25 
Q 28.90625 53.765625 31.984375 53.765625 
Q 37.453125 53.765625 41.1875 51.8125 
Q 44.921875 49.859375 47.1875 46.3125 
Q 49.46875 42.78125 50.4375 37.765625 
Q 51.421875 32.765625 51.421875 26.65625 
z
M 42.1875 26.46875 
Q 42.1875 31.34375 41.59375 35.15625 
Q 41.015625 38.96875 39.578125 41.59375 
Q 38.140625 44.234375 35.734375 45.59375 
Q 33.34375 46.96875 29.734375 46.96875 
Q 26.8125 46.96875 24.21875 46.140625 
Q 21.625 45.3125 19.703125 42.96875 
Q 17.78125 40.625 16.65625 36.5 
Q 15.53125 32.375 15.53125 25.78125 
Q 15.53125 20.171875 16.453125 16.28125 
Q 17.390625 12.40625 19.171875 10.015625 
Q 20.953125 7.625 23.578125 6.5625 
Q 26.21875 5.515625 29.640625 5.515625 
Q 33.296875 5.515625 35.71875 6.921875 
Q 38.140625 8.34375 39.578125 11.03125 
Q 41.015625 13.71875 41.59375 17.59375 
Q 42.1875 21.484375 42.1875 26.46875 
z
" id="LiberationSans-112"/>
     <path d="M 15.328125 52.828125 
L 15.328125 19.34375 
Q 15.328125 15.484375 15.890625 12.890625 
Q 16.453125 10.296875 17.71875 8.703125 
Q 19 7.125 21.0625 6.46875 
Q 23.140625 5.8125 26.21875 5.8125 
Q 29.34375 5.8125 31.859375 6.90625 
Q 34.375 8.015625 36.15625 10.078125 
Q 37.9375 12.15625 38.90625 15.203125 
Q 39.890625 18.265625 39.890625 22.21875 
L 39.890625 52.828125 
L 48.6875 52.828125 
L 48.6875 11.28125 
Q 48.6875 9.625 48.703125 7.78125 
Q 48.734375 5.953125 48.78125 4.3125 
Q 48.828125 2.6875 48.875 1.515625 
Q 48.921875 0.34375 48.96875 0 
L 40.671875 0 
Q 40.625 0.25 40.578125 1.3125 
Q 40.53125 2.390625 40.453125 3.78125 
Q 40.375 5.171875 40.328125 6.609375 
Q 40.28125 8.0625 40.28125 9.03125 
L 40.140625 9.03125 
Q 38.875 6.734375 37.359375 4.875 
Q 35.84375 3.03125 33.84375 1.734375 
Q 31.84375 0.4375 29.25 -0.265625 
Q 26.65625 -0.984375 23.25 -0.984375 
Q 18.84375 -0.984375 15.671875 0.09375 
Q 12.5 1.171875 10.453125 3.421875 
Q 8.40625 5.671875 7.453125 9.1875 
Q 6.5 12.703125 6.5 17.625 
L 6.5 52.828125 
z
" id="LiberationSans-117"/>
     <path d="M 0 -0.984375 
L 20.0625 72.46875 
L 27.78125 72.46875 
L 7.90625 -0.984375 
z
" id="LiberationSans-47"/>
     <path d="M 40.09375 8.5 
Q 37.640625 3.421875 33.609375 1.21875 
Q 29.59375 -0.984375 23.640625 -0.984375 
Q 13.625 -0.984375 8.90625 5.75 
Q 4.203125 12.5 4.203125 26.171875 
Q 4.203125 53.8125 23.640625 53.8125 
Q 29.640625 53.8125 33.640625 51.609375 
Q 37.640625 49.421875 40.09375 44.625 
L 40.1875 44.625 
Q 40.1875 45.125 40.15625 46.171875 
Q 40.140625 47.21875 40.109375 48.359375 
Q 40.09375 49.515625 40.09375 50.53125 
Q 40.09375 51.5625 40.09375 52 
L 40.09375 72.46875 
L 48.875 72.46875 
L 48.875 10.890625 
Q 48.875 8.984375 48.890625 7.21875 
Q 48.921875 5.46875 48.96875 4 
Q 49.03125 2.546875 49.078125 1.484375 
Q 49.125 0.4375 49.171875 0 
L 40.765625 0 
Q 40.671875 0.484375 40.59375 1.390625 
Q 40.53125 2.296875 40.453125 3.46875 
Q 40.375 4.640625 40.328125 5.9375 
Q 40.28125 7.234375 40.28125 8.5 
z
M 13.421875 26.46875 
Q 13.421875 21 14.109375 17.09375 
Q 14.796875 13.1875 16.3125 10.671875 
Q 17.828125 8.15625 20.171875 6.984375 
Q 22.515625 5.8125 25.875 5.8125 
Q 29.34375 5.8125 32 6.9375 
Q 34.671875 8.0625 36.453125 10.578125 
Q 38.234375 13.09375 39.15625 17.140625 
Q 40.09375 21.1875 40.09375 27.046875 
Q 40.09375 32.671875 39.15625 36.546875 
Q 38.234375 40.4375 36.421875 42.828125 
Q 34.625 45.21875 32 46.265625 
Q 29.390625 47.3125 25.984375 47.3125 
Q 22.75 47.3125 20.40625 46.1875 
Q 18.0625 45.0625 16.5 42.578125 
Q 14.9375 40.09375 14.171875 36.109375 
Q 13.421875 32.125 13.421875 26.46875 
z
" id="LiberationSans-100"/>
     <path d="M 13.484375 24.5625 
Q 13.484375 20.40625 14.328125 16.90625 
Q 15.1875 13.421875 16.96875 10.90625 
Q 18.75 8.40625 21.53125 7 
Q 24.3125 5.609375 28.21875 5.609375 
Q 33.9375 5.609375 37.375 7.90625 
Q 40.828125 10.203125 42.046875 13.71875 
L 49.75 11.53125 
Q 48.921875 9.328125 47.4375 7.109375 
Q 45.953125 4.890625 43.453125 3.09375 
Q 40.96875 1.3125 37.234375 0.15625 
Q 33.5 -0.984375 28.21875 -0.984375 
Q 16.5 -0.984375 10.375 6 
Q 4.25 12.984375 4.25 26.765625 
Q 4.25 34.1875 6.09375 39.328125 
Q 7.953125 44.484375 11.171875 47.703125 
Q 14.40625 50.921875 18.703125 52.359375 
Q 23 53.8125 27.875 53.8125 
Q 34.515625 53.8125 38.984375 51.65625 
Q 43.453125 49.515625 46.15625 45.71875 
Q 48.875 41.9375 50.015625 36.8125 
Q 51.171875 31.6875 51.171875 25.734375 
L 51.171875 24.5625 
z
M 42.09375 31.296875 
Q 41.359375 39.65625 37.84375 43.484375 
Q 34.328125 47.3125 27.734375 47.3125 
Q 25.53125 47.3125 23.109375 46.609375 
Q 20.703125 45.90625 18.65625 44.09375 
Q 16.609375 42.28125 15.1875 39.171875 
Q 13.765625 36.078125 13.578125 31.296875 
z
" id="LiberationSans-101"/>
     <path d="M 13.421875 26.65625 
Q 13.421875 22.125 14.078125 18.3125 
Q 14.75 14.5 16.3125 11.734375 
Q 17.875 8.984375 20.4375 7.46875 
Q 23 5.953125 26.765625 5.953125 
Q 31.453125 5.953125 34.59375 8.484375 
Q 37.75 11.03125 38.484375 16.3125 
L 47.359375 15.71875 
Q 46.921875 12.453125 45.453125 9.421875 
Q 44 6.390625 41.484375 4.09375 
Q 38.96875 1.8125 35.34375 0.40625 
Q 31.734375 -0.984375 27 -0.984375 
Q 20.796875 -0.984375 16.453125 1.109375 
Q 12.109375 3.21875 9.390625 6.90625 
Q 6.6875 10.59375 5.46875 15.59375 
Q 4.25 20.609375 4.25 26.46875 
Q 4.25 31.78125 5.125 35.859375 
Q 6 39.9375 7.59375 42.984375 
Q 9.1875 46.046875 11.328125 48.125 
Q 13.484375 50.203125 15.984375 51.4375 
Q 18.5 52.6875 21.28125 53.25 
Q 24.078125 53.8125 26.90625 53.8125 
Q 31.34375 53.8125 34.8125 52.59375 
Q 38.28125 51.375 40.796875 49.25 
Q 43.3125 47.125 44.875 44.234375 
Q 46.4375 41.359375 47.078125 38.03125 
L 38.03125 37.359375 
Q 37.359375 41.75 34.5625 44.328125 
Q 31.78125 46.921875 26.65625 46.921875 
Q 22.90625 46.921875 20.390625 45.671875 
Q 17.875 44.4375 16.3125 41.921875 
Q 14.75 39.40625 14.078125 35.59375 
Q 13.421875 31.78125 13.421875 26.65625 
z
" id="LiberationSans-99"/>
    </defs>
    <use xlink:href="#LiberationSans-69"/>
    <use x="66.699219" xlink:href="#LiberationSans-103"/>
    <use x="122.314453" xlink:href="#LiberationSans-111"/>
    <use x="177.929688" xlink:href="#LiberationSans-109"/>
    <use x="261.230469" xlink:href="#LiberationSans-111"/>
    <use x="316.845703" xlink:href="#LiberationSans-116"/>
    <use x="344.628906" xlink:href="#LiberationSans-105"/>
    <use x="366.845703" xlink:href="#LiberationSans-111"/>
    <use x="422.460938" xlink:href="#LiberationSans-110"/>
    <use x="478.076172" xlink:href="#LiberationSans-32"/>
    <use x="505.859375" xlink:href="#LiberationSans-105"/>
    <use x="528.076172" xlink:href="#LiberationSans-110"/>
    <use x="583.691406" xlink:href="#LiberationSans-112"/>
    <use x="639.306641" xlink:href="#LiberationSans-117"/>
    <use x="694.921875" xlink:href="#LiberationSans-116"/>
    <use x="722.705078" xlink:href="#LiberationSans-47"/>
    <use x="750.488281" xlink:href="#LiberationSans-100"/>
    <use x="806.103516" xlink:href="#LiberationSans-101"/>
    <use x="861.71875" xlink:href="#LiberationSans-99"/>
    <use x="911.71875" xlink:href="#LiberationSans-111"/>
    <use x="967.333984" xlink:href="#LiberationSans-100"/>
    <use x="1022.949219" xlink:href="#LiberationSans-105"/>
    <use x="1045.166016" xlink:href="#LiberationSans-110"/>
    <use x="1100.78125" xlink:href="#LiberationSans-103"/>
   </g>
  </g>
 </g>
 <defs>
  <clipPath id="pefbd871879">
   <rect height="120.96" width="357.12" x="57.6" y="41.472"/>
  </clipPath>
  <clipPath id="p86d9a0742e">
   <rect height="120.96" width="357.12" x="57.6" y="186.624"/>
  </clipPath>
 </defs>
</svg>
