<?xml version="1.0" encoding="utf-8" standalone="no"?>
<!DOCTYPE svg PUBLIC "-//W3C//DTD SVG 1.1//EN"
  "http://www.w3.org/Graphics/SVG/1.1/DTD/svg11.dtd">
<!-- Created with matplotlib (https://matplotlib.org/) -->
<svg height="345.6pt" version="1.1" viewBox="0 0 460.8 345.6" width="460.8pt" xmlns="http://www.w3.org/2000/svg" xmlns:xlink="http://www.w3.org/1999/xlink">
 <metadata>
  <rdf:RDF xmlns:cc="http://creativecommons.org/ns#" xmlns:dc="http://purl.org/dc/elements/1.1/" xmlns:rdf="http://www.w3.org/1999/02/22-rdf-syntax-ns#">
   <cc:Work>
    <dc:type rdf:resource="http://purl.org/dc/dcmitype/StillImage"/>
    <dc:date>2022-05-05T12:17:07.898344</dc:date>
    <dc:format>image/svg+xml</dc:format>
    <dc:creator>
     <cc:Agent>
      <dc:title>Matplotlib v3.3.4, https://matplotlib.org/</dc:title>
     </cc:Agent>
    </dc:creator>
   </cc:Work>
  </rdf:RDF>
 </metadata>
 <defs>
  <style type="text/css">*{stroke-linecap:butt;stroke-linejoin:round;}</style>
 </defs>
 <g id="figure_1">
  <g id="patch_1">
   <path d="M 0 345.6 
L 460.8 345.6 
L 460.8 0 
L 0 0 
z
" style="fill:#262626;"/>
  </g>
  <g id="axes_1">
   <g id="patch_2">
    <path d="M 57.6 119.740235 
L 414.72 119.740235 
L 414.72 41.472 
L 57.6 41.472 
z
" style="fill:#1a1a1a;"/>
   </g>
   <g id="matplotlib.axis_1">
    <g id="xtick_1">
     <g id="line2d_1">
      <defs>
       <path d="M 0 0 
L 0 3.5 
" id="m79c3c4d327" style="stroke:#ffffff;stroke-width:0.8;"/>
      </defs>
      <g>
       <use style="fill:#ffffff;stroke:#ffffff;stroke-width:0.8;" x="73.832727" xlink:href="#m79c3c4d327" y="119.740235"/>
      </g>
     </g>
     <g id="text_1">
      <!-- 0 -->
      <g style="fill:#ffffff;" transform="translate(71.052259 133.98711)scale(0.1 -0.1)">
       <defs>
        <path d="M 51.703125 34.421875 
Q 51.703125 24.515625 49.828125 17.75 
Q 47.953125 10.984375 44.703125 6.8125 
Q 41.453125 2.640625 37.0625 0.828125 
Q 32.671875 -0.984375 27.6875 -0.984375 
Q 22.65625 -0.984375 18.3125 0.828125 
Q 13.96875 2.640625 10.765625 6.78125 
Q 7.5625 10.9375 5.734375 17.703125 
Q 3.90625 24.46875 3.90625 34.421875 
Q 3.90625 44.828125 5.734375 51.640625 
Q 7.5625 58.453125 10.78125 62.5 
Q 14.015625 66.546875 18.40625 68.1875 
Q 22.796875 69.828125 27.984375 69.828125 
Q 32.90625 69.828125 37.21875 68.1875 
Q 41.546875 66.546875 44.765625 62.5 
Q 48 58.453125 49.84375 51.640625 
Q 51.703125 44.828125 51.703125 34.421875 
z
M 42.78125 34.421875 
Q 42.78125 42.625 41.796875 48.0625 
Q 40.828125 53.515625 38.921875 56.765625 
Q 37.015625 60.015625 34.25 61.359375 
Q 31.5 62.703125 27.984375 62.703125 
Q 24.265625 62.703125 21.4375 61.328125 
Q 18.609375 59.96875 16.671875 56.71875 
Q 14.75 53.46875 13.765625 48.015625 
Q 12.796875 42.578125 12.796875 34.421875 
Q 12.796875 26.515625 13.796875 21.09375 
Q 14.796875 15.671875 16.71875 12.375 
Q 18.65625 9.078125 21.4375 7.640625 
Q 24.21875 6.203125 27.78125 6.203125 
Q 31.25 6.203125 34.03125 7.640625 
Q 36.8125 9.078125 38.734375 12.375 
Q 40.671875 15.671875 41.71875 21.09375 
Q 42.78125 26.515625 42.78125 34.421875 
z
" id="LiberationSans-48"/>
       </defs>
       <use xlink:href="#LiberationSans-48"/>
      </g>
     </g>
    </g>
    <g id="xtick_2">
     <g id="line2d_2">
      <g>
       <use style="fill:#ffffff;stroke:#ffffff;stroke-width:0.8;" x="138.776625" xlink:href="#m79c3c4d327" y="119.740235"/>
      </g>
     </g>
     <g id="text_2">
      <!-- 200 -->
      <g style="fill:#ffffff;" transform="translate(130.435219 133.98711)scale(0.1 -0.1)">
       <defs>
        <path d="M 5.03125 0 
L 5.03125 6.203125 
Q 7.515625 11.921875 11.109375 16.28125 
Q 14.703125 20.65625 18.65625 24.1875 
Q 22.609375 27.734375 26.484375 30.765625 
Q 30.375 33.796875 33.5 36.8125 
Q 36.625 39.84375 38.546875 43.15625 
Q 40.484375 46.484375 40.484375 50.6875 
Q 40.484375 53.609375 39.59375 55.828125 
Q 38.71875 58.0625 37.0625 59.5625 
Q 35.40625 61.078125 33.078125 61.828125 
Q 30.765625 62.59375 27.9375 62.59375 
Q 25.296875 62.59375 22.96875 61.859375 
Q 20.65625 61.140625 18.84375 59.671875 
Q 17.046875 58.203125 15.890625 56.03125 
Q 14.75 53.859375 14.40625 50.984375 
L 5.421875 51.8125 
Q 5.859375 55.515625 7.46875 58.78125 
Q 9.078125 62.0625 11.90625 64.53125 
Q 14.75 67 18.71875 68.40625 
Q 22.703125 69.828125 27.9375 69.828125 
Q 33.0625 69.828125 37.0625 68.609375 
Q 41.0625 67.390625 43.8125 64.984375 
Q 46.578125 62.59375 48.046875 59.078125 
Q 49.515625 55.5625 49.515625 50.984375 
Q 49.515625 47.515625 48.265625 44.390625 
Q 47.015625 41.265625 44.9375 38.421875 
Q 42.875 35.59375 40.140625 32.953125 
Q 37.40625 30.328125 34.421875 27.8125 
Q 31.453125 25.296875 28.421875 22.828125 
Q 25.390625 20.359375 22.71875 17.859375 
Q 20.0625 15.375 17.96875 12.8125 
Q 15.875 10.25 14.703125 7.46875 
L 50.59375 7.46875 
L 50.59375 0 
z
" id="LiberationSans-50"/>
       </defs>
       <use xlink:href="#LiberationSans-50"/>
       <use x="55.615234" xlink:href="#LiberationSans-48"/>
       <use x="111.230469" xlink:href="#LiberationSans-48"/>
      </g>
     </g>
    </g>
    <g id="xtick_3">
     <g id="line2d_3">
      <g>
       <use style="fill:#ffffff;stroke:#ffffff;stroke-width:0.8;" x="203.720523" xlink:href="#m79c3c4d327" y="119.740235"/>
      </g>
     </g>
     <g id="text_3">
      <!-- 400 -->
      <g style="fill:#ffffff;" transform="translate(195.379117 133.98711)scale(0.1 -0.1)">
       <defs>
        <path d="M 43.015625 15.578125 
L 43.015625 0 
L 34.71875 0 
L 34.71875 15.578125 
L 2.296875 15.578125 
L 2.296875 22.40625 
L 33.796875 68.796875 
L 43.015625 68.796875 
L 43.015625 22.515625 
L 52.6875 22.515625 
L 52.6875 15.578125 
z
M 34.71875 58.890625 
Q 34.625 58.640625 34.234375 57.9375 
Q 33.84375 57.234375 33.34375 56.34375 
Q 32.859375 55.46875 32.34375 54.5625 
Q 31.84375 53.65625 31.453125 53.078125 
L 13.8125 27.09375 
Q 13.578125 26.703125 13.109375 26.0625 
Q 12.640625 25.4375 12.15625 24.78125 
Q 11.671875 24.125 11.171875 23.484375 
Q 10.6875 22.859375 10.40625 22.515625 
L 34.71875 22.515625 
z
" id="LiberationSans-52"/>
       </defs>
       <use xlink:href="#LiberationSans-52"/>
       <use x="55.615234" xlink:href="#LiberationSans-48"/>
       <use x="111.230469" xlink:href="#LiberationSans-48"/>
      </g>
     </g>
    </g>
    <g id="xtick_4">
     <g id="line2d_4">
      <g>
       <use style="fill:#ffffff;stroke:#ffffff;stroke-width:0.8;" x="268.664421" xlink:href="#m79c3c4d327" y="119.740235"/>
      </g>
     </g>
     <g id="text_4">
      <!-- 600 -->
      <g style="fill:#ffffff;" transform="translate(260.323015 133.98711)scale(0.1 -0.1)">
       <defs>
        <path d="M 51.21875 22.515625 
Q 51.21875 17.328125 49.78125 13 
Q 48.34375 8.6875 45.53125 5.578125 
Q 42.71875 2.484375 38.5625 0.75 
Q 34.421875 -0.984375 29 -0.984375 
Q 23 -0.984375 18.5 1.3125 
Q 14.015625 3.609375 11.03125 7.921875 
Q 8.0625 12.25 6.5625 18.53125 
Q 5.078125 24.8125 5.078125 32.8125 
Q 5.078125 42 6.765625 48.921875 
Q 8.453125 55.859375 11.625 60.5 
Q 14.796875 65.140625 19.359375 67.484375 
Q 23.921875 69.828125 29.6875 69.828125 
Q 33.203125 69.828125 36.28125 69.09375 
Q 39.359375 68.359375 41.875 66.71875 
Q 44.390625 65.09375 46.28125 62.40625 
Q 48.1875 59.71875 49.3125 55.8125 
L 40.921875 54.296875 
Q 39.546875 58.734375 36.546875 60.71875 
Q 33.546875 62.703125 29.59375 62.703125 
Q 25.984375 62.703125 23.046875 60.984375 
Q 20.125 59.28125 18.0625 55.875 
Q 16.015625 52.484375 14.90625 47.359375 
Q 13.8125 42.234375 13.8125 35.40625 
Q 16.21875 39.84375 20.5625 42.15625 
Q 24.90625 44.484375 30.515625 44.484375 
Q 35.203125 44.484375 39.015625 42.96875 
Q 42.828125 41.453125 45.53125 38.59375 
Q 48.25 35.75 49.734375 31.671875 
Q 51.21875 27.59375 51.21875 22.515625 
z
M 42.28125 22.125 
Q 42.28125 25.6875 41.40625 28.5625 
Q 40.53125 31.453125 38.765625 33.46875 
Q 37.015625 35.5 34.421875 36.59375 
Q 31.84375 37.703125 28.421875 37.703125 
Q 26.03125 37.703125 23.578125 36.984375 
Q 21.140625 36.28125 19.15625 34.6875 
Q 17.1875 33.109375 15.9375 30.515625 
Q 14.703125 27.9375 14.703125 24.21875 
Q 14.703125 20.40625 15.671875 17.109375 
Q 16.65625 13.8125 18.484375 11.375 
Q 20.3125 8.9375 22.890625 7.515625 
Q 25.484375 6.109375 28.71875 6.109375 
Q 31.890625 6.109375 34.40625 7.203125 
Q 36.921875 8.296875 38.671875 10.375 
Q 40.4375 12.453125 41.359375 15.421875 
Q 42.28125 18.40625 42.28125 22.125 
z
" id="LiberationSans-54"/>
       </defs>
       <use xlink:href="#LiberationSans-54"/>
       <use x="55.615234" xlink:href="#LiberationSans-48"/>
       <use x="111.230469" xlink:href="#LiberationSans-48"/>
      </g>
     </g>
    </g>
    <g id="xtick_5">
     <g id="line2d_5">
      <g>
       <use style="fill:#ffffff;stroke:#ffffff;stroke-width:0.8;" x="333.608319" xlink:href="#m79c3c4d327" y="119.740235"/>
      </g>
     </g>
     <g id="text_5">
      <!-- 800 -->
      <g style="fill:#ffffff;" transform="translate(325.266913 133.98711)scale(0.1 -0.1)">
       <defs>
        <path d="M 51.265625 19.1875 
Q 51.265625 14.796875 49.875 11.109375 
Q 48.484375 7.421875 45.625 4.734375 
Q 42.78125 2.046875 38.328125 0.53125 
Q 33.890625 -0.984375 27.828125 -0.984375 
Q 21.78125 -0.984375 17.359375 0.53125 
Q 12.9375 2.046875 10.03125 4.703125 
Q 7.125 7.375 5.734375 11.0625 
Q 4.34375 14.75 4.34375 19.09375 
Q 4.34375 22.859375 5.484375 25.78125 
Q 6.640625 28.71875 8.5625 30.828125 
Q 10.5 32.953125 12.96875 34.25 
Q 15.4375 35.546875 18.0625 35.984375 
L 18.0625 36.1875 
Q 15.1875 36.859375 12.90625 38.375 
Q 10.640625 39.890625 9.09375 42.015625 
Q 7.5625 44.140625 6.75 46.71875 
Q 5.953125 49.3125 5.953125 52.203125 
Q 5.953125 55.8125 7.34375 59 
Q 8.734375 62.203125 11.46875 64.625 
Q 14.203125 67.046875 18.25 68.4375 
Q 22.3125 69.828125 27.640625 69.828125 
Q 33.25 69.828125 37.375 68.40625 
Q 41.5 67 44.203125 64.578125 
Q 46.921875 62.15625 48.234375 58.9375 
Q 49.5625 55.71875 49.5625 52.09375 
Q 49.5625 49.265625 48.75 46.671875 
Q 47.953125 44.09375 46.40625 41.96875 
Q 44.875 39.84375 42.59375 38.34375 
Q 40.328125 36.859375 37.359375 36.28125 
L 37.359375 36.078125 
Q 40.328125 35.59375 42.859375 34.296875 
Q 45.40625 33.015625 47.265625 30.890625 
Q 49.125 28.765625 50.1875 25.828125 
Q 51.265625 22.90625 51.265625 19.1875 
z
M 40.4375 51.609375 
Q 40.4375 54.203125 39.765625 56.34375 
Q 39.109375 58.5 37.59375 60.03125 
Q 36.078125 61.578125 33.640625 62.421875 
Q 31.203125 63.28125 27.640625 63.28125 
Q 24.171875 63.28125 21.78125 62.421875 
Q 19.390625 61.578125 17.84375 60.03125 
Q 16.3125 58.5 15.625 56.34375 
Q 14.9375 54.203125 14.9375 51.609375 
Q 14.9375 49.5625 15.46875 47.40625 
Q 16.015625 45.265625 17.421875 43.5 
Q 18.84375 41.75 21.328125 40.625 
Q 23.828125 39.5 27.734375 39.5 
Q 31.890625 39.5 34.40625 40.625 
Q 36.921875 41.75 38.25 43.5 
Q 39.59375 45.265625 40.015625 47.40625 
Q 40.4375 49.5625 40.4375 51.609375 
z
M 42.140625 20.015625 
Q 42.140625 22.515625 41.453125 24.828125 
Q 40.765625 27.15625 39.109375 28.9375 
Q 37.453125 30.71875 34.640625 31.8125 
Q 31.84375 32.90625 27.640625 32.90625 
Q 23.78125 32.90625 21.0625 31.8125 
Q 18.359375 30.71875 16.671875 28.90625 
Q 14.984375 27.09375 14.203125 24.71875 
Q 13.421875 22.359375 13.421875 19.828125 
Q 13.421875 16.65625 14.203125 14.03125 
Q 14.984375 11.421875 16.6875 9.546875 
Q 18.40625 7.671875 21.1875 6.640625 
Q 23.96875 5.609375 27.9375 5.609375 
Q 31.9375 5.609375 34.671875 6.640625 
Q 37.40625 7.671875 39.0625 9.546875 
Q 40.71875 11.421875 41.421875 14.078125 
Q 42.140625 16.75 42.140625 20.015625 
z
" id="LiberationSans-56"/>
       </defs>
       <use xlink:href="#LiberationSans-56"/>
       <use x="55.615234" xlink:href="#LiberationSans-48"/>
       <use x="111.230469" xlink:href="#LiberationSans-48"/>
      </g>
     </g>
    </g>
    <g id="xtick_6">
     <g id="line2d_6">
      <g>
       <use style="fill:#ffffff;stroke:#ffffff;stroke-width:0.8;" x="398.552217" xlink:href="#m79c3c4d327" y="119.740235"/>
      </g>
     </g>
     <g id="text_6">
      <!-- 1000 -->
      <g style="fill:#ffffff;" transform="translate(387.430342 133.98711)scale(0.1 -0.1)">
       <defs>
        <path d="M 7.625 0 
L 7.625 7.46875 
L 25.140625 7.46875 
L 25.140625 60.40625 
L 9.625 49.3125 
L 9.625 57.625 
L 25.875 68.796875 
L 33.984375 68.796875 
L 33.984375 7.46875 
L 50.734375 7.46875 
L 50.734375 0 
z
" id="LiberationSans-49"/>
       </defs>
       <use xlink:href="#LiberationSans-49"/>
       <use x="55.615234" xlink:href="#LiberationSans-48"/>
       <use x="111.230469" xlink:href="#LiberationSans-48"/>
       <use x="166.845703" xlink:href="#LiberationSans-48"/>
      </g>
     </g>
    </g>
   </g>
   <g id="matplotlib.axis_2">
    <g id="ytick_1">
     <g id="line2d_7">
      <defs>
       <path d="M 0 0 
L -3.5 0 
" id="m08a6ad6ca7" style="stroke:#ffffff;stroke-width:0.8;"/>
      </defs>
      <g>
       <use style="fill:#ffffff;stroke:#ffffff;stroke-width:0.8;" x="57.6" xlink:href="#m08a6ad6ca7" y="95.518908"/>
      </g>
     </g>
     <g id="text_7">
      <!-- 1 -->
      <g style="fill:#ffffff;" transform="translate(45.039062 99.142345)scale(0.1 -0.1)">
       <use xlink:href="#LiberationSans-49"/>
      </g>
     </g>
    </g>
    <g id="ytick_2">
     <g id="line2d_8">
      <g>
       <use style="fill:#ffffff;stroke:#ffffff;stroke-width:0.8;" x="57.6" xlink:href="#m08a6ad6ca7" y="59.052113"/>
      </g>
     </g>
     <g id="text_8">
      <!-- 2 -->
      <g style="fill:#ffffff;" transform="translate(45.039062 62.67555)scale(0.1 -0.1)">
       <use xlink:href="#LiberationSans-50"/>
      </g>
     </g>
    </g>
    <g id="text_9">
     <!-- $z$ -->
     <g style="fill:#ffffff;" transform="translate(38.964062 83.256118)rotate(-90)scale(0.1 -0.1)">
      <defs>
       <path d="M 11.625 54.6875 
L 54.296875 54.6875 
L 52.6875 46.484375 
L 11.53125 7.171875 
L 45.515625 7.171875 
L 44.09375 0 
L -0.296875 0 
L 1.3125 8.203125 
L 42.484375 47.515625 
L 10.203125 47.515625 
z
" id="DejaVuSans-Oblique-122"/>
      </defs>
      <use transform="translate(0 0.3125)" xlink:href="#DejaVuSans-Oblique-122"/>
     </g>
    </g>
   </g>
   <g id="line2d_9">
    <path clip-path="url(#p62e6bd3a83)" d="M 73.832727 80.195148 
L 75.066661 89.15703 
L 76.300595 96.568141 
L 77.534529 102.696827 
L 78.768464 107.764999 
L 79.028239 108.714706 
L 79.093183 72.479462 
L 79.158127 73.071559 
L 80.392061 83.266113 
L 81.625995 91.696593 
L 82.859929 98.668256 
L 83.509368 101.83883 
L 83.574312 65.672001 
L 83.639256 66.331834 
L 84.87319 77.692636 
L 86.107124 87.087555 
L 87.341058 94.85677 
L 87.925553 98.052413 
L 87.990497 61.92326 
L 88.055441 62.620393 
L 89.289375 74.623426 
L 90.523309 84.549444 
L 91.757243 92.757855 
L 91.822187 93.148179 
L 91.887131 57.067824 
L 91.952075 57.813269 
L 93.186009 70.648131 
L 94.419943 81.262038 
L 94.939494 85.161859 
L 95.004438 49.160969 
L 95.069382 49.985088 
L 96.303316 64.174546 
L 97.53725 75.908647 
L 98.771184 85.612269 
L 99.290735 89.177628 
L 99.355679 53.136781 
L 99.420623 53.921341 
L 100.654557 67.429666 
L 101.888491 78.600498 
L 103.122425 87.83832 
L 104.356359 95.477622 
L 105.590293 101.795012 
L 106.824227 107.019235 
L 107.928274 110.922372 
L 107.993218 74.665161 
L 108.058161 75.23551 
L 109.292096 85.055612 
L 110.52603 93.176436 
L 111.759964 99.892025 
L 112.474347 103.235091 
L 112.53929 67.054369 
L 112.604234 67.700447 
L 113.838168 78.824423 
L 115.072102 88.023497 
L 116.306036 95.630755 
L 116.37098 95.992493 
L 116.435924 59.883836 
L 116.500868 60.601262 
L 117.734802 72.953687 
L 118.968736 83.168638 
L 120.20267 91.615986 
L 120.397502 92.809091 
L 120.462446 56.73211 
L 120.52739 57.480896 
L 121.761324 70.373272 
L 122.995258 81.03474 
L 124.099304 89.000168 
L 124.164248 52.961087 
L 124.229192 53.747395 
L 125.463126 67.285819 
L 126.69706 78.481543 
L 127.930994 87.739949 
L 129.164928 95.396273 
L 130.398862 101.727739 
L 131.632796 106.963604 
L 132.86673 111.293449 
L 133.061562 111.904998 
L 133.126506 75.638009 
L 133.19145 76.198678 
L 134.425384 85.852113 
L 135.659318 93.83511 
L 136.893252 100.436721 
L 137.412803 102.862322 
L 137.477747 66.68531 
L 137.542691 67.335059 
L 138.776625 78.522263 
L 139.620896 85.0397 
L 139.68584 49.040026 
L 139.750784 49.865349 
L 140.984718 64.075526 
L 142.218652 75.826762 
L 143.452586 85.544554 
L 144.68652 93.58077 
L 145.920454 100.226393 
L 147.154388 105.722052 
L 148.388322 110.266737 
L 149.6872 114.203717 
L 150.336639 115.895897 
L 150.401583 79.589198 
L 150.466527 80.110552 
L 151.700461 89.087073 
L 152.934395 96.510289 
L 154.168329 102.648985 
L 155.402263 107.725436 
L 155.85687 109.36558 
L 155.921814 73.123859 
L 155.986758 73.709544 
L 157.220692 83.793701 
L 158.454626 92.132887 
L 159.68856 99.029053 
L 160.792607 104.181337 
L 160.85755 67.9912 
L 160.922494 68.627956 
L 162.156428 79.591435 
L 163.390362 88.657785 
L 164.624296 96.155285 
L 165.858231 102.355412 
L 166.442726 104.905656 
L 166.50767 68.708312 
L 166.572613 69.337932 
L 167.806547 80.178557 
L 169.040482 89.14331 
L 170.274416 96.556795 
L 171.50835 102.687444 
L 172.742284 107.75724 
L 173.391723 110.062883 
L 173.456667 73.814224 
L 173.521611 74.39304 
L 174.755545 84.358924 
L 175.989479 92.600303 
L 177.223413 99.415587 
L 178.457347 105.051548 
L 179.301617 108.334944 
L 179.366561 72.103478 
L 179.431505 72.699316 
L 180.665439 82.958284 
L 181.899373 91.442031 
L 182.224093 93.419369 
L 182.289037 57.336316 
L 182.353981 58.079089 
L 183.587915 70.867954 
L 184.821849 81.443822 
L 186.055783 90.189633 
L 187.289717 97.422061 
L 187.549492 98.777321 
L 187.614436 62.640955 
L 187.67938 63.330946 
L 188.913314 75.211025 
L 190.082304 84.563506 
L 190.147248 48.568569 
L 190.212192 49.398584 
L 191.446126 63.68953 
L 192.68006 75.507559 
L 193.913994 85.280586 
L 194.953097 92.186228 
L 195.018041 56.115444 
L 195.082985 56.870366 
L 196.316919 69.868389 
L 197.550853 80.617223 
L 198.784787 89.506069 
L 200.018721 96.856782 
L 201.252655 102.93552 
L 202.486589 107.962389 
L 203.460747 111.308645 
L 203.525691 75.04759 
L 203.590635 75.614134 
L 204.824569 85.368719 
L 206.058503 93.435362 
L 207.292437 100.106147 
L 208.526371 105.622613 
L 209.435586 109.066733 
L 209.50053 72.827986 
L 209.565474 73.416615 
L 210.799408 83.551461 
L 212.033342 91.932564 
L 213.267276 98.863394 
L 214.50121 104.594907 
L 215.735144 109.334634 
L 216.969078 113.254194 
L 218.073124 116.182588 
L 218.138068 79.873037 
L 218.203012 80.391567 
L 219.436946 89.319461 
L 220.67088 96.702464 
L 221.904814 102.807906 
L 223.138748 107.856857 
L 224.372683 112.032134 
L 224.697402 113.005281 
L 224.762346 76.727344 
L 224.82729 77.277174 
L 226.061224 86.743985 
L 227.295158 94.572651 
L 228.529092 101.046638 
L 229.763026 106.400361 
L 230.99696 110.82767 
L 232.230894 114.488875 
L 232.295838 78.196176 
L 232.360782 78.731391 
L 233.594716 87.946563 
L 234.82865 95.567134 
L 236.062584 101.869035 
L 237.296518 107.080449 
L 237.361462 70.861465 
L 237.426406 71.469662 
L 238.66034 81.94141 
L 239.82933 90.185196 
L 239.894274 54.134323 
L 239.959218 54.908957 
L 241.193152 68.246384 
L 242.427086 79.275891 
L 243.66102 88.396842 
L 243.98574 90.522696 
L 244.050684 54.468465 
L 244.115627 55.239774 
L 245.349562 68.519956 
L 246.583496 79.502124 
L 247.752486 88.147733 
L 247.81743 52.117133 
L 247.882374 52.911838 
L 249.116308 66.594848 
L 250.350242 77.910138 
L 251.584176 87.267421 
L 252.298559 91.925539 
L 252.363503 55.85735 
L 252.428446 56.61484 
L 253.66238 69.657079 
L 254.896315 80.442478 
L 255.675641 86.270963 
L 255.740585 50.259038 
L 255.805529 51.072232 
L 257.039463 65.073569 
L 258.273397 76.652102 
L 259.247556 84.359632 
L 259.3125 48.366724 
L 259.377443 49.198747 
L 260.611378 63.524273 
L 261.845312 75.370898 
L 263.079246 85.167573 
L 264.31318 93.269023 
L 265.547114 99.968591 
L 266.781048 105.508859 
L 267.365543 107.78769 
L 267.430487 71.561669 
L 267.495431 72.162898 
L 268.729365 82.514688 
L 269.963299 91.075195 
L 271.197233 98.154385 
L 271.521952 99.804358 
L 271.586896 63.657773 
L 271.65184 64.337647 
L 272.885774 76.043525 
L 274.119708 85.723808 
L 275.353642 93.729006 
L 275.548474 94.859663 
L 275.613418 58.762278 
L 275.678362 59.490863 
L 276.912296 72.035433 
L 278.14623 82.40928 
L 279.380164 90.988027 
L 280.614098 98.0823 
L 281.133649 100.688918 
L 281.198593 64.533531 
L 281.263537 65.204691 
L 282.497471 76.760535 
L 283.731405 86.316746 
L 284.965339 94.219342 
L 285.290059 96.061229 
L 285.355003 59.951889 
L 285.419947 60.668637 
L 286.653881 73.009404 
L 287.887815 83.214714 
L 289.121749 91.654088 
L 289.706244 95.125382 
L 289.771188 59.025353 
L 289.836132 59.751321 
L 291.070066 72.250821 
L 292.304 82.587397 
L 293.018383 87.733014 
L 293.083326 51.706541 
L 293.14827 52.505332 
L 294.382204 66.258684 
L 295.616139 77.632144 
L 296.850073 87.037531 
L 298.084007 94.815402 
L 299.317941 101.247383 
L 300.551875 106.566368 
L 301.720865 110.75369 
L 301.785809 74.498157 
L 301.850753 75.070168 
L 303.084687 84.918881 
L 304.318621 93.063365 
L 305.552555 99.79852 
L 305.81233 101.060597 
L 305.877274 64.901512 
L 305.942218 65.569011 
L 307.176152 77.061813 
L 308.410086 86.56589 
L 308.79975 89.210934 
L 308.864694 53.169755 
L 308.929638 53.953987 
L 310.163572 67.456663 
L 311.397506 78.622824 
L 312.371664 86.055847 
L 312.436608 50.046062 
L 312.501552 50.861375 
L 313.735486 64.899199 
L 314.96942 76.507906 
L 315.943579 84.23552 
L 316.008522 48.243848 
L 316.073466 49.077093 
L 317.3074 63.423671 
L 318.541334 75.287704 
L 319.775269 85.098775 
L 320.944259 92.822449 
L 321.009203 56.745334 
L 321.074146 57.493989 
L 322.308081 70.384099 
L 323.542015 81.043694 
L 323.80179 83.041159 
L 323.866734 47.06137 
L 323.931678 47.906381 
L 325.165612 62.45554 
L 326.399546 74.4871 
L 327.178873 80.989017 
L 327.243817 45.029647 
L 327.308761 45.894874 
L 328.542695 60.792106 
L 329.776629 73.111507 
L 331.010563 83.299149 
L 332.244497 91.723913 
L 333.478431 98.690848 
L 334.322702 102.749643 
L 334.387646 66.573751 
L 334.452589 67.224611 
L 335.686523 78.430926 
L 336.920458 87.698091 
L 337.115289 89.006988 
L 337.180233 52.967838 
L 337.245177 53.754079 
L 338.479111 67.291347 
L 339.713045 78.486115 
L 340.946979 87.74373 
L 341.79125 93.137028 
L 341.856194 57.056784 
L 341.921138 57.802339 
L 343.155072 70.639093 
L 344.389006 81.254563 
L 345.62294 90.033124 
L 346.856874 97.292634 
L 348.090808 103.295953 
L 348.740247 106.026144 
L 348.805191 69.81765 
L 348.870135 70.436233 
L 350.104069 81.086807 
L 351.338003 89.894396 
L 352.571937 97.177912 
L 353.481152 101.725263 
L 353.546095 65.559564 
L 353.611039 66.220516 
L 354.844973 77.600581 
L 356.078907 87.011429 
L 357.312841 94.793816 
L 358.546776 101.229533 
L 359.45599 105.247573 
L 359.520934 69.046827 
L 359.585878 69.673079 
L 360.819812 80.45571 
L 362.053746 89.372504 
L 363.28768 96.746329 
L 364.521614 102.844181 
L 364.911278 104.541251 
L 364.976221 68.347533 
L 365.041165 68.980743 
L 366.275099 79.883176 
L 367.509033 88.899042 
L 368.678024 95.996699 
L 368.742968 59.888 
L 368.807911 60.605384 
L 370.041845 72.957097 
L 371.27578 83.171458 
L 372.509714 91.618317 
L 373.743648 98.603524 
L 373.873535 99.264536 
L 373.938479 63.123322 
L 374.003423 63.808514 
L 375.237357 75.605954 
L 376.471291 85.361954 
L 377.44545 91.856271 
L 377.510394 55.78877 
L 377.575338 56.546942 
L 378.809272 69.600931 
L 380.043206 80.396046 
L 380.627701 84.836306 
L 380.692645 48.838656 
L 380.757589 49.665983 
L 381.991523 63.910658 
L 383.225457 75.690423 
L 384.459391 85.431807 
L 384.654222 86.807683 
L 384.719166 50.790416 
L 384.78411 51.598323 
L 386.018044 65.508625 
L 387.251978 77.011876 
L 388.485912 86.524595 
L 389.719847 94.391224 
L 390.953781 100.896605 
L 392.187715 106.27629 
L 392.967041 109.183499 
L 393.031985 72.94359 
L 393.096929 73.531068 
L 394.330863 83.646109 
L 395.564797 92.010834 
L 396.474012 97.233222 
L 396.538956 61.112219 
L 396.6039 61.817422 
L 397.837834 73.959402 
L 398.487273 79.481335 
L 398.487273 79.481335 
" style="fill:none;stroke:#9a72ac;stroke-linecap:round;stroke-width:1.5;"/>
   </g>
   <g id="patch_3">
    <path d="M 57.6 119.740235 
L 57.6 41.472 
" style="fill:none;stroke:#ffffff;stroke-linecap:square;stroke-linejoin:miter;stroke-width:0.8;"/>
   </g>
   <g id="patch_4">
    <path d="M 414.72 119.740235 
L 414.72 41.472 
" style="fill:none;stroke:#ffffff;stroke-linecap:square;stroke-linejoin:miter;stroke-width:0.8;"/>
   </g>
   <g id="patch_5">
    <path d="M 57.6 119.740235 
L 414.72 119.740235 
" style="fill:none;stroke:#ffffff;stroke-linecap:square;stroke-linejoin:miter;stroke-width:0.8;"/>
   </g>
   <g id="patch_6">
    <path d="M 57.6 41.472 
L 414.72 41.472 
" style="fill:none;stroke:#ffffff;stroke-linecap:square;stroke-linejoin:miter;stroke-width:0.8;"/>
   </g>
  </g>
  <g id="axes_2">
   <g id="patch_7">
    <path d="M 57.6 213.662118 
L 414.72 213.662118 
L 414.72 135.393882 
L 57.6 135.393882 
z
" style="fill:#1a1a1a;"/>
   </g>
   <g id="matplotlib.axis_3">
    <g id="xtick_7">
     <g id="line2d_10">
      <g>
       <use style="fill:#ffffff;stroke:#ffffff;stroke-width:0.8;" x="73.832727" xlink:href="#m79c3c4d327" y="213.662118"/>
      </g>
     </g>
     <g id="text_10">
      <!-- 0 -->
      <g style="fill:#ffffff;" transform="translate(71.052259 227.908993)scale(0.1 -0.1)">
       <use xlink:href="#LiberationSans-48"/>
      </g>
     </g>
    </g>
    <g id="xtick_8">
     <g id="line2d_11">
      <g>
       <use style="fill:#ffffff;stroke:#ffffff;stroke-width:0.8;" x="138.776625" xlink:href="#m79c3c4d327" y="213.662118"/>
      </g>
     </g>
     <g id="text_11">
      <!-- 200 -->
      <g style="fill:#ffffff;" transform="translate(130.435219 227.908993)scale(0.1 -0.1)">
       <use xlink:href="#LiberationSans-50"/>
       <use x="55.615234" xlink:href="#LiberationSans-48"/>
       <use x="111.230469" xlink:href="#LiberationSans-48"/>
      </g>
     </g>
    </g>
    <g id="xtick_9">
     <g id="line2d_12">
      <g>
       <use style="fill:#ffffff;stroke:#ffffff;stroke-width:0.8;" x="203.720523" xlink:href="#m79c3c4d327" y="213.662118"/>
      </g>
     </g>
     <g id="text_12">
      <!-- 400 -->
      <g style="fill:#ffffff;" transform="translate(195.379117 227.908993)scale(0.1 -0.1)">
       <use xlink:href="#LiberationSans-52"/>
       <use x="55.615234" xlink:href="#LiberationSans-48"/>
       <use x="111.230469" xlink:href="#LiberationSans-48"/>
      </g>
     </g>
    </g>
    <g id="xtick_10">
     <g id="line2d_13">
      <g>
       <use style="fill:#ffffff;stroke:#ffffff;stroke-width:0.8;" x="268.664421" xlink:href="#m79c3c4d327" y="213.662118"/>
      </g>
     </g>
     <g id="text_13">
      <!-- 600 -->
      <g style="fill:#ffffff;" transform="translate(260.323015 227.908993)scale(0.1 -0.1)">
       <use xlink:href="#LiberationSans-54"/>
       <use x="55.615234" xlink:href="#LiberationSans-48"/>
       <use x="111.230469" xlink:href="#LiberationSans-48"/>
      </g>
     </g>
    </g>
    <g id="xtick_11">
     <g id="line2d_14">
      <g>
       <use style="fill:#ffffff;stroke:#ffffff;stroke-width:0.8;" x="333.608319" xlink:href="#m79c3c4d327" y="213.662118"/>
      </g>
     </g>
     <g id="text_14">
      <!-- 800 -->
      <g style="fill:#ffffff;" transform="translate(325.266913 227.908993)scale(0.1 -0.1)">
       <use xlink:href="#LiberationSans-56"/>
       <use x="55.615234" xlink:href="#LiberationSans-48"/>
       <use x="111.230469" xlink:href="#LiberationSans-48"/>
      </g>
     </g>
    </g>
    <g id="xtick_12">
     <g id="line2d_15">
      <g>
       <use style="fill:#ffffff;stroke:#ffffff;stroke-width:0.8;" x="398.552217" xlink:href="#m79c3c4d327" y="213.662118"/>
      </g>
     </g>
     <g id="text_15">
      <!-- 1000 -->
      <g style="fill:#ffffff;" transform="translate(387.430342 227.908993)scale(0.1 -0.1)">
       <use xlink:href="#LiberationSans-49"/>
       <use x="55.615234" xlink:href="#LiberationSans-48"/>
       <use x="111.230469" xlink:href="#LiberationSans-48"/>
       <use x="166.845703" xlink:href="#LiberationSans-48"/>
      </g>
     </g>
    </g>
    <g id="text_16">
     <!-- $t$ (ms) -->
     <g style="fill:#ffffff;" transform="translate(222.81 241.283993)scale(0.1 -0.1)">
      <defs>
       <path d="M 42.28125 54.6875 
L 40.921875 47.703125 
L 23 47.703125 
L 17.1875 18.015625 
Q 16.890625 16.359375 16.75 15.234375 
Q 16.609375 14.109375 16.609375 13.484375 
Q 16.609375 10.359375 18.484375 8.9375 
Q 20.359375 7.515625 24.515625 7.515625 
L 33.59375 7.515625 
L 32.078125 0 
L 23.484375 0 
Q 15.484375 0 11.546875 3.125 
Q 7.625 6.25 7.625 12.59375 
Q 7.625 13.71875 7.765625 15.0625 
Q 7.90625 16.40625 8.203125 18.015625 
L 14.015625 47.703125 
L 6.390625 47.703125 
L 7.8125 54.6875 
L 15.28125 54.6875 
L 18.3125 70.21875 
L 27.296875 70.21875 
L 24.3125 54.6875 
z
" id="DejaVuSans-Oblique-116"/>
       <path id="LiberationSans-32"/>
       <path d="M 6.203125 25.984375 
Q 6.203125 32.765625 7.21875 38.96875 
Q 8.25 45.171875 10.4375 50.875 
Q 12.640625 56.59375 16.0625 61.953125 
Q 19.484375 67.328125 24.21875 72.46875 
L 32.71875 72.46875 
Q 28.125 67.328125 24.78125 61.9375 
Q 21.4375 56.546875 19.28125 50.796875 
Q 17.140625 45.0625 16.09375 38.859375 
Q 15.046875 32.671875 15.046875 25.875 
Q 15.046875 19.09375 16.09375 12.890625 
Q 17.140625 6.6875 19.28125 0.921875 
Q 21.4375 -4.828125 24.78125 -10.203125 
Q 28.125 -15.578125 32.71875 -20.703125 
L 24.21875 -20.703125 
Q 19.484375 -15.578125 16.0625 -10.203125 
Q 12.640625 -4.828125 10.4375 0.875 
Q 8.25 6.59375 7.21875 12.765625 
Q 6.203125 18.953125 6.203125 25.78125 
z
" id="LiberationSans-40"/>
       <path d="M 37.5 0 
L 37.5 33.5 
Q 37.5 37.359375 37.015625 39.9375 
Q 36.53125 42.53125 35.375 44.109375 
Q 34.234375 45.703125 32.375 46.359375 
Q 30.515625 47.015625 27.828125 47.015625 
Q 25.046875 47.015625 22.796875 45.921875 
Q 20.5625 44.828125 18.96875 42.75 
Q 17.390625 40.671875 16.53125 37.625 
Q 15.671875 34.578125 15.671875 30.609375 
L 15.671875 0 
L 6.9375 0 
L 6.9375 41.546875 
Q 6.9375 43.21875 6.90625 45.046875 
Q 6.890625 46.875 6.828125 48.5 
Q 6.78125 50.140625 6.734375 51.3125 
Q 6.6875 52.484375 6.640625 52.828125 
L 14.9375 52.828125 
Q 14.984375 52.59375 15.03125 51.515625 
Q 15.09375 50.4375 15.15625 49.046875 
Q 15.234375 47.65625 15.28125 46.21875 
Q 15.328125 44.78125 15.328125 43.796875 
L 15.484375 43.796875 
Q 16.65625 46.09375 18.015625 47.953125 
Q 19.390625 49.8125 21.21875 51.09375 
Q 23.046875 52.390625 25.40625 53.09375 
Q 27.78125 53.8125 30.90625 53.8125 
Q 36.921875 53.8125 40.40625 51.421875 
Q 43.890625 49.03125 45.265625 43.796875 
L 45.40625 43.796875 
Q 46.578125 46.09375 48.046875 47.953125 
Q 49.515625 49.8125 51.46875 51.09375 
Q 53.421875 52.390625 55.859375 53.09375 
Q 58.296875 53.8125 61.421875 53.8125 
Q 65.4375 53.8125 68.328125 52.734375 
Q 71.234375 51.65625 73.09375 49.40625 
Q 74.953125 47.171875 75.828125 43.625 
Q 76.703125 40.09375 76.703125 35.203125 
L 76.703125 0 
L 68.015625 0 
L 68.015625 33.5 
Q 68.015625 37.359375 67.53125 39.9375 
Q 67.046875 42.53125 65.890625 44.109375 
Q 64.75 45.703125 62.890625 46.359375 
Q 61.03125 47.015625 58.34375 47.015625 
Q 55.5625 47.015625 53.3125 45.96875 
Q 51.078125 44.921875 49.484375 42.875 
Q 47.90625 40.828125 47.046875 37.75 
Q 46.1875 34.671875 46.1875 30.609375 
L 46.1875 0 
z
" id="LiberationSans-109"/>
       <path d="M 46.390625 14.59375 
Q 46.390625 10.890625 44.9375 7.984375 
Q 43.5 5.078125 40.765625 3.09375 
Q 38.03125 1.125 34.046875 0.0625 
Q 30.078125 -0.984375 24.953125 -0.984375 
Q 20.359375 -0.984375 16.671875 -0.265625 
Q 12.984375 0.4375 10.203125 2 
Q 7.421875 3.5625 5.53125 6.125 
Q 3.65625 8.6875 2.78125 12.40625 
L 10.546875 13.921875 
Q 11.671875 9.671875 15.1875 7.6875 
Q 18.703125 5.71875 24.953125 5.71875 
Q 27.78125 5.71875 30.140625 6.109375 
Q 32.515625 6.5 34.21875 7.453125 
Q 35.9375 8.40625 36.890625 9.984375 
Q 37.84375 11.578125 37.84375 13.921875 
Q 37.84375 16.3125 36.71875 17.84375 
Q 35.59375 19.390625 33.59375 20.40625 
Q 31.59375 21.4375 28.734375 22.1875 
Q 25.875 22.953125 22.46875 23.875 
Q 19.28125 24.703125 16.15625 25.734375 
Q 13.03125 26.765625 10.515625 28.4375 
Q 8.015625 30.125 6.453125 32.609375 
Q 4.890625 35.109375 4.890625 38.875 
Q 4.890625 46.09375 10.03125 49.875 
Q 15.1875 53.65625 25.046875 53.65625 
Q 33.796875 53.65625 38.9375 50.578125 
Q 44.09375 47.515625 45.453125 40.71875 
L 37.546875 39.75 
Q 37.109375 41.796875 35.9375 43.1875 
Q 34.765625 44.578125 33.109375 45.4375 
Q 31.453125 46.296875 29.375 46.65625 
Q 27.296875 47.015625 25.046875 47.015625 
Q 19.09375 47.015625 16.25 45.203125 
Q 13.421875 43.40625 13.421875 39.75 
Q 13.421875 37.59375 14.46875 36.203125 
Q 15.53125 34.8125 17.40625 33.859375 
Q 19.28125 32.90625 21.921875 32.203125 
Q 24.5625 31.5 27.734375 30.71875 
Q 29.828125 30.171875 32.03125 29.5625 
Q 34.234375 28.953125 36.296875 28.09375 
Q 38.375 27.25 40.203125 26.09375 
Q 42.046875 24.953125 43.40625 23.34375 
Q 44.78125 21.734375 45.578125 19.578125 
Q 46.390625 17.4375 46.390625 14.59375 
z
" id="LiberationSans-115"/>
       <path d="M 27.09375 25.78125 
Q 27.09375 18.953125 26.0625 12.765625 
Q 25.046875 6.59375 22.84375 0.875 
Q 20.65625 -4.828125 17.234375 -10.203125 
Q 13.8125 -15.578125 9.078125 -20.703125 
L 0.59375 -20.703125 
Q 5.171875 -15.578125 8.515625 -10.203125 
Q 11.859375 -4.828125 14 0.921875 
Q 16.15625 6.6875 17.203125 12.890625 
Q 18.265625 19.09375 18.265625 25.875 
Q 18.265625 32.671875 17.203125 38.859375 
Q 16.15625 45.0625 14 50.796875 
Q 11.859375 56.546875 8.515625 61.9375 
Q 5.171875 67.328125 0.59375 72.46875 
L 9.078125 72.46875 
Q 13.8125 67.328125 17.234375 61.953125 
Q 20.65625 56.59375 22.84375 50.875 
Q 25.046875 45.171875 26.0625 38.96875 
Q 27.09375 32.765625 27.09375 25.984375 
z
" id="LiberationSans-41"/>
      </defs>
      <use transform="translate(0 0.53125)" xlink:href="#DejaVuSans-Oblique-116"/>
      <use transform="translate(39.208984 0.53125)" xlink:href="#LiberationSans-32"/>
      <use transform="translate(66.992188 0.53125)" xlink:href="#LiberationSans-40"/>
      <use transform="translate(100.292969 0.53125)" xlink:href="#LiberationSans-109"/>
      <use transform="translate(183.59375 0.53125)" xlink:href="#LiberationSans-115"/>
      <use transform="translate(233.59375 0.53125)" xlink:href="#LiberationSans-41"/>
     </g>
    </g>
   </g>
   <g id="matplotlib.axis_4">
    <g id="ytick_3">
     <g id="line2d_16">
      <g>
       <use style="fill:#ffffff;stroke:#ffffff;stroke-width:0.8;" x="57.6" xlink:href="#m08a6ad6ca7" y="210.139067"/>
      </g>
     </g>
     <g id="text_17">
      <!-- 0.0 -->
      <g style="fill:#ffffff;" transform="translate(36.7 213.762504)scale(0.1 -0.1)">
       <defs>
        <path d="M 9.125 0 
L 9.125 10.6875 
L 18.65625 10.6875 
L 18.65625 0 
z
" id="LiberationSans-46"/>
       </defs>
       <use xlink:href="#LiberationSans-48"/>
       <use x="55.615234" xlink:href="#LiberationSans-46"/>
       <use x="83.398438" xlink:href="#LiberationSans-48"/>
      </g>
     </g>
    </g>
    <g id="ytick_4">
     <g id="line2d_17">
      <g>
       <use style="fill:#ffffff;stroke:#ffffff;stroke-width:0.8;" x="57.6" xlink:href="#m08a6ad6ca7" y="182.733881"/>
      </g>
     </g>
     <g id="text_18">
      <!-- 0.5 -->
      <g style="fill:#ffffff;" transform="translate(36.7 186.357319)scale(0.1 -0.1)">
       <defs>
        <path d="M 51.421875 22.40625 
Q 51.421875 17.234375 49.859375 12.9375 
Q 48.296875 8.640625 45.21875 5.53125 
Q 42.140625 2.4375 37.578125 0.71875 
Q 33.015625 -0.984375 27 -0.984375 
Q 21.578125 -0.984375 17.546875 0.28125 
Q 13.53125 1.5625 10.734375 3.78125 
Q 7.953125 6 6.3125 8.984375 
Q 4.6875 11.96875 4 15.375 
L 12.890625 16.40625 
Q 13.421875 14.453125 14.390625 12.625 
Q 15.375 10.796875 17.0625 9.34375 
Q 18.75 7.90625 21.21875 7.046875 
Q 23.6875 6.203125 27.203125 6.203125 
Q 30.609375 6.203125 33.390625 7.25 
Q 36.1875 8.296875 38.15625 10.34375 
Q 40.140625 12.40625 41.203125 15.375 
Q 42.28125 18.359375 42.28125 22.21875 
Q 42.28125 25.390625 41.25 28.046875 
Q 40.234375 30.71875 38.328125 32.640625 
Q 36.421875 34.578125 33.65625 35.640625 
Q 30.90625 36.71875 27.390625 36.71875 
Q 25.203125 36.71875 23.34375 36.328125 
Q 21.484375 35.9375 19.890625 35.25 
Q 18.3125 34.578125 17.015625 33.671875 
Q 15.71875 32.765625 14.59375 31.78125 
L 6 31.78125 
L 8.296875 68.796875 
L 47.40625 68.796875 
L 47.40625 61.328125 
L 16.3125 61.328125 
L 14.984375 39.5 
Q 17.328125 41.3125 20.84375 42.59375 
Q 24.359375 43.890625 29.203125 43.890625 
Q 34.328125 43.890625 38.421875 42.328125 
Q 42.53125 40.765625 45.40625 37.90625 
Q 48.296875 35.0625 49.859375 31.109375 
Q 51.421875 27.15625 51.421875 22.40625 
z
" id="LiberationSans-53"/>
       </defs>
       <use xlink:href="#LiberationSans-48"/>
       <use x="55.615234" xlink:href="#LiberationSans-46"/>
       <use x="83.398438" xlink:href="#LiberationSans-53"/>
      </g>
     </g>
    </g>
    <g id="ytick_5">
     <g id="line2d_18">
      <g>
       <use style="fill:#ffffff;stroke:#ffffff;stroke-width:0.8;" x="57.6" xlink:href="#m08a6ad6ca7" y="155.328695"/>
      </g>
     </g>
     <g id="text_19">
      <!-- 1.0 -->
      <g style="fill:#ffffff;" transform="translate(36.7 158.952133)scale(0.1 -0.1)">
       <use xlink:href="#LiberationSans-49"/>
       <use x="55.615234" xlink:href="#LiberationSans-46"/>
       <use x="83.398438" xlink:href="#LiberationSans-48"/>
      </g>
     </g>
    </g>
    <g id="text_20">
     <!-- $z$ -->
     <g style="fill:#ffffff;" transform="translate(30.625 177.178)rotate(-90)scale(0.1 -0.1)">
      <use transform="translate(0 0.3125)" xlink:href="#DejaVuSans-Oblique-122"/>
     </g>
    </g>
   </g>
   <g id="line2d_19">
    <path clip-path="url(#pb040fde9f6)" d="M 73.832727 163.512728 
L 75.066661 171.58099 
L 76.300595 178.253113 
L 77.534529 183.770686 
L 78.768464 188.333493 
L 80.067341 192.286173 
L 81.366219 195.522354 
L 82.665097 198.171914 
L 83.963975 200.341191 
L 85.327797 202.197063 
L 86.756563 203.76546 
L 88.250273 205.075022 
L 89.87387 206.195185 
L 91.627355 207.128388 
L 92.991177 207.698658 
L 93.056121 152.912569 
L 93.121065 153.481982 
L 94.354999 163.285973 
L 95.588933 171.393473 
L 96.822867 178.098044 
L 98.056801 183.642451 
L 99.290735 188.227448 
L 100.589613 192.199351 
L 101.888491 195.451269 
L 103.187369 198.113715 
L 104.486247 200.293542 
L 105.850069 202.158439 
L 107.278835 203.734463 
L 108.772544 205.050394 
L 110.396142 206.176005 
L 112.149627 207.113746 
L 114.097944 207.897854 
L 116.306036 208.543838 
L 118.968736 209.080393 
L 122.215931 209.496949 
L 126.502228 209.807187 
L 132.671899 210.010715 
L 139.815728 210.096342 
L 139.880671 155.286396 
L 139.945615 155.832189 
L 141.179549 165.229498 
L 142.413483 173.000689 
L 143.647417 179.427146 
L 144.881352 184.741563 
L 146.115286 189.136369 
L 147.414164 192.943513 
L 148.713042 196.060538 
L 150.011919 198.612542 
L 151.375741 200.795848 
L 152.739563 202.5656 
L 154.168329 204.061218 
L 155.662039 205.310011 
L 157.285636 206.378195 
L 159.039121 207.268094 
L 161.052382 208.033361 
L 163.325419 208.655201 
L 166.053062 209.164097 
L 169.430145 209.559427 
L 173.911274 209.848334 
L 179.821169 210.02204 
L 179.886112 155.212833 
L 179.951056 155.759358 
L 181.18499 165.16927 
L 182.418925 172.950882 
L 183.652859 179.385958 
L 184.886793 184.707503 
L 186.120727 189.108203 
L 187.419605 192.920451 
L 188.718483 196.041657 
L 190.017361 198.597084 
L 191.381182 200.783317 
L 192.745004 202.555444 
L 194.17377 204.053067 
L 195.66748 205.303535 
L 197.291077 206.373151 
L 199.044562 207.264244 
L 201.057823 208.030537 
L 203.33086 208.653211 
L 206.058503 209.16279 
L 209.435586 209.55865 
L 213.916715 209.847944 
L 220.605936 210.035134 
L 227.749765 210.104471 
L 227.814709 155.294443 
L 227.879653 155.840157 
L 229.113587 165.236087 
L 230.347521 173.006138 
L 231.581455 179.431652 
L 232.815389 184.745289 
L 234.049323 189.139451 
L 235.348201 192.946035 
L 236.647079 196.062603 
L 237.945957 198.614233 
L 239.309779 200.797218 
L 240.673601 202.566712 
L 242.102367 204.062109 
L 243.596076 205.31072 
L 245.219674 206.378747 
L 246.973159 207.268515 
L 248.98642 208.03367 
L 251.259456 208.655419 
L 253.9871 209.16424 
L 255.870473 209.40964 
L 255.935417 154.606526 
L 256.000361 155.159084 
L 257.234295 164.672868 
L 258.468229 172.540378 
L 259.702163 179.046488 
L 260.936097 184.426775 
L 262.170031 188.876052 
L 263.468909 192.730383 
L 264.767787 195.886042 
L 266.066665 198.469677 
L 267.365543 200.584978 
L 268.729365 202.394673 
L 270.158131 203.924045 
L 271.65184 205.201024 
L 273.275438 206.293315 
L 275.028923 207.203299 
L 276.197913 207.686907 
L 276.262857 152.900935 
L 276.327801 153.470464 
L 277.561735 163.276448 
L 278.795669 171.385596 
L 280.029603 178.09153 
L 281.263537 183.637064 
L 282.497471 188.222993 
L 283.796349 192.195704 
L 285.095227 195.448283 
L 286.394105 198.111271 
L 287.692983 200.29154 
L 289.056805 202.156817 
L 290.485571 203.733161 
L 291.97928 205.04936 
L 293.602878 206.175199 
L 295.356363 207.113131 
L 297.30468 207.897399 
L 299.512772 208.543514 
L 302.175472 209.080178 
L 305.422667 209.496818 
L 309.708964 209.80712 
L 310.748067 209.8562 
L 310.813011 155.048643 
L 310.877954 155.596802 
L 312.111889 165.034843 
L 313.345823 172.839717 
L 314.579757 179.294029 
L 315.813691 184.631481 
L 317.047625 189.045336 
L 318.346503 192.86898 
L 319.645381 195.999516 
L 320.944259 198.562582 
L 322.308081 200.75535 
L 323.671902 202.532774 
L 325.100668 204.034874 
L 325.360444 204.274223 
L 325.425388 149.522208 
L 325.490332 150.125355 
L 326.724266 160.51018 
L 327.9582 169.098006 
L 329.192134 176.199786 
L 330.426068 182.072669 
L 331.660002 186.929303 
L 332.893936 190.94554 
L 334.192814 194.424736 
L 335.491692 197.273261 
L 336.79057 199.605436 
L 338.154392 201.600672 
L 339.583157 203.286844 
L 341.076867 204.694746 
L 342.635521 205.856412 
L 344.324062 206.836919 
L 346.207435 207.66819 
L 348.350584 208.362695 
L 350.818452 208.924275 
L 353.870815 209.379819 
L 357.767449 209.722383 
L 363.157792 209.957372 
L 366.340043 210.027756 
L 366.404987 155.218492 
L 366.469931 155.764961 
L 367.703865 165.173903 
L 368.937799 172.954714 
L 370.171733 179.389127 
L 371.405667 184.710123 
L 372.639601 189.110369 
L 373.938479 192.922226 
L 374.198255 193.597308 
L 374.263199 138.951529 
L 374.328143 139.659857 
L 375.562077 151.855641 
L 376.796011 161.941055 
L 378.029945 170.281281 
L 379.263879 177.178307 
L 380.497813 182.881865 
L 381.731747 187.598475 
L 382.965681 191.498919 
L 384.264559 194.877804 
L 385.563437 197.644202 
L 386.862315 199.909137 
L 388.226137 201.846847 
L 389.654903 203.484404 
L 391.148612 204.851714 
L 392.707266 205.979888 
L 393.096929 206.222099 
L 393.161873 151.450702 
L 393.226817 152.034661 
L 394.460751 162.089098 
L 395.694685 170.403706 
L 396.928619 177.279547 
L 398.162553 182.965587 
L 398.487273 184.290853 
L 398.487273 184.290853 
" style="fill:none;stroke:#9a72ac;stroke-linecap:round;stroke-width:1.5;"/>
   </g>
   <g id="patch_8">
    <path d="M 57.6 213.662118 
L 57.6 135.393882 
" style="fill:none;stroke:#ffffff;stroke-linecap:square;stroke-linejoin:miter;stroke-width:0.8;"/>
   </g>
   <g id="patch_9">
    <path d="M 414.72 213.662118 
L 414.72 135.393882 
" style="fill:none;stroke:#ffffff;stroke-linecap:square;stroke-linejoin:miter;stroke-width:0.8;"/>
   </g>
   <g id="patch_10">
    <path d="M 57.6 213.662118 
L 414.72 213.662118 
" style="fill:none;stroke:#ffffff;stroke-linecap:square;stroke-linejoin:miter;stroke-width:0.8;"/>
   </g>
   <g id="patch_11">
    <path d="M 57.6 135.393882 
L 414.72 135.393882 
" style="fill:none;stroke:#ffffff;stroke-linecap:square;stroke-linejoin:miter;stroke-width:0.8;"/>
   </g>
  </g>
  <g id="text_21">
   <!-- M2 - $z$ -->
   <g style="fill:#ffffff;" transform="translate(213.54 15.60825)scale(0.12 -0.12)">
    <defs>
     <path d="M 66.703125 0 
L 66.703125 45.90625 
Q 66.703125 48.390625 66.75 50.96875 
Q 66.796875 53.5625 66.890625 55.71875 
Q 67 58.203125 67.140625 60.546875 
Q 66.453125 58.0625 65.71875 55.609375 
Q 65.09375 53.515625 64.328125 51.140625 
Q 63.578125 48.78125 62.84375 46.875 
L 45.0625 0 
L 38.53125 0 
L 20.515625 46.875 
Q 20.21875 47.609375 19.890625 48.578125 
Q 19.578125 49.5625 19.203125 50.65625 
Q 18.84375 51.765625 18.46875 52.90625 
Q 18.109375 54.046875 17.78125 55.171875 
Q 16.9375 57.765625 16.15625 60.546875 
Q 16.21875 57.8125 16.3125 55.125 
Q 16.40625 52.828125 16.453125 50.3125 
Q 16.5 47.796875 16.5 45.90625 
L 16.5 0 
L 8.203125 0 
L 8.203125 68.796875 
L 20.453125 68.796875 
L 38.765625 21.09375 
Q 39.109375 20.125 39.59375 18.578125 
Q 40.09375 17.046875 40.53125 15.421875 
Q 40.96875 13.8125 41.328125 12.375 
Q 41.703125 10.9375 41.84375 10.15625 
Q 42 10.9375 42.390625 12.40625 
Q 42.78125 13.875 43.28125 15.484375 
Q 43.796875 17.09375 44.28125 18.609375 
Q 44.78125 20.125 45.171875 21.09375 
L 63.140625 68.796875 
L 75.09375 68.796875 
L 75.09375 0 
z
" id="LiberationSans-77"/>
     <path d="M 4.4375 22.65625 
L 4.4375 30.46875 
L 28.859375 30.46875 
L 28.859375 22.65625 
z
" id="LiberationSans-45"/>
    </defs>
    <use transform="translate(0 0.171875)" xlink:href="#LiberationSans-77"/>
    <use transform="translate(83.300781 0.171875)" xlink:href="#LiberationSans-50"/>
    <use transform="translate(138.916016 0.171875)" xlink:href="#LiberationSans-32"/>
    <use transform="translate(166.699219 0.171875)" xlink:href="#LiberationSans-45"/>
    <use transform="translate(200 0.171875)" xlink:href="#LiberationSans-32"/>
    <use transform="translate(227.783203 0.171875)" xlink:href="#DejaVuSans-Oblique-122"/>
   </g>
  </g>
 </g>
 <defs>
  <clipPath id="p62e6bd3a83">
   <rect height="78.268235" width="357.12" x="57.6" y="41.472"/>
  </clipPath>
  <clipPath id="pb040fde9f6">
   <rect height="78.268235" width="357.12" x="57.6" y="135.393882"/>
  </clipPath>
 </defs>
</svg>
