<?xml version="1.0" encoding="utf-8" standalone="no"?>
<!DOCTYPE svg PUBLIC "-//W3C//DTD SVG 1.1//EN"
  "http://www.w3.org/Graphics/SVG/1.1/DTD/svg11.dtd">
<!-- Created with matplotlib (https://matplotlib.org/) -->
<svg height="345.6pt" version="1.1" viewBox="0 0 460.8 345.6" width="460.8pt" xmlns="http://www.w3.org/2000/svg" xmlns:xlink="http://www.w3.org/1999/xlink">
 <metadata>
  <rdf:RDF xmlns:cc="http://creativecommons.org/ns#" xmlns:dc="http://purl.org/dc/elements/1.1/" xmlns:rdf="http://www.w3.org/1999/02/22-rdf-syntax-ns#">
   <cc:Work>
    <dc:type rdf:resource="http://purl.org/dc/dcmitype/StillImage"/>
    <dc:date>2022-05-05T12:17:07.810441</dc:date>
    <dc:format>image/svg+xml</dc:format>
    <dc:creator>
     <cc:Agent>
      <dc:title>Matplotlib v3.3.4, https://matplotlib.org/</dc:title>
     </cc:Agent>
    </dc:creator>
   </cc:Work>
  </rdf:RDF>
 </metadata>
 <defs>
  <style type="text/css">*{stroke-linecap:butt;stroke-linejoin:round;}</style>
 </defs>
 <g id="figure_1">
  <g id="patch_1">
   <path d="M 0 345.6 
L 460.8 345.6 
L 460.8 0 
L 0 0 
z
" style="fill:#262626;"/>
  </g>
  <g id="axes_1">
   <g id="patch_2">
    <path d="M 57.6 119.740235 
L 414.72 119.740235 
L 414.72 41.472 
L 57.6 41.472 
z
" style="fill:#1a1a1a;"/>
   </g>
   <g id="matplotlib.axis_1">
    <g id="xtick_1">
     <g id="line2d_1">
      <defs>
       <path d="M 0 0 
L 0 3.5 
" id="m921aba03e3" style="stroke:#ffffff;stroke-width:0.8;"/>
      </defs>
      <g>
       <use style="fill:#ffffff;stroke:#ffffff;stroke-width:0.8;" x="73.832727" xlink:href="#m921aba03e3" y="119.740235"/>
      </g>
     </g>
     <g id="text_1">
      <!-- 0 -->
      <g style="fill:#ffffff;" transform="translate(71.052259 133.98711)scale(0.1 -0.1)">
       <defs>
        <path d="M 51.703125 34.421875 
Q 51.703125 24.515625 49.828125 17.75 
Q 47.953125 10.984375 44.703125 6.8125 
Q 41.453125 2.640625 37.0625 0.828125 
Q 32.671875 -0.984375 27.6875 -0.984375 
Q 22.65625 -0.984375 18.3125 0.828125 
Q 13.96875 2.640625 10.765625 6.78125 
Q 7.5625 10.9375 5.734375 17.703125 
Q 3.90625 24.46875 3.90625 34.421875 
Q 3.90625 44.828125 5.734375 51.640625 
Q 7.5625 58.453125 10.78125 62.5 
Q 14.015625 66.546875 18.40625 68.1875 
Q 22.796875 69.828125 27.984375 69.828125 
Q 32.90625 69.828125 37.21875 68.1875 
Q 41.546875 66.546875 44.765625 62.5 
Q 48 58.453125 49.84375 51.640625 
Q 51.703125 44.828125 51.703125 34.421875 
z
M 42.78125 34.421875 
Q 42.78125 42.625 41.796875 48.0625 
Q 40.828125 53.515625 38.921875 56.765625 
Q 37.015625 60.015625 34.25 61.359375 
Q 31.5 62.703125 27.984375 62.703125 
Q 24.265625 62.703125 21.4375 61.328125 
Q 18.609375 59.96875 16.671875 56.71875 
Q 14.75 53.46875 13.765625 48.015625 
Q 12.796875 42.578125 12.796875 34.421875 
Q 12.796875 26.515625 13.796875 21.09375 
Q 14.796875 15.671875 16.71875 12.375 
Q 18.65625 9.078125 21.4375 7.640625 
Q 24.21875 6.203125 27.78125 6.203125 
Q 31.25 6.203125 34.03125 7.640625 
Q 36.8125 9.078125 38.734375 12.375 
Q 40.671875 15.671875 41.71875 21.09375 
Q 42.78125 26.515625 42.78125 34.421875 
z
" id="LiberationSans-48"/>
       </defs>
       <use xlink:href="#LiberationSans-48"/>
      </g>
     </g>
    </g>
    <g id="xtick_2">
     <g id="line2d_2">
      <g>
       <use style="fill:#ffffff;stroke:#ffffff;stroke-width:0.8;" x="138.776625" xlink:href="#m921aba03e3" y="119.740235"/>
      </g>
     </g>
     <g id="text_2">
      <!-- 200 -->
      <g style="fill:#ffffff;" transform="translate(130.435219 133.98711)scale(0.1 -0.1)">
       <defs>
        <path d="M 5.03125 0 
L 5.03125 6.203125 
Q 7.515625 11.921875 11.109375 16.28125 
Q 14.703125 20.65625 18.65625 24.1875 
Q 22.609375 27.734375 26.484375 30.765625 
Q 30.375 33.796875 33.5 36.8125 
Q 36.625 39.84375 38.546875 43.15625 
Q 40.484375 46.484375 40.484375 50.6875 
Q 40.484375 53.609375 39.59375 55.828125 
Q 38.71875 58.0625 37.0625 59.5625 
Q 35.40625 61.078125 33.078125 61.828125 
Q 30.765625 62.59375 27.9375 62.59375 
Q 25.296875 62.59375 22.96875 61.859375 
Q 20.65625 61.140625 18.84375 59.671875 
Q 17.046875 58.203125 15.890625 56.03125 
Q 14.75 53.859375 14.40625 50.984375 
L 5.421875 51.8125 
Q 5.859375 55.515625 7.46875 58.78125 
Q 9.078125 62.0625 11.90625 64.53125 
Q 14.75 67 18.71875 68.40625 
Q 22.703125 69.828125 27.9375 69.828125 
Q 33.0625 69.828125 37.0625 68.609375 
Q 41.0625 67.390625 43.8125 64.984375 
Q 46.578125 62.59375 48.046875 59.078125 
Q 49.515625 55.5625 49.515625 50.984375 
Q 49.515625 47.515625 48.265625 44.390625 
Q 47.015625 41.265625 44.9375 38.421875 
Q 42.875 35.59375 40.140625 32.953125 
Q 37.40625 30.328125 34.421875 27.8125 
Q 31.453125 25.296875 28.421875 22.828125 
Q 25.390625 20.359375 22.71875 17.859375 
Q 20.0625 15.375 17.96875 12.8125 
Q 15.875 10.25 14.703125 7.46875 
L 50.59375 7.46875 
L 50.59375 0 
z
" id="LiberationSans-50"/>
       </defs>
       <use xlink:href="#LiberationSans-50"/>
       <use x="55.615234" xlink:href="#LiberationSans-48"/>
       <use x="111.230469" xlink:href="#LiberationSans-48"/>
      </g>
     </g>
    </g>
    <g id="xtick_3">
     <g id="line2d_3">
      <g>
       <use style="fill:#ffffff;stroke:#ffffff;stroke-width:0.8;" x="203.720523" xlink:href="#m921aba03e3" y="119.740235"/>
      </g>
     </g>
     <g id="text_3">
      <!-- 400 -->
      <g style="fill:#ffffff;" transform="translate(195.379117 133.98711)scale(0.1 -0.1)">
       <defs>
        <path d="M 43.015625 15.578125 
L 43.015625 0 
L 34.71875 0 
L 34.71875 15.578125 
L 2.296875 15.578125 
L 2.296875 22.40625 
L 33.796875 68.796875 
L 43.015625 68.796875 
L 43.015625 22.515625 
L 52.6875 22.515625 
L 52.6875 15.578125 
z
M 34.71875 58.890625 
Q 34.625 58.640625 34.234375 57.9375 
Q 33.84375 57.234375 33.34375 56.34375 
Q 32.859375 55.46875 32.34375 54.5625 
Q 31.84375 53.65625 31.453125 53.078125 
L 13.8125 27.09375 
Q 13.578125 26.703125 13.109375 26.0625 
Q 12.640625 25.4375 12.15625 24.78125 
Q 11.671875 24.125 11.171875 23.484375 
Q 10.6875 22.859375 10.40625 22.515625 
L 34.71875 22.515625 
z
" id="LiberationSans-52"/>
       </defs>
       <use xlink:href="#LiberationSans-52"/>
       <use x="55.615234" xlink:href="#LiberationSans-48"/>
       <use x="111.230469" xlink:href="#LiberationSans-48"/>
      </g>
     </g>
    </g>
    <g id="xtick_4">
     <g id="line2d_4">
      <g>
       <use style="fill:#ffffff;stroke:#ffffff;stroke-width:0.8;" x="268.664421" xlink:href="#m921aba03e3" y="119.740235"/>
      </g>
     </g>
     <g id="text_4">
      <!-- 600 -->
      <g style="fill:#ffffff;" transform="translate(260.323015 133.98711)scale(0.1 -0.1)">
       <defs>
        <path d="M 51.21875 22.515625 
Q 51.21875 17.328125 49.78125 13 
Q 48.34375 8.6875 45.53125 5.578125 
Q 42.71875 2.484375 38.5625 0.75 
Q 34.421875 -0.984375 29 -0.984375 
Q 23 -0.984375 18.5 1.3125 
Q 14.015625 3.609375 11.03125 7.921875 
Q 8.0625 12.25 6.5625 18.53125 
Q 5.078125 24.8125 5.078125 32.8125 
Q 5.078125 42 6.765625 48.921875 
Q 8.453125 55.859375 11.625 60.5 
Q 14.796875 65.140625 19.359375 67.484375 
Q 23.921875 69.828125 29.6875 69.828125 
Q 33.203125 69.828125 36.28125 69.09375 
Q 39.359375 68.359375 41.875 66.71875 
Q 44.390625 65.09375 46.28125 62.40625 
Q 48.1875 59.71875 49.3125 55.8125 
L 40.921875 54.296875 
Q 39.546875 58.734375 36.546875 60.71875 
Q 33.546875 62.703125 29.59375 62.703125 
Q 25.984375 62.703125 23.046875 60.984375 
Q 20.125 59.28125 18.0625 55.875 
Q 16.015625 52.484375 14.90625 47.359375 
Q 13.8125 42.234375 13.8125 35.40625 
Q 16.21875 39.84375 20.5625 42.15625 
Q 24.90625 44.484375 30.515625 44.484375 
Q 35.203125 44.484375 39.015625 42.96875 
Q 42.828125 41.453125 45.53125 38.59375 
Q 48.25 35.75 49.734375 31.671875 
Q 51.21875 27.59375 51.21875 22.515625 
z
M 42.28125 22.125 
Q 42.28125 25.6875 41.40625 28.5625 
Q 40.53125 31.453125 38.765625 33.46875 
Q 37.015625 35.5 34.421875 36.59375 
Q 31.84375 37.703125 28.421875 37.703125 
Q 26.03125 37.703125 23.578125 36.984375 
Q 21.140625 36.28125 19.15625 34.6875 
Q 17.1875 33.109375 15.9375 30.515625 
Q 14.703125 27.9375 14.703125 24.21875 
Q 14.703125 20.40625 15.671875 17.109375 
Q 16.65625 13.8125 18.484375 11.375 
Q 20.3125 8.9375 22.890625 7.515625 
Q 25.484375 6.109375 28.71875 6.109375 
Q 31.890625 6.109375 34.40625 7.203125 
Q 36.921875 8.296875 38.671875 10.375 
Q 40.4375 12.453125 41.359375 15.421875 
Q 42.28125 18.40625 42.28125 22.125 
z
" id="LiberationSans-54"/>
       </defs>
       <use xlink:href="#LiberationSans-54"/>
       <use x="55.615234" xlink:href="#LiberationSans-48"/>
       <use x="111.230469" xlink:href="#LiberationSans-48"/>
      </g>
     </g>
    </g>
    <g id="xtick_5">
     <g id="line2d_5">
      <g>
       <use style="fill:#ffffff;stroke:#ffffff;stroke-width:0.8;" x="333.608319" xlink:href="#m921aba03e3" y="119.740235"/>
      </g>
     </g>
     <g id="text_5">
      <!-- 800 -->
      <g style="fill:#ffffff;" transform="translate(325.266913 133.98711)scale(0.1 -0.1)">
       <defs>
        <path d="M 51.265625 19.1875 
Q 51.265625 14.796875 49.875 11.109375 
Q 48.484375 7.421875 45.625 4.734375 
Q 42.78125 2.046875 38.328125 0.53125 
Q 33.890625 -0.984375 27.828125 -0.984375 
Q 21.78125 -0.984375 17.359375 0.53125 
Q 12.9375 2.046875 10.03125 4.703125 
Q 7.125 7.375 5.734375 11.0625 
Q 4.34375 14.75 4.34375 19.09375 
Q 4.34375 22.859375 5.484375 25.78125 
Q 6.640625 28.71875 8.5625 30.828125 
Q 10.5 32.953125 12.96875 34.25 
Q 15.4375 35.546875 18.0625 35.984375 
L 18.0625 36.1875 
Q 15.1875 36.859375 12.90625 38.375 
Q 10.640625 39.890625 9.09375 42.015625 
Q 7.5625 44.140625 6.75 46.71875 
Q 5.953125 49.3125 5.953125 52.203125 
Q 5.953125 55.8125 7.34375 59 
Q 8.734375 62.203125 11.46875 64.625 
Q 14.203125 67.046875 18.25 68.4375 
Q 22.3125 69.828125 27.640625 69.828125 
Q 33.25 69.828125 37.375 68.40625 
Q 41.5 67 44.203125 64.578125 
Q 46.921875 62.15625 48.234375 58.9375 
Q 49.5625 55.71875 49.5625 52.09375 
Q 49.5625 49.265625 48.75 46.671875 
Q 47.953125 44.09375 46.40625 41.96875 
Q 44.875 39.84375 42.59375 38.34375 
Q 40.328125 36.859375 37.359375 36.28125 
L 37.359375 36.078125 
Q 40.328125 35.59375 42.859375 34.296875 
Q 45.40625 33.015625 47.265625 30.890625 
Q 49.125 28.765625 50.1875 25.828125 
Q 51.265625 22.90625 51.265625 19.1875 
z
M 40.4375 51.609375 
Q 40.4375 54.203125 39.765625 56.34375 
Q 39.109375 58.5 37.59375 60.03125 
Q 36.078125 61.578125 33.640625 62.421875 
Q 31.203125 63.28125 27.640625 63.28125 
Q 24.171875 63.28125 21.78125 62.421875 
Q 19.390625 61.578125 17.84375 60.03125 
Q 16.3125 58.5 15.625 56.34375 
Q 14.9375 54.203125 14.9375 51.609375 
Q 14.9375 49.5625 15.46875 47.40625 
Q 16.015625 45.265625 17.421875 43.5 
Q 18.84375 41.75 21.328125 40.625 
Q 23.828125 39.5 27.734375 39.5 
Q 31.890625 39.5 34.40625 40.625 
Q 36.921875 41.75 38.25 43.5 
Q 39.59375 45.265625 40.015625 47.40625 
Q 40.4375 49.5625 40.4375 51.609375 
z
M 42.140625 20.015625 
Q 42.140625 22.515625 41.453125 24.828125 
Q 40.765625 27.15625 39.109375 28.9375 
Q 37.453125 30.71875 34.640625 31.8125 
Q 31.84375 32.90625 27.640625 32.90625 
Q 23.78125 32.90625 21.0625 31.8125 
Q 18.359375 30.71875 16.671875 28.90625 
Q 14.984375 27.09375 14.203125 24.71875 
Q 13.421875 22.359375 13.421875 19.828125 
Q 13.421875 16.65625 14.203125 14.03125 
Q 14.984375 11.421875 16.6875 9.546875 
Q 18.40625 7.671875 21.1875 6.640625 
Q 23.96875 5.609375 27.9375 5.609375 
Q 31.9375 5.609375 34.671875 6.640625 
Q 37.40625 7.671875 39.0625 9.546875 
Q 40.71875 11.421875 41.421875 14.078125 
Q 42.140625 16.75 42.140625 20.015625 
z
" id="LiberationSans-56"/>
       </defs>
       <use xlink:href="#LiberationSans-56"/>
       <use x="55.615234" xlink:href="#LiberationSans-48"/>
       <use x="111.230469" xlink:href="#LiberationSans-48"/>
      </g>
     </g>
    </g>
    <g id="xtick_6">
     <g id="line2d_6">
      <g>
       <use style="fill:#ffffff;stroke:#ffffff;stroke-width:0.8;" x="398.552217" xlink:href="#m921aba03e3" y="119.740235"/>
      </g>
     </g>
     <g id="text_6">
      <!-- 1000 -->
      <g style="fill:#ffffff;" transform="translate(387.430342 133.98711)scale(0.1 -0.1)">
       <defs>
        <path d="M 7.625 0 
L 7.625 7.46875 
L 25.140625 7.46875 
L 25.140625 60.40625 
L 9.625 49.3125 
L 9.625 57.625 
L 25.875 68.796875 
L 33.984375 68.796875 
L 33.984375 7.46875 
L 50.734375 7.46875 
L 50.734375 0 
z
" id="LiberationSans-49"/>
       </defs>
       <use xlink:href="#LiberationSans-49"/>
       <use x="55.615234" xlink:href="#LiberationSans-48"/>
       <use x="111.230469" xlink:href="#LiberationSans-48"/>
       <use x="166.845703" xlink:href="#LiberationSans-48"/>
      </g>
     </g>
    </g>
   </g>
   <g id="matplotlib.axis_2">
    <g id="ytick_1">
     <g id="line2d_7">
      <defs>
       <path d="M 0 0 
L -3.5 0 
" id="mcc38f8570e" style="stroke:#ffffff;stroke-width:0.8;"/>
      </defs>
      <g>
       <use style="fill:#ffffff;stroke:#ffffff;stroke-width:0.8;" x="57.6" xlink:href="#mcc38f8570e" y="98.676751"/>
      </g>
     </g>
     <g id="text_7">
      <!-- −1 -->
      <g style="fill:#ffffff;" transform="translate(39.198437 102.300189)scale(0.1 -0.1)">
       <defs>
        <path d="M 4.9375 29.6875 
L 4.9375 36.8125 
L 53.515625 36.8125 
L 53.515625 29.6875 
z
" id="LiberationSans-8722"/>
       </defs>
       <use xlink:href="#LiberationSans-8722"/>
       <use x="58.398438" xlink:href="#LiberationSans-49"/>
      </g>
     </g>
    </g>
    <g id="ytick_2">
     <g id="line2d_8">
      <g>
       <use style="fill:#ffffff;stroke:#ffffff;stroke-width:0.8;" x="57.6" xlink:href="#mcc38f8570e" y="70.629388"/>
      </g>
     </g>
     <g id="text_8">
      <!-- 0 -->
      <g style="fill:#ffffff;" transform="translate(45.039062 74.252825)scale(0.1 -0.1)">
       <use xlink:href="#LiberationSans-48"/>
      </g>
     </g>
    </g>
    <g id="ytick_3">
     <g id="line2d_9">
      <g>
       <use style="fill:#ffffff;stroke:#ffffff;stroke-width:0.8;" x="57.6" xlink:href="#mcc38f8570e" y="42.582024"/>
      </g>
     </g>
     <g id="text_9">
      <!-- 1 -->
      <g style="fill:#ffffff;" transform="translate(45.039062 46.205462)scale(0.1 -0.1)">
       <use xlink:href="#LiberationSans-49"/>
      </g>
     </g>
    </g>
    <g id="text_10">
     <!-- $u$ -->
     <g style="fill:#ffffff;" transform="translate(33.123437 83.806118)rotate(-90)scale(0.1 -0.1)">
      <defs>
       <path d="M 6.6875 21.6875 
L 13.09375 54.6875 
L 22.125 54.6875 
L 15.71875 22.015625 
Q 15.234375 19.625 15.015625 17.921875 
Q 14.796875 16.21875 14.796875 15.09375 
Q 14.796875 10.9375 17.328125 8.65625 
Q 19.875 6.390625 24.515625 6.390625 
Q 31.734375 6.390625 37 11.265625 
Q 42.28125 16.15625 43.890625 24.421875 
L 49.90625 54.6875 
L 58.890625 54.6875 
L 48.296875 0 
L 39.3125 0 
L 41.109375 8.59375 
Q 37.3125 3.8125 32.0625 1.1875 
Q 26.8125 -1.421875 20.90625 -1.421875 
Q 13.71875 -1.421875 9.71875 2.515625 
Q 5.71875 6.453125 5.71875 13.484375 
Q 5.71875 14.9375 5.953125 17.140625 
Q 6.203125 19.34375 6.6875 21.6875 
z
" id="DejaVuSans-Oblique-117"/>
      </defs>
      <use transform="translate(0 0.3125)" xlink:href="#DejaVuSans-Oblique-117"/>
     </g>
    </g>
   </g>
   <g id="line2d_10">
    <path clip-path="url(#p4ef0278b9a)" d="M 73.832727 111.972314 
L 73.962615 109.998224 
L 74.092503 88.590594 
L 74.157447 96.965934 
L 74.222391 96.12327 
L 75.456325 81.614522 
L 76.690259 69.616381 
L 77.924193 59.694408 
L 79.028239 52.281475 
L 79.093183 84.915855 
L 79.158127 84.193092 
L 80.392061 71.748752 
L 81.625995 61.457792 
L 82.859929 52.947589 
L 83.509368 49.077317 
L 83.574312 81.743579 
L 83.639256 81.05238 
L 84.87319 69.151512 
L 86.107124 59.309981 
L 87.341058 51.171437 
L 87.925553 47.82388 
L 87.990497 80.502615 
L 88.055441 79.823763 
L 89.289375 68.135496 
L 90.523309 58.469777 
L 91.757243 50.476623 
L 91.822187 50.096535 
L 91.887131 82.752656 
L 91.952075 82.051417 
L 92.991177 71.734907 
L 93.121065 61.629756 
L 94.354999 53.089796 
L 94.939494 49.577128 
L 95.004438 82.238418 
L 95.069382 81.542295 
L 96.303316 69.556652 
L 97.53725 59.645015 
L 98.771184 51.448496 
L 99.290735 48.436885 
L 99.355679 81.109521 
L 99.420623 80.42463 
L 100.654557 68.632389 
L 101.888491 58.880687 
L 103.122425 50.816428 
L 103.512089 48.572095 
L 103.577032 81.005418 
L 103.641976 80.321563 
L 104.87591 68.547157 
L 106.109845 58.810203 
L 107.343779 50.758141 
L 107.928274 47.446156 
L 107.993218 80.12865 
L 108.058161 79.453519 
L 109.292096 67.82932 
L 110.52603 58.216582 
L 111.759964 50.26724 
L 112.474347 46.310004 
L 112.53929 79.003802 
L 112.604234 78.339864 
L 113.838168 66.908372 
L 115.072102 57.454996 
L 116.306036 49.63744 
L 116.37098 49.265702 
L 116.435924 81.93009 
L 116.500868 81.237035 
L 117.734802 69.304215 
L 118.968736 59.43626 
L 120.20267 51.275864 
L 120.397502 50.123288 
L 120.462446 82.779143 
L 120.52739 82.077639 
L 121.761324 69.99936 
L 122.995258 60.011116 
L 124.099304 52.54867 
L 124.164248 85.180392 
L 124.229192 84.454996 
L 125.463126 71.965337 
L 126.69706 61.636899 
L 127.930994 53.095702 
L 128.19077 51.495197 
L 128.255714 83.899435 
L 128.320658 83.186784 
L 129.554592 70.916577 
L 130.788526 60.769618 
L 132.02246 52.378497 
L 133.061562 46.449313 
L 133.126506 79.141724 
L 133.19145 78.476414 
L 134.425384 67.021294 
L 135.659318 57.548377 
L 136.893252 49.714662 
L 137.412803 46.836355 
L 137.477747 79.524916 
L 137.542691 78.855793 
L 138.776625 67.335024 
L 139.620896 63.537143 
L 139.68584 96.312667 
L 139.750784 95.731872 
L 139.815728 95.159086 
L 139.945615 85.109409 
L 140.984718 78.523618 
L 141.958876 73.71977 
L 142.153708 72.45262 
L 143.387642 63.979175 
L 144.621576 56.971981 
L 145.85551 51.177319 
L 145.920454 71.814114 
L 145.985398 71.333228 
L 147.219332 63.053483 
L 148.453266 56.206472 
L 149.6872 50.544274 
L 150.336639 47.969218 
L 150.401583 80.758021 
L 150.466527 80.188142 
L 151.700461 70.376135 
L 152.934395 62.262006 
L 154.168329 55.551953 
L 155.402263 50.003013 
L 155.85687 48.210214 
L 155.921814 80.996618 
L 155.986758 80.424365 
L 157.220692 70.571482 
L 158.454626 62.42355 
L 159.68856 55.685543 
L 160.792607 50.651423 
L 160.85755 83.413538 
L 160.922494 82.817236 
L 162.156428 72.550288 
L 163.390362 64.059942 
L 164.624296 57.038772 
L 165.858231 51.232552 
L 166.442726 48.84433 
L 166.50767 81.624425 
L 166.572613 81.045926 
L 167.806547 71.085487 
L 169.040482 62.848611 
L 170.274416 56.037051 
L 170.923855 52.939289 
L 170.988798 73.558552 
L 171.053742 73.060309 
L 171.50835 68.812114 
L 173.067003 53.569728 
L 173.391723 50.675654 
L 173.456667 83.139783 
L 173.521611 82.24623 
L 174.625657 68.471105 
L 175.859591 58.747312 
L 176.963637 51.482442 
L 177.028581 69.870185 
L 177.093525 69.297128 
L 177.288357 67.611943 
L 177.3533 70.042827 
L 177.418244 69.468052 
L 178.652178 59.571746 
L 179.301617 55.071102 
L 179.366561 87.677726 
L 179.431505 86.927481 
L 179.821169 82.580203 
L 179.951056 72.260301 
L 181.18499 61.880822 
L 182.224093 54.54666 
L 182.289037 87.158502 
L 182.353981 86.413424 
L 183.587915 73.584876 
L 184.821849 62.976192 
L 186.055783 54.203243 
L 187.289717 46.948373 
L 187.549492 45.588908 
L 187.614436 78.289881 
L 187.67938 77.633047 
L 188.913314 66.323863 
L 190.082304 57.420814 
L 190.147248 90.004058 
L 190.212192 89.230666 
L 191.446126 75.91462 
L 192.68006 64.902795 
L 193.913994 55.796465 
L 194.953097 49.361913 
L 195.018041 82.025344 
L 195.082985 81.331341 
L 196.316919 69.382202 
L 197.550853 59.500752 
L 198.784787 51.329196 
L 199.434226 47.612934 
L 199.49917 80.055801 
L 199.564114 79.381396 
L 200.798048 67.769676 
L 202.031982 58.167259 
L 203.265916 50.226452 
L 203.460747 49.104891 
L 203.525691 81.770879 
L 203.590635 81.079408 
L 203.980299 77.969276 
L 204.954457 72.305995 
L 205.928616 67.899887 
L 206.83783 64.76692 
L 207.032662 63.981888 
L 208.266596 56.974225 
L 209.435586 51.457508 
L 209.50053 84.211601 
L 209.565474 83.607359 
L 210.799408 73.203687 
L 212.033342 64.600276 
L 213.267276 57.485607 
L 214.241434 52.749556 
L 214.306378 73.370707 
L 214.371322 72.874334 
L 215.605256 64.327914 
L 216.83919 57.260375 
L 218.073124 51.415808 
L 218.138068 84.170317 
L 218.203012 83.566485 
L 219.436946 73.169886 
L 220.67088 64.572324 
L 221.904814 57.462492 
L 223.138748 51.582951 
L 224.372683 46.720811 
L 224.697402 45.587574 
L 224.762346 78.400074 
L 224.82729 77.853657 
L 226.061224 68.445611 
L 227.295158 60.665542 
L 227.749765 58.151889 
L 227.879653 48.537619 
L 228.269316 47.078652 
L 228.33426 67.75623 
L 228.399204 67.315721 
L 229.633138 59.731169 
L 230.867072 53.459054 
L 232.101006 48.272271 
L 232.230894 47.781445 
L 232.295838 80.572116 
L 232.360782 80.004087 
L 233.594716 70.223929 
L 234.82865 62.136138 
L 236.062584 55.447865 
L 236.32236 53.746283 
L 237.296518 46.106472 
L 237.361462 78.651749 
L 237.426406 77.838538 
L 238.920116 60.640292 
L 239.634499 53.996164 
L 239.82933 52.763191 
L 239.894274 85.392778 
L 239.959218 84.665269 
L 241.193152 72.139224 
L 242.427086 61.780696 
L 243.66102 53.214617 
L 243.98574 51.21809 
L 244.050684 83.863051 
L 244.115627 83.150763 
L 245.349562 70.886789 
L 246.583496 60.744984 
L 247.752486 52.760943 
L 247.81743 85.390553 
L 247.882374 84.663066 
L 249.116308 72.137402 
L 250.350242 61.779189 
L 251.584176 53.213371 
L 252.298559 48.949249 
L 252.363503 81.616786 
L 252.428446 80.926848 
L 253.66238 69.047703 
L 254.896315 59.224135 
L 255.675641 53.915428 
L 255.740585 86.53355 
L 255.805529 85.79469 
L 255.870473 85.063182 
L 256.000361 74.694113 
L 257.234295 63.893485 
L 258.468229 54.961808 
L 259.247556 50.135083 
L 259.3125 82.790821 
L 259.377443 82.089201 
L 260.611378 70.008921 
L 261.845312 60.019023 
L 263.079246 51.757785 
L 263.598797 48.722395 
L 263.663741 81.154223 
L 263.728685 80.468888 
L 264.962619 68.668988 
L 266.196553 58.910953 
L 267.365543 51.229031 
L 267.430487 83.873884 
L 267.495431 83.161488 
L 268.729365 70.895658 
L 269.963299 60.752318 
L 271.197233 52.364191 
L 271.521952 50.409139 
L 271.586896 83.06215 
L 271.65184 82.357831 
L 272.885774 70.231067 
L 274.119708 60.202728 
L 275.353642 51.909702 
L 275.548474 50.738393 
L 275.613418 116.182588 
L 275.678362 115.148715 
L 276.197913 107.239599 
L 276.327801 96.431408 
L 277.561735 81.86934 
L 278.795669 69.827105 
L 280.029603 59.868668 
L 281.133649 52.428491 
L 281.198593 85.061409 
L 281.263537 84.337197 
L 282.497471 71.867922 
L 283.731405 61.556341 
L 284.965339 53.029084 
L 285.290059 51.041605 
L 285.355003 83.688323 
L 285.419947 82.977773 
L 286.653881 70.743734 
L 287.887815 60.626683 
L 289.121749 52.260295 
L 289.706244 48.819022 
L 289.771188 81.487855 
L 289.836132 80.7992 
L 291.070066 68.942143 
L 292.304 59.136841 
L 293.018383 54.255695 
L 293.083326 86.870432 
L 293.14827 86.12822 
L 294.382204 73.349025 
L 295.616139 62.781152 
L 296.850073 54.041953 
L 298.084007 46.814993 
L 298.148951 79.2658 
L 298.213894 78.599255 
L 299.447828 67.122878 
L 300.681763 57.632383 
L 301.720865 50.926379 
L 301.785809 83.574244 
L 301.850753 82.864829 
L 303.084687 70.650333 
L 304.318621 60.549445 
L 305.552555 52.196423 
L 305.81233 50.631179 
L 305.877274 83.28198 
L 305.942218 82.575474 
L 307.176152 70.411048 
L 308.410086 60.351566 
L 308.79975 57.551949 
L 308.864694 90.133888 
L 308.929638 89.359204 
L 310.163572 76.020916 
L 310.748067 70.534594 
L 310.877954 60.453211 
L 312.111889 52.116841 
L 312.371664 50.554718 
L 312.436608 83.20628 
L 312.501552 82.500527 
L 313.735486 70.34907 
L 314.96942 60.300312 
L 315.943579 53.611115 
L 316.008522 86.232266 
L 316.073466 85.496404 
L 317.3074 72.826538 
L 318.541334 62.349077 
L 319.775269 53.684645 
L 320.944259 46.863652 
L 321.009203 79.551941 
L 321.074146 78.882549 
L 322.308081 67.357151 
L 323.542015 57.826117 
L 323.80179 56.04013 
L 323.866734 88.637111 
L 323.931678 87.87732 
L 325.165612 74.795459 
L 325.360444 72.947773 
L 325.490332 62.818606 
L 326.724266 54.072926 
L 327.178873 51.247296 
L 327.243817 83.891967 
L 327.308761 83.179391 
L 328.542695 70.910463 
L 329.776629 60.764562 
L 331.010563 52.374315 
L 331.919777 47.135994 
L 331.984721 79.583607 
L 332.049665 78.9139 
L 333.283599 67.383076 
L 333.933038 61.018361 
L 334.322702 56.769777 
L 334.387646 89.110821 
L 334.452589 88.095408 
L 335.881355 67.616165 
L 336.985401 54.376146 
L 337.050345 72.623582 
L 337.115289 52.243282 
L 337.180233 105.67887 
L 337.245177 104.637996 
L 338.479111 86.716541 
L 339.713045 71.89623 
L 340.946979 59.640438 
L 341.79125 52.500462 
L 341.856194 85.02115 
L 341.921138 84.185824 
L 343.155072 69.803431 
L 344.389006 57.909778 
L 345.103389 51.989038 
L 345.168333 84.276848 
L 345.233276 83.448928 
L 346.467211 69.194047 
L 347.701145 57.405844 
L 348.740247 49.076274 
L 348.805191 81.631033 
L 348.870135 80.829439 
L 350.104069 67.027837 
L 351.338003 55.614476 
L 351.597778 53.475766 
L 351.662722 71.732161 
L 351.727666 71.029063 
L 351.857554 69.643785 
L 351.922498 71.942938 
L 351.987442 71.237742 
L 353.221376 59.095896 
L 353.481152 56.820677 
L 353.546095 89.298378 
L 353.611039 88.420493 
L 354.844973 73.305329 
L 356.078907 60.805705 
L 356.663402 55.664344 
L 356.728346 73.898962 
L 356.79329 73.174304 
L 358.027224 60.697353 
L 359.261158 50.379425 
L 359.45599 48.922118 
L 359.520934 81.478411 
L 359.585878 80.678336 
L 359.650822 60.21789 
L 359.715766 80.541701 
L 359.78071 79.750947 
L 361.014644 66.135968 
L 362.248578 54.876937 
L 362.833073 50.245858 
L 362.898017 68.534391 
L 362.962961 67.863111 
L 364.196895 56.305214 
L 364.911278 50.551614 
L 364.976221 83.091694 
L 365.041165 82.275566 
L 366.145212 69.804461 
L 366.340043 68.452117 
L 366.469931 58.656094 
L 367.44409 54.184348 
L 368.353304 50.998393 
L 368.678024 50.066701 
L 368.742968 82.924962 
L 368.807911 82.42608 
L 369.717126 74.820642 
L 370.95106 63.998119 
L 372.184994 55.048336 
L 373.418928 47.64723 
L 373.873535 45.256017 
L 373.938479 77.960302 
L 374.003423 77.306747 
L 374.198255 75.384842 
L 374.328143 65.207417 
L 375.562077 56.048375 
L 376.796011 48.474222 
L 377.44545 45.029647 
L 377.510394 77.736185 
L 377.575338 77.08486 
L 378.809272 65.870535 
L 380.043206 56.596747 
L 380.627701 52.78224 
L 380.692645 85.411638 
L 380.757589 84.683941 
L 381.991523 72.154665 
L 383.225457 61.793466 
L 384.459391 53.225177 
L 384.654222 52.01499 
L 384.719166 84.652022 
L 384.78411 83.931883 
L 386.018044 71.532744 
L 387.251978 61.279162 
L 388.485912 52.799869 
L 388.745688 51.210964 
L 388.810632 83.618029 
L 388.875576 82.908179 
L 390.10951 70.686182 
L 391.343444 60.57909 
L 392.577378 52.220938 
L 392.967041 49.894812 
L 393.031985 82.552941 
L 393.096929 81.853688 
L 393.226817 71.548172 
L 394.460751 61.291921 
L 395.694685 52.81042 
L 396.474012 48.226973 
L 396.538956 80.901697 
L 396.6039 80.218875 
L 397.837834 68.462237 
L 398.487273 63.115551 
L 398.487273 63.115551 
" style="fill:none;stroke:#9a72ac;stroke-linecap:round;stroke-width:1.5;"/>
   </g>
   <g id="patch_3">
    <path d="M 57.6 119.740235 
L 57.6 41.472 
" style="fill:none;stroke:#ffffff;stroke-linecap:square;stroke-linejoin:miter;stroke-width:0.8;"/>
   </g>
   <g id="patch_4">
    <path d="M 414.72 119.740235 
L 414.72 41.472 
" style="fill:none;stroke:#ffffff;stroke-linecap:square;stroke-linejoin:miter;stroke-width:0.8;"/>
   </g>
   <g id="patch_5">
    <path d="M 57.6 119.740235 
L 414.72 119.740235 
" style="fill:none;stroke:#ffffff;stroke-linecap:square;stroke-linejoin:miter;stroke-width:0.8;"/>
   </g>
   <g id="patch_6">
    <path d="M 57.6 41.472 
L 414.72 41.472 
" style="fill:none;stroke:#ffffff;stroke-linecap:square;stroke-linejoin:miter;stroke-width:0.8;"/>
   </g>
  </g>
  <g id="axes_2">
   <g id="patch_7">
    <path d="M 57.6 213.662118 
L 414.72 213.662118 
L 414.72 135.393882 
L 57.6 135.393882 
z
" style="fill:#1a1a1a;"/>
   </g>
   <g id="matplotlib.axis_3">
    <g id="xtick_7">
     <g id="line2d_11">
      <g>
       <use style="fill:#ffffff;stroke:#ffffff;stroke-width:0.8;" x="73.832727" xlink:href="#m921aba03e3" y="213.662118"/>
      </g>
     </g>
     <g id="text_11">
      <!-- 0 -->
      <g style="fill:#ffffff;" transform="translate(71.052259 227.908993)scale(0.1 -0.1)">
       <use xlink:href="#LiberationSans-48"/>
      </g>
     </g>
    </g>
    <g id="xtick_8">
     <g id="line2d_12">
      <g>
       <use style="fill:#ffffff;stroke:#ffffff;stroke-width:0.8;" x="138.776625" xlink:href="#m921aba03e3" y="213.662118"/>
      </g>
     </g>
     <g id="text_12">
      <!-- 200 -->
      <g style="fill:#ffffff;" transform="translate(130.435219 227.908993)scale(0.1 -0.1)">
       <use xlink:href="#LiberationSans-50"/>
       <use x="55.615234" xlink:href="#LiberationSans-48"/>
       <use x="111.230469" xlink:href="#LiberationSans-48"/>
      </g>
     </g>
    </g>
    <g id="xtick_9">
     <g id="line2d_13">
      <g>
       <use style="fill:#ffffff;stroke:#ffffff;stroke-width:0.8;" x="203.720523" xlink:href="#m921aba03e3" y="213.662118"/>
      </g>
     </g>
     <g id="text_13">
      <!-- 400 -->
      <g style="fill:#ffffff;" transform="translate(195.379117 227.908993)scale(0.1 -0.1)">
       <use xlink:href="#LiberationSans-52"/>
       <use x="55.615234" xlink:href="#LiberationSans-48"/>
       <use x="111.230469" xlink:href="#LiberationSans-48"/>
      </g>
     </g>
    </g>
    <g id="xtick_10">
     <g id="line2d_14">
      <g>
       <use style="fill:#ffffff;stroke:#ffffff;stroke-width:0.8;" x="268.664421" xlink:href="#m921aba03e3" y="213.662118"/>
      </g>
     </g>
     <g id="text_14">
      <!-- 600 -->
      <g style="fill:#ffffff;" transform="translate(260.323015 227.908993)scale(0.1 -0.1)">
       <use xlink:href="#LiberationSans-54"/>
       <use x="55.615234" xlink:href="#LiberationSans-48"/>
       <use x="111.230469" xlink:href="#LiberationSans-48"/>
      </g>
     </g>
    </g>
    <g id="xtick_11">
     <g id="line2d_15">
      <g>
       <use style="fill:#ffffff;stroke:#ffffff;stroke-width:0.8;" x="333.608319" xlink:href="#m921aba03e3" y="213.662118"/>
      </g>
     </g>
     <g id="text_15">
      <!-- 800 -->
      <g style="fill:#ffffff;" transform="translate(325.266913 227.908993)scale(0.1 -0.1)">
       <use xlink:href="#LiberationSans-56"/>
       <use x="55.615234" xlink:href="#LiberationSans-48"/>
       <use x="111.230469" xlink:href="#LiberationSans-48"/>
      </g>
     </g>
    </g>
    <g id="xtick_12">
     <g id="line2d_16">
      <g>
       <use style="fill:#ffffff;stroke:#ffffff;stroke-width:0.8;" x="398.552217" xlink:href="#m921aba03e3" y="213.662118"/>
      </g>
     </g>
     <g id="text_16">
      <!-- 1000 -->
      <g style="fill:#ffffff;" transform="translate(387.430342 227.908993)scale(0.1 -0.1)">
       <use xlink:href="#LiberationSans-49"/>
       <use x="55.615234" xlink:href="#LiberationSans-48"/>
       <use x="111.230469" xlink:href="#LiberationSans-48"/>
       <use x="166.845703" xlink:href="#LiberationSans-48"/>
      </g>
     </g>
    </g>
    <g id="text_17">
     <!-- $t$ (ms) -->
     <g style="fill:#ffffff;" transform="translate(222.81 241.283993)scale(0.1 -0.1)">
      <defs>
       <path d="M 42.28125 54.6875 
L 40.921875 47.703125 
L 23 47.703125 
L 17.1875 18.015625 
Q 16.890625 16.359375 16.75 15.234375 
Q 16.609375 14.109375 16.609375 13.484375 
Q 16.609375 10.359375 18.484375 8.9375 
Q 20.359375 7.515625 24.515625 7.515625 
L 33.59375 7.515625 
L 32.078125 0 
L 23.484375 0 
Q 15.484375 0 11.546875 3.125 
Q 7.625 6.25 7.625 12.59375 
Q 7.625 13.71875 7.765625 15.0625 
Q 7.90625 16.40625 8.203125 18.015625 
L 14.015625 47.703125 
L 6.390625 47.703125 
L 7.8125 54.6875 
L 15.28125 54.6875 
L 18.3125 70.21875 
L 27.296875 70.21875 
L 24.3125 54.6875 
z
" id="DejaVuSans-Oblique-116"/>
       <path id="LiberationSans-32"/>
       <path d="M 6.203125 25.984375 
Q 6.203125 32.765625 7.21875 38.96875 
Q 8.25 45.171875 10.4375 50.875 
Q 12.640625 56.59375 16.0625 61.953125 
Q 19.484375 67.328125 24.21875 72.46875 
L 32.71875 72.46875 
Q 28.125 67.328125 24.78125 61.9375 
Q 21.4375 56.546875 19.28125 50.796875 
Q 17.140625 45.0625 16.09375 38.859375 
Q 15.046875 32.671875 15.046875 25.875 
Q 15.046875 19.09375 16.09375 12.890625 
Q 17.140625 6.6875 19.28125 0.921875 
Q 21.4375 -4.828125 24.78125 -10.203125 
Q 28.125 -15.578125 32.71875 -20.703125 
L 24.21875 -20.703125 
Q 19.484375 -15.578125 16.0625 -10.203125 
Q 12.640625 -4.828125 10.4375 0.875 
Q 8.25 6.59375 7.21875 12.765625 
Q 6.203125 18.953125 6.203125 25.78125 
z
" id="LiberationSans-40"/>
       <path d="M 37.5 0 
L 37.5 33.5 
Q 37.5 37.359375 37.015625 39.9375 
Q 36.53125 42.53125 35.375 44.109375 
Q 34.234375 45.703125 32.375 46.359375 
Q 30.515625 47.015625 27.828125 47.015625 
Q 25.046875 47.015625 22.796875 45.921875 
Q 20.5625 44.828125 18.96875 42.75 
Q 17.390625 40.671875 16.53125 37.625 
Q 15.671875 34.578125 15.671875 30.609375 
L 15.671875 0 
L 6.9375 0 
L 6.9375 41.546875 
Q 6.9375 43.21875 6.90625 45.046875 
Q 6.890625 46.875 6.828125 48.5 
Q 6.78125 50.140625 6.734375 51.3125 
Q 6.6875 52.484375 6.640625 52.828125 
L 14.9375 52.828125 
Q 14.984375 52.59375 15.03125 51.515625 
Q 15.09375 50.4375 15.15625 49.046875 
Q 15.234375 47.65625 15.28125 46.21875 
Q 15.328125 44.78125 15.328125 43.796875 
L 15.484375 43.796875 
Q 16.65625 46.09375 18.015625 47.953125 
Q 19.390625 49.8125 21.21875 51.09375 
Q 23.046875 52.390625 25.40625 53.09375 
Q 27.78125 53.8125 30.90625 53.8125 
Q 36.921875 53.8125 40.40625 51.421875 
Q 43.890625 49.03125 45.265625 43.796875 
L 45.40625 43.796875 
Q 46.578125 46.09375 48.046875 47.953125 
Q 49.515625 49.8125 51.46875 51.09375 
Q 53.421875 52.390625 55.859375 53.09375 
Q 58.296875 53.8125 61.421875 53.8125 
Q 65.4375 53.8125 68.328125 52.734375 
Q 71.234375 51.65625 73.09375 49.40625 
Q 74.953125 47.171875 75.828125 43.625 
Q 76.703125 40.09375 76.703125 35.203125 
L 76.703125 0 
L 68.015625 0 
L 68.015625 33.5 
Q 68.015625 37.359375 67.53125 39.9375 
Q 67.046875 42.53125 65.890625 44.109375 
Q 64.75 45.703125 62.890625 46.359375 
Q 61.03125 47.015625 58.34375 47.015625 
Q 55.5625 47.015625 53.3125 45.96875 
Q 51.078125 44.921875 49.484375 42.875 
Q 47.90625 40.828125 47.046875 37.75 
Q 46.1875 34.671875 46.1875 30.609375 
L 46.1875 0 
z
" id="LiberationSans-109"/>
       <path d="M 46.390625 14.59375 
Q 46.390625 10.890625 44.9375 7.984375 
Q 43.5 5.078125 40.765625 3.09375 
Q 38.03125 1.125 34.046875 0.0625 
Q 30.078125 -0.984375 24.953125 -0.984375 
Q 20.359375 -0.984375 16.671875 -0.265625 
Q 12.984375 0.4375 10.203125 2 
Q 7.421875 3.5625 5.53125 6.125 
Q 3.65625 8.6875 2.78125 12.40625 
L 10.546875 13.921875 
Q 11.671875 9.671875 15.1875 7.6875 
Q 18.703125 5.71875 24.953125 5.71875 
Q 27.78125 5.71875 30.140625 6.109375 
Q 32.515625 6.5 34.21875 7.453125 
Q 35.9375 8.40625 36.890625 9.984375 
Q 37.84375 11.578125 37.84375 13.921875 
Q 37.84375 16.3125 36.71875 17.84375 
Q 35.59375 19.390625 33.59375 20.40625 
Q 31.59375 21.4375 28.734375 22.1875 
Q 25.875 22.953125 22.46875 23.875 
Q 19.28125 24.703125 16.15625 25.734375 
Q 13.03125 26.765625 10.515625 28.4375 
Q 8.015625 30.125 6.453125 32.609375 
Q 4.890625 35.109375 4.890625 38.875 
Q 4.890625 46.09375 10.03125 49.875 
Q 15.1875 53.65625 25.046875 53.65625 
Q 33.796875 53.65625 38.9375 50.578125 
Q 44.09375 47.515625 45.453125 40.71875 
L 37.546875 39.75 
Q 37.109375 41.796875 35.9375 43.1875 
Q 34.765625 44.578125 33.109375 45.4375 
Q 31.453125 46.296875 29.375 46.65625 
Q 27.296875 47.015625 25.046875 47.015625 
Q 19.09375 47.015625 16.25 45.203125 
Q 13.421875 43.40625 13.421875 39.75 
Q 13.421875 37.59375 14.46875 36.203125 
Q 15.53125 34.8125 17.40625 33.859375 
Q 19.28125 32.90625 21.921875 32.203125 
Q 24.5625 31.5 27.734375 30.71875 
Q 29.828125 30.171875 32.03125 29.5625 
Q 34.234375 28.953125 36.296875 28.09375 
Q 38.375 27.25 40.203125 26.09375 
Q 42.046875 24.953125 43.40625 23.34375 
Q 44.78125 21.734375 45.578125 19.578125 
Q 46.390625 17.4375 46.390625 14.59375 
z
" id="LiberationSans-115"/>
       <path d="M 27.09375 25.78125 
Q 27.09375 18.953125 26.0625 12.765625 
Q 25.046875 6.59375 22.84375 0.875 
Q 20.65625 -4.828125 17.234375 -10.203125 
Q 13.8125 -15.578125 9.078125 -20.703125 
L 0.59375 -20.703125 
Q 5.171875 -15.578125 8.515625 -10.203125 
Q 11.859375 -4.828125 14 0.921875 
Q 16.15625 6.6875 17.203125 12.890625 
Q 18.265625 19.09375 18.265625 25.875 
Q 18.265625 32.671875 17.203125 38.859375 
Q 16.15625 45.0625 14 50.796875 
Q 11.859375 56.546875 8.515625 61.9375 
Q 5.171875 67.328125 0.59375 72.46875 
L 9.078125 72.46875 
Q 13.8125 67.328125 17.234375 61.953125 
Q 20.65625 56.59375 22.84375 50.875 
Q 25.046875 45.171875 26.0625 38.96875 
Q 27.09375 32.765625 27.09375 25.984375 
z
" id="LiberationSans-41"/>
      </defs>
      <use transform="translate(0 0.53125)" xlink:href="#DejaVuSans-Oblique-116"/>
      <use transform="translate(39.208984 0.53125)" xlink:href="#LiberationSans-32"/>
      <use transform="translate(66.992188 0.53125)" xlink:href="#LiberationSans-40"/>
      <use transform="translate(100.292969 0.53125)" xlink:href="#LiberationSans-109"/>
      <use transform="translate(183.59375 0.53125)" xlink:href="#LiberationSans-115"/>
      <use transform="translate(233.59375 0.53125)" xlink:href="#LiberationSans-41"/>
     </g>
    </g>
   </g>
   <g id="matplotlib.axis_4">
    <g id="ytick_4">
     <g id="line2d_17">
      <g>
       <use style="fill:#ffffff;stroke:#ffffff;stroke-width:0.8;" x="57.6" xlink:href="#mcc38f8570e" y="196.008352"/>
      </g>
     </g>
     <g id="text_18">
      <!-- −0.5 -->
      <g style="fill:#ffffff;" transform="translate(30.859375 199.631789)scale(0.1 -0.1)">
       <defs>
        <path d="M 9.125 0 
L 9.125 10.6875 
L 18.65625 10.6875 
L 18.65625 0 
z
" id="LiberationSans-46"/>
        <path d="M 51.421875 22.40625 
Q 51.421875 17.234375 49.859375 12.9375 
Q 48.296875 8.640625 45.21875 5.53125 
Q 42.140625 2.4375 37.578125 0.71875 
Q 33.015625 -0.984375 27 -0.984375 
Q 21.578125 -0.984375 17.546875 0.28125 
Q 13.53125 1.5625 10.734375 3.78125 
Q 7.953125 6 6.3125 8.984375 
Q 4.6875 11.96875 4 15.375 
L 12.890625 16.40625 
Q 13.421875 14.453125 14.390625 12.625 
Q 15.375 10.796875 17.0625 9.34375 
Q 18.75 7.90625 21.21875 7.046875 
Q 23.6875 6.203125 27.203125 6.203125 
Q 30.609375 6.203125 33.390625 7.25 
Q 36.1875 8.296875 38.15625 10.34375 
Q 40.140625 12.40625 41.203125 15.375 
Q 42.28125 18.359375 42.28125 22.21875 
Q 42.28125 25.390625 41.25 28.046875 
Q 40.234375 30.71875 38.328125 32.640625 
Q 36.421875 34.578125 33.65625 35.640625 
Q 30.90625 36.71875 27.390625 36.71875 
Q 25.203125 36.71875 23.34375 36.328125 
Q 21.484375 35.9375 19.890625 35.25 
Q 18.3125 34.578125 17.015625 33.671875 
Q 15.71875 32.765625 14.59375 31.78125 
L 6 31.78125 
L 8.296875 68.796875 
L 47.40625 68.796875 
L 47.40625 61.328125 
L 16.3125 61.328125 
L 14.984375 39.5 
Q 17.328125 41.3125 20.84375 42.59375 
Q 24.359375 43.890625 29.203125 43.890625 
Q 34.328125 43.890625 38.421875 42.328125 
Q 42.53125 40.765625 45.40625 37.90625 
Q 48.296875 35.0625 49.859375 31.109375 
Q 51.421875 27.15625 51.421875 22.40625 
z
" id="LiberationSans-53"/>
       </defs>
       <use xlink:href="#LiberationSans-8722"/>
       <use x="58.398438" xlink:href="#LiberationSans-48"/>
       <use x="114.013672" xlink:href="#LiberationSans-46"/>
       <use x="141.796875" xlink:href="#LiberationSans-53"/>
      </g>
     </g>
    </g>
    <g id="ytick_5">
     <g id="line2d_18">
      <g>
       <use style="fill:#ffffff;stroke:#ffffff;stroke-width:0.8;" x="57.6" xlink:href="#mcc38f8570e" y="170.323149"/>
      </g>
     </g>
     <g id="text_19">
      <!-- 0.0 -->
      <g style="fill:#ffffff;" transform="translate(36.7 173.946586)scale(0.1 -0.1)">
       <use xlink:href="#LiberationSans-48"/>
       <use x="55.615234" xlink:href="#LiberationSans-46"/>
       <use x="83.398438" xlink:href="#LiberationSans-48"/>
      </g>
     </g>
    </g>
    <g id="ytick_6">
     <g id="line2d_19">
      <g>
       <use style="fill:#ffffff;stroke:#ffffff;stroke-width:0.8;" x="57.6" xlink:href="#mcc38f8570e" y="144.637946"/>
      </g>
     </g>
     <g id="text_20">
      <!-- 0.5 -->
      <g style="fill:#ffffff;" transform="translate(36.7 148.261383)scale(0.1 -0.1)">
       <use xlink:href="#LiberationSans-48"/>
       <use x="55.615234" xlink:href="#LiberationSans-46"/>
       <use x="83.398438" xlink:href="#LiberationSans-53"/>
      </g>
     </g>
    </g>
    <g id="text_21">
     <!-- $u$ -->
     <g style="fill:#ffffff;" transform="translate(24.784375 177.728)rotate(-90)scale(0.1 -0.1)">
      <use transform="translate(0 0.3125)" xlink:href="#DejaVuSans-Oblique-117"/>
     </g>
    </g>
   </g>
   <g id="line2d_20">
    <path clip-path="url(#p8bf6364d09)" d="M 73.832727 174.056044 
L 73.962615 174.291054 
L 74.092503 179.450999 
L 74.157447 178.518058 
L 74.222391 178.591753 
L 75.651156 180.039822 
L 77.144866 181.248914 
L 78.768464 182.283138 
L 79.028239 182.425916 
L 79.093183 165.944566 
L 79.158127 166.143369 
L 80.457005 169.72907 
L 81.755883 172.664794 
L 83.054761 175.068361 
L 83.509368 175.802299 
L 83.574312 159.386856 
L 83.639256 159.650909 
L 84.87319 164.197305 
L 86.172068 168.135767 
L 87.470946 171.360307 
L 87.925553 172.344933 
L 87.990497 155.963891 
L 88.055441 156.262004 
L 89.289375 161.394818 
L 90.523309 165.639446 
L 91.822187 169.316493 
L 91.887131 152.965584 
L 91.952075 153.29353 
L 92.991177 158.118214 
L 93.056121 201.286387 
L 93.121065 201.133533 
L 94.419943 198.376593 
L 94.939494 197.419227 
L 95.004438 180.788691 
L 95.069382 180.839793 
L 96.692979 181.964514 
L 98.446465 182.901515 
L 99.290735 183.270024 
L 99.355679 166.780276 
L 99.420623 166.970763 
L 100.719501 170.406483 
L 102.018379 173.219412 
L 103.317257 175.522444 
L 103.512089 175.82987 
L 103.577032 162.206098 
L 103.641976 162.442099 
L 104.87591 166.505505 
L 106.174788 170.025562 
L 107.473666 172.90754 
L 107.928274 173.787563 
L 107.993218 157.392167 
L 108.058161 157.676068 
L 109.292096 162.564192 
L 110.52603 166.60647 
L 111.824908 170.108225 
L 112.474347 171.613337 
L 112.53929 155.239575 
L 112.604234 155.544895 
L 113.838168 160.801798 
L 115.072102 165.149043 
L 116.37098 168.914984 
L 116.435924 152.568071 
L 116.500868 152.899973 
L 117.734802 158.614556 
L 118.968736 163.340283 
L 120.20267 167.248266 
L 120.397502 167.80023 
L 120.462446 151.464409 
L 120.52739 151.807292 
L 121.761324 157.710954 
L 122.995258 162.593041 
L 124.099304 166.24056 
L 124.164248 149.920258 
L 124.229192 150.278506 
L 125.463126 156.44671 
L 126.69706 161.547563 
L 127.930994 165.765759 
L 128.19077 166.556193 
L 128.255714 153.024696 
L 128.320658 153.352054 
L 129.554592 158.988409 
L 130.788526 163.649444 
L 132.087404 167.687216 
L 133.061562 170.227517 
L 133.126506 153.867544 
L 133.19145 154.186515 
L 134.425384 159.678474 
L 135.659318 164.2201 
L 136.958196 168.15443 
L 137.412803 169.355793 
L 137.477747 153.004493 
L 137.542691 153.332052 
L 138.776625 158.971868 
L 139.620896 161.29109 
L 139.68584 144.936079 
L 139.750784 145.259225 
L 139.815728 145.578415 
L 139.880671 188.785186 
L 139.945615 188.669806 
L 142.02382 185.172658 
L 143.972137 184.404128 
L 145.85551 183.851142 
L 145.920454 177.345231 
L 145.985398 177.393611 
L 147.608995 178.458426 
L 149.36248 179.34552 
L 150.336639 179.744163 
L 150.401583 163.252513 
L 150.466527 163.441117 
L 151.765405 166.842875 
L 153.064283 169.627998 
L 154.363161 171.908264 
L 155.726982 173.859091 
L 155.85687 174.024399 
L 155.921814 157.589662 
L 155.986758 157.834613 
L 157.220692 162.052108 
L 158.51957 165.70565 
L 159.818448 168.696917 
L 160.792607 170.578826 
L 160.85755 154.178372 
L 160.922494 154.457266 
L 162.156428 159.25918 
L 163.390362 163.230167 
L 164.68924 166.670164 
L 165.988118 169.486594 
L 166.442726 170.346602 
L 166.50767 153.948459 
L 166.572613 154.229641 
L 167.806547 159.070944 
L 169.040482 163.074503 
L 170.33936 166.542717 
L 170.923855 167.890961 
L 170.988798 161.543856 
L 171.053742 161.749462 
L 171.573294 163.694047 
L 173.067003 169.284121 
L 173.391723 170.387616 
L 173.456667 154.087815 
L 173.521611 154.4671 
L 174.625657 160.325761 
L 175.859591 164.75538 
L 176.963637 168.064849 
L 177.028581 162.845724 
L 177.093525 163.075362 
L 177.288357 163.750654 
L 177.3533 163.087928 
L 177.418244 163.315155 
L 178.652178 167.227486 
L 179.301617 169.006737 
L 179.366561 152.658911 
L 179.431505 152.989908 
L 179.821169 154.907866 
L 179.886112 198.107983 
L 179.951056 197.986755 
L 181.249934 195.800229 
L 182.224093 194.424611 
L 182.289037 177.823873 
L 182.353981 177.904475 
L 183.782746 179.488268 
L 185.276456 180.810686 
L 186.900053 181.941846 
L 187.549492 182.32084 
L 187.614436 165.840536 
L 187.67938 166.040375 
L 188.978258 169.644745 
L 190.082304 172.189835 
L 190.147248 155.810336 
L 190.212192 156.109977 
L 191.446126 161.269098 
L 192.68006 165.535481 
L 193.978938 169.231373 
L 194.953097 171.556585 
L 195.018041 155.183387 
L 195.082985 155.489266 
L 196.316919 160.755796 
L 197.550853 165.111 
L 198.849731 168.883838 
L 199.434226 170.350503 
L 199.49917 156.781252 
L 199.564114 157.071231 
L 200.798048 162.064016 
L 202.031982 166.192846 
L 203.33086 169.769578 
L 203.460747 170.089466 
L 203.525691 153.730866 
L 203.590635 154.051198 
L 204.110186 156.055689 
L 205.214233 159.391713 
L 206.253335 161.872494 
L 207.487269 164.715032 
L 208.786147 167.885868 
L 209.435586 169.248746 
L 209.50053 152.861527 
L 209.565474 153.153524 
L 210.799408 158.181039 
L 212.033342 162.338588 
L 213.33222 165.9402 
L 214.241434 168.065381 
L 214.306378 161.716541 
L 214.371322 161.920429 
L 215.6702 165.597841 
L 216.969078 168.60865 
L 218.073124 170.73462 
L 218.138068 154.332616 
L 218.203012 154.609975 
L 219.436946 159.385465 
L 220.67088 163.334599 
L 221.969758 166.755665 
L 223.268636 169.556597 
L 224.567514 171.849806 
L 224.697402 172.054901 
L 224.762346 155.63976 
L 224.82729 155.904113 
L 226.061224 160.455664 
L 227.360102 164.398592 
L 227.749765 165.435699 
L 227.814709 208.494077 
L 227.879653 208.232521 
L 228.269316 206.716938 
L 228.399204 199.806634 
L 229.698082 196.616441 
L 230.99696 194.004533 
L 232.230894 191.963154 
L 232.295838 175.349923 
L 232.360782 175.418156 
L 233.854492 176.813126 
L 235.413145 177.964123 
L 236.32236 178.667158 
L 237.296518 180.296102 
L 237.361462 163.885875 
L 237.426406 164.155832 
L 238.920116 169.864866 
L 239.699442 172.208346 
L 239.82933 172.479943 
L 239.894274 156.097558 
L 239.959218 156.39434 
L 241.193152 161.504255 
L 242.427086 165.729946 
L 243.725964 169.390588 
L 243.98574 170.03889 
L 244.050684 153.680793 
L 244.115627 154.001623 
L 245.349562 159.525576 
L 246.583496 164.093659 
L 247.752486 167.68984 
L 247.81743 151.355117 
L 247.882374 151.699087 
L 249.116308 157.621473 
L 250.350242 162.519044 
L 251.584176 166.569135 
L 252.298559 168.585297 
L 252.363503 152.241665 
L 252.428446 152.576814 
L 253.66238 158.347317 
L 254.896315 163.119287 
L 255.675641 165.698084 
L 255.740585 149.38318 
L 255.805529 149.746771 
L 255.870473 150.106745 
L 255.935417 193.354634 
L 256.000361 193.280702 
L 257.429127 191.82798 
L 258.922836 190.615002 
L 259.247556 190.386241 
L 259.3125 173.825685 
L 259.377443 173.94607 
L 260.676321 176.117381 
L 262.040143 177.974993 
L 263.468909 179.54486 
L 263.598797 179.671185 
L 263.663741 166.009191 
L 263.728685 166.207351 
L 265.027563 169.781454 
L 266.326441 172.707682 
L 267.365543 174.661862 
L 267.430487 158.257767 
L 267.495431 158.533055 
L 268.729365 163.272885 
L 269.963299 167.19253 
L 271.262177 170.58805 
L 271.521952 171.189399 
L 271.586896 154.819855 
L 271.65184 155.129351 
L 272.885774 160.458161 
L 274.119708 164.864869 
L 275.418586 168.682322 
L 275.548474 169.023739 
L 275.613418 138.951529 
L 275.678362 139.418918 
L 276.197913 142.994433 
L 276.262857 186.31309 
L 276.327801 186.309223 
L 281.133649 186.108028 
L 281.198593 169.590041 
L 281.263537 169.752571 
L 282.562415 172.684034 
L 283.861293 175.084114 
L 285.225115 177.137443 
L 285.290059 177.224875 
L 285.355003 160.795277 
L 285.419947 161.045317 
L 286.653881 165.350423 
L 287.952759 169.07986 
L 289.251637 172.133265 
L 289.706244 173.065634 
L 289.771188 156.677422 
L 289.836132 156.968434 
L 291.070066 161.979007 
L 292.304 166.122547 
L 293.018383 168.185229 
L 293.083326 151.845577 
L 293.14827 152.184667 
L 294.382204 158.023027 
L 295.616139 162.851113 
L 296.850073 166.843742 
L 298.084007 170.145484 
L 298.148951 156.578273 
L 298.213894 156.870272 
L 299.447828 161.897831 
L 300.681763 166.055417 
L 301.720865 168.993176 
L 301.785809 152.645485 
L 301.850753 152.976616 
L 303.084687 158.677937 
L 304.318621 163.392696 
L 305.552555 167.29161 
L 305.81233 168.022214 
L 305.877274 151.684184 
L 305.942218 152.02488 
L 307.176152 157.89089 
L 308.410086 162.741841 
L 308.79975 164.09189 
L 308.864694 147.792968 
L 308.929638 148.172382 
L 310.163572 154.705032 
L 310.748067 157.39205 
L 310.813011 200.567449 
L 310.877954 200.421748 
L 312.176832 197.793833 
L 312.371664 197.44304 
L 312.436608 180.812267 
L 312.501552 180.863135 
L 314.125149 181.982692 
L 315.878635 182.915392 
L 315.943579 182.945332 
L 316.008522 166.458815 
L 316.073466 166.652501 
L 317.372344 170.145912 
L 318.671222 173.006075 
L 319.9701 175.347778 
L 320.944259 176.821023 
L 321.009203 160.395444 
L 321.074146 160.649462 
L 322.308081 165.023067 
L 323.606958 168.811844 
L 323.80179 169.317597 
L 323.866734 152.966678 
L 323.931678 153.294613 
L 325.165612 158.940908 
L 325.360444 159.738392 
L 325.425388 202.890444 
L 325.490332 202.72163 
L 326.789209 199.676817 
L 327.178873 198.875941 
L 327.243817 182.230911 
L 327.308761 182.267662 
L 329.12719 183.160708 
L 331.140451 183.897391 
L 331.919777 184.126609 
L 331.984721 170.420284 
L 332.049665 170.574553 
L 333.348543 173.357016 
L 333.80315 174.429672 
L 334.322702 175.925299 
L 334.387646 159.591109 
L 334.452589 159.936347 
L 335.881355 166.894839 
L 336.985401 171.391706 
L 337.050345 166.176463 
L 337.115289 171.389075 
L 337.180233 148.564973 
L 337.245177 148.973691 
L 338.479111 156.010875 
L 339.713045 161.830339 
L 340.946979 166.642797 
L 341.79125 169.446438 
L 341.856194 153.131221 
L 341.921138 153.494504 
L 343.155072 159.749403 
L 344.389006 164.921948 
L 345.103389 167.496876 
L 345.168333 153.993004 
L 345.233276 154.347712 
L 346.467211 160.454971 
L 347.701145 165.505424 
L 348.740247 169.074085 
L 348.805191 152.762574 
L 348.870135 153.129525 
L 350.104069 159.44758 
L 351.338003 164.672353 
L 351.597778 165.651405 
L 351.662722 160.493279 
L 351.727666 160.783308 
L 351.857554 161.354738 
L 351.922498 160.752836 
L 351.987442 161.040283 
L 353.221376 165.989453 
L 353.481152 166.916861 
L 353.546095 150.626814 
L 353.611039 151.015016 
L 354.844973 157.698968 
L 356.078907 163.226322 
L 356.663402 165.499841 
L 356.728346 160.343223 
L 356.79329 160.634745 
L 358.027224 165.65409 
L 359.261158 169.804884 
L 359.45599 170.391143 
L 359.520934 154.066526 
L 359.585878 154.420503 
L 359.650822 159.750089 
L 359.715766 153.557957 
L 359.78071 153.916993 
L 361.014644 160.098784 
L 362.248578 165.210872 
L 362.833073 167.313583 
L 362.898017 162.138918 
L 362.962961 162.412573 
L 364.196895 167.124281 
L 364.911278 169.469801 
L 364.976221 153.154352 
L 365.041165 153.517405 
L 366.145212 159.090524 
L 366.340043 159.768223 
L 366.404987 202.879664 
L 366.469931 202.669903 
L 368.093529 197.830854 
L 368.678024 196.258591 
L 368.807911 179.56818 
L 369.392406 179.571723 
L 370.886116 180.876994 
L 372.509714 181.993486 
L 373.873535 182.738072 
L 373.938479 166.253616 
L 374.003423 166.449344 
L 374.198255 167.024921 
L 374.263199 210.104471 
L 374.328143 209.863875 
L 375.562077 205.721376 
L 376.860955 202.132801 
L 377.44545 200.737767 
L 377.510394 184.074212 
L 377.575338 184.092622 
L 380.043206 184.671732 
L 380.627701 184.779551 
L 380.692645 168.274783 
L 380.757589 168.4504 
L 382.056467 171.617907 
L 383.355345 174.211242 
L 384.654222 176.334486 
L 384.719166 159.913747 
L 384.78411 160.172558 
L 386.018044 164.628687 
L 387.316922 168.488953 
L 388.6158 171.649471 
L 388.745688 171.932135 
L 388.810632 158.347146 
L 388.875576 158.621545 
L 390.10951 163.346063 
L 391.343444 167.253045 
L 392.642322 170.637596 
L 392.967041 171.383144 
L 393.031985 155.011673 
L 393.096929 155.31926 
L 393.161873 198.515283 
L 393.226817 198.390002 
L 394.525695 196.13038 
L 395.889517 194.197215 
L 396.474012 193.485188 
L 396.538956 176.893797 
L 396.6039 176.983653 
L 397.967722 178.67718 
L 398.487273 179.234376 
L 398.487273 179.234376 
" style="fill:none;stroke:#9a72ac;stroke-linecap:round;stroke-width:1.5;"/>
   </g>
   <g id="patch_8">
    <path d="M 57.6 213.662118 
L 57.6 135.393882 
" style="fill:none;stroke:#ffffff;stroke-linecap:square;stroke-linejoin:miter;stroke-width:0.8;"/>
   </g>
   <g id="patch_9">
    <path d="M 414.72 213.662118 
L 414.72 135.393882 
" style="fill:none;stroke:#ffffff;stroke-linecap:square;stroke-linejoin:miter;stroke-width:0.8;"/>
   </g>
   <g id="patch_10">
    <path d="M 57.6 213.662118 
L 414.72 213.662118 
" style="fill:none;stroke:#ffffff;stroke-linecap:square;stroke-linejoin:miter;stroke-width:0.8;"/>
   </g>
   <g id="patch_11">
    <path d="M 57.6 135.393882 
L 414.72 135.393882 
" style="fill:none;stroke:#ffffff;stroke-linecap:square;stroke-linejoin:miter;stroke-width:0.8;"/>
   </g>
  </g>
  <g id="text_22">
   <!-- M2 - $u$ -->
   <g style="fill:#ffffff;" transform="translate(212.88 15.60825)scale(0.12 -0.12)">
    <defs>
     <path d="M 66.703125 0 
L 66.703125 45.90625 
Q 66.703125 48.390625 66.75 50.96875 
Q 66.796875 53.5625 66.890625 55.71875 
Q 67 58.203125 67.140625 60.546875 
Q 66.453125 58.0625 65.71875 55.609375 
Q 65.09375 53.515625 64.328125 51.140625 
Q 63.578125 48.78125 62.84375 46.875 
L 45.0625 0 
L 38.53125 0 
L 20.515625 46.875 
Q 20.21875 47.609375 19.890625 48.578125 
Q 19.578125 49.5625 19.203125 50.65625 
Q 18.84375 51.765625 18.46875 52.90625 
Q 18.109375 54.046875 17.78125 55.171875 
Q 16.9375 57.765625 16.15625 60.546875 
Q 16.21875 57.8125 16.3125 55.125 
Q 16.40625 52.828125 16.453125 50.3125 
Q 16.5 47.796875 16.5 45.90625 
L 16.5 0 
L 8.203125 0 
L 8.203125 68.796875 
L 20.453125 68.796875 
L 38.765625 21.09375 
Q 39.109375 20.125 39.59375 18.578125 
Q 40.09375 17.046875 40.53125 15.421875 
Q 40.96875 13.8125 41.328125 12.375 
Q 41.703125 10.9375 41.84375 10.15625 
Q 42 10.9375 42.390625 12.40625 
Q 42.78125 13.875 43.28125 15.484375 
Q 43.796875 17.09375 44.28125 18.609375 
Q 44.78125 20.125 45.171875 21.09375 
L 63.140625 68.796875 
L 75.09375 68.796875 
L 75.09375 0 
z
" id="LiberationSans-77"/>
     <path d="M 4.4375 22.65625 
L 4.4375 30.46875 
L 28.859375 30.46875 
L 28.859375 22.65625 
z
" id="LiberationSans-45"/>
    </defs>
    <use transform="translate(0 0.171875)" xlink:href="#LiberationSans-77"/>
    <use transform="translate(83.300781 0.171875)" xlink:href="#LiberationSans-50"/>
    <use transform="translate(138.916016 0.171875)" xlink:href="#LiberationSans-32"/>
    <use transform="translate(166.699219 0.171875)" xlink:href="#LiberationSans-45"/>
    <use transform="translate(200 0.171875)" xlink:href="#LiberationSans-32"/>
    <use transform="translate(227.783203 0.171875)" xlink:href="#DejaVuSans-Oblique-117"/>
   </g>
  </g>
 </g>
 <defs>
  <clipPath id="p4ef0278b9a">
   <rect height="78.268235" width="357.12" x="57.6" y="41.472"/>
  </clipPath>
  <clipPath id="p8bf6364d09">
   <rect height="78.268235" width="357.12" x="57.6" y="135.393882"/>
  </clipPath>
 </defs>
</svg>
