<?xml version="1.0" encoding="utf-8" standalone="no"?>
<!DOCTYPE svg PUBLIC "-//W3C//DTD SVG 1.1//EN"
  "http://www.w3.org/Graphics/SVG/1.1/DTD/svg11.dtd">
<!-- Created with matplotlib (https://matplotlib.org/) -->
<svg height="345.6pt" version="1.1" viewBox="0 0 460.8 345.6" width="460.8pt" xmlns="http://www.w3.org/2000/svg" xmlns:xlink="http://www.w3.org/1999/xlink">
 <metadata>
  <rdf:RDF xmlns:cc="http://creativecommons.org/ns#" xmlns:dc="http://purl.org/dc/elements/1.1/" xmlns:rdf="http://www.w3.org/1999/02/22-rdf-syntax-ns#">
   <cc:Work>
    <dc:type rdf:resource="http://purl.org/dc/dcmitype/StillImage"/>
    <dc:date>2022-05-06T11:18:26.197946</dc:date>
    <dc:format>image/svg+xml</dc:format>
    <dc:creator>
     <cc:Agent>
      <dc:title>Matplotlib v3.3.4, https://matplotlib.org/</dc:title>
     </cc:Agent>
    </dc:creator>
   </cc:Work>
  </rdf:RDF>
 </metadata>
 <defs>
  <style type="text/css">*{stroke-linecap:butt;stroke-linejoin:round;}</style>
 </defs>
 <g id="figure_1">
  <g id="patch_1">
   <path d="M 0 345.6 
L 460.8 345.6 
L 460.8 0 
L 0 0 
z
" style="fill:#262626;"/>
  </g>
  <g id="axes_1">
   <g id="patch_2">
    <path d="M 57.6 307.584 
L 414.72 307.584 
L 414.72 41.472 
L 57.6 41.472 
z
" style="fill:#1a1a1a;"/>
   </g>
   <g id="matplotlib.axis_1">
    <g id="xtick_1">
     <g id="line2d_1">
      <defs>
       <path d="M 0 0 
L 0 3.5 
" id="m1f77a4fe3f" style="stroke:#ffffff;stroke-width:0.8;"/>
      </defs>
      <g>
       <use style="fill:#ffffff;stroke:#ffffff;stroke-width:0.8;" x="73.020685" xlink:href="#m1f77a4fe3f" y="307.584"/>
      </g>
     </g>
     <g id="text_1">
      <!-- 0 -->
      <g style="fill:#ffffff;" transform="translate(70.240216 321.830875)scale(0.1 -0.1)">
       <defs>
        <path d="M 51.703125 34.421875 
Q 51.703125 24.515625 49.828125 17.75 
Q 47.953125 10.984375 44.703125 6.8125 
Q 41.453125 2.640625 37.0625 0.828125 
Q 32.671875 -0.984375 27.6875 -0.984375 
Q 22.65625 -0.984375 18.3125 0.828125 
Q 13.96875 2.640625 10.765625 6.78125 
Q 7.5625 10.9375 5.734375 17.703125 
Q 3.90625 24.46875 3.90625 34.421875 
Q 3.90625 44.828125 5.734375 51.640625 
Q 7.5625 58.453125 10.78125 62.5 
Q 14.015625 66.546875 18.40625 68.1875 
Q 22.796875 69.828125 27.984375 69.828125 
Q 32.90625 69.828125 37.21875 68.1875 
Q 41.546875 66.546875 44.765625 62.5 
Q 48 58.453125 49.84375 51.640625 
Q 51.703125 44.828125 51.703125 34.421875 
z
M 42.78125 34.421875 
Q 42.78125 42.625 41.796875 48.0625 
Q 40.828125 53.515625 38.921875 56.765625 
Q 37.015625 60.015625 34.25 61.359375 
Q 31.5 62.703125 27.984375 62.703125 
Q 24.265625 62.703125 21.4375 61.328125 
Q 18.609375 59.96875 16.671875 56.71875 
Q 14.75 53.46875 13.765625 48.015625 
Q 12.796875 42.578125 12.796875 34.421875 
Q 12.796875 26.515625 13.796875 21.09375 
Q 14.796875 15.671875 16.71875 12.375 
Q 18.65625 9.078125 21.4375 7.640625 
Q 24.21875 6.203125 27.78125 6.203125 
Q 31.25 6.203125 34.03125 7.640625 
Q 36.8125 9.078125 38.734375 12.375 
Q 40.671875 15.671875 41.71875 21.09375 
Q 42.78125 26.515625 42.78125 34.421875 
z
" id="LiberationSans-48"/>
       </defs>
       <use xlink:href="#LiberationSans-48"/>
      </g>
     </g>
    </g>
    <g id="xtick_2">
     <g id="line2d_2">
      <g>
       <use style="fill:#ffffff;stroke:#ffffff;stroke-width:0.8;" x="113.622804" xlink:href="#m1f77a4fe3f" y="307.584"/>
      </g>
     </g>
     <g id="text_2">
      <!-- 50 -->
      <g style="fill:#ffffff;" transform="translate(108.061867 321.830875)scale(0.1 -0.1)">
       <defs>
        <path d="M 51.421875 22.40625 
Q 51.421875 17.234375 49.859375 12.9375 
Q 48.296875 8.640625 45.21875 5.53125 
Q 42.140625 2.4375 37.578125 0.71875 
Q 33.015625 -0.984375 27 -0.984375 
Q 21.578125 -0.984375 17.546875 0.28125 
Q 13.53125 1.5625 10.734375 3.78125 
Q 7.953125 6 6.3125 8.984375 
Q 4.6875 11.96875 4 15.375 
L 12.890625 16.40625 
Q 13.421875 14.453125 14.390625 12.625 
Q 15.375 10.796875 17.0625 9.34375 
Q 18.75 7.90625 21.21875 7.046875 
Q 23.6875 6.203125 27.203125 6.203125 
Q 30.609375 6.203125 33.390625 7.25 
Q 36.1875 8.296875 38.15625 10.34375 
Q 40.140625 12.40625 41.203125 15.375 
Q 42.28125 18.359375 42.28125 22.21875 
Q 42.28125 25.390625 41.25 28.046875 
Q 40.234375 30.71875 38.328125 32.640625 
Q 36.421875 34.578125 33.65625 35.640625 
Q 30.90625 36.71875 27.390625 36.71875 
Q 25.203125 36.71875 23.34375 36.328125 
Q 21.484375 35.9375 19.890625 35.25 
Q 18.3125 34.578125 17.015625 33.671875 
Q 15.71875 32.765625 14.59375 31.78125 
L 6 31.78125 
L 8.296875 68.796875 
L 47.40625 68.796875 
L 47.40625 61.328125 
L 16.3125 61.328125 
L 14.984375 39.5 
Q 17.328125 41.3125 20.84375 42.59375 
Q 24.359375 43.890625 29.203125 43.890625 
Q 34.328125 43.890625 38.421875 42.328125 
Q 42.53125 40.765625 45.40625 37.90625 
Q 48.296875 35.0625 49.859375 31.109375 
Q 51.421875 27.15625 51.421875 22.40625 
z
" id="LiberationSans-53"/>
       </defs>
       <use xlink:href="#LiberationSans-53"/>
       <use x="55.615234" xlink:href="#LiberationSans-48"/>
      </g>
     </g>
    </g>
    <g id="xtick_3">
     <g id="line2d_3">
      <g>
       <use style="fill:#ffffff;stroke:#ffffff;stroke-width:0.8;" x="154.224923" xlink:href="#m1f77a4fe3f" y="307.584"/>
      </g>
     </g>
     <g id="text_3">
      <!-- 100 -->
      <g style="fill:#ffffff;" transform="translate(145.883517 321.830875)scale(0.1 -0.1)">
       <defs>
        <path d="M 7.625 0 
L 7.625 7.46875 
L 25.140625 7.46875 
L 25.140625 60.40625 
L 9.625 49.3125 
L 9.625 57.625 
L 25.875 68.796875 
L 33.984375 68.796875 
L 33.984375 7.46875 
L 50.734375 7.46875 
L 50.734375 0 
z
" id="LiberationSans-49"/>
       </defs>
       <use xlink:href="#LiberationSans-49"/>
       <use x="55.615234" xlink:href="#LiberationSans-48"/>
       <use x="111.230469" xlink:href="#LiberationSans-48"/>
      </g>
     </g>
    </g>
    <g id="xtick_4">
     <g id="line2d_4">
      <g>
       <use style="fill:#ffffff;stroke:#ffffff;stroke-width:0.8;" x="194.827043" xlink:href="#m1f77a4fe3f" y="307.584"/>
      </g>
     </g>
     <g id="text_4">
      <!-- 150 -->
      <g style="fill:#ffffff;" transform="translate(186.485636 321.830875)scale(0.1 -0.1)">
       <use xlink:href="#LiberationSans-49"/>
       <use x="55.615234" xlink:href="#LiberationSans-53"/>
       <use x="111.230469" xlink:href="#LiberationSans-48"/>
      </g>
     </g>
    </g>
    <g id="xtick_5">
     <g id="line2d_5">
      <g>
       <use style="fill:#ffffff;stroke:#ffffff;stroke-width:0.8;" x="235.429162" xlink:href="#m1f77a4fe3f" y="307.584"/>
      </g>
     </g>
     <g id="text_5">
      <!-- 200 -->
      <g style="fill:#ffffff;" transform="translate(227.087756 321.830875)scale(0.1 -0.1)">
       <defs>
        <path d="M 5.03125 0 
L 5.03125 6.203125 
Q 7.515625 11.921875 11.109375 16.28125 
Q 14.703125 20.65625 18.65625 24.1875 
Q 22.609375 27.734375 26.484375 30.765625 
Q 30.375 33.796875 33.5 36.8125 
Q 36.625 39.84375 38.546875 43.15625 
Q 40.484375 46.484375 40.484375 50.6875 
Q 40.484375 53.609375 39.59375 55.828125 
Q 38.71875 58.0625 37.0625 59.5625 
Q 35.40625 61.078125 33.078125 61.828125 
Q 30.765625 62.59375 27.9375 62.59375 
Q 25.296875 62.59375 22.96875 61.859375 
Q 20.65625 61.140625 18.84375 59.671875 
Q 17.046875 58.203125 15.890625 56.03125 
Q 14.75 53.859375 14.40625 50.984375 
L 5.421875 51.8125 
Q 5.859375 55.515625 7.46875 58.78125 
Q 9.078125 62.0625 11.90625 64.53125 
Q 14.75 67 18.71875 68.40625 
Q 22.703125 69.828125 27.9375 69.828125 
Q 33.0625 69.828125 37.0625 68.609375 
Q 41.0625 67.390625 43.8125 64.984375 
Q 46.578125 62.59375 48.046875 59.078125 
Q 49.515625 55.5625 49.515625 50.984375 
Q 49.515625 47.515625 48.265625 44.390625 
Q 47.015625 41.265625 44.9375 38.421875 
Q 42.875 35.59375 40.140625 32.953125 
Q 37.40625 30.328125 34.421875 27.8125 
Q 31.453125 25.296875 28.421875 22.828125 
Q 25.390625 20.359375 22.71875 17.859375 
Q 20.0625 15.375 17.96875 12.8125 
Q 15.875 10.25 14.703125 7.46875 
L 50.59375 7.46875 
L 50.59375 0 
z
" id="LiberationSans-50"/>
       </defs>
       <use xlink:href="#LiberationSans-50"/>
       <use x="55.615234" xlink:href="#LiberationSans-48"/>
       <use x="111.230469" xlink:href="#LiberationSans-48"/>
      </g>
     </g>
    </g>
    <g id="xtick_6">
     <g id="line2d_6">
      <g>
       <use style="fill:#ffffff;stroke:#ffffff;stroke-width:0.8;" x="276.031281" xlink:href="#m1f77a4fe3f" y="307.584"/>
      </g>
     </g>
     <g id="text_6">
      <!-- 250 -->
      <g style="fill:#ffffff;" transform="translate(267.689875 321.830875)scale(0.1 -0.1)">
       <use xlink:href="#LiberationSans-50"/>
       <use x="55.615234" xlink:href="#LiberationSans-53"/>
       <use x="111.230469" xlink:href="#LiberationSans-48"/>
      </g>
     </g>
    </g>
    <g id="xtick_7">
     <g id="line2d_7">
      <g>
       <use style="fill:#ffffff;stroke:#ffffff;stroke-width:0.8;" x="316.6334" xlink:href="#m1f77a4fe3f" y="307.584"/>
      </g>
     </g>
     <g id="text_7">
      <!-- 300 -->
      <g style="fill:#ffffff;" transform="translate(308.291994 321.830875)scale(0.1 -0.1)">
       <defs>
        <path d="M 51.21875 19 
Q 51.21875 14.265625 49.671875 10.546875 
Q 48.140625 6.84375 45.1875 4.265625 
Q 42.234375 1.703125 37.859375 0.359375 
Q 33.5 -0.984375 27.875 -0.984375 
Q 21.484375 -0.984375 17.109375 0.609375 
Q 12.75 2.203125 9.90625 4.8125 
Q 7.078125 7.421875 5.65625 10.765625 
Q 4.25 14.109375 3.8125 17.671875 
L 12.890625 18.5 
Q 13.28125 15.765625 14.328125 13.515625 
Q 15.375 11.28125 17.1875 9.671875 
Q 19 8.0625 21.625 7.171875 
Q 24.265625 6.296875 27.875 6.296875 
Q 34.515625 6.296875 38.296875 9.5625 
Q 42.09375 12.84375 42.09375 19.28125 
Q 42.09375 23.09375 40.40625 25.40625 
Q 38.71875 27.734375 36.203125 29.03125 
Q 33.6875 30.328125 30.734375 30.765625 
Q 27.78125 31.203125 25.296875 31.203125 
L 20.3125 31.203125 
L 20.3125 38.8125 
L 25.09375 38.8125 
Q 27.59375 38.8125 30.265625 39.328125 
Q 32.953125 39.84375 35.171875 41.1875 
Q 37.40625 42.53125 38.84375 44.828125 
Q 40.28125 47.125 40.28125 50.6875 
Q 40.28125 56.203125 37.03125 59.390625 
Q 33.796875 62.59375 27.390625 62.59375 
Q 21.578125 62.59375 17.984375 59.609375 
Q 14.40625 56.640625 13.8125 51.21875 
L 4.984375 51.90625 
Q 5.515625 56.453125 7.46875 59.8125 
Q 9.421875 63.1875 12.421875 65.40625 
Q 15.4375 67.625 19.28125 68.71875 
Q 23.140625 69.828125 27.484375 69.828125 
Q 33.25 69.828125 37.390625 68.375 
Q 41.546875 66.9375 44.1875 64.46875 
Q 46.828125 62.015625 48.0625 58.6875 
Q 49.3125 55.375 49.3125 51.609375 
Q 49.3125 48.578125 48.484375 45.9375 
Q 47.65625 43.3125 45.890625 41.203125 
Q 44.140625 39.109375 41.421875 37.59375 
Q 38.71875 36.078125 34.90625 35.296875 
L 34.90625 35.109375 
Q 39.0625 34.671875 42.140625 33.21875 
Q 45.21875 31.78125 47.21875 29.625 
Q 49.21875 27.484375 50.21875 24.75 
Q 51.21875 22.015625 51.21875 19 
z
" id="LiberationSans-51"/>
       </defs>
       <use xlink:href="#LiberationSans-51"/>
       <use x="55.615234" xlink:href="#LiberationSans-48"/>
       <use x="111.230469" xlink:href="#LiberationSans-48"/>
      </g>
     </g>
    </g>
    <g id="xtick_8">
     <g id="line2d_8">
      <g>
       <use style="fill:#ffffff;stroke:#ffffff;stroke-width:0.8;" x="357.23552" xlink:href="#m1f77a4fe3f" y="307.584"/>
      </g>
     </g>
     <g id="text_8">
      <!-- 350 -->
      <g style="fill:#ffffff;" transform="translate(348.894113 321.830875)scale(0.1 -0.1)">
       <use xlink:href="#LiberationSans-51"/>
       <use x="55.615234" xlink:href="#LiberationSans-53"/>
       <use x="111.230469" xlink:href="#LiberationSans-48"/>
      </g>
     </g>
    </g>
    <g id="xtick_9">
     <g id="line2d_9">
      <g>
       <use style="fill:#ffffff;stroke:#ffffff;stroke-width:0.8;" x="397.837639" xlink:href="#m1f77a4fe3f" y="307.584"/>
      </g>
     </g>
     <g id="text_9">
      <!-- 400 -->
      <g style="fill:#ffffff;" transform="translate(389.496233 321.830875)scale(0.1 -0.1)">
       <defs>
        <path d="M 43.015625 15.578125 
L 43.015625 0 
L 34.71875 0 
L 34.71875 15.578125 
L 2.296875 15.578125 
L 2.296875 22.40625 
L 33.796875 68.796875 
L 43.015625 68.796875 
L 43.015625 22.515625 
L 52.6875 22.515625 
L 52.6875 15.578125 
z
M 34.71875 58.890625 
Q 34.625 58.640625 34.234375 57.9375 
Q 33.84375 57.234375 33.34375 56.34375 
Q 32.859375 55.46875 32.34375 54.5625 
Q 31.84375 53.65625 31.453125 53.078125 
L 13.8125 27.09375 
Q 13.578125 26.703125 13.109375 26.0625 
Q 12.640625 25.4375 12.15625 24.78125 
Q 11.671875 24.125 11.171875 23.484375 
Q 10.6875 22.859375 10.40625 22.515625 
L 34.71875 22.515625 
z
" id="LiberationSans-52"/>
       </defs>
       <use xlink:href="#LiberationSans-52"/>
       <use x="55.615234" xlink:href="#LiberationSans-48"/>
       <use x="111.230469" xlink:href="#LiberationSans-48"/>
      </g>
     </g>
    </g>
    <g id="text_10">
     <!-- $t$ (ms) -->
     <g style="fill:#ffffff;" transform="translate(222.81 335.205875)scale(0.1 -0.1)">
      <defs>
       <path d="M 42.28125 54.6875 
L 40.921875 47.703125 
L 23 47.703125 
L 17.1875 18.015625 
Q 16.890625 16.359375 16.75 15.234375 
Q 16.609375 14.109375 16.609375 13.484375 
Q 16.609375 10.359375 18.484375 8.9375 
Q 20.359375 7.515625 24.515625 7.515625 
L 33.59375 7.515625 
L 32.078125 0 
L 23.484375 0 
Q 15.484375 0 11.546875 3.125 
Q 7.625 6.25 7.625 12.59375 
Q 7.625 13.71875 7.765625 15.0625 
Q 7.90625 16.40625 8.203125 18.015625 
L 14.015625 47.703125 
L 6.390625 47.703125 
L 7.8125 54.6875 
L 15.28125 54.6875 
L 18.3125 70.21875 
L 27.296875 70.21875 
L 24.3125 54.6875 
z
" id="DejaVuSans-Oblique-116"/>
       <path id="LiberationSans-32"/>
       <path d="M 6.203125 25.984375 
Q 6.203125 32.765625 7.21875 38.96875 
Q 8.25 45.171875 10.4375 50.875 
Q 12.640625 56.59375 16.0625 61.953125 
Q 19.484375 67.328125 24.21875 72.46875 
L 32.71875 72.46875 
Q 28.125 67.328125 24.78125 61.9375 
Q 21.4375 56.546875 19.28125 50.796875 
Q 17.140625 45.0625 16.09375 38.859375 
Q 15.046875 32.671875 15.046875 25.875 
Q 15.046875 19.09375 16.09375 12.890625 
Q 17.140625 6.6875 19.28125 0.921875 
Q 21.4375 -4.828125 24.78125 -10.203125 
Q 28.125 -15.578125 32.71875 -20.703125 
L 24.21875 -20.703125 
Q 19.484375 -15.578125 16.0625 -10.203125 
Q 12.640625 -4.828125 10.4375 0.875 
Q 8.25 6.59375 7.21875 12.765625 
Q 6.203125 18.953125 6.203125 25.78125 
z
" id="LiberationSans-40"/>
       <path d="M 37.5 0 
L 37.5 33.5 
Q 37.5 37.359375 37.015625 39.9375 
Q 36.53125 42.53125 35.375 44.109375 
Q 34.234375 45.703125 32.375 46.359375 
Q 30.515625 47.015625 27.828125 47.015625 
Q 25.046875 47.015625 22.796875 45.921875 
Q 20.5625 44.828125 18.96875 42.75 
Q 17.390625 40.671875 16.53125 37.625 
Q 15.671875 34.578125 15.671875 30.609375 
L 15.671875 0 
L 6.9375 0 
L 6.9375 41.546875 
Q 6.9375 43.21875 6.90625 45.046875 
Q 6.890625 46.875 6.828125 48.5 
Q 6.78125 50.140625 6.734375 51.3125 
Q 6.6875 52.484375 6.640625 52.828125 
L 14.9375 52.828125 
Q 14.984375 52.59375 15.03125 51.515625 
Q 15.09375 50.4375 15.15625 49.046875 
Q 15.234375 47.65625 15.28125 46.21875 
Q 15.328125 44.78125 15.328125 43.796875 
L 15.484375 43.796875 
Q 16.65625 46.09375 18.015625 47.953125 
Q 19.390625 49.8125 21.21875 51.09375 
Q 23.046875 52.390625 25.40625 53.09375 
Q 27.78125 53.8125 30.90625 53.8125 
Q 36.921875 53.8125 40.40625 51.421875 
Q 43.890625 49.03125 45.265625 43.796875 
L 45.40625 43.796875 
Q 46.578125 46.09375 48.046875 47.953125 
Q 49.515625 49.8125 51.46875 51.09375 
Q 53.421875 52.390625 55.859375 53.09375 
Q 58.296875 53.8125 61.421875 53.8125 
Q 65.4375 53.8125 68.328125 52.734375 
Q 71.234375 51.65625 73.09375 49.40625 
Q 74.953125 47.171875 75.828125 43.625 
Q 76.703125 40.09375 76.703125 35.203125 
L 76.703125 0 
L 68.015625 0 
L 68.015625 33.5 
Q 68.015625 37.359375 67.53125 39.9375 
Q 67.046875 42.53125 65.890625 44.109375 
Q 64.75 45.703125 62.890625 46.359375 
Q 61.03125 47.015625 58.34375 47.015625 
Q 55.5625 47.015625 53.3125 45.96875 
Q 51.078125 44.921875 49.484375 42.875 
Q 47.90625 40.828125 47.046875 37.75 
Q 46.1875 34.671875 46.1875 30.609375 
L 46.1875 0 
z
" id="LiberationSans-109"/>
       <path d="M 46.390625 14.59375 
Q 46.390625 10.890625 44.9375 7.984375 
Q 43.5 5.078125 40.765625 3.09375 
Q 38.03125 1.125 34.046875 0.0625 
Q 30.078125 -0.984375 24.953125 -0.984375 
Q 20.359375 -0.984375 16.671875 -0.265625 
Q 12.984375 0.4375 10.203125 2 
Q 7.421875 3.5625 5.53125 6.125 
Q 3.65625 8.6875 2.78125 12.40625 
L 10.546875 13.921875 
Q 11.671875 9.671875 15.1875 7.6875 
Q 18.703125 5.71875 24.953125 5.71875 
Q 27.78125 5.71875 30.140625 6.109375 
Q 32.515625 6.5 34.21875 7.453125 
Q 35.9375 8.40625 36.890625 9.984375 
Q 37.84375 11.578125 37.84375 13.921875 
Q 37.84375 16.3125 36.71875 17.84375 
Q 35.59375 19.390625 33.59375 20.40625 
Q 31.59375 21.4375 28.734375 22.1875 
Q 25.875 22.953125 22.46875 23.875 
Q 19.28125 24.703125 16.15625 25.734375 
Q 13.03125 26.765625 10.515625 28.4375 
Q 8.015625 30.125 6.453125 32.609375 
Q 4.890625 35.109375 4.890625 38.875 
Q 4.890625 46.09375 10.03125 49.875 
Q 15.1875 53.65625 25.046875 53.65625 
Q 33.796875 53.65625 38.9375 50.578125 
Q 44.09375 47.515625 45.453125 40.71875 
L 37.546875 39.75 
Q 37.109375 41.796875 35.9375 43.1875 
Q 34.765625 44.578125 33.109375 45.4375 
Q 31.453125 46.296875 29.375 46.65625 
Q 27.296875 47.015625 25.046875 47.015625 
Q 19.09375 47.015625 16.25 45.203125 
Q 13.421875 43.40625 13.421875 39.75 
Q 13.421875 37.59375 14.46875 36.203125 
Q 15.53125 34.8125 17.40625 33.859375 
Q 19.28125 32.90625 21.921875 32.203125 
Q 24.5625 31.5 27.734375 30.71875 
Q 29.828125 30.171875 32.03125 29.5625 
Q 34.234375 28.953125 36.296875 28.09375 
Q 38.375 27.25 40.203125 26.09375 
Q 42.046875 24.953125 43.40625 23.34375 
Q 44.78125 21.734375 45.578125 19.578125 
Q 46.390625 17.4375 46.390625 14.59375 
z
" id="LiberationSans-115"/>
       <path d="M 27.09375 25.78125 
Q 27.09375 18.953125 26.0625 12.765625 
Q 25.046875 6.59375 22.84375 0.875 
Q 20.65625 -4.828125 17.234375 -10.203125 
Q 13.8125 -15.578125 9.078125 -20.703125 
L 0.59375 -20.703125 
Q 5.171875 -15.578125 8.515625 -10.203125 
Q 11.859375 -4.828125 14 0.921875 
Q 16.15625 6.6875 17.203125 12.890625 
Q 18.265625 19.09375 18.265625 25.875 
Q 18.265625 32.671875 17.203125 38.859375 
Q 16.15625 45.0625 14 50.796875 
Q 11.859375 56.546875 8.515625 61.9375 
Q 5.171875 67.328125 0.59375 72.46875 
L 9.078125 72.46875 
Q 13.8125 67.328125 17.234375 61.953125 
Q 20.65625 56.59375 22.84375 50.875 
Q 25.046875 45.171875 26.0625 38.96875 
Q 27.09375 32.765625 27.09375 25.984375 
z
" id="LiberationSans-41"/>
      </defs>
      <use transform="translate(0 0.53125)" xlink:href="#DejaVuSans-Oblique-116"/>
      <use transform="translate(39.208984 0.53125)" xlink:href="#LiberationSans-32"/>
      <use transform="translate(66.992188 0.53125)" xlink:href="#LiberationSans-40"/>
      <use transform="translate(100.292969 0.53125)" xlink:href="#LiberationSans-109"/>
      <use transform="translate(183.59375 0.53125)" xlink:href="#LiberationSans-115"/>
      <use transform="translate(233.59375 0.53125)" xlink:href="#LiberationSans-41"/>
     </g>
    </g>
   </g>
   <g id="matplotlib.axis_2">
    <g id="ytick_1">
     <g id="line2d_10">
      <defs>
       <path d="M 0 0 
L -3.5 0 
" id="m309ac359c3" style="stroke:#ffffff;stroke-width:0.8;"/>
      </defs>
      <g>
       <use style="fill:#ffffff;stroke:#ffffff;stroke-width:0.8;" x="57.6" xlink:href="#m309ac359c3" y="272.159068"/>
      </g>
     </g>
     <g id="text_11">
      <!-- 0.020 -->
      <g style="fill:#ffffff;" transform="translate(25.578125 275.782506)scale(0.1 -0.1)">
       <defs>
        <path d="M 9.125 0 
L 9.125 10.6875 
L 18.65625 10.6875 
L 18.65625 0 
z
" id="LiberationSans-46"/>
       </defs>
       <use xlink:href="#LiberationSans-48"/>
       <use x="55.615234" xlink:href="#LiberationSans-46"/>
       <use x="83.398438" xlink:href="#LiberationSans-48"/>
       <use x="139.013672" xlink:href="#LiberationSans-50"/>
       <use x="194.628906" xlink:href="#LiberationSans-48"/>
      </g>
     </g>
    </g>
    <g id="ytick_2">
     <g id="line2d_11">
      <g>
       <use style="fill:#ffffff;stroke:#ffffff;stroke-width:0.8;" x="57.6" xlink:href="#m309ac359c3" y="214.333462"/>
      </g>
     </g>
     <g id="text_12">
      <!-- 0.025 -->
      <g style="fill:#ffffff;" transform="translate(25.578125 217.9569)scale(0.1 -0.1)">
       <use xlink:href="#LiberationSans-48"/>
       <use x="55.615234" xlink:href="#LiberationSans-46"/>
       <use x="83.398438" xlink:href="#LiberationSans-48"/>
       <use x="139.013672" xlink:href="#LiberationSans-50"/>
       <use x="194.628906" xlink:href="#LiberationSans-53"/>
      </g>
     </g>
    </g>
    <g id="ytick_3">
     <g id="line2d_12">
      <g>
       <use style="fill:#ffffff;stroke:#ffffff;stroke-width:0.8;" x="57.6" xlink:href="#m309ac359c3" y="156.507856"/>
      </g>
     </g>
     <g id="text_13">
      <!-- 0.030 -->
      <g style="fill:#ffffff;" transform="translate(25.578125 160.131293)scale(0.1 -0.1)">
       <use xlink:href="#LiberationSans-48"/>
       <use x="55.615234" xlink:href="#LiberationSans-46"/>
       <use x="83.398438" xlink:href="#LiberationSans-48"/>
       <use x="139.013672" xlink:href="#LiberationSans-51"/>
       <use x="194.628906" xlink:href="#LiberationSans-48"/>
      </g>
     </g>
    </g>
    <g id="ytick_4">
     <g id="line2d_13">
      <g>
       <use style="fill:#ffffff;stroke:#ffffff;stroke-width:0.8;" x="57.6" xlink:href="#m309ac359c3" y="98.68225"/>
      </g>
     </g>
     <g id="text_14">
      <!-- 0.035 -->
      <g style="fill:#ffffff;" transform="translate(25.578125 102.305687)scale(0.1 -0.1)">
       <use xlink:href="#LiberationSans-48"/>
       <use x="55.615234" xlink:href="#LiberationSans-46"/>
       <use x="83.398438" xlink:href="#LiberationSans-48"/>
       <use x="139.013672" xlink:href="#LiberationSans-51"/>
       <use x="194.628906" xlink:href="#LiberationSans-53"/>
      </g>
     </g>
    </g>
    <g id="text_15">
     <!-- $L$ -->
     <g style="fill:#ffffff;" transform="translate(19.503125 177.328)rotate(-90)scale(0.1 -0.1)">
      <defs>
       <path d="M 16.796875 72.90625 
L 26.703125 72.90625 
L 14.203125 8.203125 
L 49.703125 8.203125 
L 48.09375 0 
L 2.6875 0 
z
" id="DejaVuSans-Oblique-76"/>
      </defs>
      <use transform="translate(0 0.09375)" xlink:href="#DejaVuSans-Oblique-76"/>
     </g>
    </g>
   </g>
   <g id="line2d_14">
    <path clip-path="url(#p68a64d09fd)" d="M 73.832727 53.568 
L 74.157544 55.804429 
L 75.294404 59.137987 
L 76.431263 61.826098 
L 77.568122 63.967277 
L 78.704982 65.64621 
L 79.029799 66.051452 
L 81.141109 72.132252 
L 84.876504 83.167115 
L 85.850955 84.417161 
L 86.825405 85.287885 
L 87.799856 85.836037 
L 88.774307 86.111147 
L 89.748758 86.15638 
L 90.885617 85.968456 
L 92.184885 85.498337 
L 94.133787 84.714097 
L 94.783421 84.772468 
L 95.595463 85.088764 
L 96.407506 85.63876 
L 97.381956 86.558098 
L 98.681224 88.138174 
L 100.305309 90.536514 
L 102.416619 94.107826 
L 102.903845 94.763185 
L 103.715887 94.980309 
L 104.527929 94.947906 
L 105.339972 94.700885 
L 106.314423 94.164621 
L 107.451282 93.267125 
L 108.912958 91.779833 
L 110.699452 89.601248 
L 111.024268 89.288171 
L 111.836311 88.971896 
L 112.648353 88.935772 
L 113.460396 89.140945 
L 114.434847 89.657275 
L 115.571706 90.566566 
L 116.870974 91.940393 
L 117.683016 92.754617 
L 118.495058 93.276947 
L 119.307101 93.545617 
L 120.119143 93.594713 
L 121.093594 93.406295 
L 122.068045 92.991381 
L 123.204904 92.274167 
L 124.666581 91.065428 
L 125.478623 90.12007 
L 126.290665 89.524776 
L 127.102708 89.233549 
L 127.91475 89.205385 
L 128.726792 89.403774 
L 129.701243 89.895419 
L 130.838103 90.757057 
L 132.137371 92.040521 
L 133.761455 93.972935 
L 135.060723 95.569945 
L 135.872765 95.846479 
L 136.684808 95.844979 
L 137.49685 95.604181 
L 138.471301 95.04758 
L 139.60816 94.094495 
L 140.582611 92.897185 
L 141.394654 92.224079 
L 142.206696 91.805765 
L 143.018738 91.608693 
L 143.505964 91.584066 
L 144.480415 94.011569 
L 145.454866 95.835017 
L 146.429316 97.141908 
L 147.241359 97.891874 
L 148.053401 98.37547 
L 148.865444 98.627555 
L 149.839894 98.667977 
L 150.814345 98.466904 
L 151.951205 97.981626 
L 153.250473 97.164185 
L 154.874557 95.848595 
L 156.985867 93.814407 
L 157.310684 93.557008 
L 157.960318 93.334959 
L 158.609952 93.318719 
L 159.421995 93.552657 
L 160.234037 94.03119 
L 161.208488 94.877491 
L 162.345347 96.171249 
L 163.807024 98.206598 
L 165.755925 101.36714 
L 167.055193 103.397287 
L 167.867235 103.426317 
L 168.679278 103.222369 
L 169.653729 102.716861 
L 170.790588 101.830877 
L 172.089856 100.511115 
L 173.713941 98.524019 
L 175.987659 95.343998 
L 176.799702 94.14245 
L 177.449336 94.155655 
L 178.261378 94.412949 
L 179.07342 94.901741 
L 179.885463 95.587519 
L 180.859914 96.716808 
L 181.834364 97.474968 
L 182.808815 97.918142 
L 183.783266 98.095298 
L 184.757717 98.049092 
L 185.569759 97.866879 
L 186.54421 95.618166 
L 187.356253 94.235141 
L 188.168295 93.239185 
L 188.980337 92.581004 
L 189.79238 92.216604 
L 190.604422 92.106756 
L 191.416465 92.216511 
L 192.390915 92.594554 
L 193.527775 93.316257 
L 194.827043 94.433386 
L 196.451127 96.153128 
L 198.237621 98.091864 
L 198.887255 98.297256 
L 199.699297 98.294982 
L 200.511339 98.04249 
L 201.48579 97.459649 
L 202.62265 96.462105 
L 203.921917 94.993229 
L 204.73396 94.108835 
L 205.546002 93.554694 
L 206.358044 93.259732 
L 207.170087 93.189216 
L 208.144538 93.357552 
L 209.118989 93.757682 
L 210.255848 94.463316 
L 211.717524 95.664526 
L 213.504017 97.452916 
L 215.940145 100.230984 
L 216.42737 100.81315 
L 217.077004 100.774206 
L 217.889046 100.463997 
L 218.701089 99.902481 
L 219.67554 98.949591 
L 220.812399 97.524285 
L 221.949258 96.064757 
L 222.761301 95.552597 
L 223.573343 95.266131 
L 224.547794 95.178132 
L 225.522245 95.326107 
L 226.659104 95.74413 
L 227.958372 96.479756 
L 229.582457 97.688635 
L 230.719316 95.081377 
L 231.856175 92.966693 
L 232.993035 91.26996 
L 234.129894 89.926997 
L 235.104345 89.050317 
L 235.753979 88.811324 
L 236.241204 88.835662 
L 237.702881 86.999747 
L 239.164557 85.525317 
L 240.626233 84.347742 
L 242.250318 83.322684 
L 244.036811 82.470788 
L 245.660896 81.894568 
L 246.31053 82.769282 
L 246.960164 83.327524 
L 247.609798 83.603398 
L 248.259432 83.628002 
L 248.909065 83.429675 
L 249.721108 82.907362 
L 250.53315 82.122223 
L 252.64446 79.873911 
L 253.618911 79.301154 
L 254.593362 78.959602 
L 255.730221 78.805792 
L 256.867081 78.869042 
L 258.166349 79.153954 
L 259.790433 79.753953 
L 261.739335 80.725644 
L 264.500279 82.379001 
L 270.509393 86.271594 
L 271.646252 88.224334 
L 274.407196 88.118683 
L 278.142591 88.213575 
L 284.314113 88.632494 
L 285.450973 88.633709 
L 286.100607 88.322948 
L 286.912649 87.623305 
L 287.724691 86.626068 
L 289.023959 84.93523 
L 290.160819 84.50932 
L 291.460086 84.274827 
L 292.921763 84.267302 
L 294.545847 84.502122 
L 296.494749 85.026468 
L 299.093285 85.987334 
L 300.554961 86.604546 
L 301.204595 86.374503 
L 301.854229 86.444523 
L 302.503863 86.780462 
L 303.315905 87.527253 
L 304.127948 88.586577 
L 305.102398 90.202487 
L 305.589624 90.884629 
L 306.888892 91.305654 
L 308.18816 91.491639 
L 309.649836 91.479412 
L 310.624287 91.36788 
L 311.923555 95.048373 
L 313.222822 98.130111 
L 314.52209 100.705819 
L 316.146175 103.654476 
L 317.120626 101.709583 
L 318.419894 98.534336 
L 320.043978 93.879113 
L 322.480106 86.766349 
L 323.616965 85.783393 
L 324.753824 85.109226 
L 325.890684 84.691311 
L 327.189951 84.470254 
L 328.489219 84.469088 
L 330.113304 84.706181 
L 332.062206 85.244796 
L 334.498333 86.169266 
L 338.396136 87.924431 
L 339.695404 88.532866 
L 340.020221 89.149109 
L 341.969123 88.794235 
L 344.242841 88.628475 
L 347.003786 88.668589 
L 350.73918 88.966487 
L 358.20997 89.634432 
L 361.945365 89.54069 
L 367.304845 89.653551 
L 374.450818 89.950857 
L 374.775635 89.624165 
L 375.587677 90.863019 
L 375.750086 91.052299 
L 377.536579 95.022128 
L 379.323072 98.470561 
L 381.109566 101.473212 
L 383.058467 104.314798 
L 385.007369 106.770312 
L 387.118679 109.061202 
L 388.417947 110.305964 
L 389.067581 110.60826 
L 389.717215 111.162041 
L 390.529257 112.162316 
L 391.3413 111.217006 
L 391.990934 110.772874 
L 392.640568 110.573777 
L 393.290201 110.592608 
L 394.102244 110.885191 
L 394.914286 111.436418 
L 395.239103 111.720535 
L 395.401512 111.525636 
L 396.538371 115.333737 
L 397.67523 118.442082 
L 398.487273 120.292721 
L 398.487273 120.292721 
" style="fill:none;stroke:#9a72ac;stroke-linecap:round;stroke-width:1.5;"/>
   </g>
   <g id="line2d_15">
    <path clip-path="url(#p68a64d09fd)" d="M 73.832727 199.083592 
L 74.157544 203.645157 
L 75.294404 220.915569 
L 76.431263 234.750861 
L 77.568122 245.679502 
L 78.542573 253.079421 
L 79.517024 258.852199 
L 80.491475 263.413592 
L 81.465926 267.05721 
L 82.440377 269.910242 
L 83.414827 272.084133 
L 84.389278 273.676444 
L 84.551687 273.891442 
L 85.526138 277.2697 
L 86.33818 279.378368 
L 87.150222 280.929351 
L 87.962265 281.993132 
L 88.611899 282.535891 
L 89.261533 282.836297 
L 90.235983 283.148133 
L 91.372843 283.784683 
L 92.672111 284.250942 
L 93.321745 284.323547 
L 94.458604 284.184715 
L 95.595463 284.272318 
L 96.894731 284.594006 
L 98.356407 285.173867 
L 99.493267 285.824302 
L 100.630126 286.208086 
L 101.766985 286.372339 
L 103.553479 286.349792 
L 104.365521 286.088555 
L 104.690338 286.040644 
L 106.964057 286.336475 
L 109.725001 286.452623 
L 111.186677 286.525672 
L 112.323536 286.981302 
L 113.622804 287.599673 
L 115.08448 287.635856 
L 118.657467 287.333878 
L 119.631918 286.842226 
L 121.743228 285.595719 
L 124.016947 284.516757 
L 124.991398 284.21956 
L 125.965848 284.295299 
L 126.940299 284.589485 
L 128.077159 285.158492 
L 128.726792 285.451613 
L 130.188469 285.216504 
L 131.974962 284.697064 
L 134.248681 283.788442 
L 134.573498 283.643069 
L 135.872765 280.923959 
L 136.847216 279.401684 
L 137.821667 278.294527 
L 138.796118 277.541398 
L 139.60816 277.14552 
L 140.420203 275.719597 
L 141.232245 274.736368 
L 142.044288 274.138733 
L 143.505964 273.435652 
L 144.480415 274.238668 
L 145.454866 274.784197 
L 146.591725 275.146724 
L 147.728584 275.264632 
L 149.027852 275.157634 
L 150.489528 274.796147 
L 152.276022 274.099248 
L 152.925656 273.793894 
L 153.737698 272.1983 
L 154.54974 271.067046 
L 155.361783 270.340704 
L 156.011417 270.015334 
L 156.661051 269.890585 
L 157.148276 269.915184 
L 157.960318 268.968368 
L 158.772361 268.28703 
L 159.584403 267.877192 
L 160.396445 267.70294 
L 161.208488 267.732266 
L 162.182939 267.996288 
L 163.319798 268.565743 
L 164.943883 269.29 
L 166.730376 269.815905 
L 167.217602 270.02064 
L 168.029644 270.274152 
L 168.841686 270.313866 
L 169.816137 270.120748 
L 170.790588 269.707202 
L 171.927447 268.997913 
L 173.389124 267.966147 
L 174.688391 268.201377 
L 176.150068 268.686197 
L 177.286927 269.026792 
L 177.611744 269.047653 
L 179.560646 268.927109 
L 179.885463 268.927698 
L 180.859914 269.566939 
L 181.834364 269.934722 
L 182.808815 270.073342 
L 183.945675 269.994301 
L 185.244942 269.647375 
L 186.056985 269.447915 
L 187.356253 269.386928 
L 188.980337 269.551745 
L 190.766831 269.961519 
L 192.553324 270.422676 
L 193.690183 269.878965 
L 194.177409 269.682588 
L 195.314268 269.467984 
L 196.613536 269.441105 
L 199.536888 269.535868 
L 200.836156 269.211085 
L 202.297833 268.815413 
L 203.434692 268.842188 
L 204.246734 268.991038 
L 205.058777 268.471531 
L 205.708411 268.287867 
L 206.520453 268.311235 
L 207.332495 268.578869 
L 208.306946 269.173085 
L 208.794172 269.423625 
L 213.828834 269.387128 
L 216.589779 269.324433 
L 219.188314 267.726794 
L 220.974807 267.0631 
L 221.462033 267.011532 
L 222.274075 267.282752 
L 225.847062 268.430317 
L 229.582457 269.398881 
L 230.069682 269.127436 
L 231.856175 269.891321 
L 232.830626 269.717207 
L 233.155443 269.704552 
L 234.941936 270.08105 
L 235.753979 269.830157 
L 236.890838 269.799655 
L 238.352514 269.979525 
L 240.95105 270.324042 
L 242.087909 270.25089 
L 243.06236 269.992276 
L 245.011262 269.314403 
L 245.660896 269.226998 
L 249.071474 274.554744 
L 250.045925 275.632075 
L 251.020376 276.366265 
L 251.832418 276.911019 
L 253.456503 278.372727 
L 254.430954 278.978331 
L 255.405405 279.339327 
L 256.379855 279.442875 
L 257.191898 279.32589 
L 258.166349 279.132936 
L 260.440067 278.933464 
L 261.089701 278.760292 
L 263.525828 279.126854 
L 264.825096 279.090949 
L 265.961956 278.843738 
L 267.098815 278.354208 
L 268.235674 277.734513 
L 269.534942 277.997816 
L 270.83421 278.252871 
L 271.483844 278.338162 
L 272.620703 280.387455 
L 273.757562 281.960198 
L 274.732013 282.926525 
L 275.544056 283.463185 
L 276.356098 283.757418 
L 277.16814 283.811816 
L 277.980183 283.629726 
L 279.117042 283.060768 
L 282.690029 281.558494 
L 283.826888 281.593329 
L 285.126156 281.842991 
L 286.263015 282.690646 
L 287.237466 283.176916 
L 288.211917 283.422977 
L 288.861551 283.565235 
L 291.947312 285.613892 
L 292.759354 285.795517 
L 293.571397 285.704118 
L 294.545847 285.474555 
L 296.169932 285.534504 
L 297.4692 285.362051 
L 298.606059 284.987689 
L 300.067736 284.422593 
L 300.554961 284.423611 
L 301.204595 283.710889 
L 301.854229 283.261451 
L 302.503863 283.031389 
L 303.315905 282.992355 
L 304.290356 283.220429 
L 305.102398 283.442952 
L 305.427215 283.455178 
L 306.401666 284.815318 
L 307.213709 285.593138 
L 308.025751 286.059936 
L 308.675385 286.217071 
L 309.325019 286.188141 
L 310.137061 285.898903 
L 311.761146 285.092675 
L 313.385231 285.250529 
L 314.684499 285.159154 
L 315.496541 285.086598 
L 315.658949 285.161927 
L 316.308583 285.919732 
L 318.419894 287.361948 
L 319.394344 288.015095 
L 320.368795 288.433615 
L 321.505655 288.677149 
L 322.967331 288.913912 
L 324.591416 289.477231 
L 326.2155 290.27719 
L 327.677177 291.073111 
L 328.976445 290.679734 
L 332.062206 289.581045 
L 332.874248 289.84637 
L 333.68629 290.149536 
L 335.635192 290.268043 
L 338.071319 290.183797 
L 340.020221 290.145001 
L 342.29394 290.240752 
L 345.217292 290.118017 
L 348.62787 289.775934 
L 349.602321 289.036146 
L 349.927138 288.891385 
L 365.193535 289.099037 
L 368.766521 290.937913 
L 372.826733 293.028241 
L 373.801184 292.921347 
L 374.613227 292.778573 
L 375.100452 292.963642 
L 375.750086 293.673185 
L 376.886945 293.588015 
L 379.647889 293.777282 
L 382.408834 294.200516 
L 386.631454 295.100784 
L 388.417947 295.488 
L 389.067581 295.092916 
L 390.042032 294.153067 
L 391.178891 293.136848 
L 392.153342 292.366746 
L 393.290201 291.765549 
L 394.427061 291.431558 
L 396.051146 291.238943 
L 397.67523 291.025131 
L 398.487273 290.842404 
L 398.487273 290.842404 
" style="fill:none;stroke:#cf5044;stroke-linecap:round;stroke-width:1.5;"/>
   </g>
   <g id="patch_3">
    <path d="M 57.6 307.584 
L 57.6 41.472 
" style="fill:none;stroke:#ffffff;stroke-linecap:square;stroke-linejoin:miter;stroke-width:0.8;"/>
   </g>
   <g id="patch_4">
    <path d="M 414.72 307.584 
L 414.72 41.472 
" style="fill:none;stroke:#ffffff;stroke-linecap:square;stroke-linejoin:miter;stroke-width:0.8;"/>
   </g>
   <g id="patch_5">
    <path d="M 57.6 307.584 
L 414.72 307.584 
" style="fill:none;stroke:#ffffff;stroke-linecap:square;stroke-linejoin:miter;stroke-width:0.8;"/>
   </g>
   <g id="patch_6">
    <path d="M 57.6 41.472 
L 414.72 41.472 
" style="fill:none;stroke:#ffffff;stroke-linecap:square;stroke-linejoin:miter;stroke-width:0.8;"/>
   </g>
   <g id="legend_1">
    <g id="line2d_16">
     <path d="M 329.915313 54.218875 
L 349.915313 54.218875 
" style="fill:none;stroke:#9a72ac;stroke-linecap:round;stroke-width:1.5;"/>
    </g>
    <g id="line2d_17"/>
    <g id="text_16">
     <!-- Egomotion -->
     <g style="fill:#ffffff;" transform="translate(357.915313 57.718875)scale(0.1 -0.1)">
      <defs>
       <path d="M 8.203125 0 
L 8.203125 68.796875 
L 60.40625 68.796875 
L 60.40625 61.1875 
L 17.53125 61.1875 
L 17.53125 39.109375 
L 57.46875 39.109375 
L 57.46875 31.59375 
L 17.53125 31.59375 
L 17.53125 7.625 
L 62.40625 7.625 
L 62.40625 0 
z
" id="LiberationSans-69"/>
       <path d="M 26.765625 -20.75 
Q 22.21875 -20.75 18.703125 -19.8125 
Q 15.1875 -18.890625 12.6875 -17.15625 
Q 10.203125 -15.4375 8.640625 -13.03125 
Q 7.078125 -10.640625 6.390625 -7.71875 
L 15.234375 -6.453125 
Q 16.109375 -10.109375 19.109375 -12.078125 
Q 22.125 -14.0625 27 -14.0625 
Q 29.984375 -14.0625 32.421875 -13.234375 
Q 34.859375 -12.40625 36.5625 -10.5625 
Q 38.28125 -8.734375 39.203125 -5.796875 
Q 40.140625 -2.875 40.140625 1.3125 
L 40.140625 9.8125 
L 40.046875 9.8125 
Q 39.0625 7.8125 37.625 5.984375 
Q 36.1875 4.15625 34.109375 2.734375 
Q 32.03125 1.3125 29.296875 0.453125 
Q 26.5625 -0.390625 23.046875 -0.390625 
Q 18.015625 -0.390625 14.421875 1.296875 
Q 10.84375 2.984375 8.5625 6.34375 
Q 6.296875 9.71875 5.25 14.71875 
Q 4.203125 19.734375 4.203125 26.3125 
Q 4.203125 32.671875 5.25 37.75 
Q 6.296875 42.828125 8.65625 46.359375 
Q 11.03125 49.90625 14.8125 51.78125 
Q 18.609375 53.65625 24.03125 53.65625 
Q 29.640625 53.65625 33.765625 51.09375 
Q 37.890625 48.53125 40.140625 43.796875 
L 40.234375 43.796875 
Q 40.234375 45.015625 40.296875 46.53125 
Q 40.375 48.046875 40.453125 49.390625 
Q 40.53125 50.734375 40.625 51.703125 
Q 40.71875 52.6875 40.828125 52.828125 
L 49.171875 52.828125 
Q 49.125 52.390625 49.078125 51.34375 
Q 49.03125 50.296875 48.96875 48.828125 
Q 48.921875 47.359375 48.890625 45.578125 
Q 48.875 43.796875 48.875 41.890625 
L 48.875 1.515625 
Q 48.875 -9.578125 43.421875 -15.15625 
Q 37.984375 -20.75 26.765625 -20.75 
z
M 40.140625 26.421875 
Q 40.140625 31.9375 38.9375 35.859375 
Q 37.75 39.796875 35.796875 42.28125 
Q 33.84375 44.78125 31.328125 45.953125 
Q 28.8125 47.125 26.171875 47.125 
Q 22.796875 47.125 20.375 45.953125 
Q 17.96875 44.78125 16.375 42.265625 
Q 14.796875 39.75 14.03125 35.8125 
Q 13.28125 31.890625 13.28125 26.421875 
Q 13.28125 20.703125 14.03125 16.8125 
Q 14.796875 12.9375 16.359375 10.546875 
Q 17.921875 8.15625 20.3125 7.125 
Q 22.703125 6.109375 26.03125 6.109375 
Q 28.65625 6.109375 31.171875 7.21875 
Q 33.6875 8.34375 35.6875 10.78125 
Q 37.703125 13.234375 38.921875 17.09375 
Q 40.140625 20.953125 40.140625 26.421875 
z
" id="LiberationSans-103"/>
       <path d="M 51.421875 26.46875 
Q 51.421875 12.59375 45.3125 5.796875 
Q 39.203125 -0.984375 27.59375 -0.984375 
Q 22.078125 -0.984375 17.71875 0.671875 
Q 13.375 2.34375 10.375 5.765625 
Q 7.375 9.1875 5.78125 14.328125 
Q 4.203125 19.484375 4.203125 26.46875 
Q 4.203125 53.8125 27.875 53.8125 
Q 34.03125 53.8125 38.5 52.09375 
Q 42.96875 50.390625 45.828125 46.96875 
Q 48.6875 43.5625 50.046875 38.421875 
Q 51.421875 33.296875 51.421875 26.46875 
z
M 42.1875 26.46875 
Q 42.1875 32.625 41.234375 36.625 
Q 40.28125 40.625 38.453125 43.015625 
Q 36.625 45.40625 33.984375 46.359375 
Q 31.34375 47.3125 28.03125 47.3125 
Q 24.65625 47.3125 21.9375 46.3125 
Q 19.234375 45.3125 17.328125 42.890625 
Q 15.4375 40.484375 14.421875 36.46875 
Q 13.421875 32.46875 13.421875 26.46875 
Q 13.421875 20.3125 14.5 16.28125 
Q 15.578125 12.25 17.453125 9.859375 
Q 19.34375 7.46875 21.90625 6.484375 
Q 24.46875 5.515625 27.484375 5.515625 
Q 30.859375 5.515625 33.59375 6.46875 
Q 36.328125 7.421875 38.234375 9.8125 
Q 40.140625 12.203125 41.15625 16.25 
Q 42.1875 20.3125 42.1875 26.46875 
z
" id="LiberationSans-111"/>
       <path d="M 27.046875 0.390625 
Q 25.046875 -0.140625 22.96875 -0.453125 
Q 20.90625 -0.78125 18.171875 -0.78125 
Q 7.625 -0.78125 7.625 11.1875 
L 7.625 46.4375 
L 1.515625 46.4375 
L 1.515625 52.828125 
L 7.953125 52.828125 
L 10.546875 64.65625 
L 16.40625 64.65625 
L 16.40625 52.828125 
L 26.171875 52.828125 
L 26.171875 46.4375 
L 16.40625 46.4375 
L 16.40625 13.09375 
Q 16.40625 9.28125 17.640625 7.734375 
Q 18.890625 6.203125 21.96875 6.203125 
Q 23.25 6.203125 24.4375 6.390625 
Q 25.640625 6.59375 27.046875 6.890625 
z
" id="LiberationSans-116"/>
       <path d="M 6.6875 64.0625 
L 6.6875 72.46875 
L 15.484375 72.46875 
L 15.484375 64.0625 
z
M 6.6875 0 
L 6.6875 52.828125 
L 15.484375 52.828125 
L 15.484375 0 
z
" id="LiberationSans-105"/>
       <path d="M 40.28125 0 
L 40.28125 33.5 
Q 40.28125 37.359375 39.71875 39.9375 
Q 39.15625 42.53125 37.890625 44.109375 
Q 36.625 45.703125 34.546875 46.359375 
Q 32.46875 47.015625 29.390625 47.015625 
Q 26.265625 47.015625 23.75 45.921875 
Q 21.234375 44.828125 19.453125 42.75 
Q 17.671875 40.671875 16.6875 37.625 
Q 15.71875 34.578125 15.71875 30.609375 
L 15.71875 0 
L 6.9375 0 
L 6.9375 41.546875 
Q 6.9375 43.21875 6.90625 45.046875 
Q 6.890625 46.875 6.828125 48.5 
Q 6.78125 50.140625 6.734375 51.3125 
Q 6.6875 52.484375 6.640625 52.828125 
L 14.9375 52.828125 
Q 14.984375 52.59375 15.03125 51.515625 
Q 15.09375 50.4375 15.15625 49.046875 
Q 15.234375 47.65625 15.28125 46.21875 
Q 15.328125 44.78125 15.328125 43.796875 
L 15.484375 43.796875 
Q 16.75 46.09375 18.265625 47.953125 
Q 19.78125 49.8125 21.78125 51.09375 
Q 23.78125 52.390625 26.359375 53.09375 
Q 28.953125 53.8125 32.375 53.8125 
Q 36.765625 53.8125 39.9375 52.734375 
Q 43.109375 51.65625 45.15625 49.40625 
Q 47.21875 47.171875 48.171875 43.625 
Q 49.125 40.09375 49.125 35.203125 
L 49.125 0 
z
" id="LiberationSans-110"/>
      </defs>
      <use xlink:href="#LiberationSans-69"/>
      <use x="66.699219" xlink:href="#LiberationSans-103"/>
      <use x="122.314453" xlink:href="#LiberationSans-111"/>
      <use x="177.929688" xlink:href="#LiberationSans-109"/>
      <use x="261.230469" xlink:href="#LiberationSans-111"/>
      <use x="316.845703" xlink:href="#LiberationSans-116"/>
      <use x="344.628906" xlink:href="#LiberationSans-105"/>
      <use x="366.845703" xlink:href="#LiberationSans-111"/>
      <use x="422.460938" xlink:href="#LiberationSans-110"/>
     </g>
    </g>
    <g id="line2d_18">
     <path d="M 329.915313 68.54075 
L 349.915313 68.54075 
" style="fill:none;stroke:#cf5044;stroke-linecap:round;stroke-width:1.5;"/>
    </g>
    <g id="line2d_19"/>
    <g id="text_17">
     <!-- Visual -->
     <g style="fill:#ffffff;" transform="translate(357.915313 72.04075)scale(0.1 -0.1)">
      <defs>
       <path d="M 38.1875 0 
L 28.515625 0 
L 0.4375 68.796875 
L 10.25 68.796875 
L 29.296875 20.359375 
Q 30.03125 18.171875 30.765625 15.984375 
Q 31.5 13.8125 32.078125 12.109375 
Q 32.765625 10.109375 33.40625 8.203125 
Q 33.984375 10.015625 34.671875 12.015625 
Q 35.25 13.71875 35.953125 15.859375 
Q 36.671875 18.015625 37.5 20.359375 
L 56.453125 68.796875 
L 66.265625 68.796875 
z
" id="LiberationSans-86"/>
       <path d="M 15.328125 52.828125 
L 15.328125 19.34375 
Q 15.328125 15.484375 15.890625 12.890625 
Q 16.453125 10.296875 17.71875 8.703125 
Q 19 7.125 21.0625 6.46875 
Q 23.140625 5.8125 26.21875 5.8125 
Q 29.34375 5.8125 31.859375 6.90625 
Q 34.375 8.015625 36.15625 10.078125 
Q 37.9375 12.15625 38.90625 15.203125 
Q 39.890625 18.265625 39.890625 22.21875 
L 39.890625 52.828125 
L 48.6875 52.828125 
L 48.6875 11.28125 
Q 48.6875 9.625 48.703125 7.78125 
Q 48.734375 5.953125 48.78125 4.3125 
Q 48.828125 2.6875 48.875 1.515625 
Q 48.921875 0.34375 48.96875 0 
L 40.671875 0 
Q 40.625 0.25 40.578125 1.3125 
Q 40.53125 2.390625 40.453125 3.78125 
Q 40.375 5.171875 40.328125 6.609375 
Q 40.28125 8.0625 40.28125 9.03125 
L 40.140625 9.03125 
Q 38.875 6.734375 37.359375 4.875 
Q 35.84375 3.03125 33.84375 1.734375 
Q 31.84375 0.4375 29.25 -0.265625 
Q 26.65625 -0.984375 23.25 -0.984375 
Q 18.84375 -0.984375 15.671875 0.09375 
Q 12.5 1.171875 10.453125 3.421875 
Q 8.40625 5.671875 7.453125 9.1875 
Q 6.5 12.703125 6.5 17.625 
L 6.5 52.828125 
z
" id="LiberationSans-117"/>
       <path d="M 20.21875 -0.984375 
Q 12.25 -0.984375 8.25 3.21875 
Q 4.25 7.421875 4.25 14.75 
Q 4.25 19.96875 6.21875 23.3125 
Q 8.203125 26.65625 11.390625 28.5625 
Q 14.59375 30.46875 18.6875 31.203125 
Q 22.796875 31.9375 27.046875 32.03125 
L 38.921875 32.234375 
L 38.921875 35.109375 
Q 38.921875 38.375 38.234375 40.671875 
Q 37.546875 42.96875 36.125 44.375 
Q 34.71875 45.796875 32.59375 46.453125 
Q 30.46875 47.125 27.59375 47.125 
Q 25.046875 47.125 23 46.75 
Q 20.953125 46.390625 19.4375 45.4375 
Q 17.921875 44.484375 16.984375 42.84375 
Q 16.0625 41.21875 15.765625 38.71875 
L 6.59375 39.546875 
Q 7.078125 42.671875 8.4375 45.28125 
Q 9.8125 47.90625 12.328125 49.796875 
Q 14.84375 51.703125 18.625 52.75 
Q 22.40625 53.8125 27.78125 53.8125 
Q 37.75 53.8125 42.765625 49.234375 
Q 47.796875 44.671875 47.796875 36.03125 
L 47.796875 13.28125 
Q 47.796875 9.375 48.828125 7.390625 
Q 49.859375 5.421875 52.734375 5.421875 
Q 53.46875 5.421875 54.203125 5.515625 
Q 54.9375 5.609375 55.609375 5.765625 
L 55.609375 0.296875 
Q 53.953125 -0.09375 52.3125 -0.28125 
Q 50.6875 -0.484375 48.828125 -0.484375 
Q 46.34375 -0.484375 44.5625 0.171875 
Q 42.78125 0.828125 41.65625 2.171875 
Q 40.53125 3.515625 39.9375 5.484375 
Q 39.359375 7.46875 39.203125 10.109375 
L 38.921875 10.109375 
Q 37.5 7.5625 35.8125 5.515625 
Q 34.125 3.46875 31.875 2.03125 
Q 29.640625 0.59375 26.78125 -0.1875 
Q 23.921875 -0.984375 20.21875 -0.984375 
z
M 22.21875 5.609375 
Q 26.421875 5.609375 29.5625 7.140625 
Q 32.71875 8.6875 34.78125 11.078125 
Q 36.859375 13.484375 37.890625 16.3125 
Q 38.921875 19.140625 38.921875 21.734375 
L 38.921875 26.078125 
L 29.296875 25.875 
Q 26.078125 25.828125 23.171875 25.40625 
Q 20.265625 25 18.0625 23.78125 
Q 15.875 22.5625 14.578125 20.359375 
Q 13.28125 18.171875 13.28125 14.59375 
Q 13.28125 10.296875 15.59375 7.953125 
Q 17.921875 5.609375 22.21875 5.609375 
z
" id="LiberationSans-97"/>
       <path d="M 6.734375 0 
L 6.734375 72.46875 
L 15.53125 72.46875 
L 15.53125 0 
z
" id="LiberationSans-108"/>
      </defs>
      <use xlink:href="#LiberationSans-86"/>
      <use x="64.949219" xlink:href="#LiberationSans-105"/>
      <use x="87.166016" xlink:href="#LiberationSans-115"/>
      <use x="137.166016" xlink:href="#LiberationSans-117"/>
      <use x="192.78125" xlink:href="#LiberationSans-97"/>
      <use x="248.396484" xlink:href="#LiberationSans-108"/>
     </g>
    </g>
   </g>
  </g>
  <g id="text_18">
   <!-- Decoding performance -->
   <g style="fill:#ffffff;" transform="translate(169.704375 15.60825)scale(0.12 -0.12)">
    <defs>
     <path d="M 67.4375 35.109375 
Q 67.4375 26.515625 64.84375 19.9375 
Q 62.25 13.375 57.75 8.953125 
Q 53.265625 4.546875 47.140625 2.265625 
Q 41.015625 0 33.9375 0 
L 8.203125 0 
L 8.203125 68.796875 
L 30.953125 68.796875 
Q 38.921875 68.796875 45.625 66.8125 
Q 52.34375 64.84375 57.171875 60.71875 
Q 62.015625 56.59375 64.71875 50.234375 
Q 67.4375 43.890625 67.4375 35.109375 
z
M 58.0625 35.109375 
Q 58.0625 42.09375 56.046875 47.046875 
Q 54.046875 52 50.4375 55.171875 
Q 46.828125 58.34375 41.796875 59.828125 
Q 36.765625 61.328125 30.765625 61.328125 
L 17.53125 61.328125 
L 17.53125 7.46875 
L 32.859375 7.46875 
Q 38.28125 7.46875 42.890625 9.21875 
Q 47.515625 10.984375 50.875 14.453125 
Q 54.25 17.921875 56.15625 23.09375 
Q 58.0625 28.265625 58.0625 35.109375 
z
" id="LiberationSans-68"/>
     <path d="M 13.484375 24.5625 
Q 13.484375 20.40625 14.328125 16.90625 
Q 15.1875 13.421875 16.96875 10.90625 
Q 18.75 8.40625 21.53125 7 
Q 24.3125 5.609375 28.21875 5.609375 
Q 33.9375 5.609375 37.375 7.90625 
Q 40.828125 10.203125 42.046875 13.71875 
L 49.75 11.53125 
Q 48.921875 9.328125 47.4375 7.109375 
Q 45.953125 4.890625 43.453125 3.09375 
Q 40.96875 1.3125 37.234375 0.15625 
Q 33.5 -0.984375 28.21875 -0.984375 
Q 16.5 -0.984375 10.375 6 
Q 4.25 12.984375 4.25 26.765625 
Q 4.25 34.1875 6.09375 39.328125 
Q 7.953125 44.484375 11.171875 47.703125 
Q 14.40625 50.921875 18.703125 52.359375 
Q 23 53.8125 27.875 53.8125 
Q 34.515625 53.8125 38.984375 51.65625 
Q 43.453125 49.515625 46.15625 45.71875 
Q 48.875 41.9375 50.015625 36.8125 
Q 51.171875 31.6875 51.171875 25.734375 
L 51.171875 24.5625 
z
M 42.09375 31.296875 
Q 41.359375 39.65625 37.84375 43.484375 
Q 34.328125 47.3125 27.734375 47.3125 
Q 25.53125 47.3125 23.109375 46.609375 
Q 20.703125 45.90625 18.65625 44.09375 
Q 16.609375 42.28125 15.1875 39.171875 
Q 13.765625 36.078125 13.578125 31.296875 
z
" id="LiberationSans-101"/>
     <path d="M 13.421875 26.65625 
Q 13.421875 22.125 14.078125 18.3125 
Q 14.75 14.5 16.3125 11.734375 
Q 17.875 8.984375 20.4375 7.46875 
Q 23 5.953125 26.765625 5.953125 
Q 31.453125 5.953125 34.59375 8.484375 
Q 37.75 11.03125 38.484375 16.3125 
L 47.359375 15.71875 
Q 46.921875 12.453125 45.453125 9.421875 
Q 44 6.390625 41.484375 4.09375 
Q 38.96875 1.8125 35.34375 0.40625 
Q 31.734375 -0.984375 27 -0.984375 
Q 20.796875 -0.984375 16.453125 1.109375 
Q 12.109375 3.21875 9.390625 6.90625 
Q 6.6875 10.59375 5.46875 15.59375 
Q 4.25 20.609375 4.25 26.46875 
Q 4.25 31.78125 5.125 35.859375 
Q 6 39.9375 7.59375 42.984375 
Q 9.1875 46.046875 11.328125 48.125 
Q 13.484375 50.203125 15.984375 51.4375 
Q 18.5 52.6875 21.28125 53.25 
Q 24.078125 53.8125 26.90625 53.8125 
Q 31.34375 53.8125 34.8125 52.59375 
Q 38.28125 51.375 40.796875 49.25 
Q 43.3125 47.125 44.875 44.234375 
Q 46.4375 41.359375 47.078125 38.03125 
L 38.03125 37.359375 
Q 37.359375 41.75 34.5625 44.328125 
Q 31.78125 46.921875 26.65625 46.921875 
Q 22.90625 46.921875 20.390625 45.671875 
Q 17.875 44.4375 16.3125 41.921875 
Q 14.75 39.40625 14.078125 35.59375 
Q 13.421875 31.78125 13.421875 26.65625 
z
" id="LiberationSans-99"/>
     <path d="M 40.09375 8.5 
Q 37.640625 3.421875 33.609375 1.21875 
Q 29.59375 -0.984375 23.640625 -0.984375 
Q 13.625 -0.984375 8.90625 5.75 
Q 4.203125 12.5 4.203125 26.171875 
Q 4.203125 53.8125 23.640625 53.8125 
Q 29.640625 53.8125 33.640625 51.609375 
Q 37.640625 49.421875 40.09375 44.625 
L 40.1875 44.625 
Q 40.1875 45.125 40.15625 46.171875 
Q 40.140625 47.21875 40.109375 48.359375 
Q 40.09375 49.515625 40.09375 50.53125 
Q 40.09375 51.5625 40.09375 52 
L 40.09375 72.46875 
L 48.875 72.46875 
L 48.875 10.890625 
Q 48.875 8.984375 48.890625 7.21875 
Q 48.921875 5.46875 48.96875 4 
Q 49.03125 2.546875 49.078125 1.484375 
Q 49.125 0.4375 49.171875 0 
L 40.765625 0 
Q 40.671875 0.484375 40.59375 1.390625 
Q 40.53125 2.296875 40.453125 3.46875 
Q 40.375 4.640625 40.328125 5.9375 
Q 40.28125 7.234375 40.28125 8.5 
z
M 13.421875 26.46875 
Q 13.421875 21 14.109375 17.09375 
Q 14.796875 13.1875 16.3125 10.671875 
Q 17.828125 8.15625 20.171875 6.984375 
Q 22.515625 5.8125 25.875 5.8125 
Q 29.34375 5.8125 32 6.9375 
Q 34.671875 8.0625 36.453125 10.578125 
Q 38.234375 13.09375 39.15625 17.140625 
Q 40.09375 21.1875 40.09375 27.046875 
Q 40.09375 32.671875 39.15625 36.546875 
Q 38.234375 40.4375 36.421875 42.828125 
Q 34.625 45.21875 32 46.265625 
Q 29.390625 47.3125 25.984375 47.3125 
Q 22.75 47.3125 20.40625 46.1875 
Q 18.0625 45.0625 16.5 42.578125 
Q 14.9375 40.09375 14.171875 36.109375 
Q 13.421875 32.125 13.421875 26.46875 
z
" id="LiberationSans-100"/>
     <path d="M 51.421875 26.65625 
Q 51.421875 20.65625 50.4375 15.578125 
Q 49.46875 10.5 47.1875 6.828125 
Q 44.921875 3.171875 41.1875 1.09375 
Q 37.453125 -0.984375 31.984375 -0.984375 
Q 26.3125 -0.984375 22.0625 1.171875 
Q 17.828125 3.328125 15.578125 8.203125 
L 15.328125 8.203125 
Q 15.375 8.109375 15.40625 7.328125 
Q 15.4375 6.546875 15.453125 5.375 
Q 15.484375 4.203125 15.5 2.75 
Q 15.53125 1.3125 15.53125 -0.09375 
L 15.53125 -20.75 
L 6.734375 -20.75 
L 6.734375 42.046875 
Q 6.734375 43.953125 6.703125 45.703125 
Q 6.6875 47.46875 6.640625 48.90625 
Q 6.59375 50.34375 6.546875 51.359375 
Q 6.5 52.390625 6.453125 52.828125 
L 14.9375 52.828125 
Q 14.984375 52.6875 15.0625 51.796875 
Q 15.140625 50.921875 15.203125 49.671875 
Q 15.28125 48.4375 15.359375 47.015625 
Q 15.4375 45.609375 15.4375 44.34375 
L 15.625 44.34375 
Q 16.84375 46.875 18.40625 48.65625 
Q 19.96875 50.4375 21.96875 51.578125 
Q 23.96875 52.734375 26.4375 53.25 
Q 28.90625 53.765625 31.984375 53.765625 
Q 37.453125 53.765625 41.1875 51.8125 
Q 44.921875 49.859375 47.1875 46.3125 
Q 49.46875 42.78125 50.4375 37.765625 
Q 51.421875 32.765625 51.421875 26.65625 
z
M 42.1875 26.46875 
Q 42.1875 31.34375 41.59375 35.15625 
Q 41.015625 38.96875 39.578125 41.59375 
Q 38.140625 44.234375 35.734375 45.59375 
Q 33.34375 46.96875 29.734375 46.96875 
Q 26.8125 46.96875 24.21875 46.140625 
Q 21.625 45.3125 19.703125 42.96875 
Q 17.78125 40.625 16.65625 36.5 
Q 15.53125 32.375 15.53125 25.78125 
Q 15.53125 20.171875 16.453125 16.28125 
Q 17.390625 12.40625 19.171875 10.015625 
Q 20.953125 7.625 23.578125 6.5625 
Q 26.21875 5.515625 29.640625 5.515625 
Q 33.296875 5.515625 35.71875 6.921875 
Q 38.140625 8.34375 39.578125 11.03125 
Q 41.015625 13.71875 41.59375 17.59375 
Q 42.1875 21.484375 42.1875 26.46875 
z
" id="LiberationSans-112"/>
     <path d="M 6.9375 0 
L 6.9375 40.53125 
Q 6.9375 42.1875 6.90625 43.921875 
Q 6.890625 45.65625 6.828125 47.265625 
Q 6.78125 48.875 6.734375 50.28125 
Q 6.6875 51.703125 6.640625 52.828125 
L 14.9375 52.828125 
Q 14.984375 51.703125 15.0625 50.265625 
Q 15.140625 48.828125 15.203125 47.3125 
Q 15.28125 45.796875 15.296875 44.40625 
Q 15.328125 43.015625 15.328125 42.046875 
L 15.53125 42.046875 
Q 16.453125 45.0625 17.5 47.28125 
Q 18.5625 49.515625 19.96875 50.953125 
Q 21.390625 52.390625 23.34375 53.09375 
Q 25.296875 53.8125 28.078125 53.8125 
Q 29.15625 53.8125 30.125 53.640625 
Q 31.109375 53.46875 31.640625 53.328125 
L 31.640625 45.265625 
Q 30.765625 45.515625 29.59375 45.625 
Q 28.421875 45.75 26.953125 45.75 
Q 23.921875 45.75 21.796875 44.375 
Q 19.671875 43.015625 18.328125 40.59375 
Q 17 38.1875 16.359375 34.84375 
Q 15.71875 31.5 15.71875 27.546875 
L 15.71875 0 
z
" id="LiberationSans-114"/>
     <path d="M 17.625 46.4375 
L 17.625 0 
L 8.84375 0 
L 8.84375 46.4375 
L 1.421875 46.4375 
L 1.421875 52.828125 
L 8.84375 52.828125 
L 8.84375 58.796875 
Q 8.84375 61.671875 9.375 64.140625 
Q 9.90625 66.609375 11.34375 68.4375 
Q 12.796875 70.265625 15.28125 71.3125 
Q 17.78125 72.359375 21.734375 72.359375 
Q 23.296875 72.359375 24.96875 72.21875 
Q 26.65625 72.078125 27.9375 71.78125 
L 27.9375 65.09375 
Q 27.09375 65.234375 26 65.359375 
Q 24.90625 65.484375 24.03125 65.484375 
Q 22.078125 65.484375 20.828125 64.9375 
Q 19.578125 64.40625 18.875 63.40625 
Q 18.171875 62.40625 17.890625 60.9375 
Q 17.625 59.46875 17.625 57.5625 
L 17.625 52.828125 
L 27.9375 52.828125 
L 27.9375 46.4375 
z
" id="LiberationSans-102"/>
    </defs>
    <use xlink:href="#LiberationSans-68"/>
    <use x="72.216797" xlink:href="#LiberationSans-101"/>
    <use x="127.832031" xlink:href="#LiberationSans-99"/>
    <use x="177.832031" xlink:href="#LiberationSans-111"/>
    <use x="233.447266" xlink:href="#LiberationSans-100"/>
    <use x="289.0625" xlink:href="#LiberationSans-105"/>
    <use x="311.279297" xlink:href="#LiberationSans-110"/>
    <use x="366.894531" xlink:href="#LiberationSans-103"/>
    <use x="422.509766" xlink:href="#LiberationSans-32"/>
    <use x="450.292969" xlink:href="#LiberationSans-112"/>
    <use x="505.908203" xlink:href="#LiberationSans-101"/>
    <use x="561.523438" xlink:href="#LiberationSans-114"/>
    <use x="594.824219" xlink:href="#LiberationSans-102"/>
    <use x="622.607422" xlink:href="#LiberationSans-111"/>
    <use x="678.222656" xlink:href="#LiberationSans-114"/>
    <use x="711.523438" xlink:href="#LiberationSans-109"/>
    <use x="794.824219" xlink:href="#LiberationSans-97"/>
    <use x="850.439453" xlink:href="#LiberationSans-110"/>
    <use x="906.054688" xlink:href="#LiberationSans-99"/>
    <use x="956.054688" xlink:href="#LiberationSans-101"/>
   </g>
  </g>
 </g>
 <defs>
  <clipPath id="p68a64d09fd">
   <rect height="266.112" width="357.12" x="57.6" y="41.472"/>
  </clipPath>
 </defs>
</svg>
