<?xml version="1.0" encoding="utf-8" standalone="no"?>
<!DOCTYPE svg PUBLIC "-//W3C//DTD SVG 1.1//EN"
  "http://www.w3.org/Graphics/SVG/1.1/DTD/svg11.dtd">
<!-- Created with matplotlib (https://matplotlib.org/) -->
<svg height="345.6pt" version="1.1" viewBox="0 0 460.8 345.6" width="460.8pt" xmlns="http://www.w3.org/2000/svg" xmlns:xlink="http://www.w3.org/1999/xlink">
 <metadata>
  <rdf:RDF xmlns:cc="http://creativecommons.org/ns#" xmlns:dc="http://purl.org/dc/elements/1.1/" xmlns:rdf="http://www.w3.org/1999/02/22-rdf-syntax-ns#">
   <cc:Work>
    <dc:type rdf:resource="http://purl.org/dc/dcmitype/StillImage"/>
    <dc:date>2022-05-06T11:18:28.808682</dc:date>
    <dc:format>image/svg+xml</dc:format>
    <dc:creator>
     <cc:Agent>
      <dc:title>Matplotlib v3.3.4, https://matplotlib.org/</dc:title>
     </cc:Agent>
    </dc:creator>
   </cc:Work>
  </rdf:RDF>
 </metadata>
 <defs>
  <style type="text/css">*{stroke-linecap:butt;stroke-linejoin:round;}</style>
 </defs>
 <g id="figure_1">
  <g id="patch_1">
   <path d="M 0 345.6 
L 460.8 345.6 
L 460.8 0 
L 0 0 
z
" style="fill:#262626;"/>
  </g>
  <g id="axes_1">
   <g id="patch_2">
    <path d="M 57.6 162.432 
L 414.72 162.432 
L 414.72 41.472 
L 57.6 41.472 
z
" style="fill:#1a1a1a;"/>
   </g>
   <g id="matplotlib.axis_1">
    <g id="xtick_1">
     <g id="line2d_1">
      <defs>
       <path d="M 0 0 
L 0 3.5 
" id="me1274cab6a" style="stroke:#ffffff;stroke-width:0.8;"/>
      </defs>
      <g>
       <use style="fill:#ffffff;stroke:#ffffff;stroke-width:0.8;" x="73.832727" xlink:href="#me1274cab6a" y="162.432"/>
      </g>
     </g>
     <g id="text_1">
      <!-- 0 -->
      <g style="fill:#ffffff;" transform="translate(71.052259 176.678875)scale(0.1 -0.1)">
       <defs>
        <path d="M 51.703125 34.421875 
Q 51.703125 24.515625 49.828125 17.75 
Q 47.953125 10.984375 44.703125 6.8125 
Q 41.453125 2.640625 37.0625 0.828125 
Q 32.671875 -0.984375 27.6875 -0.984375 
Q 22.65625 -0.984375 18.3125 0.828125 
Q 13.96875 2.640625 10.765625 6.78125 
Q 7.5625 10.9375 5.734375 17.703125 
Q 3.90625 24.46875 3.90625 34.421875 
Q 3.90625 44.828125 5.734375 51.640625 
Q 7.5625 58.453125 10.78125 62.5 
Q 14.015625 66.546875 18.40625 68.1875 
Q 22.796875 69.828125 27.984375 69.828125 
Q 32.90625 69.828125 37.21875 68.1875 
Q 41.546875 66.546875 44.765625 62.5 
Q 48 58.453125 49.84375 51.640625 
Q 51.703125 44.828125 51.703125 34.421875 
z
M 42.78125 34.421875 
Q 42.78125 42.625 41.796875 48.0625 
Q 40.828125 53.515625 38.921875 56.765625 
Q 37.015625 60.015625 34.25 61.359375 
Q 31.5 62.703125 27.984375 62.703125 
Q 24.265625 62.703125 21.4375 61.328125 
Q 18.609375 59.96875 16.671875 56.71875 
Q 14.75 53.46875 13.765625 48.015625 
Q 12.796875 42.578125 12.796875 34.421875 
Q 12.796875 26.515625 13.796875 21.09375 
Q 14.796875 15.671875 16.71875 12.375 
Q 18.65625 9.078125 21.4375 7.640625 
Q 24.21875 6.203125 27.78125 6.203125 
Q 31.25 6.203125 34.03125 7.640625 
Q 36.8125 9.078125 38.734375 12.375 
Q 40.671875 15.671875 41.71875 21.09375 
Q 42.78125 26.515625 42.78125 34.421875 
z
" id="LiberationSans-48"/>
       </defs>
       <use xlink:href="#LiberationSans-48"/>
      </g>
     </g>
    </g>
    <g id="xtick_2">
     <g id="line2d_2">
      <g>
       <use style="fill:#ffffff;stroke:#ffffff;stroke-width:0.8;" x="138.776625" xlink:href="#me1274cab6a" y="162.432"/>
      </g>
     </g>
     <g id="text_2">
      <!-- 200 -->
      <g style="fill:#ffffff;" transform="translate(130.435219 176.678875)scale(0.1 -0.1)">
       <defs>
        <path d="M 5.03125 0 
L 5.03125 6.203125 
Q 7.515625 11.921875 11.109375 16.28125 
Q 14.703125 20.65625 18.65625 24.1875 
Q 22.609375 27.734375 26.484375 30.765625 
Q 30.375 33.796875 33.5 36.8125 
Q 36.625 39.84375 38.546875 43.15625 
Q 40.484375 46.484375 40.484375 50.6875 
Q 40.484375 53.609375 39.59375 55.828125 
Q 38.71875 58.0625 37.0625 59.5625 
Q 35.40625 61.078125 33.078125 61.828125 
Q 30.765625 62.59375 27.9375 62.59375 
Q 25.296875 62.59375 22.96875 61.859375 
Q 20.65625 61.140625 18.84375 59.671875 
Q 17.046875 58.203125 15.890625 56.03125 
Q 14.75 53.859375 14.40625 50.984375 
L 5.421875 51.8125 
Q 5.859375 55.515625 7.46875 58.78125 
Q 9.078125 62.0625 11.90625 64.53125 
Q 14.75 67 18.71875 68.40625 
Q 22.703125 69.828125 27.9375 69.828125 
Q 33.0625 69.828125 37.0625 68.609375 
Q 41.0625 67.390625 43.8125 64.984375 
Q 46.578125 62.59375 48.046875 59.078125 
Q 49.515625 55.5625 49.515625 50.984375 
Q 49.515625 47.515625 48.265625 44.390625 
Q 47.015625 41.265625 44.9375 38.421875 
Q 42.875 35.59375 40.140625 32.953125 
Q 37.40625 30.328125 34.421875 27.8125 
Q 31.453125 25.296875 28.421875 22.828125 
Q 25.390625 20.359375 22.71875 17.859375 
Q 20.0625 15.375 17.96875 12.8125 
Q 15.875 10.25 14.703125 7.46875 
L 50.59375 7.46875 
L 50.59375 0 
z
" id="LiberationSans-50"/>
       </defs>
       <use xlink:href="#LiberationSans-50"/>
       <use x="55.615234" xlink:href="#LiberationSans-48"/>
       <use x="111.230469" xlink:href="#LiberationSans-48"/>
      </g>
     </g>
    </g>
    <g id="xtick_3">
     <g id="line2d_3">
      <g>
       <use style="fill:#ffffff;stroke:#ffffff;stroke-width:0.8;" x="203.720523" xlink:href="#me1274cab6a" y="162.432"/>
      </g>
     </g>
     <g id="text_3">
      <!-- 400 -->
      <g style="fill:#ffffff;" transform="translate(195.379117 176.678875)scale(0.1 -0.1)">
       <defs>
        <path d="M 43.015625 15.578125 
L 43.015625 0 
L 34.71875 0 
L 34.71875 15.578125 
L 2.296875 15.578125 
L 2.296875 22.40625 
L 33.796875 68.796875 
L 43.015625 68.796875 
L 43.015625 22.515625 
L 52.6875 22.515625 
L 52.6875 15.578125 
z
M 34.71875 58.890625 
Q 34.625 58.640625 34.234375 57.9375 
Q 33.84375 57.234375 33.34375 56.34375 
Q 32.859375 55.46875 32.34375 54.5625 
Q 31.84375 53.65625 31.453125 53.078125 
L 13.8125 27.09375 
Q 13.578125 26.703125 13.109375 26.0625 
Q 12.640625 25.4375 12.15625 24.78125 
Q 11.671875 24.125 11.171875 23.484375 
Q 10.6875 22.859375 10.40625 22.515625 
L 34.71875 22.515625 
z
" id="LiberationSans-52"/>
       </defs>
       <use xlink:href="#LiberationSans-52"/>
       <use x="55.615234" xlink:href="#LiberationSans-48"/>
       <use x="111.230469" xlink:href="#LiberationSans-48"/>
      </g>
     </g>
    </g>
    <g id="xtick_4">
     <g id="line2d_4">
      <g>
       <use style="fill:#ffffff;stroke:#ffffff;stroke-width:0.8;" x="268.664421" xlink:href="#me1274cab6a" y="162.432"/>
      </g>
     </g>
     <g id="text_4">
      <!-- 600 -->
      <g style="fill:#ffffff;" transform="translate(260.323015 176.678875)scale(0.1 -0.1)">
       <defs>
        <path d="M 51.21875 22.515625 
Q 51.21875 17.328125 49.78125 13 
Q 48.34375 8.6875 45.53125 5.578125 
Q 42.71875 2.484375 38.5625 0.75 
Q 34.421875 -0.984375 29 -0.984375 
Q 23 -0.984375 18.5 1.3125 
Q 14.015625 3.609375 11.03125 7.921875 
Q 8.0625 12.25 6.5625 18.53125 
Q 5.078125 24.8125 5.078125 32.8125 
Q 5.078125 42 6.765625 48.921875 
Q 8.453125 55.859375 11.625 60.5 
Q 14.796875 65.140625 19.359375 67.484375 
Q 23.921875 69.828125 29.6875 69.828125 
Q 33.203125 69.828125 36.28125 69.09375 
Q 39.359375 68.359375 41.875 66.71875 
Q 44.390625 65.09375 46.28125 62.40625 
Q 48.1875 59.71875 49.3125 55.8125 
L 40.921875 54.296875 
Q 39.546875 58.734375 36.546875 60.71875 
Q 33.546875 62.703125 29.59375 62.703125 
Q 25.984375 62.703125 23.046875 60.984375 
Q 20.125 59.28125 18.0625 55.875 
Q 16.015625 52.484375 14.90625 47.359375 
Q 13.8125 42.234375 13.8125 35.40625 
Q 16.21875 39.84375 20.5625 42.15625 
Q 24.90625 44.484375 30.515625 44.484375 
Q 35.203125 44.484375 39.015625 42.96875 
Q 42.828125 41.453125 45.53125 38.59375 
Q 48.25 35.75 49.734375 31.671875 
Q 51.21875 27.59375 51.21875 22.515625 
z
M 42.28125 22.125 
Q 42.28125 25.6875 41.40625 28.5625 
Q 40.53125 31.453125 38.765625 33.46875 
Q 37.015625 35.5 34.421875 36.59375 
Q 31.84375 37.703125 28.421875 37.703125 
Q 26.03125 37.703125 23.578125 36.984375 
Q 21.140625 36.28125 19.15625 34.6875 
Q 17.1875 33.109375 15.9375 30.515625 
Q 14.703125 27.9375 14.703125 24.21875 
Q 14.703125 20.40625 15.671875 17.109375 
Q 16.65625 13.8125 18.484375 11.375 
Q 20.3125 8.9375 22.890625 7.515625 
Q 25.484375 6.109375 28.71875 6.109375 
Q 31.890625 6.109375 34.40625 7.203125 
Q 36.921875 8.296875 38.671875 10.375 
Q 40.4375 12.453125 41.359375 15.421875 
Q 42.28125 18.40625 42.28125 22.125 
z
" id="LiberationSans-54"/>
       </defs>
       <use xlink:href="#LiberationSans-54"/>
       <use x="55.615234" xlink:href="#LiberationSans-48"/>
       <use x="111.230469" xlink:href="#LiberationSans-48"/>
      </g>
     </g>
    </g>
    <g id="xtick_5">
     <g id="line2d_5">
      <g>
       <use style="fill:#ffffff;stroke:#ffffff;stroke-width:0.8;" x="333.608319" xlink:href="#me1274cab6a" y="162.432"/>
      </g>
     </g>
     <g id="text_5">
      <!-- 800 -->
      <g style="fill:#ffffff;" transform="translate(325.266913 176.678875)scale(0.1 -0.1)">
       <defs>
        <path d="M 51.265625 19.1875 
Q 51.265625 14.796875 49.875 11.109375 
Q 48.484375 7.421875 45.625 4.734375 
Q 42.78125 2.046875 38.328125 0.53125 
Q 33.890625 -0.984375 27.828125 -0.984375 
Q 21.78125 -0.984375 17.359375 0.53125 
Q 12.9375 2.046875 10.03125 4.703125 
Q 7.125 7.375 5.734375 11.0625 
Q 4.34375 14.75 4.34375 19.09375 
Q 4.34375 22.859375 5.484375 25.78125 
Q 6.640625 28.71875 8.5625 30.828125 
Q 10.5 32.953125 12.96875 34.25 
Q 15.4375 35.546875 18.0625 35.984375 
L 18.0625 36.1875 
Q 15.1875 36.859375 12.90625 38.375 
Q 10.640625 39.890625 9.09375 42.015625 
Q 7.5625 44.140625 6.75 46.71875 
Q 5.953125 49.3125 5.953125 52.203125 
Q 5.953125 55.8125 7.34375 59 
Q 8.734375 62.203125 11.46875 64.625 
Q 14.203125 67.046875 18.25 68.4375 
Q 22.3125 69.828125 27.640625 69.828125 
Q 33.25 69.828125 37.375 68.40625 
Q 41.5 67 44.203125 64.578125 
Q 46.921875 62.15625 48.234375 58.9375 
Q 49.5625 55.71875 49.5625 52.09375 
Q 49.5625 49.265625 48.75 46.671875 
Q 47.953125 44.09375 46.40625 41.96875 
Q 44.875 39.84375 42.59375 38.34375 
Q 40.328125 36.859375 37.359375 36.28125 
L 37.359375 36.078125 
Q 40.328125 35.59375 42.859375 34.296875 
Q 45.40625 33.015625 47.265625 30.890625 
Q 49.125 28.765625 50.1875 25.828125 
Q 51.265625 22.90625 51.265625 19.1875 
z
M 40.4375 51.609375 
Q 40.4375 54.203125 39.765625 56.34375 
Q 39.109375 58.5 37.59375 60.03125 
Q 36.078125 61.578125 33.640625 62.421875 
Q 31.203125 63.28125 27.640625 63.28125 
Q 24.171875 63.28125 21.78125 62.421875 
Q 19.390625 61.578125 17.84375 60.03125 
Q 16.3125 58.5 15.625 56.34375 
Q 14.9375 54.203125 14.9375 51.609375 
Q 14.9375 49.5625 15.46875 47.40625 
Q 16.015625 45.265625 17.421875 43.5 
Q 18.84375 41.75 21.328125 40.625 
Q 23.828125 39.5 27.734375 39.5 
Q 31.890625 39.5 34.40625 40.625 
Q 36.921875 41.75 38.25 43.5 
Q 39.59375 45.265625 40.015625 47.40625 
Q 40.4375 49.5625 40.4375 51.609375 
z
M 42.140625 20.015625 
Q 42.140625 22.515625 41.453125 24.828125 
Q 40.765625 27.15625 39.109375 28.9375 
Q 37.453125 30.71875 34.640625 31.8125 
Q 31.84375 32.90625 27.640625 32.90625 
Q 23.78125 32.90625 21.0625 31.8125 
Q 18.359375 30.71875 16.671875 28.90625 
Q 14.984375 27.09375 14.203125 24.71875 
Q 13.421875 22.359375 13.421875 19.828125 
Q 13.421875 16.65625 14.203125 14.03125 
Q 14.984375 11.421875 16.6875 9.546875 
Q 18.40625 7.671875 21.1875 6.640625 
Q 23.96875 5.609375 27.9375 5.609375 
Q 31.9375 5.609375 34.671875 6.640625 
Q 37.40625 7.671875 39.0625 9.546875 
Q 40.71875 11.421875 41.421875 14.078125 
Q 42.140625 16.75 42.140625 20.015625 
z
" id="LiberationSans-56"/>
       </defs>
       <use xlink:href="#LiberationSans-56"/>
       <use x="55.615234" xlink:href="#LiberationSans-48"/>
       <use x="111.230469" xlink:href="#LiberationSans-48"/>
      </g>
     </g>
    </g>
    <g id="xtick_6">
     <g id="line2d_6">
      <g>
       <use style="fill:#ffffff;stroke:#ffffff;stroke-width:0.8;" x="398.552217" xlink:href="#me1274cab6a" y="162.432"/>
      </g>
     </g>
     <g id="text_6">
      <!-- 1000 -->
      <g style="fill:#ffffff;" transform="translate(387.430342 176.678875)scale(0.1 -0.1)">
       <defs>
        <path d="M 7.625 0 
L 7.625 7.46875 
L 25.140625 7.46875 
L 25.140625 60.40625 
L 9.625 49.3125 
L 9.625 57.625 
L 25.875 68.796875 
L 33.984375 68.796875 
L 33.984375 7.46875 
L 50.734375 7.46875 
L 50.734375 0 
z
" id="LiberationSans-49"/>
       </defs>
       <use xlink:href="#LiberationSans-49"/>
       <use x="55.615234" xlink:href="#LiberationSans-48"/>
       <use x="111.230469" xlink:href="#LiberationSans-48"/>
       <use x="166.845703" xlink:href="#LiberationSans-48"/>
      </g>
     </g>
    </g>
   </g>
   <g id="matplotlib.axis_2">
    <g id="ytick_1">
     <g id="line2d_7">
      <defs>
       <path d="M 0 0 
L -3.5 0 
" id="mf406b248f5" style="stroke:#ffffff;stroke-width:0.8;"/>
      </defs>
      <g>
       <use style="fill:#ffffff;stroke:#ffffff;stroke-width:0.8;" x="57.6" xlink:href="#mf406b248f5" y="152.248507"/>
      </g>
     </g>
     <g id="text_7">
      <!-- 0.0 -->
      <g style="fill:#ffffff;" transform="translate(36.7 155.871944)scale(0.1 -0.1)">
       <defs>
        <path d="M 9.125 0 
L 9.125 10.6875 
L 18.65625 10.6875 
L 18.65625 0 
z
" id="LiberationSans-46"/>
       </defs>
       <use xlink:href="#LiberationSans-48"/>
       <use x="55.615234" xlink:href="#LiberationSans-46"/>
       <use x="83.398438" xlink:href="#LiberationSans-48"/>
      </g>
     </g>
    </g>
    <g id="ytick_2">
     <g id="line2d_8">
      <g>
       <use style="fill:#ffffff;stroke:#ffffff;stroke-width:0.8;" x="57.6" xlink:href="#mf406b248f5" y="121.361229"/>
      </g>
     </g>
     <g id="text_8">
      <!-- 0.5 -->
      <g style="fill:#ffffff;" transform="translate(36.7 124.984666)scale(0.1 -0.1)">
       <defs>
        <path d="M 51.421875 22.40625 
Q 51.421875 17.234375 49.859375 12.9375 
Q 48.296875 8.640625 45.21875 5.53125 
Q 42.140625 2.4375 37.578125 0.71875 
Q 33.015625 -0.984375 27 -0.984375 
Q 21.578125 -0.984375 17.546875 0.28125 
Q 13.53125 1.5625 10.734375 3.78125 
Q 7.953125 6 6.3125 8.984375 
Q 4.6875 11.96875 4 15.375 
L 12.890625 16.40625 
Q 13.421875 14.453125 14.390625 12.625 
Q 15.375 10.796875 17.0625 9.34375 
Q 18.75 7.90625 21.21875 7.046875 
Q 23.6875 6.203125 27.203125 6.203125 
Q 30.609375 6.203125 33.390625 7.25 
Q 36.1875 8.296875 38.15625 10.34375 
Q 40.140625 12.40625 41.203125 15.375 
Q 42.28125 18.359375 42.28125 22.21875 
Q 42.28125 25.390625 41.25 28.046875 
Q 40.234375 30.71875 38.328125 32.640625 
Q 36.421875 34.578125 33.65625 35.640625 
Q 30.90625 36.71875 27.390625 36.71875 
Q 25.203125 36.71875 23.34375 36.328125 
Q 21.484375 35.9375 19.890625 35.25 
Q 18.3125 34.578125 17.015625 33.671875 
Q 15.71875 32.765625 14.59375 31.78125 
L 6 31.78125 
L 8.296875 68.796875 
L 47.40625 68.796875 
L 47.40625 61.328125 
L 16.3125 61.328125 
L 14.984375 39.5 
Q 17.328125 41.3125 20.84375 42.59375 
Q 24.359375 43.890625 29.203125 43.890625 
Q 34.328125 43.890625 38.421875 42.328125 
Q 42.53125 40.765625 45.40625 37.90625 
Q 48.296875 35.0625 49.859375 31.109375 
Q 51.421875 27.15625 51.421875 22.40625 
z
" id="LiberationSans-53"/>
       </defs>
       <use xlink:href="#LiberationSans-48"/>
       <use x="55.615234" xlink:href="#LiberationSans-46"/>
       <use x="83.398438" xlink:href="#LiberationSans-53"/>
      </g>
     </g>
    </g>
    <g id="ytick_3">
     <g id="line2d_9">
      <g>
       <use style="fill:#ffffff;stroke:#ffffff;stroke-width:0.8;" x="57.6" xlink:href="#mf406b248f5" y="90.473951"/>
      </g>
     </g>
     <g id="text_9">
      <!-- 1.0 -->
      <g style="fill:#ffffff;" transform="translate(36.7 94.097388)scale(0.1 -0.1)">
       <use xlink:href="#LiberationSans-49"/>
       <use x="55.615234" xlink:href="#LiberationSans-46"/>
       <use x="83.398438" xlink:href="#LiberationSans-48"/>
      </g>
     </g>
    </g>
    <g id="ytick_4">
     <g id="line2d_10">
      <g>
       <use style="fill:#ffffff;stroke:#ffffff;stroke-width:0.8;" x="57.6" xlink:href="#mf406b248f5" y="59.586672"/>
      </g>
     </g>
     <g id="text_10">
      <!-- 1.5 -->
      <g style="fill:#ffffff;" transform="translate(36.7 63.21011)scale(0.1 -0.1)">
       <use xlink:href="#LiberationSans-49"/>
       <use x="55.615234" xlink:href="#LiberationSans-46"/>
       <use x="83.398438" xlink:href="#LiberationSans-53"/>
      </g>
     </g>
    </g>
   </g>
   <g id="line2d_11">
    <path clip-path="url(#p39028a7573)" d="M 73.832727 156.933818 
L 73.897671 101.510268 
L 73.962615 102.015122 
L 75.196549 110.70755 
L 76.430483 117.895833 
L 77.664417 123.84025 
L 78.054081 125.494618 
L 78.119025 70.383892 
L 78.183968 71.198459 
L 79.417902 85.223429 
L 80.651837 96.821507 
L 81.885771 106.412643 
L 83.119705 114.344121 
L 84.353639 120.903128 
L 85.327797 125.26929 
L 85.392741 70.160806 
L 85.457685 70.977593 
L 86.691619 85.040782 
L 87.925553 96.670465 
L 89.159487 106.287737 
L 90.393421 114.240829 
L 90.912972 117.162998 
L 90.977916 62.135174 
L 91.04286 63.031816 
L 92.276794 78.46995 
L 93.510728 91.236655 
L 94.744662 101.794199 
L 95.978596 110.524856 
L 97.212531 117.744753 
L 98.186689 122.55085 
L 98.251633 67.469416 
L 98.316577 68.312982 
L 99.550511 82.837258 
L 100.784445 94.848241 
L 101.628716 101.845595 
L 101.693659 46.970182 
L 101.758603 48.017719 
L 102.992537 66.053904 
L 104.226471 80.969093 
L 105.460406 93.303345 
L 106.69434 103.503266 
L 107.928274 111.938185 
L 109.162208 118.913518 
L 110.396142 124.681833 
L 110.980637 127.054464 
L 111.045581 71.928218 
L 111.110525 72.727419 
L 112.344459 86.487817 
L 113.578393 97.867103 
L 114.812327 107.277308 
L 116.046261 115.059164 
L 116.176149 115.795562 
L 116.241093 60.781344 
L 116.306036 61.691457 
L 117.539971 77.361528 
L 118.773905 90.320035 
L 120.007839 101.036192 
L 121.241773 109.898015 
L 122.475707 117.226381 
L 123.384921 121.801733 
L 123.449865 66.727753 
L 123.514809 67.578698 
L 124.748743 82.230035 
L 125.982677 94.346092 
L 127.216611 104.365576 
L 128.450545 112.65128 
L 129.684479 119.503218 
L 130.788526 124.622459 
L 130.85347 69.520412 
L 130.918414 70.34357 
L 132.152348 84.516471 
L 133.386282 96.236881 
L 134.620216 105.929182 
L 135.85415 113.944318 
L 137.088084 120.572508 
L 138.322018 126.05375 
L 138.711681 127.579214 
L 138.776625 72.447747 
L 138.841569 73.241778 
L 140.075503 86.91317 
L 141.309437 98.218854 
L 142.478427 107.119147 
L 142.543371 52.191261 
L 142.608315 53.186847 
L 143.842249 70.328562 
L 145.076183 84.50406 
L 146.310117 96.226618 
L 147.544051 105.920694 
L 148.777985 113.937299 
L 150.011919 120.566704 
L 151.245854 126.04895 
L 152.479788 130.582544 
L 152.804507 131.639206 
L 152.869451 76.467341 
L 152.934395 77.221376 
L 154.168329 90.204136 
L 155.402263 100.940347 
L 156.636197 109.818756 
L 157.870131 117.160837 
L 158.259795 119.204183 
L 158.324738 64.156049 
L 158.389682 65.032584 
L 159.623616 80.124503 
L 160.85755 92.604903 
L 162.091484 102.925684 
L 163.325419 111.460548 
L 164.559353 118.518531 
L 165.793287 124.355196 
L 166.377782 126.75594 
L 166.442726 71.632664 
L 166.50767 72.434805 
L 167.741604 86.245837 
L 168.455986 93.121062 
L 168.585874 98.468375 
L 169.819808 107.774536 
L 170.469247 112.006794 
L 170.534191 57.030275 
L 170.599135 57.977712 
L 171.833069 74.290412 
L 173.067003 87.780348 
L 174.300937 98.935974 
L 175.534871 108.161221 
L 176.768805 115.790123 
L 178.002739 122.098913 
L 179.236674 127.316025 
L 180.210832 130.788921 
L 180.275776 75.625517 
L 180.34072 76.387928 
L 181.574654 89.514908 
L 182.808588 100.370384 
L 184.042522 109.34742 
L 185.276456 116.771061 
L 186.51039 122.910109 
L 187.029941 125.165752 
L 187.094885 70.058299 
L 187.159829 70.876105 
L 188.393763 84.956856 
L 189.627697 96.601062 
L 190.861631 106.230344 
L 192.095565 114.193367 
L 193.329499 120.778461 
L 193.978938 123.773232 
L 194.043882 68.679635 
L 194.108826 69.511159 
L 194.303658 76.091371 
L 195.537592 89.269668 
L 196.771526 100.167581 
L 198.00546 109.179709 
L 199.239394 116.632371 
L 200.473328 122.795418 
L 201.707262 127.892006 
L 202.291757 129.988341 
L 202.356701 74.832903 
L 202.421645 79.821687 
L 203.655579 92.354486 
L 204.889513 102.718599 
L 206.123447 111.289297 
L 207.357381 118.376915 
L 207.682101 120.028852 
L 207.747045 64.972512 
L 207.811989 65.840922 
L 209.045923 80.792966 
L 210.279857 93.157694 
L 211.513791 103.38282 
L 212.747725 111.83858 
L 213.981659 118.831149 
L 214.176491 119.818781 
L 214.241434 64.764532 
L 214.306378 65.635012 
L 215.540312 80.622686 
L 216.774246 93.01688 
L 218.008181 103.266372 
L 219.242115 111.742283 
L 220.476049 118.751515 
L 221.709983 124.547863 
L 222.034702 125.89884 
L 222.099646 70.784093 
L 222.16459 71.594677 
L 223.398524 85.551086 
L 224.632458 97.092465 
L 225.866392 106.636714 
L 227.100326 114.529418 
L 228.33426 121.056362 
L 229.568194 126.453878 
L 230.347521 129.370723 
L 230.412465 74.22143 
L 230.477409 74.997812 
L 231.711343 88.36534 
L 232.945277 99.419738 
L 234.179211 108.561274 
L 235.413145 116.120951 
L 235.478089 116.480426 
L 235.543033 61.459393 
L 235.607977 62.36276 
L 236.841911 77.916667 
L 238.075845 90.779113 
L 239.309779 101.41583 
L 240.543713 110.211961 
L 241.777647 117.486001 
L 242.427086 120.794091 
L 242.49203 65.730137 
L 242.556974 66.591009 
L 243.790908 81.413256 
L 245.024842 93.67065 
L 246.258776 103.807013 
L 247.49271 112.189371 
L 248.726644 119.121238 
L 249.895634 124.578286 
L 249.960578 69.476679 
L 250.025522 70.300272 
L 251.259456 84.480666 
L 252.49339 96.207272 
L 253.727324 105.904695 
L 254.961258 113.924069 
L 255.221034 115.426791 
L 255.285978 60.416243 
L 255.350922 61.329989 
L 256.584856 77.062608 
L 257.81879 90.072841 
L 259.052724 100.831772 
L 260.286658 109.728968 
L 261.520592 117.086586 
L 262.754526 123.171035 
L 263.663741 126.969768 
L 263.728685 71.844364 
L 263.793629 72.644399 
L 263.858572 73.436473 
L 264.053404 79.900675 
L 265.287338 92.419806 
L 266.521272 102.772616 
L 267.755206 111.333967 
L 268.98914 118.413855 
L 270.223074 124.268632 
L 270.742626 126.419827 
L 270.80757 71.299896 
L 270.872513 72.105348 
L 272.106447 85.97339 
L 273.340382 97.441693 
L 274.574316 106.925512 
L 275.80825 114.768242 
L 276.392745 117.994124 
L 276.457689 62.95803 
L 276.522633 63.846485 
L 277.756567 79.143647 
L 278.990501 91.793776 
L 280.224435 102.254915 
L 281.458369 110.905849 
L 282.692303 118.059818 
L 283.47163 121.92586 
L 283.536573 66.850645 
L 283.601517 67.700368 
L 284.835451 82.330651 
L 286.069386 94.429297 
L 287.30332 104.434383 
L 288.537254 112.708181 
L 288.991861 115.381351 
L 289.056805 60.371255 
L 289.121749 61.285449 
L 290.355683 77.025775 
L 291.589617 90.042382 
L 292.823551 100.806583 
L 294.057485 109.708138 
L 294.9667 115.265687 
L 295.031643 60.256741 
L 295.096587 61.172075 
L 296.330521 76.932019 
L 297.564455 89.96485 
L 298.798389 100.742468 
L 300.032324 109.655117 
L 301.266258 117.025514 
L 301.98064 120.694548 
L 302.045584 65.631584 
L 302.110528 66.493437 
L 303.344462 81.332568 
L 304.578396 93.603924 
L 305.81233 103.751833 
L 307.046265 112.14374 
L 308.280199 119.083503 
L 309.514133 124.822404 
L 309.838852 126.159991 
L 309.903796 71.042645 
L 309.96874 71.850657 
L 311.202674 85.762771 
L 312.436608 97.26752 
L 313.345823 104.450333 
L 313.410767 49.549002 
L 313.47571 50.570879 
L 314.709644 68.165264 
L 315.943579 82.715101 
L 317.177513 94.747222 
L 318.411447 104.697294 
L 319.645381 112.925597 
L 320.814371 119.403252 
L 320.879315 64.353137 
L 320.944259 65.22771 
L 322.178193 80.285864 
L 323.412127 92.738342 
L 324.646061 103.036033 
L 325.879995 111.551802 
L 327.113929 118.593995 
L 327.763368 121.796645 
L 327.828312 66.722715 
L 327.893256 67.573711 
L 329.12719 82.225911 
L 330.361124 94.342682 
L 330.945619 99.326567 
L 331.075507 104.551003 
L 332.309441 112.80462 
L 333.023824 116.913327 
L 333.088768 61.887987 
L 333.153711 62.787089 
L 334.387646 78.26757 
L 335.62158 91.069296 
L 336.855514 101.655799 
L 338.089448 110.410405 
L 339.323382 117.650107 
L 339.713045 119.664961 
L 339.777989 64.612241 
L 339.842933 65.484237 
L 341.076867 80.498001 
L 342.310801 92.913771 
L 343.544735 103.181105 
L 344.778669 111.671771 
L 346.012603 118.693204 
L 347.246537 124.499643 
L 347.311481 124.775749 
L 347.376425 69.672176 
L 347.441369 70.493824 
L 348.675303 84.640726 
L 349.909237 96.339635 
L 351.143171 106.014154 
L 352.377105 114.014587 
L 353.611039 120.630617 
L 354.585198 125.034737 
L 354.650142 69.928588 
L 354.715086 70.747685 
L 355.94902 84.850657 
L 357.182954 96.51324 
L 358.416888 106.157719 
L 359.326102 112.1791 
L 359.391046 57.200867 
L 359.45599 58.146607 
L 360.689924 74.430081 
L 361.923858 87.895849 
L 363.157792 99.031488 
L 364.391726 108.240207 
L 365.560717 115.489685 
L 365.690604 120.39407 
L 366.924538 125.906189 
L 367.963641 129.801064 
L 368.028585 74.647489 
L 368.093529 75.419632 
L 369.327463 88.714167 
L 370.561397 99.708204 
L 371.795331 108.799824 
L 373.029265 116.318222 
L 374.263199 122.535629 
L 374.977582 125.630697 
L 375.042526 70.518618 
L 375.107469 71.331844 
L 376.341404 85.333733 
L 377.575338 96.912723 
L 378.809272 106.488075 
L 380.043206 114.4065 
L 381.27714 120.954714 
L 381.926579 123.932712 
L 381.991523 68.837528 
L 382.056467 69.667481 
L 383.290401 83.957373 
L 384.524335 95.77453 
L 385.758269 105.546836 
L 386.992203 113.628133 
L 388.226137 120.311036 
L 389.395127 125.572089 
L 389.460071 70.460593 
L 389.525015 71.274396 
L 390.758949 85.286227 
L 391.992883 96.873437 
L 393.226817 106.455587 
L 394.460751 114.379634 
L 394.525695 59.379505 
L 394.590639 60.303567 
L 395.305022 69.881091 
L 395.499853 76.45037 
L 396.733787 89.566545 
L 397.967722 100.413086 
L 398.487273 104.398383 
L 398.487273 104.398383 
" style="fill:none;stroke:#9a72ac;stroke-linecap:round;stroke-width:1.5;"/>
   </g>
   <g id="line2d_12">
    <path clip-path="url(#p39028a7573)" d="M 73.832727 90.473951 
L 398.487273 90.473951 
L 398.487273 90.473951 
" style="fill:none;stroke:#cf5044;stroke-linecap:round;stroke-width:1.5;"/>
   </g>
   <g id="patch_3">
    <path d="M 57.6 162.432 
L 57.6 41.472 
" style="fill:none;stroke:#ffffff;stroke-linecap:square;stroke-linejoin:miter;stroke-width:0.8;"/>
   </g>
   <g id="patch_4">
    <path d="M 414.72 162.432 
L 414.72 41.472 
" style="fill:none;stroke:#ffffff;stroke-linecap:square;stroke-linejoin:miter;stroke-width:0.8;"/>
   </g>
   <g id="patch_5">
    <path d="M 57.6 162.432 
L 414.72 162.432 
" style="fill:none;stroke:#ffffff;stroke-linecap:square;stroke-linejoin:miter;stroke-width:0.8;"/>
   </g>
   <g id="patch_6">
    <path d="M 57.6 41.472 
L 414.72 41.472 
" style="fill:none;stroke:#ffffff;stroke-linecap:square;stroke-linejoin:miter;stroke-width:0.8;"/>
   </g>
   <g id="legend_1">
    <g id="line2d_13">
     <path d="M 66.6 133.535125 
L 86.6 133.535125 
" style="fill:none;stroke:#9a72ac;stroke-linecap:round;stroke-width:1.5;"/>
    </g>
    <g id="line2d_14"/>
    <g id="text_11">
     <!-- $\hat{x}$ -->
     <g style="fill:#ffffff;" transform="translate(94.6 137.035125)scale(0.1 -0.1)">
      <defs>
       <path d="M -28.609375 79.984375 
L -21.390625 79.984375 
L -9.421875 61.625 
L -16.21875 61.625 
L -25 73.578125 
L -33.796875 61.625 
L -40.578125 61.625 
z
M -25 56 
z
" id="DejaVuSans-770"/>
       <path d="M 60.015625 54.6875 
L 34.90625 27.875 
L 50.296875 0 
L 39.984375 0 
L 28.421875 21.6875 
L 8.296875 0 
L -2.59375 0 
L 24.3125 28.8125 
L 10.015625 54.6875 
L 20.3125 54.6875 
L 30.8125 34.90625 
L 49.125 54.6875 
z
" id="DejaVuSans-Oblique-120"/>
      </defs>
      <use transform="translate(62.373047 12.015625)" xlink:href="#DejaVuSans-770"/>
      <use transform="translate(0 0.828125)" xlink:href="#DejaVuSans-Oblique-120"/>
     </g>
    </g>
    <g id="line2d_15">
     <path d="M 66.6 147.857 
L 86.6 147.857 
" style="fill:none;stroke:#cf5044;stroke-linecap:round;stroke-width:1.5;"/>
    </g>
    <g id="line2d_16"/>
    <g id="text_12">
     <!-- x -->
     <g style="fill:#ffffff;" transform="translate(94.6 151.357)scale(0.1 -0.1)">
      <defs>
       <path d="M 39.109375 0 
L 24.90625 21.6875 
L 10.59375 0 
L 1.125 0 
L 19.921875 27.15625 
L 2 52.828125 
L 11.71875 52.828125 
L 24.90625 32.28125 
L 37.984375 52.828125 
L 47.796875 52.828125 
L 29.890625 27.25 
L 48.921875 0 
z
" id="LiberationSans-120"/>
      </defs>
      <use xlink:href="#LiberationSans-120"/>
     </g>
    </g>
   </g>
  </g>
  <g id="axes_2">
   <g id="patch_7">
    <path d="M 57.6 307.584 
L 414.72 307.584 
L 414.72 186.624 
L 57.6 186.624 
z
" style="fill:#1a1a1a;"/>
   </g>
   <g id="matplotlib.axis_3">
    <g id="xtick_7">
     <g id="line2d_17">
      <g>
       <use style="fill:#ffffff;stroke:#ffffff;stroke-width:0.8;" x="73.832727" xlink:href="#me1274cab6a" y="307.584"/>
      </g>
     </g>
     <g id="text_13">
      <!-- 0 -->
      <g style="fill:#ffffff;" transform="translate(71.052259 321.830875)scale(0.1 -0.1)">
       <use xlink:href="#LiberationSans-48"/>
      </g>
     </g>
    </g>
    <g id="xtick_8">
     <g id="line2d_18">
      <g>
       <use style="fill:#ffffff;stroke:#ffffff;stroke-width:0.8;" x="138.776625" xlink:href="#me1274cab6a" y="307.584"/>
      </g>
     </g>
     <g id="text_14">
      <!-- 200 -->
      <g style="fill:#ffffff;" transform="translate(130.435219 321.830875)scale(0.1 -0.1)">
       <use xlink:href="#LiberationSans-50"/>
       <use x="55.615234" xlink:href="#LiberationSans-48"/>
       <use x="111.230469" xlink:href="#LiberationSans-48"/>
      </g>
     </g>
    </g>
    <g id="xtick_9">
     <g id="line2d_19">
      <g>
       <use style="fill:#ffffff;stroke:#ffffff;stroke-width:0.8;" x="203.720523" xlink:href="#me1274cab6a" y="307.584"/>
      </g>
     </g>
     <g id="text_15">
      <!-- 400 -->
      <g style="fill:#ffffff;" transform="translate(195.379117 321.830875)scale(0.1 -0.1)">
       <use xlink:href="#LiberationSans-52"/>
       <use x="55.615234" xlink:href="#LiberationSans-48"/>
       <use x="111.230469" xlink:href="#LiberationSans-48"/>
      </g>
     </g>
    </g>
    <g id="xtick_10">
     <g id="line2d_20">
      <g>
       <use style="fill:#ffffff;stroke:#ffffff;stroke-width:0.8;" x="268.664421" xlink:href="#me1274cab6a" y="307.584"/>
      </g>
     </g>
     <g id="text_16">
      <!-- 600 -->
      <g style="fill:#ffffff;" transform="translate(260.323015 321.830875)scale(0.1 -0.1)">
       <use xlink:href="#LiberationSans-54"/>
       <use x="55.615234" xlink:href="#LiberationSans-48"/>
       <use x="111.230469" xlink:href="#LiberationSans-48"/>
      </g>
     </g>
    </g>
    <g id="xtick_11">
     <g id="line2d_21">
      <g>
       <use style="fill:#ffffff;stroke:#ffffff;stroke-width:0.8;" x="333.608319" xlink:href="#me1274cab6a" y="307.584"/>
      </g>
     </g>
     <g id="text_17">
      <!-- 800 -->
      <g style="fill:#ffffff;" transform="translate(325.266913 321.830875)scale(0.1 -0.1)">
       <use xlink:href="#LiberationSans-56"/>
       <use x="55.615234" xlink:href="#LiberationSans-48"/>
       <use x="111.230469" xlink:href="#LiberationSans-48"/>
      </g>
     </g>
    </g>
    <g id="xtick_12">
     <g id="line2d_22">
      <g>
       <use style="fill:#ffffff;stroke:#ffffff;stroke-width:0.8;" x="398.552217" xlink:href="#me1274cab6a" y="307.584"/>
      </g>
     </g>
     <g id="text_18">
      <!-- 1000 -->
      <g style="fill:#ffffff;" transform="translate(387.430342 321.830875)scale(0.1 -0.1)">
       <use xlink:href="#LiberationSans-49"/>
       <use x="55.615234" xlink:href="#LiberationSans-48"/>
       <use x="111.230469" xlink:href="#LiberationSans-48"/>
       <use x="166.845703" xlink:href="#LiberationSans-48"/>
      </g>
     </g>
    </g>
    <g id="text_19">
     <!-- $t$ (ms) -->
     <g style="fill:#ffffff;" transform="translate(222.81 335.205875)scale(0.1 -0.1)">
      <defs>
       <path d="M 42.28125 54.6875 
L 40.921875 47.703125 
L 23 47.703125 
L 17.1875 18.015625 
Q 16.890625 16.359375 16.75 15.234375 
Q 16.609375 14.109375 16.609375 13.484375 
Q 16.609375 10.359375 18.484375 8.9375 
Q 20.359375 7.515625 24.515625 7.515625 
L 33.59375 7.515625 
L 32.078125 0 
L 23.484375 0 
Q 15.484375 0 11.546875 3.125 
Q 7.625 6.25 7.625 12.59375 
Q 7.625 13.71875 7.765625 15.0625 
Q 7.90625 16.40625 8.203125 18.015625 
L 14.015625 47.703125 
L 6.390625 47.703125 
L 7.8125 54.6875 
L 15.28125 54.6875 
L 18.3125 70.21875 
L 27.296875 70.21875 
L 24.3125 54.6875 
z
" id="DejaVuSans-Oblique-116"/>
       <path id="LiberationSans-32"/>
       <path d="M 6.203125 25.984375 
Q 6.203125 32.765625 7.21875 38.96875 
Q 8.25 45.171875 10.4375 50.875 
Q 12.640625 56.59375 16.0625 61.953125 
Q 19.484375 67.328125 24.21875 72.46875 
L 32.71875 72.46875 
Q 28.125 67.328125 24.78125 61.9375 
Q 21.4375 56.546875 19.28125 50.796875 
Q 17.140625 45.0625 16.09375 38.859375 
Q 15.046875 32.671875 15.046875 25.875 
Q 15.046875 19.09375 16.09375 12.890625 
Q 17.140625 6.6875 19.28125 0.921875 
Q 21.4375 -4.828125 24.78125 -10.203125 
Q 28.125 -15.578125 32.71875 -20.703125 
L 24.21875 -20.703125 
Q 19.484375 -15.578125 16.0625 -10.203125 
Q 12.640625 -4.828125 10.4375 0.875 
Q 8.25 6.59375 7.21875 12.765625 
Q 6.203125 18.953125 6.203125 25.78125 
z
" id="LiberationSans-40"/>
       <path d="M 37.5 0 
L 37.5 33.5 
Q 37.5 37.359375 37.015625 39.9375 
Q 36.53125 42.53125 35.375 44.109375 
Q 34.234375 45.703125 32.375 46.359375 
Q 30.515625 47.015625 27.828125 47.015625 
Q 25.046875 47.015625 22.796875 45.921875 
Q 20.5625 44.828125 18.96875 42.75 
Q 17.390625 40.671875 16.53125 37.625 
Q 15.671875 34.578125 15.671875 30.609375 
L 15.671875 0 
L 6.9375 0 
L 6.9375 41.546875 
Q 6.9375 43.21875 6.90625 45.046875 
Q 6.890625 46.875 6.828125 48.5 
Q 6.78125 50.140625 6.734375 51.3125 
Q 6.6875 52.484375 6.640625 52.828125 
L 14.9375 52.828125 
Q 14.984375 52.59375 15.03125 51.515625 
Q 15.09375 50.4375 15.15625 49.046875 
Q 15.234375 47.65625 15.28125 46.21875 
Q 15.328125 44.78125 15.328125 43.796875 
L 15.484375 43.796875 
Q 16.65625 46.09375 18.015625 47.953125 
Q 19.390625 49.8125 21.21875 51.09375 
Q 23.046875 52.390625 25.40625 53.09375 
Q 27.78125 53.8125 30.90625 53.8125 
Q 36.921875 53.8125 40.40625 51.421875 
Q 43.890625 49.03125 45.265625 43.796875 
L 45.40625 43.796875 
Q 46.578125 46.09375 48.046875 47.953125 
Q 49.515625 49.8125 51.46875 51.09375 
Q 53.421875 52.390625 55.859375 53.09375 
Q 58.296875 53.8125 61.421875 53.8125 
Q 65.4375 53.8125 68.328125 52.734375 
Q 71.234375 51.65625 73.09375 49.40625 
Q 74.953125 47.171875 75.828125 43.625 
Q 76.703125 40.09375 76.703125 35.203125 
L 76.703125 0 
L 68.015625 0 
L 68.015625 33.5 
Q 68.015625 37.359375 67.53125 39.9375 
Q 67.046875 42.53125 65.890625 44.109375 
Q 64.75 45.703125 62.890625 46.359375 
Q 61.03125 47.015625 58.34375 47.015625 
Q 55.5625 47.015625 53.3125 45.96875 
Q 51.078125 44.921875 49.484375 42.875 
Q 47.90625 40.828125 47.046875 37.75 
Q 46.1875 34.671875 46.1875 30.609375 
L 46.1875 0 
z
" id="LiberationSans-109"/>
       <path d="M 46.390625 14.59375 
Q 46.390625 10.890625 44.9375 7.984375 
Q 43.5 5.078125 40.765625 3.09375 
Q 38.03125 1.125 34.046875 0.0625 
Q 30.078125 -0.984375 24.953125 -0.984375 
Q 20.359375 -0.984375 16.671875 -0.265625 
Q 12.984375 0.4375 10.203125 2 
Q 7.421875 3.5625 5.53125 6.125 
Q 3.65625 8.6875 2.78125 12.40625 
L 10.546875 13.921875 
Q 11.671875 9.671875 15.1875 7.6875 
Q 18.703125 5.71875 24.953125 5.71875 
Q 27.78125 5.71875 30.140625 6.109375 
Q 32.515625 6.5 34.21875 7.453125 
Q 35.9375 8.40625 36.890625 9.984375 
Q 37.84375 11.578125 37.84375 13.921875 
Q 37.84375 16.3125 36.71875 17.84375 
Q 35.59375 19.390625 33.59375 20.40625 
Q 31.59375 21.4375 28.734375 22.1875 
Q 25.875 22.953125 22.46875 23.875 
Q 19.28125 24.703125 16.15625 25.734375 
Q 13.03125 26.765625 10.515625 28.4375 
Q 8.015625 30.125 6.453125 32.609375 
Q 4.890625 35.109375 4.890625 38.875 
Q 4.890625 46.09375 10.03125 49.875 
Q 15.1875 53.65625 25.046875 53.65625 
Q 33.796875 53.65625 38.9375 50.578125 
Q 44.09375 47.515625 45.453125 40.71875 
L 37.546875 39.75 
Q 37.109375 41.796875 35.9375 43.1875 
Q 34.765625 44.578125 33.109375 45.4375 
Q 31.453125 46.296875 29.375 46.65625 
Q 27.296875 47.015625 25.046875 47.015625 
Q 19.09375 47.015625 16.25 45.203125 
Q 13.421875 43.40625 13.421875 39.75 
Q 13.421875 37.59375 14.46875 36.203125 
Q 15.53125 34.8125 17.40625 33.859375 
Q 19.28125 32.90625 21.921875 32.203125 
Q 24.5625 31.5 27.734375 30.71875 
Q 29.828125 30.171875 32.03125 29.5625 
Q 34.234375 28.953125 36.296875 28.09375 
Q 38.375 27.25 40.203125 26.09375 
Q 42.046875 24.953125 43.40625 23.34375 
Q 44.78125 21.734375 45.578125 19.578125 
Q 46.390625 17.4375 46.390625 14.59375 
z
" id="LiberationSans-115"/>
       <path d="M 27.09375 25.78125 
Q 27.09375 18.953125 26.0625 12.765625 
Q 25.046875 6.59375 22.84375 0.875 
Q 20.65625 -4.828125 17.234375 -10.203125 
Q 13.8125 -15.578125 9.078125 -20.703125 
L 0.59375 -20.703125 
Q 5.171875 -15.578125 8.515625 -10.203125 
Q 11.859375 -4.828125 14 0.921875 
Q 16.15625 6.6875 17.203125 12.890625 
Q 18.265625 19.09375 18.265625 25.875 
Q 18.265625 32.671875 17.203125 38.859375 
Q 16.15625 45.0625 14 50.796875 
Q 11.859375 56.546875 8.515625 61.9375 
Q 5.171875 67.328125 0.59375 72.46875 
L 9.078125 72.46875 
Q 13.8125 67.328125 17.234375 61.953125 
Q 20.65625 56.59375 22.84375 50.875 
Q 25.046875 45.171875 26.0625 38.96875 
Q 27.09375 32.765625 27.09375 25.984375 
z
" id="LiberationSans-41"/>
      </defs>
      <use transform="translate(0 0.53125)" xlink:href="#DejaVuSans-Oblique-116"/>
      <use transform="translate(39.208984 0.53125)" xlink:href="#LiberationSans-32"/>
      <use transform="translate(66.992188 0.53125)" xlink:href="#LiberationSans-40"/>
      <use transform="translate(100.292969 0.53125)" xlink:href="#LiberationSans-109"/>
      <use transform="translate(183.59375 0.53125)" xlink:href="#LiberationSans-115"/>
      <use transform="translate(233.59375 0.53125)" xlink:href="#LiberationSans-41"/>
     </g>
    </g>
   </g>
   <g id="matplotlib.axis_4">
    <g id="ytick_5">
     <g id="line2d_23">
      <g>
       <use style="fill:#ffffff;stroke:#ffffff;stroke-width:0.8;" x="57.6" xlink:href="#mf406b248f5" y="295.231021"/>
      </g>
     </g>
     <g id="text_20">
      <!-- 0.0 -->
      <g style="fill:#ffffff;" transform="translate(36.7 298.854459)scale(0.1 -0.1)">
       <use xlink:href="#LiberationSans-48"/>
       <use x="55.615234" xlink:href="#LiberationSans-46"/>
       <use x="83.398438" xlink:href="#LiberationSans-48"/>
      </g>
     </g>
    </g>
    <g id="ytick_6">
     <g id="line2d_24">
      <g>
       <use style="fill:#ffffff;stroke:#ffffff;stroke-width:0.8;" x="57.6" xlink:href="#mf406b248f5" y="273.612812"/>
      </g>
     </g>
     <g id="text_21">
      <!-- 0.2 -->
      <g style="fill:#ffffff;" transform="translate(36.7 277.236249)scale(0.1 -0.1)">
       <use xlink:href="#LiberationSans-48"/>
       <use x="55.615234" xlink:href="#LiberationSans-46"/>
       <use x="83.398438" xlink:href="#LiberationSans-50"/>
      </g>
     </g>
    </g>
    <g id="ytick_7">
     <g id="line2d_25">
      <g>
       <use style="fill:#ffffff;stroke:#ffffff;stroke-width:0.8;" x="57.6" xlink:href="#mf406b248f5" y="251.994603"/>
      </g>
     </g>
     <g id="text_22">
      <!-- 0.4 -->
      <g style="fill:#ffffff;" transform="translate(36.7 255.61804)scale(0.1 -0.1)">
       <use xlink:href="#LiberationSans-48"/>
       <use x="55.615234" xlink:href="#LiberationSans-46"/>
       <use x="83.398438" xlink:href="#LiberationSans-52"/>
      </g>
     </g>
    </g>
    <g id="ytick_8">
     <g id="line2d_26">
      <g>
       <use style="fill:#ffffff;stroke:#ffffff;stroke-width:0.8;" x="57.6" xlink:href="#mf406b248f5" y="230.376393"/>
      </g>
     </g>
     <g id="text_23">
      <!-- 0.6 -->
      <g style="fill:#ffffff;" transform="translate(36.7 233.999831)scale(0.1 -0.1)">
       <use xlink:href="#LiberationSans-48"/>
       <use x="55.615234" xlink:href="#LiberationSans-46"/>
       <use x="83.398438" xlink:href="#LiberationSans-54"/>
      </g>
     </g>
    </g>
    <g id="ytick_9">
     <g id="line2d_27">
      <g>
       <use style="fill:#ffffff;stroke:#ffffff;stroke-width:0.8;" x="57.6" xlink:href="#mf406b248f5" y="208.758184"/>
      </g>
     </g>
     <g id="text_24">
      <!-- 0.8 -->
      <g style="fill:#ffffff;" transform="translate(36.7 212.381622)scale(0.1 -0.1)">
       <use xlink:href="#LiberationSans-48"/>
       <use x="55.615234" xlink:href="#LiberationSans-46"/>
       <use x="83.398438" xlink:href="#LiberationSans-56"/>
      </g>
     </g>
    </g>
    <g id="ytick_10">
     <g id="line2d_28">
      <g>
       <use style="fill:#ffffff;stroke:#ffffff;stroke-width:0.8;" x="57.6" xlink:href="#mf406b248f5" y="187.139975"/>
      </g>
     </g>
     <g id="text_25">
      <!-- 1.0 -->
      <g style="fill:#ffffff;" transform="translate(36.7 190.763413)scale(0.1 -0.1)">
       <use xlink:href="#LiberationSans-49"/>
       <use x="55.615234" xlink:href="#LiberationSans-46"/>
       <use x="83.398438" xlink:href="#LiberationSans-48"/>
      </g>
     </g>
    </g>
   </g>
   <g id="line2d_29">
    <path clip-path="url(#pd52615a56a)" d="M 73.832727 192.122182 
L 74.027559 198.813886 
L 75.261493 215.497991 
L 76.495427 229.295063 
L 77.729361 240.704679 
L 78.054081 243.36396 
L 78.183968 248.072 
L 79.417902 256.232438 
L 80.651837 262.980787 
L 81.885771 268.561395 
L 83.119705 273.17633 
L 84.418583 277.174168 
L 85.327797 279.533147 
L 85.457685 283.52499 
L 86.756563 285.646933 
L 88.120385 287.46231 
L 89.549151 288.996485 
L 90.912972 290.177404 
L 91.04286 293.958477 
L 93.965336 294.419611 
L 97.732082 294.776714 
L 98.186689 294.807428 
L 98.251633 298.529641 
L 98.316577 298.49682 
L 100.19995 297.674699 
L 101.628716 297.192119 
L 101.693659 300.890604 
L 101.758603 300.83429 
L 103.317257 299.638709 
L 105.005798 298.629576 
L 106.889171 297.774036 
L 108.967376 297.077629 
L 110.980637 296.58541 
L 111.045581 300.289932 
L 111.110525 300.239595 
L 112.734122 299.131703 
L 114.487607 298.208721 
L 116.176149 297.526982 
L 116.241093 301.222135 
L 116.306036 301.162523 
L 117.799746 299.943798 
L 119.423344 298.901336 
L 121.241773 298.004985 
L 123.255034 297.265577 
L 123.384921 297.22529 
L 123.449865 300.923445 
L 123.514809 300.866805 
L 125.073463 299.664285 
L 126.762004 298.649297 
L 128.580433 297.814498 
L 130.658638 297.10701 
L 130.788526 297.069863 
L 130.85347 300.769565 
L 130.918414 300.714456 
L 132.477067 299.544444 
L 134.165608 298.556892 
L 136.048981 297.719649 
L 138.19213 297.020155 
L 138.711681 296.8826 
L 138.776625 300.584165 
L 138.841569 300.530901 
L 140.400223 299.400054 
L 142.088764 298.44556 
L 142.478427 298.25836 
L 142.543371 301.946237 
L 142.608315 301.879419 
L 144.102025 300.513397 
L 145.660678 299.386285 
L 147.34922 298.434944 
L 149.232593 297.6284 
L 151.375741 296.954553 
L 152.804507 296.614188 
L 152.869451 300.318424 
L 152.934395 300.267804 
L 154.557992 299.153671 
L 156.311478 298.225492 
L 158.259795 297.44938 
L 158.324738 301.145305 
L 158.389682 301.086457 
L 159.948336 299.83707 
L 161.571933 298.818216 
L 163.390362 297.942165 
L 165.403623 297.219501 
L 166.377782 296.942522 
L 166.442726 300.643491 
L 166.50767 300.589636 
L 168.066323 299.446257 
L 168.455986 299.20078 
L 168.52093 216.462525 
L 168.585874 217.246285 
L 169.819808 230.740831 
L 170.469247 236.877884 
L 170.599135 241.714358 
L 171.833069 250.974927 
L 173.067003 258.63304 
L 174.300937 264.965987 
L 175.534871 270.203074 
L 176.768805 274.533932 
L 178.067683 278.285678 
L 179.366561 281.357347 
L 180.210832 283.048611 
L 180.34072 286.970844 
L 181.769486 288.602073 
L 183.263195 289.964099 
L 184.821849 291.087914 
L 186.51039 292.036472 
L 187.029941 292.28208 
L 187.094885 296.029421 
L 187.159829 296.021477 
L 190.991519 295.669192 
L 193.978938 295.507632 
L 194.043882 299.222878 
L 194.108826 299.183158 
L 194.17377 216.445078 
L 194.238714 217.229012 
L 195.472648 230.726547 
L 196.706582 241.888457 
L 197.940516 251.1189 
L 199.17445 258.7521 
L 200.408384 265.064444 
L 201.642318 270.284495 
L 202.291757 272.658471 
L 202.356701 276.60107 
L 202.421645 194.087685 
L 202.486589 195.094078 
L 203.720523 212.421862 
L 204.954457 226.75123 
L 206.188391 238.601033 
L 207.422325 248.400335 
L 207.682101 250.236592 
L 207.811989 254.808546 
L 209.045923 261.803286 
L 210.279857 267.58765 
L 211.513791 272.371083 
L 212.747725 276.326787 
L 214.046603 279.753543 
L 214.176491 280.060017 
L 214.306378 284.041428 
L 215.6702 286.160913 
L 217.034022 287.878934 
L 218.462788 289.330833 
L 219.956497 290.543124 
L 221.580095 291.580083 
L 222.034702 291.826909 
L 222.099646 295.578779 
L 222.16459 295.575319 
L 228.204373 295.366865 
L 230.347521 295.328683 
L 230.412465 299.04571 
L 230.477409 299.007753 
L 232.230894 298.114101 
L 234.244155 297.345607 
L 235.478089 296.979697 
L 235.543033 300.680296 
L 235.607977 300.626075 
L 237.16663 299.474921 
L 238.855172 298.503287 
L 240.738545 297.679538 
L 242.427086 297.118954 
L 242.49203 300.818168 
L 242.556974 300.762575 
L 244.115627 299.582295 
L 245.804169 298.586078 
L 247.687542 297.741488 
L 249.830691 297.035855 
L 249.895634 297.017897 
L 249.960578 300.718116 
L 250.025522 300.663518 
L 251.584176 299.504375 
L 253.272717 298.525997 
L 255.15609 297.696532 
L 255.221034 297.671999 
L 255.285978 301.36571 
L 255.350922 301.304669 
L 256.844631 300.056738 
L 258.468229 298.989294 
L 260.221714 298.100009 
L 262.234975 297.335272 
L 263.663741 296.919722 
L 263.728685 300.620918 
L 263.793629 300.567287 
L 263.858572 300.514191 
L 263.923516 217.762867 
L 263.98846 218.533688 
L 265.222394 231.805461 
L 266.456328 242.780674 
L 267.690262 251.856728 
L 268.924196 259.362253 
L 270.158131 265.569016 
L 270.742626 268.121989 
L 270.872513 272.339788 
L 272.106447 276.300907 
L 273.405325 279.732355 
L 274.704203 282.541786 
L 276.003081 284.841954 
L 276.392745 285.446966 
L 276.522633 289.321708 
L 278.016342 290.535873 
L 279.63994 291.574436 
L 281.458369 292.467434 
L 283.47163 293.204076 
L 283.536573 296.942244 
L 283.601517 296.925217 
L 286.134329 296.378088 
L 288.991861 295.969774 
L 289.056805 299.680422 
L 289.121749 299.63615 
L 290.81029 298.627602 
L 292.693663 297.772559 
L 294.771868 297.076557 
L 294.9667 297.022013 
L 295.031643 300.722191 
L 295.096587 300.667553 
L 296.655241 299.507548 
L 298.343782 298.528444 
L 300.227155 297.698363 
L 301.98064 297.114539 
L 302.045584 300.813797 
L 302.110528 300.758247 
L 303.669182 299.578891 
L 305.357723 298.583453 
L 307.241096 297.739524 
L 309.384245 297.034443 
L 309.838852 296.912521 
L 309.903796 300.613788 
L 309.96874 300.560229 
L 311.527393 299.423124 
L 313.215935 298.463349 
L 313.345823 298.399345 
L 313.410767 302.085818 
L 313.47571 302.017612 
L 314.96942 300.623195 
L 316.528074 299.472656 
L 318.216615 298.50154 
L 320.099988 297.678231 
L 320.814371 297.423316 
L 320.879315 301.119501 
L 320.944259 301.060909 
L 322.502912 299.816974 
L 324.12651 298.802565 
L 325.944939 297.930336 
L 327.763368 297.271119 
L 327.828312 300.968819 
L 327.893256 300.911727 
L 329.451909 299.699622 
L 330.945619 298.781475 
L 331.010563 216.047392 
L 331.075507 216.835282 
L 332.309441 230.400948 
L 333.023824 237.154029 
L 333.153711 241.985035 
L 334.387646 251.198766 
L 335.62158 258.818146 
L 336.855514 265.119061 
L 338.089448 270.329661 
L 339.323382 274.638614 
L 339.713045 275.837822 
L 339.842933 279.902837 
L 341.141811 282.681366 
L 342.440689 284.956232 
L 343.804511 286.902439 
L 345.233276 288.547178 
L 346.726986 289.920483 
L 347.311481 290.377554 
L 347.441369 294.154664 
L 350.688564 294.578177 
L 354.585198 294.872733 
L 354.650142 298.594297 
L 354.715086 298.560832 
L 356.598459 297.722597 
L 358.741607 297.022274 
L 359.326102 296.868103 
L 359.391046 300.569813 
L 359.45599 300.516691 
L 361.014644 299.388876 
L 362.703185 298.436942 
L 364.586558 297.629895 
L 365.560717 297.295751 
L 365.62566 214.576451 
L 365.690604 215.378977 
L 366.924538 229.196644 
L 367.963641 238.960237 
L 368.093529 243.755477 
L 369.327463 252.66285 
L 370.561397 260.028883 
L 371.795331 266.120291 
L 373.029265 271.157637 
L 374.263199 275.323316 
L 374.977582 277.39702 
L 375.107469 281.431161 
L 376.406347 283.932651 
L 377.770169 286.07274 
L 379.133991 287.807463 
L 380.562757 289.273476 
L 381.926579 290.401929 
L 382.056467 294.178556 
L 385.303661 294.592668 
L 389.395127 294.89104 
L 389.460071 298.612421 
L 389.525015 298.578776 
L 391.408388 297.736024 
L 393.551536 297.031927 
L 394.460751 296.796654 
L 394.525695 300.499074 
L 394.590639 300.446656 
L 395.305022 299.903365 
L 395.369966 217.158119 
L 395.43491 217.934957 
L 396.668844 231.310335 
L 397.902778 242.371226 
L 398.487273 246.920806 
L 398.487273 246.920806 
" style="fill:none;stroke:#9a72ac;stroke-linecap:round;stroke-width:1.5;"/>
   </g>
   <g id="line2d_30">
    <path clip-path="url(#pd52615a56a)" d="M 73.832727 295.231021 
L 398.487273 295.231021 
L 398.487273 295.231021 
" style="fill:none;stroke:#cf5044;stroke-linecap:round;stroke-width:1.5;"/>
   </g>
   <g id="patch_8">
    <path d="M 57.6 307.584 
L 57.6 186.624 
" style="fill:none;stroke:#ffffff;stroke-linecap:square;stroke-linejoin:miter;stroke-width:0.8;"/>
   </g>
   <g id="patch_9">
    <path d="M 414.72 307.584 
L 414.72 186.624 
" style="fill:none;stroke:#ffffff;stroke-linecap:square;stroke-linejoin:miter;stroke-width:0.8;"/>
   </g>
   <g id="patch_10">
    <path d="M 57.6 307.584 
L 414.72 307.584 
" style="fill:none;stroke:#ffffff;stroke-linecap:square;stroke-linejoin:miter;stroke-width:0.8;"/>
   </g>
   <g id="patch_11">
    <path d="M 57.6 186.624 
L 414.72 186.624 
" style="fill:none;stroke:#ffffff;stroke-linecap:square;stroke-linejoin:miter;stroke-width:0.8;"/>
   </g>
   <g id="legend_2">
    <g id="line2d_31">
     <path d="M 219.16 199.370875 
L 239.16 199.370875 
" style="fill:none;stroke:#9a72ac;stroke-linecap:round;stroke-width:1.5;"/>
    </g>
    <g id="line2d_32"/>
    <g id="text_26">
     <!-- $\hat{x}$ -->
     <g style="fill:#ffffff;" transform="translate(247.16 202.870875)scale(0.1 -0.1)">
      <use transform="translate(62.373047 12.015625)" xlink:href="#DejaVuSans-770"/>
      <use transform="translate(0 0.828125)" xlink:href="#DejaVuSans-Oblique-120"/>
     </g>
    </g>
    <g id="line2d_33">
     <path d="M 219.16 213.69275 
L 239.16 213.69275 
" style="fill:none;stroke:#cf5044;stroke-linecap:round;stroke-width:1.5;"/>
    </g>
    <g id="line2d_34"/>
    <g id="text_27">
     <!-- x -->
     <g style="fill:#ffffff;" transform="translate(247.16 217.19275)scale(0.1 -0.1)">
      <use xlink:href="#LiberationSans-120"/>
     </g>
    </g>
   </g>
  </g>
  <g id="text_28">
   <!-- Egomotion input/decoding -->
   <g style="fill:#ffffff;" transform="translate(161.02125 15.60825)scale(0.12 -0.12)">
    <defs>
     <path d="M 8.203125 0 
L 8.203125 68.796875 
L 60.40625 68.796875 
L 60.40625 61.1875 
L 17.53125 61.1875 
L 17.53125 39.109375 
L 57.46875 39.109375 
L 57.46875 31.59375 
L 17.53125 31.59375 
L 17.53125 7.625 
L 62.40625 7.625 
L 62.40625 0 
z
" id="LiberationSans-69"/>
     <path d="M 26.765625 -20.75 
Q 22.21875 -20.75 18.703125 -19.8125 
Q 15.1875 -18.890625 12.6875 -17.15625 
Q 10.203125 -15.4375 8.640625 -13.03125 
Q 7.078125 -10.640625 6.390625 -7.71875 
L 15.234375 -6.453125 
Q 16.109375 -10.109375 19.109375 -12.078125 
Q 22.125 -14.0625 27 -14.0625 
Q 29.984375 -14.0625 32.421875 -13.234375 
Q 34.859375 -12.40625 36.5625 -10.5625 
Q 38.28125 -8.734375 39.203125 -5.796875 
Q 40.140625 -2.875 40.140625 1.3125 
L 40.140625 9.8125 
L 40.046875 9.8125 
Q 39.0625 7.8125 37.625 5.984375 
Q 36.1875 4.15625 34.109375 2.734375 
Q 32.03125 1.3125 29.296875 0.453125 
Q 26.5625 -0.390625 23.046875 -0.390625 
Q 18.015625 -0.390625 14.421875 1.296875 
Q 10.84375 2.984375 8.5625 6.34375 
Q 6.296875 9.71875 5.25 14.71875 
Q 4.203125 19.734375 4.203125 26.3125 
Q 4.203125 32.671875 5.25 37.75 
Q 6.296875 42.828125 8.65625 46.359375 
Q 11.03125 49.90625 14.8125 51.78125 
Q 18.609375 53.65625 24.03125 53.65625 
Q 29.640625 53.65625 33.765625 51.09375 
Q 37.890625 48.53125 40.140625 43.796875 
L 40.234375 43.796875 
Q 40.234375 45.015625 40.296875 46.53125 
Q 40.375 48.046875 40.453125 49.390625 
Q 40.53125 50.734375 40.625 51.703125 
Q 40.71875 52.6875 40.828125 52.828125 
L 49.171875 52.828125 
Q 49.125 52.390625 49.078125 51.34375 
Q 49.03125 50.296875 48.96875 48.828125 
Q 48.921875 47.359375 48.890625 45.578125 
Q 48.875 43.796875 48.875 41.890625 
L 48.875 1.515625 
Q 48.875 -9.578125 43.421875 -15.15625 
Q 37.984375 -20.75 26.765625 -20.75 
z
M 40.140625 26.421875 
Q 40.140625 31.9375 38.9375 35.859375 
Q 37.75 39.796875 35.796875 42.28125 
Q 33.84375 44.78125 31.328125 45.953125 
Q 28.8125 47.125 26.171875 47.125 
Q 22.796875 47.125 20.375 45.953125 
Q 17.96875 44.78125 16.375 42.265625 
Q 14.796875 39.75 14.03125 35.8125 
Q 13.28125 31.890625 13.28125 26.421875 
Q 13.28125 20.703125 14.03125 16.8125 
Q 14.796875 12.9375 16.359375 10.546875 
Q 17.921875 8.15625 20.3125 7.125 
Q 22.703125 6.109375 26.03125 6.109375 
Q 28.65625 6.109375 31.171875 7.21875 
Q 33.6875 8.34375 35.6875 10.78125 
Q 37.703125 13.234375 38.921875 17.09375 
Q 40.140625 20.953125 40.140625 26.421875 
z
" id="LiberationSans-103"/>
     <path d="M 51.421875 26.46875 
Q 51.421875 12.59375 45.3125 5.796875 
Q 39.203125 -0.984375 27.59375 -0.984375 
Q 22.078125 -0.984375 17.71875 0.671875 
Q 13.375 2.34375 10.375 5.765625 
Q 7.375 9.1875 5.78125 14.328125 
Q 4.203125 19.484375 4.203125 26.46875 
Q 4.203125 53.8125 27.875 53.8125 
Q 34.03125 53.8125 38.5 52.09375 
Q 42.96875 50.390625 45.828125 46.96875 
Q 48.6875 43.5625 50.046875 38.421875 
Q 51.421875 33.296875 51.421875 26.46875 
z
M 42.1875 26.46875 
Q 42.1875 32.625 41.234375 36.625 
Q 40.28125 40.625 38.453125 43.015625 
Q 36.625 45.40625 33.984375 46.359375 
Q 31.34375 47.3125 28.03125 47.3125 
Q 24.65625 47.3125 21.9375 46.3125 
Q 19.234375 45.3125 17.328125 42.890625 
Q 15.4375 40.484375 14.421875 36.46875 
Q 13.421875 32.46875 13.421875 26.46875 
Q 13.421875 20.3125 14.5 16.28125 
Q 15.578125 12.25 17.453125 9.859375 
Q 19.34375 7.46875 21.90625 6.484375 
Q 24.46875 5.515625 27.484375 5.515625 
Q 30.859375 5.515625 33.59375 6.46875 
Q 36.328125 7.421875 38.234375 9.8125 
Q 40.140625 12.203125 41.15625 16.25 
Q 42.1875 20.3125 42.1875 26.46875 
z
" id="LiberationSans-111"/>
     <path d="M 27.046875 0.390625 
Q 25.046875 -0.140625 22.96875 -0.453125 
Q 20.90625 -0.78125 18.171875 -0.78125 
Q 7.625 -0.78125 7.625 11.1875 
L 7.625 46.4375 
L 1.515625 46.4375 
L 1.515625 52.828125 
L 7.953125 52.828125 
L 10.546875 64.65625 
L 16.40625 64.65625 
L 16.40625 52.828125 
L 26.171875 52.828125 
L 26.171875 46.4375 
L 16.40625 46.4375 
L 16.40625 13.09375 
Q 16.40625 9.28125 17.640625 7.734375 
Q 18.890625 6.203125 21.96875 6.203125 
Q 23.25 6.203125 24.4375 6.390625 
Q 25.640625 6.59375 27.046875 6.890625 
z
" id="LiberationSans-116"/>
     <path d="M 6.6875 64.0625 
L 6.6875 72.46875 
L 15.484375 72.46875 
L 15.484375 64.0625 
z
M 6.6875 0 
L 6.6875 52.828125 
L 15.484375 52.828125 
L 15.484375 0 
z
" id="LiberationSans-105"/>
     <path d="M 40.28125 0 
L 40.28125 33.5 
Q 40.28125 37.359375 39.71875 39.9375 
Q 39.15625 42.53125 37.890625 44.109375 
Q 36.625 45.703125 34.546875 46.359375 
Q 32.46875 47.015625 29.390625 47.015625 
Q 26.265625 47.015625 23.75 45.921875 
Q 21.234375 44.828125 19.453125 42.75 
Q 17.671875 40.671875 16.6875 37.625 
Q 15.71875 34.578125 15.71875 30.609375 
L 15.71875 0 
L 6.9375 0 
L 6.9375 41.546875 
Q 6.9375 43.21875 6.90625 45.046875 
Q 6.890625 46.875 6.828125 48.5 
Q 6.78125 50.140625 6.734375 51.3125 
Q 6.6875 52.484375 6.640625 52.828125 
L 14.9375 52.828125 
Q 14.984375 52.59375 15.03125 51.515625 
Q 15.09375 50.4375 15.15625 49.046875 
Q 15.234375 47.65625 15.28125 46.21875 
Q 15.328125 44.78125 15.328125 43.796875 
L 15.484375 43.796875 
Q 16.75 46.09375 18.265625 47.953125 
Q 19.78125 49.8125 21.78125 51.09375 
Q 23.78125 52.390625 26.359375 53.09375 
Q 28.953125 53.8125 32.375 53.8125 
Q 36.765625 53.8125 39.9375 52.734375 
Q 43.109375 51.65625 45.15625 49.40625 
Q 47.21875 47.171875 48.171875 43.625 
Q 49.125 40.09375 49.125 35.203125 
L 49.125 0 
z
" id="LiberationSans-110"/>
     <path d="M 51.421875 26.65625 
Q 51.421875 20.65625 50.4375 15.578125 
Q 49.46875 10.5 47.1875 6.828125 
Q 44.921875 3.171875 41.1875 1.09375 
Q 37.453125 -0.984375 31.984375 -0.984375 
Q 26.3125 -0.984375 22.0625 1.171875 
Q 17.828125 3.328125 15.578125 8.203125 
L 15.328125 8.203125 
Q 15.375 8.109375 15.40625 7.328125 
Q 15.4375 6.546875 15.453125 5.375 
Q 15.484375 4.203125 15.5 2.75 
Q 15.53125 1.3125 15.53125 -0.09375 
L 15.53125 -20.75 
L 6.734375 -20.75 
L 6.734375 42.046875 
Q 6.734375 43.953125 6.703125 45.703125 
Q 6.6875 47.46875 6.640625 48.90625 
Q 6.59375 50.34375 6.546875 51.359375 
Q 6.5 52.390625 6.453125 52.828125 
L 14.9375 52.828125 
Q 14.984375 52.6875 15.0625 51.796875 
Q 15.140625 50.921875 15.203125 49.671875 
Q 15.28125 48.4375 15.359375 47.015625 
Q 15.4375 45.609375 15.4375 44.34375 
L 15.625 44.34375 
Q 16.84375 46.875 18.40625 48.65625 
Q 19.96875 50.4375 21.96875 51.578125 
Q 23.96875 52.734375 26.4375 53.25 
Q 28.90625 53.765625 31.984375 53.765625 
Q 37.453125 53.765625 41.1875 51.8125 
Q 44.921875 49.859375 47.1875 46.3125 
Q 49.46875 42.78125 50.4375 37.765625 
Q 51.421875 32.765625 51.421875 26.65625 
z
M 42.1875 26.46875 
Q 42.1875 31.34375 41.59375 35.15625 
Q 41.015625 38.96875 39.578125 41.59375 
Q 38.140625 44.234375 35.734375 45.59375 
Q 33.34375 46.96875 29.734375 46.96875 
Q 26.8125 46.96875 24.21875 46.140625 
Q 21.625 45.3125 19.703125 42.96875 
Q 17.78125 40.625 16.65625 36.5 
Q 15.53125 32.375 15.53125 25.78125 
Q 15.53125 20.171875 16.453125 16.28125 
Q 17.390625 12.40625 19.171875 10.015625 
Q 20.953125 7.625 23.578125 6.5625 
Q 26.21875 5.515625 29.640625 5.515625 
Q 33.296875 5.515625 35.71875 6.921875 
Q 38.140625 8.34375 39.578125 11.03125 
Q 41.015625 13.71875 41.59375 17.59375 
Q 42.1875 21.484375 42.1875 26.46875 
z
" id="LiberationSans-112"/>
     <path d="M 15.328125 52.828125 
L 15.328125 19.34375 
Q 15.328125 15.484375 15.890625 12.890625 
Q 16.453125 10.296875 17.71875 8.703125 
Q 19 7.125 21.0625 6.46875 
Q 23.140625 5.8125 26.21875 5.8125 
Q 29.34375 5.8125 31.859375 6.90625 
Q 34.375 8.015625 36.15625 10.078125 
Q 37.9375 12.15625 38.90625 15.203125 
Q 39.890625 18.265625 39.890625 22.21875 
L 39.890625 52.828125 
L 48.6875 52.828125 
L 48.6875 11.28125 
Q 48.6875 9.625 48.703125 7.78125 
Q 48.734375 5.953125 48.78125 4.3125 
Q 48.828125 2.6875 48.875 1.515625 
Q 48.921875 0.34375 48.96875 0 
L 40.671875 0 
Q 40.625 0.25 40.578125 1.3125 
Q 40.53125 2.390625 40.453125 3.78125 
Q 40.375 5.171875 40.328125 6.609375 
Q 40.28125 8.0625 40.28125 9.03125 
L 40.140625 9.03125 
Q 38.875 6.734375 37.359375 4.875 
Q 35.84375 3.03125 33.84375 1.734375 
Q 31.84375 0.4375 29.25 -0.265625 
Q 26.65625 -0.984375 23.25 -0.984375 
Q 18.84375 -0.984375 15.671875 0.09375 
Q 12.5 1.171875 10.453125 3.421875 
Q 8.40625 5.671875 7.453125 9.1875 
Q 6.5 12.703125 6.5 17.625 
L 6.5 52.828125 
z
" id="LiberationSans-117"/>
     <path d="M 0 -0.984375 
L 20.0625 72.46875 
L 27.78125 72.46875 
L 7.90625 -0.984375 
z
" id="LiberationSans-47"/>
     <path d="M 40.09375 8.5 
Q 37.640625 3.421875 33.609375 1.21875 
Q 29.59375 -0.984375 23.640625 -0.984375 
Q 13.625 -0.984375 8.90625 5.75 
Q 4.203125 12.5 4.203125 26.171875 
Q 4.203125 53.8125 23.640625 53.8125 
Q 29.640625 53.8125 33.640625 51.609375 
Q 37.640625 49.421875 40.09375 44.625 
L 40.1875 44.625 
Q 40.1875 45.125 40.15625 46.171875 
Q 40.140625 47.21875 40.109375 48.359375 
Q 40.09375 49.515625 40.09375 50.53125 
Q 40.09375 51.5625 40.09375 52 
L 40.09375 72.46875 
L 48.875 72.46875 
L 48.875 10.890625 
Q 48.875 8.984375 48.890625 7.21875 
Q 48.921875 5.46875 48.96875 4 
Q 49.03125 2.546875 49.078125 1.484375 
Q 49.125 0.4375 49.171875 0 
L 40.765625 0 
Q 40.671875 0.484375 40.59375 1.390625 
Q 40.53125 2.296875 40.453125 3.46875 
Q 40.375 4.640625 40.328125 5.9375 
Q 40.28125 7.234375 40.28125 8.5 
z
M 13.421875 26.46875 
Q 13.421875 21 14.109375 17.09375 
Q 14.796875 13.1875 16.3125 10.671875 
Q 17.828125 8.15625 20.171875 6.984375 
Q 22.515625 5.8125 25.875 5.8125 
Q 29.34375 5.8125 32 6.9375 
Q 34.671875 8.0625 36.453125 10.578125 
Q 38.234375 13.09375 39.15625 17.140625 
Q 40.09375 21.1875 40.09375 27.046875 
Q 40.09375 32.671875 39.15625 36.546875 
Q 38.234375 40.4375 36.421875 42.828125 
Q 34.625 45.21875 32 46.265625 
Q 29.390625 47.3125 25.984375 47.3125 
Q 22.75 47.3125 20.40625 46.1875 
Q 18.0625 45.0625 16.5 42.578125 
Q 14.9375 40.09375 14.171875 36.109375 
Q 13.421875 32.125 13.421875 26.46875 
z
" id="LiberationSans-100"/>
     <path d="M 13.484375 24.5625 
Q 13.484375 20.40625 14.328125 16.90625 
Q 15.1875 13.421875 16.96875 10.90625 
Q 18.75 8.40625 21.53125 7 
Q 24.3125 5.609375 28.21875 5.609375 
Q 33.9375 5.609375 37.375 7.90625 
Q 40.828125 10.203125 42.046875 13.71875 
L 49.75 11.53125 
Q 48.921875 9.328125 47.4375 7.109375 
Q 45.953125 4.890625 43.453125 3.09375 
Q 40.96875 1.3125 37.234375 0.15625 
Q 33.5 -0.984375 28.21875 -0.984375 
Q 16.5 -0.984375 10.375 6 
Q 4.25 12.984375 4.25 26.765625 
Q 4.25 34.1875 6.09375 39.328125 
Q 7.953125 44.484375 11.171875 47.703125 
Q 14.40625 50.921875 18.703125 52.359375 
Q 23 53.8125 27.875 53.8125 
Q 34.515625 53.8125 38.984375 51.65625 
Q 43.453125 49.515625 46.15625 45.71875 
Q 48.875 41.9375 50.015625 36.8125 
Q 51.171875 31.6875 51.171875 25.734375 
L 51.171875 24.5625 
z
M 42.09375 31.296875 
Q 41.359375 39.65625 37.84375 43.484375 
Q 34.328125 47.3125 27.734375 47.3125 
Q 25.53125 47.3125 23.109375 46.609375 
Q 20.703125 45.90625 18.65625 44.09375 
Q 16.609375 42.28125 15.1875 39.171875 
Q 13.765625 36.078125 13.578125 31.296875 
z
" id="LiberationSans-101"/>
     <path d="M 13.421875 26.65625 
Q 13.421875 22.125 14.078125 18.3125 
Q 14.75 14.5 16.3125 11.734375 
Q 17.875 8.984375 20.4375 7.46875 
Q 23 5.953125 26.765625 5.953125 
Q 31.453125 5.953125 34.59375 8.484375 
Q 37.75 11.03125 38.484375 16.3125 
L 47.359375 15.71875 
Q 46.921875 12.453125 45.453125 9.421875 
Q 44 6.390625 41.484375 4.09375 
Q 38.96875 1.8125 35.34375 0.40625 
Q 31.734375 -0.984375 27 -0.984375 
Q 20.796875 -0.984375 16.453125 1.109375 
Q 12.109375 3.21875 9.390625 6.90625 
Q 6.6875 10.59375 5.46875 15.59375 
Q 4.25 20.609375 4.25 26.46875 
Q 4.25 31.78125 5.125 35.859375 
Q 6 39.9375 7.59375 42.984375 
Q 9.1875 46.046875 11.328125 48.125 
Q 13.484375 50.203125 15.984375 51.4375 
Q 18.5 52.6875 21.28125 53.25 
Q 24.078125 53.8125 26.90625 53.8125 
Q 31.34375 53.8125 34.8125 52.59375 
Q 38.28125 51.375 40.796875 49.25 
Q 43.3125 47.125 44.875 44.234375 
Q 46.4375 41.359375 47.078125 38.03125 
L 38.03125 37.359375 
Q 37.359375 41.75 34.5625 44.328125 
Q 31.78125 46.921875 26.65625 46.921875 
Q 22.90625 46.921875 20.390625 45.671875 
Q 17.875 44.4375 16.3125 41.921875 
Q 14.75 39.40625 14.078125 35.59375 
Q 13.421875 31.78125 13.421875 26.65625 
z
" id="LiberationSans-99"/>
    </defs>
    <use xlink:href="#LiberationSans-69"/>
    <use x="66.699219" xlink:href="#LiberationSans-103"/>
    <use x="122.314453" xlink:href="#LiberationSans-111"/>
    <use x="177.929688" xlink:href="#LiberationSans-109"/>
    <use x="261.230469" xlink:href="#LiberationSans-111"/>
    <use x="316.845703" xlink:href="#LiberationSans-116"/>
    <use x="344.628906" xlink:href="#LiberationSans-105"/>
    <use x="366.845703" xlink:href="#LiberationSans-111"/>
    <use x="422.460938" xlink:href="#LiberationSans-110"/>
    <use x="478.076172" xlink:href="#LiberationSans-32"/>
    <use x="505.859375" xlink:href="#LiberationSans-105"/>
    <use x="528.076172" xlink:href="#LiberationSans-110"/>
    <use x="583.691406" xlink:href="#LiberationSans-112"/>
    <use x="639.306641" xlink:href="#LiberationSans-117"/>
    <use x="694.921875" xlink:href="#LiberationSans-116"/>
    <use x="722.705078" xlink:href="#LiberationSans-47"/>
    <use x="750.488281" xlink:href="#LiberationSans-100"/>
    <use x="806.103516" xlink:href="#LiberationSans-101"/>
    <use x="861.71875" xlink:href="#LiberationSans-99"/>
    <use x="911.71875" xlink:href="#LiberationSans-111"/>
    <use x="967.333984" xlink:href="#LiberationSans-100"/>
    <use x="1022.949219" xlink:href="#LiberationSans-105"/>
    <use x="1045.166016" xlink:href="#LiberationSans-110"/>
    <use x="1100.78125" xlink:href="#LiberationSans-103"/>
   </g>
  </g>
 </g>
 <defs>
  <clipPath id="p39028a7573">
   <rect height="120.96" width="357.12" x="57.6" y="41.472"/>
  </clipPath>
  <clipPath id="pd52615a56a">
   <rect height="120.96" width="357.12" x="57.6" y="186.624"/>
  </clipPath>
 </defs>
</svg>
