<?xml version="1.0" encoding="utf-8" standalone="no"?>
<!DOCTYPE svg PUBLIC "-//W3C//DTD SVG 1.1//EN"
  "http://www.w3.org/Graphics/SVG/1.1/DTD/svg11.dtd">
<!-- Created with matplotlib (https://matplotlib.org/) -->
<svg height="345.6pt" version="1.1" viewBox="0 0 460.8 345.6" width="460.8pt" xmlns="http://www.w3.org/2000/svg" xmlns:xlink="http://www.w3.org/1999/xlink">
 <metadata>
  <rdf:RDF xmlns:cc="http://creativecommons.org/ns#" xmlns:dc="http://purl.org/dc/elements/1.1/" xmlns:rdf="http://www.w3.org/1999/02/22-rdf-syntax-ns#">
   <cc:Work>
    <dc:type rdf:resource="http://purl.org/dc/dcmitype/StillImage"/>
    <dc:date>2022-05-06T11:18:26.932881</dc:date>
    <dc:format>image/svg+xml</dc:format>
    <dc:creator>
     <cc:Agent>
      <dc:title>Matplotlib v3.3.4, https://matplotlib.org/</dc:title>
     </cc:Agent>
    </dc:creator>
   </cc:Work>
  </rdf:RDF>
 </metadata>
 <defs>
  <style type="text/css">*{stroke-linecap:butt;stroke-linejoin:round;}</style>
 </defs>
 <g id="figure_1">
  <g id="patch_1">
   <path d="M 0 345.6 
L 460.8 345.6 
L 460.8 0 
L 0 0 
z
" style="fill:#262626;"/>
  </g>
  <g id="axes_1">
   <g id="patch_2">
    <path d="M 57.6 119.740235 
L 414.72 119.740235 
L 414.72 41.472 
L 57.6 41.472 
z
" style="fill:#1a1a1a;"/>
   </g>
   <g id="matplotlib.axis_1">
    <g id="xtick_1">
     <g id="line2d_1">
      <defs>
       <path d="M 0 0 
L 0 3.5 
" id="m14b3da361a" style="stroke:#ffffff;stroke-width:0.8;"/>
      </defs>
      <g>
       <use style="fill:#ffffff;stroke:#ffffff;stroke-width:0.8;" x="73.832727" xlink:href="#m14b3da361a" y="119.740235"/>
      </g>
     </g>
     <g id="text_1">
      <!-- 0 -->
      <g style="fill:#ffffff;" transform="translate(71.052259 133.98711)scale(0.1 -0.1)">
       <defs>
        <path d="M 51.703125 34.421875 
Q 51.703125 24.515625 49.828125 17.75 
Q 47.953125 10.984375 44.703125 6.8125 
Q 41.453125 2.640625 37.0625 0.828125 
Q 32.671875 -0.984375 27.6875 -0.984375 
Q 22.65625 -0.984375 18.3125 0.828125 
Q 13.96875 2.640625 10.765625 6.78125 
Q 7.5625 10.9375 5.734375 17.703125 
Q 3.90625 24.46875 3.90625 34.421875 
Q 3.90625 44.828125 5.734375 51.640625 
Q 7.5625 58.453125 10.78125 62.5 
Q 14.015625 66.546875 18.40625 68.1875 
Q 22.796875 69.828125 27.984375 69.828125 
Q 32.90625 69.828125 37.21875 68.1875 
Q 41.546875 66.546875 44.765625 62.5 
Q 48 58.453125 49.84375 51.640625 
Q 51.703125 44.828125 51.703125 34.421875 
z
M 42.78125 34.421875 
Q 42.78125 42.625 41.796875 48.0625 
Q 40.828125 53.515625 38.921875 56.765625 
Q 37.015625 60.015625 34.25 61.359375 
Q 31.5 62.703125 27.984375 62.703125 
Q 24.265625 62.703125 21.4375 61.328125 
Q 18.609375 59.96875 16.671875 56.71875 
Q 14.75 53.46875 13.765625 48.015625 
Q 12.796875 42.578125 12.796875 34.421875 
Q 12.796875 26.515625 13.796875 21.09375 
Q 14.796875 15.671875 16.71875 12.375 
Q 18.65625 9.078125 21.4375 7.640625 
Q 24.21875 6.203125 27.78125 6.203125 
Q 31.25 6.203125 34.03125 7.640625 
Q 36.8125 9.078125 38.734375 12.375 
Q 40.671875 15.671875 41.71875 21.09375 
Q 42.78125 26.515625 42.78125 34.421875 
z
" id="LiberationSans-48"/>
       </defs>
       <use xlink:href="#LiberationSans-48"/>
      </g>
     </g>
    </g>
    <g id="xtick_2">
     <g id="line2d_2">
      <g>
       <use style="fill:#ffffff;stroke:#ffffff;stroke-width:0.8;" x="138.776625" xlink:href="#m14b3da361a" y="119.740235"/>
      </g>
     </g>
     <g id="text_2">
      <!-- 200 -->
      <g style="fill:#ffffff;" transform="translate(130.435219 133.98711)scale(0.1 -0.1)">
       <defs>
        <path d="M 5.03125 0 
L 5.03125 6.203125 
Q 7.515625 11.921875 11.109375 16.28125 
Q 14.703125 20.65625 18.65625 24.1875 
Q 22.609375 27.734375 26.484375 30.765625 
Q 30.375 33.796875 33.5 36.8125 
Q 36.625 39.84375 38.546875 43.15625 
Q 40.484375 46.484375 40.484375 50.6875 
Q 40.484375 53.609375 39.59375 55.828125 
Q 38.71875 58.0625 37.0625 59.5625 
Q 35.40625 61.078125 33.078125 61.828125 
Q 30.765625 62.59375 27.9375 62.59375 
Q 25.296875 62.59375 22.96875 61.859375 
Q 20.65625 61.140625 18.84375 59.671875 
Q 17.046875 58.203125 15.890625 56.03125 
Q 14.75 53.859375 14.40625 50.984375 
L 5.421875 51.8125 
Q 5.859375 55.515625 7.46875 58.78125 
Q 9.078125 62.0625 11.90625 64.53125 
Q 14.75 67 18.71875 68.40625 
Q 22.703125 69.828125 27.9375 69.828125 
Q 33.0625 69.828125 37.0625 68.609375 
Q 41.0625 67.390625 43.8125 64.984375 
Q 46.578125 62.59375 48.046875 59.078125 
Q 49.515625 55.5625 49.515625 50.984375 
Q 49.515625 47.515625 48.265625 44.390625 
Q 47.015625 41.265625 44.9375 38.421875 
Q 42.875 35.59375 40.140625 32.953125 
Q 37.40625 30.328125 34.421875 27.8125 
Q 31.453125 25.296875 28.421875 22.828125 
Q 25.390625 20.359375 22.71875 17.859375 
Q 20.0625 15.375 17.96875 12.8125 
Q 15.875 10.25 14.703125 7.46875 
L 50.59375 7.46875 
L 50.59375 0 
z
" id="LiberationSans-50"/>
       </defs>
       <use xlink:href="#LiberationSans-50"/>
       <use x="55.615234" xlink:href="#LiberationSans-48"/>
       <use x="111.230469" xlink:href="#LiberationSans-48"/>
      </g>
     </g>
    </g>
    <g id="xtick_3">
     <g id="line2d_3">
      <g>
       <use style="fill:#ffffff;stroke:#ffffff;stroke-width:0.8;" x="203.720523" xlink:href="#m14b3da361a" y="119.740235"/>
      </g>
     </g>
     <g id="text_3">
      <!-- 400 -->
      <g style="fill:#ffffff;" transform="translate(195.379117 133.98711)scale(0.1 -0.1)">
       <defs>
        <path d="M 43.015625 15.578125 
L 43.015625 0 
L 34.71875 0 
L 34.71875 15.578125 
L 2.296875 15.578125 
L 2.296875 22.40625 
L 33.796875 68.796875 
L 43.015625 68.796875 
L 43.015625 22.515625 
L 52.6875 22.515625 
L 52.6875 15.578125 
z
M 34.71875 58.890625 
Q 34.625 58.640625 34.234375 57.9375 
Q 33.84375 57.234375 33.34375 56.34375 
Q 32.859375 55.46875 32.34375 54.5625 
Q 31.84375 53.65625 31.453125 53.078125 
L 13.8125 27.09375 
Q 13.578125 26.703125 13.109375 26.0625 
Q 12.640625 25.4375 12.15625 24.78125 
Q 11.671875 24.125 11.171875 23.484375 
Q 10.6875 22.859375 10.40625 22.515625 
L 34.71875 22.515625 
z
" id="LiberationSans-52"/>
       </defs>
       <use xlink:href="#LiberationSans-52"/>
       <use x="55.615234" xlink:href="#LiberationSans-48"/>
       <use x="111.230469" xlink:href="#LiberationSans-48"/>
      </g>
     </g>
    </g>
    <g id="xtick_4">
     <g id="line2d_4">
      <g>
       <use style="fill:#ffffff;stroke:#ffffff;stroke-width:0.8;" x="268.664421" xlink:href="#m14b3da361a" y="119.740235"/>
      </g>
     </g>
     <g id="text_4">
      <!-- 600 -->
      <g style="fill:#ffffff;" transform="translate(260.323015 133.98711)scale(0.1 -0.1)">
       <defs>
        <path d="M 51.21875 22.515625 
Q 51.21875 17.328125 49.78125 13 
Q 48.34375 8.6875 45.53125 5.578125 
Q 42.71875 2.484375 38.5625 0.75 
Q 34.421875 -0.984375 29 -0.984375 
Q 23 -0.984375 18.5 1.3125 
Q 14.015625 3.609375 11.03125 7.921875 
Q 8.0625 12.25 6.5625 18.53125 
Q 5.078125 24.8125 5.078125 32.8125 
Q 5.078125 42 6.765625 48.921875 
Q 8.453125 55.859375 11.625 60.5 
Q 14.796875 65.140625 19.359375 67.484375 
Q 23.921875 69.828125 29.6875 69.828125 
Q 33.203125 69.828125 36.28125 69.09375 
Q 39.359375 68.359375 41.875 66.71875 
Q 44.390625 65.09375 46.28125 62.40625 
Q 48.1875 59.71875 49.3125 55.8125 
L 40.921875 54.296875 
Q 39.546875 58.734375 36.546875 60.71875 
Q 33.546875 62.703125 29.59375 62.703125 
Q 25.984375 62.703125 23.046875 60.984375 
Q 20.125 59.28125 18.0625 55.875 
Q 16.015625 52.484375 14.90625 47.359375 
Q 13.8125 42.234375 13.8125 35.40625 
Q 16.21875 39.84375 20.5625 42.15625 
Q 24.90625 44.484375 30.515625 44.484375 
Q 35.203125 44.484375 39.015625 42.96875 
Q 42.828125 41.453125 45.53125 38.59375 
Q 48.25 35.75 49.734375 31.671875 
Q 51.21875 27.59375 51.21875 22.515625 
z
M 42.28125 22.125 
Q 42.28125 25.6875 41.40625 28.5625 
Q 40.53125 31.453125 38.765625 33.46875 
Q 37.015625 35.5 34.421875 36.59375 
Q 31.84375 37.703125 28.421875 37.703125 
Q 26.03125 37.703125 23.578125 36.984375 
Q 21.140625 36.28125 19.15625 34.6875 
Q 17.1875 33.109375 15.9375 30.515625 
Q 14.703125 27.9375 14.703125 24.21875 
Q 14.703125 20.40625 15.671875 17.109375 
Q 16.65625 13.8125 18.484375 11.375 
Q 20.3125 8.9375 22.890625 7.515625 
Q 25.484375 6.109375 28.71875 6.109375 
Q 31.890625 6.109375 34.40625 7.203125 
Q 36.921875 8.296875 38.671875 10.375 
Q 40.4375 12.453125 41.359375 15.421875 
Q 42.28125 18.40625 42.28125 22.125 
z
" id="LiberationSans-54"/>
       </defs>
       <use xlink:href="#LiberationSans-54"/>
       <use x="55.615234" xlink:href="#LiberationSans-48"/>
       <use x="111.230469" xlink:href="#LiberationSans-48"/>
      </g>
     </g>
    </g>
    <g id="xtick_5">
     <g id="line2d_5">
      <g>
       <use style="fill:#ffffff;stroke:#ffffff;stroke-width:0.8;" x="333.608319" xlink:href="#m14b3da361a" y="119.740235"/>
      </g>
     </g>
     <g id="text_5">
      <!-- 800 -->
      <g style="fill:#ffffff;" transform="translate(325.266913 133.98711)scale(0.1 -0.1)">
       <defs>
        <path d="M 51.265625 19.1875 
Q 51.265625 14.796875 49.875 11.109375 
Q 48.484375 7.421875 45.625 4.734375 
Q 42.78125 2.046875 38.328125 0.53125 
Q 33.890625 -0.984375 27.828125 -0.984375 
Q 21.78125 -0.984375 17.359375 0.53125 
Q 12.9375 2.046875 10.03125 4.703125 
Q 7.125 7.375 5.734375 11.0625 
Q 4.34375 14.75 4.34375 19.09375 
Q 4.34375 22.859375 5.484375 25.78125 
Q 6.640625 28.71875 8.5625 30.828125 
Q 10.5 32.953125 12.96875 34.25 
Q 15.4375 35.546875 18.0625 35.984375 
L 18.0625 36.1875 
Q 15.1875 36.859375 12.90625 38.375 
Q 10.640625 39.890625 9.09375 42.015625 
Q 7.5625 44.140625 6.75 46.71875 
Q 5.953125 49.3125 5.953125 52.203125 
Q 5.953125 55.8125 7.34375 59 
Q 8.734375 62.203125 11.46875 64.625 
Q 14.203125 67.046875 18.25 68.4375 
Q 22.3125 69.828125 27.640625 69.828125 
Q 33.25 69.828125 37.375 68.40625 
Q 41.5 67 44.203125 64.578125 
Q 46.921875 62.15625 48.234375 58.9375 
Q 49.5625 55.71875 49.5625 52.09375 
Q 49.5625 49.265625 48.75 46.671875 
Q 47.953125 44.09375 46.40625 41.96875 
Q 44.875 39.84375 42.59375 38.34375 
Q 40.328125 36.859375 37.359375 36.28125 
L 37.359375 36.078125 
Q 40.328125 35.59375 42.859375 34.296875 
Q 45.40625 33.015625 47.265625 30.890625 
Q 49.125 28.765625 50.1875 25.828125 
Q 51.265625 22.90625 51.265625 19.1875 
z
M 40.4375 51.609375 
Q 40.4375 54.203125 39.765625 56.34375 
Q 39.109375 58.5 37.59375 60.03125 
Q 36.078125 61.578125 33.640625 62.421875 
Q 31.203125 63.28125 27.640625 63.28125 
Q 24.171875 63.28125 21.78125 62.421875 
Q 19.390625 61.578125 17.84375 60.03125 
Q 16.3125 58.5 15.625 56.34375 
Q 14.9375 54.203125 14.9375 51.609375 
Q 14.9375 49.5625 15.46875 47.40625 
Q 16.015625 45.265625 17.421875 43.5 
Q 18.84375 41.75 21.328125 40.625 
Q 23.828125 39.5 27.734375 39.5 
Q 31.890625 39.5 34.40625 40.625 
Q 36.921875 41.75 38.25 43.5 
Q 39.59375 45.265625 40.015625 47.40625 
Q 40.4375 49.5625 40.4375 51.609375 
z
M 42.140625 20.015625 
Q 42.140625 22.515625 41.453125 24.828125 
Q 40.765625 27.15625 39.109375 28.9375 
Q 37.453125 30.71875 34.640625 31.8125 
Q 31.84375 32.90625 27.640625 32.90625 
Q 23.78125 32.90625 21.0625 31.8125 
Q 18.359375 30.71875 16.671875 28.90625 
Q 14.984375 27.09375 14.203125 24.71875 
Q 13.421875 22.359375 13.421875 19.828125 
Q 13.421875 16.65625 14.203125 14.03125 
Q 14.984375 11.421875 16.6875 9.546875 
Q 18.40625 7.671875 21.1875 6.640625 
Q 23.96875 5.609375 27.9375 5.609375 
Q 31.9375 5.609375 34.671875 6.640625 
Q 37.40625 7.671875 39.0625 9.546875 
Q 40.71875 11.421875 41.421875 14.078125 
Q 42.140625 16.75 42.140625 20.015625 
z
" id="LiberationSans-56"/>
       </defs>
       <use xlink:href="#LiberationSans-56"/>
       <use x="55.615234" xlink:href="#LiberationSans-48"/>
       <use x="111.230469" xlink:href="#LiberationSans-48"/>
      </g>
     </g>
    </g>
    <g id="xtick_6">
     <g id="line2d_6">
      <g>
       <use style="fill:#ffffff;stroke:#ffffff;stroke-width:0.8;" x="398.552217" xlink:href="#m14b3da361a" y="119.740235"/>
      </g>
     </g>
     <g id="text_6">
      <!-- 1000 -->
      <g style="fill:#ffffff;" transform="translate(387.430342 133.98711)scale(0.1 -0.1)">
       <defs>
        <path d="M 7.625 0 
L 7.625 7.46875 
L 25.140625 7.46875 
L 25.140625 60.40625 
L 9.625 49.3125 
L 9.625 57.625 
L 25.875 68.796875 
L 33.984375 68.796875 
L 33.984375 7.46875 
L 50.734375 7.46875 
L 50.734375 0 
z
" id="LiberationSans-49"/>
       </defs>
       <use xlink:href="#LiberationSans-49"/>
       <use x="55.615234" xlink:href="#LiberationSans-48"/>
       <use x="111.230469" xlink:href="#LiberationSans-48"/>
       <use x="166.845703" xlink:href="#LiberationSans-48"/>
      </g>
     </g>
    </g>
   </g>
   <g id="matplotlib.axis_2">
    <g id="ytick_1">
     <g id="line2d_7">
      <defs>
       <path d="M 0 0 
L -3.5 0 
" id="m7c7b12b270" style="stroke:#ffffff;stroke-width:0.8;"/>
      </defs>
      <g>
       <use style="fill:#ffffff;stroke:#ffffff;stroke-width:0.8;" x="57.6" xlink:href="#m7c7b12b270" y="119.740235"/>
      </g>
     </g>
     <g id="text_7">
      <!-- −1 -->
      <g style="fill:#ffffff;" transform="translate(39.198437 123.363673)scale(0.1 -0.1)">
       <defs>
        <path d="M 4.9375 29.6875 
L 4.9375 36.8125 
L 53.515625 36.8125 
L 53.515625 29.6875 
z
" id="LiberationSans-8722"/>
       </defs>
       <use xlink:href="#LiberationSans-8722"/>
       <use x="58.398438" xlink:href="#LiberationSans-49"/>
      </g>
     </g>
    </g>
    <g id="ytick_2">
     <g id="line2d_8">
      <g>
       <use style="fill:#ffffff;stroke:#ffffff;stroke-width:0.8;" x="57.6" xlink:href="#m7c7b12b270" y="80.606118"/>
      </g>
     </g>
     <g id="text_8">
      <!-- 0 -->
      <g style="fill:#ffffff;" transform="translate(45.039062 84.229555)scale(0.1 -0.1)">
       <use xlink:href="#LiberationSans-48"/>
      </g>
     </g>
    </g>
    <g id="ytick_3">
     <g id="line2d_9">
      <g>
       <use style="fill:#ffffff;stroke:#ffffff;stroke-width:0.8;" x="57.6" xlink:href="#m7c7b12b270" y="41.472"/>
      </g>
     </g>
     <g id="text_9">
      <!-- 1 -->
      <g style="fill:#ffffff;" transform="translate(45.039062 45.095438)scale(0.1 -0.1)">
       <use xlink:href="#LiberationSans-49"/>
      </g>
     </g>
    </g>
    <g id="text_10">
     <!-- $u$ -->
     <g style="fill:#ffffff;" transform="translate(33.123437 83.806118)rotate(-90)scale(0.1 -0.1)">
      <defs>
       <path d="M 6.6875 21.6875 
L 13.09375 54.6875 
L 22.125 54.6875 
L 15.71875 22.015625 
Q 15.234375 19.625 15.015625 17.921875 
Q 14.796875 16.21875 14.796875 15.09375 
Q 14.796875 10.9375 17.328125 8.65625 
Q 19.875 6.390625 24.515625 6.390625 
Q 31.734375 6.390625 37 11.265625 
Q 42.28125 16.15625 43.890625 24.421875 
L 49.90625 54.6875 
L 58.890625 54.6875 
L 48.296875 0 
L 39.3125 0 
L 41.109375 8.59375 
Q 37.3125 3.8125 32.0625 1.1875 
Q 26.8125 -1.421875 20.90625 -1.421875 
Q 13.71875 -1.421875 9.71875 2.515625 
Q 5.71875 6.453125 5.71875 13.484375 
Q 5.71875 14.9375 5.953125 17.140625 
Q 6.203125 19.34375 6.6875 21.6875 
z
" id="DejaVuSans-Oblique-117"/>
      </defs>
      <use transform="translate(0 0.3125)" xlink:href="#DejaVuSans-Oblique-117"/>
     </g>
    </g>
   </g>
   <g id="line2d_10">
    <path clip-path="url(#p5fd9f5b20a)" d="M 73.832727 41.580094 
L 73.897671 73.11372 
L 73.962615 72.839206 
L 75.196549 68.112713 
L 76.430483 64.204097 
L 77.729361 60.818131 
L 78.054081 60.072271 
L 78.119025 91.421896 
L 78.183968 90.965214 
L 79.417902 83.10218 
L 80.651837 76.599773 
L 81.885771 71.222549 
L 83.119705 66.775803 
L 84.418583 62.923666 
L 85.327797 60.650659 
L 85.392741 91.99453 
L 85.457685 91.532149 
L 86.691619 83.571013 
L 87.925553 76.987479 
L 89.159487 71.543165 
L 90.393421 67.04094 
L 90.912972 65.386707 
L 90.977916 96.683454 
L 91.04286 96.174418 
L 92.276794 87.409979 
L 93.510728 80.162147 
L 94.744662 74.168486 
L 95.978596 69.211973 
L 97.212531 65.11314 
L 98.186689 62.384652 
L 98.251633 93.71127 
L 98.316577 93.231807 
L 99.550511 84.976561 
L 100.784445 78.149809 
L 101.628716 74.172683 
L 101.693659 105.382007 
L 101.758603 104.786419 
L 102.992537 94.531752 
L 104.226471 86.051562 
L 105.460406 79.038792 
L 106.69434 73.239517 
L 107.928274 68.443754 
L 109.162208 64.477853 
L 110.461086 61.042264 
L 110.980637 59.849231 
L 111.045581 91.201077 
L 111.110525 90.746591 
L 112.344459 82.921388 
L 113.578393 76.450266 
L 114.812327 71.098912 
L 116.046261 66.673561 
L 116.176149 66.254789 
L 116.241093 97.542898 
L 116.306036 97.02531 
L 117.539971 88.113633 
L 118.773905 80.744039 
L 120.007839 74.649687 
L 121.241773 69.609907 
L 122.475707 65.442215 
L 123.384921 62.84018 
L 123.449865 94.162265 
L 123.514809 93.678315 
L 124.748743 85.345804 
L 125.982677 78.455159 
L 127.216611 72.756876 
L 128.450545 68.04463 
L 129.684479 64.147794 
L 130.788526 61.236379 
L 130.85347 92.574422 
L 130.918414 92.106271 
L 132.152348 84.045788 
L 133.386282 77.380099 
L 134.620216 71.867846 
L 135.85415 67.309438 
L 137.153028 63.360569 
L 138.451906 60.127509 
L 138.711681 59.554932 
L 138.776625 90.909705 
L 138.841569 90.458119 
L 140.075503 82.682834 
L 141.309437 76.252991 
L 142.478427 71.191157 
L 142.543371 102.430148 
L 142.608315 101.863931 
L 143.842249 92.114975 
L 145.076183 84.052986 
L 146.310117 77.386051 
L 147.544051 71.872768 
L 148.777985 67.313508 
L 150.076863 63.363901 
L 151.375741 60.130237 
L 152.674619 57.482737 
L 152.804507 57.245955 
L 152.869451 88.623704 
L 152.934395 88.194863 
L 154.168329 80.811214 
L 155.402263 74.705238 
L 156.636197 69.655845 
L 157.870131 65.480203 
L 158.259795 64.318096 
L 158.324738 95.625476 
L 158.389682 95.126966 
L 159.623616 86.54378 
L 160.85755 79.445836 
L 162.091484 73.576126 
L 163.325419 68.722115 
L 164.559353 64.708047 
L 165.858231 61.230731 
L 166.377782 60.023208 
L 166.442726 91.373322 
L 166.50767 90.917123 
L 167.741604 83.062411 
L 168.455986 79.152283 
L 168.585874 75.094985 
L 169.819808 69.97815 
L 170.469247 67.651114 
L 170.534191 98.925329 
L 170.599135 98.393986 
L 171.833069 89.245472 
L 173.067003 81.680024 
L 174.300937 75.423708 
L 175.534871 70.249991 
L 176.768805 65.971538 
L 178.067683 62.265189 
L 179.366561 59.230688 
L 180.210832 57.559888 
L 180.275776 88.934513 
L 180.34072 88.50258 
L 181.574654 81.065683 
L 182.808588 74.915673 
L 184.042522 69.829866 
L 185.276456 65.624112 
L 186.575334 61.980741 
L 187.029941 60.868224 
L 187.094885 92.20993 
L 187.159829 91.745406 
L 188.393763 83.747368 
L 189.627697 77.133317 
L 190.861631 71.663767 
L 192.095565 67.140673 
L 193.394443 63.222396 
L 193.978938 61.699193 
L 194.043882 93.03263 
L 194.108826 92.55992 
L 194.238714 88.237133 
L 195.472648 80.84617 
L 196.706582 74.734145 
L 197.940516 69.67975 
L 199.17445 65.499972 
L 200.473328 61.879104 
L 201.772206 58.914587 
L 202.291757 57.885138 
L 202.356701 89.256527 
L 202.421645 85.395874 
L 203.655579 78.496564 
L 204.889513 72.791117 
L 206.123447 68.072945 
L 207.357381 64.17121 
L 207.682101 63.261818 
L 207.747045 94.579708 
L 207.811989 94.091604 
L 209.045923 85.687578 
L 210.279857 78.737791 
L 211.513791 72.990602 
L 212.747725 68.237911 
L 213.981659 64.30763 
L 214.176491 63.752516 
L 214.241434 95.065523 
L 214.306378 94.572585 
L 215.540312 86.08533 
L 216.774246 79.066716 
L 218.008181 73.262609 
L 219.242115 68.46285 
L 220.476049 64.493645 
L 221.774927 61.055193 
L 222.034702 60.446241 
L 222.099646 91.792146 
L 222.16459 91.331779 
L 223.398524 83.405315 
L 224.632458 76.850453 
L 225.866392 71.429851 
L 227.100326 66.947234 
L 228.399204 63.064021 
L 229.698082 59.884716 
L 230.347521 58.518198 
L 230.412465 89.883287 
L 230.477409 89.441914 
L 231.711343 81.842474 
L 232.945277 75.558047 
L 234.179211 70.361084 
L 235.413145 66.063407 
L 235.478089 65.859045 
L 235.543033 97.151092 
L 235.607977 96.637403 
L 236.841911 87.792849 
L 238.075845 80.478765 
L 239.309779 74.430316 
L 240.543713 69.428496 
L 241.777647 65.292195 
L 242.427086 63.411087 
L 242.49203 94.727491 
L 242.556974 94.237917 
L 243.790908 85.808572 
L 245.024842 78.837849 
L 246.258776 73.073346 
L 247.49271 68.306337 
L 248.726644 64.364215 
L 249.895634 61.260817 
L 249.960578 92.598617 
L 250.025522 92.130225 
L 251.259456 84.065598 
L 252.49339 77.39648 
L 253.727324 71.881392 
L 254.961258 67.32064 
L 255.221034 66.466017 
L 255.285978 97.752024 
L 255.350922 97.232355 
L 256.584856 88.28485 
L 257.81879 80.88563 
L 259.052724 74.766776 
L 260.286658 69.706735 
L 261.520592 65.522287 
L 262.81947 61.897374 
L 263.663741 59.901493 
L 263.728685 91.252818 
L 263.793629 90.797818 
L 263.858572 90.347345 
L 263.98846 86.06837 
L 265.222394 79.052691 
L 266.456328 73.251011 
L 267.690262 68.453259 
L 268.924196 64.485714 
L 270.223074 61.048699 
L 270.742626 59.855172 
L 270.80757 91.206958 
L 270.872513 90.752414 
L 272.106447 82.926204 
L 273.340382 76.454248 
L 274.574316 71.102205 
L 275.80825 66.676284 
L 276.392745 64.855809 
L 276.457689 96.157837 
L 276.522633 95.654031 
L 277.756567 86.979641 
L 278.990501 79.806275 
L 280.224435 73.874194 
L 281.458369 68.968606 
L 282.692303 64.911885 
L 283.47163 62.719612 
L 283.536573 94.042896 
L 283.601517 93.560134 
L 284.835451 85.248074 
L 286.069386 78.374339 
L 287.30332 72.690042 
L 288.537254 67.98936 
L 288.991861 66.470623 
L 289.056805 97.756584 
L 289.121749 97.23687 
L 290.355683 88.288584 
L 291.589617 80.888718 
L 292.823551 74.76933 
L 294.057485 69.708847 
L 294.9667 66.549412 
L 295.031643 97.834589 
L 295.096587 97.314099 
L 296.330521 88.352449 
L 297.564455 80.941531 
L 298.798389 74.813005 
L 300.032324 69.744964 
L 301.266258 65.553901 
L 301.98064 63.467562 
L 302.045584 94.783404 
L 302.110528 94.293273 
L 303.344462 85.85435 
L 304.578396 78.875705 
L 305.81233 73.104651 
L 307.046265 68.332225 
L 308.280199 64.385624 
L 309.579077 60.966753 
L 309.838852 60.361269 
L 309.903796 91.708019 
L 309.96874 91.248489 
L 311.202674 83.336438 
L 312.436608 76.793495 
L 313.345823 72.708509 
L 313.410767 103.932402 
L 313.47571 103.351238 
L 314.709644 93.344916 
L 315.943579 85.070097 
L 317.177513 78.22716 
L 318.411447 72.568331 
L 319.645381 67.88871 
L 320.814371 64.204723 
L 320.879315 95.51323 
L 320.944259 95.015838 
L 322.178193 86.451881 
L 323.412127 79.369839 
L 324.646061 73.513279 
L 325.879995 68.670144 
L 327.113929 64.665069 
L 327.763368 62.84364 
L 327.828312 94.165691 
L 327.893256 93.681706 
L 329.12719 85.348609 
L 330.361124 78.457478 
L 330.945619 75.623009 
L 331.075507 71.635595 
L 332.309441 67.117376 
L 333.023824 64.868176 
L 333.088768 96.170082 
L 333.153711 95.666154 
L 334.387646 86.989666 
L 335.62158 79.814565 
L 336.855514 73.88105 
L 338.089448 68.974275 
L 339.323382 64.916573 
L 339.713045 63.787289 
L 339.777989 95.09995 
L 339.842933 94.60667 
L 341.076867 86.113516 
L 342.310801 79.090025 
L 343.544735 73.281885 
L 344.778669 68.47879 
L 346.012603 64.506827 
L 347.311481 61.065986 
L 347.376425 92.405724 
L 347.441369 91.939252 
L 348.675303 83.90767 
L 349.909237 77.265881 
L 351.143171 71.773392 
L 352.377105 67.231328 
L 353.675983 63.296618 
L 354.585198 60.974888 
L 354.650142 92.315533 
L 354.715086 91.849958 
L 355.94902 83.833828 
L 357.182954 77.204816 
L 358.416888 71.722894 
L 359.326102 68.300341 
L 359.391046 99.568096 
L 359.45599 99.030357 
L 360.689924 89.771724 
L 361.923858 82.115214 
L 363.157792 75.783592 
L 364.391726 70.5476 
L 365.560717 66.425614 
L 365.690604 62.620321 
L 366.989482 59.521445 
L 367.963641 57.571836 
L 368.028585 88.946342 
L 368.093529 88.514291 
L 369.327463 81.075368 
L 370.561397 74.923682 
L 371.795331 69.83649 
L 373.029265 65.629589 
L 374.328143 61.985225 
L 374.977582 60.418817 
L 375.042526 91.764995 
L 375.107469 91.304898 
L 376.341404 83.383086 
L 377.575338 76.832071 
L 378.809272 71.414649 
L 380.043206 66.934662 
L 381.342084 63.053729 
L 381.926579 61.545042 
L 381.991523 92.880014 
L 382.056467 92.408823 
L 383.290401 84.295986 
L 384.524335 77.587002 
L 385.758269 72.038946 
L 386.992203 67.450931 
L 388.291081 63.476414 
L 389.395127 60.669959 
L 389.460071 92.013638 
L 389.525015 91.551067 
L 390.758949 83.586657 
L 391.992883 77.000416 
L 393.226817 71.553863 
L 394.460751 67.049787 
L 394.525695 98.329986 
L 394.590639 97.804566 
L 395.305022 92.358808 
L 395.43491 88.040003 
L 396.668844 80.683151 
L 397.902778 74.599335 
L 398.487273 72.096932 
L 398.487273 72.096932 
" style="fill:none;stroke:#9a72ac;stroke-linecap:round;stroke-width:1.5;"/>
   </g>
   <g id="patch_3">
    <path d="M 57.6 119.740235 
L 57.6 41.472 
" style="fill:none;stroke:#ffffff;stroke-linecap:square;stroke-linejoin:miter;stroke-width:0.8;"/>
   </g>
   <g id="patch_4">
    <path d="M 414.72 119.740235 
L 414.72 41.472 
" style="fill:none;stroke:#ffffff;stroke-linecap:square;stroke-linejoin:miter;stroke-width:0.8;"/>
   </g>
   <g id="patch_5">
    <path d="M 57.6 119.740235 
L 414.72 119.740235 
" style="fill:none;stroke:#ffffff;stroke-linecap:square;stroke-linejoin:miter;stroke-width:0.8;"/>
   </g>
   <g id="patch_6">
    <path d="M 57.6 41.472 
L 414.72 41.472 
" style="fill:none;stroke:#ffffff;stroke-linecap:square;stroke-linejoin:miter;stroke-width:0.8;"/>
   </g>
  </g>
  <g id="axes_2">
   <g id="patch_7">
    <path d="M 57.6 213.662118 
L 414.72 213.662118 
L 414.72 135.393882 
L 57.6 135.393882 
z
" style="fill:#1a1a1a;"/>
   </g>
   <g id="matplotlib.axis_3">
    <g id="xtick_7">
     <g id="line2d_11">
      <g>
       <use style="fill:#ffffff;stroke:#ffffff;stroke-width:0.8;" x="73.832727" xlink:href="#m14b3da361a" y="213.662118"/>
      </g>
     </g>
     <g id="text_11">
      <!-- 0 -->
      <g style="fill:#ffffff;" transform="translate(71.052259 227.908993)scale(0.1 -0.1)">
       <use xlink:href="#LiberationSans-48"/>
      </g>
     </g>
    </g>
    <g id="xtick_8">
     <g id="line2d_12">
      <g>
       <use style="fill:#ffffff;stroke:#ffffff;stroke-width:0.8;" x="138.776625" xlink:href="#m14b3da361a" y="213.662118"/>
      </g>
     </g>
     <g id="text_12">
      <!-- 200 -->
      <g style="fill:#ffffff;" transform="translate(130.435219 227.908993)scale(0.1 -0.1)">
       <use xlink:href="#LiberationSans-50"/>
       <use x="55.615234" xlink:href="#LiberationSans-48"/>
       <use x="111.230469" xlink:href="#LiberationSans-48"/>
      </g>
     </g>
    </g>
    <g id="xtick_9">
     <g id="line2d_13">
      <g>
       <use style="fill:#ffffff;stroke:#ffffff;stroke-width:0.8;" x="203.720523" xlink:href="#m14b3da361a" y="213.662118"/>
      </g>
     </g>
     <g id="text_13">
      <!-- 400 -->
      <g style="fill:#ffffff;" transform="translate(195.379117 227.908993)scale(0.1 -0.1)">
       <use xlink:href="#LiberationSans-52"/>
       <use x="55.615234" xlink:href="#LiberationSans-48"/>
       <use x="111.230469" xlink:href="#LiberationSans-48"/>
      </g>
     </g>
    </g>
    <g id="xtick_10">
     <g id="line2d_14">
      <g>
       <use style="fill:#ffffff;stroke:#ffffff;stroke-width:0.8;" x="268.664421" xlink:href="#m14b3da361a" y="213.662118"/>
      </g>
     </g>
     <g id="text_14">
      <!-- 600 -->
      <g style="fill:#ffffff;" transform="translate(260.323015 227.908993)scale(0.1 -0.1)">
       <use xlink:href="#LiberationSans-54"/>
       <use x="55.615234" xlink:href="#LiberationSans-48"/>
       <use x="111.230469" xlink:href="#LiberationSans-48"/>
      </g>
     </g>
    </g>
    <g id="xtick_11">
     <g id="line2d_15">
      <g>
       <use style="fill:#ffffff;stroke:#ffffff;stroke-width:0.8;" x="333.608319" xlink:href="#m14b3da361a" y="213.662118"/>
      </g>
     </g>
     <g id="text_15">
      <!-- 800 -->
      <g style="fill:#ffffff;" transform="translate(325.266913 227.908993)scale(0.1 -0.1)">
       <use xlink:href="#LiberationSans-56"/>
       <use x="55.615234" xlink:href="#LiberationSans-48"/>
       <use x="111.230469" xlink:href="#LiberationSans-48"/>
      </g>
     </g>
    </g>
    <g id="xtick_12">
     <g id="line2d_16">
      <g>
       <use style="fill:#ffffff;stroke:#ffffff;stroke-width:0.8;" x="398.552217" xlink:href="#m14b3da361a" y="213.662118"/>
      </g>
     </g>
     <g id="text_16">
      <!-- 1000 -->
      <g style="fill:#ffffff;" transform="translate(387.430342 227.908993)scale(0.1 -0.1)">
       <use xlink:href="#LiberationSans-49"/>
       <use x="55.615234" xlink:href="#LiberationSans-48"/>
       <use x="111.230469" xlink:href="#LiberationSans-48"/>
       <use x="166.845703" xlink:href="#LiberationSans-48"/>
      </g>
     </g>
    </g>
    <g id="text_17">
     <!-- $t$ (ms) -->
     <g style="fill:#ffffff;" transform="translate(222.81 241.283993)scale(0.1 -0.1)">
      <defs>
       <path d="M 42.28125 54.6875 
L 40.921875 47.703125 
L 23 47.703125 
L 17.1875 18.015625 
Q 16.890625 16.359375 16.75 15.234375 
Q 16.609375 14.109375 16.609375 13.484375 
Q 16.609375 10.359375 18.484375 8.9375 
Q 20.359375 7.515625 24.515625 7.515625 
L 33.59375 7.515625 
L 32.078125 0 
L 23.484375 0 
Q 15.484375 0 11.546875 3.125 
Q 7.625 6.25 7.625 12.59375 
Q 7.625 13.71875 7.765625 15.0625 
Q 7.90625 16.40625 8.203125 18.015625 
L 14.015625 47.703125 
L 6.390625 47.703125 
L 7.8125 54.6875 
L 15.28125 54.6875 
L 18.3125 70.21875 
L 27.296875 70.21875 
L 24.3125 54.6875 
z
" id="DejaVuSans-Oblique-116"/>
       <path id="LiberationSans-32"/>
       <path d="M 6.203125 25.984375 
Q 6.203125 32.765625 7.21875 38.96875 
Q 8.25 45.171875 10.4375 50.875 
Q 12.640625 56.59375 16.0625 61.953125 
Q 19.484375 67.328125 24.21875 72.46875 
L 32.71875 72.46875 
Q 28.125 67.328125 24.78125 61.9375 
Q 21.4375 56.546875 19.28125 50.796875 
Q 17.140625 45.0625 16.09375 38.859375 
Q 15.046875 32.671875 15.046875 25.875 
Q 15.046875 19.09375 16.09375 12.890625 
Q 17.140625 6.6875 19.28125 0.921875 
Q 21.4375 -4.828125 24.78125 -10.203125 
Q 28.125 -15.578125 32.71875 -20.703125 
L 24.21875 -20.703125 
Q 19.484375 -15.578125 16.0625 -10.203125 
Q 12.640625 -4.828125 10.4375 0.875 
Q 8.25 6.59375 7.21875 12.765625 
Q 6.203125 18.953125 6.203125 25.78125 
z
" id="LiberationSans-40"/>
       <path d="M 37.5 0 
L 37.5 33.5 
Q 37.5 37.359375 37.015625 39.9375 
Q 36.53125 42.53125 35.375 44.109375 
Q 34.234375 45.703125 32.375 46.359375 
Q 30.515625 47.015625 27.828125 47.015625 
Q 25.046875 47.015625 22.796875 45.921875 
Q 20.5625 44.828125 18.96875 42.75 
Q 17.390625 40.671875 16.53125 37.625 
Q 15.671875 34.578125 15.671875 30.609375 
L 15.671875 0 
L 6.9375 0 
L 6.9375 41.546875 
Q 6.9375 43.21875 6.90625 45.046875 
Q 6.890625 46.875 6.828125 48.5 
Q 6.78125 50.140625 6.734375 51.3125 
Q 6.6875 52.484375 6.640625 52.828125 
L 14.9375 52.828125 
Q 14.984375 52.59375 15.03125 51.515625 
Q 15.09375 50.4375 15.15625 49.046875 
Q 15.234375 47.65625 15.28125 46.21875 
Q 15.328125 44.78125 15.328125 43.796875 
L 15.484375 43.796875 
Q 16.65625 46.09375 18.015625 47.953125 
Q 19.390625 49.8125 21.21875 51.09375 
Q 23.046875 52.390625 25.40625 53.09375 
Q 27.78125 53.8125 30.90625 53.8125 
Q 36.921875 53.8125 40.40625 51.421875 
Q 43.890625 49.03125 45.265625 43.796875 
L 45.40625 43.796875 
Q 46.578125 46.09375 48.046875 47.953125 
Q 49.515625 49.8125 51.46875 51.09375 
Q 53.421875 52.390625 55.859375 53.09375 
Q 58.296875 53.8125 61.421875 53.8125 
Q 65.4375 53.8125 68.328125 52.734375 
Q 71.234375 51.65625 73.09375 49.40625 
Q 74.953125 47.171875 75.828125 43.625 
Q 76.703125 40.09375 76.703125 35.203125 
L 76.703125 0 
L 68.015625 0 
L 68.015625 33.5 
Q 68.015625 37.359375 67.53125 39.9375 
Q 67.046875 42.53125 65.890625 44.109375 
Q 64.75 45.703125 62.890625 46.359375 
Q 61.03125 47.015625 58.34375 47.015625 
Q 55.5625 47.015625 53.3125 45.96875 
Q 51.078125 44.921875 49.484375 42.875 
Q 47.90625 40.828125 47.046875 37.75 
Q 46.1875 34.671875 46.1875 30.609375 
L 46.1875 0 
z
" id="LiberationSans-109"/>
       <path d="M 46.390625 14.59375 
Q 46.390625 10.890625 44.9375 7.984375 
Q 43.5 5.078125 40.765625 3.09375 
Q 38.03125 1.125 34.046875 0.0625 
Q 30.078125 -0.984375 24.953125 -0.984375 
Q 20.359375 -0.984375 16.671875 -0.265625 
Q 12.984375 0.4375 10.203125 2 
Q 7.421875 3.5625 5.53125 6.125 
Q 3.65625 8.6875 2.78125 12.40625 
L 10.546875 13.921875 
Q 11.671875 9.671875 15.1875 7.6875 
Q 18.703125 5.71875 24.953125 5.71875 
Q 27.78125 5.71875 30.140625 6.109375 
Q 32.515625 6.5 34.21875 7.453125 
Q 35.9375 8.40625 36.890625 9.984375 
Q 37.84375 11.578125 37.84375 13.921875 
Q 37.84375 16.3125 36.71875 17.84375 
Q 35.59375 19.390625 33.59375 20.40625 
Q 31.59375 21.4375 28.734375 22.1875 
Q 25.875 22.953125 22.46875 23.875 
Q 19.28125 24.703125 16.15625 25.734375 
Q 13.03125 26.765625 10.515625 28.4375 
Q 8.015625 30.125 6.453125 32.609375 
Q 4.890625 35.109375 4.890625 38.875 
Q 4.890625 46.09375 10.03125 49.875 
Q 15.1875 53.65625 25.046875 53.65625 
Q 33.796875 53.65625 38.9375 50.578125 
Q 44.09375 47.515625 45.453125 40.71875 
L 37.546875 39.75 
Q 37.109375 41.796875 35.9375 43.1875 
Q 34.765625 44.578125 33.109375 45.4375 
Q 31.453125 46.296875 29.375 46.65625 
Q 27.296875 47.015625 25.046875 47.015625 
Q 19.09375 47.015625 16.25 45.203125 
Q 13.421875 43.40625 13.421875 39.75 
Q 13.421875 37.59375 14.46875 36.203125 
Q 15.53125 34.8125 17.40625 33.859375 
Q 19.28125 32.90625 21.921875 32.203125 
Q 24.5625 31.5 27.734375 30.71875 
Q 29.828125 30.171875 32.03125 29.5625 
Q 34.234375 28.953125 36.296875 28.09375 
Q 38.375 27.25 40.203125 26.09375 
Q 42.046875 24.953125 43.40625 23.34375 
Q 44.78125 21.734375 45.578125 19.578125 
Q 46.390625 17.4375 46.390625 14.59375 
z
" id="LiberationSans-115"/>
       <path d="M 27.09375 25.78125 
Q 27.09375 18.953125 26.0625 12.765625 
Q 25.046875 6.59375 22.84375 0.875 
Q 20.65625 -4.828125 17.234375 -10.203125 
Q 13.8125 -15.578125 9.078125 -20.703125 
L 0.59375 -20.703125 
Q 5.171875 -15.578125 8.515625 -10.203125 
Q 11.859375 -4.828125 14 0.921875 
Q 16.15625 6.6875 17.203125 12.890625 
Q 18.265625 19.09375 18.265625 25.875 
Q 18.265625 32.671875 17.203125 38.859375 
Q 16.15625 45.0625 14 50.796875 
Q 11.859375 56.546875 8.515625 61.9375 
Q 5.171875 67.328125 0.59375 72.46875 
L 9.078125 72.46875 
Q 13.8125 67.328125 17.234375 61.953125 
Q 20.65625 56.59375 22.84375 50.875 
Q 25.046875 45.171875 26.0625 38.96875 
Q 27.09375 32.765625 27.09375 25.984375 
z
" id="LiberationSans-41"/>
      </defs>
      <use transform="translate(0 0.53125)" xlink:href="#DejaVuSans-Oblique-116"/>
      <use transform="translate(39.208984 0.53125)" xlink:href="#LiberationSans-32"/>
      <use transform="translate(66.992188 0.53125)" xlink:href="#LiberationSans-40"/>
      <use transform="translate(100.292969 0.53125)" xlink:href="#LiberationSans-109"/>
      <use transform="translate(183.59375 0.53125)" xlink:href="#LiberationSans-115"/>
      <use transform="translate(233.59375 0.53125)" xlink:href="#LiberationSans-41"/>
     </g>
    </g>
   </g>
   <g id="matplotlib.axis_4">
    <g id="ytick_4">
     <g id="line2d_17">
      <g>
       <use style="fill:#ffffff;stroke:#ffffff;stroke-width:0.8;" x="57.6" xlink:href="#m7c7b12b270" y="213.662118"/>
      </g>
     </g>
     <g id="text_18">
      <!-- −1 -->
      <g style="fill:#ffffff;" transform="translate(39.198437 217.285555)scale(0.1 -0.1)">
       <use xlink:href="#LiberationSans-8722"/>
       <use x="58.398438" xlink:href="#LiberationSans-49"/>
      </g>
     </g>
    </g>
    <g id="ytick_5">
     <g id="line2d_18">
      <g>
       <use style="fill:#ffffff;stroke:#ffffff;stroke-width:0.8;" x="57.6" xlink:href="#m7c7b12b270" y="174.528"/>
      </g>
     </g>
     <g id="text_19">
      <!-- 0 -->
      <g style="fill:#ffffff;" transform="translate(45.039062 178.151437)scale(0.1 -0.1)">
       <use xlink:href="#LiberationSans-48"/>
      </g>
     </g>
    </g>
    <g id="ytick_6">
     <g id="line2d_19">
      <g>
       <use style="fill:#ffffff;stroke:#ffffff;stroke-width:0.8;" x="57.6" xlink:href="#m7c7b12b270" y="135.393882"/>
      </g>
     </g>
     <g id="text_20">
      <!-- 1 -->
      <g style="fill:#ffffff;" transform="translate(45.039062 139.01732)scale(0.1 -0.1)">
       <use xlink:href="#LiberationSans-49"/>
      </g>
     </g>
    </g>
    <g id="text_21">
     <!-- $u$ -->
     <g style="fill:#ffffff;" transform="translate(33.123437 177.728)rotate(-90)scale(0.1 -0.1)">
      <use transform="translate(0 0.3125)" xlink:href="#DejaVuSans-Oblique-117"/>
     </g>
    </g>
   </g>
   <g id="line2d_20">
    <path clip-path="url(#pe99e17bfab)" d="M 73.832727 205.963936 
L 73.962615 202.002949 
L 75.196549 197.711095 
L 76.495427 193.993138 
L 77.794305 190.949132 
L 78.054081 190.410037 
L 78.183968 186.757038 
L 79.54779 184.946861 
L 80.976556 183.417082 
L 82.470266 182.139764 
L 84.093863 181.047182 
L 85.327797 180.381533 
L 85.392741 176.924364 
L 85.457685 176.927111 
L 90.912972 177.082422 
L 90.977916 173.65808 
L 91.04286 173.693327 
L 92.861289 174.549813 
L 94.939494 175.27568 
L 97.342418 175.870932 
L 98.186689 176.033001 
L 98.251633 172.619101 
L 98.316577 172.664686 
L 100.005118 173.703132 
L 101.628716 174.476726 
L 101.693659 171.078312 
L 101.758603 171.139228 
L 103.252313 172.384596 
L 104.87591 173.44985 
L 106.629396 174.337308 
L 108.642657 175.100476 
L 110.915693 175.72061 
L 110.980637 175.735334 
L 111.045581 172.324397 
L 111.110525 172.372914 
L 112.734122 173.440751 
L 114.487607 174.330363 
L 116.176149 174.987455 
L 116.241093 171.583958 
L 116.306036 171.639843 
L 117.86469 172.826312 
L 119.553231 173.827754 
L 121.436604 174.676774 
L 123.384921 175.330853 
L 123.449865 171.92394 
L 123.514809 171.976442 
L 125.073463 173.09109 
L 126.762004 174.031912 
L 128.645377 174.829537 
L 130.788526 175.495932 
L 130.85347 172.087376 
L 130.918414 172.138252 
L 132.542011 173.257997 
L 134.295496 174.190852 
L 136.243813 174.970873 
L 138.451906 175.613491 
L 138.711681 175.675715 
L 138.776625 172.26537 
L 138.841569 172.314475 
L 140.465166 173.395239 
L 142.218652 174.295619 
L 142.478427 174.409518 
L 142.543371 171.011772 
L 142.608315 171.07335 
L 144.102025 172.332254 
L 145.725622 173.409086 
L 147.479107 174.30619 
L 149.492368 175.077652 
L 151.765405 175.704527 
L 152.804507 175.925702 
L 152.869451 172.51287 
L 152.934395 172.559511 
L 154.557992 173.586074 
L 156.376421 174.468753 
L 158.259795 175.156409 
L 158.324738 171.751232 
L 158.389682 171.805452 
L 159.948336 172.956585 
L 161.636877 173.928201 
L 163.52025 174.751934 
L 165.663399 175.440142 
L 166.377782 175.623501 
L 166.442726 172.213676 
L 166.50767 172.263295 
L 168.131267 173.35538 
L 168.455986 173.542904 
L 168.52093 196.669099 
L 168.585874 196.475383 
L 169.884752 192.981422 
L 170.469247 191.623169 
L 170.599135 187.946148 
L 171.962957 185.910735 
L 173.326779 184.260862 
L 174.755545 182.866554 
L 176.314198 181.657556 
L 178.002739 180.637099 
L 179.821169 179.797803 
L 180.210832 179.646542 
L 180.275776 176.196687 
L 180.34072 176.206674 
L 183.717802 176.609612 
L 187.029941 176.845637 
L 187.094885 173.423651 
L 187.159829 173.461231 
L 188.913314 174.345996 
L 190.926575 175.106848 
L 193.199612 175.725101 
L 193.978938 175.891928 
L 194.043882 172.479432 
L 194.108826 172.526406 
L 194.17377 195.662716 
L 194.238714 195.479013 
L 195.537592 192.165663 
L 196.83647 189.452923 
L 198.135348 187.231918 
L 199.49917 185.331792 
L 200.927935 183.725996 
L 202.291757 182.489947 
L 202.356701 179.011799 
L 202.421645 202.083578 
L 202.486589 201.835986 
L 203.720523 197.573024 
L 205.019401 193.880095 
L 206.318279 190.85658 
L 207.617157 188.381136 
L 207.682101 188.269886 
L 207.811989 184.659264 
L 209.240754 183.18628 
L 210.734464 181.956384 
L 212.358061 180.904366 
L 214.176491 179.999799 
L 214.241434 176.546429 
L 214.306378 176.552936 
L 218.527732 176.862397 
L 222.034702 177.003432 
L 222.099646 173.579876 
L 222.16459 173.615901 
L 223.983019 174.491296 
L 225.99628 175.213417 
L 228.33426 175.814131 
L 230.347521 176.183647 
L 230.412465 172.768248 
L 230.477409 172.812349 
L 232.16595 173.816988 
L 234.049323 174.668718 
L 235.478089 175.168678 
L 235.543033 171.763379 
L 235.607977 171.817478 
L 237.16663 172.966045 
L 238.855172 173.935495 
L 240.738545 174.757392 
L 242.427086 175.316717 
L 242.49203 171.909944 
L 242.556974 171.962585 
L 244.115627 173.08019 
L 245.804169 174.023507 
L 247.687542 174.823248 
L 249.830691 175.491411 
L 249.895634 175.508416 
L 249.960578 172.099736 
L 250.025522 172.150488 
L 251.64912 173.267526 
L 253.402605 174.198126 
L 255.221034 174.931332 
L 255.285978 171.528394 
L 255.350922 171.584831 
L 256.909575 172.783039 
L 258.598117 173.794388 
L 260.416546 174.626193 
L 262.494751 175.331144 
L 263.663741 175.639067 
L 263.728685 172.229087 
L 263.793629 172.278553 
L 263.858572 172.327526 
L 263.923516 195.465814 
L 263.98846 195.28407 
L 265.287338 192.006058 
L 266.586216 189.322249 
L 267.885094 187.124932 
L 269.248916 185.24507 
L 270.677682 183.6564 
L 270.742626 183.592162 
L 270.872513 180.074166 
L 272.885774 179.308156 
L 275.158811 178.685713 
L 276.392745 178.428694 
L 276.457689 174.990957 
L 276.522633 175.012941 
L 278.795669 175.658926 
L 281.458369 176.177402 
L 283.47163 176.450087 
L 283.536573 173.032037 
L 283.601517 173.073513 
L 285.290059 174.018359 
L 287.173432 174.819396 
L 288.991861 175.400878 
L 289.056805 171.993268 
L 289.121749 172.045079 
L 290.680402 173.145083 
L 292.433888 174.104655 
L 294.382204 174.907018 
L 294.9667 175.104407 
L 295.031643 171.699747 
L 295.096587 171.754479 
L 296.655241 172.916488 
L 298.343782 173.897285 
L 300.227155 174.728801 
L 301.98064 175.313633 
L 302.045584 171.906891 
L 302.110528 171.959563 
L 303.669182 173.077813 
L 305.357723 174.021674 
L 307.241096 174.821877 
L 309.384245 175.490425 
L 309.838852 175.60603 
L 309.903796 172.196379 
L 309.96874 172.24617 
L 311.592337 173.342043 
L 313.345823 174.255011 
L 313.410767 170.858803 
L 313.47571 170.921903 
L 314.96942 172.211924 
L 316.593018 173.315372 
L 318.346503 174.234651 
L 320.29482 175.003321 
L 320.814371 175.172241 
L 320.879315 171.766906 
L 320.944259 171.82097 
L 322.502912 172.968792 
L 324.191454 173.937613 
L 326.074827 174.758977 
L 327.763368 175.317938 
L 327.828312 171.911154 
L 327.893256 171.963783 
L 329.451909 173.081132 
L 330.945619 173.927505 
L 331.010563 197.049873 
L 331.075507 196.852368 
L 332.374385 193.290071 
L 333.023824 191.758937 
L 333.153711 188.079228 
L 334.517533 186.018608 
L 335.881355 184.348301 
L 337.310121 182.936727 
L 338.868774 181.712756 
L 339.713045 181.16268 
L 339.842933 177.69279 
L 344.778669 177.430678 
L 347.311481 177.356313 
L 347.376425 173.929246 
L 347.441369 173.961795 
L 349.324742 174.777071 
L 351.467891 175.458213 
L 354.000703 176.020843 
L 354.585198 176.122366 
L 354.650142 172.707577 
L 354.715086 172.752282 
L 356.403627 173.770673 
L 358.222056 174.608269 
L 359.326102 175.013512 
L 359.391046 171.609756 
L 359.45599 171.665384 
L 361.014644 172.846404 
L 362.703185 173.843246 
L 364.586558 174.688365 
L 365.560717 175.038273 
L 365.62566 198.149589 
L 365.690604 197.941141 
L 366.989482 194.181483 
L 367.963641 191.816155 
L 368.093529 188.135313 
L 369.45735 186.064069 
L 370.821172 184.385152 
L 372.249938 182.9663 
L 373.808592 181.736019 
L 374.977582 180.988868 
L 375.107469 177.52242 
L 381.407028 177.322476 
L 381.926579 177.313091 
L 381.991523 173.886454 
L 382.056467 173.919429 
L 383.93984 174.74537 
L 386.082988 175.435423 
L 388.6158 176.005412 
L 389.395127 176.140541 
L 389.460071 172.725572 
L 389.525015 172.770097 
L 391.213556 173.784409 
L 393.031985 174.618651 
L 394.460751 175.128499 
L 394.525695 171.7236 
L 394.590639 171.778095 
L 395.305022 172.342915 
L 395.369966 195.48105 
L 395.43491 195.299154 
L 396.733787 192.018408 
L 398.032665 189.33236 
L 398.487273 188.512165 
L 398.487273 188.512165 
" style="fill:none;stroke:#9a72ac;stroke-linecap:round;stroke-width:1.5;"/>
   </g>
   <g id="patch_8">
    <path d="M 57.6 213.662118 
L 57.6 135.393882 
" style="fill:none;stroke:#ffffff;stroke-linecap:square;stroke-linejoin:miter;stroke-width:0.8;"/>
   </g>
   <g id="patch_9">
    <path d="M 414.72 213.662118 
L 414.72 135.393882 
" style="fill:none;stroke:#ffffff;stroke-linecap:square;stroke-linejoin:miter;stroke-width:0.8;"/>
   </g>
   <g id="patch_10">
    <path d="M 57.6 213.662118 
L 414.72 213.662118 
" style="fill:none;stroke:#ffffff;stroke-linecap:square;stroke-linejoin:miter;stroke-width:0.8;"/>
   </g>
   <g id="patch_11">
    <path d="M 57.6 135.393882 
L 414.72 135.393882 
" style="fill:none;stroke:#ffffff;stroke-linecap:square;stroke-linejoin:miter;stroke-width:0.8;"/>
   </g>
  </g>
  <g id="text_22">
   <!-- M2 - membrane potential -->
   <g style="fill:#ffffff;" transform="translate(163.708125 15.60825)scale(0.12 -0.12)">
    <defs>
     <path d="M 66.703125 0 
L 66.703125 45.90625 
Q 66.703125 48.390625 66.75 50.96875 
Q 66.796875 53.5625 66.890625 55.71875 
Q 67 58.203125 67.140625 60.546875 
Q 66.453125 58.0625 65.71875 55.609375 
Q 65.09375 53.515625 64.328125 51.140625 
Q 63.578125 48.78125 62.84375 46.875 
L 45.0625 0 
L 38.53125 0 
L 20.515625 46.875 
Q 20.21875 47.609375 19.890625 48.578125 
Q 19.578125 49.5625 19.203125 50.65625 
Q 18.84375 51.765625 18.46875 52.90625 
Q 18.109375 54.046875 17.78125 55.171875 
Q 16.9375 57.765625 16.15625 60.546875 
Q 16.21875 57.8125 16.3125 55.125 
Q 16.40625 52.828125 16.453125 50.3125 
Q 16.5 47.796875 16.5 45.90625 
L 16.5 0 
L 8.203125 0 
L 8.203125 68.796875 
L 20.453125 68.796875 
L 38.765625 21.09375 
Q 39.109375 20.125 39.59375 18.578125 
Q 40.09375 17.046875 40.53125 15.421875 
Q 40.96875 13.8125 41.328125 12.375 
Q 41.703125 10.9375 41.84375 10.15625 
Q 42 10.9375 42.390625 12.40625 
Q 42.78125 13.875 43.28125 15.484375 
Q 43.796875 17.09375 44.28125 18.609375 
Q 44.78125 20.125 45.171875 21.09375 
L 63.140625 68.796875 
L 75.09375 68.796875 
L 75.09375 0 
z
" id="LiberationSans-77"/>
     <path d="M 4.4375 22.65625 
L 4.4375 30.46875 
L 28.859375 30.46875 
L 28.859375 22.65625 
z
" id="LiberationSans-45"/>
     <path d="M 13.484375 24.5625 
Q 13.484375 20.40625 14.328125 16.90625 
Q 15.1875 13.421875 16.96875 10.90625 
Q 18.75 8.40625 21.53125 7 
Q 24.3125 5.609375 28.21875 5.609375 
Q 33.9375 5.609375 37.375 7.90625 
Q 40.828125 10.203125 42.046875 13.71875 
L 49.75 11.53125 
Q 48.921875 9.328125 47.4375 7.109375 
Q 45.953125 4.890625 43.453125 3.09375 
Q 40.96875 1.3125 37.234375 0.15625 
Q 33.5 -0.984375 28.21875 -0.984375 
Q 16.5 -0.984375 10.375 6 
Q 4.25 12.984375 4.25 26.765625 
Q 4.25 34.1875 6.09375 39.328125 
Q 7.953125 44.484375 11.171875 47.703125 
Q 14.40625 50.921875 18.703125 52.359375 
Q 23 53.8125 27.875 53.8125 
Q 34.515625 53.8125 38.984375 51.65625 
Q 43.453125 49.515625 46.15625 45.71875 
Q 48.875 41.9375 50.015625 36.8125 
Q 51.171875 31.6875 51.171875 25.734375 
L 51.171875 24.5625 
z
M 42.09375 31.296875 
Q 41.359375 39.65625 37.84375 43.484375 
Q 34.328125 47.3125 27.734375 47.3125 
Q 25.53125 47.3125 23.109375 46.609375 
Q 20.703125 45.90625 18.65625 44.09375 
Q 16.609375 42.28125 15.1875 39.171875 
Q 13.765625 36.078125 13.578125 31.296875 
z
" id="LiberationSans-101"/>
     <path d="M 51.421875 26.65625 
Q 51.421875 -0.984375 31.984375 -0.984375 
Q 25.984375 -0.984375 22 1.1875 
Q 18.015625 3.375 15.53125 8.203125 
L 15.4375 8.203125 
Q 15.4375 6.9375 15.359375 5.5625 
Q 15.28125 4.203125 15.203125 3.03125 
Q 15.140625 1.859375 15.0625 1.03125 
Q 14.984375 0.203125 14.9375 0 
L 6.453125 0 
Q 6.5 0.4375 6.546875 1.484375 
Q 6.59375 2.546875 6.640625 4 
Q 6.6875 5.46875 6.703125 7.21875 
Q 6.734375 8.984375 6.734375 10.890625 
L 6.734375 72.46875 
L 15.53125 72.46875 
L 15.53125 51.8125 
Q 15.53125 50.34375 15.5 49 
Q 15.484375 47.65625 15.4375 46.625 
Q 15.375 45.40625 15.328125 44.34375 
L 15.53125 44.34375 
Q 17.96875 49.421875 22 51.609375 
Q 26.03125 53.8125 31.984375 53.8125 
Q 42 53.8125 46.703125 47.0625 
Q 51.421875 40.328125 51.421875 26.65625 
z
M 42.1875 26.375 
Q 42.1875 31.84375 41.5 35.75 
Q 40.828125 39.65625 39.3125 42.15625 
Q 37.796875 44.671875 35.453125 45.84375 
Q 33.109375 47.015625 29.734375 47.015625 
Q 26.265625 47.015625 23.609375 45.890625 
Q 20.953125 44.78125 19.171875 42.28125 
Q 17.390625 39.796875 16.453125 35.734375 
Q 15.53125 31.6875 15.53125 25.828125 
Q 15.53125 20.171875 16.453125 16.3125 
Q 17.390625 12.453125 19.171875 10.03125 
Q 20.953125 7.625 23.578125 6.5625 
Q 26.21875 5.515625 29.640625 5.515625 
Q 32.859375 5.515625 35.203125 6.640625 
Q 37.546875 7.765625 39.109375 10.25 
Q 40.671875 12.75 41.421875 16.71875 
Q 42.1875 20.703125 42.1875 26.375 
z
" id="LiberationSans-98"/>
     <path d="M 6.9375 0 
L 6.9375 40.53125 
Q 6.9375 42.1875 6.90625 43.921875 
Q 6.890625 45.65625 6.828125 47.265625 
Q 6.78125 48.875 6.734375 50.28125 
Q 6.6875 51.703125 6.640625 52.828125 
L 14.9375 52.828125 
Q 14.984375 51.703125 15.0625 50.265625 
Q 15.140625 48.828125 15.203125 47.3125 
Q 15.28125 45.796875 15.296875 44.40625 
Q 15.328125 43.015625 15.328125 42.046875 
L 15.53125 42.046875 
Q 16.453125 45.0625 17.5 47.28125 
Q 18.5625 49.515625 19.96875 50.953125 
Q 21.390625 52.390625 23.34375 53.09375 
Q 25.296875 53.8125 28.078125 53.8125 
Q 29.15625 53.8125 30.125 53.640625 
Q 31.109375 53.46875 31.640625 53.328125 
L 31.640625 45.265625 
Q 30.765625 45.515625 29.59375 45.625 
Q 28.421875 45.75 26.953125 45.75 
Q 23.921875 45.75 21.796875 44.375 
Q 19.671875 43.015625 18.328125 40.59375 
Q 17 38.1875 16.359375 34.84375 
Q 15.71875 31.5 15.71875 27.546875 
L 15.71875 0 
z
" id="LiberationSans-114"/>
     <path d="M 20.21875 -0.984375 
Q 12.25 -0.984375 8.25 3.21875 
Q 4.25 7.421875 4.25 14.75 
Q 4.25 19.96875 6.21875 23.3125 
Q 8.203125 26.65625 11.390625 28.5625 
Q 14.59375 30.46875 18.6875 31.203125 
Q 22.796875 31.9375 27.046875 32.03125 
L 38.921875 32.234375 
L 38.921875 35.109375 
Q 38.921875 38.375 38.234375 40.671875 
Q 37.546875 42.96875 36.125 44.375 
Q 34.71875 45.796875 32.59375 46.453125 
Q 30.46875 47.125 27.59375 47.125 
Q 25.046875 47.125 23 46.75 
Q 20.953125 46.390625 19.4375 45.4375 
Q 17.921875 44.484375 16.984375 42.84375 
Q 16.0625 41.21875 15.765625 38.71875 
L 6.59375 39.546875 
Q 7.078125 42.671875 8.4375 45.28125 
Q 9.8125 47.90625 12.328125 49.796875 
Q 14.84375 51.703125 18.625 52.75 
Q 22.40625 53.8125 27.78125 53.8125 
Q 37.75 53.8125 42.765625 49.234375 
Q 47.796875 44.671875 47.796875 36.03125 
L 47.796875 13.28125 
Q 47.796875 9.375 48.828125 7.390625 
Q 49.859375 5.421875 52.734375 5.421875 
Q 53.46875 5.421875 54.203125 5.515625 
Q 54.9375 5.609375 55.609375 5.765625 
L 55.609375 0.296875 
Q 53.953125 -0.09375 52.3125 -0.28125 
Q 50.6875 -0.484375 48.828125 -0.484375 
Q 46.34375 -0.484375 44.5625 0.171875 
Q 42.78125 0.828125 41.65625 2.171875 
Q 40.53125 3.515625 39.9375 5.484375 
Q 39.359375 7.46875 39.203125 10.109375 
L 38.921875 10.109375 
Q 37.5 7.5625 35.8125 5.515625 
Q 34.125 3.46875 31.875 2.03125 
Q 29.640625 0.59375 26.78125 -0.1875 
Q 23.921875 -0.984375 20.21875 -0.984375 
z
M 22.21875 5.609375 
Q 26.421875 5.609375 29.5625 7.140625 
Q 32.71875 8.6875 34.78125 11.078125 
Q 36.859375 13.484375 37.890625 16.3125 
Q 38.921875 19.140625 38.921875 21.734375 
L 38.921875 26.078125 
L 29.296875 25.875 
Q 26.078125 25.828125 23.171875 25.40625 
Q 20.265625 25 18.0625 23.78125 
Q 15.875 22.5625 14.578125 20.359375 
Q 13.28125 18.171875 13.28125 14.59375 
Q 13.28125 10.296875 15.59375 7.953125 
Q 17.921875 5.609375 22.21875 5.609375 
z
" id="LiberationSans-97"/>
     <path d="M 40.28125 0 
L 40.28125 33.5 
Q 40.28125 37.359375 39.71875 39.9375 
Q 39.15625 42.53125 37.890625 44.109375 
Q 36.625 45.703125 34.546875 46.359375 
Q 32.46875 47.015625 29.390625 47.015625 
Q 26.265625 47.015625 23.75 45.921875 
Q 21.234375 44.828125 19.453125 42.75 
Q 17.671875 40.671875 16.6875 37.625 
Q 15.71875 34.578125 15.71875 30.609375 
L 15.71875 0 
L 6.9375 0 
L 6.9375 41.546875 
Q 6.9375 43.21875 6.90625 45.046875 
Q 6.890625 46.875 6.828125 48.5 
Q 6.78125 50.140625 6.734375 51.3125 
Q 6.6875 52.484375 6.640625 52.828125 
L 14.9375 52.828125 
Q 14.984375 52.59375 15.03125 51.515625 
Q 15.09375 50.4375 15.15625 49.046875 
Q 15.234375 47.65625 15.28125 46.21875 
Q 15.328125 44.78125 15.328125 43.796875 
L 15.484375 43.796875 
Q 16.75 46.09375 18.265625 47.953125 
Q 19.78125 49.8125 21.78125 51.09375 
Q 23.78125 52.390625 26.359375 53.09375 
Q 28.953125 53.8125 32.375 53.8125 
Q 36.765625 53.8125 39.9375 52.734375 
Q 43.109375 51.65625 45.15625 49.40625 
Q 47.21875 47.171875 48.171875 43.625 
Q 49.125 40.09375 49.125 35.203125 
L 49.125 0 
z
" id="LiberationSans-110"/>
     <path d="M 51.421875 26.65625 
Q 51.421875 20.65625 50.4375 15.578125 
Q 49.46875 10.5 47.1875 6.828125 
Q 44.921875 3.171875 41.1875 1.09375 
Q 37.453125 -0.984375 31.984375 -0.984375 
Q 26.3125 -0.984375 22.0625 1.171875 
Q 17.828125 3.328125 15.578125 8.203125 
L 15.328125 8.203125 
Q 15.375 8.109375 15.40625 7.328125 
Q 15.4375 6.546875 15.453125 5.375 
Q 15.484375 4.203125 15.5 2.75 
Q 15.53125 1.3125 15.53125 -0.09375 
L 15.53125 -20.75 
L 6.734375 -20.75 
L 6.734375 42.046875 
Q 6.734375 43.953125 6.703125 45.703125 
Q 6.6875 47.46875 6.640625 48.90625 
Q 6.59375 50.34375 6.546875 51.359375 
Q 6.5 52.390625 6.453125 52.828125 
L 14.9375 52.828125 
Q 14.984375 52.6875 15.0625 51.796875 
Q 15.140625 50.921875 15.203125 49.671875 
Q 15.28125 48.4375 15.359375 47.015625 
Q 15.4375 45.609375 15.4375 44.34375 
L 15.625 44.34375 
Q 16.84375 46.875 18.40625 48.65625 
Q 19.96875 50.4375 21.96875 51.578125 
Q 23.96875 52.734375 26.4375 53.25 
Q 28.90625 53.765625 31.984375 53.765625 
Q 37.453125 53.765625 41.1875 51.8125 
Q 44.921875 49.859375 47.1875 46.3125 
Q 49.46875 42.78125 50.4375 37.765625 
Q 51.421875 32.765625 51.421875 26.65625 
z
M 42.1875 26.46875 
Q 42.1875 31.34375 41.59375 35.15625 
Q 41.015625 38.96875 39.578125 41.59375 
Q 38.140625 44.234375 35.734375 45.59375 
Q 33.34375 46.96875 29.734375 46.96875 
Q 26.8125 46.96875 24.21875 46.140625 
Q 21.625 45.3125 19.703125 42.96875 
Q 17.78125 40.625 16.65625 36.5 
Q 15.53125 32.375 15.53125 25.78125 
Q 15.53125 20.171875 16.453125 16.28125 
Q 17.390625 12.40625 19.171875 10.015625 
Q 20.953125 7.625 23.578125 6.5625 
Q 26.21875 5.515625 29.640625 5.515625 
Q 33.296875 5.515625 35.71875 6.921875 
Q 38.140625 8.34375 39.578125 11.03125 
Q 41.015625 13.71875 41.59375 17.59375 
Q 42.1875 21.484375 42.1875 26.46875 
z
" id="LiberationSans-112"/>
     <path d="M 51.421875 26.46875 
Q 51.421875 12.59375 45.3125 5.796875 
Q 39.203125 -0.984375 27.59375 -0.984375 
Q 22.078125 -0.984375 17.71875 0.671875 
Q 13.375 2.34375 10.375 5.765625 
Q 7.375 9.1875 5.78125 14.328125 
Q 4.203125 19.484375 4.203125 26.46875 
Q 4.203125 53.8125 27.875 53.8125 
Q 34.03125 53.8125 38.5 52.09375 
Q 42.96875 50.390625 45.828125 46.96875 
Q 48.6875 43.5625 50.046875 38.421875 
Q 51.421875 33.296875 51.421875 26.46875 
z
M 42.1875 26.46875 
Q 42.1875 32.625 41.234375 36.625 
Q 40.28125 40.625 38.453125 43.015625 
Q 36.625 45.40625 33.984375 46.359375 
Q 31.34375 47.3125 28.03125 47.3125 
Q 24.65625 47.3125 21.9375 46.3125 
Q 19.234375 45.3125 17.328125 42.890625 
Q 15.4375 40.484375 14.421875 36.46875 
Q 13.421875 32.46875 13.421875 26.46875 
Q 13.421875 20.3125 14.5 16.28125 
Q 15.578125 12.25 17.453125 9.859375 
Q 19.34375 7.46875 21.90625 6.484375 
Q 24.46875 5.515625 27.484375 5.515625 
Q 30.859375 5.515625 33.59375 6.46875 
Q 36.328125 7.421875 38.234375 9.8125 
Q 40.140625 12.203125 41.15625 16.25 
Q 42.1875 20.3125 42.1875 26.46875 
z
" id="LiberationSans-111"/>
     <path d="M 27.046875 0.390625 
Q 25.046875 -0.140625 22.96875 -0.453125 
Q 20.90625 -0.78125 18.171875 -0.78125 
Q 7.625 -0.78125 7.625 11.1875 
L 7.625 46.4375 
L 1.515625 46.4375 
L 1.515625 52.828125 
L 7.953125 52.828125 
L 10.546875 64.65625 
L 16.40625 64.65625 
L 16.40625 52.828125 
L 26.171875 52.828125 
L 26.171875 46.4375 
L 16.40625 46.4375 
L 16.40625 13.09375 
Q 16.40625 9.28125 17.640625 7.734375 
Q 18.890625 6.203125 21.96875 6.203125 
Q 23.25 6.203125 24.4375 6.390625 
Q 25.640625 6.59375 27.046875 6.890625 
z
" id="LiberationSans-116"/>
     <path d="M 6.6875 64.0625 
L 6.6875 72.46875 
L 15.484375 72.46875 
L 15.484375 64.0625 
z
M 6.6875 0 
L 6.6875 52.828125 
L 15.484375 52.828125 
L 15.484375 0 
z
" id="LiberationSans-105"/>
     <path d="M 6.734375 0 
L 6.734375 72.46875 
L 15.53125 72.46875 
L 15.53125 0 
z
" id="LiberationSans-108"/>
    </defs>
    <use xlink:href="#LiberationSans-77"/>
    <use x="83.300781" xlink:href="#LiberationSans-50"/>
    <use x="138.916016" xlink:href="#LiberationSans-32"/>
    <use x="166.699219" xlink:href="#LiberationSans-45"/>
    <use x="200" xlink:href="#LiberationSans-32"/>
    <use x="227.783203" xlink:href="#LiberationSans-109"/>
    <use x="311.083984" xlink:href="#LiberationSans-101"/>
    <use x="366.699219" xlink:href="#LiberationSans-109"/>
    <use x="450" xlink:href="#LiberationSans-98"/>
    <use x="505.615234" xlink:href="#LiberationSans-114"/>
    <use x="538.916016" xlink:href="#LiberationSans-97"/>
    <use x="594.53125" xlink:href="#LiberationSans-110"/>
    <use x="650.146484" xlink:href="#LiberationSans-101"/>
    <use x="705.761719" xlink:href="#LiberationSans-32"/>
    <use x="733.544922" xlink:href="#LiberationSans-112"/>
    <use x="789.160156" xlink:href="#LiberationSans-111"/>
    <use x="844.775391" xlink:href="#LiberationSans-116"/>
    <use x="872.558594" xlink:href="#LiberationSans-101"/>
    <use x="928.173828" xlink:href="#LiberationSans-110"/>
    <use x="983.789062" xlink:href="#LiberationSans-116"/>
    <use x="1011.572266" xlink:href="#LiberationSans-105"/>
    <use x="1033.789062" xlink:href="#LiberationSans-97"/>
    <use x="1089.404297" xlink:href="#LiberationSans-108"/>
   </g>
  </g>
 </g>
 <defs>
  <clipPath id="p5fd9f5b20a">
   <rect height="78.268235" width="357.12" x="57.6" y="41.472"/>
  </clipPath>
  <clipPath id="pe99e17bfab">
   <rect height="78.268235" width="357.12" x="57.6" y="135.393882"/>
  </clipPath>
 </defs>
</svg>
