<?xml version="1.0" encoding="utf-8" standalone="no"?>
<!DOCTYPE svg PUBLIC "-//W3C//DTD SVG 1.1//EN"
  "http://www.w3.org/Graphics/SVG/1.1/DTD/svg11.dtd">
<!-- Created with matplotlib (https://matplotlib.org/) -->
<svg height="345.6pt" version="1.1" viewBox="0 0 460.8 345.6" width="460.8pt" xmlns="http://www.w3.org/2000/svg" xmlns:xlink="http://www.w3.org/1999/xlink">
 <metadata>
  <rdf:RDF xmlns:cc="http://creativecommons.org/ns#" xmlns:dc="http://purl.org/dc/elements/1.1/" xmlns:rdf="http://www.w3.org/1999/02/22-rdf-syntax-ns#">
   <cc:Work>
    <dc:type rdf:resource="http://purl.org/dc/dcmitype/StillImage"/>
    <dc:date>2022-05-05T14:26:13.570117</dc:date>
    <dc:format>image/svg+xml</dc:format>
    <dc:creator>
     <cc:Agent>
      <dc:title>Matplotlib v3.3.4, https://matplotlib.org/</dc:title>
     </cc:Agent>
    </dc:creator>
   </cc:Work>
  </rdf:RDF>
 </metadata>
 <defs>
  <style type="text/css">*{stroke-linecap:butt;stroke-linejoin:round;}</style>
 </defs>
 <g id="figure_1">
  <g id="patch_1">
   <path d="M 0 345.6 
L 460.8 345.6 
L 460.8 0 
L 0 0 
z
" style="fill:#262626;"/>
  </g>
  <g id="axes_1">
   <g id="patch_2">
    <path d="M 57.6 307.584 
L 414.72 307.584 
L 414.72 41.472 
L 57.6 41.472 
z
" style="fill:#1a1a1a;"/>
   </g>
   <g id="matplotlib.axis_1">
    <g id="xtick_1">
     <g id="line2d_1">
      <defs>
       <path d="M 0 0 
L 0 3.5 
" id="m2a304d5c45" style="stroke:#ffffff;stroke-width:0.8;"/>
      </defs>
      <g>
       <use style="fill:#ffffff;stroke:#ffffff;stroke-width:0.8;" x="73.832727" xlink:href="#m2a304d5c45" y="307.584"/>
      </g>
     </g>
     <g id="text_1">
      <!-- 0 -->
      <g style="fill:#ffffff;" transform="translate(71.052259 321.830875)scale(0.1 -0.1)">
       <defs>
        <path d="M 51.703125 34.421875 
Q 51.703125 24.515625 49.828125 17.75 
Q 47.953125 10.984375 44.703125 6.8125 
Q 41.453125 2.640625 37.0625 0.828125 
Q 32.671875 -0.984375 27.6875 -0.984375 
Q 22.65625 -0.984375 18.3125 0.828125 
Q 13.96875 2.640625 10.765625 6.78125 
Q 7.5625 10.9375 5.734375 17.703125 
Q 3.90625 24.46875 3.90625 34.421875 
Q 3.90625 44.828125 5.734375 51.640625 
Q 7.5625 58.453125 10.78125 62.5 
Q 14.015625 66.546875 18.40625 68.1875 
Q 22.796875 69.828125 27.984375 69.828125 
Q 32.90625 69.828125 37.21875 68.1875 
Q 41.546875 66.546875 44.765625 62.5 
Q 48 58.453125 49.84375 51.640625 
Q 51.703125 44.828125 51.703125 34.421875 
z
M 42.78125 34.421875 
Q 42.78125 42.625 41.796875 48.0625 
Q 40.828125 53.515625 38.921875 56.765625 
Q 37.015625 60.015625 34.25 61.359375 
Q 31.5 62.703125 27.984375 62.703125 
Q 24.265625 62.703125 21.4375 61.328125 
Q 18.609375 59.96875 16.671875 56.71875 
Q 14.75 53.46875 13.765625 48.015625 
Q 12.796875 42.578125 12.796875 34.421875 
Q 12.796875 26.515625 13.796875 21.09375 
Q 14.796875 15.671875 16.71875 12.375 
Q 18.65625 9.078125 21.4375 7.640625 
Q 24.21875 6.203125 27.78125 6.203125 
Q 31.25 6.203125 34.03125 7.640625 
Q 36.8125 9.078125 38.734375 12.375 
Q 40.671875 15.671875 41.71875 21.09375 
Q 42.78125 26.515625 42.78125 34.421875 
z
" id="LiberationSans-48"/>
       </defs>
       <use xlink:href="#LiberationSans-48"/>
      </g>
     </g>
    </g>
    <g id="xtick_2">
     <g id="line2d_2">
      <g>
       <use style="fill:#ffffff;stroke:#ffffff;stroke-width:0.8;" x="138.764935" xlink:href="#m2a304d5c45" y="307.584"/>
      </g>
     </g>
     <g id="text_2">
      <!-- 2000 -->
      <g style="fill:#ffffff;" transform="translate(127.64306 321.830875)scale(0.1 -0.1)">
       <defs>
        <path d="M 5.03125 0 
L 5.03125 6.203125 
Q 7.515625 11.921875 11.109375 16.28125 
Q 14.703125 20.65625 18.65625 24.1875 
Q 22.609375 27.734375 26.484375 30.765625 
Q 30.375 33.796875 33.5 36.8125 
Q 36.625 39.84375 38.546875 43.15625 
Q 40.484375 46.484375 40.484375 50.6875 
Q 40.484375 53.609375 39.59375 55.828125 
Q 38.71875 58.0625 37.0625 59.5625 
Q 35.40625 61.078125 33.078125 61.828125 
Q 30.765625 62.59375 27.9375 62.59375 
Q 25.296875 62.59375 22.96875 61.859375 
Q 20.65625 61.140625 18.84375 59.671875 
Q 17.046875 58.203125 15.890625 56.03125 
Q 14.75 53.859375 14.40625 50.984375 
L 5.421875 51.8125 
Q 5.859375 55.515625 7.46875 58.78125 
Q 9.078125 62.0625 11.90625 64.53125 
Q 14.75 67 18.71875 68.40625 
Q 22.703125 69.828125 27.9375 69.828125 
Q 33.0625 69.828125 37.0625 68.609375 
Q 41.0625 67.390625 43.8125 64.984375 
Q 46.578125 62.59375 48.046875 59.078125 
Q 49.515625 55.5625 49.515625 50.984375 
Q 49.515625 47.515625 48.265625 44.390625 
Q 47.015625 41.265625 44.9375 38.421875 
Q 42.875 35.59375 40.140625 32.953125 
Q 37.40625 30.328125 34.421875 27.8125 
Q 31.453125 25.296875 28.421875 22.828125 
Q 25.390625 20.359375 22.71875 17.859375 
Q 20.0625 15.375 17.96875 12.8125 
Q 15.875 10.25 14.703125 7.46875 
L 50.59375 7.46875 
L 50.59375 0 
z
" id="LiberationSans-50"/>
       </defs>
       <use xlink:href="#LiberationSans-50"/>
       <use x="55.615234" xlink:href="#LiberationSans-48"/>
       <use x="111.230469" xlink:href="#LiberationSans-48"/>
       <use x="166.845703" xlink:href="#LiberationSans-48"/>
      </g>
     </g>
    </g>
    <g id="xtick_3">
     <g id="line2d_3">
      <g>
       <use style="fill:#ffffff;stroke:#ffffff;stroke-width:0.8;" x="203.697143" xlink:href="#m2a304d5c45" y="307.584"/>
      </g>
     </g>
     <g id="text_3">
      <!-- 4000 -->
      <g style="fill:#ffffff;" transform="translate(192.575268 321.830875)scale(0.1 -0.1)">
       <defs>
        <path d="M 43.015625 15.578125 
L 43.015625 0 
L 34.71875 0 
L 34.71875 15.578125 
L 2.296875 15.578125 
L 2.296875 22.40625 
L 33.796875 68.796875 
L 43.015625 68.796875 
L 43.015625 22.515625 
L 52.6875 22.515625 
L 52.6875 15.578125 
z
M 34.71875 58.890625 
Q 34.625 58.640625 34.234375 57.9375 
Q 33.84375 57.234375 33.34375 56.34375 
Q 32.859375 55.46875 32.34375 54.5625 
Q 31.84375 53.65625 31.453125 53.078125 
L 13.8125 27.09375 
Q 13.578125 26.703125 13.109375 26.0625 
Q 12.640625 25.4375 12.15625 24.78125 
Q 11.671875 24.125 11.171875 23.484375 
Q 10.6875 22.859375 10.40625 22.515625 
L 34.71875 22.515625 
z
" id="LiberationSans-52"/>
       </defs>
       <use xlink:href="#LiberationSans-52"/>
       <use x="55.615234" xlink:href="#LiberationSans-48"/>
       <use x="111.230469" xlink:href="#LiberationSans-48"/>
       <use x="166.845703" xlink:href="#LiberationSans-48"/>
      </g>
     </g>
    </g>
    <g id="xtick_4">
     <g id="line2d_4">
      <g>
       <use style="fill:#ffffff;stroke:#ffffff;stroke-width:0.8;" x="268.62935" xlink:href="#m2a304d5c45" y="307.584"/>
      </g>
     </g>
     <g id="text_4">
      <!-- 6000 -->
      <g style="fill:#ffffff;" transform="translate(257.507475 321.830875)scale(0.1 -0.1)">
       <defs>
        <path d="M 51.21875 22.515625 
Q 51.21875 17.328125 49.78125 13 
Q 48.34375 8.6875 45.53125 5.578125 
Q 42.71875 2.484375 38.5625 0.75 
Q 34.421875 -0.984375 29 -0.984375 
Q 23 -0.984375 18.5 1.3125 
Q 14.015625 3.609375 11.03125 7.921875 
Q 8.0625 12.25 6.5625 18.53125 
Q 5.078125 24.8125 5.078125 32.8125 
Q 5.078125 42 6.765625 48.921875 
Q 8.453125 55.859375 11.625 60.5 
Q 14.796875 65.140625 19.359375 67.484375 
Q 23.921875 69.828125 29.6875 69.828125 
Q 33.203125 69.828125 36.28125 69.09375 
Q 39.359375 68.359375 41.875 66.71875 
Q 44.390625 65.09375 46.28125 62.40625 
Q 48.1875 59.71875 49.3125 55.8125 
L 40.921875 54.296875 
Q 39.546875 58.734375 36.546875 60.71875 
Q 33.546875 62.703125 29.59375 62.703125 
Q 25.984375 62.703125 23.046875 60.984375 
Q 20.125 59.28125 18.0625 55.875 
Q 16.015625 52.484375 14.90625 47.359375 
Q 13.8125 42.234375 13.8125 35.40625 
Q 16.21875 39.84375 20.5625 42.15625 
Q 24.90625 44.484375 30.515625 44.484375 
Q 35.203125 44.484375 39.015625 42.96875 
Q 42.828125 41.453125 45.53125 38.59375 
Q 48.25 35.75 49.734375 31.671875 
Q 51.21875 27.59375 51.21875 22.515625 
z
M 42.28125 22.125 
Q 42.28125 25.6875 41.40625 28.5625 
Q 40.53125 31.453125 38.765625 33.46875 
Q 37.015625 35.5 34.421875 36.59375 
Q 31.84375 37.703125 28.421875 37.703125 
Q 26.03125 37.703125 23.578125 36.984375 
Q 21.140625 36.28125 19.15625 34.6875 
Q 17.1875 33.109375 15.9375 30.515625 
Q 14.703125 27.9375 14.703125 24.21875 
Q 14.703125 20.40625 15.671875 17.109375 
Q 16.65625 13.8125 18.484375 11.375 
Q 20.3125 8.9375 22.890625 7.515625 
Q 25.484375 6.109375 28.71875 6.109375 
Q 31.890625 6.109375 34.40625 7.203125 
Q 36.921875 8.296875 38.671875 10.375 
Q 40.4375 12.453125 41.359375 15.421875 
Q 42.28125 18.40625 42.28125 22.125 
z
" id="LiberationSans-54"/>
       </defs>
       <use xlink:href="#LiberationSans-54"/>
       <use x="55.615234" xlink:href="#LiberationSans-48"/>
       <use x="111.230469" xlink:href="#LiberationSans-48"/>
       <use x="166.845703" xlink:href="#LiberationSans-48"/>
      </g>
     </g>
    </g>
    <g id="xtick_5">
     <g id="line2d_5">
      <g>
       <use style="fill:#ffffff;stroke:#ffffff;stroke-width:0.8;" x="333.561558" xlink:href="#m2a304d5c45" y="307.584"/>
      </g>
     </g>
     <g id="text_5">
      <!-- 8000 -->
      <g style="fill:#ffffff;" transform="translate(322.439683 321.830875)scale(0.1 -0.1)">
       <defs>
        <path d="M 51.265625 19.1875 
Q 51.265625 14.796875 49.875 11.109375 
Q 48.484375 7.421875 45.625 4.734375 
Q 42.78125 2.046875 38.328125 0.53125 
Q 33.890625 -0.984375 27.828125 -0.984375 
Q 21.78125 -0.984375 17.359375 0.53125 
Q 12.9375 2.046875 10.03125 4.703125 
Q 7.125 7.375 5.734375 11.0625 
Q 4.34375 14.75 4.34375 19.09375 
Q 4.34375 22.859375 5.484375 25.78125 
Q 6.640625 28.71875 8.5625 30.828125 
Q 10.5 32.953125 12.96875 34.25 
Q 15.4375 35.546875 18.0625 35.984375 
L 18.0625 36.1875 
Q 15.1875 36.859375 12.90625 38.375 
Q 10.640625 39.890625 9.09375 42.015625 
Q 7.5625 44.140625 6.75 46.71875 
Q 5.953125 49.3125 5.953125 52.203125 
Q 5.953125 55.8125 7.34375 59 
Q 8.734375 62.203125 11.46875 64.625 
Q 14.203125 67.046875 18.25 68.4375 
Q 22.3125 69.828125 27.640625 69.828125 
Q 33.25 69.828125 37.375 68.40625 
Q 41.5 67 44.203125 64.578125 
Q 46.921875 62.15625 48.234375 58.9375 
Q 49.5625 55.71875 49.5625 52.09375 
Q 49.5625 49.265625 48.75 46.671875 
Q 47.953125 44.09375 46.40625 41.96875 
Q 44.875 39.84375 42.59375 38.34375 
Q 40.328125 36.859375 37.359375 36.28125 
L 37.359375 36.078125 
Q 40.328125 35.59375 42.859375 34.296875 
Q 45.40625 33.015625 47.265625 30.890625 
Q 49.125 28.765625 50.1875 25.828125 
Q 51.265625 22.90625 51.265625 19.1875 
z
M 40.4375 51.609375 
Q 40.4375 54.203125 39.765625 56.34375 
Q 39.109375 58.5 37.59375 60.03125 
Q 36.078125 61.578125 33.640625 62.421875 
Q 31.203125 63.28125 27.640625 63.28125 
Q 24.171875 63.28125 21.78125 62.421875 
Q 19.390625 61.578125 17.84375 60.03125 
Q 16.3125 58.5 15.625 56.34375 
Q 14.9375 54.203125 14.9375 51.609375 
Q 14.9375 49.5625 15.46875 47.40625 
Q 16.015625 45.265625 17.421875 43.5 
Q 18.84375 41.75 21.328125 40.625 
Q 23.828125 39.5 27.734375 39.5 
Q 31.890625 39.5 34.40625 40.625 
Q 36.921875 41.75 38.25 43.5 
Q 39.59375 45.265625 40.015625 47.40625 
Q 40.4375 49.5625 40.4375 51.609375 
z
M 42.140625 20.015625 
Q 42.140625 22.515625 41.453125 24.828125 
Q 40.765625 27.15625 39.109375 28.9375 
Q 37.453125 30.71875 34.640625 31.8125 
Q 31.84375 32.90625 27.640625 32.90625 
Q 23.78125 32.90625 21.0625 31.8125 
Q 18.359375 30.71875 16.671875 28.90625 
Q 14.984375 27.09375 14.203125 24.71875 
Q 13.421875 22.359375 13.421875 19.828125 
Q 13.421875 16.65625 14.203125 14.03125 
Q 14.984375 11.421875 16.6875 9.546875 
Q 18.40625 7.671875 21.1875 6.640625 
Q 23.96875 5.609375 27.9375 5.609375 
Q 31.9375 5.609375 34.671875 6.640625 
Q 37.40625 7.671875 39.0625 9.546875 
Q 40.71875 11.421875 41.421875 14.078125 
Q 42.140625 16.75 42.140625 20.015625 
z
" id="LiberationSans-56"/>
       </defs>
       <use xlink:href="#LiberationSans-56"/>
       <use x="55.615234" xlink:href="#LiberationSans-48"/>
       <use x="111.230469" xlink:href="#LiberationSans-48"/>
       <use x="166.845703" xlink:href="#LiberationSans-48"/>
      </g>
     </g>
    </g>
    <g id="xtick_6">
     <g id="line2d_6">
      <g>
       <use style="fill:#ffffff;stroke:#ffffff;stroke-width:0.8;" x="398.493766" xlink:href="#m2a304d5c45" y="307.584"/>
      </g>
     </g>
     <g id="text_6">
      <!-- 10000 -->
      <g style="fill:#ffffff;" transform="translate(384.591422 321.830875)scale(0.1 -0.1)">
       <defs>
        <path d="M 7.625 0 
L 7.625 7.46875 
L 25.140625 7.46875 
L 25.140625 60.40625 
L 9.625 49.3125 
L 9.625 57.625 
L 25.875 68.796875 
L 33.984375 68.796875 
L 33.984375 7.46875 
L 50.734375 7.46875 
L 50.734375 0 
z
" id="LiberationSans-49"/>
       </defs>
       <use xlink:href="#LiberationSans-49"/>
       <use x="55.615234" xlink:href="#LiberationSans-48"/>
       <use x="111.230469" xlink:href="#LiberationSans-48"/>
       <use x="166.845703" xlink:href="#LiberationSans-48"/>
       <use x="222.460938" xlink:href="#LiberationSans-48"/>
      </g>
     </g>
    </g>
    <g id="text_7">
     <!-- $t$ (ms) -->
     <g style="fill:#ffffff;" transform="translate(222.81 335.205875)scale(0.1 -0.1)">
      <defs>
       <path d="M 42.28125 54.6875 
L 40.921875 47.703125 
L 23 47.703125 
L 17.1875 18.015625 
Q 16.890625 16.359375 16.75 15.234375 
Q 16.609375 14.109375 16.609375 13.484375 
Q 16.609375 10.359375 18.484375 8.9375 
Q 20.359375 7.515625 24.515625 7.515625 
L 33.59375 7.515625 
L 32.078125 0 
L 23.484375 0 
Q 15.484375 0 11.546875 3.125 
Q 7.625 6.25 7.625 12.59375 
Q 7.625 13.71875 7.765625 15.0625 
Q 7.90625 16.40625 8.203125 18.015625 
L 14.015625 47.703125 
L 6.390625 47.703125 
L 7.8125 54.6875 
L 15.28125 54.6875 
L 18.3125 70.21875 
L 27.296875 70.21875 
L 24.3125 54.6875 
z
" id="DejaVuSans-Oblique-116"/>
       <path id="LiberationSans-32"/>
       <path d="M 6.203125 25.984375 
Q 6.203125 32.765625 7.21875 38.96875 
Q 8.25 45.171875 10.4375 50.875 
Q 12.640625 56.59375 16.0625 61.953125 
Q 19.484375 67.328125 24.21875 72.46875 
L 32.71875 72.46875 
Q 28.125 67.328125 24.78125 61.9375 
Q 21.4375 56.546875 19.28125 50.796875 
Q 17.140625 45.0625 16.09375 38.859375 
Q 15.046875 32.671875 15.046875 25.875 
Q 15.046875 19.09375 16.09375 12.890625 
Q 17.140625 6.6875 19.28125 0.921875 
Q 21.4375 -4.828125 24.78125 -10.203125 
Q 28.125 -15.578125 32.71875 -20.703125 
L 24.21875 -20.703125 
Q 19.484375 -15.578125 16.0625 -10.203125 
Q 12.640625 -4.828125 10.4375 0.875 
Q 8.25 6.59375 7.21875 12.765625 
Q 6.203125 18.953125 6.203125 25.78125 
z
" id="LiberationSans-40"/>
       <path d="M 37.5 0 
L 37.5 33.5 
Q 37.5 37.359375 37.015625 39.9375 
Q 36.53125 42.53125 35.375 44.109375 
Q 34.234375 45.703125 32.375 46.359375 
Q 30.515625 47.015625 27.828125 47.015625 
Q 25.046875 47.015625 22.796875 45.921875 
Q 20.5625 44.828125 18.96875 42.75 
Q 17.390625 40.671875 16.53125 37.625 
Q 15.671875 34.578125 15.671875 30.609375 
L 15.671875 0 
L 6.9375 0 
L 6.9375 41.546875 
Q 6.9375 43.21875 6.90625 45.046875 
Q 6.890625 46.875 6.828125 48.5 
Q 6.78125 50.140625 6.734375 51.3125 
Q 6.6875 52.484375 6.640625 52.828125 
L 14.9375 52.828125 
Q 14.984375 52.59375 15.03125 51.515625 
Q 15.09375 50.4375 15.15625 49.046875 
Q 15.234375 47.65625 15.28125 46.21875 
Q 15.328125 44.78125 15.328125 43.796875 
L 15.484375 43.796875 
Q 16.65625 46.09375 18.015625 47.953125 
Q 19.390625 49.8125 21.21875 51.09375 
Q 23.046875 52.390625 25.40625 53.09375 
Q 27.78125 53.8125 30.90625 53.8125 
Q 36.921875 53.8125 40.40625 51.421875 
Q 43.890625 49.03125 45.265625 43.796875 
L 45.40625 43.796875 
Q 46.578125 46.09375 48.046875 47.953125 
Q 49.515625 49.8125 51.46875 51.09375 
Q 53.421875 52.390625 55.859375 53.09375 
Q 58.296875 53.8125 61.421875 53.8125 
Q 65.4375 53.8125 68.328125 52.734375 
Q 71.234375 51.65625 73.09375 49.40625 
Q 74.953125 47.171875 75.828125 43.625 
Q 76.703125 40.09375 76.703125 35.203125 
L 76.703125 0 
L 68.015625 0 
L 68.015625 33.5 
Q 68.015625 37.359375 67.53125 39.9375 
Q 67.046875 42.53125 65.890625 44.109375 
Q 64.75 45.703125 62.890625 46.359375 
Q 61.03125 47.015625 58.34375 47.015625 
Q 55.5625 47.015625 53.3125 45.96875 
Q 51.078125 44.921875 49.484375 42.875 
Q 47.90625 40.828125 47.046875 37.75 
Q 46.1875 34.671875 46.1875 30.609375 
L 46.1875 0 
z
" id="LiberationSans-109"/>
       <path d="M 46.390625 14.59375 
Q 46.390625 10.890625 44.9375 7.984375 
Q 43.5 5.078125 40.765625 3.09375 
Q 38.03125 1.125 34.046875 0.0625 
Q 30.078125 -0.984375 24.953125 -0.984375 
Q 20.359375 -0.984375 16.671875 -0.265625 
Q 12.984375 0.4375 10.203125 2 
Q 7.421875 3.5625 5.53125 6.125 
Q 3.65625 8.6875 2.78125 12.40625 
L 10.546875 13.921875 
Q 11.671875 9.671875 15.1875 7.6875 
Q 18.703125 5.71875 24.953125 5.71875 
Q 27.78125 5.71875 30.140625 6.109375 
Q 32.515625 6.5 34.21875 7.453125 
Q 35.9375 8.40625 36.890625 9.984375 
Q 37.84375 11.578125 37.84375 13.921875 
Q 37.84375 16.3125 36.71875 17.84375 
Q 35.59375 19.390625 33.59375 20.40625 
Q 31.59375 21.4375 28.734375 22.1875 
Q 25.875 22.953125 22.46875 23.875 
Q 19.28125 24.703125 16.15625 25.734375 
Q 13.03125 26.765625 10.515625 28.4375 
Q 8.015625 30.125 6.453125 32.609375 
Q 4.890625 35.109375 4.890625 38.875 
Q 4.890625 46.09375 10.03125 49.875 
Q 15.1875 53.65625 25.046875 53.65625 
Q 33.796875 53.65625 38.9375 50.578125 
Q 44.09375 47.515625 45.453125 40.71875 
L 37.546875 39.75 
Q 37.109375 41.796875 35.9375 43.1875 
Q 34.765625 44.578125 33.109375 45.4375 
Q 31.453125 46.296875 29.375 46.65625 
Q 27.296875 47.015625 25.046875 47.015625 
Q 19.09375 47.015625 16.25 45.203125 
Q 13.421875 43.40625 13.421875 39.75 
Q 13.421875 37.59375 14.46875 36.203125 
Q 15.53125 34.8125 17.40625 33.859375 
Q 19.28125 32.90625 21.921875 32.203125 
Q 24.5625 31.5 27.734375 30.71875 
Q 29.828125 30.171875 32.03125 29.5625 
Q 34.234375 28.953125 36.296875 28.09375 
Q 38.375 27.25 40.203125 26.09375 
Q 42.046875 24.953125 43.40625 23.34375 
Q 44.78125 21.734375 45.578125 19.578125 
Q 46.390625 17.4375 46.390625 14.59375 
z
" id="LiberationSans-115"/>
       <path d="M 27.09375 25.78125 
Q 27.09375 18.953125 26.0625 12.765625 
Q 25.046875 6.59375 22.84375 0.875 
Q 20.65625 -4.828125 17.234375 -10.203125 
Q 13.8125 -15.578125 9.078125 -20.703125 
L 0.59375 -20.703125 
Q 5.171875 -15.578125 8.515625 -10.203125 
Q 11.859375 -4.828125 14 0.921875 
Q 16.15625 6.6875 17.203125 12.890625 
Q 18.265625 19.09375 18.265625 25.875 
Q 18.265625 32.671875 17.203125 38.859375 
Q 16.15625 45.0625 14 50.796875 
Q 11.859375 56.546875 8.515625 61.9375 
Q 5.171875 67.328125 0.59375 72.46875 
L 9.078125 72.46875 
Q 13.8125 67.328125 17.234375 61.953125 
Q 20.65625 56.59375 22.84375 50.875 
Q 25.046875 45.171875 26.0625 38.96875 
Q 27.09375 32.765625 27.09375 25.984375 
z
" id="LiberationSans-41"/>
      </defs>
      <use transform="translate(0 0.53125)" xlink:href="#DejaVuSans-Oblique-116"/>
      <use transform="translate(39.208984 0.53125)" xlink:href="#LiberationSans-32"/>
      <use transform="translate(66.992188 0.53125)" xlink:href="#LiberationSans-40"/>
      <use transform="translate(100.292969 0.53125)" xlink:href="#LiberationSans-109"/>
      <use transform="translate(183.59375 0.53125)" xlink:href="#LiberationSans-115"/>
      <use transform="translate(233.59375 0.53125)" xlink:href="#LiberationSans-41"/>
     </g>
    </g>
   </g>
   <g id="matplotlib.axis_2">
    <g id="ytick_1">
     <g id="line2d_7">
      <defs>
       <path d="M 0 0 
L -3.5 0 
" id="maeb8abcd14" style="stroke:#ffffff;stroke-width:0.8;"/>
      </defs>
      <g>
       <use style="fill:#ffffff;stroke:#ffffff;stroke-width:0.8;" x="57.6" xlink:href="#maeb8abcd14" y="299.644533"/>
      </g>
     </g>
     <g id="text_8">
      <!-- 0.0 -->
      <g style="fill:#ffffff;" transform="translate(36.7 303.26797)scale(0.1 -0.1)">
       <defs>
        <path d="M 9.125 0 
L 9.125 10.6875 
L 18.65625 10.6875 
L 18.65625 0 
z
" id="LiberationSans-46"/>
       </defs>
       <use xlink:href="#LiberationSans-48"/>
       <use x="55.615234" xlink:href="#LiberationSans-46"/>
       <use x="83.398438" xlink:href="#LiberationSans-48"/>
      </g>
     </g>
    </g>
    <g id="ytick_2">
     <g id="line2d_8">
      <g>
       <use style="fill:#ffffff;stroke:#ffffff;stroke-width:0.8;" x="57.6" xlink:href="#maeb8abcd14" y="245.239654"/>
      </g>
     </g>
     <g id="text_9">
      <!-- 0.2 -->
      <g style="fill:#ffffff;" transform="translate(36.7 248.863091)scale(0.1 -0.1)">
       <use xlink:href="#LiberationSans-48"/>
       <use x="55.615234" xlink:href="#LiberationSans-46"/>
       <use x="83.398438" xlink:href="#LiberationSans-50"/>
      </g>
     </g>
    </g>
    <g id="ytick_3">
     <g id="line2d_9">
      <g>
       <use style="fill:#ffffff;stroke:#ffffff;stroke-width:0.8;" x="57.6" xlink:href="#maeb8abcd14" y="190.834774"/>
      </g>
     </g>
     <g id="text_10">
      <!-- 0.4 -->
      <g style="fill:#ffffff;" transform="translate(36.7 194.458212)scale(0.1 -0.1)">
       <use xlink:href="#LiberationSans-48"/>
       <use x="55.615234" xlink:href="#LiberationSans-46"/>
       <use x="83.398438" xlink:href="#LiberationSans-52"/>
      </g>
     </g>
    </g>
    <g id="ytick_4">
     <g id="line2d_10">
      <g>
       <use style="fill:#ffffff;stroke:#ffffff;stroke-width:0.8;" x="57.6" xlink:href="#maeb8abcd14" y="136.429895"/>
      </g>
     </g>
     <g id="text_11">
      <!-- 0.6 -->
      <g style="fill:#ffffff;" transform="translate(36.7 140.053333)scale(0.1 -0.1)">
       <use xlink:href="#LiberationSans-48"/>
       <use x="55.615234" xlink:href="#LiberationSans-46"/>
       <use x="83.398438" xlink:href="#LiberationSans-54"/>
      </g>
     </g>
    </g>
    <g id="ytick_5">
     <g id="line2d_11">
      <g>
       <use style="fill:#ffffff;stroke:#ffffff;stroke-width:0.8;" x="57.6" xlink:href="#maeb8abcd14" y="82.025016"/>
      </g>
     </g>
     <g id="text_12">
      <!-- 0.8 -->
      <g style="fill:#ffffff;" transform="translate(36.7 85.648454)scale(0.1 -0.1)">
       <use xlink:href="#LiberationSans-48"/>
       <use x="55.615234" xlink:href="#LiberationSans-46"/>
       <use x="83.398438" xlink:href="#LiberationSans-56"/>
      </g>
     </g>
    </g>
    <g id="text_13">
     <!-- $T_j$ -->
     <g style="fill:#ffffff;" transform="translate(29.6 178.728)rotate(-90)scale(0.1 -0.1)">
      <defs>
       <path d="M 5.90625 72.90625 
L 67.578125 72.90625 
L 66.015625 64.59375 
L 39.984375 64.59375 
L 27.484375 0 
L 17.578125 0 
L 30.078125 64.59375 
L 4.296875 64.59375 
z
" id="DejaVuSans-Oblique-84"/>
       <path d="M 14.5 54.6875 
L 23.484375 54.6875 
L 12.703125 -0.984375 
L 12.640625 -1.21875 
Q 10.84375 -10.546875 8.5 -14.015625 
Q 6.296875 -17.28125 2.0625 -19.03125 
Q -2.15625 -20.796875 -7.90625 -20.796875 
L -11.28125 -20.796875 
L -9.8125 -13.1875 
L -7.515625 -13.1875 
Q -2.25 -13.1875 -0.015625 -10.984375 
Q 2.203125 -8.796875 3.71875 -0.984375 
z
M 18.703125 75.984375 
L 27.6875 75.984375 
L 25.484375 64.59375 
L 16.5 64.59375 
z
" id="DejaVuSans-Oblique-106"/>
      </defs>
      <use transform="translate(0 0.09375)" xlink:href="#DejaVuSans-Oblique-84"/>
      <use transform="translate(61.083984 -16.3125)scale(0.7)" xlink:href="#DejaVuSans-Oblique-106"/>
     </g>
    </g>
   </g>
   <g id="line2d_12">
    <path clip-path="url(#pb6d9103f83)" d="M 73.832727 295.301935 
L 73.956098 295.488 
L 73.962592 293.865647 
L 74.072976 294.032125 
L 74.235307 294.276947 
L 74.2418 292.654594 
L 74.352185 292.821073 
L 74.436597 292.94838 
L 74.44309 291.326027 
L 74.553475 291.492506 
L 74.728792 291.756913 
L 74.735285 290.13456 
L 74.84567 290.301039 
L 74.904109 290.389175 
L 74.910602 288.766821 
L 75.020987 288.9333 
L 75.176824 289.168329 
L 75.183317 287.545976 
L 75.293702 287.712455 
L 75.371621 287.829969 
L 75.378114 286.207616 
L 75.488499 286.374095 
L 75.579404 286.511195 
L 75.696282 283.423174 
L 75.702775 283.432967 
L 75.852119 283.658203 
L 75.962504 278.928243 
L 75.981983 278.957622 
L 76.033929 279.035965 
L 76.183273 267.836176 
L 76.189766 267.845969 
L 76.202753 267.865555 
L 76.35859 256.675559 
L 76.371577 256.695145 
L 76.5404 242.260442 
L 76.546894 242.270235 
L 76.689744 232.6928 
L 76.696238 232.702593 
L 76.709224 232.722179 
L 76.871555 219.90983 
L 76.878048 219.919623 
L 76.994926 211.935163 
L 77.020899 211.974334 
L 77.215695 212.268121 
L 77.34556 201.038954 
L 77.371533 201.078125 
L 77.391012 201.107504 
L 77.397505 199.48515 
L 77.50789 199.651629 
L 77.572822 199.749558 
L 77.696194 195.039183 
L 77.702687 195.048976 
L 77.761126 195.137112 
L 77.813072 191.951163 
L 77.884497 192.058884 
L 78.0728 192.342878 
L 78.176692 187.603125 
L 78.202665 187.642296 
L 78.49486 188.082976 
L 78.566285 184.926405 
L 78.618231 185.004748 
L 78.800041 185.278948 
L 78.845494 182.083206 
L 78.923412 182.20072 
L 79.092236 182.455335 
L 79.098729 180.832981 
L 79.209114 180.99946 
L 79.215607 181.009253 
L 79.222101 179.3869 
L 79.332485 179.553379 
L 79.397417 179.651307 
L 79.403911 178.028954 
L 79.514295 178.195433 
L 79.598707 178.32274 
L 79.605201 176.700387 
L 79.715585 176.866866 
L 79.884409 177.121481 
L 79.988301 174.013874 
L 80.00778 174.043253 
L 80.215563 174.356625 
L 80.222057 172.734271 
L 80.332441 172.90075 
L 80.42984 173.047643 
L 80.436333 171.42529 
L 80.546718 171.591769 
L 80.631129 171.719076 
L 80.637623 170.096723 
L 80.748007 170.263202 
L 81.118121 170.821396 
L 81.124614 169.199042 
L 81.234999 169.365521 
L 81.254479 169.3949 
L 81.325904 166.238329 
L 81.37785 166.316672 
L 81.475248 166.463565 
L 81.55966 163.326579 
L 81.598619 163.385337 
L 81.611606 163.404922 
L 81.689524 160.258144 
L 81.734977 160.326694 
L 82.462218 161.423497 
L 82.494684 158.208168 
L 82.585589 158.345269 
L 83.215431 159.295178 
L 83.221925 157.672824 
L 83.332309 157.839303 
L 83.618011 158.27019 
L 83.624504 156.647836 
L 83.734889 156.814315 
L 83.85826 157.00038 
L 83.864753 155.378027 
L 83.975138 155.544506 
L 84.24136 155.946014 
L 84.351745 152.8482 
L 84.364731 152.867785 
L 84.501089 153.073436 
L 84.62446 149.995208 
L 85.065999 150.661124 
L 85.176384 147.56331 
L 85.18937 147.582895 
L 85.838692 148.562183 
L 85.845186 146.93983 
L 85.95557 147.106309 
L 85.968557 147.125895 
L 85.97505 145.503541 
L 86.085435 145.67002 
L 86.143874 145.758156 
L 86.150367 144.135802 
L 86.260752 144.302281 
L 86.786703 145.095504 
L 86.793196 143.473151 
L 86.903581 143.63963 
L 87.052925 143.864866 
L 87.059418 142.242513 
L 87.169803 142.408991 
L 87.364599 142.702778 
L 87.449011 139.565793 
L 87.487971 139.62455 
L 87.92951 140.290465 
L 87.936003 138.668112 
L 88.046388 138.834591 
L 88.364555 139.314442 
L 88.371049 137.692088 
L 88.481433 137.858567 
L 88.546366 137.956496 
L 88.552859 136.334143 
L 88.663244 136.500622 
L 88.903493 136.862958 
L 88.909986 135.240605 
L 89.020371 135.407084 
L 89.150235 135.602941 
L 89.156728 133.980588 
L 89.267113 134.147067 
L 89.935915 135.155733 
L 89.942408 133.533379 
L 90.052793 133.699858 
L 90.721595 134.708525 
L 90.728088 133.086171 
L 90.838472 133.25265 
L 92.461778 135.70087 
L 92.468271 134.078516 
L 92.578656 134.244995 
L 93.29291 135.322212 
L 93.299403 133.699858 
L 93.409788 133.866337 
L 93.513679 134.023023 
L 93.520173 132.40067 
L 93.630557 132.567149 
L 94.000671 133.125343 
L 94.007164 131.502989 
L 94.117549 131.669468 
L 94.364291 132.041598 
L 94.370785 130.419244 
L 94.481169 130.585723 
L 94.688952 130.899095 
L 94.695446 129.276742 
L 94.80583 129.443221 
L 94.929202 129.629285 
L 94.935695 128.006932 
L 95.04608 128.173411 
L 95.357754 128.643469 
L 95.364247 127.021115 
L 95.474632 127.187594 
L 96.013569 128.000403 
L 96.020063 126.37805 
L 96.130447 126.544529 
L 96.253819 126.730593 
L 96.260312 125.10824 
L 96.370697 125.274719 
L 96.870675 126.02877 
L 96.877168 124.406417 
L 96.987553 124.572896 
L 97.292734 125.033161 
L 97.299227 123.410808 
L 97.409612 123.577287 
L 98.000495 124.468439 
L 98.052441 121.282489 
L 98.123866 121.39021 
L 98.429048 121.850476 
L 98.435541 120.228122 
L 98.545926 120.394601 
L 99.097849 121.226996 
L 99.104343 119.604642 
L 99.214727 119.771121 
L 99.630293 120.397865 
L 99.636787 118.775512 
L 99.747171 118.941991 
L 99.890022 119.157434 
L 99.896515 117.535081 
L 100.0069 117.70156 
L 101.149707 119.425106 
L 101.1562 117.802753 
L 101.266585 117.969232 
L 102.16265 119.320649 
L 102.169143 117.698295 
L 102.279527 117.864774 
L 103.156112 119.186813 
L 103.162606 117.564459 
L 103.27299 117.730938 
L 103.337922 117.828867 
L 103.344416 116.206514 
L 103.4548 116.372993 
L 103.545706 116.510093 
L 103.552199 114.887739 
L 103.662584 115.054218 
L 104.337878 116.072678 
L 104.344372 114.450324 
L 104.454756 114.616803 
L 104.967721 115.39044 
L 104.974214 113.768087 
L 105.084599 113.934566 
L 105.61055 114.727789 
L 105.617043 113.105435 
L 105.727428 113.271914 
L 106.091048 113.820316 
L 106.097541 112.197962 
L 106.207926 112.364441 
L 107.091004 113.696272 
L 107.097497 112.073919 
L 107.207882 112.240398 
L 109.201301 115.246812 
L 109.207794 113.624458 
L 109.318179 113.790937 
L 109.571414 114.172859 
L 109.577908 112.550506 
L 109.688292 112.716985 
L 111.396009 115.292512 
L 111.402503 113.670158 
L 111.512887 113.836637 
L 113.233591 116.43175 
L 113.240084 114.809396 
L 113.350469 114.975875 
L 115.343888 117.982289 
L 115.350381 116.359935 
L 115.460766 116.526414 
L 116.395789 117.936589 
L 116.402283 116.314235 
L 116.512667 116.480714 
L 119.551495 121.063781 
L 119.557988 119.441428 
L 119.668373 119.607907 
L 119.752785 119.735214 
L 119.759278 118.112861 
L 119.869663 118.279339 
L 120.194324 118.768983 
L 120.200817 117.14663 
L 120.311202 117.313109 
L 120.583917 117.72441 
L 120.59041 116.102056 
L 120.700795 116.268535 
L 120.830659 116.464393 
L 120.837152 114.842039 
L 120.947537 115.008518 
L 121.239732 115.449198 
L 121.246225 113.826844 
L 121.35661 113.993323 
L 122.174756 115.227226 
L 122.181249 113.604872 
L 122.291634 113.771351 
L 129.193928 124.181181 
L 129.200421 122.558827 
L 129.310806 122.725306 
L 129.447163 122.930957 
L 129.453656 121.308603 
L 129.564041 121.475082 
L 129.830263 121.87659 
L 129.836756 120.254237 
L 129.947141 120.420716 
L 130.304268 120.959324 
L 130.310762 119.33697 
L 130.421146 119.503449 
L 130.934111 120.277087 
L 130.940604 118.654733 
L 131.050989 118.821212 
L 131.291238 119.183549 
L 131.297731 117.561195 
L 131.408116 117.727674 
L 131.92108 118.501311 
L 131.927574 116.878958 
L 132.037958 117.045437 
L 135.693642 122.558827 
L 135.700135 120.936474 
L 135.81052 121.102953 
L 135.881945 121.210674 
L 135.99233 118.112861 
L 136.005316 118.132446 
L 136.583213 119.004012 
L 136.589706 117.381659 
L 136.700091 117.548138 
L 136.881901 117.822338 
L 136.888394 116.199985 
L 136.998779 116.366464 
L 137.674074 117.384923 
L 137.680567 115.76257 
L 137.790952 115.929049 
L 138.420794 116.878958 
L 138.427288 115.256604 
L 138.537672 115.423083 
L 144.206254 123.972266 
L 144.212747 122.349913 
L 144.323132 122.516391 
L 145.439966 124.200767 
L 145.446459 122.578413 
L 145.556844 122.744892 
L 145.621776 122.842821 
L 145.738654 119.7548 
L 145.745147 119.764593 
L 146.491868 120.890774 
L 146.498361 119.26842 
L 146.608746 119.434899 
L 147.037298 120.081229 
L 147.043791 118.458876 
L 147.154176 118.625355 
L 147.407412 119.007277 
L 147.413905 117.384923 
L 147.52429 117.551402 
L 148.134653 118.471933 
L 148.141146 116.849579 
L 148.251531 117.016058 
L 148.978771 118.112861 
L 148.985265 116.490507 
L 149.095649 116.656986 
L 149.244993 116.882222 
L 149.251487 115.259869 
L 149.361871 115.426348 
L 149.796917 116.08247 
L 149.80341 114.460117 
L 149.913795 114.626596 
L 150.582597 115.635262 
L 150.58909 114.012909 
L 150.699475 114.179388 
L 150.855312 114.414417 
L 150.861805 112.792063 
L 150.97219 112.958542 
L 151.498141 113.751765 
L 151.504634 112.129412 
L 151.615019 112.295891 
L 158.919892 123.312879 
L 158.926386 121.690525 
L 159.03677 121.857004 
L 167.497437 134.617125 
L 167.50393 132.994771 
L 167.614315 133.16125 
L 174.951654 144.227203 
L 174.958148 142.604849 
L 175.068532 142.771328 
L 175.659415 143.66248 
L 175.665909 142.040126 
L 175.776293 142.206605 
L 176.548987 143.371958 
L 176.55548 141.749604 
L 176.665865 141.916083 
L 178.250211 144.305546 
L 178.256704 142.683192 
L 178.367089 142.849671 
L 181.048789 146.89413 
L 181.055282 145.271776 
L 181.165667 145.438255 
L 183.555172 149.042034 
L 183.561665 147.419681 
L 183.67205 147.58616 
L 185.327821 150.083344 
L 185.334314 148.46099 
L 185.444699 148.627469 
L 186.308298 149.929922 
L 186.314791 148.307568 
L 186.425175 148.474047 
L 187.106964 149.5023 
L 187.113457 147.879946 
L 187.223842 148.046425 
L 188.217304 149.544735 
L 188.223798 147.922382 
L 188.334182 148.088861 
L 189.334138 149.596964 
L 189.340632 147.974611 
L 189.451016 148.14109 
L 190.080859 149.090999 
L 190.087352 147.468645 
L 190.197737 147.635124 
L 194.113149 153.54023 
L 194.119642 151.917876 
L 194.230027 152.084355 
L 194.379371 152.309591 
L 194.385864 150.687238 
L 194.496249 150.853717 
L 195.98969 153.106079 
L 195.996183 151.483725 
L 196.106568 151.650204 
L 196.866274 152.795971 
L 196.872768 151.173618 
L 196.983152 151.340096 
L 199.892115 155.727306 
L 199.970034 152.580528 
L 200.015487 152.649078 
L 200.502478 153.383544 
L 200.508971 151.76119 
L 200.619356 151.927669 
L 200.775193 152.162698 
L 200.781687 150.540345 
L 200.892071 150.706824 
L 200.96999 150.824338 
L 200.976483 149.201985 
L 201.086868 149.368464 
L 201.37257 149.79935 
L 201.379063 148.176997 
L 201.489448 148.343476 
L 201.619312 148.539333 
L 201.625805 146.91698 
L 201.73619 147.083459 
L 202.216688 147.808132 
L 202.223182 146.185778 
L 202.333566 146.352257 
L 202.70368 146.910451 
L 202.762119 143.734294 
L 202.827051 143.832223 
L 203.353002 144.625446 
L 203.359495 143.003093 
L 203.46988 143.169572 
L 203.762075 143.610251 
L 203.768568 141.987898 
L 203.878953 142.154377 
L 204.151668 142.565678 
L 204.158161 140.943324 
L 204.268546 141.109803 
L 204.365944 141.256696 
L 204.372438 139.634343 
L 204.482822 139.800822 
L 204.872416 140.388394 
L 204.878909 138.766041 
L 204.989294 138.93252 
L 205.547711 139.774707 
L 205.554204 138.152354 
L 205.664589 138.318833 
L 205.963277 138.769305 
L 205.96977 137.146952 
L 206.080155 137.313431 
L 206.391829 137.783489 
L 206.398323 136.161135 
L 206.508707 136.327614 
L 206.924273 136.954358 
L 206.930767 135.332005 
L 207.041151 135.498484 
L 207.541129 136.252535 
L 207.547623 134.630182 
L 207.658007 134.796661 
L 207.670994 134.816247 
L 207.677487 133.193893 
L 207.787872 133.360372 
L 207.90475 133.536644 
L 207.911243 131.91429 
L 208.021628 132.080769 
L 208.638484 133.011093 
L 208.644977 131.388739 
L 208.755362 131.555218 
L 208.969638 131.878383 
L 208.976131 130.25603 
L 209.086516 130.422509 
L 209.59948 131.196146 
L 209.709865 128.098332 
L 209.722852 128.117918 
L 210.229323 128.881762 
L 210.235816 127.259409 
L 210.346201 127.425888 
L 210.800726 128.111389 
L 210.807219 126.489036 
L 210.917604 126.655515 
L 211.307197 127.243087 
L 211.313691 125.620734 
L 211.424075 125.787213 
L 212.034438 126.707743 
L 212.040931 125.08539 
L 212.151316 125.251869 
L 212.404552 125.633791 
L 212.411045 124.011438 
L 212.52143 124.177916 
L 213.047381 124.97114 
L 213.053874 123.348786 
L 213.164259 123.515265 
L 214.995347 126.276857 
L 215.00184 124.654503 
L 215.112225 124.820982 
L 215.852452 125.93737 
L 215.858945 124.315017 
L 215.96933 124.481496 
L 216.819942 125.764363 
L 216.826435 124.142009 
L 216.93682 124.308488 
L 217.034218 124.455381 
L 217.040711 122.833028 
L 217.151096 122.999507 
L 217.728993 123.871073 
L 217.735486 122.248719 
L 217.845871 122.415198 
L 218.079627 122.767742 
L 218.08612 121.145389 
L 218.196505 121.311867 
L 218.884786 122.349913 
L 218.891279 120.727559 
L 219.001664 120.894038 
L 219.527615 121.687261 
L 219.534108 120.064908 
L 219.644493 120.231387 
L 219.956168 120.701445 
L 219.962661 119.079091 
L 220.073046 119.24557 
L 220.287322 119.568735 
L 220.293815 117.946382 
L 220.4042 118.112861 
L 220.826259 118.749398 
L 220.832752 117.127044 
L 220.943137 117.293523 
L 221.222346 117.714617 
L 221.228839 116.092263 
L 221.339224 116.258742 
L 222.124903 117.443681 
L 222.131397 115.821327 
L 222.241781 115.987806 
L 222.527483 116.418693 
L 222.533976 114.796339 
L 222.644361 114.962818 
L 222.962529 115.442669 
L 222.969022 113.820316 
L 223.079407 113.986795 
L 223.735222 114.975875 
L 223.741715 113.353522 
L 223.8521 113.520001 
L 224.163775 113.990059 
L 224.170268 112.367705 
L 224.280653 112.534184 
L 224.507915 112.876935 
L 224.514409 111.254581 
L 224.624793 111.42106 
L 225.306581 112.449313 
L 225.313075 110.826959 
L 225.423459 110.993438 
L 225.663709 111.355775 
L 225.670202 109.733421 
L 225.780587 109.8999 
L 226.144207 110.448301 
L 226.1507 108.825948 
L 226.261085 108.992427 
L 229.157061 113.36005 
L 229.163555 111.737697 
L 229.273939 111.904176 
L 229.916768 112.873671 
L 229.923261 111.251317 
L 230.033646 111.417796 
L 230.170004 111.623447 
L 230.176497 110.001093 
L 230.286882 110.167572 
L 230.825819 110.980381 
L 230.832312 109.358027 
L 230.942697 109.524506 
L 231.345277 110.131665 
L 231.35177 108.509311 
L 231.462155 108.67579 
L 231.819282 109.214399 
L 231.825775 107.592045 
L 231.93616 107.758524 
L 232.585482 108.737812 
L 232.591975 107.115458 
L 232.70236 107.281937 
L 234.104896 109.397199 
L 234.111389 107.774845 
L 234.221774 107.941324 
L 235.306141 109.576735 
L 235.312635 107.954382 
L 235.423019 108.12086 
L 236.091821 109.129527 
L 236.098314 107.507173 
L 236.208699 107.673652 
L 239.624133 112.824706 
L 239.630627 111.202353 
L 239.741011 111.368832 
L 239.955288 111.691997 
L 239.961781 110.069643 
L 240.072166 110.236122 
L 240.124111 110.314465 
L 240.130605 108.692112 
L 240.240989 108.858591 
L 240.448772 109.171963 
L 240.455266 107.549609 
L 240.56565 107.716088 
L 241.117574 108.548483 
L 241.124067 106.926129 
L 241.234452 107.092608 
L 241.494181 107.484323 
L 241.500674 105.86197 
L 241.611059 106.028449 
L 242.072078 106.723743 
L 242.078571 105.10139 
L 242.188955 105.267869 
L 245.740747 110.624573 
L 245.74724 109.002219 
L 245.857625 109.168698 
L 246.13034 109.579999 
L 246.136834 107.957646 
L 246.247218 108.124125 
L 246.53292 108.555011 
L 246.539413 106.932658 
L 246.649798 107.099137 
L 247.013419 107.647538 
L 247.019912 106.025184 
L 247.130296 106.191663 
L 247.805591 107.210123 
L 247.812085 105.587769 
L 247.922469 105.754248 
L 248.26661 106.273271 
L 248.273103 104.650917 
L 248.383488 104.817396 
L 248.747108 105.365797 
L 248.753602 103.743444 
L 248.863986 103.909923 
L 252.565122 109.491863 
L 252.571616 107.86951 
L 252.682 108.035989 
L 256.928567 114.440531 
L 256.93506 112.818178 
L 257.045445 112.984657 
L 258.928479 115.824591 
L 258.934972 114.202238 
L 259.045357 114.368717 
L 259.292099 114.740846 
L 259.298592 113.118493 
L 259.408977 113.284972 
L 259.967394 114.127159 
L 259.973887 112.504806 
L 260.084272 112.671285 
L 260.434906 113.2001 
L 260.441399 111.577746 
L 260.551784 111.744225 
L 261.032282 112.468898 
L 261.038775 110.846545 
L 261.14916 111.013024 
L 261.701084 111.845418 
L 261.707577 110.223065 
L 261.817962 110.389544 
L 262.077691 110.781259 
L 262.084184 109.158906 
L 262.194569 109.325384 
L 265.207423 113.86928 
L 265.213916 112.246926 
L 265.324301 112.413405 
L 267.467064 115.645055 
L 267.473557 114.022702 
L 267.583942 114.189181 
L 269.791637 117.518759 
L 269.79813 115.896406 
L 269.908515 116.062885 
L 271.155213 117.943117 
L 271.161707 116.320764 
L 271.272091 116.487243 
L 272.148676 117.809281 
L 272.155169 116.186928 
L 272.265554 116.353407 
L 272.486324 116.686365 
L 272.492817 115.064011 
L 272.603202 115.23049 
L 273.122659 116.01392 
L 273.129152 114.391567 
L 273.239537 114.558046 
L 273.642117 115.165204 
L 273.64861 113.542851 
L 273.758995 113.70933 
L 274.096642 114.218559 
L 274.103136 112.596206 
L 274.21352 112.762685 
L 274.830376 113.693008 
L 274.83687 112.070655 
L 274.947254 112.237134 
L 275.323861 112.805121 
L 275.330354 111.182767 
L 275.440739 111.349246 
L 276.025129 112.230605 
L 276.031622 110.608252 
L 276.142007 110.77473 
L 276.297844 111.00976 
L 276.304337 109.387406 
L 276.414722 109.553885 
L 276.882234 110.258972 
L 276.888727 108.636619 
L 276.999112 108.803098 
L 277.6809 109.83135 
L 277.687393 108.208996 
L 277.797778 108.375475 
L 278.031534 108.728019 
L 278.038027 107.105665 
L 278.148412 107.272144 
L 278.862666 108.349361 
L 278.86916 106.727007 
L 278.979544 106.893486 
L 279.310699 107.392923 
L 279.317192 105.77057 
L 279.427577 105.937049 
L 279.875609 106.612757 
L 279.882102 104.990404 
L 279.992487 105.156883 
L 280.492465 105.910934 
L 280.498958 104.288581 
L 280.609343 104.45506 
L 281.278145 105.463726 
L 281.284638 103.841373 
L 281.395023 104.007852 
L 284.557221 108.776983 
L 284.563714 107.15463 
L 284.674099 107.321109 
L 286.479214 110.043529 
L 286.485708 108.421175 
L 286.596092 108.587654 
L 289.479082 112.935692 
L 289.485576 111.313339 
L 289.59596 111.479818 
L 291.608859 114.51561 
L 291.615352 112.893256 
L 291.725737 113.059735 
L 291.771189 113.128286 
L 291.777683 111.505932 
L 291.888067 111.672411 
L 292.595828 112.739835 
L 292.602322 111.117481 
L 292.712706 111.28396 
L 293.056847 111.802983 
L 293.06334 110.180629 
L 293.173725 110.347108 
L 293.634744 111.042402 
L 293.641237 109.420049 
L 293.751622 109.586528 
L 293.887979 109.792178 
L 293.894473 108.169825 
L 294.004857 108.336304 
L 297.90079 114.212031 
L 297.907283 112.589677 
L 298.017668 112.756156 
L 298.192985 113.020564 
L 298.199478 111.39821 
L 298.309863 111.564689 
L 298.407261 111.711582 
L 298.413754 110.089229 
L 298.524139 110.255708 
L 299.225407 111.313339 
L 299.2319 109.690985 
L 299.342285 109.857464 
L 299.757851 110.484208 
L 299.764344 108.861855 
L 299.874729 109.028334 
L 300.355227 109.753007 
L 300.36172 108.130653 
L 300.472105 108.297132 
L 300.731834 108.688847 
L 300.738327 107.066494 
L 300.848712 107.232973 
L 304.309599 112.452577 
L 304.316092 110.830223 
L 304.426477 110.996702 
L 307.763992 116.030242 
L 307.770485 114.407888 
L 307.88087 114.574367 
L 308.010734 114.770225 
L 308.017228 113.147871 
L 308.127612 113.31435 
L 308.367862 113.676687 
L 308.374355 112.054333 
L 308.48474 112.220812 
L 309.01069 113.014035 
L 309.017184 111.391682 
L 309.127568 111.558161 
L 309.543135 112.184905 
L 309.549628 110.562551 
L 309.660013 110.72903 
L 310.172977 111.502668 
L 310.17947 109.880314 
L 310.289855 110.046793 
L 312.913116 114.003116 
L 312.919609 112.380762 
L 313.029994 112.547241 
L 314.289679 114.44706 
L 314.296172 112.824706 
L 314.406557 112.991185 
L 314.510448 113.147871 
L 314.516942 111.525518 
L 314.627326 111.691997 
L 314.951987 112.181641 
L 314.958481 110.559287 
L 315.068865 110.725766 
L 315.529884 111.42106 
L 315.536377 109.798707 
L 315.646762 109.965186 
L 315.867532 110.298144 
L 315.874025 108.67579 
L 315.98441 108.842269 
L 316.36751 109.420049 
L 316.374003 107.797695 
L 316.484388 107.964174 
L 317.13371 108.943462 
L 317.140203 107.321109 
L 317.250588 107.487588 
L 317.912896 108.486461 
L 317.919389 106.864108 
L 318.029774 107.030587 
L 318.231064 107.334166 
L 318.237557 105.711812 
L 318.347942 105.878291 
L 319.192061 107.151365 
L 319.198554 105.529012 
L 319.308939 105.695491 
L 319.893328 106.57685 
L 319.899822 104.954496 
L 320.010206 105.120975 
L 320.36084 105.649791 
L 320.367334 104.027437 
L 320.477718 104.193916 
L 321.198466 105.280926 
L 321.204959 103.658572 
L 321.315344 103.825051 
L 321.633512 104.304902 
L 321.640005 102.682549 
L 321.75039 102.849028 
L 322.217902 103.554115 
L 322.224395 101.931761 
L 322.334779 102.09824 
L 322.471137 102.303891 
L 322.47763 100.681537 
L 322.588015 100.848016 
L 322.906183 101.327867 
L 322.912676 99.705514 
L 323.023061 99.871993 
L 323.66589 100.841488 
L 323.672383 99.219134 
L 323.782768 99.385613 
L 324.945054 101.138538 
L 324.951547 99.516185 
L 325.061932 99.682664 
L 325.451525 100.270236 
L 325.458019 98.647883 
L 325.568403 98.814362 
L 327.31508 101.448646 
L 327.321573 99.826293 
L 327.431958 99.992771 
L 327.87999 100.66848 
L 327.886483 99.046127 
L 327.996868 99.212606 
L 328.509832 99.986243 
L 328.516326 98.363889 
L 328.62671 98.530368 
L 328.886439 98.922083 
L 328.892932 97.29973 
L 329.003317 97.466209 
L 330.035739 99.023277 
L 330.042233 97.400923 
L 330.152617 97.567402 
L 332.847304 101.631446 
L 332.853797 100.009093 
L 332.964182 100.175572 
L 333.762848 101.380096 
L 333.769341 99.757742 
L 333.879726 99.924221 
L 333.977124 100.071115 
L 333.983618 98.448761 
L 334.094002 98.61524 
L 334.522555 99.26157 
L 334.529048 97.639216 
L 334.639433 97.805695 
L 334.990067 98.334511 
L 334.99656 96.712157 
L 335.106945 96.878636 
L 335.593936 97.613102 
L 335.60043 95.990749 
L 335.710814 96.157228 
L 336.295204 97.038587 
L 336.301697 95.416233 
L 336.412082 95.582712 
L 338.145772 98.19741 
L 338.152265 96.575057 
L 338.26265 96.741536 
L 339.535321 98.66094 
L 339.541815 97.038587 
L 339.652199 97.205065 
L 348.138839 110.004357 
L 348.145332 108.382004 
L 348.255717 108.548483 
L 350.924431 112.573356 
L 350.930924 110.951002 
L 351.041309 111.117481 
L 353.028234 114.114102 
L 353.034727 112.491748 
L 353.145112 112.658227 
L 354.235973 114.303431 
L 354.242466 112.681077 
L 354.352851 112.847556 
L 356.054075 115.41329 
L 356.060568 113.790937 
L 356.170953 113.957416 
L 356.580026 114.574367 
L 356.586519 112.952014 
L 356.696904 113.118493 
L 357.008578 113.588551 
L 357.015072 111.966197 
L 357.125456 112.132676 
L 357.651407 112.925899 
L 357.657901 111.303546 
L 357.768285 111.470025 
L 358.411114 112.43952 
L 358.417607 110.817166 
L 358.527992 110.983645 
L 358.683829 111.218674 
L 358.690323 109.596321 
L 358.800707 109.7628 
L 359.177314 110.330787 
L 359.183807 108.708433 
L 359.294192 108.874912 
L 359.982474 109.912957 
L 359.988967 108.290604 
L 360.099352 108.457083 
L 360.534397 109.113205 
L 360.540891 107.490852 
L 360.651275 107.657331 
L 361.294104 108.626826 
L 361.300597 107.004472 
L 361.410982 107.170951 
L 361.872001 107.866246 
L 361.878494 106.243892 
L 361.988879 106.410371 
L 362.268087 106.831465 
L 362.27458 105.209111 
L 362.384965 105.37559 
L 367.722393 113.425336 
L 367.728886 111.802983 
L 367.839271 111.969462 
L 370.410586 115.847441 
L 370.417079 114.225088 
L 370.527464 114.391567 
L 374.488329 120.365223 
L 374.494822 118.742869 
L 374.605207 118.909348 
L 379.150461 125.764363 
L 379.156954 124.142009 
L 379.267339 124.308488 
L 379.494602 124.651239 
L 379.501095 123.028885 
L 379.61148 123.195364 
L 380.17639 124.047345 
L 380.182883 122.424991 
L 380.293268 122.59147 
L 380.747794 123.276972 
L 380.754287 121.654618 
L 380.864672 121.821097 
L 381.436075 122.68287 
L 381.442568 121.060517 
L 381.552953 121.226996 
L 382.137343 122.108355 
L 382.143836 120.486001 
L 382.254221 120.65248 
L 382.793158 121.465289 
L 382.799651 119.842936 
L 382.910036 120.009415 
L 383.26067 120.53823 
L 383.267163 118.915877 
L 383.377548 119.082355 
L 383.858046 119.807028 
L 383.86454 118.184675 
L 383.974924 118.351154 
L 384.42945 119.036655 
L 384.435943 117.414302 
L 384.546328 117.580781 
L 385.091758 118.403383 
L 385.098251 116.781029 
L 385.208636 116.947508 
L 385.500831 117.388188 
L 385.507324 115.765834 
L 385.617709 115.932313 
L 387.507236 118.782041 
L 387.51373 117.159687 
L 387.624114 117.326166 
L 388.935745 119.304327 
L 388.942238 117.681974 
L 389.052623 117.848453 
L 389.137035 117.97576 
L 389.143528 116.353407 
L 389.253913 116.519886 
L 389.533121 116.940979 
L 389.539615 115.318626 
L 389.649999 115.485105 
L 390.033099 116.062885 
L 390.039593 114.440531 
L 390.149977 114.60701 
L 390.636969 115.341476 
L 390.643462 113.719123 
L 390.753847 113.885601 
L 391.292784 114.69841 
L 391.299277 113.076057 
L 391.409662 113.242536 
L 391.675884 113.644044 
L 391.682377 112.02169 
L 391.792762 112.188169 
L 392.195342 112.795328 
L 392.201835 111.172974 
L 392.31222 111.339453 
L 392.922583 112.259984 
L 392.929076 110.63763 
L 393.03946 110.804109 
L 393.351135 111.274167 
L 393.357628 109.651814 
L 393.468013 109.818293 
L 393.786181 110.298144 
L 393.792674 108.67579 
L 393.903059 108.842269 
L 394.403037 109.596321 
L 394.40953 107.973967 
L 394.519915 108.140446 
L 395.000413 108.865119 
L 395.006906 107.242766 
L 395.117291 107.409245 
L 395.902971 108.594183 
L 395.909464 106.971829 
L 396.019849 107.138308 
L 396.221139 107.441888 
L 396.227632 105.819534 
L 396.338017 105.986013 
L 396.617225 106.407107 
L 396.623718 104.784753 
L 396.734103 104.951232 
L 397.344466 105.871763 
L 397.350959 104.249409 
L 397.461344 104.415888 
L 397.967815 105.179733 
L 397.974308 103.557379 
L 398.084693 103.723858 
L 398.415847 104.223295 
L 398.422341 102.600941 
L 398.487273 102.69887 
" style="fill:none;stroke:#9a72ac;stroke-linecap:round;stroke-width:1.5;"/>
   </g>
   <g id="line2d_13">
    <path clip-path="url(#pb6d9103f83)" d="M 73.832727 295.301935 
L 73.871687 295.360693 
L 73.87818 293.738339 
L 73.988565 293.904818 
L 74.64438 294.893899 
L 74.650873 293.271545 
L 74.761258 293.438024 
L 74.878136 293.614296 
L 74.884629 291.991942 
L 74.995014 292.158421 
L 75.144358 292.383658 
L 75.150851 290.761304 
L 75.261236 290.927783 
L 75.566417 291.388048 
L 75.689788 288.30982 
L 75.845626 288.544849 
L 75.923544 285.398071 
L 75.968997 285.466621 
L 76.027436 285.554757 
L 76.17678 275.987115 
L 76.19626 276.016494 
L 76.345604 264.816705 
L 76.352097 264.826498 
L 76.365083 264.846084 
L 76.533907 250.411381 
L 76.5404 250.421174 
L 76.689744 239.221386 
L 76.696238 239.231179 
L 76.702731 239.240972 
L 76.845582 229.663537 
L 76.852075 229.67333 
L 76.858568 229.683122 
L 76.988433 218.453955 
L 77.014405 218.493127 
L 77.209202 218.786913 
L 77.352053 207.577332 
L 77.365039 207.596918 
L 77.384519 207.626296 
L 77.391012 206.003943 
L 77.501397 206.170422 
L 77.579316 206.287936 
L 77.6897 201.557976 
L 77.70918 201.587355 
L 77.767619 201.675491 
L 77.806578 198.469955 
L 77.89099 198.597263 
L 78.066307 198.86167 
L 78.183185 194.141503 
L 78.196172 194.161089 
L 78.4559 194.552804 
L 78.572778 189.832637 
L 78.585765 189.852222 
L 78.826014 190.214559 
L 78.851987 186.989438 
L 78.949385 187.136331 
L 79.085743 187.341981 
L 79.202621 184.25396 
L 79.209114 184.263753 
L 79.403911 184.557539 
L 79.410404 182.935186 
L 79.520789 183.101665 
L 79.592214 183.209387 
L 79.598707 181.587033 
L 79.709092 181.753512 
L 79.735065 181.792684 
L 79.741558 180.17033 
L 79.851943 180.336809 
L 79.871423 180.366188 
L 79.975314 177.258581 
L 79.994794 177.28796 
L 80.157124 177.532781 
L 80.261016 174.425175 
L 80.280496 174.454553 
L 80.436333 174.689582 
L 80.442826 173.067229 
L 80.553211 173.233708 
L 80.605157 173.312051 
L 80.650609 170.116308 
L 80.728528 170.233823 
L 81.124614 170.831188 
L 81.241492 167.743168 
L 81.247985 167.75296 
L 81.286945 167.811718 
L 81.293438 166.189364 
L 81.403823 166.355843 
L 81.442782 166.4146 
L 81.553167 163.316787 
L 81.566153 163.336372 
L 81.585633 163.365751 
L 81.657058 160.20918 
L 81.709004 160.287523 
L 81.786923 160.405037 
L 81.793416 158.782684 
L 81.903801 158.949163 
L 82.436245 159.752179 
L 82.475204 156.546643 
L 82.559616 156.673951 
L 82.611562 156.752294 
L 82.618055 155.12994 
L 82.72844 155.296419 
L 83.208938 156.021092 
L 83.31283 152.913486 
L 83.332309 152.942864 
L 84.26084 154.343246 
L 84.267333 152.720892 
L 84.377718 152.887371 
L 84.488103 153.05385 
L 84.591994 149.946243 
L 84.611474 149.975622 
L 85.124438 150.749259 
L 85.130931 149.126906 
L 85.241316 149.293385 
L 85.877652 150.253087 
L 85.884145 148.630733 
L 85.99453 148.797212 
L 86.026996 148.846177 
L 86.033489 147.223823 
L 86.143874 147.390302 
L 86.799689 148.379383 
L 86.806182 146.757029 
L 86.916567 146.923508 
L 87.078898 147.16833 
L 87.085391 145.545977 
L 87.195776 145.712456 
L 87.403559 146.025828 
L 87.410052 144.403474 
L 87.520437 144.569953 
L 87.942496 145.20649 
L 87.948989 143.584137 
L 88.059374 143.750616 
L 88.481433 144.387153 
L 88.487927 142.764799 
L 88.598311 142.931278 
L 88.935959 143.440508 
L 88.942452 141.818154 
L 89.052837 141.984633 
L 89.156728 142.141319 
L 89.163222 140.518966 
L 89.273606 140.685445 
L 90.18915 142.066241 
L 90.195644 140.443887 
L 90.306028 140.610366 
L 90.325508 140.639745 
L 90.332001 139.017391 
L 90.442386 139.18387 
L 90.643676 139.487449 
L 90.741074 136.37005 
L 90.767047 136.409221 
L 91.130667 136.957623 
L 91.137161 135.335269 
L 91.247545 135.501748 
L 91.870895 136.441864 
L 91.877388 134.819511 
L 91.987773 134.98599 
L 92.429312 135.651905 
L 92.435805 134.029552 
L 92.54619 134.196031 
L 92.650081 134.352717 
L 92.656574 132.730363 
L 92.766959 132.896842 
L 93.163046 133.494208 
L 93.169539 131.871854 
L 93.279923 132.038333 
L 93.994178 133.11555 
L 94.000671 131.493197 
L 94.111056 131.659675 
L 94.578568 132.364763 
L 94.585061 130.742409 
L 94.695446 130.908888 
L 95.033093 131.418118 
L 95.039586 129.795764 
L 95.149971 129.962243 
L 96.227846 131.587861 
L 96.234339 129.965508 
L 96.344724 130.131986 
L 96.877168 130.935002 
L 96.883661 129.312649 
L 96.994046 129.479128 
L 98.026468 131.036196 
L 98.032961 129.413842 
L 98.143346 129.580321 
L 98.234251 129.717421 
L 98.240744 128.095068 
L 98.351129 128.261547 
L 99.727692 130.337637 
L 99.734185 128.715283 
L 99.84457 128.881762 
L 99.857556 128.901348 
L 99.864049 127.278995 
L 99.974434 127.445474 
L 100.065339 127.582574 
L 100.18871 124.504346 
L 100.922444 125.610941 
L 100.928938 123.988587 
L 101.039322 124.155066 
L 101.17568 124.360717 
L 101.182173 122.738363 
L 101.292558 122.904842 
L 101.636699 123.423865 
L 101.643192 121.801511 
L 101.753577 121.96799 
L 102.026292 122.379291 
L 102.032785 120.756938 
L 102.14317 120.923417 
L 102.565229 121.559954 
L 102.571722 119.9376 
L 102.682107 120.104079 
L 102.876904 120.397865 
L 102.883397 118.775512 
L 102.993782 118.941991 
L 106.168967 123.730708 
L 106.17546 122.108355 
L 106.285845 122.274834 
L 106.480641 122.56862 
L 106.487135 120.946267 
L 106.597519 121.112746 
L 106.792316 121.406532 
L 106.798809 119.784178 
L 106.909194 119.950657 
L 107.058538 120.175894 
L 107.065031 118.55354 
L 107.175416 118.720019 
L 107.668901 119.464278 
L 107.675394 117.841924 
L 107.785779 118.008403 
L 108.181865 118.605769 
L 108.188358 116.983415 
L 108.298743 117.149894 
L 108.798721 117.903946 
L 108.805214 116.281592 
L 108.915599 116.448071 
L 109.22078 116.908337 
L 109.227274 115.285983 
L 109.337658 115.452462 
L 109.558428 115.78542 
L 109.564921 114.163066 
L 109.675306 114.329545 
L 109.980487 114.789811 
L 109.986981 113.167457 
L 110.097365 113.333936 
L 110.675262 114.205502 
L 110.681755 112.583149 
L 110.79214 112.749628 
L 111.298611 113.513472 
L 111.389516 110.38628 
L 111.421982 110.435244 
L 112.285581 111.737697 
L 112.292074 110.115343 
L 112.402459 110.281822 
L 112.863477 110.977117 
L 112.869971 109.354763 
L 112.980355 109.521242 
L 113.29203 109.9913 
L 113.298523 108.368947 
L 113.408908 108.535426 
L 113.811488 109.142584 
L 113.817981 107.520231 
L 113.928366 107.68671 
L 114.62314 108.734547 
L 114.629633 107.112194 
L 114.740018 107.278673 
L 115.239996 108.032725 
L 115.246489 106.410371 
L 115.356874 106.57685 
L 115.668549 107.046908 
L 115.675042 105.424555 
L 115.785427 105.591034 
L 116.330857 106.413635 
L 116.33735 104.791282 
L 116.447735 104.957761 
L 116.726944 105.378855 
L 116.733437 103.756501 
L 116.843822 103.92298 
L 117.259388 104.549724 
L 117.265881 102.927371 
L 117.376266 103.09385 
L 118.077534 104.15148 
L 118.084027 102.529127 
L 118.194412 102.695606 
L 118.67491 103.420279 
L 118.681403 101.797925 
L 118.791788 101.964404 
L 120.557944 104.628067 
L 120.564437 103.005714 
L 120.674822 103.172193 
L 122.668241 106.178606 
L 122.674734 104.556253 
L 122.785119 104.722732 
L 122.869531 104.850039 
L 122.876024 103.227686 
L 122.986409 103.394165 
L 123.733129 104.520346 
L 123.739622 102.897992 
L 123.850007 103.064471 
L 124.46037 103.985002 
L 124.466863 102.362648 
L 124.577248 102.529127 
L 125.200597 103.469243 
L 125.20709 101.84689 
L 125.317475 102.013369 
L 125.583697 102.414877 
L 125.59019 100.792523 
L 125.700575 100.959002 
L 126.382363 101.987254 
L 126.388856 100.364901 
L 126.499241 100.53138 
L 126.882341 101.10916 
L 126.888834 99.486806 
L 126.999219 99.653285 
L 127.583609 100.534644 
L 127.590102 98.912291 
L 127.700487 99.07877 
L 127.973202 99.49007 
L 127.979695 97.867717 
L 128.09008 98.034196 
L 128.583565 98.778455 
L 128.590058 97.156101 
L 128.700443 97.32258 
L 131.167867 101.043874 
L 131.17436 99.42152 
L 131.284745 99.587999 
L 132.421058 101.301753 
L 132.427552 99.679399 
L 132.537936 99.845878 
L 132.622348 99.973186 
L 132.628841 98.350832 
L 132.739226 98.517311 
L 132.88857 98.742547 
L 132.895063 97.120194 
L 133.005448 97.286673 
L 133.583345 98.158239 
L 133.589838 96.535885 
L 133.700223 96.702364 
L 134.25864 97.544552 
L 134.265133 95.922198 
L 134.375518 96.088677 
L 134.830043 96.774179 
L 134.836536 95.151825 
L 134.946921 95.318304 
L 136.661131 97.903624 
L 136.667625 96.281271 
L 136.778009 96.44775 
L 138.907786 99.659814 
L 138.914279 98.03746 
L 139.024664 98.203939 
L 139.251927 98.54669 
L 139.25842 96.924336 
L 139.368805 97.090815 
L 139.628533 97.48253 
L 139.635027 95.860177 
L 139.745411 96.026656 
L 140.160977 96.6534 
L 140.167471 95.031047 
L 140.277855 95.197525 
L 141.115481 96.460807 
L 141.121974 94.838453 
L 141.232359 95.004932 
L 141.628445 95.602298 
L 141.634939 93.979944 
L 141.745323 94.146423 
L 142.368673 95.086539 
L 142.375166 93.464186 
L 142.485551 93.630665 
L 142.842678 94.169273 
L 142.849171 92.54692 
L 142.959556 92.713399 
L 143.582905 93.653515 
L 143.589398 92.031161 
L 143.699783 92.19764 
L 144.043923 92.716663 
L 144.050417 91.094309 
L 144.160801 91.260788 
L 144.44001 91.681882 
L 144.446503 90.059529 
L 144.556888 90.226008 
L 144.985441 90.872338 
L 144.991934 89.249984 
L 145.102318 89.416463 
L 147.238588 92.63832 
L 147.245081 91.015966 
L 147.355466 91.182445 
L 149.07617 93.777558 
L 149.082663 92.155205 
L 149.193048 92.321684 
L 151.887734 96.385728 
L 151.894227 94.763375 
L 152.004612 94.929853 
L 152.12149 95.106125 
L 152.127983 93.483772 
L 152.238368 93.650251 
L 152.848731 94.570781 
L 152.855224 92.948428 
L 152.965609 93.114907 
L 153.582465 94.04523 
L 153.588958 92.422877 
L 153.699343 92.589356 
L 154.173348 93.304236 
L 154.179841 91.681882 
L 154.290226 91.848361 
L 154.848643 92.690549 
L 154.855136 91.068195 
L 154.965521 91.234674 
L 155.842106 92.556713 
L 155.848599 90.934359 
L 155.958984 91.100838 
L 156.37455 91.727582 
L 156.381043 90.105229 
L 156.491428 90.271708 
L 156.952446 90.967002 
L 156.95894 89.344649 
L 157.069324 89.511127 
L 157.90695 90.774409 
L 157.913443 89.152055 
L 158.023828 89.318534 
L 158.419914 89.9159 
L 158.426408 88.293546 
L 158.536792 88.460025 
L 158.796521 88.85174 
L 158.803014 87.229387 
L 158.913399 87.395866 
L 159.497789 88.277225 
L 159.504282 86.654871 
L 159.614667 86.82135 
L 160.153604 87.634159 
L 160.160097 86.011806 
L 160.270482 86.178285 
L 160.919804 87.157572 
L 160.926298 85.535219 
L 161.036682 85.701698 
L 161.854828 86.9356 
L 161.861321 85.313247 
L 161.971706 85.479726 
L 162.030145 85.567862 
L 162.036638 83.945508 
L 162.147023 84.111987 
L 162.939196 85.306718 
L 162.945689 83.684365 
L 163.056074 83.850844 
L 163.315803 84.242559 
L 163.322296 82.620205 
L 163.432681 82.786684 
L 164.062523 83.736594 
L 164.069016 82.11424 
L 164.179401 82.280719 
L 164.594967 82.907463 
L 164.60146 81.28511 
L 164.711845 81.451589 
L 165.354674 82.421084 
L 165.361167 80.79873 
L 165.471552 80.965209 
L 166.114381 81.934704 
L 166.120874 80.312351 
L 166.231259 80.478829 
L 166.783183 81.311224 
L 166.789676 79.688871 
L 166.900061 79.85535 
L 167.400039 80.609401 
L 167.406532 78.987048 
L 167.516917 79.153527 
L 168.08832 80.0153 
L 168.094813 78.392946 
L 168.205198 78.559425 
L 168.737642 79.362441 
L 168.744135 77.740088 
L 168.85452 77.906567 
L 169.594747 79.022955 
L 169.60124 77.400601 
L 169.711625 77.56708 
L 170.270042 78.409268 
L 170.276535 76.786914 
L 170.38692 76.953393 
L 171.107668 78.040403 
L 171.114161 76.418049 
L 171.224546 76.584528 
L 171.692058 77.289615 
L 171.698551 75.667262 
L 171.808936 75.833741 
L 172.549163 76.950129 
L 172.555656 75.327775 
L 172.666041 75.494254 
L 173.06862 76.101413 
L 173.075114 74.479059 
L 173.185498 74.645538 
L 173.815341 75.595447 
L 173.821834 73.973094 
L 173.932219 74.139573 
L 174.698419 75.295133 
L 174.704912 73.672779 
L 174.815297 73.839258 
L 175.399687 74.720617 
L 175.40618 73.098264 
L 175.516565 73.264742 
L 175.984076 73.96983 
L 175.99057 72.347476 
L 176.100954 72.513955 
L 176.503534 73.121114 
L 176.510027 71.49876 
L 176.620412 71.665239 
L 177.237268 72.595562 
L 177.243761 70.973209 
L 177.354146 71.139688 
L 178.0684 72.216904 
L 178.074894 70.594551 
L 178.185278 70.76103 
L 178.776161 71.652182 
L 178.782655 70.029828 
L 178.893039 70.196307 
L 179.165755 70.607608 
L 179.172248 68.985255 
L 179.282633 69.151734 
L 180.159217 70.473772 
L 180.165711 68.851419 
L 180.276095 69.017898 
L 180.905938 69.967807 
L 180.912431 68.345453 
L 181.022816 68.511932 
L 181.750057 69.608735 
L 181.75655 67.986381 
L 181.866935 68.15286 
L 182.353926 68.887326 
L 182.360419 67.264972 
L 182.470804 67.431451 
L 183.126619 68.420532 
L 183.133113 66.798179 
L 183.243497 66.964657 
L 183.899313 67.953738 
L 183.905806 66.331385 
L 184.016191 66.497864 
L 184.301892 66.92875 
L 184.308386 65.306397 
L 184.41877 65.472876 
L 185.068092 66.452163 
L 185.074586 64.82981 
L 185.18497 64.996289 
L 185.691442 65.760133 
L 185.697935 64.13778 
L 185.80832 64.304259 
L 186.366736 65.146446 
L 186.37323 63.524093 
L 186.483614 63.690572 
L 186.91866 64.346695 
L 186.925153 62.724341 
L 187.035538 62.89082 
L 187.613435 63.762386 
L 187.619928 62.140033 
L 187.730313 62.306512 
L 188.295223 63.158492 
L 188.301716 61.536139 
L 188.412101 61.702618 
L 189.171808 62.848384 
L 189.178301 61.226031 
L 189.288686 61.39251 
L 189.697759 62.009461 
L 189.704252 60.387108 
L 189.814637 60.553586 
L 190.392533 61.425153 
L 190.399027 59.802799 
L 190.509411 59.969278 
L 191.37301 61.271731 
L 191.379503 59.649377 
L 191.489888 59.815856 
L 192.243101 60.95183 
L 192.249595 59.329477 
L 192.359979 59.495956 
L 192.944369 60.377315 
L 192.950862 58.754961 
L 193.061247 58.92144 
L 193.756022 59.969278 
L 193.762515 58.346925 
L 193.8729 58.513404 
L 194.359891 59.247869 
L 194.366384 57.625516 
L 194.476769 57.791995 
L 195.113105 58.751697 
L 195.119598 57.129343 
L 195.229983 57.295822 
L 195.918264 58.333867 
L 195.924757 56.711514 
L 196.035142 56.877993 
L 196.794849 58.02376 
L 196.801342 56.401406 
L 196.911727 56.567885 
L 197.496117 57.449244 
L 197.50261 55.826891 
L 197.612995 55.99337 
L 198.301276 57.031415 
L 198.30777 55.409061 
L 198.418154 55.57554 
L 199.03501 56.505863 
L 199.041503 54.88351 
L 199.151888 55.049989 
L 199.710305 55.892176 
L 199.716798 54.269823 
L 199.827183 54.436302 
L 200.327161 55.190353 
L 200.333654 53.568 
L 200.444039 53.734479 
L 207.68398 64.653538 
L 207.690474 63.031185 
L 207.800858 63.197664 
L 213.65125 72.021047 
L 213.657743 70.398693 
L 213.768128 70.565172 
L 214.196681 71.211502 
L 214.203174 69.589149 
L 214.313559 69.755628 
L 215.034306 70.842637 
L 215.040799 69.220284 
L 215.151184 69.386763 
L 215.456366 69.847028 
L 215.462859 68.224674 
L 215.573244 68.391153 
L 216.079715 69.154998 
L 216.086208 67.532644 
L 216.196593 67.699123 
L 219.910715 73.30065 
L 219.917208 71.678296 
L 220.027593 71.844775 
L 226.494841 81.598482 
L 226.501334 79.976128 
L 226.611719 80.142607 
L 226.9169 80.602873 
L 226.923393 78.980519 
L 227.033778 79.146998 
L 227.624661 80.03815 
L 227.631155 78.415796 
L 227.741539 78.582275 
L 228.520726 79.757421 
L 228.527219 78.135067 
L 228.637604 78.301546 
L 229.150568 79.075184 
L 229.157061 77.45283 
L 229.267446 77.619309 
L 233.007541 83.260007 
L 233.014035 81.637653 
L 233.124419 81.804132 
L 233.501026 82.372119 
L 233.507519 80.749766 
L 233.617904 80.916245 
L 234.137362 81.699675 
L 234.143855 80.077321 
L 234.25424 80.2438 
L 234.676299 80.880337 
L 234.682792 79.257984 
L 234.793177 79.424463 
L 235.267182 80.139343 
L 235.273675 78.516989 
L 235.38406 78.683468 
L 235.780147 79.280834 
L 235.78664 77.65848 
L 235.897025 77.824959 
L 236.559333 78.823833 
L 236.565826 77.20148 
L 236.676211 77.367958 
L 237.435918 78.513725 
L 237.442411 76.891372 
L 237.552796 77.057851 
L 238.137186 77.93921 
L 238.143679 76.316856 
L 238.254064 76.483335 
L 238.812481 77.325523 
L 238.818974 75.703169 
L 238.929359 75.869648 
L 242.792825 81.696411 
L 242.799318 80.074057 
L 242.909703 80.240536 
L 243.156445 80.612665 
L 243.162939 78.990312 
L 243.273323 79.156791 
L 243.604478 79.656228 
L 243.610971 78.033874 
L 243.721356 78.200353 
L 244.740791 79.737835 
L 244.747284 78.115481 
L 244.857669 78.28196 
L 245.578417 79.36897 
L 245.58491 77.746616 
L 245.695295 77.913095 
L 249.325005 83.387314 
L 249.331498 81.764961 
L 249.441883 81.93144 
L 249.662653 82.264398 
L 249.669146 80.642044 
L 249.779531 80.808523 
L 250.058739 81.229617 
L 250.065232 79.607263 
L 250.175617 79.773742 
L 250.857405 80.801994 
L 250.863898 79.179641 
L 250.974283 79.34612 
L 251.759963 80.531058 
L 251.766456 78.908705 
L 251.876841 79.075184 
L 252.31838 79.741099 
L 252.324873 78.118746 
L 252.435258 78.285225 
L 252.876797 78.95114 
L 252.88329 77.328787 
L 252.993675 77.495266 
L 253.584558 78.386418 
L 253.591051 76.764064 
L 253.701436 76.930543 
L 254.110509 77.547495 
L 254.117002 75.925141 
L 254.227387 76.09162 
L 255.032546 77.305937 
L 255.039039 75.683583 
L 255.149424 75.850062 
L 255.3637 76.173227 
L 255.370194 74.550874 
L 255.480578 74.717353 
L 256.298724 75.951255 
L 256.305217 74.328902 
L 256.415602 74.495381 
L 256.922073 75.259225 
L 256.928567 73.636872 
L 257.038951 73.803351 
L 257.486984 74.479059 
L 257.493477 72.856706 
L 257.603862 73.023185 
L 258.363568 74.168952 
L 258.370062 72.546598 
L 258.480446 72.713077 
L 261.71407 77.58993 
L 261.720564 75.967577 
L 261.830948 76.134056 
L 262.447804 77.064379 
L 262.454298 75.442026 
L 262.564682 75.608505 
L 263.123099 76.450692 
L 263.129592 74.828339 
L 263.239977 74.994818 
L 263.83086 75.88597 
L 263.837354 74.263616 
L 263.947738 74.430095 
L 264.532128 75.311454 
L 264.538621 73.689101 
L 264.649006 73.855579 
L 265.20093 74.687974 
L 265.207423 73.065621 
L 265.317808 73.2321 
L 265.76584 73.907808 
L 265.772333 72.285455 
L 265.882718 72.451934 
L 266.583986 73.509564 
L 266.590479 71.887211 
L 266.700864 72.05369 
L 267.200842 72.807741 
L 267.207335 71.185388 
L 267.31772 71.351867 
L 267.973535 72.340948 
L 267.980028 70.718594 
L 268.090413 70.885073 
L 268.765708 71.903532 
L 268.772201 70.281179 
L 268.882586 70.447658 
L 269.402044 71.231088 
L 269.408537 69.608735 
L 269.518922 69.775214 
L 269.927995 70.392165 
L 269.934488 68.769811 
L 270.044873 68.93629 
L 270.720168 69.95475 
L 270.726661 68.332396 
L 270.837046 68.498875 
L 271.35001 69.272512 
L 271.356503 67.650159 
L 271.466888 67.816638 
L 281.797602 83.397107 
L 281.804095 81.774754 
L 281.91448 81.941233 
L 282.284594 82.499427 
L 282.291087 80.877073 
L 282.401472 81.043552 
L 282.758599 81.58216 
L 282.765092 79.959807 
L 282.875477 80.126286 
L 283.375455 80.880337 
L 283.381948 79.257984 
L 283.492333 79.424463 
L 284.355931 80.726916 
L 284.362424 79.104562 
L 284.472809 79.271041 
L 285.057199 80.1524 
L 285.063692 78.530047 
L 285.174077 78.696526 
L 285.836386 79.695399 
L 285.842879 78.073046 
L 285.953264 78.239525 
L 286.284418 78.738961 
L 286.290911 77.116608 
L 286.401296 77.283087 
L 286.855821 77.968588 
L 286.862314 76.346235 
L 286.972699 76.512714 
L 287.576569 77.423451 
L 287.583062 75.801098 
L 287.693447 75.967577 
L 288.355755 76.96645 
L 288.362248 75.344097 
L 288.472633 75.510576 
L 289.193381 76.597585 
L 289.199874 74.975232 
L 289.310259 75.141711 
L 289.790757 75.866384 
L 289.79725 74.24403 
L 289.907635 74.410509 
L 290.530984 75.350626 
L 290.537477 73.728272 
L 290.647862 73.894751 
L 291.212772 74.746731 
L 291.219266 73.124378 
L 291.32965 73.290857 
L 293.751622 76.9436 
L 293.758115 75.321247 
L 293.8685 75.487726 
L 294.855469 76.976243 
L 294.861962 75.35389 
L 294.972347 75.520369 
L 295.063252 75.657469 
L 295.069745 74.035116 
L 295.18013 74.201594 
L 295.874905 75.249432 
L 295.881398 73.627079 
L 295.991783 73.793558 
L 296.738503 74.919739 
L 296.744996 73.297385 
L 296.855381 73.463864 
L 297.491717 74.423566 
L 297.49821 72.801213 
L 297.608595 72.967692 
L 300.770793 77.736824 
L 300.777287 76.11447 
L 300.887671 76.280949 
L 301.342197 76.96645 
L 301.34869 75.344097 
L 301.459075 75.510576 
L 301.894121 76.166699 
L 301.900614 74.544345 
L 302.010998 74.710824 
L 302.621361 75.631355 
L 302.627854 74.009001 
L 302.738239 74.17548 
L 303.387561 75.154768 
L 303.394054 73.532414 
L 303.504439 73.698893 
L 304.244666 74.815282 
L 304.25116 73.192928 
L 304.361544 73.359407 
L 304.770617 73.976358 
L 304.777111 72.354005 
L 304.887495 72.520484 
L 305.296568 73.137435 
L 305.303061 71.515082 
L 305.413446 71.68156 
L 305.880958 72.386648 
L 305.887451 70.764294 
L 305.997836 70.930773 
L 306.640665 71.900268 
L 306.647158 70.277915 
L 306.757543 70.444394 
L 307.244534 71.178859 
L 307.251028 69.556506 
L 307.361412 69.722985 
L 311.082028 75.334304 
L 311.088521 73.711951 
L 311.198906 73.878429 
L 311.387209 74.162423 
L 311.393702 72.540069 
L 311.504087 72.706548 
L 312.049518 73.52915 
L 312.056011 71.906797 
L 312.166396 72.073276 
L 312.854677 73.111321 
L 312.86117 71.488967 
L 312.971555 71.655446 
L 313.614384 72.624941 
L 313.620877 71.002588 
L 313.731262 71.169067 
L 322.581522 84.51676 
L 322.588015 82.894406 
L 322.6984 83.060885 
L 324.023017 85.058632 
L 324.02951 83.436279 
L 324.139895 83.602758 
L 324.269759 83.798615 
L 324.276253 82.176262 
L 324.386637 82.342741 
L 324.828176 83.008656 
L 324.834669 81.386303 
L 324.945054 81.552782 
L 325.471005 82.346005 
L 325.477498 80.723651 
L 325.587883 80.89013 
L 325.841119 81.272053 
L 325.847612 79.649699 
L 325.957997 79.816178 
L 326.613812 80.805259 
L 326.620305 79.182905 
L 326.73069 79.349384 
L 330.282482 84.706089 
L 330.288975 83.083735 
L 330.39936 83.250214 
L 330.704541 83.710479 
L 330.711034 82.088126 
L 330.821419 82.254605 
L 331.243478 82.891142 
L 331.249972 81.268788 
L 331.360356 81.435267 
L 331.918773 82.277455 
L 331.925267 80.655101 
L 332.035651 80.82158 
L 332.633028 81.722525 
L 332.639521 80.100171 
L 332.749906 80.26665 
L 333.029114 80.687744 
L 333.035607 79.065391 
L 333.145992 79.23187 
L 333.522599 79.799857 
L 333.529092 78.177503 
L 333.639477 78.343982 
L 337.022445 83.446072 
L 337.028938 81.823718 
L 337.139323 81.990197 
L 337.457491 82.470048 
L 337.463984 80.847695 
L 337.574369 81.014173 
L 337.762672 81.298167 
L 337.769165 79.675813 
L 337.87955 79.842292 
L 338.28213 80.449451 
L 338.288623 78.827097 
L 338.399008 78.993576 
L 339.015864 79.9239 
L 339.022357 78.301546 
L 339.132742 78.468025 
L 339.548308 79.094769 
L 339.554801 77.472416 
L 339.665186 77.638895 
L 340.145684 78.363568 
L 340.152177 76.741214 
L 340.262562 76.907693 
L 340.859938 77.808638 
L 340.866432 76.186284 
L 340.976816 76.352763 
L 341.288491 76.822822 
L 341.294984 75.200468 
L 341.405369 75.366947 
L 342.152089 76.493128 
L 342.158583 74.870774 
L 342.268967 75.037253 
L 342.957249 76.075299 
L 342.963742 74.452945 
L 343.074127 74.619424 
L 343.742928 75.62809 
L 343.749422 74.005737 
L 343.859806 74.172216 
L 344.385757 74.965439 
L 344.39225 73.343085 
L 344.502635 73.509564 
L 345.061052 74.351752 
L 345.067545 72.729398 
L 345.17793 72.895877 
L 345.788293 73.816408 
L 345.794786 72.194054 
L 345.905171 72.360533 
L 346.431122 73.153757 
L 346.437615 71.531403 
L 346.548 71.697882 
L 347.405105 72.990542 
L 347.411598 71.368188 
L 347.521983 71.534667 
L 348.145332 72.474784 
L 348.151825 70.85243 
L 348.26221 71.018909 
L 348.976464 72.096126 
L 348.982958 70.473772 
L 349.093342 70.640251 
L 349.840063 71.766432 
L 349.846556 70.144079 
L 349.956941 70.310558 
L 350.164724 70.62393 
L 350.171217 69.001576 
L 350.281602 69.168055 
L 350.911444 70.117964 
L 350.917937 68.495611 
L 351.028322 68.66209 
L 351.554273 69.455313 
L 351.560766 67.832959 
L 351.671151 67.999438 
L 352.223075 68.831833 
L 352.229568 67.209479 
L 352.339953 67.375958 
L 352.976288 68.33566 
L 352.982782 66.713307 
L 353.093166 66.879786 
L 353.638597 67.702388 
L 353.64509 66.080034 
L 353.755475 66.246513 
L 354.346358 67.137665 
L 354.352851 65.515311 
L 354.463236 65.68179 
L 355.216449 66.817764 
L 355.222943 65.195411 
L 355.333327 65.36189 
L 355.78136 66.037598 
L 355.787853 64.415245 
L 355.898238 64.581724 
L 362.995328 75.28534 
L 363.001821 73.662986 
L 363.112206 73.829465 
L 363.371935 74.22118 
L 363.378428 72.598827 
L 363.488813 72.765306 
L 363.995284 73.52915 
L 364.001777 71.906797 
L 364.112162 72.073276 
L 364.670579 72.915463 
L 364.677072 71.29311 
L 364.787457 71.459589 
L 365.183543 72.056954 
L 365.190037 70.434601 
L 365.300421 70.60108 
L 365.975716 71.619539 
L 365.98221 69.997185 
L 366.092594 70.163664 
L 366.560106 70.868752 
L 366.566599 69.246398 
L 366.676984 69.412877 
L 367.449677 70.57823 
L 367.456171 68.955876 
L 367.566555 69.122355 
L 368.215877 70.101643 
L 368.222371 68.479289 
L 368.332755 68.645768 
L 368.982078 69.625056 
L 368.988571 68.002703 
L 369.098956 68.169181 
L 369.397644 68.619654 
L 369.404137 66.9973 
L 369.514522 67.163779 
L 370.300201 68.348718 
L 370.306695 66.726364 
L 370.417079 66.892843 
L 370.715767 67.343315 
L 370.722261 65.720962 
L 370.832645 65.887441 
L 371.462488 66.83735 
L 371.468981 65.214997 
L 371.579366 65.381475 
L 372.280634 66.439106 
L 372.287127 64.816753 
L 372.397512 64.983232 
L 373.124752 66.080034 
L 373.131246 64.457681 
L 373.24163 64.62416 
L 373.377988 64.82981 
L 373.384481 63.207456 
L 373.494866 63.373935 
L 374.150681 64.363016 
L 374.157174 62.740663 
L 374.267559 62.907142 
L 374.579234 63.3772 
L 374.585727 61.754846 
L 374.696112 61.921325 
L 375.475298 63.096471 
L 375.481792 61.474117 
L 375.592176 61.640596 
L 376.32591 62.747191 
L 376.332403 61.124838 
L 376.442788 61.291317 
L 376.858354 61.918061 
L 376.864848 60.295707 
L 376.975232 60.462186 
L 377.585595 61.382717 
L 377.592088 59.760363 
L 377.702473 59.926842 
L 378.559578 61.219502 
L 378.566071 59.597149 
L 378.676456 59.763628 
L 385.552777 70.134286 
L 385.55927 68.511932 
L 385.669655 68.678411 
L 386.039769 69.236605 
L 386.046262 67.614252 
L 386.156646 67.780731 
L 386.903367 68.906912 
L 386.90986 67.284558 
L 387.020245 67.451037 
L 387.552689 68.254053 
L 387.559182 66.6317 
L 387.669567 66.798179 
L 388.27993 67.718709 
L 388.286423 66.096356 
L 388.396808 66.262835 
L 396.260098 78.12201 
L 396.266591 76.499657 
L 396.376976 76.666135 
L 398.006774 79.124148 
L 398.013268 77.501794 
L 398.123652 77.668273 
L 398.487273 78.216675 
L 398.487273 78.216675 
" style="fill:none;stroke:#cf5044;stroke-linecap:round;stroke-width:1.5;"/>
   </g>
   <g id="patch_3">
    <path d="M 57.6 307.584 
L 57.6 41.472 
" style="fill:none;stroke:#ffffff;stroke-linecap:square;stroke-linejoin:miter;stroke-width:0.8;"/>
   </g>
   <g id="patch_4">
    <path d="M 414.72 307.584 
L 414.72 41.472 
" style="fill:none;stroke:#ffffff;stroke-linecap:square;stroke-linejoin:miter;stroke-width:0.8;"/>
   </g>
   <g id="patch_5">
    <path d="M 57.6 307.584 
L 414.72 307.584 
" style="fill:none;stroke:#ffffff;stroke-linecap:square;stroke-linejoin:miter;stroke-width:0.8;"/>
   </g>
   <g id="patch_6">
    <path d="M 57.6 41.472 
L 414.72 41.472 
" style="fill:none;stroke:#ffffff;stroke-linecap:square;stroke-linejoin:miter;stroke-width:0.8;"/>
   </g>
  </g>
  <g id="text_14">
   <!-- M2 threshholds $T_j$ -->
   <g style="fill:#ffffff;" transform="translate(182.7 15.672)scale(0.12 -0.12)">
    <defs>
     <path d="M 66.703125 0 
L 66.703125 45.90625 
Q 66.703125 48.390625 66.75 50.96875 
Q 66.796875 53.5625 66.890625 55.71875 
Q 67 58.203125 67.140625 60.546875 
Q 66.453125 58.0625 65.71875 55.609375 
Q 65.09375 53.515625 64.328125 51.140625 
Q 63.578125 48.78125 62.84375 46.875 
L 45.0625 0 
L 38.53125 0 
L 20.515625 46.875 
Q 20.21875 47.609375 19.890625 48.578125 
Q 19.578125 49.5625 19.203125 50.65625 
Q 18.84375 51.765625 18.46875 52.90625 
Q 18.109375 54.046875 17.78125 55.171875 
Q 16.9375 57.765625 16.15625 60.546875 
Q 16.21875 57.8125 16.3125 55.125 
Q 16.40625 52.828125 16.453125 50.3125 
Q 16.5 47.796875 16.5 45.90625 
L 16.5 0 
L 8.203125 0 
L 8.203125 68.796875 
L 20.453125 68.796875 
L 38.765625 21.09375 
Q 39.109375 20.125 39.59375 18.578125 
Q 40.09375 17.046875 40.53125 15.421875 
Q 40.96875 13.8125 41.328125 12.375 
Q 41.703125 10.9375 41.84375 10.15625 
Q 42 10.9375 42.390625 12.40625 
Q 42.78125 13.875 43.28125 15.484375 
Q 43.796875 17.09375 44.28125 18.609375 
Q 44.78125 20.125 45.171875 21.09375 
L 63.140625 68.796875 
L 75.09375 68.796875 
L 75.09375 0 
z
" id="LiberationSans-77"/>
     <path d="M 27.046875 0.390625 
Q 25.046875 -0.140625 22.96875 -0.453125 
Q 20.90625 -0.78125 18.171875 -0.78125 
Q 7.625 -0.78125 7.625 11.1875 
L 7.625 46.4375 
L 1.515625 46.4375 
L 1.515625 52.828125 
L 7.953125 52.828125 
L 10.546875 64.65625 
L 16.40625 64.65625 
L 16.40625 52.828125 
L 26.171875 52.828125 
L 26.171875 46.4375 
L 16.40625 46.4375 
L 16.40625 13.09375 
Q 16.40625 9.28125 17.640625 7.734375 
Q 18.890625 6.203125 21.96875 6.203125 
Q 23.25 6.203125 24.4375 6.390625 
Q 25.640625 6.59375 27.046875 6.890625 
z
" id="LiberationSans-116"/>
     <path d="M 15.484375 43.796875 
Q 16.9375 46.484375 18.640625 48.359375 
Q 20.359375 50.25 22.40625 51.46875 
Q 24.46875 52.6875 26.90625 53.25 
Q 29.34375 53.8125 32.375 53.8125 
Q 37.453125 53.8125 40.703125 52.4375 
Q 43.953125 51.078125 45.828125 48.609375 
Q 47.703125 46.140625 48.40625 42.71875 
Q 49.125 39.3125 49.125 35.203125 
L 49.125 0 
L 40.28125 0 
L 40.28125 33.5 
Q 40.28125 36.859375 39.859375 39.390625 
Q 39.453125 41.9375 38.28125 43.625 
Q 37.109375 45.3125 34.953125 46.15625 
Q 32.8125 47.015625 29.390625 47.015625 
Q 26.265625 47.015625 23.75 45.890625 
Q 21.234375 44.78125 19.453125 42.71875 
Q 17.671875 40.671875 16.6875 37.734375 
Q 15.71875 34.8125 15.71875 31.15625 
L 15.71875 0 
L 6.9375 0 
L 6.9375 72.46875 
L 15.71875 72.46875 
L 15.71875 53.609375 
Q 15.71875 52 15.671875 50.390625 
Q 15.625 48.78125 15.546875 47.40625 
Q 15.484375 46.046875 15.421875 45.09375 
Q 15.375 44.140625 15.328125 43.796875 
z
" id="LiberationSans-104"/>
     <path d="M 6.9375 0 
L 6.9375 40.53125 
Q 6.9375 42.1875 6.90625 43.921875 
Q 6.890625 45.65625 6.828125 47.265625 
Q 6.78125 48.875 6.734375 50.28125 
Q 6.6875 51.703125 6.640625 52.828125 
L 14.9375 52.828125 
Q 14.984375 51.703125 15.0625 50.265625 
Q 15.140625 48.828125 15.203125 47.3125 
Q 15.28125 45.796875 15.296875 44.40625 
Q 15.328125 43.015625 15.328125 42.046875 
L 15.53125 42.046875 
Q 16.453125 45.0625 17.5 47.28125 
Q 18.5625 49.515625 19.96875 50.953125 
Q 21.390625 52.390625 23.34375 53.09375 
Q 25.296875 53.8125 28.078125 53.8125 
Q 29.15625 53.8125 30.125 53.640625 
Q 31.109375 53.46875 31.640625 53.328125 
L 31.640625 45.265625 
Q 30.765625 45.515625 29.59375 45.625 
Q 28.421875 45.75 26.953125 45.75 
Q 23.921875 45.75 21.796875 44.375 
Q 19.671875 43.015625 18.328125 40.59375 
Q 17 38.1875 16.359375 34.84375 
Q 15.71875 31.5 15.71875 27.546875 
L 15.71875 0 
z
" id="LiberationSans-114"/>
     <path d="M 13.484375 24.5625 
Q 13.484375 20.40625 14.328125 16.90625 
Q 15.1875 13.421875 16.96875 10.90625 
Q 18.75 8.40625 21.53125 7 
Q 24.3125 5.609375 28.21875 5.609375 
Q 33.9375 5.609375 37.375 7.90625 
Q 40.828125 10.203125 42.046875 13.71875 
L 49.75 11.53125 
Q 48.921875 9.328125 47.4375 7.109375 
Q 45.953125 4.890625 43.453125 3.09375 
Q 40.96875 1.3125 37.234375 0.15625 
Q 33.5 -0.984375 28.21875 -0.984375 
Q 16.5 -0.984375 10.375 6 
Q 4.25 12.984375 4.25 26.765625 
Q 4.25 34.1875 6.09375 39.328125 
Q 7.953125 44.484375 11.171875 47.703125 
Q 14.40625 50.921875 18.703125 52.359375 
Q 23 53.8125 27.875 53.8125 
Q 34.515625 53.8125 38.984375 51.65625 
Q 43.453125 49.515625 46.15625 45.71875 
Q 48.875 41.9375 50.015625 36.8125 
Q 51.171875 31.6875 51.171875 25.734375 
L 51.171875 24.5625 
z
M 42.09375 31.296875 
Q 41.359375 39.65625 37.84375 43.484375 
Q 34.328125 47.3125 27.734375 47.3125 
Q 25.53125 47.3125 23.109375 46.609375 
Q 20.703125 45.90625 18.65625 44.09375 
Q 16.609375 42.28125 15.1875 39.171875 
Q 13.765625 36.078125 13.578125 31.296875 
z
" id="LiberationSans-101"/>
     <path d="M 51.421875 26.46875 
Q 51.421875 12.59375 45.3125 5.796875 
Q 39.203125 -0.984375 27.59375 -0.984375 
Q 22.078125 -0.984375 17.71875 0.671875 
Q 13.375 2.34375 10.375 5.765625 
Q 7.375 9.1875 5.78125 14.328125 
Q 4.203125 19.484375 4.203125 26.46875 
Q 4.203125 53.8125 27.875 53.8125 
Q 34.03125 53.8125 38.5 52.09375 
Q 42.96875 50.390625 45.828125 46.96875 
Q 48.6875 43.5625 50.046875 38.421875 
Q 51.421875 33.296875 51.421875 26.46875 
z
M 42.1875 26.46875 
Q 42.1875 32.625 41.234375 36.625 
Q 40.28125 40.625 38.453125 43.015625 
Q 36.625 45.40625 33.984375 46.359375 
Q 31.34375 47.3125 28.03125 47.3125 
Q 24.65625 47.3125 21.9375 46.3125 
Q 19.234375 45.3125 17.328125 42.890625 
Q 15.4375 40.484375 14.421875 36.46875 
Q 13.421875 32.46875 13.421875 26.46875 
Q 13.421875 20.3125 14.5 16.28125 
Q 15.578125 12.25 17.453125 9.859375 
Q 19.34375 7.46875 21.90625 6.484375 
Q 24.46875 5.515625 27.484375 5.515625 
Q 30.859375 5.515625 33.59375 6.46875 
Q 36.328125 7.421875 38.234375 9.8125 
Q 40.140625 12.203125 41.15625 16.25 
Q 42.1875 20.3125 42.1875 26.46875 
z
" id="LiberationSans-111"/>
     <path d="M 6.734375 0 
L 6.734375 72.46875 
L 15.53125 72.46875 
L 15.53125 0 
z
" id="LiberationSans-108"/>
     <path d="M 40.09375 8.5 
Q 37.640625 3.421875 33.609375 1.21875 
Q 29.59375 -0.984375 23.640625 -0.984375 
Q 13.625 -0.984375 8.90625 5.75 
Q 4.203125 12.5 4.203125 26.171875 
Q 4.203125 53.8125 23.640625 53.8125 
Q 29.640625 53.8125 33.640625 51.609375 
Q 37.640625 49.421875 40.09375 44.625 
L 40.1875 44.625 
Q 40.1875 45.125 40.15625 46.171875 
Q 40.140625 47.21875 40.109375 48.359375 
Q 40.09375 49.515625 40.09375 50.53125 
Q 40.09375 51.5625 40.09375 52 
L 40.09375 72.46875 
L 48.875 72.46875 
L 48.875 10.890625 
Q 48.875 8.984375 48.890625 7.21875 
Q 48.921875 5.46875 48.96875 4 
Q 49.03125 2.546875 49.078125 1.484375 
Q 49.125 0.4375 49.171875 0 
L 40.765625 0 
Q 40.671875 0.484375 40.59375 1.390625 
Q 40.53125 2.296875 40.453125 3.46875 
Q 40.375 4.640625 40.328125 5.9375 
Q 40.28125 7.234375 40.28125 8.5 
z
M 13.421875 26.46875 
Q 13.421875 21 14.109375 17.09375 
Q 14.796875 13.1875 16.3125 10.671875 
Q 17.828125 8.15625 20.171875 6.984375 
Q 22.515625 5.8125 25.875 5.8125 
Q 29.34375 5.8125 32 6.9375 
Q 34.671875 8.0625 36.453125 10.578125 
Q 38.234375 13.09375 39.15625 17.140625 
Q 40.09375 21.1875 40.09375 27.046875 
Q 40.09375 32.671875 39.15625 36.546875 
Q 38.234375 40.4375 36.421875 42.828125 
Q 34.625 45.21875 32 46.265625 
Q 29.390625 47.3125 25.984375 47.3125 
Q 22.75 47.3125 20.40625 46.1875 
Q 18.0625 45.0625 16.5 42.578125 
Q 14.9375 40.09375 14.171875 36.109375 
Q 13.421875 32.125 13.421875 26.46875 
z
" id="LiberationSans-100"/>
    </defs>
    <use transform="translate(0 0.09375)" xlink:href="#LiberationSans-77"/>
    <use transform="translate(83.300781 0.09375)" xlink:href="#LiberationSans-50"/>
    <use transform="translate(138.916016 0.09375)" xlink:href="#LiberationSans-32"/>
    <use transform="translate(166.699219 0.09375)" xlink:href="#LiberationSans-116"/>
    <use transform="translate(194.482422 0.09375)" xlink:href="#LiberationSans-104"/>
    <use transform="translate(250.097656 0.09375)" xlink:href="#LiberationSans-114"/>
    <use transform="translate(283.398438 0.09375)" xlink:href="#LiberationSans-101"/>
    <use transform="translate(339.013672 0.09375)" xlink:href="#LiberationSans-115"/>
    <use transform="translate(389.013672 0.09375)" xlink:href="#LiberationSans-104"/>
    <use transform="translate(444.628906 0.09375)" xlink:href="#LiberationSans-104"/>
    <use transform="translate(500.244141 0.09375)" xlink:href="#LiberationSans-111"/>
    <use transform="translate(555.859375 0.09375)" xlink:href="#LiberationSans-108"/>
    <use transform="translate(578.076172 0.09375)" xlink:href="#LiberationSans-100"/>
    <use transform="translate(633.691406 0.09375)" xlink:href="#LiberationSans-115"/>
    <use transform="translate(683.691406 0.09375)" xlink:href="#LiberationSans-32"/>
    <use transform="translate(711.474609 0.09375)" xlink:href="#DejaVuSans-Oblique-84"/>
    <use transform="translate(772.558594 -16.3125)scale(0.7)" xlink:href="#DejaVuSans-Oblique-106"/>
   </g>
  </g>
 </g>
 <defs>
  <clipPath id="pb6d9103f83">
   <rect height="266.112" width="357.12" x="57.6" y="41.472"/>
  </clipPath>
 </defs>
</svg>
