<?xml version="1.0" encoding="utf-8" standalone="no"?>
<!DOCTYPE svg PUBLIC "-//W3C//DTD SVG 1.1//EN"
  "http://www.w3.org/Graphics/SVG/1.1/DTD/svg11.dtd">
<!-- Created with matplotlib (https://matplotlib.org/) -->
<svg height="345.6pt" version="1.1" viewBox="0 0 460.8 345.6" width="460.8pt" xmlns="http://www.w3.org/2000/svg" xmlns:xlink="http://www.w3.org/1999/xlink">
 <metadata>
  <rdf:RDF xmlns:cc="http://creativecommons.org/ns#" xmlns:dc="http://purl.org/dc/elements/1.1/" xmlns:rdf="http://www.w3.org/1999/02/22-rdf-syntax-ns#">
   <cc:Work>
    <dc:type rdf:resource="http://purl.org/dc/dcmitype/StillImage"/>
    <dc:date>2022-05-05T14:26:08.260757</dc:date>
    <dc:format>image/svg+xml</dc:format>
    <dc:creator>
     <cc:Agent>
      <dc:title>Matplotlib v3.3.4, https://matplotlib.org/</dc:title>
     </cc:Agent>
    </dc:creator>
   </cc:Work>
  </rdf:RDF>
 </metadata>
 <defs>
  <style type="text/css">*{stroke-linecap:butt;stroke-linejoin:round;}</style>
 </defs>
 <g id="figure_1">
  <g id="patch_1">
   <path d="M 0 345.6 
L 460.8 345.6 
L 460.8 0 
L 0 0 
z
" style="fill:#262626;"/>
  </g>
  <g id="axes_1">
   <g id="patch_2">
    <path d="M 57.6 119.740235 
L 414.72 119.740235 
L 414.72 41.472 
L 57.6 41.472 
z
" style="fill:#1a1a1a;"/>
   </g>
   <g id="matplotlib.axis_1">
    <g id="xtick_1">
     <g id="line2d_1">
      <defs>
       <path d="M 0 0 
L 0 3.5 
" id="m92fa5bea63" style="stroke:#ffffff;stroke-width:0.8;"/>
      </defs>
      <g>
       <use style="fill:#ffffff;stroke:#ffffff;stroke-width:0.8;" x="73.832727" xlink:href="#m92fa5bea63" y="119.740235"/>
      </g>
     </g>
     <g id="text_1">
      <!-- 0 -->
      <g style="fill:#ffffff;" transform="translate(71.052259 133.98711)scale(0.1 -0.1)">
       <defs>
        <path d="M 51.703125 34.421875 
Q 51.703125 24.515625 49.828125 17.75 
Q 47.953125 10.984375 44.703125 6.8125 
Q 41.453125 2.640625 37.0625 0.828125 
Q 32.671875 -0.984375 27.6875 -0.984375 
Q 22.65625 -0.984375 18.3125 0.828125 
Q 13.96875 2.640625 10.765625 6.78125 
Q 7.5625 10.9375 5.734375 17.703125 
Q 3.90625 24.46875 3.90625 34.421875 
Q 3.90625 44.828125 5.734375 51.640625 
Q 7.5625 58.453125 10.78125 62.5 
Q 14.015625 66.546875 18.40625 68.1875 
Q 22.796875 69.828125 27.984375 69.828125 
Q 32.90625 69.828125 37.21875 68.1875 
Q 41.546875 66.546875 44.765625 62.5 
Q 48 58.453125 49.84375 51.640625 
Q 51.703125 44.828125 51.703125 34.421875 
z
M 42.78125 34.421875 
Q 42.78125 42.625 41.796875 48.0625 
Q 40.828125 53.515625 38.921875 56.765625 
Q 37.015625 60.015625 34.25 61.359375 
Q 31.5 62.703125 27.984375 62.703125 
Q 24.265625 62.703125 21.4375 61.328125 
Q 18.609375 59.96875 16.671875 56.71875 
Q 14.75 53.46875 13.765625 48.015625 
Q 12.796875 42.578125 12.796875 34.421875 
Q 12.796875 26.515625 13.796875 21.09375 
Q 14.796875 15.671875 16.71875 12.375 
Q 18.65625 9.078125 21.4375 7.640625 
Q 24.21875 6.203125 27.78125 6.203125 
Q 31.25 6.203125 34.03125 7.640625 
Q 36.8125 9.078125 38.734375 12.375 
Q 40.671875 15.671875 41.71875 21.09375 
Q 42.78125 26.515625 42.78125 34.421875 
z
" id="LiberationSans-48"/>
       </defs>
       <use xlink:href="#LiberationSans-48"/>
      </g>
     </g>
    </g>
    <g id="xtick_2">
     <g id="line2d_2">
      <g>
       <use style="fill:#ffffff;stroke:#ffffff;stroke-width:0.8;" x="138.776625" xlink:href="#m92fa5bea63" y="119.740235"/>
      </g>
     </g>
     <g id="text_2">
      <!-- 200 -->
      <g style="fill:#ffffff;" transform="translate(130.435219 133.98711)scale(0.1 -0.1)">
       <defs>
        <path d="M 5.03125 0 
L 5.03125 6.203125 
Q 7.515625 11.921875 11.109375 16.28125 
Q 14.703125 20.65625 18.65625 24.1875 
Q 22.609375 27.734375 26.484375 30.765625 
Q 30.375 33.796875 33.5 36.8125 
Q 36.625 39.84375 38.546875 43.15625 
Q 40.484375 46.484375 40.484375 50.6875 
Q 40.484375 53.609375 39.59375 55.828125 
Q 38.71875 58.0625 37.0625 59.5625 
Q 35.40625 61.078125 33.078125 61.828125 
Q 30.765625 62.59375 27.9375 62.59375 
Q 25.296875 62.59375 22.96875 61.859375 
Q 20.65625 61.140625 18.84375 59.671875 
Q 17.046875 58.203125 15.890625 56.03125 
Q 14.75 53.859375 14.40625 50.984375 
L 5.421875 51.8125 
Q 5.859375 55.515625 7.46875 58.78125 
Q 9.078125 62.0625 11.90625 64.53125 
Q 14.75 67 18.71875 68.40625 
Q 22.703125 69.828125 27.9375 69.828125 
Q 33.0625 69.828125 37.0625 68.609375 
Q 41.0625 67.390625 43.8125 64.984375 
Q 46.578125 62.59375 48.046875 59.078125 
Q 49.515625 55.5625 49.515625 50.984375 
Q 49.515625 47.515625 48.265625 44.390625 
Q 47.015625 41.265625 44.9375 38.421875 
Q 42.875 35.59375 40.140625 32.953125 
Q 37.40625 30.328125 34.421875 27.8125 
Q 31.453125 25.296875 28.421875 22.828125 
Q 25.390625 20.359375 22.71875 17.859375 
Q 20.0625 15.375 17.96875 12.8125 
Q 15.875 10.25 14.703125 7.46875 
L 50.59375 7.46875 
L 50.59375 0 
z
" id="LiberationSans-50"/>
       </defs>
       <use xlink:href="#LiberationSans-50"/>
       <use x="55.615234" xlink:href="#LiberationSans-48"/>
       <use x="111.230469" xlink:href="#LiberationSans-48"/>
      </g>
     </g>
    </g>
    <g id="xtick_3">
     <g id="line2d_3">
      <g>
       <use style="fill:#ffffff;stroke:#ffffff;stroke-width:0.8;" x="203.720523" xlink:href="#m92fa5bea63" y="119.740235"/>
      </g>
     </g>
     <g id="text_3">
      <!-- 400 -->
      <g style="fill:#ffffff;" transform="translate(195.379117 133.98711)scale(0.1 -0.1)">
       <defs>
        <path d="M 43.015625 15.578125 
L 43.015625 0 
L 34.71875 0 
L 34.71875 15.578125 
L 2.296875 15.578125 
L 2.296875 22.40625 
L 33.796875 68.796875 
L 43.015625 68.796875 
L 43.015625 22.515625 
L 52.6875 22.515625 
L 52.6875 15.578125 
z
M 34.71875 58.890625 
Q 34.625 58.640625 34.234375 57.9375 
Q 33.84375 57.234375 33.34375 56.34375 
Q 32.859375 55.46875 32.34375 54.5625 
Q 31.84375 53.65625 31.453125 53.078125 
L 13.8125 27.09375 
Q 13.578125 26.703125 13.109375 26.0625 
Q 12.640625 25.4375 12.15625 24.78125 
Q 11.671875 24.125 11.171875 23.484375 
Q 10.6875 22.859375 10.40625 22.515625 
L 34.71875 22.515625 
z
" id="LiberationSans-52"/>
       </defs>
       <use xlink:href="#LiberationSans-52"/>
       <use x="55.615234" xlink:href="#LiberationSans-48"/>
       <use x="111.230469" xlink:href="#LiberationSans-48"/>
      </g>
     </g>
    </g>
    <g id="xtick_4">
     <g id="line2d_4">
      <g>
       <use style="fill:#ffffff;stroke:#ffffff;stroke-width:0.8;" x="268.664421" xlink:href="#m92fa5bea63" y="119.740235"/>
      </g>
     </g>
     <g id="text_4">
      <!-- 600 -->
      <g style="fill:#ffffff;" transform="translate(260.323015 133.98711)scale(0.1 -0.1)">
       <defs>
        <path d="M 51.21875 22.515625 
Q 51.21875 17.328125 49.78125 13 
Q 48.34375 8.6875 45.53125 5.578125 
Q 42.71875 2.484375 38.5625 0.75 
Q 34.421875 -0.984375 29 -0.984375 
Q 23 -0.984375 18.5 1.3125 
Q 14.015625 3.609375 11.03125 7.921875 
Q 8.0625 12.25 6.5625 18.53125 
Q 5.078125 24.8125 5.078125 32.8125 
Q 5.078125 42 6.765625 48.921875 
Q 8.453125 55.859375 11.625 60.5 
Q 14.796875 65.140625 19.359375 67.484375 
Q 23.921875 69.828125 29.6875 69.828125 
Q 33.203125 69.828125 36.28125 69.09375 
Q 39.359375 68.359375 41.875 66.71875 
Q 44.390625 65.09375 46.28125 62.40625 
Q 48.1875 59.71875 49.3125 55.8125 
L 40.921875 54.296875 
Q 39.546875 58.734375 36.546875 60.71875 
Q 33.546875 62.703125 29.59375 62.703125 
Q 25.984375 62.703125 23.046875 60.984375 
Q 20.125 59.28125 18.0625 55.875 
Q 16.015625 52.484375 14.90625 47.359375 
Q 13.8125 42.234375 13.8125 35.40625 
Q 16.21875 39.84375 20.5625 42.15625 
Q 24.90625 44.484375 30.515625 44.484375 
Q 35.203125 44.484375 39.015625 42.96875 
Q 42.828125 41.453125 45.53125 38.59375 
Q 48.25 35.75 49.734375 31.671875 
Q 51.21875 27.59375 51.21875 22.515625 
z
M 42.28125 22.125 
Q 42.28125 25.6875 41.40625 28.5625 
Q 40.53125 31.453125 38.765625 33.46875 
Q 37.015625 35.5 34.421875 36.59375 
Q 31.84375 37.703125 28.421875 37.703125 
Q 26.03125 37.703125 23.578125 36.984375 
Q 21.140625 36.28125 19.15625 34.6875 
Q 17.1875 33.109375 15.9375 30.515625 
Q 14.703125 27.9375 14.703125 24.21875 
Q 14.703125 20.40625 15.671875 17.109375 
Q 16.65625 13.8125 18.484375 11.375 
Q 20.3125 8.9375 22.890625 7.515625 
Q 25.484375 6.109375 28.71875 6.109375 
Q 31.890625 6.109375 34.40625 7.203125 
Q 36.921875 8.296875 38.671875 10.375 
Q 40.4375 12.453125 41.359375 15.421875 
Q 42.28125 18.40625 42.28125 22.125 
z
" id="LiberationSans-54"/>
       </defs>
       <use xlink:href="#LiberationSans-54"/>
       <use x="55.615234" xlink:href="#LiberationSans-48"/>
       <use x="111.230469" xlink:href="#LiberationSans-48"/>
      </g>
     </g>
    </g>
    <g id="xtick_5">
     <g id="line2d_5">
      <g>
       <use style="fill:#ffffff;stroke:#ffffff;stroke-width:0.8;" x="333.608319" xlink:href="#m92fa5bea63" y="119.740235"/>
      </g>
     </g>
     <g id="text_5">
      <!-- 800 -->
      <g style="fill:#ffffff;" transform="translate(325.266913 133.98711)scale(0.1 -0.1)">
       <defs>
        <path d="M 51.265625 19.1875 
Q 51.265625 14.796875 49.875 11.109375 
Q 48.484375 7.421875 45.625 4.734375 
Q 42.78125 2.046875 38.328125 0.53125 
Q 33.890625 -0.984375 27.828125 -0.984375 
Q 21.78125 -0.984375 17.359375 0.53125 
Q 12.9375 2.046875 10.03125 4.703125 
Q 7.125 7.375 5.734375 11.0625 
Q 4.34375 14.75 4.34375 19.09375 
Q 4.34375 22.859375 5.484375 25.78125 
Q 6.640625 28.71875 8.5625 30.828125 
Q 10.5 32.953125 12.96875 34.25 
Q 15.4375 35.546875 18.0625 35.984375 
L 18.0625 36.1875 
Q 15.1875 36.859375 12.90625 38.375 
Q 10.640625 39.890625 9.09375 42.015625 
Q 7.5625 44.140625 6.75 46.71875 
Q 5.953125 49.3125 5.953125 52.203125 
Q 5.953125 55.8125 7.34375 59 
Q 8.734375 62.203125 11.46875 64.625 
Q 14.203125 67.046875 18.25 68.4375 
Q 22.3125 69.828125 27.640625 69.828125 
Q 33.25 69.828125 37.375 68.40625 
Q 41.5 67 44.203125 64.578125 
Q 46.921875 62.15625 48.234375 58.9375 
Q 49.5625 55.71875 49.5625 52.09375 
Q 49.5625 49.265625 48.75 46.671875 
Q 47.953125 44.09375 46.40625 41.96875 
Q 44.875 39.84375 42.59375 38.34375 
Q 40.328125 36.859375 37.359375 36.28125 
L 37.359375 36.078125 
Q 40.328125 35.59375 42.859375 34.296875 
Q 45.40625 33.015625 47.265625 30.890625 
Q 49.125 28.765625 50.1875 25.828125 
Q 51.265625 22.90625 51.265625 19.1875 
z
M 40.4375 51.609375 
Q 40.4375 54.203125 39.765625 56.34375 
Q 39.109375 58.5 37.59375 60.03125 
Q 36.078125 61.578125 33.640625 62.421875 
Q 31.203125 63.28125 27.640625 63.28125 
Q 24.171875 63.28125 21.78125 62.421875 
Q 19.390625 61.578125 17.84375 60.03125 
Q 16.3125 58.5 15.625 56.34375 
Q 14.9375 54.203125 14.9375 51.609375 
Q 14.9375 49.5625 15.46875 47.40625 
Q 16.015625 45.265625 17.421875 43.5 
Q 18.84375 41.75 21.328125 40.625 
Q 23.828125 39.5 27.734375 39.5 
Q 31.890625 39.5 34.40625 40.625 
Q 36.921875 41.75 38.25 43.5 
Q 39.59375 45.265625 40.015625 47.40625 
Q 40.4375 49.5625 40.4375 51.609375 
z
M 42.140625 20.015625 
Q 42.140625 22.515625 41.453125 24.828125 
Q 40.765625 27.15625 39.109375 28.9375 
Q 37.453125 30.71875 34.640625 31.8125 
Q 31.84375 32.90625 27.640625 32.90625 
Q 23.78125 32.90625 21.0625 31.8125 
Q 18.359375 30.71875 16.671875 28.90625 
Q 14.984375 27.09375 14.203125 24.71875 
Q 13.421875 22.359375 13.421875 19.828125 
Q 13.421875 16.65625 14.203125 14.03125 
Q 14.984375 11.421875 16.6875 9.546875 
Q 18.40625 7.671875 21.1875 6.640625 
Q 23.96875 5.609375 27.9375 5.609375 
Q 31.9375 5.609375 34.671875 6.640625 
Q 37.40625 7.671875 39.0625 9.546875 
Q 40.71875 11.421875 41.421875 14.078125 
Q 42.140625 16.75 42.140625 20.015625 
z
" id="LiberationSans-56"/>
       </defs>
       <use xlink:href="#LiberationSans-56"/>
       <use x="55.615234" xlink:href="#LiberationSans-48"/>
       <use x="111.230469" xlink:href="#LiberationSans-48"/>
      </g>
     </g>
    </g>
    <g id="xtick_6">
     <g id="line2d_6">
      <g>
       <use style="fill:#ffffff;stroke:#ffffff;stroke-width:0.8;" x="398.552217" xlink:href="#m92fa5bea63" y="119.740235"/>
      </g>
     </g>
     <g id="text_6">
      <!-- 1000 -->
      <g style="fill:#ffffff;" transform="translate(387.430342 133.98711)scale(0.1 -0.1)">
       <defs>
        <path d="M 7.625 0 
L 7.625 7.46875 
L 25.140625 7.46875 
L 25.140625 60.40625 
L 9.625 49.3125 
L 9.625 57.625 
L 25.875 68.796875 
L 33.984375 68.796875 
L 33.984375 7.46875 
L 50.734375 7.46875 
L 50.734375 0 
z
" id="LiberationSans-49"/>
       </defs>
       <use xlink:href="#LiberationSans-49"/>
       <use x="55.615234" xlink:href="#LiberationSans-48"/>
       <use x="111.230469" xlink:href="#LiberationSans-48"/>
       <use x="166.845703" xlink:href="#LiberationSans-48"/>
      </g>
     </g>
    </g>
   </g>
   <g id="matplotlib.axis_2">
    <g id="ytick_1">
     <g id="line2d_7">
      <defs>
       <path d="M 0 0 
L -3.5 0 
" id="m3cc119564c" style="stroke:#ffffff;stroke-width:0.8;"/>
      </defs>
      <g>
       <use style="fill:#ffffff;stroke:#ffffff;stroke-width:0.8;" x="57.6" xlink:href="#m3cc119564c" y="112.944672"/>
      </g>
     </g>
     <g id="text_7">
      <!-- −0.5 -->
      <g style="fill:#ffffff;" transform="translate(30.859375 116.568109)scale(0.1 -0.1)">
       <defs>
        <path d="M 4.9375 29.6875 
L 4.9375 36.8125 
L 53.515625 36.8125 
L 53.515625 29.6875 
z
" id="LiberationSans-8722"/>
        <path d="M 9.125 0 
L 9.125 10.6875 
L 18.65625 10.6875 
L 18.65625 0 
z
" id="LiberationSans-46"/>
        <path d="M 51.421875 22.40625 
Q 51.421875 17.234375 49.859375 12.9375 
Q 48.296875 8.640625 45.21875 5.53125 
Q 42.140625 2.4375 37.578125 0.71875 
Q 33.015625 -0.984375 27 -0.984375 
Q 21.578125 -0.984375 17.546875 0.28125 
Q 13.53125 1.5625 10.734375 3.78125 
Q 7.953125 6 6.3125 8.984375 
Q 4.6875 11.96875 4 15.375 
L 12.890625 16.40625 
Q 13.421875 14.453125 14.390625 12.625 
Q 15.375 10.796875 17.0625 9.34375 
Q 18.75 7.90625 21.21875 7.046875 
Q 23.6875 6.203125 27.203125 6.203125 
Q 30.609375 6.203125 33.390625 7.25 
Q 36.1875 8.296875 38.15625 10.34375 
Q 40.140625 12.40625 41.203125 15.375 
Q 42.28125 18.359375 42.28125 22.21875 
Q 42.28125 25.390625 41.25 28.046875 
Q 40.234375 30.71875 38.328125 32.640625 
Q 36.421875 34.578125 33.65625 35.640625 
Q 30.90625 36.71875 27.390625 36.71875 
Q 25.203125 36.71875 23.34375 36.328125 
Q 21.484375 35.9375 19.890625 35.25 
Q 18.3125 34.578125 17.015625 33.671875 
Q 15.71875 32.765625 14.59375 31.78125 
L 6 31.78125 
L 8.296875 68.796875 
L 47.40625 68.796875 
L 47.40625 61.328125 
L 16.3125 61.328125 
L 14.984375 39.5 
Q 17.328125 41.3125 20.84375 42.59375 
Q 24.359375 43.890625 29.203125 43.890625 
Q 34.328125 43.890625 38.421875 42.328125 
Q 42.53125 40.765625 45.40625 37.90625 
Q 48.296875 35.0625 49.859375 31.109375 
Q 51.421875 27.15625 51.421875 22.40625 
z
" id="LiberationSans-53"/>
       </defs>
       <use xlink:href="#LiberationSans-8722"/>
       <use x="58.398438" xlink:href="#LiberationSans-48"/>
       <use x="114.013672" xlink:href="#LiberationSans-46"/>
       <use x="141.796875" xlink:href="#LiberationSans-53"/>
      </g>
     </g>
    </g>
    <g id="ytick_2">
     <g id="line2d_8">
      <g>
       <use style="fill:#ffffff;stroke:#ffffff;stroke-width:0.8;" x="57.6" xlink:href="#m3cc119564c" y="80.399608"/>
      </g>
     </g>
     <g id="text_8">
      <!-- 0.0 -->
      <g style="fill:#ffffff;" transform="translate(36.7 84.023046)scale(0.1 -0.1)">
       <use xlink:href="#LiberationSans-48"/>
       <use x="55.615234" xlink:href="#LiberationSans-46"/>
       <use x="83.398438" xlink:href="#LiberationSans-48"/>
      </g>
     </g>
    </g>
    <g id="ytick_3">
     <g id="line2d_9">
      <g>
       <use style="fill:#ffffff;stroke:#ffffff;stroke-width:0.8;" x="57.6" xlink:href="#m3cc119564c" y="47.854544"/>
      </g>
     </g>
     <g id="text_9">
      <!-- 0.5 -->
      <g style="fill:#ffffff;" transform="translate(36.7 51.477982)scale(0.1 -0.1)">
       <use xlink:href="#LiberationSans-48"/>
       <use x="55.615234" xlink:href="#LiberationSans-46"/>
       <use x="83.398438" xlink:href="#LiberationSans-53"/>
      </g>
     </g>
    </g>
    <g id="text_10">
     <!-- $u$ -->
     <g style="fill:#ffffff;" transform="translate(24.784375 83.806118)rotate(-90)scale(0.1 -0.1)">
      <defs>
       <path d="M 6.6875 21.6875 
L 13.09375 54.6875 
L 22.125 54.6875 
L 15.71875 22.015625 
Q 15.234375 19.625 15.015625 17.921875 
Q 14.796875 16.21875 14.796875 15.09375 
Q 14.796875 10.9375 17.328125 8.65625 
Q 19.875 6.390625 24.515625 6.390625 
Q 31.734375 6.390625 37 11.265625 
Q 42.28125 16.15625 43.890625 24.421875 
L 49.90625 54.6875 
L 58.890625 54.6875 
L 48.296875 0 
L 39.3125 0 
L 41.109375 8.59375 
Q 37.3125 3.8125 32.0625 1.1875 
Q 26.8125 -1.421875 20.90625 -1.421875 
Q 13.71875 -1.421875 9.71875 2.515625 
Q 5.71875 6.453125 5.71875 13.484375 
Q 5.71875 14.9375 5.953125 17.140625 
Q 6.203125 19.34375 6.6875 21.6875 
z
" id="DejaVuSans-Oblique-117"/>
      </defs>
      <use transform="translate(0 0.3125)" xlink:href="#DejaVuSans-Oblique-117"/>
     </g>
    </g>
   </g>
   <g id="line2d_10">
    <path clip-path="url(#p3187ed9a9a)" d="M 73.832727 89.815683 
L 75.066661 79.284903 
L 76.300595 70.576378 
L 77.534529 63.374784 
L 78.768464 57.41936 
L 79.677678 53.701182 
L 79.742622 94.856524 
L 79.807566 94.200827 
L 81.0415 82.911238 
L 82.145546 74.476526 
L 82.21049 115.425149 
L 82.275434 114.564792 
L 83.509368 99.751404 
L 84.743302 87.501338 
L 85.977236 77.371034 
L 87.21117 68.993687 
L 87.53589 67.041148 
L 87.600834 108.063754 
L 87.665778 107.276644 
L 88.899712 93.724404 
L 90.133646 82.517255 
L 91.36758 73.249401 
L 92.601514 65.585265 
L 93.835448 59.247337 
L 95.069382 54.00613 
L 95.329157 53.023998 
L 95.394101 94.186078 
L 95.459045 93.537052 
L 96.692979 82.362323 
L 97.926913 73.121279 
L 99.160847 65.479313 
L 99.355679 64.39996 
L 99.420623 105.448846 
L 99.485567 104.687755 
L 100.719501 91.583498 
L 101.953435 80.746814 
L 103.187369 71.785319 
L 104.421303 64.374528 
L 105.655237 58.246108 
L 106.889171 53.178154 
L 107.148947 52.228488 
L 107.213891 93.398483 
L 107.278835 92.757294 
L 108.512769 81.717495 
L 109.746703 72.588032 
L 110.980637 65.03834 
L 112.214571 58.795052 
L 113.448505 53.632109 
L 114.682439 49.362566 
L 114.942215 48.562511 
L 115.007159 89.768983 
L 115.072102 89.163908 
L 116.306036 78.745912 
L 117.539971 70.130654 
L 118.773905 63.006189 
L 120.007839 57.114547 
L 120.332558 55.74136 
L 120.397502 96.876401 
L 120.462446 96.200607 
L 121.69638 84.564974 
L 122.930314 74.942781 
L 124.164248 66.985621 
L 125.398182 60.405374 
L 125.787846 58.574051 
L 125.852789 99.680906 
L 125.917733 98.977206 
L 127.151667 86.861108 
L 128.385601 76.84159 
L 129.619536 68.555858 
L 130.85347 61.703897 
L 131.373021 59.186311 
L 131.437965 100.287074 
L 131.502909 99.577343 
L 132.736843 87.357397 
L 133.970777 77.252 
L 135.204711 68.895251 
L 136.438645 61.98456 
L 136.503589 61.655945 
L 136.568533 102.732136 
L 136.633477 101.998076 
L 137.867411 89.359244 
L 139.101345 78.907446 
L 140.335279 70.264237 
L 141.569213 63.116656 
L 142.803147 57.205898 
L 144.037081 52.317944 
L 144.556632 50.521984 
L 144.621576 91.708959 
L 144.68652 91.084581 
L 145.920454 80.33423 
L 147.154388 71.444129 
L 148.388322 64.092378 
L 149.622256 58.012781 
L 150.076863 56.048532 
L 150.141807 97.180516 
L 150.206751 96.501696 
L 151.440685 84.813962 
L 152.674619 75.148684 
L 153.908553 67.155894 
L 155.142487 60.546184 
L 156.051702 56.419512 
L 156.116646 97.547806 
L 156.18159 96.865331 
L 157.415524 85.114674 
L 158.649458 75.39736 
L 159.883392 67.361539 
L 161.117326 60.716243 
L 161.247214 60.087398 
L 161.312158 101.179195 
L 161.377102 100.460587 
L 162.611036 88.087804 
L 163.84497 77.856017 
L 165.078904 69.394748 
L 166.312838 62.397624 
L 167.546772 56.611289 
L 168.650818 52.288184 
L 168.715762 93.457585 
L 168.780706 92.815809 
L 170.01464 81.765884 
L 171.248574 72.628048 
L 172.482508 65.071431 
L 172.807228 63.310183 
L 172.872172 104.369913 
L 172.937115 103.619557 
L 174.171049 90.700142 
L 175.404984 80.016314 
L 176.638918 71.181225 
L 177.872852 63.874968 
L 179.106786 57.832992 
L 180.34072 52.836524 
L 180.730383 51.445976 
L 180.795327 92.623757 
L 180.860271 91.990277 
L 182.094205 81.083203 
L 183.328139 72.063499 
L 184.562073 64.604572 
L 185.796007 58.436344 
L 187.029941 53.335472 
L 187.289717 52.379637 
L 187.354661 93.548128 
L 187.419605 92.905451 
L 188.653539 81.840014 
L 189.887473 72.689351 
L 190.536912 68.52781 
L 190.6668 53.65521 
L 190.991519 52.450737 
L 191.056463 93.618521 
L 191.121407 92.975143 
L 192.355341 81.897647 
L 193.589275 72.737011 
L 194.823209 65.161539 
L 196.057143 58.896933 
L 197.291077 53.71636 
L 197.550853 52.74559 
L 197.615797 93.91044 
L 197.680741 93.264157 
L 198.914675 82.13665 
L 200.148609 72.934656 
L 201.382543 65.324984 
L 202.616477 59.032095 
L 203.460747 55.365986 
L 203.525691 96.504763 
L 203.590635 95.832666 
L 204.824569 84.260702 
L 206.058503 74.69116 
L 207.292437 66.777541 
L 208.526371 60.233301 
L 209.565474 55.609127 
L 209.630418 96.745484 
L 209.695362 96.070992 
L 210.929296 84.457788 
L 212.16323 74.854142 
L 213.397164 66.91232 
L 214.566154 60.660195 
L 214.631098 101.746293 
L 214.696042 101.022042 
L 215.929976 88.552104 
L 217.16391 78.239975 
L 218.397844 69.712265 
L 219.631778 62.660198 
L 220.865712 56.828426 
L 222.099646 52.00579 
L 223.008861 48.994851 
L 223.073805 90.197021 
L 223.138748 89.587687 
L 224.372683 79.09636 
L 224.892234 75.241577 
L 224.957178 116.182588 
L 225.022122 115.314694 
L 226.256056 100.371543 
L 227.48999 88.014168 
L 228.723924 77.795123 
L 229.957858 69.344391 
L 231.191792 62.355981 
L 232.425726 56.576851 
L 232.685501 55.49392 
L 232.750445 96.631424 
L 232.815389 95.958067 
L 234.049323 84.364403 
L 235.283257 74.776917 
L 236.517191 66.848458 
L 237.751125 60.291946 
L 237.945957 59.365903 
L 238.010901 100.464879 
L 238.075845 99.753379 
L 239.309779 87.502971 
L 240.543713 77.372385 
L 241.777647 68.994804 
L 243.011581 62.066886 
L 243.596076 59.217287 
L 243.66102 100.317742 
L 243.725964 99.607705 
L 244.959898 87.382505 
L 246.193832 77.272764 
L 247.427766 68.912422 
L 248.6617 61.99876 
L 249.895634 56.281444 
L 250.15541 55.210096 
L 250.220354 96.350423 
L 250.285298 95.679863 
L 251.519232 84.13434 
L 252.753166 74.586664 
L 253.9871 66.691127 
L 255.221034 60.16184 
L 256.454968 54.762386 
L 257.169351 52.074502 
L 257.234295 93.246029 
L 257.299239 92.606357 
L 258.533173 81.592676 
L 259.767107 72.484812 
L 261.001041 64.952981 
L 262.234975 58.724464 
L 263.468909 53.573736 
L 264.637899 49.518873 
L 264.702843 90.715828 
L 264.767787 90.101333 
L 266.001721 79.521124 
L 267.235655 70.771723 
L 268.469589 63.536326 
L 269.638579 57.840328 
L 269.703523 98.954484 
L 269.768467 98.258012 
L 271.002401 86.266364 
L 272.236335 76.349761 
L 273.470269 68.149136 
L 274.704203 61.367554 
L 275.938137 55.759462 
L 277.172072 51.1218 
L 277.431847 50.252765 
L 277.496791 91.442418 
L 277.561735 90.820693 
L 278.795669 80.116005 
L 280.029603 71.263665 
L 280.549154 68.011089 
L 280.614098 109.024045 
L 280.679042 108.227379 
L 281.912976 94.510623 
L 283.14691 83.167427 
L 284.380844 73.787066 
L 285.614778 66.029892 
L 286.848712 59.615026 
L 287.887815 55.082267 
L 287.952759 96.223867 
L 288.017702 95.554565 
L 289.251637 84.030724 
L 290.485571 74.500978 
L 290.680402 73.154994 
L 290.745346 114.116767 
L 290.81029 113.269428 
L 292.044224 98.680191 
L 293.278158 86.615489 
L 294.512092 76.638473 
L 295.746026 68.387889 
L 296.97996 61.564993 
L 297.044904 102.642088 
L 297.109848 101.908924 
L 298.343782 89.285519 
L 299.577716 78.846479 
L 300.81165 70.213819 
L 302.045584 63.074962 
L 303.279518 57.17142 
L 304.513453 52.289431 
L 304.708284 51.599898 
L 304.773228 92.776147 
L 304.838172 92.141151 
L 306.072106 81.20797 
L 307.30604 72.166676 
L 308.539974 64.689895 
L 308.604918 64.334362 
L 308.669862 105.383901 
L 308.734806 104.623456 
L 309.96874 91.530326 
L 311.202674 80.702842 
L 312.436608 71.748956 
L 313.670542 64.344458 
L 314.904476 58.221241 
L 315.424027 55.971414 
L 315.488971 97.104166 
L 315.553915 96.426105 
L 316.787849 84.751452 
L 318.021783 75.096991 
L 319.255717 67.113146 
L 320.489651 60.510832 
L 321.723585 55.050989 
L 322.95752 50.535921 
L 323.931678 47.530358 
L 323.996622 88.7471 
L 324.061566 88.152194 
L 325.2955 77.909265 
L 326.529434 69.438782 
L 327.763368 62.434038 
L 328.997302 56.641402 
L 329.386965 55.029275 
L 329.451909 96.171401 
L 329.516853 95.502622 
L 330.750787 83.987769 
L 331.984721 74.465456 
L 333.218655 66.590892 
L 334.452589 60.07895 
L 335.686523 54.69384 
L 336.076187 53.19513 
L 336.141131 94.355507 
L 336.206075 93.704796 
L 337.440009 82.50104 
L 338.673943 73.235992 
L 339.907877 65.574176 
L 339.972821 106.611379 
L 340.037765 105.83872 
L 341.271699 92.5353 
L 342.505633 81.533915 
L 343.739567 72.436219 
L 344.973501 64.912796 
L 346.207435 58.691233 
L 347.441369 53.546255 
L 348.675303 49.291568 
L 349.000023 48.299912 
L 349.064966 89.508997 
L 349.12991 88.906509 
L 350.363844 78.533054 
L 351.597778 69.954629 
L 352.831713 62.860623 
L 353.28632 60.56863 
L 353.416208 45.853633 
L 353.740927 45.029647 
L 353.805871 86.271272 
L 353.870815 85.701 
L 355.104749 75.882228 
L 356.338683 67.762505 
L 357.572617 61.047826 
L 357.767449 60.099443 
L 357.832393 101.19112 
L 357.897337 100.472394 
L 359.131271 88.097567 
L 360.365205 77.864091 
L 361.599139 69.401425 
L 362.508353 64.117889 
L 362.573297 105.169583 
L 362.638241 104.41127 
L 363.872175 91.354857 
L 365.106109 80.557736 
L 366.340043 71.628959 
L 367.573977 64.245226 
L 368.807911 58.13918 
L 370.041845 53.089729 
L 371.27578 48.91404 
L 371.340723 90.117014 
L 371.405667 89.508476 
L 372.639601 79.030856 
L 373.873535 70.366291 
L 375.107469 63.201051 
L 376.341404 57.27569 
L 377.315562 53.33133 
L 377.380506 94.490352 
L 377.44545 93.838299 
L 378.679384 82.611442 
L 379.913318 73.32729 
L 381.147252 65.649675 
L 382.381186 59.300602 
L 383.61512 54.050178 
L 383.809952 53.308607 
L 383.874896 94.467854 
L 383.93984 93.816025 
L 385.173774 82.593022 
L 386.407708 73.312058 
L 387.641642 65.637079 
L 388.875576 59.290186 
L 389.589959 56.130659 
L 389.654903 97.261827 
L 389.719847 96.582197 
L 390.953781 84.880533 
L 392.187715 75.203736 
L 393.421649 67.20142 
L 394.655583 60.583831 
L 395.889517 55.111356 
L 397.123451 50.585843 
L 397.44817 49.531065 
L 397.513114 90.727899 
L 397.578058 90.113283 
L 398.487273 82.123914 
L 398.487273 82.123914 
" style="fill:none;stroke:#9a72ac;stroke-linecap:round;stroke-width:1.5;"/>
   </g>
   <g id="patch_3">
    <path d="M 57.6 119.740235 
L 57.6 41.472 
" style="fill:none;stroke:#ffffff;stroke-linecap:square;stroke-linejoin:miter;stroke-width:0.8;"/>
   </g>
   <g id="patch_4">
    <path d="M 414.72 119.740235 
L 414.72 41.472 
" style="fill:none;stroke:#ffffff;stroke-linecap:square;stroke-linejoin:miter;stroke-width:0.8;"/>
   </g>
   <g id="patch_5">
    <path d="M 57.6 119.740235 
L 414.72 119.740235 
" style="fill:none;stroke:#ffffff;stroke-linecap:square;stroke-linejoin:miter;stroke-width:0.8;"/>
   </g>
   <g id="patch_6">
    <path d="M 57.6 41.472 
L 414.72 41.472 
" style="fill:none;stroke:#ffffff;stroke-linecap:square;stroke-linejoin:miter;stroke-width:0.8;"/>
   </g>
  </g>
  <g id="axes_2">
   <g id="patch_7">
    <path d="M 57.6 213.662118 
L 414.72 213.662118 
L 414.72 135.393882 
L 57.6 135.393882 
z
" style="fill:#1a1a1a;"/>
   </g>
   <g id="matplotlib.axis_3">
    <g id="xtick_7">
     <g id="line2d_11">
      <g>
       <use style="fill:#ffffff;stroke:#ffffff;stroke-width:0.8;" x="73.832727" xlink:href="#m92fa5bea63" y="213.662118"/>
      </g>
     </g>
     <g id="text_11">
      <!-- 0 -->
      <g style="fill:#ffffff;" transform="translate(71.052259 227.908993)scale(0.1 -0.1)">
       <use xlink:href="#LiberationSans-48"/>
      </g>
     </g>
    </g>
    <g id="xtick_8">
     <g id="line2d_12">
      <g>
       <use style="fill:#ffffff;stroke:#ffffff;stroke-width:0.8;" x="138.776625" xlink:href="#m92fa5bea63" y="213.662118"/>
      </g>
     </g>
     <g id="text_12">
      <!-- 200 -->
      <g style="fill:#ffffff;" transform="translate(130.435219 227.908993)scale(0.1 -0.1)">
       <use xlink:href="#LiberationSans-50"/>
       <use x="55.615234" xlink:href="#LiberationSans-48"/>
       <use x="111.230469" xlink:href="#LiberationSans-48"/>
      </g>
     </g>
    </g>
    <g id="xtick_9">
     <g id="line2d_13">
      <g>
       <use style="fill:#ffffff;stroke:#ffffff;stroke-width:0.8;" x="203.720523" xlink:href="#m92fa5bea63" y="213.662118"/>
      </g>
     </g>
     <g id="text_13">
      <!-- 400 -->
      <g style="fill:#ffffff;" transform="translate(195.379117 227.908993)scale(0.1 -0.1)">
       <use xlink:href="#LiberationSans-52"/>
       <use x="55.615234" xlink:href="#LiberationSans-48"/>
       <use x="111.230469" xlink:href="#LiberationSans-48"/>
      </g>
     </g>
    </g>
    <g id="xtick_10">
     <g id="line2d_14">
      <g>
       <use style="fill:#ffffff;stroke:#ffffff;stroke-width:0.8;" x="268.664421" xlink:href="#m92fa5bea63" y="213.662118"/>
      </g>
     </g>
     <g id="text_14">
      <!-- 600 -->
      <g style="fill:#ffffff;" transform="translate(260.323015 227.908993)scale(0.1 -0.1)">
       <use xlink:href="#LiberationSans-54"/>
       <use x="55.615234" xlink:href="#LiberationSans-48"/>
       <use x="111.230469" xlink:href="#LiberationSans-48"/>
      </g>
     </g>
    </g>
    <g id="xtick_11">
     <g id="line2d_15">
      <g>
       <use style="fill:#ffffff;stroke:#ffffff;stroke-width:0.8;" x="333.608319" xlink:href="#m92fa5bea63" y="213.662118"/>
      </g>
     </g>
     <g id="text_15">
      <!-- 800 -->
      <g style="fill:#ffffff;" transform="translate(325.266913 227.908993)scale(0.1 -0.1)">
       <use xlink:href="#LiberationSans-56"/>
       <use x="55.615234" xlink:href="#LiberationSans-48"/>
       <use x="111.230469" xlink:href="#LiberationSans-48"/>
      </g>
     </g>
    </g>
    <g id="xtick_12">
     <g id="line2d_16">
      <g>
       <use style="fill:#ffffff;stroke:#ffffff;stroke-width:0.8;" x="398.552217" xlink:href="#m92fa5bea63" y="213.662118"/>
      </g>
     </g>
     <g id="text_16">
      <!-- 1000 -->
      <g style="fill:#ffffff;" transform="translate(387.430342 227.908993)scale(0.1 -0.1)">
       <use xlink:href="#LiberationSans-49"/>
       <use x="55.615234" xlink:href="#LiberationSans-48"/>
       <use x="111.230469" xlink:href="#LiberationSans-48"/>
       <use x="166.845703" xlink:href="#LiberationSans-48"/>
      </g>
     </g>
    </g>
    <g id="text_17">
     <!-- $t$ (ms) -->
     <g style="fill:#ffffff;" transform="translate(222.81 241.283993)scale(0.1 -0.1)">
      <defs>
       <path d="M 42.28125 54.6875 
L 40.921875 47.703125 
L 23 47.703125 
L 17.1875 18.015625 
Q 16.890625 16.359375 16.75 15.234375 
Q 16.609375 14.109375 16.609375 13.484375 
Q 16.609375 10.359375 18.484375 8.9375 
Q 20.359375 7.515625 24.515625 7.515625 
L 33.59375 7.515625 
L 32.078125 0 
L 23.484375 0 
Q 15.484375 0 11.546875 3.125 
Q 7.625 6.25 7.625 12.59375 
Q 7.625 13.71875 7.765625 15.0625 
Q 7.90625 16.40625 8.203125 18.015625 
L 14.015625 47.703125 
L 6.390625 47.703125 
L 7.8125 54.6875 
L 15.28125 54.6875 
L 18.3125 70.21875 
L 27.296875 70.21875 
L 24.3125 54.6875 
z
" id="DejaVuSans-Oblique-116"/>
       <path id="LiberationSans-32"/>
       <path d="M 6.203125 25.984375 
Q 6.203125 32.765625 7.21875 38.96875 
Q 8.25 45.171875 10.4375 50.875 
Q 12.640625 56.59375 16.0625 61.953125 
Q 19.484375 67.328125 24.21875 72.46875 
L 32.71875 72.46875 
Q 28.125 67.328125 24.78125 61.9375 
Q 21.4375 56.546875 19.28125 50.796875 
Q 17.140625 45.0625 16.09375 38.859375 
Q 15.046875 32.671875 15.046875 25.875 
Q 15.046875 19.09375 16.09375 12.890625 
Q 17.140625 6.6875 19.28125 0.921875 
Q 21.4375 -4.828125 24.78125 -10.203125 
Q 28.125 -15.578125 32.71875 -20.703125 
L 24.21875 -20.703125 
Q 19.484375 -15.578125 16.0625 -10.203125 
Q 12.640625 -4.828125 10.4375 0.875 
Q 8.25 6.59375 7.21875 12.765625 
Q 6.203125 18.953125 6.203125 25.78125 
z
" id="LiberationSans-40"/>
       <path d="M 37.5 0 
L 37.5 33.5 
Q 37.5 37.359375 37.015625 39.9375 
Q 36.53125 42.53125 35.375 44.109375 
Q 34.234375 45.703125 32.375 46.359375 
Q 30.515625 47.015625 27.828125 47.015625 
Q 25.046875 47.015625 22.796875 45.921875 
Q 20.5625 44.828125 18.96875 42.75 
Q 17.390625 40.671875 16.53125 37.625 
Q 15.671875 34.578125 15.671875 30.609375 
L 15.671875 0 
L 6.9375 0 
L 6.9375 41.546875 
Q 6.9375 43.21875 6.90625 45.046875 
Q 6.890625 46.875 6.828125 48.5 
Q 6.78125 50.140625 6.734375 51.3125 
Q 6.6875 52.484375 6.640625 52.828125 
L 14.9375 52.828125 
Q 14.984375 52.59375 15.03125 51.515625 
Q 15.09375 50.4375 15.15625 49.046875 
Q 15.234375 47.65625 15.28125 46.21875 
Q 15.328125 44.78125 15.328125 43.796875 
L 15.484375 43.796875 
Q 16.65625 46.09375 18.015625 47.953125 
Q 19.390625 49.8125 21.21875 51.09375 
Q 23.046875 52.390625 25.40625 53.09375 
Q 27.78125 53.8125 30.90625 53.8125 
Q 36.921875 53.8125 40.40625 51.421875 
Q 43.890625 49.03125 45.265625 43.796875 
L 45.40625 43.796875 
Q 46.578125 46.09375 48.046875 47.953125 
Q 49.515625 49.8125 51.46875 51.09375 
Q 53.421875 52.390625 55.859375 53.09375 
Q 58.296875 53.8125 61.421875 53.8125 
Q 65.4375 53.8125 68.328125 52.734375 
Q 71.234375 51.65625 73.09375 49.40625 
Q 74.953125 47.171875 75.828125 43.625 
Q 76.703125 40.09375 76.703125 35.203125 
L 76.703125 0 
L 68.015625 0 
L 68.015625 33.5 
Q 68.015625 37.359375 67.53125 39.9375 
Q 67.046875 42.53125 65.890625 44.109375 
Q 64.75 45.703125 62.890625 46.359375 
Q 61.03125 47.015625 58.34375 47.015625 
Q 55.5625 47.015625 53.3125 45.96875 
Q 51.078125 44.921875 49.484375 42.875 
Q 47.90625 40.828125 47.046875 37.75 
Q 46.1875 34.671875 46.1875 30.609375 
L 46.1875 0 
z
" id="LiberationSans-109"/>
       <path d="M 46.390625 14.59375 
Q 46.390625 10.890625 44.9375 7.984375 
Q 43.5 5.078125 40.765625 3.09375 
Q 38.03125 1.125 34.046875 0.0625 
Q 30.078125 -0.984375 24.953125 -0.984375 
Q 20.359375 -0.984375 16.671875 -0.265625 
Q 12.984375 0.4375 10.203125 2 
Q 7.421875 3.5625 5.53125 6.125 
Q 3.65625 8.6875 2.78125 12.40625 
L 10.546875 13.921875 
Q 11.671875 9.671875 15.1875 7.6875 
Q 18.703125 5.71875 24.953125 5.71875 
Q 27.78125 5.71875 30.140625 6.109375 
Q 32.515625 6.5 34.21875 7.453125 
Q 35.9375 8.40625 36.890625 9.984375 
Q 37.84375 11.578125 37.84375 13.921875 
Q 37.84375 16.3125 36.71875 17.84375 
Q 35.59375 19.390625 33.59375 20.40625 
Q 31.59375 21.4375 28.734375 22.1875 
Q 25.875 22.953125 22.46875 23.875 
Q 19.28125 24.703125 16.15625 25.734375 
Q 13.03125 26.765625 10.515625 28.4375 
Q 8.015625 30.125 6.453125 32.609375 
Q 4.890625 35.109375 4.890625 38.875 
Q 4.890625 46.09375 10.03125 49.875 
Q 15.1875 53.65625 25.046875 53.65625 
Q 33.796875 53.65625 38.9375 50.578125 
Q 44.09375 47.515625 45.453125 40.71875 
L 37.546875 39.75 
Q 37.109375 41.796875 35.9375 43.1875 
Q 34.765625 44.578125 33.109375 45.4375 
Q 31.453125 46.296875 29.375 46.65625 
Q 27.296875 47.015625 25.046875 47.015625 
Q 19.09375 47.015625 16.25 45.203125 
Q 13.421875 43.40625 13.421875 39.75 
Q 13.421875 37.59375 14.46875 36.203125 
Q 15.53125 34.8125 17.40625 33.859375 
Q 19.28125 32.90625 21.921875 32.203125 
Q 24.5625 31.5 27.734375 30.71875 
Q 29.828125 30.171875 32.03125 29.5625 
Q 34.234375 28.953125 36.296875 28.09375 
Q 38.375 27.25 40.203125 26.09375 
Q 42.046875 24.953125 43.40625 23.34375 
Q 44.78125 21.734375 45.578125 19.578125 
Q 46.390625 17.4375 46.390625 14.59375 
z
" id="LiberationSans-115"/>
       <path d="M 27.09375 25.78125 
Q 27.09375 18.953125 26.0625 12.765625 
Q 25.046875 6.59375 22.84375 0.875 
Q 20.65625 -4.828125 17.234375 -10.203125 
Q 13.8125 -15.578125 9.078125 -20.703125 
L 0.59375 -20.703125 
Q 5.171875 -15.578125 8.515625 -10.203125 
Q 11.859375 -4.828125 14 0.921875 
Q 16.15625 6.6875 17.203125 12.890625 
Q 18.265625 19.09375 18.265625 25.875 
Q 18.265625 32.671875 17.203125 38.859375 
Q 16.15625 45.0625 14 50.796875 
Q 11.859375 56.546875 8.515625 61.9375 
Q 5.171875 67.328125 0.59375 72.46875 
L 9.078125 72.46875 
Q 13.8125 67.328125 17.234375 61.953125 
Q 20.65625 56.59375 22.84375 50.875 
Q 25.046875 45.171875 26.0625 38.96875 
Q 27.09375 32.765625 27.09375 25.984375 
z
" id="LiberationSans-41"/>
      </defs>
      <use transform="translate(0 0.53125)" xlink:href="#DejaVuSans-Oblique-116"/>
      <use transform="translate(39.208984 0.53125)" xlink:href="#LiberationSans-32"/>
      <use transform="translate(66.992188 0.53125)" xlink:href="#LiberationSans-40"/>
      <use transform="translate(100.292969 0.53125)" xlink:href="#LiberationSans-109"/>
      <use transform="translate(183.59375 0.53125)" xlink:href="#LiberationSans-115"/>
      <use transform="translate(233.59375 0.53125)" xlink:href="#LiberationSans-41"/>
     </g>
    </g>
   </g>
   <g id="matplotlib.axis_4">
    <g id="ytick_4">
     <g id="line2d_17">
      <g>
       <use style="fill:#ffffff;stroke:#ffffff;stroke-width:0.8;" x="57.6" xlink:href="#m3cc119564c" y="188.79191"/>
      </g>
     </g>
     <g id="text_18">
      <!-- −0.5 -->
      <g style="fill:#ffffff;" transform="translate(30.859375 192.415348)scale(0.1 -0.1)">
       <use xlink:href="#LiberationSans-8722"/>
       <use x="58.398438" xlink:href="#LiberationSans-48"/>
       <use x="114.013672" xlink:href="#LiberationSans-46"/>
       <use x="141.796875" xlink:href="#LiberationSans-53"/>
      </g>
     </g>
    </g>
    <g id="ytick_5">
     <g id="line2d_18">
      <g>
       <use style="fill:#ffffff;stroke:#ffffff;stroke-width:0.8;" x="57.6" xlink:href="#m3cc119564c" y="157.786917"/>
      </g>
     </g>
     <g id="text_19">
      <!-- 0.0 -->
      <g style="fill:#ffffff;" transform="translate(36.7 161.410355)scale(0.1 -0.1)">
       <use xlink:href="#LiberationSans-48"/>
       <use x="55.615234" xlink:href="#LiberationSans-46"/>
       <use x="83.398438" xlink:href="#LiberationSans-48"/>
      </g>
     </g>
    </g>
    <g id="text_20">
     <!-- $u$ -->
     <g style="fill:#ffffff;" transform="translate(24.784375 177.728)rotate(-90)scale(0.1 -0.1)">
      <use transform="translate(0 0.3125)" xlink:href="#DejaVuSans-Oblique-117"/>
     </g>
    </g>
   </g>
   <g id="line2d_19">
    <path clip-path="url(#p778f560d07)" d="M 73.832727 172.260921 
L 75.456325 171.156847 
L 77.20981 170.237047 
L 79.158127 169.467942 
L 79.677678 169.298926 
L 79.742622 155.721474 
L 79.807566 155.83638 
L 81.171388 158.002014 
L 82.145546 159.292917 
L 82.21049 145.815026 
L 82.275434 146.028503 
L 83.574312 149.878862 
L 84.87319 153.03127 
L 86.172068 155.612244 
L 87.470946 157.725366 
L 87.53589 157.820333 
L 87.600834 144.357094 
L 87.665778 144.585078 
L 88.899712 148.510429 
L 90.19859 151.910892 
L 91.497467 154.694956 
L 92.796345 156.974354 
L 94.160167 158.924438 
L 95.329157 160.299137 
L 95.394101 146.811234 
L 95.459045 147.014798 
L 96.757923 150.686373 
L 98.056801 153.692404 
L 99.355679 156.153534 
L 99.420623 142.706881 
L 99.485567 142.951284 
L 100.719501 147.159348 
L 102.018379 150.804721 
L 103.317257 153.789299 
L 104.616135 156.232865 
L 105.979957 158.323399 
L 107.148947 159.797106 
L 107.213891 146.314199 
L 107.278835 146.522709 
L 108.577713 150.283484 
L 109.876591 153.362547 
L 111.175469 155.88347 
L 112.53929 158.040184 
L 113.903112 159.788383 
L 114.942215 160.894529 
L 115.007159 147.400702 
L 115.072102 147.598401 
L 116.37098 151.164187 
L 117.669858 154.083605 
L 118.968736 156.473822 
L 120.332558 158.518715 
L 120.397502 145.048528 
L 120.462446 145.269631 
L 121.761324 149.257551 
L 123.060202 152.522584 
L 124.35908 155.195766 
L 125.657958 157.384383 
L 125.787846 157.580124 
L 125.852789 144.119275 
L 125.917733 144.349625 
L 127.151667 148.315719 
L 128.450545 151.751477 
L 129.749423 154.564438 
L 131.048301 156.867495 
L 131.373021 157.374812 
L 131.437965 143.916007 
L 131.502909 144.148379 
L 132.736843 148.149297 
L 134.035721 151.615222 
L 135.334599 154.452882 
L 136.503589 156.564179 
L 136.568533 143.113439 
L 136.633477 143.353797 
L 137.867411 147.49221 
L 139.166289 151.077245 
L 140.465166 154.012423 
L 141.764044 156.415544 
L 143.127866 158.471475 
L 144.491688 160.137981 
L 144.556632 160.208942 
L 144.621576 146.721936 
L 144.68652 146.926389 
L 145.985398 150.61399 
L 147.284276 153.633142 
L 148.583154 156.105014 
L 149.946976 158.219765 
L 150.076863 158.398964 
L 150.141807 144.929968 
L 150.206751 145.152251 
L 151.505629 149.161448 
L 152.804507 152.443902 
L 154.103385 155.131347 
L 155.402263 157.331641 
L 156.051702 158.277364 
L 156.116646 144.809578 
L 156.18159 145.033059 
L 157.480468 149.063862 
L 158.779346 152.364005 
L 160.078224 155.065933 
L 161.247214 157.076242 
L 161.312158 143.620408 
L 161.377102 143.855721 
L 162.611036 147.907281 
L 163.909914 151.417076 
L 165.208792 154.290653 
L 166.50767 156.643339 
L 167.871491 158.656123 
L 168.650818 159.630132 
L 168.715762 146.148886 
L 168.780706 146.359041 
L 170.079584 150.149484 
L 171.378462 153.252837 
L 172.67734 155.793647 
L 172.807228 156.020886 
L 172.872172 142.575553 
L 172.937115 142.821263 
L 174.171049 147.051826 
L 175.469927 150.716689 
L 176.768805 153.717225 
L 178.067683 156.173856 
L 179.431505 158.275567 
L 180.730383 159.90591 
L 180.795327 146.42192 
L 180.860271 146.629358 
L 182.159149 150.370801 
L 183.458027 153.434036 
L 184.756905 155.942 
L 186.120727 158.087628 
L 187.289717 159.600174 
L 187.354661 146.119226 
L 187.419605 146.329676 
L 188.718483 150.125443 
L 190.017361 153.233153 
L 190.536912 154.312327 
L 190.601856 207.524108 
L 190.6668 207.123569 
L 190.991519 205.179868 
L 191.121407 191.006832 
L 192.355341 186.899323 
L 193.654219 183.34106 
L 194.953097 180.4278 
L 196.251975 178.042625 
L 197.550853 176.089809 
L 197.615797 162.444787 
L 197.680741 162.492794 
L 199.304338 163.549423 
L 201.057823 164.429696 
L 203.071084 165.186684 
L 203.460747 165.307984 
L 203.525691 151.770242 
L 203.590635 151.924464 
L 204.889513 154.706067 
L 206.188391 156.983451 
L 207.552213 158.931812 
L 208.980979 160.578371 
L 209.565474 161.154278 
L 209.630418 147.657866 
L 209.695362 147.853006 
L 210.99424 151.37264 
L 212.293118 154.254272 
L 213.591995 156.613553 
L 214.566154 158.097857 
L 214.631098 144.631857 
L 214.696042 144.857106 
L 215.929976 148.735386 
L 217.228854 152.095071 
L 218.527732 154.845748 
L 219.82661 157.097813 
L 221.190432 159.024512 
L 222.619197 160.652764 
L 223.008861 161.038099 
L 223.073805 147.542843 
L 223.138748 147.739128 
L 224.437626 151.279404 
L 224.892234 152.360441 
L 224.957178 138.951529 
L 225.022122 139.233299 
L 226.256056 144.084727 
L 227.48999 148.096659 
L 228.788868 151.572126 
L 230.087746 154.417597 
L 231.386624 156.747272 
L 232.685501 158.654649 
L 232.750445 145.183109 
L 232.815389 145.402873 
L 234.114267 149.36664 
L 235.413145 152.611898 
L 236.712023 155.268891 
L 237.945957 157.345506 
L 238.010901 143.886992 
L 238.075845 144.119653 
L 239.309779 148.125542 
L 240.608657 151.595773 
L 241.907535 154.436958 
L 243.206413 156.763123 
L 243.596076 157.374974 
L 243.66102 143.916167 
L 243.725964 144.148537 
L 244.959898 148.149428 
L 246.258776 151.615329 
L 247.557654 154.452969 
L 248.856532 156.776232 
L 250.15541 158.678359 
L 250.220354 145.206583 
L 250.285298 145.426114 
L 251.584176 149.385669 
L 252.883054 152.627477 
L 254.181932 155.281646 
L 255.48081 157.454695 
L 256.844631 159.313795 
L 257.169351 159.701805 
L 257.234295 146.219846 
L 257.299239 146.429294 
L 258.598117 150.207003 
L 259.896995 153.299929 
L 261.195873 155.832203 
L 262.559694 157.998628 
L 263.923516 159.754699 
L 264.637899 160.537496 
L 264.702843 147.047221 
L 264.767787 147.248438 
L 266.066665 150.877661 
L 267.365543 153.849017 
L 268.664421 156.281758 
L 269.638579 157.812279 
L 269.703523 144.34912 
L 269.768467 144.577183 
L 271.002401 148.503901 
L 272.301279 151.905547 
L 273.600157 154.690579 
L 274.899035 156.970771 
L 276.262857 158.921534 
L 277.431847 160.296711 
L 277.496791 146.808832 
L 277.561735 147.01242 
L 278.860613 150.684426 
L 280.159491 153.69081 
L 280.549154 154.481578 
L 280.614098 141.051561 
L 280.679042 141.312435 
L 281.912976 145.804087 
L 283.211854 149.695126 
L 284.510732 152.88084 
L 285.80961 155.489082 
L 287.108488 157.62453 
L 287.887815 158.715191 
L 287.952759 145.243049 
L 288.017702 145.462217 
L 289.31658 149.415227 
L 290.615458 152.651678 
L 290.680402 152.797129 
L 290.745346 139.383872 
L 290.81029 139.66134 
L 292.044224 144.438699 
L 293.278158 148.38938 
L 294.577036 151.811785 
L 295.875914 154.613814 
L 296.97996 156.59236 
L 297.044904 143.14134 
L 297.109848 143.381421 
L 298.343782 147.515054 
L 299.64266 151.095948 
L 300.941538 154.027736 
L 302.240416 156.42808 
L 303.604238 158.481637 
L 304.708284 159.855507 
L 304.773228 146.372018 
L 304.838172 146.579953 
L 306.13705 150.330352 
L 307.435928 153.400918 
L 308.604918 155.685505 
L 308.669862 142.243509 
L 308.734806 142.492523 
L 309.96874 146.779972 
L 311.267618 150.494113 
L 312.566496 153.534995 
L 313.865374 156.024659 
L 315.229196 158.15463 
L 315.424027 158.424018 
L 315.488971 144.954773 
L 315.553915 145.17681 
L 316.852793 149.181555 
L 318.151671 152.460363 
L 319.450549 155.144825 
L 320.749427 157.342676 
L 322.113249 159.222994 
L 323.542015 160.812049 
L 323.931678 161.188109 
L 323.996622 147.69136 
L 324.061566 147.886167 
L 325.360444 151.39979 
L 326.659322 154.2765 
L 327.9582 156.631752 
L 329.322021 158.64673 
L 329.386965 158.732529 
L 329.451909 145.260214 
L 329.516853 145.479211 
L 330.815731 149.429141 
L 332.114609 152.663069 
L 333.413487 155.310786 
L 334.712365 157.478554 
L 336.076187 159.333134 
L 336.141131 145.854843 
L 336.206075 146.067924 
L 337.504953 149.911138 
L 338.803831 153.057695 
L 339.907877 155.279518 
L 339.972821 141.841561 
L 340.037765 142.094574 
L 341.271699 146.450884 
L 342.570577 150.224679 
L 343.869455 153.314401 
L 345.168333 155.844052 
L 346.532154 158.008233 
L 347.895976 159.762484 
L 349.000023 160.936112 
L 349.064966 147.441871 
L 349.12991 147.63916 
L 350.428788 151.197558 
L 351.727666 154.110927 
L 353.026544 156.496192 
L 353.28632 156.918623 
L 353.351264 210.104471 
L 353.416208 209.678257 
L 353.740927 207.609963 
L 353.870815 193.388807 
L 355.104749 188.869119 
L 356.403627 184.953792 
L 357.702505 181.748194 
L 357.767449 181.60413 
L 357.897337 167.897924 
L 362.183634 167.594356 
L 362.508353 167.578518 
L 362.573297 154.018184 
L 362.638241 154.150038 
L 363.937119 156.528213 
L 365.300941 158.562803 
L 366.664763 160.21201 
L 368.093529 161.605753 
L 369.652182 162.814263 
L 371.27578 163.799783 
L 371.340723 150.277048 
L 371.405667 150.446127 
L 372.704545 153.495707 
L 374.003423 155.992492 
L 375.367245 158.128556 
L 376.731067 159.860016 
L 377.315562 160.497751 
L 377.380506 147.007872 
L 377.44545 147.20948 
L 378.744328 150.845765 
L 380.043206 153.822903 
L 381.342084 156.260378 
L 382.705906 158.3457 
L 383.809952 159.740821 
L 383.874896 146.258474 
L 383.93984 146.467538 
L 385.238718 150.238314 
L 386.537596 153.325565 
L 387.836473 155.853192 
L 389.200295 158.015641 
L 389.589959 158.554551 
L 389.654903 145.084007 
L 389.719847 145.304757 
L 391.018724 149.28631 
L 392.317602 152.546129 
L 393.61648 155.215044 
L 394.915358 157.400166 
L 396.27918 159.269595 
L 397.44817 160.587436 
L 397.513114 147.096664 
L 397.578058 147.297388 
L 398.487273 149.906595 
L 398.487273 149.906595 
" style="fill:none;stroke:#9a72ac;stroke-linecap:round;stroke-width:1.5;"/>
   </g>
   <g id="patch_8">
    <path d="M 57.6 213.662118 
L 57.6 135.393882 
" style="fill:none;stroke:#ffffff;stroke-linecap:square;stroke-linejoin:miter;stroke-width:0.8;"/>
   </g>
   <g id="patch_9">
    <path d="M 414.72 213.662118 
L 414.72 135.393882 
" style="fill:none;stroke:#ffffff;stroke-linecap:square;stroke-linejoin:miter;stroke-width:0.8;"/>
   </g>
   <g id="patch_10">
    <path d="M 57.6 213.662118 
L 414.72 213.662118 
" style="fill:none;stroke:#ffffff;stroke-linecap:square;stroke-linejoin:miter;stroke-width:0.8;"/>
   </g>
   <g id="patch_11">
    <path d="M 57.6 135.393882 
L 414.72 135.393882 
" style="fill:none;stroke:#ffffff;stroke-linecap:square;stroke-linejoin:miter;stroke-width:0.8;"/>
   </g>
  </g>
  <g id="text_21">
   <!-- M2 - $u$ -->
   <g style="fill:#ffffff;" transform="translate(212.88 15.60825)scale(0.12 -0.12)">
    <defs>
     <path d="M 66.703125 0 
L 66.703125 45.90625 
Q 66.703125 48.390625 66.75 50.96875 
Q 66.796875 53.5625 66.890625 55.71875 
Q 67 58.203125 67.140625 60.546875 
Q 66.453125 58.0625 65.71875 55.609375 
Q 65.09375 53.515625 64.328125 51.140625 
Q 63.578125 48.78125 62.84375 46.875 
L 45.0625 0 
L 38.53125 0 
L 20.515625 46.875 
Q 20.21875 47.609375 19.890625 48.578125 
Q 19.578125 49.5625 19.203125 50.65625 
Q 18.84375 51.765625 18.46875 52.90625 
Q 18.109375 54.046875 17.78125 55.171875 
Q 16.9375 57.765625 16.15625 60.546875 
Q 16.21875 57.8125 16.3125 55.125 
Q 16.40625 52.828125 16.453125 50.3125 
Q 16.5 47.796875 16.5 45.90625 
L 16.5 0 
L 8.203125 0 
L 8.203125 68.796875 
L 20.453125 68.796875 
L 38.765625 21.09375 
Q 39.109375 20.125 39.59375 18.578125 
Q 40.09375 17.046875 40.53125 15.421875 
Q 40.96875 13.8125 41.328125 12.375 
Q 41.703125 10.9375 41.84375 10.15625 
Q 42 10.9375 42.390625 12.40625 
Q 42.78125 13.875 43.28125 15.484375 
Q 43.796875 17.09375 44.28125 18.609375 
Q 44.78125 20.125 45.171875 21.09375 
L 63.140625 68.796875 
L 75.09375 68.796875 
L 75.09375 0 
z
" id="LiberationSans-77"/>
     <path d="M 4.4375 22.65625 
L 4.4375 30.46875 
L 28.859375 30.46875 
L 28.859375 22.65625 
z
" id="LiberationSans-45"/>
    </defs>
    <use transform="translate(0 0.171875)" xlink:href="#LiberationSans-77"/>
    <use transform="translate(83.300781 0.171875)" xlink:href="#LiberationSans-50"/>
    <use transform="translate(138.916016 0.171875)" xlink:href="#LiberationSans-32"/>
    <use transform="translate(166.699219 0.171875)" xlink:href="#LiberationSans-45"/>
    <use transform="translate(200 0.171875)" xlink:href="#LiberationSans-32"/>
    <use transform="translate(227.783203 0.171875)" xlink:href="#DejaVuSans-Oblique-117"/>
   </g>
  </g>
 </g>
 <defs>
  <clipPath id="p3187ed9a9a">
   <rect height="78.268235" width="357.12" x="57.6" y="41.472"/>
  </clipPath>
  <clipPath id="p778f560d07">
   <rect height="78.268235" width="357.12" x="57.6" y="135.393882"/>
  </clipPath>
 </defs>
</svg>
