<?xml version="1.0" encoding="utf-8" standalone="no"?>
<!DOCTYPE svg PUBLIC "-//W3C//DTD SVG 1.1//EN"
  "http://www.w3.org/Graphics/SVG/1.1/DTD/svg11.dtd">
<!-- Created with matplotlib (https://matplotlib.org/) -->
<svg height="345.6pt" version="1.1" viewBox="0 0 460.8 345.6" width="460.8pt" xmlns="http://www.w3.org/2000/svg" xmlns:xlink="http://www.w3.org/1999/xlink">
 <metadata>
  <rdf:RDF xmlns:cc="http://creativecommons.org/ns#" xmlns:dc="http://purl.org/dc/elements/1.1/" xmlns:rdf="http://www.w3.org/1999/02/22-rdf-syntax-ns#">
   <cc:Work>
    <dc:type rdf:resource="http://purl.org/dc/dcmitype/StillImage"/>
    <dc:date>2022-05-05T15:11:51.215728</dc:date>
    <dc:format>image/svg+xml</dc:format>
    <dc:creator>
     <cc:Agent>
      <dc:title>Matplotlib v3.3.4, https://matplotlib.org/</dc:title>
     </cc:Agent>
    </dc:creator>
   </cc:Work>
  </rdf:RDF>
 </metadata>
 <defs>
  <style type="text/css">*{stroke-linecap:butt;stroke-linejoin:round;}</style>
 </defs>
 <g id="figure_1">
  <g id="patch_1">
   <path d="M 0 345.6 
L 460.8 345.6 
L 460.8 0 
L 0 0 
z
" style="fill:#262626;"/>
  </g>
  <g id="axes_1">
   <g id="patch_2">
    <path d="M 57.6 307.584 
L 414.72 307.584 
L 414.72 41.472 
L 57.6 41.472 
z
" style="fill:#1a1a1a;"/>
   </g>
   <g id="matplotlib.axis_1">
    <g id="xtick_1">
     <g id="line2d_1">
      <defs>
       <path d="M 0 0 
L 0 3.5 
" id="m3c31a8e4cf" style="stroke:#ffffff;stroke-width:0.8;"/>
      </defs>
      <g>
       <use style="fill:#ffffff;stroke:#ffffff;stroke-width:0.8;" x="73.832727" xlink:href="#m3c31a8e4cf" y="307.584"/>
      </g>
     </g>
     <g id="text_1">
      <!-- 0 -->
      <g style="fill:#ffffff;" transform="translate(71.052259 321.830875)scale(0.1 -0.1)">
       <defs>
        <path d="M 51.703125 34.421875 
Q 51.703125 24.515625 49.828125 17.75 
Q 47.953125 10.984375 44.703125 6.8125 
Q 41.453125 2.640625 37.0625 0.828125 
Q 32.671875 -0.984375 27.6875 -0.984375 
Q 22.65625 -0.984375 18.3125 0.828125 
Q 13.96875 2.640625 10.765625 6.78125 
Q 7.5625 10.9375 5.734375 17.703125 
Q 3.90625 24.46875 3.90625 34.421875 
Q 3.90625 44.828125 5.734375 51.640625 
Q 7.5625 58.453125 10.78125 62.5 
Q 14.015625 66.546875 18.40625 68.1875 
Q 22.796875 69.828125 27.984375 69.828125 
Q 32.90625 69.828125 37.21875 68.1875 
Q 41.546875 66.546875 44.765625 62.5 
Q 48 58.453125 49.84375 51.640625 
Q 51.703125 44.828125 51.703125 34.421875 
z
M 42.78125 34.421875 
Q 42.78125 42.625 41.796875 48.0625 
Q 40.828125 53.515625 38.921875 56.765625 
Q 37.015625 60.015625 34.25 61.359375 
Q 31.5 62.703125 27.984375 62.703125 
Q 24.265625 62.703125 21.4375 61.328125 
Q 18.609375 59.96875 16.671875 56.71875 
Q 14.75 53.46875 13.765625 48.015625 
Q 12.796875 42.578125 12.796875 34.421875 
Q 12.796875 26.515625 13.796875 21.09375 
Q 14.796875 15.671875 16.71875 12.375 
Q 18.65625 9.078125 21.4375 7.640625 
Q 24.21875 6.203125 27.78125 6.203125 
Q 31.25 6.203125 34.03125 7.640625 
Q 36.8125 9.078125 38.734375 12.375 
Q 40.671875 15.671875 41.71875 21.09375 
Q 42.78125 26.515625 42.78125 34.421875 
z
" id="LiberationSans-48"/>
       </defs>
       <use xlink:href="#LiberationSans-48"/>
      </g>
     </g>
    </g>
    <g id="xtick_2">
     <g id="line2d_2">
      <g>
       <use style="fill:#ffffff;stroke:#ffffff;stroke-width:0.8;" x="138.764935" xlink:href="#m3c31a8e4cf" y="307.584"/>
      </g>
     </g>
     <g id="text_2">
      <!-- 2000 -->
      <g style="fill:#ffffff;" transform="translate(127.64306 321.830875)scale(0.1 -0.1)">
       <defs>
        <path d="M 5.03125 0 
L 5.03125 6.203125 
Q 7.515625 11.921875 11.109375 16.28125 
Q 14.703125 20.65625 18.65625 24.1875 
Q 22.609375 27.734375 26.484375 30.765625 
Q 30.375 33.796875 33.5 36.8125 
Q 36.625 39.84375 38.546875 43.15625 
Q 40.484375 46.484375 40.484375 50.6875 
Q 40.484375 53.609375 39.59375 55.828125 
Q 38.71875 58.0625 37.0625 59.5625 
Q 35.40625 61.078125 33.078125 61.828125 
Q 30.765625 62.59375 27.9375 62.59375 
Q 25.296875 62.59375 22.96875 61.859375 
Q 20.65625 61.140625 18.84375 59.671875 
Q 17.046875 58.203125 15.890625 56.03125 
Q 14.75 53.859375 14.40625 50.984375 
L 5.421875 51.8125 
Q 5.859375 55.515625 7.46875 58.78125 
Q 9.078125 62.0625 11.90625 64.53125 
Q 14.75 67 18.71875 68.40625 
Q 22.703125 69.828125 27.9375 69.828125 
Q 33.0625 69.828125 37.0625 68.609375 
Q 41.0625 67.390625 43.8125 64.984375 
Q 46.578125 62.59375 48.046875 59.078125 
Q 49.515625 55.5625 49.515625 50.984375 
Q 49.515625 47.515625 48.265625 44.390625 
Q 47.015625 41.265625 44.9375 38.421875 
Q 42.875 35.59375 40.140625 32.953125 
Q 37.40625 30.328125 34.421875 27.8125 
Q 31.453125 25.296875 28.421875 22.828125 
Q 25.390625 20.359375 22.71875 17.859375 
Q 20.0625 15.375 17.96875 12.8125 
Q 15.875 10.25 14.703125 7.46875 
L 50.59375 7.46875 
L 50.59375 0 
z
" id="LiberationSans-50"/>
       </defs>
       <use xlink:href="#LiberationSans-50"/>
       <use x="55.615234" xlink:href="#LiberationSans-48"/>
       <use x="111.230469" xlink:href="#LiberationSans-48"/>
       <use x="166.845703" xlink:href="#LiberationSans-48"/>
      </g>
     </g>
    </g>
    <g id="xtick_3">
     <g id="line2d_3">
      <g>
       <use style="fill:#ffffff;stroke:#ffffff;stroke-width:0.8;" x="203.697143" xlink:href="#m3c31a8e4cf" y="307.584"/>
      </g>
     </g>
     <g id="text_3">
      <!-- 4000 -->
      <g style="fill:#ffffff;" transform="translate(192.575268 321.830875)scale(0.1 -0.1)">
       <defs>
        <path d="M 43.015625 15.578125 
L 43.015625 0 
L 34.71875 0 
L 34.71875 15.578125 
L 2.296875 15.578125 
L 2.296875 22.40625 
L 33.796875 68.796875 
L 43.015625 68.796875 
L 43.015625 22.515625 
L 52.6875 22.515625 
L 52.6875 15.578125 
z
M 34.71875 58.890625 
Q 34.625 58.640625 34.234375 57.9375 
Q 33.84375 57.234375 33.34375 56.34375 
Q 32.859375 55.46875 32.34375 54.5625 
Q 31.84375 53.65625 31.453125 53.078125 
L 13.8125 27.09375 
Q 13.578125 26.703125 13.109375 26.0625 
Q 12.640625 25.4375 12.15625 24.78125 
Q 11.671875 24.125 11.171875 23.484375 
Q 10.6875 22.859375 10.40625 22.515625 
L 34.71875 22.515625 
z
" id="LiberationSans-52"/>
       </defs>
       <use xlink:href="#LiberationSans-52"/>
       <use x="55.615234" xlink:href="#LiberationSans-48"/>
       <use x="111.230469" xlink:href="#LiberationSans-48"/>
       <use x="166.845703" xlink:href="#LiberationSans-48"/>
      </g>
     </g>
    </g>
    <g id="xtick_4">
     <g id="line2d_4">
      <g>
       <use style="fill:#ffffff;stroke:#ffffff;stroke-width:0.8;" x="268.62935" xlink:href="#m3c31a8e4cf" y="307.584"/>
      </g>
     </g>
     <g id="text_4">
      <!-- 6000 -->
      <g style="fill:#ffffff;" transform="translate(257.507475 321.830875)scale(0.1 -0.1)">
       <defs>
        <path d="M 51.21875 22.515625 
Q 51.21875 17.328125 49.78125 13 
Q 48.34375 8.6875 45.53125 5.578125 
Q 42.71875 2.484375 38.5625 0.75 
Q 34.421875 -0.984375 29 -0.984375 
Q 23 -0.984375 18.5 1.3125 
Q 14.015625 3.609375 11.03125 7.921875 
Q 8.0625 12.25 6.5625 18.53125 
Q 5.078125 24.8125 5.078125 32.8125 
Q 5.078125 42 6.765625 48.921875 
Q 8.453125 55.859375 11.625 60.5 
Q 14.796875 65.140625 19.359375 67.484375 
Q 23.921875 69.828125 29.6875 69.828125 
Q 33.203125 69.828125 36.28125 69.09375 
Q 39.359375 68.359375 41.875 66.71875 
Q 44.390625 65.09375 46.28125 62.40625 
Q 48.1875 59.71875 49.3125 55.8125 
L 40.921875 54.296875 
Q 39.546875 58.734375 36.546875 60.71875 
Q 33.546875 62.703125 29.59375 62.703125 
Q 25.984375 62.703125 23.046875 60.984375 
Q 20.125 59.28125 18.0625 55.875 
Q 16.015625 52.484375 14.90625 47.359375 
Q 13.8125 42.234375 13.8125 35.40625 
Q 16.21875 39.84375 20.5625 42.15625 
Q 24.90625 44.484375 30.515625 44.484375 
Q 35.203125 44.484375 39.015625 42.96875 
Q 42.828125 41.453125 45.53125 38.59375 
Q 48.25 35.75 49.734375 31.671875 
Q 51.21875 27.59375 51.21875 22.515625 
z
M 42.28125 22.125 
Q 42.28125 25.6875 41.40625 28.5625 
Q 40.53125 31.453125 38.765625 33.46875 
Q 37.015625 35.5 34.421875 36.59375 
Q 31.84375 37.703125 28.421875 37.703125 
Q 26.03125 37.703125 23.578125 36.984375 
Q 21.140625 36.28125 19.15625 34.6875 
Q 17.1875 33.109375 15.9375 30.515625 
Q 14.703125 27.9375 14.703125 24.21875 
Q 14.703125 20.40625 15.671875 17.109375 
Q 16.65625 13.8125 18.484375 11.375 
Q 20.3125 8.9375 22.890625 7.515625 
Q 25.484375 6.109375 28.71875 6.109375 
Q 31.890625 6.109375 34.40625 7.203125 
Q 36.921875 8.296875 38.671875 10.375 
Q 40.4375 12.453125 41.359375 15.421875 
Q 42.28125 18.40625 42.28125 22.125 
z
" id="LiberationSans-54"/>
       </defs>
       <use xlink:href="#LiberationSans-54"/>
       <use x="55.615234" xlink:href="#LiberationSans-48"/>
       <use x="111.230469" xlink:href="#LiberationSans-48"/>
       <use x="166.845703" xlink:href="#LiberationSans-48"/>
      </g>
     </g>
    </g>
    <g id="xtick_5">
     <g id="line2d_5">
      <g>
       <use style="fill:#ffffff;stroke:#ffffff;stroke-width:0.8;" x="333.561558" xlink:href="#m3c31a8e4cf" y="307.584"/>
      </g>
     </g>
     <g id="text_5">
      <!-- 8000 -->
      <g style="fill:#ffffff;" transform="translate(322.439683 321.830875)scale(0.1 -0.1)">
       <defs>
        <path d="M 51.265625 19.1875 
Q 51.265625 14.796875 49.875 11.109375 
Q 48.484375 7.421875 45.625 4.734375 
Q 42.78125 2.046875 38.328125 0.53125 
Q 33.890625 -0.984375 27.828125 -0.984375 
Q 21.78125 -0.984375 17.359375 0.53125 
Q 12.9375 2.046875 10.03125 4.703125 
Q 7.125 7.375 5.734375 11.0625 
Q 4.34375 14.75 4.34375 19.09375 
Q 4.34375 22.859375 5.484375 25.78125 
Q 6.640625 28.71875 8.5625 30.828125 
Q 10.5 32.953125 12.96875 34.25 
Q 15.4375 35.546875 18.0625 35.984375 
L 18.0625 36.1875 
Q 15.1875 36.859375 12.90625 38.375 
Q 10.640625 39.890625 9.09375 42.015625 
Q 7.5625 44.140625 6.75 46.71875 
Q 5.953125 49.3125 5.953125 52.203125 
Q 5.953125 55.8125 7.34375 59 
Q 8.734375 62.203125 11.46875 64.625 
Q 14.203125 67.046875 18.25 68.4375 
Q 22.3125 69.828125 27.640625 69.828125 
Q 33.25 69.828125 37.375 68.40625 
Q 41.5 67 44.203125 64.578125 
Q 46.921875 62.15625 48.234375 58.9375 
Q 49.5625 55.71875 49.5625 52.09375 
Q 49.5625 49.265625 48.75 46.671875 
Q 47.953125 44.09375 46.40625 41.96875 
Q 44.875 39.84375 42.59375 38.34375 
Q 40.328125 36.859375 37.359375 36.28125 
L 37.359375 36.078125 
Q 40.328125 35.59375 42.859375 34.296875 
Q 45.40625 33.015625 47.265625 30.890625 
Q 49.125 28.765625 50.1875 25.828125 
Q 51.265625 22.90625 51.265625 19.1875 
z
M 40.4375 51.609375 
Q 40.4375 54.203125 39.765625 56.34375 
Q 39.109375 58.5 37.59375 60.03125 
Q 36.078125 61.578125 33.640625 62.421875 
Q 31.203125 63.28125 27.640625 63.28125 
Q 24.171875 63.28125 21.78125 62.421875 
Q 19.390625 61.578125 17.84375 60.03125 
Q 16.3125 58.5 15.625 56.34375 
Q 14.9375 54.203125 14.9375 51.609375 
Q 14.9375 49.5625 15.46875 47.40625 
Q 16.015625 45.265625 17.421875 43.5 
Q 18.84375 41.75 21.328125 40.625 
Q 23.828125 39.5 27.734375 39.5 
Q 31.890625 39.5 34.40625 40.625 
Q 36.921875 41.75 38.25 43.5 
Q 39.59375 45.265625 40.015625 47.40625 
Q 40.4375 49.5625 40.4375 51.609375 
z
M 42.140625 20.015625 
Q 42.140625 22.515625 41.453125 24.828125 
Q 40.765625 27.15625 39.109375 28.9375 
Q 37.453125 30.71875 34.640625 31.8125 
Q 31.84375 32.90625 27.640625 32.90625 
Q 23.78125 32.90625 21.0625 31.8125 
Q 18.359375 30.71875 16.671875 28.90625 
Q 14.984375 27.09375 14.203125 24.71875 
Q 13.421875 22.359375 13.421875 19.828125 
Q 13.421875 16.65625 14.203125 14.03125 
Q 14.984375 11.421875 16.6875 9.546875 
Q 18.40625 7.671875 21.1875 6.640625 
Q 23.96875 5.609375 27.9375 5.609375 
Q 31.9375 5.609375 34.671875 6.640625 
Q 37.40625 7.671875 39.0625 9.546875 
Q 40.71875 11.421875 41.421875 14.078125 
Q 42.140625 16.75 42.140625 20.015625 
z
" id="LiberationSans-56"/>
       </defs>
       <use xlink:href="#LiberationSans-56"/>
       <use x="55.615234" xlink:href="#LiberationSans-48"/>
       <use x="111.230469" xlink:href="#LiberationSans-48"/>
       <use x="166.845703" xlink:href="#LiberationSans-48"/>
      </g>
     </g>
    </g>
    <g id="xtick_6">
     <g id="line2d_6">
      <g>
       <use style="fill:#ffffff;stroke:#ffffff;stroke-width:0.8;" x="398.493766" xlink:href="#m3c31a8e4cf" y="307.584"/>
      </g>
     </g>
     <g id="text_6">
      <!-- 10000 -->
      <g style="fill:#ffffff;" transform="translate(384.591422 321.830875)scale(0.1 -0.1)">
       <defs>
        <path d="M 7.625 0 
L 7.625 7.46875 
L 25.140625 7.46875 
L 25.140625 60.40625 
L 9.625 49.3125 
L 9.625 57.625 
L 25.875 68.796875 
L 33.984375 68.796875 
L 33.984375 7.46875 
L 50.734375 7.46875 
L 50.734375 0 
z
" id="LiberationSans-49"/>
       </defs>
       <use xlink:href="#LiberationSans-49"/>
       <use x="55.615234" xlink:href="#LiberationSans-48"/>
       <use x="111.230469" xlink:href="#LiberationSans-48"/>
       <use x="166.845703" xlink:href="#LiberationSans-48"/>
       <use x="222.460938" xlink:href="#LiberationSans-48"/>
      </g>
     </g>
    </g>
    <g id="text_7">
     <!-- $t$ (ms) -->
     <g style="fill:#ffffff;" transform="translate(222.81 335.205875)scale(0.1 -0.1)">
      <defs>
       <path d="M 42.28125 54.6875 
L 40.921875 47.703125 
L 23 47.703125 
L 17.1875 18.015625 
Q 16.890625 16.359375 16.75 15.234375 
Q 16.609375 14.109375 16.609375 13.484375 
Q 16.609375 10.359375 18.484375 8.9375 
Q 20.359375 7.515625 24.515625 7.515625 
L 33.59375 7.515625 
L 32.078125 0 
L 23.484375 0 
Q 15.484375 0 11.546875 3.125 
Q 7.625 6.25 7.625 12.59375 
Q 7.625 13.71875 7.765625 15.0625 
Q 7.90625 16.40625 8.203125 18.015625 
L 14.015625 47.703125 
L 6.390625 47.703125 
L 7.8125 54.6875 
L 15.28125 54.6875 
L 18.3125 70.21875 
L 27.296875 70.21875 
L 24.3125 54.6875 
z
" id="DejaVuSans-Oblique-116"/>
       <path id="LiberationSans-32"/>
       <path d="M 6.203125 25.984375 
Q 6.203125 32.765625 7.21875 38.96875 
Q 8.25 45.171875 10.4375 50.875 
Q 12.640625 56.59375 16.0625 61.953125 
Q 19.484375 67.328125 24.21875 72.46875 
L 32.71875 72.46875 
Q 28.125 67.328125 24.78125 61.9375 
Q 21.4375 56.546875 19.28125 50.796875 
Q 17.140625 45.0625 16.09375 38.859375 
Q 15.046875 32.671875 15.046875 25.875 
Q 15.046875 19.09375 16.09375 12.890625 
Q 17.140625 6.6875 19.28125 0.921875 
Q 21.4375 -4.828125 24.78125 -10.203125 
Q 28.125 -15.578125 32.71875 -20.703125 
L 24.21875 -20.703125 
Q 19.484375 -15.578125 16.0625 -10.203125 
Q 12.640625 -4.828125 10.4375 0.875 
Q 8.25 6.59375 7.21875 12.765625 
Q 6.203125 18.953125 6.203125 25.78125 
z
" id="LiberationSans-40"/>
       <path d="M 37.5 0 
L 37.5 33.5 
Q 37.5 37.359375 37.015625 39.9375 
Q 36.53125 42.53125 35.375 44.109375 
Q 34.234375 45.703125 32.375 46.359375 
Q 30.515625 47.015625 27.828125 47.015625 
Q 25.046875 47.015625 22.796875 45.921875 
Q 20.5625 44.828125 18.96875 42.75 
Q 17.390625 40.671875 16.53125 37.625 
Q 15.671875 34.578125 15.671875 30.609375 
L 15.671875 0 
L 6.9375 0 
L 6.9375 41.546875 
Q 6.9375 43.21875 6.90625 45.046875 
Q 6.890625 46.875 6.828125 48.5 
Q 6.78125 50.140625 6.734375 51.3125 
Q 6.6875 52.484375 6.640625 52.828125 
L 14.9375 52.828125 
Q 14.984375 52.59375 15.03125 51.515625 
Q 15.09375 50.4375 15.15625 49.046875 
Q 15.234375 47.65625 15.28125 46.21875 
Q 15.328125 44.78125 15.328125 43.796875 
L 15.484375 43.796875 
Q 16.65625 46.09375 18.015625 47.953125 
Q 19.390625 49.8125 21.21875 51.09375 
Q 23.046875 52.390625 25.40625 53.09375 
Q 27.78125 53.8125 30.90625 53.8125 
Q 36.921875 53.8125 40.40625 51.421875 
Q 43.890625 49.03125 45.265625 43.796875 
L 45.40625 43.796875 
Q 46.578125 46.09375 48.046875 47.953125 
Q 49.515625 49.8125 51.46875 51.09375 
Q 53.421875 52.390625 55.859375 53.09375 
Q 58.296875 53.8125 61.421875 53.8125 
Q 65.4375 53.8125 68.328125 52.734375 
Q 71.234375 51.65625 73.09375 49.40625 
Q 74.953125 47.171875 75.828125 43.625 
Q 76.703125 40.09375 76.703125 35.203125 
L 76.703125 0 
L 68.015625 0 
L 68.015625 33.5 
Q 68.015625 37.359375 67.53125 39.9375 
Q 67.046875 42.53125 65.890625 44.109375 
Q 64.75 45.703125 62.890625 46.359375 
Q 61.03125 47.015625 58.34375 47.015625 
Q 55.5625 47.015625 53.3125 45.96875 
Q 51.078125 44.921875 49.484375 42.875 
Q 47.90625 40.828125 47.046875 37.75 
Q 46.1875 34.671875 46.1875 30.609375 
L 46.1875 0 
z
" id="LiberationSans-109"/>
       <path d="M 46.390625 14.59375 
Q 46.390625 10.890625 44.9375 7.984375 
Q 43.5 5.078125 40.765625 3.09375 
Q 38.03125 1.125 34.046875 0.0625 
Q 30.078125 -0.984375 24.953125 -0.984375 
Q 20.359375 -0.984375 16.671875 -0.265625 
Q 12.984375 0.4375 10.203125 2 
Q 7.421875 3.5625 5.53125 6.125 
Q 3.65625 8.6875 2.78125 12.40625 
L 10.546875 13.921875 
Q 11.671875 9.671875 15.1875 7.6875 
Q 18.703125 5.71875 24.953125 5.71875 
Q 27.78125 5.71875 30.140625 6.109375 
Q 32.515625 6.5 34.21875 7.453125 
Q 35.9375 8.40625 36.890625 9.984375 
Q 37.84375 11.578125 37.84375 13.921875 
Q 37.84375 16.3125 36.71875 17.84375 
Q 35.59375 19.390625 33.59375 20.40625 
Q 31.59375 21.4375 28.734375 22.1875 
Q 25.875 22.953125 22.46875 23.875 
Q 19.28125 24.703125 16.15625 25.734375 
Q 13.03125 26.765625 10.515625 28.4375 
Q 8.015625 30.125 6.453125 32.609375 
Q 4.890625 35.109375 4.890625 38.875 
Q 4.890625 46.09375 10.03125 49.875 
Q 15.1875 53.65625 25.046875 53.65625 
Q 33.796875 53.65625 38.9375 50.578125 
Q 44.09375 47.515625 45.453125 40.71875 
L 37.546875 39.75 
Q 37.109375 41.796875 35.9375 43.1875 
Q 34.765625 44.578125 33.109375 45.4375 
Q 31.453125 46.296875 29.375 46.65625 
Q 27.296875 47.015625 25.046875 47.015625 
Q 19.09375 47.015625 16.25 45.203125 
Q 13.421875 43.40625 13.421875 39.75 
Q 13.421875 37.59375 14.46875 36.203125 
Q 15.53125 34.8125 17.40625 33.859375 
Q 19.28125 32.90625 21.921875 32.203125 
Q 24.5625 31.5 27.734375 30.71875 
Q 29.828125 30.171875 32.03125 29.5625 
Q 34.234375 28.953125 36.296875 28.09375 
Q 38.375 27.25 40.203125 26.09375 
Q 42.046875 24.953125 43.40625 23.34375 
Q 44.78125 21.734375 45.578125 19.578125 
Q 46.390625 17.4375 46.390625 14.59375 
z
" id="LiberationSans-115"/>
       <path d="M 27.09375 25.78125 
Q 27.09375 18.953125 26.0625 12.765625 
Q 25.046875 6.59375 22.84375 0.875 
Q 20.65625 -4.828125 17.234375 -10.203125 
Q 13.8125 -15.578125 9.078125 -20.703125 
L 0.59375 -20.703125 
Q 5.171875 -15.578125 8.515625 -10.203125 
Q 11.859375 -4.828125 14 0.921875 
Q 16.15625 6.6875 17.203125 12.890625 
Q 18.265625 19.09375 18.265625 25.875 
Q 18.265625 32.671875 17.203125 38.859375 
Q 16.15625 45.0625 14 50.796875 
Q 11.859375 56.546875 8.515625 61.9375 
Q 5.171875 67.328125 0.59375 72.46875 
L 9.078125 72.46875 
Q 13.8125 67.328125 17.234375 61.953125 
Q 20.65625 56.59375 22.84375 50.875 
Q 25.046875 45.171875 26.0625 38.96875 
Q 27.09375 32.765625 27.09375 25.984375 
z
" id="LiberationSans-41"/>
      </defs>
      <use transform="translate(0 0.53125)" xlink:href="#DejaVuSans-Oblique-116"/>
      <use transform="translate(39.208984 0.53125)" xlink:href="#LiberationSans-32"/>
      <use transform="translate(66.992188 0.53125)" xlink:href="#LiberationSans-40"/>
      <use transform="translate(100.292969 0.53125)" xlink:href="#LiberationSans-109"/>
      <use transform="translate(183.59375 0.53125)" xlink:href="#LiberationSans-115"/>
      <use transform="translate(233.59375 0.53125)" xlink:href="#LiberationSans-41"/>
     </g>
    </g>
   </g>
   <g id="matplotlib.axis_2">
    <g id="ytick_1">
     <g id="line2d_7">
      <defs>
       <path d="M 0 0 
L -3.5 0 
" id="mb978c79bff" style="stroke:#ffffff;stroke-width:0.8;"/>
      </defs>
      <g>
       <use style="fill:#ffffff;stroke:#ffffff;stroke-width:0.8;" x="57.6" xlink:href="#mb978c79bff" y="271.488"/>
      </g>
     </g>
     <g id="text_8">
      <!-- 0.65 -->
      <g style="fill:#ffffff;" transform="translate(31.139063 275.111437)scale(0.1 -0.1)">
       <defs>
        <path d="M 9.125 0 
L 9.125 10.6875 
L 18.65625 10.6875 
L 18.65625 0 
z
" id="LiberationSans-46"/>
        <path d="M 51.421875 22.40625 
Q 51.421875 17.234375 49.859375 12.9375 
Q 48.296875 8.640625 45.21875 5.53125 
Q 42.140625 2.4375 37.578125 0.71875 
Q 33.015625 -0.984375 27 -0.984375 
Q 21.578125 -0.984375 17.546875 0.28125 
Q 13.53125 1.5625 10.734375 3.78125 
Q 7.953125 6 6.3125 8.984375 
Q 4.6875 11.96875 4 15.375 
L 12.890625 16.40625 
Q 13.421875 14.453125 14.390625 12.625 
Q 15.375 10.796875 17.0625 9.34375 
Q 18.75 7.90625 21.21875 7.046875 
Q 23.6875 6.203125 27.203125 6.203125 
Q 30.609375 6.203125 33.390625 7.25 
Q 36.1875 8.296875 38.15625 10.34375 
Q 40.140625 12.40625 41.203125 15.375 
Q 42.28125 18.359375 42.28125 22.21875 
Q 42.28125 25.390625 41.25 28.046875 
Q 40.234375 30.71875 38.328125 32.640625 
Q 36.421875 34.578125 33.65625 35.640625 
Q 30.90625 36.71875 27.390625 36.71875 
Q 25.203125 36.71875 23.34375 36.328125 
Q 21.484375 35.9375 19.890625 35.25 
Q 18.3125 34.578125 17.015625 33.671875 
Q 15.71875 32.765625 14.59375 31.78125 
L 6 31.78125 
L 8.296875 68.796875 
L 47.40625 68.796875 
L 47.40625 61.328125 
L 16.3125 61.328125 
L 14.984375 39.5 
Q 17.328125 41.3125 20.84375 42.59375 
Q 24.359375 43.890625 29.203125 43.890625 
Q 34.328125 43.890625 38.421875 42.328125 
Q 42.53125 40.765625 45.40625 37.90625 
Q 48.296875 35.0625 49.859375 31.109375 
Q 51.421875 27.15625 51.421875 22.40625 
z
" id="LiberationSans-53"/>
       </defs>
       <use xlink:href="#LiberationSans-48"/>
       <use x="55.615234" xlink:href="#LiberationSans-46"/>
       <use x="83.398438" xlink:href="#LiberationSans-54"/>
       <use x="139.013672" xlink:href="#LiberationSans-53"/>
      </g>
     </g>
    </g>
    <g id="ytick_2">
     <g id="line2d_8">
      <g>
       <use style="fill:#ffffff;stroke:#ffffff;stroke-width:0.8;" x="57.6" xlink:href="#mb978c79bff" y="229.965509"/>
      </g>
     </g>
     <g id="text_9">
      <!-- 0.70 -->
      <g style="fill:#ffffff;" transform="translate(31.139063 233.588946)scale(0.1 -0.1)">
       <defs>
        <path d="M 50.59375 61.671875 
Q 45.40625 53.765625 41.0625 46.453125 
Q 36.71875 39.15625 33.59375 31.75 
Q 30.46875 24.359375 28.734375 16.578125 
Q 27 8.796875 27 0 
L 17.828125 0 
Q 17.828125 8.25 19.78125 16.1875 
Q 21.734375 24.125 25.046875 31.765625 
Q 28.375 39.40625 32.765625 46.78125 
Q 37.15625 54.15625 42.09375 61.328125 
L 5.125 61.328125 
L 5.125 68.796875 
L 50.59375 68.796875 
z
" id="LiberationSans-55"/>
       </defs>
       <use xlink:href="#LiberationSans-48"/>
       <use x="55.615234" xlink:href="#LiberationSans-46"/>
       <use x="83.398438" xlink:href="#LiberationSans-55"/>
       <use x="139.013672" xlink:href="#LiberationSans-48"/>
      </g>
     </g>
    </g>
    <g id="ytick_3">
     <g id="line2d_9">
      <g>
       <use style="fill:#ffffff;stroke:#ffffff;stroke-width:0.8;" x="57.6" xlink:href="#mb978c79bff" y="188.443017"/>
      </g>
     </g>
     <g id="text_10">
      <!-- 0.75 -->
      <g style="fill:#ffffff;" transform="translate(31.139063 192.066455)scale(0.1 -0.1)">
       <use xlink:href="#LiberationSans-48"/>
       <use x="55.615234" xlink:href="#LiberationSans-46"/>
       <use x="83.398438" xlink:href="#LiberationSans-55"/>
       <use x="139.013672" xlink:href="#LiberationSans-53"/>
      </g>
     </g>
    </g>
    <g id="ytick_4">
     <g id="line2d_10">
      <g>
       <use style="fill:#ffffff;stroke:#ffffff;stroke-width:0.8;" x="57.6" xlink:href="#mb978c79bff" y="146.920526"/>
      </g>
     </g>
     <g id="text_11">
      <!-- 0.80 -->
      <g style="fill:#ffffff;" transform="translate(31.139063 150.543963)scale(0.1 -0.1)">
       <use xlink:href="#LiberationSans-48"/>
       <use x="55.615234" xlink:href="#LiberationSans-46"/>
       <use x="83.398438" xlink:href="#LiberationSans-56"/>
       <use x="139.013672" xlink:href="#LiberationSans-48"/>
      </g>
     </g>
    </g>
    <g id="ytick_5">
     <g id="line2d_11">
      <g>
       <use style="fill:#ffffff;stroke:#ffffff;stroke-width:0.8;" x="57.6" xlink:href="#mb978c79bff" y="105.398035"/>
      </g>
     </g>
     <g id="text_12">
      <!-- 0.85 -->
      <g style="fill:#ffffff;" transform="translate(31.139063 109.021472)scale(0.1 -0.1)">
       <use xlink:href="#LiberationSans-48"/>
       <use x="55.615234" xlink:href="#LiberationSans-46"/>
       <use x="83.398438" xlink:href="#LiberationSans-56"/>
       <use x="139.013672" xlink:href="#LiberationSans-53"/>
      </g>
     </g>
    </g>
    <g id="ytick_6">
     <g id="line2d_12">
      <g>
       <use style="fill:#ffffff;stroke:#ffffff;stroke-width:0.8;" x="57.6" xlink:href="#mb978c79bff" y="63.875543"/>
      </g>
     </g>
     <g id="text_13">
      <!-- 0.90 -->
      <g style="fill:#ffffff;" transform="translate(31.139063 67.498981)scale(0.1 -0.1)">
       <defs>
        <path d="M 50.875 35.796875 
Q 50.875 26.609375 49.140625 19.703125 
Q 47.40625 12.796875 44.1875 8.203125 
Q 40.96875 3.609375 36.34375 1.3125 
Q 31.734375 -0.984375 25.984375 -0.984375 
Q 22.015625 -0.984375 18.84375 -0.171875 
Q 15.671875 0.640625 13.171875 2.34375 
Q 10.6875 4.046875 8.921875 6.78125 
Q 7.171875 9.515625 6.109375 13.375 
L 14.5 14.703125 
Q 15.875 10.25 18.78125 8.171875 
Q 21.6875 6.109375 26.125 6.109375 
Q 29.6875 6.109375 32.640625 7.78125 
Q 35.59375 9.46875 37.671875 12.84375 
Q 39.75 16.21875 40.921875 21.296875 
Q 42.09375 26.375 42.1875 33.203125 
Q 41.15625 30.90625 39.375 29.09375 
Q 37.59375 27.296875 35.328125 26.046875 
Q 33.0625 24.8125 30.421875 24.140625 
Q 27.78125 23.484375 25.09375 23.484375 
Q 20.40625 23.484375 16.625 25.171875 
Q 12.84375 26.859375 10.203125 29.875 
Q 7.5625 32.90625 6.125 37.171875 
Q 4.6875 41.453125 4.6875 46.6875 
Q 4.6875 52 6.21875 56.296875 
Q 7.765625 60.59375 10.6875 63.59375 
Q 13.625 66.609375 17.890625 68.21875 
Q 22.171875 69.828125 27.59375 69.828125 
Q 39.0625 69.828125 44.96875 61.328125 
Q 50.875 52.828125 50.875 35.796875 
z
M 41.3125 44.28125 
Q 41.3125 48.09375 40.40625 51.453125 
Q 39.5 54.828125 37.71875 57.3125 
Q 35.9375 59.8125 33.328125 61.25 
Q 30.71875 62.703125 27.296875 62.703125 
Q 24.125 62.703125 21.578125 61.578125 
Q 19.046875 60.453125 17.28125 58.375 
Q 15.53125 56.296875 14.578125 53.3125 
Q 13.625 50.34375 13.625 46.6875 
Q 13.625 43.21875 14.46875 40.234375 
Q 15.328125 37.25 17.03125 35.078125 
Q 18.75 32.90625 21.28125 31.65625 
Q 23.828125 30.421875 27.203125 30.421875 
Q 29.640625 30.421875 32.15625 31.25 
Q 34.671875 32.078125 36.6875 33.78125 
Q 38.71875 35.5 40.015625 38.109375 
Q 41.3125 40.71875 41.3125 44.28125 
z
" id="LiberationSans-57"/>
       </defs>
       <use xlink:href="#LiberationSans-48"/>
       <use x="55.615234" xlink:href="#LiberationSans-46"/>
       <use x="83.398438" xlink:href="#LiberationSans-57"/>
       <use x="139.013672" xlink:href="#LiberationSans-48"/>
      </g>
     </g>
    </g>
    <g id="text_14">
     <!-- $T_j$ -->
     <g style="fill:#ffffff;" transform="translate(24.039062 178.728)rotate(-90)scale(0.1 -0.1)">
      <defs>
       <path d="M 5.90625 72.90625 
L 67.578125 72.90625 
L 66.015625 64.59375 
L 39.984375 64.59375 
L 27.484375 0 
L 17.578125 0 
L 30.078125 64.59375 
L 4.296875 64.59375 
z
" id="DejaVuSans-Oblique-84"/>
       <path d="M 14.5 54.6875 
L 23.484375 54.6875 
L 12.703125 -0.984375 
L 12.640625 -1.21875 
Q 10.84375 -10.546875 8.5 -14.015625 
Q 6.296875 -17.28125 2.0625 -19.03125 
Q -2.15625 -20.796875 -7.90625 -20.796875 
L -11.28125 -20.796875 
L -9.8125 -13.1875 
L -7.515625 -13.1875 
Q -2.25 -13.1875 -0.015625 -10.984375 
Q 2.203125 -8.796875 3.71875 -0.984375 
z
M 18.703125 75.984375 
L 27.6875 75.984375 
L 25.484375 64.59375 
L 16.5 64.59375 
z
" id="DejaVuSans-Oblique-106"/>
      </defs>
      <use transform="translate(0 0.09375)" xlink:href="#DejaVuSans-Oblique-84"/>
      <use transform="translate(61.083984 -16.3125)scale(0.7)" xlink:href="#DejaVuSans-Oblique-106"/>
     </g>
    </g>
   </g>
   <g id="line2d_13">
    <path clip-path="url(#pe5881316bb)" d="M 73.832727 205.08191 
L 77.89099 223.767031 
L 77.897483 218.814228 
L 78.007868 219.322464 
L 80.033753 228.650076 
L 80.040246 223.697273 
L 80.150631 224.205509 
L 80.631129 226.417827 
L 80.637623 221.465024 
L 80.748007 221.97326 
L 81.19604 224.036097 
L 81.202533 219.083294 
L 81.312918 219.591529 
L 81.858348 222.10281 
L 81.864841 217.150007 
L 81.975226 217.658242 
L 82.34534 219.362325 
L 82.351833 214.409522 
L 82.462218 214.917758 
L 82.89077 216.890907 
L 82.897263 211.938104 
L 83.007648 212.446339 
L 83.449187 214.47928 
L 83.45568 209.526478 
L 83.566065 210.034713 
L 87.104871 226.328138 
L 87.111364 221.375336 
L 87.221749 221.883571 
L 90.137205 235.306962 
L 90.143698 230.354159 
L 90.254083 230.862394 
L 90.403427 231.550007 
L 90.40992 226.597204 
L 90.520305 227.105439 
L 90.818993 228.480664 
L 90.825486 223.527862 
L 90.935871 224.036097 
L 91.35793 225.979349 
L 91.364423 221.026547 
L 91.474808 221.534782 
L 92.137117 224.584194 
L 92.14361 219.631391 
L 92.253995 220.139626 
L 92.429312 220.946824 
L 92.435805 215.994021 
L 92.54619 216.502256 
L 93.09162 219.013536 
L 93.098113 214.060734 
L 93.208498 214.568969 
L 95.695402 226.019211 
L 95.701895 221.066408 
L 95.81228 221.574644 
L 97.54597 229.556927 
L 97.552463 224.604125 
L 97.662848 225.11236 
L 101.091268 240.89755 
L 101.097761 235.944747 
L 101.208146 236.452983 
L 101.818509 239.263225 
L 101.825002 234.310422 
L 101.935387 234.818657 
L 104.714485 247.614228 
L 104.720978 242.661426 
L 104.831363 243.169661 
L 106.422202 250.494228 
L 106.428696 245.541426 
L 106.53908 246.049661 
L 106.662452 246.617689 
L 106.668945 241.664886 
L 106.779329 242.173121 
L 107.000099 243.189592 
L 107.006592 238.236789 
L 107.116977 238.745024 
L 107.831231 242.033606 
L 107.837724 237.080803 
L 107.948109 237.589038 
L 108.220824 238.844678 
L 108.227318 233.891875 
L 108.337702 234.400111 
L 108.883133 236.911391 
L 108.987025 227.424332 
L 109.006504 227.514021 
L 112.915423 245.511529 
L 112.921916 240.558727 
L 113.032301 241.066962 
L 113.136193 241.545301 
L 113.142686 236.592498 
L 113.253071 237.100734 
L 114.045244 240.748069 
L 114.051737 235.795266 
L 114.162121 236.303502 
L 114.681579 238.695197 
L 114.688072 233.742394 
L 114.798457 234.25063 
L 114.837416 234.430007 
L 114.84391 229.477204 
L 114.954294 229.985439 
L 115.532191 232.646201 
L 115.538684 227.693398 
L 115.649069 228.201633 
L 116.116581 230.354159 
L 116.123074 225.401356 
L 116.233459 225.909592 
L 116.512667 227.195128 
L 116.519161 222.242325 
L 116.629545 222.750561 
L 117.032125 224.604125 
L 117.038618 219.651322 
L 117.149003 220.159557 
L 117.564569 222.072913 
L 117.571062 217.120111 
L 117.681447 217.628346 
L 118.122986 219.661287 
L 118.129479 214.708484 
L 118.239864 215.21672 
L 118.960612 218.535197 
L 118.967105 213.582394 
L 119.07749 214.09063 
L 121.479981 225.152221 
L 121.486475 220.199419 
L 121.596859 220.707654 
L 122.635775 225.491045 
L 122.642268 220.538242 
L 122.752653 221.046478 
L 125.531751 233.842048 
L 125.538244 228.889246 
L 125.648629 229.397481 
L 126.070688 231.340734 
L 126.077182 226.387931 
L 126.187566 226.896166 
L 126.655078 229.048692 
L 126.661571 224.095889 
L 126.771956 224.604125 
L 126.986233 225.590699 
L 126.992726 220.637896 
L 127.10311 221.146131 
L 127.531663 223.11928 
L 127.538156 218.166478 
L 127.648541 218.674713 
L 127.960216 220.10973 
L 127.966709 215.156927 
L 128.077094 215.665163 
L 128.687456 218.475405 
L 128.69395 213.522602 
L 128.804334 214.030837 
L 129.161461 215.675128 
L 129.167955 210.722325 
L 129.278339 211.230561 
L 132.336646 225.311668 
L 132.34314 220.358865 
L 132.453524 220.8671 
L 132.537936 221.255751 
L 132.54443 216.302948 
L 132.654814 216.811183 
L 133.018435 218.48537 
L 133.024928 213.532567 
L 133.135313 214.040803 
L 133.615811 216.253121 
L 133.622304 211.300318 
L 133.732689 211.808554 
L 134.323572 214.529107 
L 134.330065 209.576304 
L 134.44045 210.08454 
L 135.063799 212.954574 
L 135.070292 208.001772 
L 135.180677 208.510007 
L 139.031157 226.23845 
L 139.148035 216.811183 
L 139.154528 216.84108 
L 139.966181 220.578104 
L 139.972674 215.625301 
L 140.083059 216.133536 
L 140.518105 218.136581 
L 140.524598 213.183779 
L 140.634983 213.692014 
L 141.258332 216.562048 
L 141.264825 211.609246 
L 141.37521 212.117481 
L 141.524554 212.805093 
L 141.531047 207.852291 
L 141.641432 208.360526 
L 144.043923 219.422118 
L 144.050417 214.469315 
L 144.160801 214.97755 
L 146.121754 224.006201 
L 146.128247 219.053398 
L 146.238632 219.561633 
L 150.679995 240.01063 
L 150.686488 235.057827 
L 150.796873 235.566062 
L 154.42009 252.248138 
L 154.426584 247.295336 
L 154.536968 247.803571 
L 158.354982 265.382533 
L 158.361475 260.42973 
L 158.47186 260.937965 
L 158.595231 261.505993 
L 158.601724 256.55319 
L 158.712109 257.061426 
L 159.153648 259.094367 
L 159.160141 254.141564 
L 159.270526 254.649799 
L 159.608174 256.204401 
L 159.614667 251.251599 
L 159.725052 251.759834 
L 160.043219 253.224747 
L 160.049713 248.271945 
L 160.160097 248.78018 
L 160.887338 252.128554 
L 160.893831 247.175751 
L 161.004216 247.683986 
L 161.393809 249.477758 
L 161.400303 244.524955 
L 161.510687 245.03319 
L 161.854828 246.617689 
L 161.861321 241.664886 
L 161.971706 242.173121 
L 162.70544 245.551391 
L 162.711933 240.598588 
L 162.822318 241.106824 
L 163.237884 243.02018 
L 163.244377 238.067377 
L 163.354762 238.575612 
L 163.789808 240.578657 
L 163.796301 235.625855 
L 163.906686 236.13409 
L 164.510555 238.914436 
L 164.517049 233.961633 
L 164.627433 234.469869 
L 167.133817 246.009799 
L 167.14031 241.056997 
L 167.250695 241.565232 
L 167.848071 244.315682 
L 167.854564 239.362879 
L 167.964949 239.871114 
L 170.334974 250.783225 
L 170.341468 245.830422 
L 170.451852 246.338657 
L 172.185542 254.320941 
L 172.192036 249.368138 
L 172.30242 249.876374 
L 173.659503 256.124678 
L 173.665997 251.171875 
L 173.776381 251.680111 
L 175.308782 258.735612 
L 175.315275 253.78281 
L 175.425659 254.291045 
L 176.523014 259.343502 
L 176.529507 254.390699 
L 176.639892 254.898934 
L 181.724084 278.307654 
L 181.730577 273.354851 
L 181.840962 273.863087 
L 185.483658 290.634851 
L 185.490152 285.682048 
L 185.600536 286.190284 
L 187.619928 295.488 
L 187.730313 286.030837 
L 187.743299 286.09063 
L 188.438074 289.289522 
L 188.444567 284.33672 
L 188.554952 284.844955 
L 188.717282 285.59236 
L 188.723776 280.639557 
L 188.83416 281.147792 
L 189.295179 283.270422 
L 189.301672 278.317619 
L 189.412057 278.825855 
L 189.736718 280.320664 
L 189.743211 275.367862 
L 189.853596 275.876097 
L 190.217216 277.550284 
L 190.22371 272.597481 
L 190.334094 273.105716 
L 190.736674 274.95928 
L 190.743167 270.006478 
L 190.853552 270.514713 
L 191.360023 272.846616 
L 191.366516 267.893813 
L 191.476901 268.402048 
L 191.613259 269.029869 
L 191.619752 264.077066 
L 191.730137 264.585301 
L 192.054798 266.080111 
L 192.061291 261.127308 
L 192.171676 261.635543 
L 192.795025 264.505578 
L 192.801518 259.552775 
L 192.911903 260.06101 
L 193.4898 262.721772 
L 193.496293 257.768969 
L 193.606678 258.277204 
L 193.710569 258.755543 
L 193.717062 253.80274 
L 193.827447 254.310976 
L 196.288378 265.641633 
L 196.294871 260.68883 
L 196.405256 261.197066 
L 197.418198 265.860872 
L 197.424691 260.908069 
L 197.535076 261.416304 
L 197.7039 262.193606 
L 197.710393 257.240803 
L 197.820778 257.749038 
L 198.320756 260.051045 
L 198.327249 255.098242 
L 198.437634 255.606478 
L 198.658403 256.622948 
L 198.664897 251.670145 
L 198.775281 252.178381 
L 199.366164 254.898934 
L 199.372658 249.946131 
L 199.483042 250.454367 
L 199.996007 252.816166 
L 200.0025 247.863363 
L 200.112885 248.371599 
L 200.216776 248.849938 
L 200.22327 243.897135 
L 200.333654 244.40537 
L 203.755582 260.160664 
L 203.762075 255.207862 
L 203.87246 255.716097 
L 204.067256 256.612983 
L 204.07375 251.66018 
L 204.184134 252.168415 
L 204.307505 252.736443 
L 204.313999 247.78364 
L 204.424383 248.291875 
L 204.846443 250.235128 
L 204.852936 245.282325 
L 204.963321 245.790561 
L 205.424339 247.91319 
L 205.430833 242.960388 
L 205.541217 243.468623 
L 206.034702 245.740734 
L 206.041195 240.787931 
L 206.15158 241.296166 
L 206.632079 243.508484 
L 206.638572 238.555682 
L 206.748957 239.063917 
L 207.32036 241.694782 
L 207.326853 236.741979 
L 207.437238 237.250215 
L 207.859297 239.193467 
L 207.86579 234.240664 
L 207.976175 234.7489 
L 208.248891 236.00454 
L 208.255384 231.051737 
L 208.365768 231.559972 
L 208.904706 234.041356 
L 208.911199 229.088554 
L 209.021584 229.596789 
L 209.359231 231.151391 
L 209.365724 226.198588 
L 209.476109 226.706824 
L 210.138418 229.756235 
L 210.144911 224.803433 
L 210.255296 225.311668 
L 212.073398 233.682602 
L 212.079891 228.729799 
L 212.190276 229.238035 
L 213.599304 235.725509 
L 213.605798 230.772706 
L 213.716182 231.280941 
L 215.235596 238.276651 
L 215.242089 233.323848 
L 215.352474 233.832083 
L 216.774489 240.379349 
L 216.780983 235.426547 
L 216.891367 235.934782 
L 217.034218 236.592498 
L 217.040711 231.639696 
L 217.151096 232.147931 
L 217.599128 234.210768 
L 217.605622 229.257965 
L 217.716006 229.766201 
L 218.092613 231.50018 
L 218.099106 226.547377 
L 218.209491 227.055612 
L 218.962705 230.523571 
L 218.969198 225.570768 
L 219.079583 226.079003 
L 219.209447 226.676927 
L 219.21594 221.724125 
L 219.326325 222.23236 
L 219.943181 225.072498 
L 219.949674 220.119696 
L 220.060059 220.627931 
L 220.488612 222.60108 
L 220.495105 217.648277 
L 220.60549 218.156512 
L 221.001576 219.98018 
L 221.008069 215.027377 
L 221.118454 215.535612 
L 221.5535 217.538657 
L 221.559993 212.585855 
L 221.670378 213.09409 
L 222.001532 214.618796 
L 222.008025 209.665993 
L 222.11841 210.174228 
L 222.417098 211.549453 
L 222.423591 206.596651 
L 222.533976 207.104886 
L 223.118366 209.795543 
L 223.124859 204.84274 
L 223.235244 205.350976 
L 224.59882 211.629176 
L 224.605314 206.676374 
L 224.715698 207.184609 
L 226.566266 215.705024 
L 226.57276 210.752221 
L 226.683144 211.260457 
L 226.9169 212.33672 
L 226.923393 207.383917 
L 227.033778 207.892152 
L 227.624661 210.612706 
L 227.631155 205.659903 
L 227.741539 206.168138 
L 228.520726 209.755682 
L 228.527219 204.802879 
L 228.637604 205.311114 
L 228.884346 206.44717 
L 228.890839 201.494367 
L 229.001224 202.002602 
L 229.592107 204.723156 
L 229.5986 199.770353 
L 229.708985 200.278588 
L 230.118058 202.162048 
L 230.124551 197.209246 
L 230.234936 197.717481 
L 230.838806 200.497827 
L 230.845299 195.545024 
L 230.955684 196.05326 
L 231.410209 198.145993 
L 231.416702 193.19319 
L 231.527087 193.701426 
L 232.079011 196.242602 
L 232.085504 191.289799 
L 232.195889 191.798035 
L 232.72184 194.219626 
L 232.728333 189.266824 
L 232.838718 189.775059 
L 236.312591 205.769522 
L 236.319084 200.81672 
L 236.429469 201.324955 
L 236.474921 201.534228 
L 236.481414 196.581426 
L 236.591799 197.089661 
L 236.73465 197.747377 
L 236.741143 192.794574 
L 236.851528 193.30281 
L 237.409945 195.873882 
L 237.416438 190.92108 
L 237.526823 191.429315 
L 238.202118 194.538519 
L 238.208611 189.585716 
L 238.318996 190.093952 
L 238.598204 191.379488 
L 238.604698 186.426685 
L 238.715082 186.93492 
L 239.474789 190.432775 
L 239.481282 185.479972 
L 239.591667 185.988208 
L 245.630362 213.791668 
L 245.636856 208.838865 
L 245.74724 209.3471 
L 246.058915 210.782118 
L 246.065408 205.829315 
L 246.175793 206.33755 
L 246.5524 208.071529 
L 246.558893 203.118727 
L 246.669278 203.626962 
L 247.214708 206.138242 
L 247.221202 201.185439 
L 247.331586 201.693675 
L 247.890003 204.264747 
L 247.896497 199.311945 
L 248.006881 199.82018 
L 248.435434 201.793329 
L 248.441927 196.840526 
L 248.552312 197.348761 
L 248.623737 197.677619 
L 248.63023 192.724817 
L 248.740615 193.233052 
L 252.039171 208.420318 
L 252.045665 203.467516 
L 252.156049 203.975751 
L 252.604082 206.038588 
L 252.610575 201.085785 
L 252.72096 201.594021 
L 253.000168 202.879557 
L 253.006661 197.926754 
L 253.117046 198.43499 
L 253.500146 200.198865 
L 253.506639 195.246062 
L 253.617024 195.754298 
L 254.305305 198.923294 
L 254.311799 193.970491 
L 254.422183 194.478727 
L 255.013067 197.19928 
L 255.01956 192.246478 
L 255.129944 192.754713 
L 255.58447 194.847446 
L 255.590963 189.894644 
L 255.701348 190.402879 
L 256.233792 192.854367 
L 256.240285 187.901564 
L 256.35067 188.409799 
L 256.870128 190.801495 
L 256.876621 185.848692 
L 256.987006 186.356927 
L 257.655807 189.436235 
L 257.662301 184.483433 
L 257.772685 184.991668 
L 258.019428 186.127723 
L 258.025921 181.17492 
L 258.136306 181.683156 
L 258.779135 184.642879 
L 258.785628 179.690076 
L 258.896013 180.198311 
L 262.70104 197.717481 
L 262.707533 192.764678 
L 262.817918 193.272913 
L 265.590523 206.038588 
L 265.597016 201.085785 
L 265.707401 201.594021 
L 265.759347 201.83319 
L 265.76584 196.880388 
L 265.876225 197.388623 
L 266.480094 200.168969 
L 266.486588 195.216166 
L 266.596972 195.724401 
L 267.376159 199.311945 
L 267.382652 194.359142 
L 267.493037 194.867377 
L 267.86315 196.57146 
L 267.869644 191.618657 
L 267.980028 192.126893 
L 268.330662 193.741287 
L 268.337156 188.788484 
L 268.44754 189.29672 
L 269.122835 192.405924 
L 269.129328 187.453121 
L 269.239713 187.961356 
L 269.6358 189.785024 
L 269.642293 184.832221 
L 269.752678 185.340457 
L 270.499398 188.778519 
L 270.505891 183.825716 
L 270.616276 184.333952 
L 271.122747 186.665855 
L 271.12924 181.713052 
L 271.239625 182.221287 
L 274.648566 197.916789 
L 274.655059 192.963986 
L 274.765444 193.472221 
L 275.330354 196.07319 
L 275.336848 191.120388 
L 275.447232 191.628623 
L 275.732934 192.944055 
L 275.739427 187.991253 
L 275.849812 188.499488 
L 276.362776 190.861287 
L 276.36927 185.908484 
L 276.479654 186.41672 
L 277.226375 189.854782 
L 277.232868 184.901979 
L 277.343253 185.410215 
L 277.804271 187.532844 
L 277.810765 182.580042 
L 277.921149 183.088277 
L 280.427533 194.628208 
L 280.434026 189.675405 
L 280.544411 190.18364 
L 285.044213 210.901702 
L 285.050706 205.9489 
L 285.161091 206.457135 
L 285.245502 206.845785 
L 285.251996 201.892983 
L 285.36238 202.401218 
L 285.992223 205.301149 
L 285.998716 200.348346 
L 286.109101 200.856581 
L 286.498694 202.650353 
L 286.505187 197.69755 
L 286.615572 198.205785 
L 287.290867 201.31499 
L 287.29736 196.362187 
L 287.407745 196.870422 
L 288.096026 200.039419 
L 288.10252 195.086616 
L 288.212904 195.594851 
L 289.933608 203.517343 
L 289.940101 198.56454 
L 290.050486 199.072775 
L 291.537433 205.919003 
L 291.543927 200.966201 
L 291.654311 201.474436 
L 291.764696 201.982671 
L 291.771189 197.029869 
L 291.881574 197.538104 
L 292.407525 199.959696 
L 292.414018 195.006893 
L 292.524403 195.515128 
L 292.660761 196.142948 
L 292.667254 191.190145 
L 292.777639 191.698381 
L 293.199698 193.641633 
L 293.206191 188.68883 
L 293.316576 189.197066 
L 293.907459 191.917619 
L 293.913952 186.964817 
L 294.024337 187.473052 
L 294.660673 190.402879 
L 294.667166 185.450076 
L 294.777551 185.958311 
L 295.303501 188.379903 
L 295.309995 183.4271 
L 295.420379 183.935336 
L 296.115154 187.134228 
L 296.121647 182.181426 
L 296.232032 182.689661 
L 296.381376 183.377273 
L 296.387869 178.424471 
L 296.498254 178.932706 
L 296.777463 180.218242 
L 296.783956 175.265439 
L 296.894341 175.773675 
L 297.439771 178.284955 
L 297.446264 173.332152 
L 297.556649 173.840388 
L 298.192985 176.770215 
L 298.199478 171.817412 
L 298.309863 172.325647 
L 298.589071 173.611183 
L 298.595564 168.658381 
L 298.705949 169.166616 
L 299.192941 171.40883 
L 299.199434 166.456028 
L 299.309819 166.964263 
L 299.822783 169.326062 
L 299.829276 164.37326 
L 299.939661 164.881495 
L 300.277309 166.436097 
L 300.283802 161.483294 
L 300.394187 161.991529 
L 300.96559 164.622394 
L 300.972083 159.669592 
L 301.082468 160.177827 
L 304.569327 176.232083 
L 304.575821 171.27928 
L 304.686205 171.787516 
L 304.751138 172.086478 
L 304.757631 167.133675 
L 304.868016 167.64191 
L 305.452405 170.332567 
L 305.458899 165.379765 
L 305.569283 165.888 
L 306.108221 168.369384 
L 306.114714 163.416581 
L 306.225099 163.924817 
L 306.725077 166.226824 
L 306.73157 161.274021 
L 306.841955 161.782256 
L 307.341933 164.084263 
L 307.348426 159.13146 
L 307.458811 159.639696 
L 308.26397 163.346824 
L 308.270463 158.394021 
L 308.380848 158.902256 
L 308.796414 160.815612 
L 308.802907 155.86281 
L 308.913292 156.371045 
L 309.63404 159.689522 
L 309.640533 154.73672 
L 309.750918 155.244955 
L 310.445692 158.443848 
L 310.452185 153.491045 
L 310.56257 153.99928 
L 311.120987 156.570353 
L 311.12748 151.61755 
L 311.237865 152.125785 
L 311.789789 154.666962 
L 311.796282 149.714159 
L 311.906667 150.222394 
L 312.354699 152.285232 
L 312.361192 147.332429 
L 312.471577 147.840664 
L 313.159859 151.009661 
L 313.166352 146.056858 
L 313.276737 146.565093 
L 313.939045 149.614505 
L 313.945538 144.661702 
L 314.055923 145.169938 
L 319.542695 170.432221 
L 319.549188 165.479419 
L 319.659573 165.987654 
L 323.003581 181.384194 
L 323.010074 176.431391 
L 323.120459 176.939626 
L 324.386637 182.769384 
L 324.39313 177.816581 
L 324.503515 178.324817 
L 327.204695 190.761633 
L 327.211188 185.80883 
L 327.321573 186.317066 
L 327.47741 187.034574 
L 327.483904 182.081772 
L 327.594288 182.590007 
L 328.159199 185.190976 
L 328.165692 180.238173 
L 328.276077 180.746408 
L 328.840987 183.347377 
L 328.84748 178.394574 
L 328.957865 178.90281 
L 329.282526 180.397619 
L 329.289019 175.444817 
L 329.399404 175.953052 
L 330.029246 178.852983 
L 330.035739 173.90018 
L 330.146124 174.408415 
L 331.633072 181.254644 
L 331.639565 176.301841 
L 331.74995 176.810076 
L 333.743368 185.988208 
L 333.749862 181.035405 
L 333.860246 181.54364 
L 333.899206 181.723017 
L 333.905699 176.770215 
L 334.016084 177.27845 
L 334.568007 179.819626 
L 334.574501 174.866824 
L 334.684885 175.375059 
L 335.210836 177.796651 
L 335.21733 172.843848 
L 335.327714 173.352083 
L 335.76276 175.355128 
L 335.769253 170.402325 
L 335.879638 170.910561 
L 336.321177 172.943502 
L 336.32767 167.990699 
L 336.438055 168.498934 
L 336.827648 170.292706 
L 336.834141 165.339903 
L 336.944526 165.848138 
L 340.308015 181.334367 
L 340.314508 176.381564 
L 340.424893 176.889799 
L 340.60021 177.696997 
L 340.606703 172.744194 
L 340.717088 173.252429 
L 341.100188 175.016304 
L 341.106681 170.063502 
L 341.217066 170.571737 
L 341.924827 173.830422 
L 341.93132 168.877619 
L 342.041705 169.385855 
L 342.489737 171.448692 
L 342.49623 166.495889 
L 342.606615 167.004125 
L 343.08062 169.186547 
L 343.087113 164.233744 
L 343.197498 164.741979 
L 343.580598 166.505855 
L 343.587091 161.553052 
L 343.697476 162.061287 
L 344.2494 164.602464 
L 344.255893 159.649661 
L 344.366278 160.157896 
L 345.054559 163.326893 
L 345.061052 158.37409 
L 345.171437 158.882325 
L 345.677908 161.214228 
L 345.684401 156.261426 
L 345.794786 156.769661 
L 346.353203 159.340734 
L 346.359696 154.387931 
L 346.470081 154.896166 
L 349.924475 170.800941 
L 349.930968 165.848138 
L 350.041353 166.356374 
L 350.294588 167.522325 
L 350.301081 162.569522 
L 350.411466 163.077758 
L 351.138707 166.426131 
L 351.1452 161.473329 
L 351.255585 161.981564 
L 351.723097 164.13409 
L 351.72959 159.181287 
L 351.839975 159.689522 
L 352.469817 162.589453 
L 352.47631 157.636651 
L 352.586695 158.144886 
L 364.371891 212.406478 
L 364.378384 207.453675 
L 364.488769 207.96191 
L 370.020993 233.433467 
L 370.027486 228.480664 
L 370.137871 228.9889 
L 376.066181 256.284125 
L 376.072675 251.331322 
L 376.183059 251.839557 
L 379.079036 265.17326 
L 379.085529 260.220457 
L 379.195914 260.728692 
L 379.351751 261.446201 
L 379.358244 256.493398 
L 379.468629 257.001633 
L 379.903675 259.004678 
L 379.910168 254.051875 
L 380.020553 254.560111 
L 380.371187 256.174505 
L 380.37768 251.221702 
L 380.488065 251.729938 
L 380.845192 253.374228 
L 380.851685 248.421426 
L 380.96207 248.929661 
L 381.260758 250.304886 
L 381.267251 245.352083 
L 381.377636 245.860318 
L 381.942546 248.461287 
L 381.949039 243.508484 
L 382.059424 244.01672 
L 385.150197 258.247308 
L 385.15669 253.294505 
L 385.267075 253.80274 
L 385.793026 256.224332 
L 385.799519 251.271529 
L 385.909904 251.779765 
L 386.013796 252.258104 
L 386.020289 247.305301 
L 386.130674 247.813536 
L 386.552733 249.756789 
L 386.559226 244.803986 
L 386.669611 245.312221 
L 387.176082 247.644125 
L 387.182575 242.691322 
L 387.29296 243.199557 
L 387.909816 246.039696 
L 387.916309 241.086893 
L 388.026694 241.595128 
L 388.494206 243.747654 
L 388.500699 238.794851 
L 388.611084 239.303087 
L 393.8641 263.489107 
L 393.870593 258.536304 
L 393.980978 259.04454 
L 395.467925 265.890768 
L 395.474418 260.937965 
L 395.584803 261.446201 
L 395.708174 262.014228 
L 395.714667 257.061426 
L 395.825052 257.569661 
L 395.902971 257.928415 
L 395.909464 252.975612 
L 396.019849 253.483848 
L 396.312044 254.829176 
L 396.318537 249.876374 
L 396.428922 250.384609 
L 397.123696 253.583502 
L 397.13019 248.630699 
L 397.240574 249.138934 
L 397.428878 250.005924 
L 397.435371 245.053121 
L 397.545756 245.561356 
L 398.130146 248.252014 
L 398.136639 243.299211 
L 398.247024 243.807446 
L 398.298969 244.046616 
L 398.305463 239.093813 
L 398.415847 239.602048 
L 398.487273 239.930907 
L 398.487273 239.930907 
" style="fill:none;stroke:#9a72ac;stroke-linecap:round;stroke-width:1.5;"/>
   </g>
   <g id="line2d_14">
    <path clip-path="url(#pe5881316bb)" d="M 73.832727 135.324125 
L 73.988565 136.041633 
L 73.995058 131.08883 
L 74.105443 131.597066 
L 74.546982 133.630007 
L 74.553475 128.677204 
L 74.66386 129.185439 
L 75.072932 131.0689 
L 75.079426 126.116097 
L 75.18981 126.624332 
L 75.787187 129.374782 
L 75.79368 124.421979 
L 75.904065 124.930215 
L 76.566373 127.979626 
L 76.572866 123.026824 
L 76.683251 123.535059 
L 77.053365 125.239142 
L 77.059858 120.286339 
L 77.170243 120.794574 
L 77.832551 123.843986 
L 77.839044 118.891183 
L 77.949429 119.399419 
L 78.358502 121.282879 
L 78.364995 116.330076 
L 78.47538 116.838311 
L 78.949385 119.020734 
L 78.955878 114.067931 
L 79.066263 114.576166 
L 79.910382 118.462671 
L 79.916875 113.509869 
L 80.02726 114.018104 
L 82.884277 127.172429 
L 82.89077 122.219626 
L 83.001155 122.727862 
L 83.812808 126.464886 
L 83.819301 121.512083 
L 83.929686 122.020318 
L 84.390704 124.142948 
L 84.397197 119.190145 
L 84.507582 119.698381 
L 85.182877 122.807585 
L 85.18937 117.854782 
L 85.299755 118.363017 
L 85.936091 121.292844 
L 85.942584 116.340042 
L 86.052969 116.848277 
L 86.702291 119.837896 
L 86.708784 114.885093 
L 86.819169 115.393329 
L 87.494464 118.502533 
L 87.500957 113.54973 
L 87.611342 114.057965 
L 88.325596 117.346547 
L 88.332089 112.393744 
L 88.442474 112.901979 
L 89.111276 115.981287 
L 89.117769 111.028484 
L 89.228154 111.53672 
L 89.84501 114.376858 
L 89.851503 109.424055 
L 89.961888 109.932291 
L 92.539696 121.80108 
L 92.54619 116.848277 
L 92.656574 117.356512 
L 93.559132 121.512083 
L 93.565625 116.55928 
L 93.67601 117.067516 
L 94.221441 119.578796 
L 94.227934 114.625993 
L 94.338318 115.134228 
L 94.929202 117.854782 
L 94.935695 112.901979 
L 95.04608 113.410215 
L 95.630469 116.100872 
L 95.636963 111.148069 
L 95.747347 111.656304 
L 96.396669 114.645924 
L 96.403163 109.693121 
L 96.513547 110.201356 
L 96.987553 112.383779 
L 96.994046 107.430976 
L 97.104431 107.939211 
L 97.578436 110.121633 
L 97.584929 105.16883 
L 97.695314 105.677066 
L 98.338142 108.636789 
L 98.344636 103.683986 
L 98.45502 104.192221 
L 98.954998 106.494228 
L 98.961492 101.541426 
L 99.071876 102.049661 
L 99.617307 104.560941 
L 99.6238 99.608138 
L 99.734185 100.116374 
L 100.357534 102.986408 
L 100.364027 98.033606 
L 100.474412 98.541841 
L 101.052309 101.202602 
L 101.058802 96.249799 
L 101.169187 96.758035 
L 101.734097 99.359003 
L 101.74059 94.406201 
L 101.850975 94.914436 
L 102.078238 95.960803 
L 102.084731 91.008 
L 102.195116 91.516235 
L 103.097673 95.671806 
L 103.104167 90.719003 
L 103.214551 91.227239 
L 103.811928 93.977689 
L 103.818421 89.024886 
L 103.928806 89.533121 
L 104.324892 91.356789 
L 104.331385 86.403986 
L 104.44177 86.912221 
L 105.084599 89.871945 
L 105.091092 84.919142 
L 105.201477 85.427377 
L 105.493672 86.772706 
L 105.500165 81.819903 
L 105.61055 82.328138 
L 107.779285 92.313467 
L 107.785779 87.360664 
L 107.896163 87.8689 
L 109.727252 96.299626 
L 109.733745 91.346824 
L 109.84413 91.855059 
L 110.051913 92.811737 
L 110.058406 87.858934 
L 110.168791 88.36717 
L 110.97395 92.074298 
L 110.980443 87.121495 
L 111.090828 87.62973 
L 111.889494 91.306962 
L 111.895987 86.354159 
L 112.006372 86.862394 
L 112.597255 89.582948 
L 112.603749 84.630145 
L 112.714133 85.138381 
L 119.467083 116.230422 
L 119.473576 111.277619 
L 119.583961 111.785855 
L 119.772264 112.652844 
L 119.778757 107.700042 
L 119.889142 108.208277 
L 120.629369 111.616443 
L 120.635863 106.66364 
L 120.746247 107.171875 
L 121.116361 108.875958 
L 121.122854 103.923156 
L 121.233239 104.431391 
L 121.700751 106.583917 
L 121.707244 101.631114 
L 121.817629 102.139349 
L 122.499417 105.27845 
L 122.50591 100.325647 
L 122.616295 100.833882 
L 123.29159 103.943087 
L 123.298083 98.990284 
L 123.408468 99.498519 
L 124.018831 102.308761 
L 124.025324 97.355958 
L 124.135709 97.864194 
L 124.64218 100.196097 
L 124.648673 95.243294 
L 124.759058 95.751529 
L 125.40838 98.741149 
L 125.414873 93.788346 
L 125.525258 94.296581 
L 129.180941 111.128138 
L 129.187434 106.175336 
L 129.297819 106.683571 
L 129.323792 106.803156 
L 129.330285 101.850353 
L 129.44067 102.358588 
L 129.739358 103.733813 
L 129.745851 98.78101 
L 129.856236 99.289246 
L 130.79126 103.594298 
L 130.797753 98.641495 
L 130.908138 99.14973 
L 131.505514 101.90018 
L 131.512007 96.947377 
L 131.622392 97.455612 
L 132.167823 99.966893 
L 132.174316 95.01409 
L 132.284701 95.522325 
L 135.713121 111.307516 
L 135.719614 106.354713 
L 135.829999 106.862948 
L 136.323484 109.135059 
L 136.329977 104.182256 
L 136.440362 104.690491 
L 137.316947 108.726478 
L 137.32344 103.773675 
L 137.433825 104.28191 
L 138.167559 107.66018 
L 138.174052 102.707377 
L 138.284437 103.215612 
L 142.199849 121.243017 
L 142.206342 116.290215 
L 142.316727 116.79845 
L 142.569962 117.964401 
L 142.576456 113.011599 
L 142.68684 113.519834 
L 143.206298 115.911529 
L 143.212791 110.958727 
L 143.323176 111.466962 
L 143.946525 114.336997 
L 143.953018 109.384194 
L 144.063403 109.892429 
L 144.699739 112.822256 
L 144.706232 107.869453 
L 144.816617 108.377689 
L 145.089332 109.633329 
L 145.095825 104.680526 
L 145.20621 105.188761 
L 146.063315 109.135059 
L 146.069808 104.182256 
L 146.180193 104.690491 
L 146.829515 107.680111 
L 146.836008 102.727308 
L 146.946393 103.235543 
L 147.452864 105.567446 
L 147.459358 100.614644 
L 147.569742 101.122879 
L 148.342436 104.680526 
L 148.348929 99.727723 
L 148.459314 100.235958 
L 149.05669 102.986408 
L 149.063183 98.033606 
L 149.173568 98.541841 
L 149.608614 100.544886 
L 149.615107 95.592083 
L 149.725492 96.100318 
L 150.634543 100.285785 
L 150.641036 95.332983 
L 150.751421 95.841218 
L 151.400743 98.830837 
L 151.407236 93.878035 
L 151.517621 94.38627 
L 152.063051 96.89755 
L 152.069544 91.944747 
L 152.179929 92.452983 
L 152.952622 96.01063 
L 152.959116 91.057827 
L 153.0695 91.566062 
L 153.562985 93.838173 
L 153.569478 88.88537 
L 153.679863 89.393606 
L 154.394117 92.682187 
L 154.400611 87.729384 
L 154.510995 88.237619 
L 155.036946 90.659211 
L 155.043439 85.706408 
L 155.153824 86.214644 
L 155.887558 89.592913 
L 155.894051 84.640111 
L 156.004436 85.148346 
L 156.530387 87.569938 
L 156.53688 82.617135 
L 156.647265 83.12537 
L 157.497877 87.041772 
L 157.50437 82.088969 
L 157.614755 82.597204 
L 158.186158 85.228069 
L 158.192652 80.275266 
L 158.303036 80.783502 
L 164.919628 111.247723 
L 164.926122 106.29492 
L 165.036506 106.803156 
L 165.40662 108.507239 
L 165.413113 103.554436 
L 165.523498 104.062671 
L 165.99101 106.215197 
L 165.997503 101.262394 
L 166.107888 101.77063 
L 166.763703 104.790145 
L 166.770196 99.837343 
L 166.880581 100.345578 
L 167.250695 102.049661 
L 167.257188 97.096858 
L 167.367573 97.605093 
L 167.90651 100.086478 
L 167.913003 95.133675 
L 168.023388 95.64191 
L 168.724656 98.870699 
L 168.731149 93.917896 
L 168.841534 94.426131 
L 169.029837 95.293121 
L 169.03633 90.340318 
L 169.146715 90.848554 
L 170.153164 95.482464 
L 170.159657 90.529661 
L 170.270042 91.037896 
L 170.484318 92.024471 
L 170.490812 87.071668 
L 170.601196 87.579903 
L 171.399863 91.257135 
L 171.406356 86.304332 
L 171.516741 86.812567 
L 172.153076 89.742394 
L 172.159569 84.789592 
L 172.269954 85.297827 
L 172.990702 88.616304 
L 172.997195 83.663502 
L 173.10758 84.171737 
L 173.464707 85.816028 
L 173.4712 80.863225 
L 173.581585 81.37146 
L 174.399731 85.138381 
L 174.406224 80.185578 
L 174.516609 80.693813 
L 175.029573 83.055612 
L 175.036066 78.10281 
L 175.146451 78.611045 
L 175.373714 79.657412 
L 175.380207 74.704609 
L 175.490592 75.212844 
L 176.35419 79.189038 
L 176.360683 74.236235 
L 176.471068 74.744471 
L 177.159349 77.913467 
L 177.165843 72.960664 
L 177.276227 73.4689 
L 177.789192 75.830699 
L 177.795685 70.877896 
L 177.90607 71.386131 
L 178.626817 74.704609 
L 178.633311 69.751806 
L 178.743695 70.260042 
L 179.126795 72.023917 
L 179.133289 67.071114 
L 179.243673 67.579349 
L 180.256616 72.243156 
L 180.263109 67.290353 
L 180.373494 67.798588 
L 180.944897 70.429453 
L 180.95139 65.476651 
L 181.061775 65.984886 
L 181.711097 68.974505 
L 181.71759 64.021702 
L 181.827975 64.529938 
L 182.30198 66.71236 
L 182.308474 61.759557 
L 182.418858 62.267792 
L 183.113633 65.466685 
L 183.120126 60.513882 
L 183.230511 61.022118 
L 183.840874 63.83236 
L 183.847367 58.879557 
L 183.957752 59.387792 
L 184.60058 62.347516 
L 184.607074 57.394713 
L 184.717458 57.902948 
L 185.431713 61.191529 
L 185.438206 56.238727 
L 185.548591 56.746962 
L 186.035582 58.989176 
L 186.042075 54.036374 
L 186.15246 54.544609 
L 187.016059 58.520803 
L 187.022552 53.568 
L 187.132937 54.076235 
L 194.100162 86.154851 
L 194.106656 81.202048 
L 194.21704 81.710284 
L 194.671566 83.803017 
L 194.678059 78.850215 
L 194.788444 79.35845 
L 195.392313 82.138796 
L 195.398807 77.185993 
L 195.509191 77.694228 
L 195.983196 79.876651 
L 195.98969 74.923848 
L 196.100074 75.432083 
L 196.723424 78.302118 
L 196.729917 73.349315 
L 196.840302 73.85755 
L 200.58689 91.107654 
L 200.593383 86.154851 
L 200.703768 86.663087 
L 200.755714 86.902256 
L 200.762207 81.949453 
L 200.872592 82.457689 
L 201.489448 85.297827 
L 201.495941 80.345024 
L 201.606326 80.85326 
L 202.255648 83.842879 
L 202.262141 78.890076 
L 202.372526 79.398311 
L 203.255604 83.464194 
L 203.262097 78.511391 
L 203.372482 79.019626 
L 210.372174 111.247723 
L 210.378667 106.29492 
L 210.489052 106.803156 
L 210.729301 107.909315 
L 210.735794 102.956512 
L 210.846179 103.464747 
L 211.547447 106.693536 
L 211.55394 101.740734 
L 211.664325 102.248969 
L 212.09937 104.252014 
L 212.105864 99.299211 
L 212.216248 99.807446 
L 213.040887 103.604263 
L 213.047381 98.65146 
L 213.157765 99.159696 
L 213.586318 101.132844 
L 213.592811 96.180042 
L 213.703196 96.688277 
L 214.294079 99.40883 
L 214.300572 94.456028 
L 214.410957 94.964263 
L 215.027813 97.804401 
L 215.034306 92.851599 
L 215.144691 93.359834 
L 215.813493 96.439142 
L 215.819986 91.486339 
L 215.930371 91.994574 
L 216.404376 94.176997 
L 216.410869 89.224194 
L 216.521254 89.732429 
L 223.365108 121.243017 
L 223.371602 116.290215 
L 223.481986 116.79845 
L 223.683276 117.725232 
L 223.68977 112.772429 
L 223.800154 113.280664 
L 224.261173 115.403294 
L 224.267666 110.450491 
L 224.378051 110.958727 
L 225.131265 114.426685 
L 225.137758 109.473882 
L 225.248142 109.982118 
L 226.046809 113.659349 
L 226.053302 108.706547 
L 226.163687 109.214782 
L 233.091953 141.114021 
L 233.098446 136.161218 
L 233.208831 136.669453 
L 233.345189 137.297273 
L 233.351682 132.344471 
L 233.462067 132.852706 
L 234.03347 135.483571 
L 234.039963 130.530768 
L 234.150348 131.039003 
L 234.643833 133.311114 
L 234.650326 128.358311 
L 234.760711 128.866547 
L 235.539897 132.45409 
L 235.546391 127.501287 
L 235.656775 128.009522 
L 236.091821 130.012567 
L 236.098314 125.059765 
L 236.208699 125.568 
L 239.591667 141.143917 
L 239.59816 136.191114 
L 239.708545 136.699349 
L 239.844903 137.32717 
L 239.851396 132.374367 
L 239.961781 132.882602 
L 240.598116 135.812429 
L 240.60461 130.859626 
L 240.714994 131.367862 
L 241.247438 133.819349 
L 241.253932 128.866547 
L 241.364316 129.374782 
L 242.072078 132.633467 
L 242.078571 127.680664 
L 242.188955 128.1889 
L 242.649974 130.311529 
L 242.656467 125.358727 
L 242.766852 125.866962 
L 243.533052 129.394713 
L 243.539545 124.44191 
L 243.64993 124.950145 
L 244.500542 128.866547 
L 244.507035 123.913744 
L 244.61742 124.421979 
L 245.357647 127.830145 
L 245.36414 122.877343 
L 245.474525 123.385578 
L 245.890091 125.298934 
L 245.896585 120.346131 
L 246.006969 120.854367 
L 249.227607 135.682879 
L 249.2341 130.730076 
L 249.344485 131.238311 
L 249.422403 131.597066 
L 249.428897 126.644263 
L 249.539281 127.152498 
L 250.078219 129.633882 
L 250.084712 124.68108 
L 250.195097 125.189315 
L 250.708061 127.551114 
L 250.714554 122.598311 
L 250.824939 123.106547 
L 251.234012 124.990007 
L 251.240505 120.037204 
L 251.35089 120.545439 
L 251.922293 123.176304 
L 251.928787 118.223502 
L 252.039171 118.731737 
L 255.668882 135.443709 
L 255.675375 130.490907 
L 255.78576 130.999142 
L 258.960945 145.618381 
L 258.967438 140.665578 
L 259.077823 141.173813 
L 259.116782 141.35319 
L 259.123275 136.400388 
L 259.23366 136.908623 
L 259.882982 139.898242 
L 259.889475 134.945439 
L 259.99986 135.453675 
L 260.558277 138.024747 
L 260.56477 133.071945 
L 260.675155 133.58018 
L 261.408889 136.95845 
L 261.415382 132.005647 
L 261.525767 132.513882 
L 262.032238 134.845785 
L 262.038731 129.892983 
L 262.149116 130.401218 
L 262.688053 132.882602 
L 262.694547 127.929799 
L 262.804931 128.438035 
L 263.239977 130.44108 
L 263.24647 125.488277 
L 263.356855 125.996512 
L 263.804887 128.059349 
L 263.811381 123.106547 
L 263.921765 123.614782 
L 264.668486 127.052844 
L 264.674979 122.100042 
L 264.785364 122.608277 
L 272.103224 156.301287 
L 272.109717 151.348484 
L 272.220102 151.85672 
L 272.648654 153.829869 
L 272.655147 148.877066 
L 272.765532 149.385301 
L 273.24603 151.597619 
L 273.252524 146.644817 
L 273.362908 147.153052 
L 273.973271 149.963294 
L 273.979764 145.010491 
L 274.090149 145.518727 
L 274.583634 147.790837 
L 274.590127 142.838035 
L 274.700512 143.34627 
L 274.992707 144.691599 
L 274.9992 139.738796 
L 275.109585 140.247031 
L 278.525019 155.972429 
L 278.531512 151.019626 
L 278.641897 151.527862 
L 278.966558 153.022671 
L 278.973051 148.069869 
L 279.083436 148.578104 
L 279.752238 151.657412 
L 279.758731 146.704609 
L 279.869116 147.212844 
L 280.3626 149.484955 
L 280.369094 144.532152 
L 280.479478 145.040388 
L 280.732714 146.206339 
L 280.739207 141.253536 
L 280.849592 141.761772 
L 281.583326 145.140042 
L 281.589819 140.187239 
L 281.700204 140.695474 
L 282.550816 144.611875 
L 282.557309 139.659073 
L 282.667694 140.167308 
L 282.998848 141.692014 
L 283.005341 136.739211 
L 283.115726 137.247446 
L 283.589731 139.429869 
L 283.596224 134.477066 
L 283.706609 134.985301 
L 283.979324 136.240941 
L 283.985818 131.288138 
L 284.096202 131.796374 
L 284.706565 134.606616 
L 284.713058 129.653813 
L 284.823443 130.162048 
L 288.297316 146.156512 
L 288.336276 136.370491 
L 288.420687 136.759142 
L 289.121955 139.987931 
L 289.128448 135.035128 
L 289.238833 135.543363 
L 289.823223 138.234021 
L 289.829716 133.281218 
L 289.940101 133.789453 
L 290.440079 136.09146 
L 290.446572 131.138657 
L 290.556957 131.646893 
L 291.186799 134.546824 
L 291.193293 129.594021 
L 291.303677 130.102256 
L 292.530896 135.752637 
L 292.537389 130.799834 
L 292.647774 131.308069 
L 296.14762 147.422118 
L 296.154113 142.469315 
L 296.264498 142.97755 
L 301.218826 165.788346 
L 301.225319 160.835543 
L 301.335704 161.343779 
L 301.679844 162.928277 
L 301.686337 157.975474 
L 301.796722 158.483709 
L 302.329166 160.935197 
L 302.33566 155.982394 
L 302.446044 156.49063 
L 302.952515 158.822533 
L 302.959009 153.86973 
L 303.069393 154.377965 
L 303.86806 158.055197 
L 303.874553 153.102394 
L 303.984938 153.61063 
L 312.09497 190.950976 
L 312.101464 185.998173 
L 312.211848 186.506408 
L 314.315652 196.192775 
L 314.322145 191.239972 
L 314.43253 191.748208 
L 314.581874 192.43582 
L 314.588367 187.483017 
L 314.698752 187.991253 
L 315.172757 190.173675 
L 315.17925 185.220872 
L 315.289635 185.729107 
L 316.12726 189.585716 
L 316.133754 184.632913 
L 316.244138 185.141149 
L 316.698664 187.233882 
L 316.705157 182.28108 
L 316.815542 182.789315 
L 317.588235 186.346962 
L 317.594728 181.394159 
L 317.705113 181.902394 
L 318.172625 184.05492 
L 318.179118 179.102118 
L 318.289503 179.610353 
L 318.873893 182.30101 
L 318.880386 177.348208 
L 318.990771 177.856443 
L 319.601134 180.666685 
L 319.607627 175.713882 
L 319.718012 176.222118 
L 320.17903 178.344747 
L 320.185523 173.391945 
L 320.295908 173.90018 
L 320.646542 175.514574 
L 320.653035 170.561772 
L 320.76342 171.070007 
L 321.445208 174.209107 
L 321.451701 169.256304 
L 321.562086 169.76454 
L 322.3153 173.232498 
L 322.321793 168.279696 
L 322.432178 168.787931 
L 322.71788 170.103363 
L 322.724373 165.150561 
L 322.834757 165.658796 
L 323.44512 168.469038 
L 323.451613 163.516235 
L 323.561998 164.024471 
L 323.971071 165.907931 
L 323.977564 160.955128 
L 324.087949 161.463363 
L 324.652859 164.064332 
L 324.659353 159.111529 
L 324.769737 159.619765 
L 325.321661 162.160941 
L 325.328154 157.208138 
L 325.438539 157.716374 
L 326.139807 160.945163 
L 326.1463 155.99236 
L 326.256685 156.500595 
L 326.639785 158.264471 
L 326.646278 153.311668 
L 326.756663 153.819903 
L 330.503251 171.070007 
L 330.509744 166.117204 
L 330.620129 166.625439 
L 330.821419 167.552221 
L 330.827912 162.599419 
L 330.938297 163.107654 
L 331.32789 164.901426 
L 331.334383 159.948623 
L 331.444768 160.456858 
L 331.646058 161.38364 
L 331.652551 156.430837 
L 331.762936 156.939073 
L 332.31486 159.480249 
L 332.321353 154.527446 
L 332.431738 155.035682 
L 333.107033 158.144886 
L 333.113526 153.192083 
L 333.223911 153.700318 
L 336.288711 167.811322 
L 336.295204 162.858519 
L 336.405589 163.366754 
L 336.964006 165.937827 
L 336.970499 160.985024 
L 337.080884 161.49326 
L 337.457491 163.227239 
L 337.463984 158.274436 
L 337.574369 158.782671 
L 338.184731 161.592913 
L 338.191225 156.640111 
L 338.301609 157.148346 
L 338.736655 159.151391 
L 338.743148 154.198588 
L 338.853533 154.706824 
L 339.39247 157.188208 
L 339.398964 152.235405 
L 339.509348 152.74364 
L 346.645398 185.599557 
L 346.651891 180.646754 
L 346.762276 181.15499 
L 346.859674 181.603433 
L 346.866168 176.65063 
L 346.976552 177.158865 
L 347.405105 179.132014 
L 347.411598 174.179211 
L 347.521983 174.687446 
L 348.177798 177.706962 
L 348.184291 172.754159 
L 348.294676 173.262394 
L 348.794654 175.564401 
L 348.801147 170.611599 
L 348.911532 171.119834 
L 349.41151 173.421841 
L 349.418003 168.469038 
L 349.528388 168.977273 
L 353.177578 185.778934 
L 353.184071 180.826131 
L 353.294456 181.334367 
L 353.580158 182.649799 
L 353.586651 177.696997 
L 353.697036 178.205232 
L 354.086629 179.999003 
L 354.093122 175.046201 
L 354.203507 175.554436 
L 354.846336 178.514159 
L 354.852829 173.561356 
L 354.963214 174.069592 
L 355.476178 176.431391 
L 355.482672 171.478588 
L 355.593056 171.986824 
L 355.787853 172.883709 
L 355.794346 167.930907 
L 355.904731 168.439142 
L 356.54756 171.398865 
L 356.554053 166.446062 
L 356.664438 166.954298 
L 357.086497 168.89755 
L 357.09299 163.944747 
L 357.203375 164.452983 
L 357.664394 166.575612 
L 357.670887 161.62281 
L 357.781272 162.131045 
L 358.372155 164.851599 
L 358.378648 159.898796 
L 358.489033 160.407031 
L 359.41107 164.652291 
L 359.417563 159.699488 
L 359.527948 160.207723 
L 360.131818 162.988069 
L 360.138311 158.035266 
L 360.248696 158.543502 
L 360.995416 161.981564 
L 361.001909 157.028761 
L 361.112294 157.536997 
L 361.52786 159.450353 
L 361.534353 154.49755 
L 361.644738 155.005785 
L 362.397952 158.473744 
L 362.404445 153.520941 
L 362.51483 154.029176 
L 363.268043 157.497135 
L 363.274536 152.544332 
L 363.384921 153.052567 
L 363.638157 154.218519 
L 363.64465 149.265716 
L 363.755035 149.773952 
L 364.280986 152.195543 
L 364.287479 147.24274 
L 364.397864 147.750976 
L 365.19653 151.428208 
L 365.203023 146.475405 
L 365.313408 146.98364 
L 365.871825 149.554713 
L 365.878318 144.60191 
L 365.988703 145.110145 
L 366.592572 147.890491 
L 366.599066 142.937689 
L 366.70945 143.445924 
L 367.488637 147.033467 
L 367.49513 142.080664 
L 367.605515 142.5889 
L 368.105493 144.890907 
L 368.111986 139.938104 
L 368.222371 140.446339 
L 368.819747 143.196789 
L 368.82624 138.243986 
L 368.936625 138.752221 
L 369.306739 140.456304 
L 369.313232 135.503502 
L 369.423617 136.011737 
L 370.053459 138.911668 
L 370.059952 133.958865 
L 370.170337 134.4671 
L 370.858618 137.636097 
L 370.865112 132.683294 
L 370.975496 133.191529 
L 371.663778 136.360526 
L 371.670271 131.407723 
L 371.780656 131.915958 
L 372.618281 135.772567 
L 372.624774 130.819765 
L 372.735159 131.328 
L 373.189685 133.420734 
L 373.196178 128.467931 
L 373.306563 128.976166 
L 374.118215 132.71319 
L 374.124708 127.760388 
L 374.235093 128.268623 
L 374.566247 129.793329 
L 374.572741 124.840526 
L 374.683125 125.348761 
L 375.209076 127.770353 
L 375.215569 122.81755 
L 375.325954 123.325785 
L 376.007742 126.464886 
L 376.014236 121.512083 
L 376.12462 122.020318 
L 376.403829 123.305855 
L 376.410322 118.353052 
L 376.520707 118.861287 
L 377.027178 121.19319 
L 377.033671 116.240388 
L 377.144056 116.748623 
L 378.046614 120.904194 
L 378.053107 115.951391 
L 378.163492 116.459626 
L 378.695936 118.911114 
L 378.702429 113.958311 
L 378.812814 114.466547 
L 382.487977 131.387792 
L 382.49447 126.43499 
L 382.604855 126.943225 
L 382.87757 128.198865 
L 382.884063 123.246062 
L 382.994448 123.754298 
L 383.754155 127.252152 
L 383.760648 122.299349 
L 383.871033 122.807585 
L 384.474902 125.587931 
L 384.481396 120.635128 
L 384.59178 121.143363 
L 385.208636 123.983502 
L 385.215129 119.030699 
L 385.325514 119.538934 
L 388.942238 136.191114 
L 388.948731 131.238311 
L 389.059116 131.746547 
L 389.299365 132.852706 
L 389.305859 127.899903 
L 389.416243 128.408138 
L 390.188937 131.965785 
L 390.19543 127.012983 
L 390.305815 127.521218 
L 390.844752 130.002602 
L 390.851245 125.049799 
L 390.96163 125.558035 
L 391.636925 128.667239 
L 391.643418 123.714436 
L 391.753803 124.222671 
L 392.338193 126.913329 
L 392.344686 121.960526 
L 392.455071 122.468761 
L 393.195298 125.876927 
L 393.201791 120.924125 
L 393.312176 121.43236 
L 393.695276 123.196235 
L 393.701769 118.243433 
L 393.812154 118.751668 
L 394.351091 121.233052 
L 394.357584 116.280249 
L 394.467969 116.788484 
L 395.097811 119.688415 
L 395.104305 114.735612 
L 395.214689 115.243848 
L 397.915869 127.680664 
L 397.922363 122.727862 
L 398.032747 123.236097 
L 398.487273 125.32883 
L 398.487273 125.32883 
" style="fill:none;stroke:#cf5044;stroke-linecap:round;stroke-width:1.5;"/>
   </g>
   <g id="patch_3">
    <path d="M 57.6 307.584 
L 57.6 41.472 
" style="fill:none;stroke:#ffffff;stroke-linecap:square;stroke-linejoin:miter;stroke-width:0.8;"/>
   </g>
   <g id="patch_4">
    <path d="M 414.72 307.584 
L 414.72 41.472 
" style="fill:none;stroke:#ffffff;stroke-linecap:square;stroke-linejoin:miter;stroke-width:0.8;"/>
   </g>
   <g id="patch_5">
    <path d="M 57.6 307.584 
L 414.72 307.584 
" style="fill:none;stroke:#ffffff;stroke-linecap:square;stroke-linejoin:miter;stroke-width:0.8;"/>
   </g>
   <g id="patch_6">
    <path d="M 57.6 41.472 
L 414.72 41.472 
" style="fill:none;stroke:#ffffff;stroke-linecap:square;stroke-linejoin:miter;stroke-width:0.8;"/>
   </g>
  </g>
  <g id="text_15">
   <!-- M2 threshholds $T_j$ -->
   <g style="fill:#ffffff;" transform="translate(182.7 15.672)scale(0.12 -0.12)">
    <defs>
     <path d="M 66.703125 0 
L 66.703125 45.90625 
Q 66.703125 48.390625 66.75 50.96875 
Q 66.796875 53.5625 66.890625 55.71875 
Q 67 58.203125 67.140625 60.546875 
Q 66.453125 58.0625 65.71875 55.609375 
Q 65.09375 53.515625 64.328125 51.140625 
Q 63.578125 48.78125 62.84375 46.875 
L 45.0625 0 
L 38.53125 0 
L 20.515625 46.875 
Q 20.21875 47.609375 19.890625 48.578125 
Q 19.578125 49.5625 19.203125 50.65625 
Q 18.84375 51.765625 18.46875 52.90625 
Q 18.109375 54.046875 17.78125 55.171875 
Q 16.9375 57.765625 16.15625 60.546875 
Q 16.21875 57.8125 16.3125 55.125 
Q 16.40625 52.828125 16.453125 50.3125 
Q 16.5 47.796875 16.5 45.90625 
L 16.5 0 
L 8.203125 0 
L 8.203125 68.796875 
L 20.453125 68.796875 
L 38.765625 21.09375 
Q 39.109375 20.125 39.59375 18.578125 
Q 40.09375 17.046875 40.53125 15.421875 
Q 40.96875 13.8125 41.328125 12.375 
Q 41.703125 10.9375 41.84375 10.15625 
Q 42 10.9375 42.390625 12.40625 
Q 42.78125 13.875 43.28125 15.484375 
Q 43.796875 17.09375 44.28125 18.609375 
Q 44.78125 20.125 45.171875 21.09375 
L 63.140625 68.796875 
L 75.09375 68.796875 
L 75.09375 0 
z
" id="LiberationSans-77"/>
     <path d="M 27.046875 0.390625 
Q 25.046875 -0.140625 22.96875 -0.453125 
Q 20.90625 -0.78125 18.171875 -0.78125 
Q 7.625 -0.78125 7.625 11.1875 
L 7.625 46.4375 
L 1.515625 46.4375 
L 1.515625 52.828125 
L 7.953125 52.828125 
L 10.546875 64.65625 
L 16.40625 64.65625 
L 16.40625 52.828125 
L 26.171875 52.828125 
L 26.171875 46.4375 
L 16.40625 46.4375 
L 16.40625 13.09375 
Q 16.40625 9.28125 17.640625 7.734375 
Q 18.890625 6.203125 21.96875 6.203125 
Q 23.25 6.203125 24.4375 6.390625 
Q 25.640625 6.59375 27.046875 6.890625 
z
" id="LiberationSans-116"/>
     <path d="M 15.484375 43.796875 
Q 16.9375 46.484375 18.640625 48.359375 
Q 20.359375 50.25 22.40625 51.46875 
Q 24.46875 52.6875 26.90625 53.25 
Q 29.34375 53.8125 32.375 53.8125 
Q 37.453125 53.8125 40.703125 52.4375 
Q 43.953125 51.078125 45.828125 48.609375 
Q 47.703125 46.140625 48.40625 42.71875 
Q 49.125 39.3125 49.125 35.203125 
L 49.125 0 
L 40.28125 0 
L 40.28125 33.5 
Q 40.28125 36.859375 39.859375 39.390625 
Q 39.453125 41.9375 38.28125 43.625 
Q 37.109375 45.3125 34.953125 46.15625 
Q 32.8125 47.015625 29.390625 47.015625 
Q 26.265625 47.015625 23.75 45.890625 
Q 21.234375 44.78125 19.453125 42.71875 
Q 17.671875 40.671875 16.6875 37.734375 
Q 15.71875 34.8125 15.71875 31.15625 
L 15.71875 0 
L 6.9375 0 
L 6.9375 72.46875 
L 15.71875 72.46875 
L 15.71875 53.609375 
Q 15.71875 52 15.671875 50.390625 
Q 15.625 48.78125 15.546875 47.40625 
Q 15.484375 46.046875 15.421875 45.09375 
Q 15.375 44.140625 15.328125 43.796875 
z
" id="LiberationSans-104"/>
     <path d="M 6.9375 0 
L 6.9375 40.53125 
Q 6.9375 42.1875 6.90625 43.921875 
Q 6.890625 45.65625 6.828125 47.265625 
Q 6.78125 48.875 6.734375 50.28125 
Q 6.6875 51.703125 6.640625 52.828125 
L 14.9375 52.828125 
Q 14.984375 51.703125 15.0625 50.265625 
Q 15.140625 48.828125 15.203125 47.3125 
Q 15.28125 45.796875 15.296875 44.40625 
Q 15.328125 43.015625 15.328125 42.046875 
L 15.53125 42.046875 
Q 16.453125 45.0625 17.5 47.28125 
Q 18.5625 49.515625 19.96875 50.953125 
Q 21.390625 52.390625 23.34375 53.09375 
Q 25.296875 53.8125 28.078125 53.8125 
Q 29.15625 53.8125 30.125 53.640625 
Q 31.109375 53.46875 31.640625 53.328125 
L 31.640625 45.265625 
Q 30.765625 45.515625 29.59375 45.625 
Q 28.421875 45.75 26.953125 45.75 
Q 23.921875 45.75 21.796875 44.375 
Q 19.671875 43.015625 18.328125 40.59375 
Q 17 38.1875 16.359375 34.84375 
Q 15.71875 31.5 15.71875 27.546875 
L 15.71875 0 
z
" id="LiberationSans-114"/>
     <path d="M 13.484375 24.5625 
Q 13.484375 20.40625 14.328125 16.90625 
Q 15.1875 13.421875 16.96875 10.90625 
Q 18.75 8.40625 21.53125 7 
Q 24.3125 5.609375 28.21875 5.609375 
Q 33.9375 5.609375 37.375 7.90625 
Q 40.828125 10.203125 42.046875 13.71875 
L 49.75 11.53125 
Q 48.921875 9.328125 47.4375 7.109375 
Q 45.953125 4.890625 43.453125 3.09375 
Q 40.96875 1.3125 37.234375 0.15625 
Q 33.5 -0.984375 28.21875 -0.984375 
Q 16.5 -0.984375 10.375 6 
Q 4.25 12.984375 4.25 26.765625 
Q 4.25 34.1875 6.09375 39.328125 
Q 7.953125 44.484375 11.171875 47.703125 
Q 14.40625 50.921875 18.703125 52.359375 
Q 23 53.8125 27.875 53.8125 
Q 34.515625 53.8125 38.984375 51.65625 
Q 43.453125 49.515625 46.15625 45.71875 
Q 48.875 41.9375 50.015625 36.8125 
Q 51.171875 31.6875 51.171875 25.734375 
L 51.171875 24.5625 
z
M 42.09375 31.296875 
Q 41.359375 39.65625 37.84375 43.484375 
Q 34.328125 47.3125 27.734375 47.3125 
Q 25.53125 47.3125 23.109375 46.609375 
Q 20.703125 45.90625 18.65625 44.09375 
Q 16.609375 42.28125 15.1875 39.171875 
Q 13.765625 36.078125 13.578125 31.296875 
z
" id="LiberationSans-101"/>
     <path d="M 51.421875 26.46875 
Q 51.421875 12.59375 45.3125 5.796875 
Q 39.203125 -0.984375 27.59375 -0.984375 
Q 22.078125 -0.984375 17.71875 0.671875 
Q 13.375 2.34375 10.375 5.765625 
Q 7.375 9.1875 5.78125 14.328125 
Q 4.203125 19.484375 4.203125 26.46875 
Q 4.203125 53.8125 27.875 53.8125 
Q 34.03125 53.8125 38.5 52.09375 
Q 42.96875 50.390625 45.828125 46.96875 
Q 48.6875 43.5625 50.046875 38.421875 
Q 51.421875 33.296875 51.421875 26.46875 
z
M 42.1875 26.46875 
Q 42.1875 32.625 41.234375 36.625 
Q 40.28125 40.625 38.453125 43.015625 
Q 36.625 45.40625 33.984375 46.359375 
Q 31.34375 47.3125 28.03125 47.3125 
Q 24.65625 47.3125 21.9375 46.3125 
Q 19.234375 45.3125 17.328125 42.890625 
Q 15.4375 40.484375 14.421875 36.46875 
Q 13.421875 32.46875 13.421875 26.46875 
Q 13.421875 20.3125 14.5 16.28125 
Q 15.578125 12.25 17.453125 9.859375 
Q 19.34375 7.46875 21.90625 6.484375 
Q 24.46875 5.515625 27.484375 5.515625 
Q 30.859375 5.515625 33.59375 6.46875 
Q 36.328125 7.421875 38.234375 9.8125 
Q 40.140625 12.203125 41.15625 16.25 
Q 42.1875 20.3125 42.1875 26.46875 
z
" id="LiberationSans-111"/>
     <path d="M 6.734375 0 
L 6.734375 72.46875 
L 15.53125 72.46875 
L 15.53125 0 
z
" id="LiberationSans-108"/>
     <path d="M 40.09375 8.5 
Q 37.640625 3.421875 33.609375 1.21875 
Q 29.59375 -0.984375 23.640625 -0.984375 
Q 13.625 -0.984375 8.90625 5.75 
Q 4.203125 12.5 4.203125 26.171875 
Q 4.203125 53.8125 23.640625 53.8125 
Q 29.640625 53.8125 33.640625 51.609375 
Q 37.640625 49.421875 40.09375 44.625 
L 40.1875 44.625 
Q 40.1875 45.125 40.15625 46.171875 
Q 40.140625 47.21875 40.109375 48.359375 
Q 40.09375 49.515625 40.09375 50.53125 
Q 40.09375 51.5625 40.09375 52 
L 40.09375 72.46875 
L 48.875 72.46875 
L 48.875 10.890625 
Q 48.875 8.984375 48.890625 7.21875 
Q 48.921875 5.46875 48.96875 4 
Q 49.03125 2.546875 49.078125 1.484375 
Q 49.125 0.4375 49.171875 0 
L 40.765625 0 
Q 40.671875 0.484375 40.59375 1.390625 
Q 40.53125 2.296875 40.453125 3.46875 
Q 40.375 4.640625 40.328125 5.9375 
Q 40.28125 7.234375 40.28125 8.5 
z
M 13.421875 26.46875 
Q 13.421875 21 14.109375 17.09375 
Q 14.796875 13.1875 16.3125 10.671875 
Q 17.828125 8.15625 20.171875 6.984375 
Q 22.515625 5.8125 25.875 5.8125 
Q 29.34375 5.8125 32 6.9375 
Q 34.671875 8.0625 36.453125 10.578125 
Q 38.234375 13.09375 39.15625 17.140625 
Q 40.09375 21.1875 40.09375 27.046875 
Q 40.09375 32.671875 39.15625 36.546875 
Q 38.234375 40.4375 36.421875 42.828125 
Q 34.625 45.21875 32 46.265625 
Q 29.390625 47.3125 25.984375 47.3125 
Q 22.75 47.3125 20.40625 46.1875 
Q 18.0625 45.0625 16.5 42.578125 
Q 14.9375 40.09375 14.171875 36.109375 
Q 13.421875 32.125 13.421875 26.46875 
z
" id="LiberationSans-100"/>
    </defs>
    <use transform="translate(0 0.09375)" xlink:href="#LiberationSans-77"/>
    <use transform="translate(83.300781 0.09375)" xlink:href="#LiberationSans-50"/>
    <use transform="translate(138.916016 0.09375)" xlink:href="#LiberationSans-32"/>
    <use transform="translate(166.699219 0.09375)" xlink:href="#LiberationSans-116"/>
    <use transform="translate(194.482422 0.09375)" xlink:href="#LiberationSans-104"/>
    <use transform="translate(250.097656 0.09375)" xlink:href="#LiberationSans-114"/>
    <use transform="translate(283.398438 0.09375)" xlink:href="#LiberationSans-101"/>
    <use transform="translate(339.013672 0.09375)" xlink:href="#LiberationSans-115"/>
    <use transform="translate(389.013672 0.09375)" xlink:href="#LiberationSans-104"/>
    <use transform="translate(444.628906 0.09375)" xlink:href="#LiberationSans-104"/>
    <use transform="translate(500.244141 0.09375)" xlink:href="#LiberationSans-111"/>
    <use transform="translate(555.859375 0.09375)" xlink:href="#LiberationSans-108"/>
    <use transform="translate(578.076172 0.09375)" xlink:href="#LiberationSans-100"/>
    <use transform="translate(633.691406 0.09375)" xlink:href="#LiberationSans-115"/>
    <use transform="translate(683.691406 0.09375)" xlink:href="#LiberationSans-32"/>
    <use transform="translate(711.474609 0.09375)" xlink:href="#DejaVuSans-Oblique-84"/>
    <use transform="translate(772.558594 -16.3125)scale(0.7)" xlink:href="#DejaVuSans-Oblique-106"/>
   </g>
  </g>
 </g>
 <defs>
  <clipPath id="pe5881316bb">
   <rect height="266.112" width="357.12" x="57.6" y="41.472"/>
  </clipPath>
 </defs>
</svg>
