<?xml version="1.0" encoding="utf-8" standalone="no"?>
<!DOCTYPE svg PUBLIC "-//W3C//DTD SVG 1.1//EN"
  "http://www.w3.org/Graphics/SVG/1.1/DTD/svg11.dtd">
<!-- Created with matplotlib (https://matplotlib.org/) -->
<svg height="345.6pt" version="1.1" viewBox="0 0 460.8 345.6" width="460.8pt" xmlns="http://www.w3.org/2000/svg" xmlns:xlink="http://www.w3.org/1999/xlink">
 <metadata>
  <rdf:RDF xmlns:cc="http://creativecommons.org/ns#" xmlns:dc="http://purl.org/dc/elements/1.1/" xmlns:rdf="http://www.w3.org/1999/02/22-rdf-syntax-ns#">
   <cc:Work>
    <dc:type rdf:resource="http://purl.org/dc/dcmitype/StillImage"/>
    <dc:date>2022-05-05T15:11:36.716614</dc:date>
    <dc:format>image/svg+xml</dc:format>
    <dc:creator>
     <cc:Agent>
      <dc:title>Matplotlib v3.3.4, https://matplotlib.org/</dc:title>
     </cc:Agent>
    </dc:creator>
   </cc:Work>
  </rdf:RDF>
 </metadata>
 <defs>
  <style type="text/css">*{stroke-linecap:butt;stroke-linejoin:round;}</style>
 </defs>
 <g id="figure_1">
  <g id="patch_1">
   <path d="M 0 345.6 
L 460.8 345.6 
L 460.8 0 
L 0 0 
z
" style="fill:#262626;"/>
  </g>
  <g id="axes_1">
   <g id="patch_2">
    <path d="M 57.6 307.584 
L 414.72 307.584 
L 414.72 41.472 
L 57.6 41.472 
z
" style="fill:#1a1a1a;"/>
   </g>
   <g id="matplotlib.axis_1">
    <g id="xtick_1">
     <g id="line2d_1">
      <defs>
       <path d="M 0 0 
L 0 3.5 
" id="m76be20bd28" style="stroke:#ffffff;stroke-width:0.8;"/>
      </defs>
      <g>
       <use style="fill:#ffffff;stroke:#ffffff;stroke-width:0.8;" x="73.020685" xlink:href="#m76be20bd28" y="307.584"/>
      </g>
     </g>
     <g id="text_1">
      <!-- 0 -->
      <g style="fill:#ffffff;" transform="translate(70.240216 321.830875)scale(0.1 -0.1)">
       <defs>
        <path d="M 51.703125 34.421875 
Q 51.703125 24.515625 49.828125 17.75 
Q 47.953125 10.984375 44.703125 6.8125 
Q 41.453125 2.640625 37.0625 0.828125 
Q 32.671875 -0.984375 27.6875 -0.984375 
Q 22.65625 -0.984375 18.3125 0.828125 
Q 13.96875 2.640625 10.765625 6.78125 
Q 7.5625 10.9375 5.734375 17.703125 
Q 3.90625 24.46875 3.90625 34.421875 
Q 3.90625 44.828125 5.734375 51.640625 
Q 7.5625 58.453125 10.78125 62.5 
Q 14.015625 66.546875 18.40625 68.1875 
Q 22.796875 69.828125 27.984375 69.828125 
Q 32.90625 69.828125 37.21875 68.1875 
Q 41.546875 66.546875 44.765625 62.5 
Q 48 58.453125 49.84375 51.640625 
Q 51.703125 44.828125 51.703125 34.421875 
z
M 42.78125 34.421875 
Q 42.78125 42.625 41.796875 48.0625 
Q 40.828125 53.515625 38.921875 56.765625 
Q 37.015625 60.015625 34.25 61.359375 
Q 31.5 62.703125 27.984375 62.703125 
Q 24.265625 62.703125 21.4375 61.328125 
Q 18.609375 59.96875 16.671875 56.71875 
Q 14.75 53.46875 13.765625 48.015625 
Q 12.796875 42.578125 12.796875 34.421875 
Q 12.796875 26.515625 13.796875 21.09375 
Q 14.796875 15.671875 16.71875 12.375 
Q 18.65625 9.078125 21.4375 7.640625 
Q 24.21875 6.203125 27.78125 6.203125 
Q 31.25 6.203125 34.03125 7.640625 
Q 36.8125 9.078125 38.734375 12.375 
Q 40.671875 15.671875 41.71875 21.09375 
Q 42.78125 26.515625 42.78125 34.421875 
z
" id="LiberationSans-48"/>
       </defs>
       <use xlink:href="#LiberationSans-48"/>
      </g>
     </g>
    </g>
    <g id="xtick_2">
     <g id="line2d_2">
      <g>
       <use style="fill:#ffffff;stroke:#ffffff;stroke-width:0.8;" x="113.622804" xlink:href="#m76be20bd28" y="307.584"/>
      </g>
     </g>
     <g id="text_2">
      <!-- 50 -->
      <g style="fill:#ffffff;" transform="translate(108.061867 321.830875)scale(0.1 -0.1)">
       <defs>
        <path d="M 51.421875 22.40625 
Q 51.421875 17.234375 49.859375 12.9375 
Q 48.296875 8.640625 45.21875 5.53125 
Q 42.140625 2.4375 37.578125 0.71875 
Q 33.015625 -0.984375 27 -0.984375 
Q 21.578125 -0.984375 17.546875 0.28125 
Q 13.53125 1.5625 10.734375 3.78125 
Q 7.953125 6 6.3125 8.984375 
Q 4.6875 11.96875 4 15.375 
L 12.890625 16.40625 
Q 13.421875 14.453125 14.390625 12.625 
Q 15.375 10.796875 17.0625 9.34375 
Q 18.75 7.90625 21.21875 7.046875 
Q 23.6875 6.203125 27.203125 6.203125 
Q 30.609375 6.203125 33.390625 7.25 
Q 36.1875 8.296875 38.15625 10.34375 
Q 40.140625 12.40625 41.203125 15.375 
Q 42.28125 18.359375 42.28125 22.21875 
Q 42.28125 25.390625 41.25 28.046875 
Q 40.234375 30.71875 38.328125 32.640625 
Q 36.421875 34.578125 33.65625 35.640625 
Q 30.90625 36.71875 27.390625 36.71875 
Q 25.203125 36.71875 23.34375 36.328125 
Q 21.484375 35.9375 19.890625 35.25 
Q 18.3125 34.578125 17.015625 33.671875 
Q 15.71875 32.765625 14.59375 31.78125 
L 6 31.78125 
L 8.296875 68.796875 
L 47.40625 68.796875 
L 47.40625 61.328125 
L 16.3125 61.328125 
L 14.984375 39.5 
Q 17.328125 41.3125 20.84375 42.59375 
Q 24.359375 43.890625 29.203125 43.890625 
Q 34.328125 43.890625 38.421875 42.328125 
Q 42.53125 40.765625 45.40625 37.90625 
Q 48.296875 35.0625 49.859375 31.109375 
Q 51.421875 27.15625 51.421875 22.40625 
z
" id="LiberationSans-53"/>
       </defs>
       <use xlink:href="#LiberationSans-53"/>
       <use x="55.615234" xlink:href="#LiberationSans-48"/>
      </g>
     </g>
    </g>
    <g id="xtick_3">
     <g id="line2d_3">
      <g>
       <use style="fill:#ffffff;stroke:#ffffff;stroke-width:0.8;" x="154.224923" xlink:href="#m76be20bd28" y="307.584"/>
      </g>
     </g>
     <g id="text_3">
      <!-- 100 -->
      <g style="fill:#ffffff;" transform="translate(145.883517 321.830875)scale(0.1 -0.1)">
       <defs>
        <path d="M 7.625 0 
L 7.625 7.46875 
L 25.140625 7.46875 
L 25.140625 60.40625 
L 9.625 49.3125 
L 9.625 57.625 
L 25.875 68.796875 
L 33.984375 68.796875 
L 33.984375 7.46875 
L 50.734375 7.46875 
L 50.734375 0 
z
" id="LiberationSans-49"/>
       </defs>
       <use xlink:href="#LiberationSans-49"/>
       <use x="55.615234" xlink:href="#LiberationSans-48"/>
       <use x="111.230469" xlink:href="#LiberationSans-48"/>
      </g>
     </g>
    </g>
    <g id="xtick_4">
     <g id="line2d_4">
      <g>
       <use style="fill:#ffffff;stroke:#ffffff;stroke-width:0.8;" x="194.827043" xlink:href="#m76be20bd28" y="307.584"/>
      </g>
     </g>
     <g id="text_4">
      <!-- 150 -->
      <g style="fill:#ffffff;" transform="translate(186.485636 321.830875)scale(0.1 -0.1)">
       <use xlink:href="#LiberationSans-49"/>
       <use x="55.615234" xlink:href="#LiberationSans-53"/>
       <use x="111.230469" xlink:href="#LiberationSans-48"/>
      </g>
     </g>
    </g>
    <g id="xtick_5">
     <g id="line2d_5">
      <g>
       <use style="fill:#ffffff;stroke:#ffffff;stroke-width:0.8;" x="235.429162" xlink:href="#m76be20bd28" y="307.584"/>
      </g>
     </g>
     <g id="text_5">
      <!-- 200 -->
      <g style="fill:#ffffff;" transform="translate(227.087756 321.830875)scale(0.1 -0.1)">
       <defs>
        <path d="M 5.03125 0 
L 5.03125 6.203125 
Q 7.515625 11.921875 11.109375 16.28125 
Q 14.703125 20.65625 18.65625 24.1875 
Q 22.609375 27.734375 26.484375 30.765625 
Q 30.375 33.796875 33.5 36.8125 
Q 36.625 39.84375 38.546875 43.15625 
Q 40.484375 46.484375 40.484375 50.6875 
Q 40.484375 53.609375 39.59375 55.828125 
Q 38.71875 58.0625 37.0625 59.5625 
Q 35.40625 61.078125 33.078125 61.828125 
Q 30.765625 62.59375 27.9375 62.59375 
Q 25.296875 62.59375 22.96875 61.859375 
Q 20.65625 61.140625 18.84375 59.671875 
Q 17.046875 58.203125 15.890625 56.03125 
Q 14.75 53.859375 14.40625 50.984375 
L 5.421875 51.8125 
Q 5.859375 55.515625 7.46875 58.78125 
Q 9.078125 62.0625 11.90625 64.53125 
Q 14.75 67 18.71875 68.40625 
Q 22.703125 69.828125 27.9375 69.828125 
Q 33.0625 69.828125 37.0625 68.609375 
Q 41.0625 67.390625 43.8125 64.984375 
Q 46.578125 62.59375 48.046875 59.078125 
Q 49.515625 55.5625 49.515625 50.984375 
Q 49.515625 47.515625 48.265625 44.390625 
Q 47.015625 41.265625 44.9375 38.421875 
Q 42.875 35.59375 40.140625 32.953125 
Q 37.40625 30.328125 34.421875 27.8125 
Q 31.453125 25.296875 28.421875 22.828125 
Q 25.390625 20.359375 22.71875 17.859375 
Q 20.0625 15.375 17.96875 12.8125 
Q 15.875 10.25 14.703125 7.46875 
L 50.59375 7.46875 
L 50.59375 0 
z
" id="LiberationSans-50"/>
       </defs>
       <use xlink:href="#LiberationSans-50"/>
       <use x="55.615234" xlink:href="#LiberationSans-48"/>
       <use x="111.230469" xlink:href="#LiberationSans-48"/>
      </g>
     </g>
    </g>
    <g id="xtick_6">
     <g id="line2d_6">
      <g>
       <use style="fill:#ffffff;stroke:#ffffff;stroke-width:0.8;" x="276.031281" xlink:href="#m76be20bd28" y="307.584"/>
      </g>
     </g>
     <g id="text_6">
      <!-- 250 -->
      <g style="fill:#ffffff;" transform="translate(267.689875 321.830875)scale(0.1 -0.1)">
       <use xlink:href="#LiberationSans-50"/>
       <use x="55.615234" xlink:href="#LiberationSans-53"/>
       <use x="111.230469" xlink:href="#LiberationSans-48"/>
      </g>
     </g>
    </g>
    <g id="xtick_7">
     <g id="line2d_7">
      <g>
       <use style="fill:#ffffff;stroke:#ffffff;stroke-width:0.8;" x="316.6334" xlink:href="#m76be20bd28" y="307.584"/>
      </g>
     </g>
     <g id="text_7">
      <!-- 300 -->
      <g style="fill:#ffffff;" transform="translate(308.291994 321.830875)scale(0.1 -0.1)">
       <defs>
        <path d="M 51.21875 19 
Q 51.21875 14.265625 49.671875 10.546875 
Q 48.140625 6.84375 45.1875 4.265625 
Q 42.234375 1.703125 37.859375 0.359375 
Q 33.5 -0.984375 27.875 -0.984375 
Q 21.484375 -0.984375 17.109375 0.609375 
Q 12.75 2.203125 9.90625 4.8125 
Q 7.078125 7.421875 5.65625 10.765625 
Q 4.25 14.109375 3.8125 17.671875 
L 12.890625 18.5 
Q 13.28125 15.765625 14.328125 13.515625 
Q 15.375 11.28125 17.1875 9.671875 
Q 19 8.0625 21.625 7.171875 
Q 24.265625 6.296875 27.875 6.296875 
Q 34.515625 6.296875 38.296875 9.5625 
Q 42.09375 12.84375 42.09375 19.28125 
Q 42.09375 23.09375 40.40625 25.40625 
Q 38.71875 27.734375 36.203125 29.03125 
Q 33.6875 30.328125 30.734375 30.765625 
Q 27.78125 31.203125 25.296875 31.203125 
L 20.3125 31.203125 
L 20.3125 38.8125 
L 25.09375 38.8125 
Q 27.59375 38.8125 30.265625 39.328125 
Q 32.953125 39.84375 35.171875 41.1875 
Q 37.40625 42.53125 38.84375 44.828125 
Q 40.28125 47.125 40.28125 50.6875 
Q 40.28125 56.203125 37.03125 59.390625 
Q 33.796875 62.59375 27.390625 62.59375 
Q 21.578125 62.59375 17.984375 59.609375 
Q 14.40625 56.640625 13.8125 51.21875 
L 4.984375 51.90625 
Q 5.515625 56.453125 7.46875 59.8125 
Q 9.421875 63.1875 12.421875 65.40625 
Q 15.4375 67.625 19.28125 68.71875 
Q 23.140625 69.828125 27.484375 69.828125 
Q 33.25 69.828125 37.390625 68.375 
Q 41.546875 66.9375 44.1875 64.46875 
Q 46.828125 62.015625 48.0625 58.6875 
Q 49.3125 55.375 49.3125 51.609375 
Q 49.3125 48.578125 48.484375 45.9375 
Q 47.65625 43.3125 45.890625 41.203125 
Q 44.140625 39.109375 41.421875 37.59375 
Q 38.71875 36.078125 34.90625 35.296875 
L 34.90625 35.109375 
Q 39.0625 34.671875 42.140625 33.21875 
Q 45.21875 31.78125 47.21875 29.625 
Q 49.21875 27.484375 50.21875 24.75 
Q 51.21875 22.015625 51.21875 19 
z
" id="LiberationSans-51"/>
       </defs>
       <use xlink:href="#LiberationSans-51"/>
       <use x="55.615234" xlink:href="#LiberationSans-48"/>
       <use x="111.230469" xlink:href="#LiberationSans-48"/>
      </g>
     </g>
    </g>
    <g id="xtick_8">
     <g id="line2d_8">
      <g>
       <use style="fill:#ffffff;stroke:#ffffff;stroke-width:0.8;" x="357.23552" xlink:href="#m76be20bd28" y="307.584"/>
      </g>
     </g>
     <g id="text_8">
      <!-- 350 -->
      <g style="fill:#ffffff;" transform="translate(348.894113 321.830875)scale(0.1 -0.1)">
       <use xlink:href="#LiberationSans-51"/>
       <use x="55.615234" xlink:href="#LiberationSans-53"/>
       <use x="111.230469" xlink:href="#LiberationSans-48"/>
      </g>
     </g>
    </g>
    <g id="xtick_9">
     <g id="line2d_9">
      <g>
       <use style="fill:#ffffff;stroke:#ffffff;stroke-width:0.8;" x="397.837639" xlink:href="#m76be20bd28" y="307.584"/>
      </g>
     </g>
     <g id="text_9">
      <!-- 400 -->
      <g style="fill:#ffffff;" transform="translate(389.496233 321.830875)scale(0.1 -0.1)">
       <defs>
        <path d="M 43.015625 15.578125 
L 43.015625 0 
L 34.71875 0 
L 34.71875 15.578125 
L 2.296875 15.578125 
L 2.296875 22.40625 
L 33.796875 68.796875 
L 43.015625 68.796875 
L 43.015625 22.515625 
L 52.6875 22.515625 
L 52.6875 15.578125 
z
M 34.71875 58.890625 
Q 34.625 58.640625 34.234375 57.9375 
Q 33.84375 57.234375 33.34375 56.34375 
Q 32.859375 55.46875 32.34375 54.5625 
Q 31.84375 53.65625 31.453125 53.078125 
L 13.8125 27.09375 
Q 13.578125 26.703125 13.109375 26.0625 
Q 12.640625 25.4375 12.15625 24.78125 
Q 11.671875 24.125 11.171875 23.484375 
Q 10.6875 22.859375 10.40625 22.515625 
L 34.71875 22.515625 
z
" id="LiberationSans-52"/>
       </defs>
       <use xlink:href="#LiberationSans-52"/>
       <use x="55.615234" xlink:href="#LiberationSans-48"/>
       <use x="111.230469" xlink:href="#LiberationSans-48"/>
      </g>
     </g>
    </g>
    <g id="text_10">
     <!-- $t$ (ms) -->
     <g style="fill:#ffffff;" transform="translate(222.81 335.205875)scale(0.1 -0.1)">
      <defs>
       <path d="M 42.28125 54.6875 
L 40.921875 47.703125 
L 23 47.703125 
L 17.1875 18.015625 
Q 16.890625 16.359375 16.75 15.234375 
Q 16.609375 14.109375 16.609375 13.484375 
Q 16.609375 10.359375 18.484375 8.9375 
Q 20.359375 7.515625 24.515625 7.515625 
L 33.59375 7.515625 
L 32.078125 0 
L 23.484375 0 
Q 15.484375 0 11.546875 3.125 
Q 7.625 6.25 7.625 12.59375 
Q 7.625 13.71875 7.765625 15.0625 
Q 7.90625 16.40625 8.203125 18.015625 
L 14.015625 47.703125 
L 6.390625 47.703125 
L 7.8125 54.6875 
L 15.28125 54.6875 
L 18.3125 70.21875 
L 27.296875 70.21875 
L 24.3125 54.6875 
z
" id="DejaVuSans-Oblique-116"/>
       <path id="LiberationSans-32"/>
       <path d="M 6.203125 25.984375 
Q 6.203125 32.765625 7.21875 38.96875 
Q 8.25 45.171875 10.4375 50.875 
Q 12.640625 56.59375 16.0625 61.953125 
Q 19.484375 67.328125 24.21875 72.46875 
L 32.71875 72.46875 
Q 28.125 67.328125 24.78125 61.9375 
Q 21.4375 56.546875 19.28125 50.796875 
Q 17.140625 45.0625 16.09375 38.859375 
Q 15.046875 32.671875 15.046875 25.875 
Q 15.046875 19.09375 16.09375 12.890625 
Q 17.140625 6.6875 19.28125 0.921875 
Q 21.4375 -4.828125 24.78125 -10.203125 
Q 28.125 -15.578125 32.71875 -20.703125 
L 24.21875 -20.703125 
Q 19.484375 -15.578125 16.0625 -10.203125 
Q 12.640625 -4.828125 10.4375 0.875 
Q 8.25 6.59375 7.21875 12.765625 
Q 6.203125 18.953125 6.203125 25.78125 
z
" id="LiberationSans-40"/>
       <path d="M 37.5 0 
L 37.5 33.5 
Q 37.5 37.359375 37.015625 39.9375 
Q 36.53125 42.53125 35.375 44.109375 
Q 34.234375 45.703125 32.375 46.359375 
Q 30.515625 47.015625 27.828125 47.015625 
Q 25.046875 47.015625 22.796875 45.921875 
Q 20.5625 44.828125 18.96875 42.75 
Q 17.390625 40.671875 16.53125 37.625 
Q 15.671875 34.578125 15.671875 30.609375 
L 15.671875 0 
L 6.9375 0 
L 6.9375 41.546875 
Q 6.9375 43.21875 6.90625 45.046875 
Q 6.890625 46.875 6.828125 48.5 
Q 6.78125 50.140625 6.734375 51.3125 
Q 6.6875 52.484375 6.640625 52.828125 
L 14.9375 52.828125 
Q 14.984375 52.59375 15.03125 51.515625 
Q 15.09375 50.4375 15.15625 49.046875 
Q 15.234375 47.65625 15.28125 46.21875 
Q 15.328125 44.78125 15.328125 43.796875 
L 15.484375 43.796875 
Q 16.65625 46.09375 18.015625 47.953125 
Q 19.390625 49.8125 21.21875 51.09375 
Q 23.046875 52.390625 25.40625 53.09375 
Q 27.78125 53.8125 30.90625 53.8125 
Q 36.921875 53.8125 40.40625 51.421875 
Q 43.890625 49.03125 45.265625 43.796875 
L 45.40625 43.796875 
Q 46.578125 46.09375 48.046875 47.953125 
Q 49.515625 49.8125 51.46875 51.09375 
Q 53.421875 52.390625 55.859375 53.09375 
Q 58.296875 53.8125 61.421875 53.8125 
Q 65.4375 53.8125 68.328125 52.734375 
Q 71.234375 51.65625 73.09375 49.40625 
Q 74.953125 47.171875 75.828125 43.625 
Q 76.703125 40.09375 76.703125 35.203125 
L 76.703125 0 
L 68.015625 0 
L 68.015625 33.5 
Q 68.015625 37.359375 67.53125 39.9375 
Q 67.046875 42.53125 65.890625 44.109375 
Q 64.75 45.703125 62.890625 46.359375 
Q 61.03125 47.015625 58.34375 47.015625 
Q 55.5625 47.015625 53.3125 45.96875 
Q 51.078125 44.921875 49.484375 42.875 
Q 47.90625 40.828125 47.046875 37.75 
Q 46.1875 34.671875 46.1875 30.609375 
L 46.1875 0 
z
" id="LiberationSans-109"/>
       <path d="M 46.390625 14.59375 
Q 46.390625 10.890625 44.9375 7.984375 
Q 43.5 5.078125 40.765625 3.09375 
Q 38.03125 1.125 34.046875 0.0625 
Q 30.078125 -0.984375 24.953125 -0.984375 
Q 20.359375 -0.984375 16.671875 -0.265625 
Q 12.984375 0.4375 10.203125 2 
Q 7.421875 3.5625 5.53125 6.125 
Q 3.65625 8.6875 2.78125 12.40625 
L 10.546875 13.921875 
Q 11.671875 9.671875 15.1875 7.6875 
Q 18.703125 5.71875 24.953125 5.71875 
Q 27.78125 5.71875 30.140625 6.109375 
Q 32.515625 6.5 34.21875 7.453125 
Q 35.9375 8.40625 36.890625 9.984375 
Q 37.84375 11.578125 37.84375 13.921875 
Q 37.84375 16.3125 36.71875 17.84375 
Q 35.59375 19.390625 33.59375 20.40625 
Q 31.59375 21.4375 28.734375 22.1875 
Q 25.875 22.953125 22.46875 23.875 
Q 19.28125 24.703125 16.15625 25.734375 
Q 13.03125 26.765625 10.515625 28.4375 
Q 8.015625 30.125 6.453125 32.609375 
Q 4.890625 35.109375 4.890625 38.875 
Q 4.890625 46.09375 10.03125 49.875 
Q 15.1875 53.65625 25.046875 53.65625 
Q 33.796875 53.65625 38.9375 50.578125 
Q 44.09375 47.515625 45.453125 40.71875 
L 37.546875 39.75 
Q 37.109375 41.796875 35.9375 43.1875 
Q 34.765625 44.578125 33.109375 45.4375 
Q 31.453125 46.296875 29.375 46.65625 
Q 27.296875 47.015625 25.046875 47.015625 
Q 19.09375 47.015625 16.25 45.203125 
Q 13.421875 43.40625 13.421875 39.75 
Q 13.421875 37.59375 14.46875 36.203125 
Q 15.53125 34.8125 17.40625 33.859375 
Q 19.28125 32.90625 21.921875 32.203125 
Q 24.5625 31.5 27.734375 30.71875 
Q 29.828125 30.171875 32.03125 29.5625 
Q 34.234375 28.953125 36.296875 28.09375 
Q 38.375 27.25 40.203125 26.09375 
Q 42.046875 24.953125 43.40625 23.34375 
Q 44.78125 21.734375 45.578125 19.578125 
Q 46.390625 17.4375 46.390625 14.59375 
z
" id="LiberationSans-115"/>
       <path d="M 27.09375 25.78125 
Q 27.09375 18.953125 26.0625 12.765625 
Q 25.046875 6.59375 22.84375 0.875 
Q 20.65625 -4.828125 17.234375 -10.203125 
Q 13.8125 -15.578125 9.078125 -20.703125 
L 0.59375 -20.703125 
Q 5.171875 -15.578125 8.515625 -10.203125 
Q 11.859375 -4.828125 14 0.921875 
Q 16.15625 6.6875 17.203125 12.890625 
Q 18.265625 19.09375 18.265625 25.875 
Q 18.265625 32.671875 17.203125 38.859375 
Q 16.15625 45.0625 14 50.796875 
Q 11.859375 56.546875 8.515625 61.9375 
Q 5.171875 67.328125 0.59375 72.46875 
L 9.078125 72.46875 
Q 13.8125 67.328125 17.234375 61.953125 
Q 20.65625 56.59375 22.84375 50.875 
Q 25.046875 45.171875 26.0625 38.96875 
Q 27.09375 32.765625 27.09375 25.984375 
z
" id="LiberationSans-41"/>
      </defs>
      <use transform="translate(0 0.53125)" xlink:href="#DejaVuSans-Oblique-116"/>
      <use transform="translate(39.208984 0.53125)" xlink:href="#LiberationSans-32"/>
      <use transform="translate(66.992188 0.53125)" xlink:href="#LiberationSans-40"/>
      <use transform="translate(100.292969 0.53125)" xlink:href="#LiberationSans-109"/>
      <use transform="translate(183.59375 0.53125)" xlink:href="#LiberationSans-115"/>
      <use transform="translate(233.59375 0.53125)" xlink:href="#LiberationSans-41"/>
     </g>
    </g>
   </g>
   <g id="matplotlib.axis_2">
    <g id="ytick_1">
     <g id="line2d_10">
      <defs>
       <path d="M 0 0 
L -3.5 0 
" id="me9eac7af43" style="stroke:#ffffff;stroke-width:0.8;"/>
      </defs>
      <g>
       <use style="fill:#ffffff;stroke:#ffffff;stroke-width:0.8;" x="57.6" xlink:href="#me9eac7af43" y="274.416645"/>
      </g>
     </g>
     <g id="text_11">
      <!-- 0.024 -->
      <g style="fill:#ffffff;" transform="translate(25.578125 278.040082)scale(0.1 -0.1)">
       <defs>
        <path d="M 9.125 0 
L 9.125 10.6875 
L 18.65625 10.6875 
L 18.65625 0 
z
" id="LiberationSans-46"/>
       </defs>
       <use xlink:href="#LiberationSans-48"/>
       <use x="55.615234" xlink:href="#LiberationSans-46"/>
       <use x="83.398438" xlink:href="#LiberationSans-48"/>
       <use x="139.013672" xlink:href="#LiberationSans-50"/>
       <use x="194.628906" xlink:href="#LiberationSans-52"/>
      </g>
     </g>
    </g>
    <g id="ytick_2">
     <g id="line2d_11">
      <g>
       <use style="fill:#ffffff;stroke:#ffffff;stroke-width:0.8;" x="57.6" xlink:href="#me9eac7af43" y="221.840384"/>
      </g>
     </g>
     <g id="text_12">
      <!-- 0.026 -->
      <g style="fill:#ffffff;" transform="translate(25.578125 225.463822)scale(0.1 -0.1)">
       <defs>
        <path d="M 51.21875 22.515625 
Q 51.21875 17.328125 49.78125 13 
Q 48.34375 8.6875 45.53125 5.578125 
Q 42.71875 2.484375 38.5625 0.75 
Q 34.421875 -0.984375 29 -0.984375 
Q 23 -0.984375 18.5 1.3125 
Q 14.015625 3.609375 11.03125 7.921875 
Q 8.0625 12.25 6.5625 18.53125 
Q 5.078125 24.8125 5.078125 32.8125 
Q 5.078125 42 6.765625 48.921875 
Q 8.453125 55.859375 11.625 60.5 
Q 14.796875 65.140625 19.359375 67.484375 
Q 23.921875 69.828125 29.6875 69.828125 
Q 33.203125 69.828125 36.28125 69.09375 
Q 39.359375 68.359375 41.875 66.71875 
Q 44.390625 65.09375 46.28125 62.40625 
Q 48.1875 59.71875 49.3125 55.8125 
L 40.921875 54.296875 
Q 39.546875 58.734375 36.546875 60.71875 
Q 33.546875 62.703125 29.59375 62.703125 
Q 25.984375 62.703125 23.046875 60.984375 
Q 20.125 59.28125 18.0625 55.875 
Q 16.015625 52.484375 14.90625 47.359375 
Q 13.8125 42.234375 13.8125 35.40625 
Q 16.21875 39.84375 20.5625 42.15625 
Q 24.90625 44.484375 30.515625 44.484375 
Q 35.203125 44.484375 39.015625 42.96875 
Q 42.828125 41.453125 45.53125 38.59375 
Q 48.25 35.75 49.734375 31.671875 
Q 51.21875 27.59375 51.21875 22.515625 
z
M 42.28125 22.125 
Q 42.28125 25.6875 41.40625 28.5625 
Q 40.53125 31.453125 38.765625 33.46875 
Q 37.015625 35.5 34.421875 36.59375 
Q 31.84375 37.703125 28.421875 37.703125 
Q 26.03125 37.703125 23.578125 36.984375 
Q 21.140625 36.28125 19.15625 34.6875 
Q 17.1875 33.109375 15.9375 30.515625 
Q 14.703125 27.9375 14.703125 24.21875 
Q 14.703125 20.40625 15.671875 17.109375 
Q 16.65625 13.8125 18.484375 11.375 
Q 20.3125 8.9375 22.890625 7.515625 
Q 25.484375 6.109375 28.71875 6.109375 
Q 31.890625 6.109375 34.40625 7.203125 
Q 36.921875 8.296875 38.671875 10.375 
Q 40.4375 12.453125 41.359375 15.421875 
Q 42.28125 18.40625 42.28125 22.125 
z
" id="LiberationSans-54"/>
       </defs>
       <use xlink:href="#LiberationSans-48"/>
       <use x="55.615234" xlink:href="#LiberationSans-46"/>
       <use x="83.398438" xlink:href="#LiberationSans-48"/>
       <use x="139.013672" xlink:href="#LiberationSans-50"/>
       <use x="194.628906" xlink:href="#LiberationSans-54"/>
      </g>
     </g>
    </g>
    <g id="ytick_3">
     <g id="line2d_12">
      <g>
       <use style="fill:#ffffff;stroke:#ffffff;stroke-width:0.8;" x="57.6" xlink:href="#me9eac7af43" y="169.264123"/>
      </g>
     </g>
     <g id="text_13">
      <!-- 0.028 -->
      <g style="fill:#ffffff;" transform="translate(25.578125 172.887561)scale(0.1 -0.1)">
       <defs>
        <path d="M 51.265625 19.1875 
Q 51.265625 14.796875 49.875 11.109375 
Q 48.484375 7.421875 45.625 4.734375 
Q 42.78125 2.046875 38.328125 0.53125 
Q 33.890625 -0.984375 27.828125 -0.984375 
Q 21.78125 -0.984375 17.359375 0.53125 
Q 12.9375 2.046875 10.03125 4.703125 
Q 7.125 7.375 5.734375 11.0625 
Q 4.34375 14.75 4.34375 19.09375 
Q 4.34375 22.859375 5.484375 25.78125 
Q 6.640625 28.71875 8.5625 30.828125 
Q 10.5 32.953125 12.96875 34.25 
Q 15.4375 35.546875 18.0625 35.984375 
L 18.0625 36.1875 
Q 15.1875 36.859375 12.90625 38.375 
Q 10.640625 39.890625 9.09375 42.015625 
Q 7.5625 44.140625 6.75 46.71875 
Q 5.953125 49.3125 5.953125 52.203125 
Q 5.953125 55.8125 7.34375 59 
Q 8.734375 62.203125 11.46875 64.625 
Q 14.203125 67.046875 18.25 68.4375 
Q 22.3125 69.828125 27.640625 69.828125 
Q 33.25 69.828125 37.375 68.40625 
Q 41.5 67 44.203125 64.578125 
Q 46.921875 62.15625 48.234375 58.9375 
Q 49.5625 55.71875 49.5625 52.09375 
Q 49.5625 49.265625 48.75 46.671875 
Q 47.953125 44.09375 46.40625 41.96875 
Q 44.875 39.84375 42.59375 38.34375 
Q 40.328125 36.859375 37.359375 36.28125 
L 37.359375 36.078125 
Q 40.328125 35.59375 42.859375 34.296875 
Q 45.40625 33.015625 47.265625 30.890625 
Q 49.125 28.765625 50.1875 25.828125 
Q 51.265625 22.90625 51.265625 19.1875 
z
M 40.4375 51.609375 
Q 40.4375 54.203125 39.765625 56.34375 
Q 39.109375 58.5 37.59375 60.03125 
Q 36.078125 61.578125 33.640625 62.421875 
Q 31.203125 63.28125 27.640625 63.28125 
Q 24.171875 63.28125 21.78125 62.421875 
Q 19.390625 61.578125 17.84375 60.03125 
Q 16.3125 58.5 15.625 56.34375 
Q 14.9375 54.203125 14.9375 51.609375 
Q 14.9375 49.5625 15.46875 47.40625 
Q 16.015625 45.265625 17.421875 43.5 
Q 18.84375 41.75 21.328125 40.625 
Q 23.828125 39.5 27.734375 39.5 
Q 31.890625 39.5 34.40625 40.625 
Q 36.921875 41.75 38.25 43.5 
Q 39.59375 45.265625 40.015625 47.40625 
Q 40.4375 49.5625 40.4375 51.609375 
z
M 42.140625 20.015625 
Q 42.140625 22.515625 41.453125 24.828125 
Q 40.765625 27.15625 39.109375 28.9375 
Q 37.453125 30.71875 34.640625 31.8125 
Q 31.84375 32.90625 27.640625 32.90625 
Q 23.78125 32.90625 21.0625 31.8125 
Q 18.359375 30.71875 16.671875 28.90625 
Q 14.984375 27.09375 14.203125 24.71875 
Q 13.421875 22.359375 13.421875 19.828125 
Q 13.421875 16.65625 14.203125 14.03125 
Q 14.984375 11.421875 16.6875 9.546875 
Q 18.40625 7.671875 21.1875 6.640625 
Q 23.96875 5.609375 27.9375 5.609375 
Q 31.9375 5.609375 34.671875 6.640625 
Q 37.40625 7.671875 39.0625 9.546875 
Q 40.71875 11.421875 41.421875 14.078125 
Q 42.140625 16.75 42.140625 20.015625 
z
" id="LiberationSans-56"/>
       </defs>
       <use xlink:href="#LiberationSans-48"/>
       <use x="55.615234" xlink:href="#LiberationSans-46"/>
       <use x="83.398438" xlink:href="#LiberationSans-48"/>
       <use x="139.013672" xlink:href="#LiberationSans-50"/>
       <use x="194.628906" xlink:href="#LiberationSans-56"/>
      </g>
     </g>
    </g>
    <g id="ytick_4">
     <g id="line2d_13">
      <g>
       <use style="fill:#ffffff;stroke:#ffffff;stroke-width:0.8;" x="57.6" xlink:href="#me9eac7af43" y="116.687863"/>
      </g>
     </g>
     <g id="text_14">
      <!-- 0.030 -->
      <g style="fill:#ffffff;" transform="translate(25.578125 120.3113)scale(0.1 -0.1)">
       <use xlink:href="#LiberationSans-48"/>
       <use x="55.615234" xlink:href="#LiberationSans-46"/>
       <use x="83.398438" xlink:href="#LiberationSans-48"/>
       <use x="139.013672" xlink:href="#LiberationSans-51"/>
       <use x="194.628906" xlink:href="#LiberationSans-48"/>
      </g>
     </g>
    </g>
    <g id="ytick_5">
     <g id="line2d_14">
      <g>
       <use style="fill:#ffffff;stroke:#ffffff;stroke-width:0.8;" x="57.6" xlink:href="#me9eac7af43" y="64.111602"/>
      </g>
     </g>
     <g id="text_15">
      <!-- 0.032 -->
      <g style="fill:#ffffff;" transform="translate(25.578125 67.73504)scale(0.1 -0.1)">
       <use xlink:href="#LiberationSans-48"/>
       <use x="55.615234" xlink:href="#LiberationSans-46"/>
       <use x="83.398438" xlink:href="#LiberationSans-48"/>
       <use x="139.013672" xlink:href="#LiberationSans-51"/>
       <use x="194.628906" xlink:href="#LiberationSans-50"/>
      </g>
     </g>
    </g>
    <g id="text_16">
     <!-- $L$ -->
     <g style="fill:#ffffff;" transform="translate(19.503125 177.328)rotate(-90)scale(0.1 -0.1)">
      <defs>
       <path d="M 16.796875 72.90625 
L 26.703125 72.90625 
L 14.203125 8.203125 
L 49.703125 8.203125 
L 48.09375 0 
L 2.6875 0 
z
" id="DejaVuSans-Oblique-76"/>
      </defs>
      <use transform="translate(0 0.09375)" xlink:href="#DejaVuSans-Oblique-76"/>
     </g>
    </g>
   </g>
   <g id="line2d_15">
    <path clip-path="url(#p6b2cc7116d)" d="M 73.832727 53.568 
L 74.157544 66.002678 
L 74.969587 86.334399 
L 76.268854 113.879135 
L 77.568122 136.751238 
L 78.86739 155.687714 
L 80.166658 171.313051 
L 81.465926 184.156129 
L 84.22687 207.678473 
L 85.038912 212.687301 
L 85.850955 216.355837 
L 86.500588 218.440298 
L 86.662997 218.853747 
L 88.124673 225.273074 
L 89.58635 230.777656 
L 91.048026 235.505896 
L 91.372843 236.463301 
L 92.347294 244.906559 
L 93.321745 251.328797 
L 94.133787 255.347632 
L 94.945829 258.314091 
L 95.595463 260.019294 
L 96.245097 261.197631 
L 96.894731 261.905129 
L 97.381956 262.157683 
L 97.869182 262.194109 
L 98.356407 262.032946 
L 99.006041 261.540405 
L 99.818084 260.837666 
L 100.467717 260.556018 
L 101.117351 260.499036 
L 101.766985 260.641486 
L 102.579028 261.065189 
L 103.553479 261.881216 
L 104.690338 263.180827 
L 105.989606 265.023766 
L 107.776099 268.002197 
L 110.212226 272.555514 
L 115.08448 282.085388 
L 115.896523 279.869289 
L 117.033382 276.01357 
L 118.33265 270.765282 
L 119.144692 267.137798 
L 119.794326 266.944663 
L 120.44396 266.942375 
L 121.256003 267.175214 
L 122.068045 267.634743 
L 123.042496 268.438217 
L 124.179355 269.659301 
L 125.641031 271.573333 
L 127.589933 274.537932 
L 130.675694 279.724639 
L 132.137371 282.44803 
L 132.949413 285.28522 
L 133.923864 289.517702 
L 135.223132 295.393376 
L 137.009625 295.488 
L 139.283343 295.368551 
L 142.206696 294.96314 
L 145.942091 294.235442 
L 146.429316 293.847495 
L 146.916542 293.178941 
L 147.566176 291.894514 
L 148.378218 289.734073 
L 149.352669 286.454039 
L 150.651937 281.150448 
L 152.276022 273.427993 
L 153.412881 267.527492 
L 154.062515 267.541467 
L 154.874557 267.812095 
L 155.6866 268.326118 
L 156.661051 269.213425 
L 157.79791 270.55286 
L 159.259586 272.643579 
L 160.396445 274.274096 
L 160.883671 274.560063 
L 161.370896 274.607162 
L 161.858122 274.435869 
L 162.507756 273.900569 
L 163.15739 273.052505 
L 163.969432 271.610041 
L 164.943883 269.405047 
L 166.243151 265.823067 
L 167.38001 262.613956 
L 168.029644 262.207556 
L 168.679278 262.091804 
L 169.328912 262.23418 
L 169.978546 262.605068 
L 170.790588 263.349189 
L 171.765039 264.591793 
L 172.901898 266.434017 
L 174.363575 269.276587 
L 175.500434 271.524304 
L 175.987659 271.770215 
L 176.474885 271.798683 
L 176.96211 271.628375 
L 177.611744 271.121993 
L 178.261378 270.331034 
L 179.07342 268.994501 
L 180.047871 266.959603 
L 181.347139 263.662941 
L 182.971224 258.85609 
L 185.244942 251.3402 
L 188.493112 239.996315 
L 189.305154 241.766671 
L 190.442014 244.867488 
L 191.741282 249.107652 
L 193.040549 253.366912 
L 193.690183 253.578112 
L 194.339817 253.531878 
L 194.989451 253.257461 
L 195.801493 252.633894 
L 196.775944 251.535175 
L 197.912804 249.858729 
L 199.212071 247.538888 
L 200.673748 244.555183 
L 201.160973 245.1179 
L 201.48579 245.259897 
L 201.810607 245.227868 
L 202.297833 244.875619 
L 203.272283 245.965342 
L 204.246734 246.743181 
L 205.221185 247.255391 
L 206.195636 247.542356 
L 207.332495 247.639185 
L 208.631763 247.494357 
L 210.093439 247.077038 
L 211.06789 246.682845 
L 211.717524 249.18752 
L 212.367158 250.932328 
L 213.016792 251.997935 
L 213.504017 252.395935 
L 213.991243 252.482035 
L 214.478468 252.282933 
L 214.965694 251.823518 
L 215.615328 250.845895 
L 216.42737 249.107511 
L 216.752187 248.516215 
L 217.726638 247.646799 
L 218.701089 247.116868 
L 219.67554 246.873988 
L 220.64999 246.872472 
L 221.78685 247.123027 
L 223.086118 247.676483 
L 224.547794 248.559639 
L 226.334287 249.904944 
L 228.932823 252.174533 
L 231.206541 254.296326 
L 231.856175 252.897931 
L 232.505809 251.483958 
L 233.48026 250.891323 
L 234.454711 250.531868 
L 235.59157 250.359392 
L 236.72843 250.406091 
L 238.027697 250.674354 
L 239.489374 251.188133 
L 240.301416 253.82215 
L 240.95105 255.228187 
L 241.600684 256.082416 
L 242.087909 256.397154 
L 242.575135 256.458525 
L 243.06236 256.288232 
L 243.549586 255.906506 
L 244.19922 255.101045 
L 245.011262 253.674906 
L 245.985713 251.442775 
L 247.122572 248.257186 
L 248.584248 243.465434 
L 250.53315 236.262592 
L 251.507601 232.446516 
L 252.157235 232.814215 
L 252.806869 233.44754 
L 253.618911 234.564347 
L 254.593362 236.308268 
L 255.730221 238.793526 
L 257.191898 242.01157 
L 257.841532 242.449314 
L 258.328757 242.55714 
L 258.978391 242.437205 
L 259.628025 242.047595 
L 259.790433 241.911832 
L 260.602476 239.45721 
L 261.414518 237.636798 
L 262.226561 236.370706 
L 262.876194 235.708738 
L 263.525828 235.32279 
L 264.175462 235.182814 
L 264.825096 235.261416 
L 265.637139 235.629245 
L 266.449181 236.255907 
L 267.423632 237.295015 
L 268.560491 238.829461 
L 270.022167 241.19104 
L 271.483844 243.862184 
L 271.971069 243.545294 
L 272.295886 243.551631 
L 272.783112 243.862425 
L 273.270337 244.506515 
L 273.595154 245.106273 
L 274.732013 244.507113 
L 275.381647 244.265723 
L 276.843323 228.475508 
L 278.305 214.919145 
L 279.766676 203.260261 
L 281.228352 193.215176 
L 282.690029 184.544451 
L 284.314113 176.27729 
L 285.938198 169.225281 
L 287.237466 163.682305 
L 288.536734 156.719339 
L 289.511185 151.489763 
L 290.648044 149.130582 
L 291.784903 147.213366 
L 292.921763 145.671334 
L 294.221031 144.295106 
L 295.520298 143.261188 
L 296.819566 142.508294 
L 298.281242 141.933529 
L 299.905327 141.562611 
L 301.042187 141.462214 
L 301.529412 141.722902 
L 302.016637 142.271975 
L 302.666271 143.408395 
L 303.478314 145.400563 
L 304.452765 148.500828 
L 305.589624 152.90966 
L 307.0513 159.525086 
L 307.863343 163.540698 
L 308.675385 163.479019 
L 309.487427 163.16457 
L 310.461878 162.504911 
L 311.598738 161.415538 
L 312.898005 159.84034 
L 314.52209 157.511279 
L 316.795809 153.832047 
L 319.394344 149.361899 
L 320.043978 150.5973 
L 320.856021 152.612364 
L 321.830472 155.612645 
L 323.129739 160.398379 
L 324.753824 167.298438 
L 327.189951 178.787974 
L 327.35236 179.581814 
L 328.001994 179.162788 
L 328.814036 178.334635 
L 329.788487 176.961573 
L 330.925346 174.93411 
L 332.387023 171.813884 
L 333.68629 168.98578 
L 334.173516 168.801805 
L 334.660741 168.824464 
L 335.147967 169.035932 
L 335.797601 169.583042 
L 336.609643 170.642648 
L 337.584094 172.382128 
L 338.720953 174.9362 
L 340.182629 178.852366 
L 342.131531 184.82319 
L 343.755616 190.181914 
L 344.40525 189.665512 
L 345.054884 188.856031 
L 345.866926 187.485929 
L 346.841377 185.397803 
L 348.140645 182.012563 
L 349.76473 177.074112 
L 352.038448 169.349613 
L 357.722745 149.036815 
L 359.022013 153.01262 
L 359.834055 153.618129 
L 360.646098 153.913962 
L 361.45814 153.94188 
L 362.270182 153.739072 
L 363.244633 153.237456 
L 364.381493 152.358891 
L 365.68076 151.050605 
L 367.304845 149.081168 
L 368.766521 147.248612 
L 369.253747 147.205437 
L 369.740972 147.406357 
L 370.228198 147.830017 
L 370.877832 148.707186 
L 371.689874 150.245172 
L 372.664325 152.638889 
L 373.801184 156.043186 
L 374.775635 158.954067 
L 375.425269 159.413861 
L 376.074903 159.617792 
L 376.724537 159.594176 
L 377.374171 159.368816 
L 378.186213 158.838999 
L 379.160664 157.893154 
L 380.297523 156.440306 
L 381.7592 154.147968 
L 383.545693 150.894536 
L 386.306637 145.331877 
L 388.255539 141.267658 
L 389.067581 143.245849 
L 390.042032 145.852542 
L 390.854074 146.537242 
L 391.666117 146.95032 
L 392.478159 147.127693 
L 393.290201 147.101371 
L 394.264652 146.840801 
L 395.401512 146.275171 
L 395.726329 146.069724 
L 396.538371 143.251499 
L 397.188005 141.660683 
L 397.837639 140.59308 
L 398.487273 139.992744 
L 398.487273 139.992744 
" style="fill:none;stroke:#9a72ac;stroke-linecap:round;stroke-width:1.5;"/>
   </g>
   <g id="line2d_16">
    <path clip-path="url(#p6b2cc7116d)" d="M 73.832727 75.254322 
L 74.157544 82.526989 
L 74.319953 83.858298 
L 75.294404 96.55857 
L 76.106446 104.707224 
L 76.918488 110.929625 
L 77.730531 115.465206 
L 78.380165 118.023698 
L 78.86739 119.847434 
L 79.679432 122.59055 
L 80.491475 124.619005 
L 81.303517 126.022932 
L 81.953151 126.750792 
L 82.602785 127.167785 
L 82.765194 127.227501 
L 83.414827 128.983518 
L 84.064461 130.165853 
L 84.714095 130.835813 
L 85.201321 131.035865 
L 85.688546 131.001008 
L 86.175772 130.75152 
L 86.662997 130.423605 
L 88.287082 130.144549 
L 90.398392 129.53194 
L 92.996928 128.532529 
L 93.80897 127.738005 
L 94.783421 126.456576 
L 94.945829 126.212731 
L 96.894731 126.017392 
L 99.330858 125.70253 
L 100.305309 126.747627 
L 101.27976 127.820501 
L 104.040704 130.282113 
L 104.690338 129.879441 
L 105.664789 129.175531 
L 106.964057 128.701941 
L 108.588141 127.855738 
L 110.699452 126.467731 
L 112.648353 125.014095 
L 113.460396 125.927437 
L 113.785213 126.386412 
L 115.246889 126.570399 
L 115.896523 127.234301 
L 116.546157 127.592669 
L 117.195791 127.678973 
L 117.845425 127.523718 
L 118.495058 127.154686 
L 119.469509 126.537494 
L 122.230453 126.166086 
L 123.367313 125.958097 
L 124.341764 125.346018 
L 125.478623 124.307113 
L 126.777891 122.783659 
L 127.102708 122.357573 
L 127.91475 122.640158 
L 128.726792 123.178781 
L 129.701243 124.109671 
L 133.436638 128.375295 
L 134.411089 129.875953 
L 135.060723 130.151346 
L 135.872765 131.708335 
L 136.522399 132.521645 
L 137.172033 132.994933 
L 137.821667 133.165223 
L 138.471301 133.066264 
L 139.120935 132.728801 
L 139.932977 132.013969 
L 140.907428 130.790557 
L 142.531513 128.580444 
L 144.155598 127.144027 
L 146.266908 125.183034 
L 146.916542 125.329284 
L 147.566176 125.257228 
L 148.378218 124.897887 
L 149.190261 124.279974 
L 150.164711 123.251597 
L 151.301571 121.729854 
L 151.788796 121.127668 
L 152.43843 120.694191 
L 152.925656 120.600429 
L 153.412881 120.686256 
L 154.062515 119.295579 
L 154.54974 118.648949 
L 155.036966 118.310947 
L 155.524191 118.255592 
L 156.011417 118.458652 
L 156.498642 118.897536 
L 157.310684 119.770462 
L 158.285135 120.271863 
L 159.421995 120.597958 
L 160.071629 120.677655 
L 160.883671 122.131569 
L 161.533305 122.900154 
L 162.182939 123.358313 
L 162.832573 123.539768 
L 163.482207 123.475261 
L 164.13184 123.1928 
L 164.943883 122.571848 
L 165.918334 121.492247 
L 167.055193 119.856359 
L 167.217602 119.594737 
L 167.542418 119.654593 
L 168.679278 119.968737 
L 169.978546 120.078314 
L 171.440222 119.949827 
L 173.064307 119.570414 
L 174.8508 118.947332 
L 175.338025 119.547616 
L 176.799702 118.542807 
L 179.235829 116.72982 
L 180.372688 116.248976 
L 180.859914 116.46792 
L 181.509548 117.027144 
L 182.32159 118.104903 
L 182.483998 118.365721 
L 183.945675 118.723879 
L 185.569759 118.904791 
L 187.518661 118.896319 
L 188.493112 118.822469 
L 189.467563 119.931137 
L 190.604422 121.571717 
L 192.066099 124.100072 
L 192.878141 125.657306 
L 194.177409 125.363153 
L 195.639085 124.806839 
L 195.963902 124.657234 
L 196.938353 123.432456 
L 198.562438 121.585624 
L 199.049663 121.066094 
L 199.699297 120.757467 
L 200.348931 120.692491 
L 200.836156 120.656696 
L 202.460241 119.710657 
L 203.272283 118.836969 
L 203.921917 118.418404 
L 204.571551 118.220027 
L 205.221185 118.217538 
L 206.033228 118.45635 
L 206.84527 118.927839 
L 207.819721 119.752326 
L 208.95658 121.00542 
L 210.580665 122.935733 
L 211.06789 122.762894 
L 211.717524 123.434355 
L 212.20475 123.645297 
L 212.691975 123.628881 
L 213.179201 123.404703 
L 213.828834 122.814007 
L 214.153651 122.53828 
L 216.752187 121.184913 
L 217.564229 120.259432 
L 218.376272 119.717376 
L 219.025906 119.525406 
L 219.837948 119.549011 
L 220.64999 119.827137 
L 221.624441 120.445416 
L 222.761301 121.489398 
L 223.248526 122.025205 
L 224.710202 121.288952 
L 225.684653 121.878601 
L 226.821513 122.839619 
L 228.283189 124.409303 
L 229.582457 125.888071 
L 231.206541 126.464742 
L 232.180992 125.20499 
L 232.343401 124.963617 
L 235.916387 125.52147 
L 236.403613 125.305258 
L 237.053247 124.732148 
L 237.540472 124.297453 
L 239.002148 126.574326 
L 239.489374 127.167954 
L 240.301416 129.428808 
L 241.113459 131.031542 
L 241.763092 131.780728 
L 241.925501 131.888399 
L 245.17367 142.647572 
L 246.148121 144.797337 
L 246.960164 146.146038 
L 247.772206 147.072154 
L 248.42184 147.499786 
L 248.584248 147.562492 
L 251.020376 154.3605 
L 256.217447 168.477741 
L 257.029489 169.519685 
L 257.841532 171.148024 
L 258.653574 172.460412 
L 259.952842 175.859143 
L 260.602476 176.744375 
L 261.576927 178.530099 
L 263.038603 181.813942 
L 265.961956 188.502223 
L 267.098815 190.579445 
L 268.073266 191.960234 
L 268.398083 192.326296 
L 269.69735 196.428077 
L 271.971069 203.778278 
L 273.595154 207.159107 
L 274.732013 212.111121 
L 275.381647 214.48874 
L 276.031281 214.897741 
L 276.518507 214.982772 
L 276.680915 214.969094 
L 278.792225 218.511952 
L 280.41631 221.004965 
L 281.553169 222.331225 
L 282.365212 222.98504 
L 282.690029 223.168241 
L 283.502071 224.613325 
L 285.126156 227.762234 
L 286.750241 230.052404 
L 287.724691 232.645163 
L 288.536734 234.191642 
L 289.186368 235.028696 
L 289.348776 235.18268 
L 290.648044 238.212748 
L 291.784903 240.285822 
L 292.596946 241.378843 
L 293.408988 242.117201 
L 294.058622 242.437726 
L 294.383439 242.504747 
L 295.845115 245.98863 
L 298.768468 253.095976 
L 300.067736 255.61833 
L 300.879778 257.147205 
L 302.991088 263.683779 
L 303.803131 264.286889 
L 306.564075 265.697638 
L 307.376117 265.749413 
L 308.512976 268.089866 
L 310.949104 273.064482 
L 312.085963 274.922573 
L 313.060414 276.131839 
L 313.872456 276.819156 
L 314.52209 277.137214 
L 315.009316 277.232004 
L 316.6334 281.959965 
L 317.283034 283.689049 
L 318.257485 285.01083 
L 319.231936 285.956535 
L 320.206387 286.884249 
L 321.668063 288.317534 
L 323.129739 288.928957 
L 323.941782 289.473148 
L 324.753824 290.281113 
L 325.403458 291.176659 
L 326.702726 290.230214 
L 327.35236 289.690071 
L 328.001994 289.72476 
L 328.651628 289.477967 
L 329.301262 288.982267 
L 330.113304 288.057513 
L 331.087755 286.568162 
L 332.224614 284.405569 
L 332.874248 283.003588 
L 333.361473 283.003075 
L 333.523882 283.035122 
L 334.335924 281.892479 
L 335.147967 281.18102 
L 335.797601 280.88395 
L 336.447235 280.800205 
L 337.096868 280.905915 
L 337.908911 281.271539 
L 338.883362 282.002878 
L 340.020221 283.187118 
L 340.832263 284.209688 
L 341.644306 283.910663 
L 342.456348 283.377594 
L 343.430799 282.478077 
L 343.918024 282.076141 
L 344.40525 281.802237 
L 345.054884 281.156425 
L 345.866926 280.218185 
L 346.678969 280.042336 
L 347.653419 279.556284 
L 348.62787 278.820095 
L 349.927138 277.528091 
L 351.551223 275.743966 
L 353.175308 275.576644 
L 354.799392 275.142952 
L 356.261069 275.439405 
L 357.722745 275.938447 
L 358.697196 277.37662 
L 358.859604 277.38058 
L 359.671647 278.650169 
L 360.321281 279.276739 
L 360.970915 279.597594 
L 361.620548 279.646338 
L 362.270182 279.453594 
L 362.919816 279.04725 
L 363.731859 278.277386 
L 364.70631 277.027503 
L 365.843169 275.204051 
L 367.304845 272.420005 
L 367.792071 271.407644 
L 368.766521 271.80547 
L 369.253747 271.739483 
L 369.740972 271.874947 
L 370.390606 272.338735 
L 371.04024 273.091178 
L 371.852283 274.384775 
L 372.339508 275.072666 
L 373.801184 275.597664 
L 374.775635 275.959148 
L 375.425269 276.429091 
L 376.074903 276.636682 
L 376.724537 276.610962 
L 377.374171 276.378391 
L 378.186213 275.833285 
L 379.160664 274.861265 
L 380.297523 273.369077 
L 380.784749 272.632163 
L 383.545693 272.507688 
L 384.357735 272.814304 
L 385.332186 273.33788 
L 386.306637 272.777988 
L 387.281088 272.455815 
L 388.255539 272.334324 
L 388.905173 272.526544 
L 389.554806 272.97707 
L 389.879623 273.289534 
L 391.178891 272.949437 
L 392.640568 272.807521 
L 394.264652 272.880463 
L 395.726329 273.101969 
L 396.538371 274.139058 
L 397.67523 275.699343 
L 398.487273 276.435522 
L 398.487273 276.435522 
" style="fill:none;stroke:#cf5044;stroke-linecap:round;stroke-width:1.5;"/>
   </g>
   <g id="patch_3">
    <path d="M 57.6 307.584 
L 57.6 41.472 
" style="fill:none;stroke:#ffffff;stroke-linecap:square;stroke-linejoin:miter;stroke-width:0.8;"/>
   </g>
   <g id="patch_4">
    <path d="M 414.72 307.584 
L 414.72 41.472 
" style="fill:none;stroke:#ffffff;stroke-linecap:square;stroke-linejoin:miter;stroke-width:0.8;"/>
   </g>
   <g id="patch_5">
    <path d="M 57.6 307.584 
L 414.72 307.584 
" style="fill:none;stroke:#ffffff;stroke-linecap:square;stroke-linejoin:miter;stroke-width:0.8;"/>
   </g>
   <g id="patch_6">
    <path d="M 57.6 41.472 
L 414.72 41.472 
" style="fill:none;stroke:#ffffff;stroke-linecap:square;stroke-linejoin:miter;stroke-width:0.8;"/>
   </g>
   <g id="legend_1">
    <g id="line2d_17">
     <path d="M 329.915313 54.218875 
L 349.915313 54.218875 
" style="fill:none;stroke:#9a72ac;stroke-linecap:round;stroke-width:1.5;"/>
    </g>
    <g id="line2d_18"/>
    <g id="text_17">
     <!-- Egomotion -->
     <g style="fill:#ffffff;" transform="translate(357.915313 57.718875)scale(0.1 -0.1)">
      <defs>
       <path d="M 8.203125 0 
L 8.203125 68.796875 
L 60.40625 68.796875 
L 60.40625 61.1875 
L 17.53125 61.1875 
L 17.53125 39.109375 
L 57.46875 39.109375 
L 57.46875 31.59375 
L 17.53125 31.59375 
L 17.53125 7.625 
L 62.40625 7.625 
L 62.40625 0 
z
" id="LiberationSans-69"/>
       <path d="M 26.765625 -20.75 
Q 22.21875 -20.75 18.703125 -19.8125 
Q 15.1875 -18.890625 12.6875 -17.15625 
Q 10.203125 -15.4375 8.640625 -13.03125 
Q 7.078125 -10.640625 6.390625 -7.71875 
L 15.234375 -6.453125 
Q 16.109375 -10.109375 19.109375 -12.078125 
Q 22.125 -14.0625 27 -14.0625 
Q 29.984375 -14.0625 32.421875 -13.234375 
Q 34.859375 -12.40625 36.5625 -10.5625 
Q 38.28125 -8.734375 39.203125 -5.796875 
Q 40.140625 -2.875 40.140625 1.3125 
L 40.140625 9.8125 
L 40.046875 9.8125 
Q 39.0625 7.8125 37.625 5.984375 
Q 36.1875 4.15625 34.109375 2.734375 
Q 32.03125 1.3125 29.296875 0.453125 
Q 26.5625 -0.390625 23.046875 -0.390625 
Q 18.015625 -0.390625 14.421875 1.296875 
Q 10.84375 2.984375 8.5625 6.34375 
Q 6.296875 9.71875 5.25 14.71875 
Q 4.203125 19.734375 4.203125 26.3125 
Q 4.203125 32.671875 5.25 37.75 
Q 6.296875 42.828125 8.65625 46.359375 
Q 11.03125 49.90625 14.8125 51.78125 
Q 18.609375 53.65625 24.03125 53.65625 
Q 29.640625 53.65625 33.765625 51.09375 
Q 37.890625 48.53125 40.140625 43.796875 
L 40.234375 43.796875 
Q 40.234375 45.015625 40.296875 46.53125 
Q 40.375 48.046875 40.453125 49.390625 
Q 40.53125 50.734375 40.625 51.703125 
Q 40.71875 52.6875 40.828125 52.828125 
L 49.171875 52.828125 
Q 49.125 52.390625 49.078125 51.34375 
Q 49.03125 50.296875 48.96875 48.828125 
Q 48.921875 47.359375 48.890625 45.578125 
Q 48.875 43.796875 48.875 41.890625 
L 48.875 1.515625 
Q 48.875 -9.578125 43.421875 -15.15625 
Q 37.984375 -20.75 26.765625 -20.75 
z
M 40.140625 26.421875 
Q 40.140625 31.9375 38.9375 35.859375 
Q 37.75 39.796875 35.796875 42.28125 
Q 33.84375 44.78125 31.328125 45.953125 
Q 28.8125 47.125 26.171875 47.125 
Q 22.796875 47.125 20.375 45.953125 
Q 17.96875 44.78125 16.375 42.265625 
Q 14.796875 39.75 14.03125 35.8125 
Q 13.28125 31.890625 13.28125 26.421875 
Q 13.28125 20.703125 14.03125 16.8125 
Q 14.796875 12.9375 16.359375 10.546875 
Q 17.921875 8.15625 20.3125 7.125 
Q 22.703125 6.109375 26.03125 6.109375 
Q 28.65625 6.109375 31.171875 7.21875 
Q 33.6875 8.34375 35.6875 10.78125 
Q 37.703125 13.234375 38.921875 17.09375 
Q 40.140625 20.953125 40.140625 26.421875 
z
" id="LiberationSans-103"/>
       <path d="M 51.421875 26.46875 
Q 51.421875 12.59375 45.3125 5.796875 
Q 39.203125 -0.984375 27.59375 -0.984375 
Q 22.078125 -0.984375 17.71875 0.671875 
Q 13.375 2.34375 10.375 5.765625 
Q 7.375 9.1875 5.78125 14.328125 
Q 4.203125 19.484375 4.203125 26.46875 
Q 4.203125 53.8125 27.875 53.8125 
Q 34.03125 53.8125 38.5 52.09375 
Q 42.96875 50.390625 45.828125 46.96875 
Q 48.6875 43.5625 50.046875 38.421875 
Q 51.421875 33.296875 51.421875 26.46875 
z
M 42.1875 26.46875 
Q 42.1875 32.625 41.234375 36.625 
Q 40.28125 40.625 38.453125 43.015625 
Q 36.625 45.40625 33.984375 46.359375 
Q 31.34375 47.3125 28.03125 47.3125 
Q 24.65625 47.3125 21.9375 46.3125 
Q 19.234375 45.3125 17.328125 42.890625 
Q 15.4375 40.484375 14.421875 36.46875 
Q 13.421875 32.46875 13.421875 26.46875 
Q 13.421875 20.3125 14.5 16.28125 
Q 15.578125 12.25 17.453125 9.859375 
Q 19.34375 7.46875 21.90625 6.484375 
Q 24.46875 5.515625 27.484375 5.515625 
Q 30.859375 5.515625 33.59375 6.46875 
Q 36.328125 7.421875 38.234375 9.8125 
Q 40.140625 12.203125 41.15625 16.25 
Q 42.1875 20.3125 42.1875 26.46875 
z
" id="LiberationSans-111"/>
       <path d="M 27.046875 0.390625 
Q 25.046875 -0.140625 22.96875 -0.453125 
Q 20.90625 -0.78125 18.171875 -0.78125 
Q 7.625 -0.78125 7.625 11.1875 
L 7.625 46.4375 
L 1.515625 46.4375 
L 1.515625 52.828125 
L 7.953125 52.828125 
L 10.546875 64.65625 
L 16.40625 64.65625 
L 16.40625 52.828125 
L 26.171875 52.828125 
L 26.171875 46.4375 
L 16.40625 46.4375 
L 16.40625 13.09375 
Q 16.40625 9.28125 17.640625 7.734375 
Q 18.890625 6.203125 21.96875 6.203125 
Q 23.25 6.203125 24.4375 6.390625 
Q 25.640625 6.59375 27.046875 6.890625 
z
" id="LiberationSans-116"/>
       <path d="M 6.6875 64.0625 
L 6.6875 72.46875 
L 15.484375 72.46875 
L 15.484375 64.0625 
z
M 6.6875 0 
L 6.6875 52.828125 
L 15.484375 52.828125 
L 15.484375 0 
z
" id="LiberationSans-105"/>
       <path d="M 40.28125 0 
L 40.28125 33.5 
Q 40.28125 37.359375 39.71875 39.9375 
Q 39.15625 42.53125 37.890625 44.109375 
Q 36.625 45.703125 34.546875 46.359375 
Q 32.46875 47.015625 29.390625 47.015625 
Q 26.265625 47.015625 23.75 45.921875 
Q 21.234375 44.828125 19.453125 42.75 
Q 17.671875 40.671875 16.6875 37.625 
Q 15.71875 34.578125 15.71875 30.609375 
L 15.71875 0 
L 6.9375 0 
L 6.9375 41.546875 
Q 6.9375 43.21875 6.90625 45.046875 
Q 6.890625 46.875 6.828125 48.5 
Q 6.78125 50.140625 6.734375 51.3125 
Q 6.6875 52.484375 6.640625 52.828125 
L 14.9375 52.828125 
Q 14.984375 52.59375 15.03125 51.515625 
Q 15.09375 50.4375 15.15625 49.046875 
Q 15.234375 47.65625 15.28125 46.21875 
Q 15.328125 44.78125 15.328125 43.796875 
L 15.484375 43.796875 
Q 16.75 46.09375 18.265625 47.953125 
Q 19.78125 49.8125 21.78125 51.09375 
Q 23.78125 52.390625 26.359375 53.09375 
Q 28.953125 53.8125 32.375 53.8125 
Q 36.765625 53.8125 39.9375 52.734375 
Q 43.109375 51.65625 45.15625 49.40625 
Q 47.21875 47.171875 48.171875 43.625 
Q 49.125 40.09375 49.125 35.203125 
L 49.125 0 
z
" id="LiberationSans-110"/>
      </defs>
      <use xlink:href="#LiberationSans-69"/>
      <use x="66.699219" xlink:href="#LiberationSans-103"/>
      <use x="122.314453" xlink:href="#LiberationSans-111"/>
      <use x="177.929688" xlink:href="#LiberationSans-109"/>
      <use x="261.230469" xlink:href="#LiberationSans-111"/>
      <use x="316.845703" xlink:href="#LiberationSans-116"/>
      <use x="344.628906" xlink:href="#LiberationSans-105"/>
      <use x="366.845703" xlink:href="#LiberationSans-111"/>
      <use x="422.460938" xlink:href="#LiberationSans-110"/>
     </g>
    </g>
    <g id="line2d_19">
     <path d="M 329.915313 68.54075 
L 349.915313 68.54075 
" style="fill:none;stroke:#cf5044;stroke-linecap:round;stroke-width:1.5;"/>
    </g>
    <g id="line2d_20"/>
    <g id="text_18">
     <!-- Visual -->
     <g style="fill:#ffffff;" transform="translate(357.915313 72.04075)scale(0.1 -0.1)">
      <defs>
       <path d="M 38.1875 0 
L 28.515625 0 
L 0.4375 68.796875 
L 10.25 68.796875 
L 29.296875 20.359375 
Q 30.03125 18.171875 30.765625 15.984375 
Q 31.5 13.8125 32.078125 12.109375 
Q 32.765625 10.109375 33.40625 8.203125 
Q 33.984375 10.015625 34.671875 12.015625 
Q 35.25 13.71875 35.953125 15.859375 
Q 36.671875 18.015625 37.5 20.359375 
L 56.453125 68.796875 
L 66.265625 68.796875 
z
" id="LiberationSans-86"/>
       <path d="M 15.328125 52.828125 
L 15.328125 19.34375 
Q 15.328125 15.484375 15.890625 12.890625 
Q 16.453125 10.296875 17.71875 8.703125 
Q 19 7.125 21.0625 6.46875 
Q 23.140625 5.8125 26.21875 5.8125 
Q 29.34375 5.8125 31.859375 6.90625 
Q 34.375 8.015625 36.15625 10.078125 
Q 37.9375 12.15625 38.90625 15.203125 
Q 39.890625 18.265625 39.890625 22.21875 
L 39.890625 52.828125 
L 48.6875 52.828125 
L 48.6875 11.28125 
Q 48.6875 9.625 48.703125 7.78125 
Q 48.734375 5.953125 48.78125 4.3125 
Q 48.828125 2.6875 48.875 1.515625 
Q 48.921875 0.34375 48.96875 0 
L 40.671875 0 
Q 40.625 0.25 40.578125 1.3125 
Q 40.53125 2.390625 40.453125 3.78125 
Q 40.375 5.171875 40.328125 6.609375 
Q 40.28125 8.0625 40.28125 9.03125 
L 40.140625 9.03125 
Q 38.875 6.734375 37.359375 4.875 
Q 35.84375 3.03125 33.84375 1.734375 
Q 31.84375 0.4375 29.25 -0.265625 
Q 26.65625 -0.984375 23.25 -0.984375 
Q 18.84375 -0.984375 15.671875 0.09375 
Q 12.5 1.171875 10.453125 3.421875 
Q 8.40625 5.671875 7.453125 9.1875 
Q 6.5 12.703125 6.5 17.625 
L 6.5 52.828125 
z
" id="LiberationSans-117"/>
       <path d="M 20.21875 -0.984375 
Q 12.25 -0.984375 8.25 3.21875 
Q 4.25 7.421875 4.25 14.75 
Q 4.25 19.96875 6.21875 23.3125 
Q 8.203125 26.65625 11.390625 28.5625 
Q 14.59375 30.46875 18.6875 31.203125 
Q 22.796875 31.9375 27.046875 32.03125 
L 38.921875 32.234375 
L 38.921875 35.109375 
Q 38.921875 38.375 38.234375 40.671875 
Q 37.546875 42.96875 36.125 44.375 
Q 34.71875 45.796875 32.59375 46.453125 
Q 30.46875 47.125 27.59375 47.125 
Q 25.046875 47.125 23 46.75 
Q 20.953125 46.390625 19.4375 45.4375 
Q 17.921875 44.484375 16.984375 42.84375 
Q 16.0625 41.21875 15.765625 38.71875 
L 6.59375 39.546875 
Q 7.078125 42.671875 8.4375 45.28125 
Q 9.8125 47.90625 12.328125 49.796875 
Q 14.84375 51.703125 18.625 52.75 
Q 22.40625 53.8125 27.78125 53.8125 
Q 37.75 53.8125 42.765625 49.234375 
Q 47.796875 44.671875 47.796875 36.03125 
L 47.796875 13.28125 
Q 47.796875 9.375 48.828125 7.390625 
Q 49.859375 5.421875 52.734375 5.421875 
Q 53.46875 5.421875 54.203125 5.515625 
Q 54.9375 5.609375 55.609375 5.765625 
L 55.609375 0.296875 
Q 53.953125 -0.09375 52.3125 -0.28125 
Q 50.6875 -0.484375 48.828125 -0.484375 
Q 46.34375 -0.484375 44.5625 0.171875 
Q 42.78125 0.828125 41.65625 2.171875 
Q 40.53125 3.515625 39.9375 5.484375 
Q 39.359375 7.46875 39.203125 10.109375 
L 38.921875 10.109375 
Q 37.5 7.5625 35.8125 5.515625 
Q 34.125 3.46875 31.875 2.03125 
Q 29.640625 0.59375 26.78125 -0.1875 
Q 23.921875 -0.984375 20.21875 -0.984375 
z
M 22.21875 5.609375 
Q 26.421875 5.609375 29.5625 7.140625 
Q 32.71875 8.6875 34.78125 11.078125 
Q 36.859375 13.484375 37.890625 16.3125 
Q 38.921875 19.140625 38.921875 21.734375 
L 38.921875 26.078125 
L 29.296875 25.875 
Q 26.078125 25.828125 23.171875 25.40625 
Q 20.265625 25 18.0625 23.78125 
Q 15.875 22.5625 14.578125 20.359375 
Q 13.28125 18.171875 13.28125 14.59375 
Q 13.28125 10.296875 15.59375 7.953125 
Q 17.921875 5.609375 22.21875 5.609375 
z
" id="LiberationSans-97"/>
       <path d="M 6.734375 0 
L 6.734375 72.46875 
L 15.53125 72.46875 
L 15.53125 0 
z
" id="LiberationSans-108"/>
      </defs>
      <use xlink:href="#LiberationSans-86"/>
      <use x="64.949219" xlink:href="#LiberationSans-105"/>
      <use x="87.166016" xlink:href="#LiberationSans-115"/>
      <use x="137.166016" xlink:href="#LiberationSans-117"/>
      <use x="192.78125" xlink:href="#LiberationSans-97"/>
      <use x="248.396484" xlink:href="#LiberationSans-108"/>
     </g>
    </g>
   </g>
  </g>
  <g id="text_19">
   <!-- Decoding performance -->
   <g style="fill:#ffffff;" transform="translate(169.704375 15.60825)scale(0.12 -0.12)">
    <defs>
     <path d="M 67.4375 35.109375 
Q 67.4375 26.515625 64.84375 19.9375 
Q 62.25 13.375 57.75 8.953125 
Q 53.265625 4.546875 47.140625 2.265625 
Q 41.015625 0 33.9375 0 
L 8.203125 0 
L 8.203125 68.796875 
L 30.953125 68.796875 
Q 38.921875 68.796875 45.625 66.8125 
Q 52.34375 64.84375 57.171875 60.71875 
Q 62.015625 56.59375 64.71875 50.234375 
Q 67.4375 43.890625 67.4375 35.109375 
z
M 58.0625 35.109375 
Q 58.0625 42.09375 56.046875 47.046875 
Q 54.046875 52 50.4375 55.171875 
Q 46.828125 58.34375 41.796875 59.828125 
Q 36.765625 61.328125 30.765625 61.328125 
L 17.53125 61.328125 
L 17.53125 7.46875 
L 32.859375 7.46875 
Q 38.28125 7.46875 42.890625 9.21875 
Q 47.515625 10.984375 50.875 14.453125 
Q 54.25 17.921875 56.15625 23.09375 
Q 58.0625 28.265625 58.0625 35.109375 
z
" id="LiberationSans-68"/>
     <path d="M 13.484375 24.5625 
Q 13.484375 20.40625 14.328125 16.90625 
Q 15.1875 13.421875 16.96875 10.90625 
Q 18.75 8.40625 21.53125 7 
Q 24.3125 5.609375 28.21875 5.609375 
Q 33.9375 5.609375 37.375 7.90625 
Q 40.828125 10.203125 42.046875 13.71875 
L 49.75 11.53125 
Q 48.921875 9.328125 47.4375 7.109375 
Q 45.953125 4.890625 43.453125 3.09375 
Q 40.96875 1.3125 37.234375 0.15625 
Q 33.5 -0.984375 28.21875 -0.984375 
Q 16.5 -0.984375 10.375 6 
Q 4.25 12.984375 4.25 26.765625 
Q 4.25 34.1875 6.09375 39.328125 
Q 7.953125 44.484375 11.171875 47.703125 
Q 14.40625 50.921875 18.703125 52.359375 
Q 23 53.8125 27.875 53.8125 
Q 34.515625 53.8125 38.984375 51.65625 
Q 43.453125 49.515625 46.15625 45.71875 
Q 48.875 41.9375 50.015625 36.8125 
Q 51.171875 31.6875 51.171875 25.734375 
L 51.171875 24.5625 
z
M 42.09375 31.296875 
Q 41.359375 39.65625 37.84375 43.484375 
Q 34.328125 47.3125 27.734375 47.3125 
Q 25.53125 47.3125 23.109375 46.609375 
Q 20.703125 45.90625 18.65625 44.09375 
Q 16.609375 42.28125 15.1875 39.171875 
Q 13.765625 36.078125 13.578125 31.296875 
z
" id="LiberationSans-101"/>
     <path d="M 13.421875 26.65625 
Q 13.421875 22.125 14.078125 18.3125 
Q 14.75 14.5 16.3125 11.734375 
Q 17.875 8.984375 20.4375 7.46875 
Q 23 5.953125 26.765625 5.953125 
Q 31.453125 5.953125 34.59375 8.484375 
Q 37.75 11.03125 38.484375 16.3125 
L 47.359375 15.71875 
Q 46.921875 12.453125 45.453125 9.421875 
Q 44 6.390625 41.484375 4.09375 
Q 38.96875 1.8125 35.34375 0.40625 
Q 31.734375 -0.984375 27 -0.984375 
Q 20.796875 -0.984375 16.453125 1.109375 
Q 12.109375 3.21875 9.390625 6.90625 
Q 6.6875 10.59375 5.46875 15.59375 
Q 4.25 20.609375 4.25 26.46875 
Q 4.25 31.78125 5.125 35.859375 
Q 6 39.9375 7.59375 42.984375 
Q 9.1875 46.046875 11.328125 48.125 
Q 13.484375 50.203125 15.984375 51.4375 
Q 18.5 52.6875 21.28125 53.25 
Q 24.078125 53.8125 26.90625 53.8125 
Q 31.34375 53.8125 34.8125 52.59375 
Q 38.28125 51.375 40.796875 49.25 
Q 43.3125 47.125 44.875 44.234375 
Q 46.4375 41.359375 47.078125 38.03125 
L 38.03125 37.359375 
Q 37.359375 41.75 34.5625 44.328125 
Q 31.78125 46.921875 26.65625 46.921875 
Q 22.90625 46.921875 20.390625 45.671875 
Q 17.875 44.4375 16.3125 41.921875 
Q 14.75 39.40625 14.078125 35.59375 
Q 13.421875 31.78125 13.421875 26.65625 
z
" id="LiberationSans-99"/>
     <path d="M 40.09375 8.5 
Q 37.640625 3.421875 33.609375 1.21875 
Q 29.59375 -0.984375 23.640625 -0.984375 
Q 13.625 -0.984375 8.90625 5.75 
Q 4.203125 12.5 4.203125 26.171875 
Q 4.203125 53.8125 23.640625 53.8125 
Q 29.640625 53.8125 33.640625 51.609375 
Q 37.640625 49.421875 40.09375 44.625 
L 40.1875 44.625 
Q 40.1875 45.125 40.15625 46.171875 
Q 40.140625 47.21875 40.109375 48.359375 
Q 40.09375 49.515625 40.09375 50.53125 
Q 40.09375 51.5625 40.09375 52 
L 40.09375 72.46875 
L 48.875 72.46875 
L 48.875 10.890625 
Q 48.875 8.984375 48.890625 7.21875 
Q 48.921875 5.46875 48.96875 4 
Q 49.03125 2.546875 49.078125 1.484375 
Q 49.125 0.4375 49.171875 0 
L 40.765625 0 
Q 40.671875 0.484375 40.59375 1.390625 
Q 40.53125 2.296875 40.453125 3.46875 
Q 40.375 4.640625 40.328125 5.9375 
Q 40.28125 7.234375 40.28125 8.5 
z
M 13.421875 26.46875 
Q 13.421875 21 14.109375 17.09375 
Q 14.796875 13.1875 16.3125 10.671875 
Q 17.828125 8.15625 20.171875 6.984375 
Q 22.515625 5.8125 25.875 5.8125 
Q 29.34375 5.8125 32 6.9375 
Q 34.671875 8.0625 36.453125 10.578125 
Q 38.234375 13.09375 39.15625 17.140625 
Q 40.09375 21.1875 40.09375 27.046875 
Q 40.09375 32.671875 39.15625 36.546875 
Q 38.234375 40.4375 36.421875 42.828125 
Q 34.625 45.21875 32 46.265625 
Q 29.390625 47.3125 25.984375 47.3125 
Q 22.75 47.3125 20.40625 46.1875 
Q 18.0625 45.0625 16.5 42.578125 
Q 14.9375 40.09375 14.171875 36.109375 
Q 13.421875 32.125 13.421875 26.46875 
z
" id="LiberationSans-100"/>
     <path d="M 51.421875 26.65625 
Q 51.421875 20.65625 50.4375 15.578125 
Q 49.46875 10.5 47.1875 6.828125 
Q 44.921875 3.171875 41.1875 1.09375 
Q 37.453125 -0.984375 31.984375 -0.984375 
Q 26.3125 -0.984375 22.0625 1.171875 
Q 17.828125 3.328125 15.578125 8.203125 
L 15.328125 8.203125 
Q 15.375 8.109375 15.40625 7.328125 
Q 15.4375 6.546875 15.453125 5.375 
Q 15.484375 4.203125 15.5 2.75 
Q 15.53125 1.3125 15.53125 -0.09375 
L 15.53125 -20.75 
L 6.734375 -20.75 
L 6.734375 42.046875 
Q 6.734375 43.953125 6.703125 45.703125 
Q 6.6875 47.46875 6.640625 48.90625 
Q 6.59375 50.34375 6.546875 51.359375 
Q 6.5 52.390625 6.453125 52.828125 
L 14.9375 52.828125 
Q 14.984375 52.6875 15.0625 51.796875 
Q 15.140625 50.921875 15.203125 49.671875 
Q 15.28125 48.4375 15.359375 47.015625 
Q 15.4375 45.609375 15.4375 44.34375 
L 15.625 44.34375 
Q 16.84375 46.875 18.40625 48.65625 
Q 19.96875 50.4375 21.96875 51.578125 
Q 23.96875 52.734375 26.4375 53.25 
Q 28.90625 53.765625 31.984375 53.765625 
Q 37.453125 53.765625 41.1875 51.8125 
Q 44.921875 49.859375 47.1875 46.3125 
Q 49.46875 42.78125 50.4375 37.765625 
Q 51.421875 32.765625 51.421875 26.65625 
z
M 42.1875 26.46875 
Q 42.1875 31.34375 41.59375 35.15625 
Q 41.015625 38.96875 39.578125 41.59375 
Q 38.140625 44.234375 35.734375 45.59375 
Q 33.34375 46.96875 29.734375 46.96875 
Q 26.8125 46.96875 24.21875 46.140625 
Q 21.625 45.3125 19.703125 42.96875 
Q 17.78125 40.625 16.65625 36.5 
Q 15.53125 32.375 15.53125 25.78125 
Q 15.53125 20.171875 16.453125 16.28125 
Q 17.390625 12.40625 19.171875 10.015625 
Q 20.953125 7.625 23.578125 6.5625 
Q 26.21875 5.515625 29.640625 5.515625 
Q 33.296875 5.515625 35.71875 6.921875 
Q 38.140625 8.34375 39.578125 11.03125 
Q 41.015625 13.71875 41.59375 17.59375 
Q 42.1875 21.484375 42.1875 26.46875 
z
" id="LiberationSans-112"/>
     <path d="M 6.9375 0 
L 6.9375 40.53125 
Q 6.9375 42.1875 6.90625 43.921875 
Q 6.890625 45.65625 6.828125 47.265625 
Q 6.78125 48.875 6.734375 50.28125 
Q 6.6875 51.703125 6.640625 52.828125 
L 14.9375 52.828125 
Q 14.984375 51.703125 15.0625 50.265625 
Q 15.140625 48.828125 15.203125 47.3125 
Q 15.28125 45.796875 15.296875 44.40625 
Q 15.328125 43.015625 15.328125 42.046875 
L 15.53125 42.046875 
Q 16.453125 45.0625 17.5 47.28125 
Q 18.5625 49.515625 19.96875 50.953125 
Q 21.390625 52.390625 23.34375 53.09375 
Q 25.296875 53.8125 28.078125 53.8125 
Q 29.15625 53.8125 30.125 53.640625 
Q 31.109375 53.46875 31.640625 53.328125 
L 31.640625 45.265625 
Q 30.765625 45.515625 29.59375 45.625 
Q 28.421875 45.75 26.953125 45.75 
Q 23.921875 45.75 21.796875 44.375 
Q 19.671875 43.015625 18.328125 40.59375 
Q 17 38.1875 16.359375 34.84375 
Q 15.71875 31.5 15.71875 27.546875 
L 15.71875 0 
z
" id="LiberationSans-114"/>
     <path d="M 17.625 46.4375 
L 17.625 0 
L 8.84375 0 
L 8.84375 46.4375 
L 1.421875 46.4375 
L 1.421875 52.828125 
L 8.84375 52.828125 
L 8.84375 58.796875 
Q 8.84375 61.671875 9.375 64.140625 
Q 9.90625 66.609375 11.34375 68.4375 
Q 12.796875 70.265625 15.28125 71.3125 
Q 17.78125 72.359375 21.734375 72.359375 
Q 23.296875 72.359375 24.96875 72.21875 
Q 26.65625 72.078125 27.9375 71.78125 
L 27.9375 65.09375 
Q 27.09375 65.234375 26 65.359375 
Q 24.90625 65.484375 24.03125 65.484375 
Q 22.078125 65.484375 20.828125 64.9375 
Q 19.578125 64.40625 18.875 63.40625 
Q 18.171875 62.40625 17.890625 60.9375 
Q 17.625 59.46875 17.625 57.5625 
L 17.625 52.828125 
L 27.9375 52.828125 
L 27.9375 46.4375 
z
" id="LiberationSans-102"/>
    </defs>
    <use xlink:href="#LiberationSans-68"/>
    <use x="72.216797" xlink:href="#LiberationSans-101"/>
    <use x="127.832031" xlink:href="#LiberationSans-99"/>
    <use x="177.832031" xlink:href="#LiberationSans-111"/>
    <use x="233.447266" xlink:href="#LiberationSans-100"/>
    <use x="289.0625" xlink:href="#LiberationSans-105"/>
    <use x="311.279297" xlink:href="#LiberationSans-110"/>
    <use x="366.894531" xlink:href="#LiberationSans-103"/>
    <use x="422.509766" xlink:href="#LiberationSans-32"/>
    <use x="450.292969" xlink:href="#LiberationSans-112"/>
    <use x="505.908203" xlink:href="#LiberationSans-101"/>
    <use x="561.523438" xlink:href="#LiberationSans-114"/>
    <use x="594.824219" xlink:href="#LiberationSans-102"/>
    <use x="622.607422" xlink:href="#LiberationSans-111"/>
    <use x="678.222656" xlink:href="#LiberationSans-114"/>
    <use x="711.523438" xlink:href="#LiberationSans-109"/>
    <use x="794.824219" xlink:href="#LiberationSans-97"/>
    <use x="850.439453" xlink:href="#LiberationSans-110"/>
    <use x="906.054688" xlink:href="#LiberationSans-99"/>
    <use x="956.054688" xlink:href="#LiberationSans-101"/>
   </g>
  </g>
 </g>
 <defs>
  <clipPath id="p6b2cc7116d">
   <rect height="266.112" width="357.12" x="57.6" y="41.472"/>
  </clipPath>
 </defs>
</svg>
