<?xml version="1.0" encoding="utf-8" standalone="no"?>
<!DOCTYPE svg PUBLIC "-//W3C//DTD SVG 1.1//EN"
  "http://www.w3.org/Graphics/SVG/1.1/DTD/svg11.dtd">
<!-- Created with matplotlib (https://matplotlib.org/) -->
<svg height="345.6pt" version="1.1" viewBox="0 0 460.8 345.6" width="460.8pt" xmlns="http://www.w3.org/2000/svg" xmlns:xlink="http://www.w3.org/1999/xlink">
 <metadata>
  <rdf:RDF xmlns:cc="http://creativecommons.org/ns#" xmlns:dc="http://purl.org/dc/elements/1.1/" xmlns:rdf="http://www.w3.org/1999/02/22-rdf-syntax-ns#">
   <cc:Work>
    <dc:type rdf:resource="http://purl.org/dc/dcmitype/StillImage"/>
    <dc:date>2022-05-05T15:11:36.917873</dc:date>
    <dc:format>image/svg+xml</dc:format>
    <dc:creator>
     <cc:Agent>
      <dc:title>Matplotlib v3.3.4, https://matplotlib.org/</dc:title>
     </cc:Agent>
    </dc:creator>
   </cc:Work>
  </rdf:RDF>
 </metadata>
 <defs>
  <style type="text/css">*{stroke-linecap:butt;stroke-linejoin:round;}</style>
 </defs>
 <g id="figure_1">
  <g id="patch_1">
   <path d="M 0 345.6 
L 460.8 345.6 
L 460.8 0 
L 0 0 
z
" style="fill:#262626;"/>
  </g>
  <g id="axes_1">
   <g id="patch_2">
    <path d="M 57.6 119.740235 
L 414.72 119.740235 
L 414.72 41.472 
L 57.6 41.472 
z
" style="fill:#1a1a1a;"/>
   </g>
   <g id="matplotlib.axis_1">
    <g id="xtick_1">
     <g id="line2d_1">
      <defs>
       <path d="M 0 0 
L 0 3.5 
" id="ma97670eb18" style="stroke:#ffffff;stroke-width:0.8;"/>
      </defs>
      <g>
       <use style="fill:#ffffff;stroke:#ffffff;stroke-width:0.8;" x="73.832727" xlink:href="#ma97670eb18" y="119.740235"/>
      </g>
     </g>
     <g id="text_1">
      <!-- 0 -->
      <g style="fill:#ffffff;" transform="translate(71.052259 133.98711)scale(0.1 -0.1)">
       <defs>
        <path d="M 51.703125 34.421875 
Q 51.703125 24.515625 49.828125 17.75 
Q 47.953125 10.984375 44.703125 6.8125 
Q 41.453125 2.640625 37.0625 0.828125 
Q 32.671875 -0.984375 27.6875 -0.984375 
Q 22.65625 -0.984375 18.3125 0.828125 
Q 13.96875 2.640625 10.765625 6.78125 
Q 7.5625 10.9375 5.734375 17.703125 
Q 3.90625 24.46875 3.90625 34.421875 
Q 3.90625 44.828125 5.734375 51.640625 
Q 7.5625 58.453125 10.78125 62.5 
Q 14.015625 66.546875 18.40625 68.1875 
Q 22.796875 69.828125 27.984375 69.828125 
Q 32.90625 69.828125 37.21875 68.1875 
Q 41.546875 66.546875 44.765625 62.5 
Q 48 58.453125 49.84375 51.640625 
Q 51.703125 44.828125 51.703125 34.421875 
z
M 42.78125 34.421875 
Q 42.78125 42.625 41.796875 48.0625 
Q 40.828125 53.515625 38.921875 56.765625 
Q 37.015625 60.015625 34.25 61.359375 
Q 31.5 62.703125 27.984375 62.703125 
Q 24.265625 62.703125 21.4375 61.328125 
Q 18.609375 59.96875 16.671875 56.71875 
Q 14.75 53.46875 13.765625 48.015625 
Q 12.796875 42.578125 12.796875 34.421875 
Q 12.796875 26.515625 13.796875 21.09375 
Q 14.796875 15.671875 16.71875 12.375 
Q 18.65625 9.078125 21.4375 7.640625 
Q 24.21875 6.203125 27.78125 6.203125 
Q 31.25 6.203125 34.03125 7.640625 
Q 36.8125 9.078125 38.734375 12.375 
Q 40.671875 15.671875 41.71875 21.09375 
Q 42.78125 26.515625 42.78125 34.421875 
z
" id="LiberationSans-48"/>
       </defs>
       <use xlink:href="#LiberationSans-48"/>
      </g>
     </g>
    </g>
    <g id="xtick_2">
     <g id="line2d_2">
      <g>
       <use style="fill:#ffffff;stroke:#ffffff;stroke-width:0.8;" x="138.776625" xlink:href="#ma97670eb18" y="119.740235"/>
      </g>
     </g>
     <g id="text_2">
      <!-- 200 -->
      <g style="fill:#ffffff;" transform="translate(130.435219 133.98711)scale(0.1 -0.1)">
       <defs>
        <path d="M 5.03125 0 
L 5.03125 6.203125 
Q 7.515625 11.921875 11.109375 16.28125 
Q 14.703125 20.65625 18.65625 24.1875 
Q 22.609375 27.734375 26.484375 30.765625 
Q 30.375 33.796875 33.5 36.8125 
Q 36.625 39.84375 38.546875 43.15625 
Q 40.484375 46.484375 40.484375 50.6875 
Q 40.484375 53.609375 39.59375 55.828125 
Q 38.71875 58.0625 37.0625 59.5625 
Q 35.40625 61.078125 33.078125 61.828125 
Q 30.765625 62.59375 27.9375 62.59375 
Q 25.296875 62.59375 22.96875 61.859375 
Q 20.65625 61.140625 18.84375 59.671875 
Q 17.046875 58.203125 15.890625 56.03125 
Q 14.75 53.859375 14.40625 50.984375 
L 5.421875 51.8125 
Q 5.859375 55.515625 7.46875 58.78125 
Q 9.078125 62.0625 11.90625 64.53125 
Q 14.75 67 18.71875 68.40625 
Q 22.703125 69.828125 27.9375 69.828125 
Q 33.0625 69.828125 37.0625 68.609375 
Q 41.0625 67.390625 43.8125 64.984375 
Q 46.578125 62.59375 48.046875 59.078125 
Q 49.515625 55.5625 49.515625 50.984375 
Q 49.515625 47.515625 48.265625 44.390625 
Q 47.015625 41.265625 44.9375 38.421875 
Q 42.875 35.59375 40.140625 32.953125 
Q 37.40625 30.328125 34.421875 27.8125 
Q 31.453125 25.296875 28.421875 22.828125 
Q 25.390625 20.359375 22.71875 17.859375 
Q 20.0625 15.375 17.96875 12.8125 
Q 15.875 10.25 14.703125 7.46875 
L 50.59375 7.46875 
L 50.59375 0 
z
" id="LiberationSans-50"/>
       </defs>
       <use xlink:href="#LiberationSans-50"/>
       <use x="55.615234" xlink:href="#LiberationSans-48"/>
       <use x="111.230469" xlink:href="#LiberationSans-48"/>
      </g>
     </g>
    </g>
    <g id="xtick_3">
     <g id="line2d_3">
      <g>
       <use style="fill:#ffffff;stroke:#ffffff;stroke-width:0.8;" x="203.720523" xlink:href="#ma97670eb18" y="119.740235"/>
      </g>
     </g>
     <g id="text_3">
      <!-- 400 -->
      <g style="fill:#ffffff;" transform="translate(195.379117 133.98711)scale(0.1 -0.1)">
       <defs>
        <path d="M 43.015625 15.578125 
L 43.015625 0 
L 34.71875 0 
L 34.71875 15.578125 
L 2.296875 15.578125 
L 2.296875 22.40625 
L 33.796875 68.796875 
L 43.015625 68.796875 
L 43.015625 22.515625 
L 52.6875 22.515625 
L 52.6875 15.578125 
z
M 34.71875 58.890625 
Q 34.625 58.640625 34.234375 57.9375 
Q 33.84375 57.234375 33.34375 56.34375 
Q 32.859375 55.46875 32.34375 54.5625 
Q 31.84375 53.65625 31.453125 53.078125 
L 13.8125 27.09375 
Q 13.578125 26.703125 13.109375 26.0625 
Q 12.640625 25.4375 12.15625 24.78125 
Q 11.671875 24.125 11.171875 23.484375 
Q 10.6875 22.859375 10.40625 22.515625 
L 34.71875 22.515625 
z
" id="LiberationSans-52"/>
       </defs>
       <use xlink:href="#LiberationSans-52"/>
       <use x="55.615234" xlink:href="#LiberationSans-48"/>
       <use x="111.230469" xlink:href="#LiberationSans-48"/>
      </g>
     </g>
    </g>
    <g id="xtick_4">
     <g id="line2d_4">
      <g>
       <use style="fill:#ffffff;stroke:#ffffff;stroke-width:0.8;" x="268.664421" xlink:href="#ma97670eb18" y="119.740235"/>
      </g>
     </g>
     <g id="text_4">
      <!-- 600 -->
      <g style="fill:#ffffff;" transform="translate(260.323015 133.98711)scale(0.1 -0.1)">
       <defs>
        <path d="M 51.21875 22.515625 
Q 51.21875 17.328125 49.78125 13 
Q 48.34375 8.6875 45.53125 5.578125 
Q 42.71875 2.484375 38.5625 0.75 
Q 34.421875 -0.984375 29 -0.984375 
Q 23 -0.984375 18.5 1.3125 
Q 14.015625 3.609375 11.03125 7.921875 
Q 8.0625 12.25 6.5625 18.53125 
Q 5.078125 24.8125 5.078125 32.8125 
Q 5.078125 42 6.765625 48.921875 
Q 8.453125 55.859375 11.625 60.5 
Q 14.796875 65.140625 19.359375 67.484375 
Q 23.921875 69.828125 29.6875 69.828125 
Q 33.203125 69.828125 36.28125 69.09375 
Q 39.359375 68.359375 41.875 66.71875 
Q 44.390625 65.09375 46.28125 62.40625 
Q 48.1875 59.71875 49.3125 55.8125 
L 40.921875 54.296875 
Q 39.546875 58.734375 36.546875 60.71875 
Q 33.546875 62.703125 29.59375 62.703125 
Q 25.984375 62.703125 23.046875 60.984375 
Q 20.125 59.28125 18.0625 55.875 
Q 16.015625 52.484375 14.90625 47.359375 
Q 13.8125 42.234375 13.8125 35.40625 
Q 16.21875 39.84375 20.5625 42.15625 
Q 24.90625 44.484375 30.515625 44.484375 
Q 35.203125 44.484375 39.015625 42.96875 
Q 42.828125 41.453125 45.53125 38.59375 
Q 48.25 35.75 49.734375 31.671875 
Q 51.21875 27.59375 51.21875 22.515625 
z
M 42.28125 22.125 
Q 42.28125 25.6875 41.40625 28.5625 
Q 40.53125 31.453125 38.765625 33.46875 
Q 37.015625 35.5 34.421875 36.59375 
Q 31.84375 37.703125 28.421875 37.703125 
Q 26.03125 37.703125 23.578125 36.984375 
Q 21.140625 36.28125 19.15625 34.6875 
Q 17.1875 33.109375 15.9375 30.515625 
Q 14.703125 27.9375 14.703125 24.21875 
Q 14.703125 20.40625 15.671875 17.109375 
Q 16.65625 13.8125 18.484375 11.375 
Q 20.3125 8.9375 22.890625 7.515625 
Q 25.484375 6.109375 28.71875 6.109375 
Q 31.890625 6.109375 34.40625 7.203125 
Q 36.921875 8.296875 38.671875 10.375 
Q 40.4375 12.453125 41.359375 15.421875 
Q 42.28125 18.40625 42.28125 22.125 
z
" id="LiberationSans-54"/>
       </defs>
       <use xlink:href="#LiberationSans-54"/>
       <use x="55.615234" xlink:href="#LiberationSans-48"/>
       <use x="111.230469" xlink:href="#LiberationSans-48"/>
      </g>
     </g>
    </g>
    <g id="xtick_5">
     <g id="line2d_5">
      <g>
       <use style="fill:#ffffff;stroke:#ffffff;stroke-width:0.8;" x="333.608319" xlink:href="#ma97670eb18" y="119.740235"/>
      </g>
     </g>
     <g id="text_5">
      <!-- 800 -->
      <g style="fill:#ffffff;" transform="translate(325.266913 133.98711)scale(0.1 -0.1)">
       <defs>
        <path d="M 51.265625 19.1875 
Q 51.265625 14.796875 49.875 11.109375 
Q 48.484375 7.421875 45.625 4.734375 
Q 42.78125 2.046875 38.328125 0.53125 
Q 33.890625 -0.984375 27.828125 -0.984375 
Q 21.78125 -0.984375 17.359375 0.53125 
Q 12.9375 2.046875 10.03125 4.703125 
Q 7.125 7.375 5.734375 11.0625 
Q 4.34375 14.75 4.34375 19.09375 
Q 4.34375 22.859375 5.484375 25.78125 
Q 6.640625 28.71875 8.5625 30.828125 
Q 10.5 32.953125 12.96875 34.25 
Q 15.4375 35.546875 18.0625 35.984375 
L 18.0625 36.1875 
Q 15.1875 36.859375 12.90625 38.375 
Q 10.640625 39.890625 9.09375 42.015625 
Q 7.5625 44.140625 6.75 46.71875 
Q 5.953125 49.3125 5.953125 52.203125 
Q 5.953125 55.8125 7.34375 59 
Q 8.734375 62.203125 11.46875 64.625 
Q 14.203125 67.046875 18.25 68.4375 
Q 22.3125 69.828125 27.640625 69.828125 
Q 33.25 69.828125 37.375 68.40625 
Q 41.5 67 44.203125 64.578125 
Q 46.921875 62.15625 48.234375 58.9375 
Q 49.5625 55.71875 49.5625 52.09375 
Q 49.5625 49.265625 48.75 46.671875 
Q 47.953125 44.09375 46.40625 41.96875 
Q 44.875 39.84375 42.59375 38.34375 
Q 40.328125 36.859375 37.359375 36.28125 
L 37.359375 36.078125 
Q 40.328125 35.59375 42.859375 34.296875 
Q 45.40625 33.015625 47.265625 30.890625 
Q 49.125 28.765625 50.1875 25.828125 
Q 51.265625 22.90625 51.265625 19.1875 
z
M 40.4375 51.609375 
Q 40.4375 54.203125 39.765625 56.34375 
Q 39.109375 58.5 37.59375 60.03125 
Q 36.078125 61.578125 33.640625 62.421875 
Q 31.203125 63.28125 27.640625 63.28125 
Q 24.171875 63.28125 21.78125 62.421875 
Q 19.390625 61.578125 17.84375 60.03125 
Q 16.3125 58.5 15.625 56.34375 
Q 14.9375 54.203125 14.9375 51.609375 
Q 14.9375 49.5625 15.46875 47.40625 
Q 16.015625 45.265625 17.421875 43.5 
Q 18.84375 41.75 21.328125 40.625 
Q 23.828125 39.5 27.734375 39.5 
Q 31.890625 39.5 34.40625 40.625 
Q 36.921875 41.75 38.25 43.5 
Q 39.59375 45.265625 40.015625 47.40625 
Q 40.4375 49.5625 40.4375 51.609375 
z
M 42.140625 20.015625 
Q 42.140625 22.515625 41.453125 24.828125 
Q 40.765625 27.15625 39.109375 28.9375 
Q 37.453125 30.71875 34.640625 31.8125 
Q 31.84375 32.90625 27.640625 32.90625 
Q 23.78125 32.90625 21.0625 31.8125 
Q 18.359375 30.71875 16.671875 28.90625 
Q 14.984375 27.09375 14.203125 24.71875 
Q 13.421875 22.359375 13.421875 19.828125 
Q 13.421875 16.65625 14.203125 14.03125 
Q 14.984375 11.421875 16.6875 9.546875 
Q 18.40625 7.671875 21.1875 6.640625 
Q 23.96875 5.609375 27.9375 5.609375 
Q 31.9375 5.609375 34.671875 6.640625 
Q 37.40625 7.671875 39.0625 9.546875 
Q 40.71875 11.421875 41.421875 14.078125 
Q 42.140625 16.75 42.140625 20.015625 
z
" id="LiberationSans-56"/>
       </defs>
       <use xlink:href="#LiberationSans-56"/>
       <use x="55.615234" xlink:href="#LiberationSans-48"/>
       <use x="111.230469" xlink:href="#LiberationSans-48"/>
      </g>
     </g>
    </g>
    <g id="xtick_6">
     <g id="line2d_6">
      <g>
       <use style="fill:#ffffff;stroke:#ffffff;stroke-width:0.8;" x="398.552217" xlink:href="#ma97670eb18" y="119.740235"/>
      </g>
     </g>
     <g id="text_6">
      <!-- 1000 -->
      <g style="fill:#ffffff;" transform="translate(387.430342 133.98711)scale(0.1 -0.1)">
       <defs>
        <path d="M 7.625 0 
L 7.625 7.46875 
L 25.140625 7.46875 
L 25.140625 60.40625 
L 9.625 49.3125 
L 9.625 57.625 
L 25.875 68.796875 
L 33.984375 68.796875 
L 33.984375 7.46875 
L 50.734375 7.46875 
L 50.734375 0 
z
" id="LiberationSans-49"/>
       </defs>
       <use xlink:href="#LiberationSans-49"/>
       <use x="55.615234" xlink:href="#LiberationSans-48"/>
       <use x="111.230469" xlink:href="#LiberationSans-48"/>
       <use x="166.845703" xlink:href="#LiberationSans-48"/>
      </g>
     </g>
    </g>
   </g>
   <g id="matplotlib.axis_2">
    <g id="ytick_1">
     <g id="line2d_7">
      <defs>
       <path d="M 0 0 
L -3.5 0 
" id="m503204c7ab" style="stroke:#ffffff;stroke-width:0.8;"/>
      </defs>
      <g>
       <use style="fill:#ffffff;stroke:#ffffff;stroke-width:0.8;" x="57.6" xlink:href="#m503204c7ab" y="119.740235"/>
      </g>
     </g>
     <g id="text_7">
      <!-- −1 -->
      <g style="fill:#ffffff;" transform="translate(39.198437 123.363673)scale(0.1 -0.1)">
       <defs>
        <path d="M 4.9375 29.6875 
L 4.9375 36.8125 
L 53.515625 36.8125 
L 53.515625 29.6875 
z
" id="LiberationSans-8722"/>
       </defs>
       <use xlink:href="#LiberationSans-8722"/>
       <use x="58.398438" xlink:href="#LiberationSans-49"/>
      </g>
     </g>
    </g>
    <g id="ytick_2">
     <g id="line2d_8">
      <g>
       <use style="fill:#ffffff;stroke:#ffffff;stroke-width:0.8;" x="57.6" xlink:href="#m503204c7ab" y="80.606118"/>
      </g>
     </g>
     <g id="text_8">
      <!-- 0 -->
      <g style="fill:#ffffff;" transform="translate(45.039062 84.229555)scale(0.1 -0.1)">
       <use xlink:href="#LiberationSans-48"/>
      </g>
     </g>
    </g>
    <g id="ytick_3">
     <g id="line2d_9">
      <g>
       <use style="fill:#ffffff;stroke:#ffffff;stroke-width:0.8;" x="57.6" xlink:href="#m503204c7ab" y="41.472"/>
      </g>
     </g>
     <g id="text_9">
      <!-- 1 -->
      <g style="fill:#ffffff;" transform="translate(45.039062 45.095438)scale(0.1 -0.1)">
       <use xlink:href="#LiberationSans-49"/>
      </g>
     </g>
    </g>
    <g id="text_10">
     <!-- $u$ -->
     <g style="fill:#ffffff;" transform="translate(33.123437 83.806118)rotate(-90)scale(0.1 -0.1)">
      <defs>
       <path d="M 6.6875 21.6875 
L 13.09375 54.6875 
L 22.125 54.6875 
L 15.71875 22.015625 
Q 15.234375 19.625 15.015625 17.921875 
Q 14.796875 16.21875 14.796875 15.09375 
Q 14.796875 10.9375 17.328125 8.65625 
Q 19.875 6.390625 24.515625 6.390625 
Q 31.734375 6.390625 37 11.265625 
Q 42.28125 16.15625 43.890625 24.421875 
L 49.90625 54.6875 
L 58.890625 54.6875 
L 48.296875 0 
L 39.3125 0 
L 41.109375 8.59375 
Q 37.3125 3.8125 32.0625 1.1875 
Q 26.8125 -1.421875 20.90625 -1.421875 
Q 13.71875 -1.421875 9.71875 2.515625 
Q 5.71875 6.453125 5.71875 13.484375 
Q 5.71875 14.9375 5.953125 17.140625 
Q 6.203125 19.34375 6.6875 21.6875 
z
" id="DejaVuSans-Oblique-117"/>
      </defs>
      <use transform="translate(0 0.3125)" xlink:href="#DejaVuSans-Oblique-117"/>
     </g>
    </g>
   </g>
   <g id="line2d_10">
    <path clip-path="url(#p119c45d713)" d="M 73.832727 40.288114 
L 74.027559 89.462364 
L 75.261493 82.55133 
L 76.495427 76.836186 
L 77.339698 73.50666 
L 77.404642 97.963173 
L 77.469586 97.481191 
L 78.70352 89.182572 
L 79.937454 82.319953 
L 80.781724 78.32193 
L 80.846668 102.73053 
L 80.911612 102.201113 
L 82.145546 93.085754 
L 83.37948 85.547725 
L 84.613414 79.314083 
L 85.847348 74.159115 
L 87.081282 69.896168 
L 88.38016 66.203252 
L 89.679038 63.179748 
L 90.263533 62.004381 
L 90.328477 86.575344 
L 90.393421 86.206673 
L 91.627355 79.859006 
L 92.861289 74.609745 
L 94.095223 70.26882 
L 95.394101 66.508354 
L 96.692979 63.429544 
L 97.991857 60.908828 
L 98.251633 60.462407 
L 98.316577 85.048713 
L 98.381521 84.695232 
L 99.615455 78.609106 
L 100.849389 73.576129 
L 102.083323 69.414062 
L 102.602874 67.884812 
L 102.667818 92.397264 
L 102.732762 91.970664 
L 103.966696 84.625591 
L 105.20063 78.551516 
L 106.434564 73.528504 
L 107.668498 69.374678 
L 108.252993 67.666121 
L 108.317937 92.180748 
L 108.382881 91.756303 
L 109.616815 84.448323 
L 110.850749 78.404922 
L 112.084683 73.407277 
L 113.318617 69.274429 
L 114.35772 66.354149 
L 114.422663 90.881831 
L 114.487607 90.47031 
L 115.721541 83.384859 
L 116.955475 77.525481 
L 118.18941 72.680015 
L 119.423344 68.673013 
L 120.722222 65.201817 
L 121.371661 63.709839 
L 121.436604 88.263832 
L 121.501548 87.878361 
L 122.735482 81.241423 
L 123.969416 75.752948 
L 124.488968 73.736341 
L 124.553912 98.190569 
L 124.618855 97.706325 
L 125.852789 89.368748 
L 127.086724 82.473913 
L 128.320658 76.772166 
L 128.645377 75.443238 
L 128.710321 99.880482 
L 128.775265 99.379423 
L 130.009199 90.752332 
L 131.243133 83.61808 
L 132.477067 77.718345 
L 133.711001 72.839506 
L 134.944935 68.804905 
L 136.243813 65.309801 
L 136.69842 64.242558 
L 136.763364 88.79125 
L 136.828308 88.400531 
L 138.062242 81.673237 
L 139.296176 76.110039 
L 140.010559 73.340642 
L 140.075503 97.798807 
L 140.140447 97.318461 
L 141.374381 89.048001 
L 142.608315 82.208668 
L 143.842249 76.552819 
L 145.076183 71.875663 
L 146.375061 67.823925 
L 146.959556 66.24884 
L 147.0245 90.777569 
L 147.089444 90.367086 
L 148.323378 83.299497 
L 149.557312 77.45489 
L 150.791246 72.621639 
L 152.02518 68.624738 
L 153.324058 65.162293 
L 153.648778 64.399586 
L 153.713722 88.946716 
L 153.778666 88.55445 
L 155.0126 81.800521 
L 156.246534 76.215299 
L 157.480468 71.596548 
L 158.779346 67.595405 
L 158.84429 67.415588 
L 158.909233 91.932708 
L 158.974177 91.51073 
L 160.208111 84.245245 
L 161.442046 78.236985 
L 162.67598 73.2684 
L 163.909914 69.159583 
L 165.208792 65.600187 
L 166.50767 62.686 
L 167.35194 61.081446 
L 167.416884 85.661592 
L 167.481828 85.302013 
L 168.715762 79.110889 
L 169.949696 73.991083 
L 171.18363 69.757212 
L 172.482508 66.089484 
L 173.781386 63.086603 
L 175.080264 60.628051 
L 175.145208 60.51756 
L 175.210152 85.103317 
L 175.275096 84.749293 
L 176.50903 78.653812 
L 177.742964 73.613099 
L 178.976898 69.444635 
L 180.275776 65.833568 
L 181.574654 62.877076 
L 181.704542 62.61266 
L 181.769486 87.17757 
L 181.834429 86.802907 
L 183.068363 80.352067 
L 184.302298 75.017486 
L 185.536232 70.606006 
L 186.83511 66.784418 
L 187.744324 64.529437 
L 187.809268 89.075275 
L 187.874212 88.681729 
L 189.108146 81.905776 
L 190.34208 76.30234 
L 191.576014 71.668527 
L 192.874892 67.654337 
L 194.043882 64.667668 
L 194.108826 89.21213 
L 194.17377 88.817223 
L 195.407704 82.017824 
L 196.641638 76.394999 
L 197.875572 71.745153 
L 199.17445 67.717072 
L 200.148609 65.18287 
L 200.213553 89.722206 
L 200.278496 89.322223 
L 201.51243 82.435439 
L 202.746365 76.740349 
L 203.980299 72.030743 
L 205.214233 68.136091 
L 205.474008 67.406286 
L 205.538952 91.923499 
L 205.603896 91.501613 
L 206.83783 84.237705 
L 208.071764 78.23075 
L 209.305698 73.263243 
L 210.539632 69.155319 
L 211.83851 65.596696 
L 212.747725 63.496881 
L 212.812669 88.052993 
L 212.877613 87.669619 
L 214.111547 81.068803 
L 215.345481 75.610197 
L 216.579415 71.096153 
L 217.878293 67.185717 
L 218.3329 65.99165 
L 218.397844 90.522939 
L 218.462788 90.114989 
L 219.696722 83.091023 
L 220.930656 77.282491 
L 221.125488 76.462092 
L 221.190432 100.889198 
L 221.255375 100.378102 
L 222.489309 91.578199 
L 223.723244 84.301038 
L 224.957178 78.283124 
L 226.191112 73.306555 
L 227.425046 69.191135 
L 228.723924 65.62602 
L 229.568194 63.663064 
L 229.633138 88.217522 
L 229.698082 87.832512 
L 230.932016 81.203508 
L 232.16595 75.721593 
L 233.399884 71.188273 
L 234.698762 67.261138 
L 235.99764 64.045872 
L 236.192472 63.616674 
L 236.257416 88.171594 
L 236.32236 87.787041 
L 237.556294 81.165905 
L 238.790228 75.690497 
L 240.024162 71.162558 
L 241.32304 67.240084 
L 242.621918 64.028634 
L 243.141469 62.913436 
L 243.206413 87.475353 
L 243.271357 87.097727 
L 244.505291 80.595872 
L 245.739225 75.219102 
L 246.973159 70.772734 
L 248.272037 66.920923 
L 249.570915 63.767328 
L 250.480129 61.906505 
L 250.545073 86.478441 
L 250.610017 86.110735 
L 251.843951 79.779669 
L 253.077885 74.544136 
L 254.311819 70.214565 
L 255.091146 67.874842 
L 255.15609 92.387392 
L 255.221034 91.960891 
L 256.454968 84.617509 
L 257.688902 78.544832 
L 258.922836 73.522977 
L 260.15677 69.370107 
L 261.455648 65.77255 
L 262.754526 62.827119 
L 263.923516 60.635636 
L 263.98846 85.220218 
L 264.053404 84.865031 
L 265.287338 78.749523 
L 266.001721 75.705182 
L 266.066665 100.139819 
L 266.131609 99.63618 
L 267.365543 90.964659 
L 268.599477 83.793666 
L 269.833411 77.863548 
L 271.067345 72.959582 
L 272.301279 68.904203 
L 273.600157 65.3911 
L 273.794989 64.922145 
L 273.859933 89.464075 
L 273.924877 89.066661 
L 275.158811 82.224099 
L 276.392745 76.56558 
L 277.626679 71.886216 
L 278.795669 68.202431 
L 278.860613 92.711722 
L 278.925557 92.281993 
L 280.159491 84.883047 
L 281.393425 78.764422 
L 282.627359 73.704568 
L 283.861293 69.520276 
L 285.160171 65.895498 
L 286.459049 62.92778 
L 286.783768 62.274051 
L 286.848712 86.842331 
L 286.913656 86.471003 
L 288.14759 80.077596 
L 289.381524 74.79051 
L 290.615458 70.418306 
L 291.914336 66.630742 
L 291.97928 91.155672 
L 292.044224 90.741426 
L 293.278158 83.609061 
L 294.512092 77.710887 
L 295.746026 72.833338 
L 296.97996 68.799805 
L 298.278838 65.305625 
L 299.577716 62.444833 
L 300.486931 60.756783 
L 300.551875 85.34016 
L 300.616819 84.983779 
L 301.850753 78.847723 
L 303.084687 73.773455 
L 304.318621 69.577243 
L 305.617499 65.942138 
L 306.007162 64.985998 
L 306.072106 89.527293 
L 306.13705 89.12925 
L 307.370984 82.275857 
L 308.604918 76.608382 
L 309.838852 71.921612 
L 311.072786 68.045844 
L 312.371664 64.688335 
L 313.670542 61.939438 
L 314.514813 60.425894 
L 314.579757 85.012562 
L 314.644701 84.659442 
L 315.878635 78.579509 
L 317.112569 73.551653 
L 318.346503 69.393821 
L 319.645381 65.791965 
L 320.035044 64.844571 
L 320.099988 89.387273 
L 320.164932 88.990623 
L 321.398866 82.161219 
L 322.6328 76.513581 
L 323.866734 71.843215 
L 325.165612 67.797359 
L 325.750107 66.22456 
L 325.815051 90.753531 
L 325.879995 90.343287 
L 327.113929 83.279816 
L 328.347863 77.438615 
L 329.581797 72.60818 
L 330.815731 68.613608 
L 332.049665 65.31026 
L 332.114609 89.848329 
L 332.179553 89.447091 
L 333.413487 82.5387 
L 334.647421 76.825742 
L 335.881355 72.101359 
L 337.115289 68.194488 
L 338.414167 64.810034 
L 339.713045 62.039077 
L 339.777989 86.609695 
L 339.842933 86.240682 
L 341.076867 79.88713 
L 342.310801 74.633002 
L 343.025184 72.017462 
L 343.090128 96.488793 
L 343.155072 96.021481 
L 344.389006 87.975451 
L 345.62294 81.321713 
L 346.856874 75.819344 
L 347.701145 72.613775 
L 347.766088 97.079173 
L 347.831032 96.605987 
L 349.064966 88.458814 
L 349.259798 87.308105 
L 349.389686 80.176968 
L 350.62362 74.872686 
L 351.857554 70.486262 
L 353.156432 66.68638 
L 354.45531 63.5753 
L 354.844973 62.756994 
L 354.909917 87.320468 
L 354.974861 86.944383 
L 356.208795 80.469062 
L 357.442729 75.114236 
L 358.676663 70.686014 
L 359.391046 68.481615 
L 359.45599 92.988128 
L 359.520934 92.555649 
L 360.754868 85.10935 
L 361.988802 78.951564 
L 363.222736 73.859328 
L 364.45667 69.648256 
L 365.755548 66.000278 
L 366.859594 63.424397 
L 366.924538 87.981231 
L 366.989482 87.598571 
L 368.223416 81.010049 
L 369.45735 75.56161 
L 370.691284 71.055974 
L 371.990162 67.15282 
L 372.509714 65.797423 
L 372.574657 90.330644 
L 372.639601 89.924608 
L 373.873535 82.933586 
L 375.107469 77.152297 
L 376.341404 72.371407 
L 377.575338 68.417806 
L 378.874216 64.992872 
L 380.173094 62.188772 
L 381.471971 59.89297 
L 382.186354 58.812838 
L 382.251298 83.415557 
L 382.316242 83.078326 
L 383.550176 77.271991 
L 384.78411 72.470389 
L 386.018044 68.49966 
L 386.537596 67.040713 
L 386.602539 91.561564 
L 386.667483 91.143279 
L 387.901417 83.941377 
L 389.135351 77.985699 
L 390.369285 73.060596 
L 391.60322 68.987738 
L 392.902098 65.459492 
L 394.200975 62.570809 
L 394.395807 62.185206 
L 394.460751 86.75437 
L 394.525695 86.383917 
L 395.759629 80.00558 
L 396.993563 74.730955 
L 397.383226 73.262994 
L 397.44817 97.721932 
L 397.513114 97.242351 
L 398.487273 90.595512 
L 398.487273 90.595512 
" style="fill:none;stroke:#9a72ac;stroke-linecap:round;stroke-width:1.5;"/>
   </g>
   <g id="patch_3">
    <path d="M 57.6 119.740235 
L 57.6 41.472 
" style="fill:none;stroke:#ffffff;stroke-linecap:square;stroke-linejoin:miter;stroke-width:0.8;"/>
   </g>
   <g id="patch_4">
    <path d="M 414.72 119.740235 
L 414.72 41.472 
" style="fill:none;stroke:#ffffff;stroke-linecap:square;stroke-linejoin:miter;stroke-width:0.8;"/>
   </g>
   <g id="patch_5">
    <path d="M 57.6 119.740235 
L 414.72 119.740235 
" style="fill:none;stroke:#ffffff;stroke-linecap:square;stroke-linejoin:miter;stroke-width:0.8;"/>
   </g>
   <g id="patch_6">
    <path d="M 57.6 41.472 
L 414.72 41.472 
" style="fill:none;stroke:#ffffff;stroke-linecap:square;stroke-linejoin:miter;stroke-width:0.8;"/>
   </g>
  </g>
  <g id="axes_2">
   <g id="patch_7">
    <path d="M 57.6 213.662118 
L 414.72 213.662118 
L 414.72 135.393882 
L 57.6 135.393882 
z
" style="fill:#1a1a1a;"/>
   </g>
   <g id="matplotlib.axis_3">
    <g id="xtick_7">
     <g id="line2d_11">
      <g>
       <use style="fill:#ffffff;stroke:#ffffff;stroke-width:0.8;" x="73.832727" xlink:href="#ma97670eb18" y="213.662118"/>
      </g>
     </g>
     <g id="text_11">
      <!-- 0 -->
      <g style="fill:#ffffff;" transform="translate(71.052259 227.908993)scale(0.1 -0.1)">
       <use xlink:href="#LiberationSans-48"/>
      </g>
     </g>
    </g>
    <g id="xtick_8">
     <g id="line2d_12">
      <g>
       <use style="fill:#ffffff;stroke:#ffffff;stroke-width:0.8;" x="138.776625" xlink:href="#ma97670eb18" y="213.662118"/>
      </g>
     </g>
     <g id="text_12">
      <!-- 200 -->
      <g style="fill:#ffffff;" transform="translate(130.435219 227.908993)scale(0.1 -0.1)">
       <use xlink:href="#LiberationSans-50"/>
       <use x="55.615234" xlink:href="#LiberationSans-48"/>
       <use x="111.230469" xlink:href="#LiberationSans-48"/>
      </g>
     </g>
    </g>
    <g id="xtick_9">
     <g id="line2d_13">
      <g>
       <use style="fill:#ffffff;stroke:#ffffff;stroke-width:0.8;" x="203.720523" xlink:href="#ma97670eb18" y="213.662118"/>
      </g>
     </g>
     <g id="text_13">
      <!-- 400 -->
      <g style="fill:#ffffff;" transform="translate(195.379117 227.908993)scale(0.1 -0.1)">
       <use xlink:href="#LiberationSans-52"/>
       <use x="55.615234" xlink:href="#LiberationSans-48"/>
       <use x="111.230469" xlink:href="#LiberationSans-48"/>
      </g>
     </g>
    </g>
    <g id="xtick_10">
     <g id="line2d_14">
      <g>
       <use style="fill:#ffffff;stroke:#ffffff;stroke-width:0.8;" x="268.664421" xlink:href="#ma97670eb18" y="213.662118"/>
      </g>
     </g>
     <g id="text_14">
      <!-- 600 -->
      <g style="fill:#ffffff;" transform="translate(260.323015 227.908993)scale(0.1 -0.1)">
       <use xlink:href="#LiberationSans-54"/>
       <use x="55.615234" xlink:href="#LiberationSans-48"/>
       <use x="111.230469" xlink:href="#LiberationSans-48"/>
      </g>
     </g>
    </g>
    <g id="xtick_11">
     <g id="line2d_15">
      <g>
       <use style="fill:#ffffff;stroke:#ffffff;stroke-width:0.8;" x="333.608319" xlink:href="#ma97670eb18" y="213.662118"/>
      </g>
     </g>
     <g id="text_15">
      <!-- 800 -->
      <g style="fill:#ffffff;" transform="translate(325.266913 227.908993)scale(0.1 -0.1)">
       <use xlink:href="#LiberationSans-56"/>
       <use x="55.615234" xlink:href="#LiberationSans-48"/>
       <use x="111.230469" xlink:href="#LiberationSans-48"/>
      </g>
     </g>
    </g>
    <g id="xtick_12">
     <g id="line2d_16">
      <g>
       <use style="fill:#ffffff;stroke:#ffffff;stroke-width:0.8;" x="398.552217" xlink:href="#ma97670eb18" y="213.662118"/>
      </g>
     </g>
     <g id="text_16">
      <!-- 1000 -->
      <g style="fill:#ffffff;" transform="translate(387.430342 227.908993)scale(0.1 -0.1)">
       <use xlink:href="#LiberationSans-49"/>
       <use x="55.615234" xlink:href="#LiberationSans-48"/>
       <use x="111.230469" xlink:href="#LiberationSans-48"/>
       <use x="166.845703" xlink:href="#LiberationSans-48"/>
      </g>
     </g>
    </g>
    <g id="text_17">
     <!-- $t$ (ms) -->
     <g style="fill:#ffffff;" transform="translate(222.81 241.283993)scale(0.1 -0.1)">
      <defs>
       <path d="M 42.28125 54.6875 
L 40.921875 47.703125 
L 23 47.703125 
L 17.1875 18.015625 
Q 16.890625 16.359375 16.75 15.234375 
Q 16.609375 14.109375 16.609375 13.484375 
Q 16.609375 10.359375 18.484375 8.9375 
Q 20.359375 7.515625 24.515625 7.515625 
L 33.59375 7.515625 
L 32.078125 0 
L 23.484375 0 
Q 15.484375 0 11.546875 3.125 
Q 7.625 6.25 7.625 12.59375 
Q 7.625 13.71875 7.765625 15.0625 
Q 7.90625 16.40625 8.203125 18.015625 
L 14.015625 47.703125 
L 6.390625 47.703125 
L 7.8125 54.6875 
L 15.28125 54.6875 
L 18.3125 70.21875 
L 27.296875 70.21875 
L 24.3125 54.6875 
z
" id="DejaVuSans-Oblique-116"/>
       <path id="LiberationSans-32"/>
       <path d="M 6.203125 25.984375 
Q 6.203125 32.765625 7.21875 38.96875 
Q 8.25 45.171875 10.4375 50.875 
Q 12.640625 56.59375 16.0625 61.953125 
Q 19.484375 67.328125 24.21875 72.46875 
L 32.71875 72.46875 
Q 28.125 67.328125 24.78125 61.9375 
Q 21.4375 56.546875 19.28125 50.796875 
Q 17.140625 45.0625 16.09375 38.859375 
Q 15.046875 32.671875 15.046875 25.875 
Q 15.046875 19.09375 16.09375 12.890625 
Q 17.140625 6.6875 19.28125 0.921875 
Q 21.4375 -4.828125 24.78125 -10.203125 
Q 28.125 -15.578125 32.71875 -20.703125 
L 24.21875 -20.703125 
Q 19.484375 -15.578125 16.0625 -10.203125 
Q 12.640625 -4.828125 10.4375 0.875 
Q 8.25 6.59375 7.21875 12.765625 
Q 6.203125 18.953125 6.203125 25.78125 
z
" id="LiberationSans-40"/>
       <path d="M 37.5 0 
L 37.5 33.5 
Q 37.5 37.359375 37.015625 39.9375 
Q 36.53125 42.53125 35.375 44.109375 
Q 34.234375 45.703125 32.375 46.359375 
Q 30.515625 47.015625 27.828125 47.015625 
Q 25.046875 47.015625 22.796875 45.921875 
Q 20.5625 44.828125 18.96875 42.75 
Q 17.390625 40.671875 16.53125 37.625 
Q 15.671875 34.578125 15.671875 30.609375 
L 15.671875 0 
L 6.9375 0 
L 6.9375 41.546875 
Q 6.9375 43.21875 6.90625 45.046875 
Q 6.890625 46.875 6.828125 48.5 
Q 6.78125 50.140625 6.734375 51.3125 
Q 6.6875 52.484375 6.640625 52.828125 
L 14.9375 52.828125 
Q 14.984375 52.59375 15.03125 51.515625 
Q 15.09375 50.4375 15.15625 49.046875 
Q 15.234375 47.65625 15.28125 46.21875 
Q 15.328125 44.78125 15.328125 43.796875 
L 15.484375 43.796875 
Q 16.65625 46.09375 18.015625 47.953125 
Q 19.390625 49.8125 21.21875 51.09375 
Q 23.046875 52.390625 25.40625 53.09375 
Q 27.78125 53.8125 30.90625 53.8125 
Q 36.921875 53.8125 40.40625 51.421875 
Q 43.890625 49.03125 45.265625 43.796875 
L 45.40625 43.796875 
Q 46.578125 46.09375 48.046875 47.953125 
Q 49.515625 49.8125 51.46875 51.09375 
Q 53.421875 52.390625 55.859375 53.09375 
Q 58.296875 53.8125 61.421875 53.8125 
Q 65.4375 53.8125 68.328125 52.734375 
Q 71.234375 51.65625 73.09375 49.40625 
Q 74.953125 47.171875 75.828125 43.625 
Q 76.703125 40.09375 76.703125 35.203125 
L 76.703125 0 
L 68.015625 0 
L 68.015625 33.5 
Q 68.015625 37.359375 67.53125 39.9375 
Q 67.046875 42.53125 65.890625 44.109375 
Q 64.75 45.703125 62.890625 46.359375 
Q 61.03125 47.015625 58.34375 47.015625 
Q 55.5625 47.015625 53.3125 45.96875 
Q 51.078125 44.921875 49.484375 42.875 
Q 47.90625 40.828125 47.046875 37.75 
Q 46.1875 34.671875 46.1875 30.609375 
L 46.1875 0 
z
" id="LiberationSans-109"/>
       <path d="M 46.390625 14.59375 
Q 46.390625 10.890625 44.9375 7.984375 
Q 43.5 5.078125 40.765625 3.09375 
Q 38.03125 1.125 34.046875 0.0625 
Q 30.078125 -0.984375 24.953125 -0.984375 
Q 20.359375 -0.984375 16.671875 -0.265625 
Q 12.984375 0.4375 10.203125 2 
Q 7.421875 3.5625 5.53125 6.125 
Q 3.65625 8.6875 2.78125 12.40625 
L 10.546875 13.921875 
Q 11.671875 9.671875 15.1875 7.6875 
Q 18.703125 5.71875 24.953125 5.71875 
Q 27.78125 5.71875 30.140625 6.109375 
Q 32.515625 6.5 34.21875 7.453125 
Q 35.9375 8.40625 36.890625 9.984375 
Q 37.84375 11.578125 37.84375 13.921875 
Q 37.84375 16.3125 36.71875 17.84375 
Q 35.59375 19.390625 33.59375 20.40625 
Q 31.59375 21.4375 28.734375 22.1875 
Q 25.875 22.953125 22.46875 23.875 
Q 19.28125 24.703125 16.15625 25.734375 
Q 13.03125 26.765625 10.515625 28.4375 
Q 8.015625 30.125 6.453125 32.609375 
Q 4.890625 35.109375 4.890625 38.875 
Q 4.890625 46.09375 10.03125 49.875 
Q 15.1875 53.65625 25.046875 53.65625 
Q 33.796875 53.65625 38.9375 50.578125 
Q 44.09375 47.515625 45.453125 40.71875 
L 37.546875 39.75 
Q 37.109375 41.796875 35.9375 43.1875 
Q 34.765625 44.578125 33.109375 45.4375 
Q 31.453125 46.296875 29.375 46.65625 
Q 27.296875 47.015625 25.046875 47.015625 
Q 19.09375 47.015625 16.25 45.203125 
Q 13.421875 43.40625 13.421875 39.75 
Q 13.421875 37.59375 14.46875 36.203125 
Q 15.53125 34.8125 17.40625 33.859375 
Q 19.28125 32.90625 21.921875 32.203125 
Q 24.5625 31.5 27.734375 30.71875 
Q 29.828125 30.171875 32.03125 29.5625 
Q 34.234375 28.953125 36.296875 28.09375 
Q 38.375 27.25 40.203125 26.09375 
Q 42.046875 24.953125 43.40625 23.34375 
Q 44.78125 21.734375 45.578125 19.578125 
Q 46.390625 17.4375 46.390625 14.59375 
z
" id="LiberationSans-115"/>
       <path d="M 27.09375 25.78125 
Q 27.09375 18.953125 26.0625 12.765625 
Q 25.046875 6.59375 22.84375 0.875 
Q 20.65625 -4.828125 17.234375 -10.203125 
Q 13.8125 -15.578125 9.078125 -20.703125 
L 0.59375 -20.703125 
Q 5.171875 -15.578125 8.515625 -10.203125 
Q 11.859375 -4.828125 14 0.921875 
Q 16.15625 6.6875 17.203125 12.890625 
Q 18.265625 19.09375 18.265625 25.875 
Q 18.265625 32.671875 17.203125 38.859375 
Q 16.15625 45.0625 14 50.796875 
Q 11.859375 56.546875 8.515625 61.9375 
Q 5.171875 67.328125 0.59375 72.46875 
L 9.078125 72.46875 
Q 13.8125 67.328125 17.234375 61.953125 
Q 20.65625 56.59375 22.84375 50.875 
Q 25.046875 45.171875 26.0625 38.96875 
Q 27.09375 32.765625 27.09375 25.984375 
z
" id="LiberationSans-41"/>
      </defs>
      <use transform="translate(0 0.53125)" xlink:href="#DejaVuSans-Oblique-116"/>
      <use transform="translate(39.208984 0.53125)" xlink:href="#LiberationSans-32"/>
      <use transform="translate(66.992188 0.53125)" xlink:href="#LiberationSans-40"/>
      <use transform="translate(100.292969 0.53125)" xlink:href="#LiberationSans-109"/>
      <use transform="translate(183.59375 0.53125)" xlink:href="#LiberationSans-115"/>
      <use transform="translate(233.59375 0.53125)" xlink:href="#LiberationSans-41"/>
     </g>
    </g>
   </g>
   <g id="matplotlib.axis_4">
    <g id="ytick_4">
     <g id="line2d_17">
      <g>
       <use style="fill:#ffffff;stroke:#ffffff;stroke-width:0.8;" x="57.6" xlink:href="#m503204c7ab" y="213.662118"/>
      </g>
     </g>
     <g id="text_18">
      <!-- −1 -->
      <g style="fill:#ffffff;" transform="translate(39.198437 217.285555)scale(0.1 -0.1)">
       <use xlink:href="#LiberationSans-8722"/>
       <use x="58.398438" xlink:href="#LiberationSans-49"/>
      </g>
     </g>
    </g>
    <g id="ytick_5">
     <g id="line2d_18">
      <g>
       <use style="fill:#ffffff;stroke:#ffffff;stroke-width:0.8;" x="57.6" xlink:href="#m503204c7ab" y="174.528"/>
      </g>
     </g>
     <g id="text_19">
      <!-- 0 -->
      <g style="fill:#ffffff;" transform="translate(45.039062 178.151437)scale(0.1 -0.1)">
       <use xlink:href="#LiberationSans-48"/>
      </g>
     </g>
    </g>
    <g id="ytick_6">
     <g id="line2d_19">
      <g>
       <use style="fill:#ffffff;stroke:#ffffff;stroke-width:0.8;" x="57.6" xlink:href="#m503204c7ab" y="135.393882"/>
      </g>
     </g>
     <g id="text_20">
      <!-- 1 -->
      <g style="fill:#ffffff;" transform="translate(45.039062 139.01732)scale(0.1 -0.1)">
       <use xlink:href="#LiberationSans-49"/>
      </g>
     </g>
    </g>
    <g id="text_21">
     <!-- $u$ -->
     <g style="fill:#ffffff;" transform="translate(33.123437 177.728)rotate(-90)scale(0.1 -0.1)">
      <use transform="translate(0 0.3125)" xlink:href="#DejaVuSans-Oblique-117"/>
     </g>
    </g>
   </g>
   <g id="line2d_20">
    <path clip-path="url(#pb3e8eb20d9)" d="M 73.832727 236.463447 
L 74.027559 222.086786 
L 75.261493 215.147338 
L 76.495427 209.408699 
L 77.339698 206.065484 
L 77.469586 199.205681 
L 78.768464 196.083892 
L 80.067341 193.527987 
L 80.781724 192.325482 
L 80.911612 185.73775 
L 82.665097 184.849499 
L 84.678358 184.08565 
L 86.951395 183.464962 
L 89.679038 182.957008 
L 90.263533 182.873249 
L 90.328477 176.417296 
L 90.393421 176.472684 
L 91.952075 177.648612 
L 93.640616 178.641157 
L 95.523989 179.482633 
L 97.667138 180.185664 
L 98.251633 180.340432 
L 98.316577 173.90968 
L 98.381521 173.99002 
L 99.810286 175.56865 
L 101.303996 176.886757 
L 102.602874 177.810702 
L 102.667818 171.405122 
L 102.732762 171.510382 
L 104.096584 173.494221 
L 105.525349 175.170762 
L 107.019059 176.570622 
L 108.252993 177.507331 
L 108.317937 171.104769 
L 108.382881 171.213018 
L 109.746703 173.253182 
L 111.110525 174.906907 
L 112.53929 176.304469 
L 114.097944 177.51629 
L 114.35772 177.691465 
L 114.422663 171.287072 
L 114.487607 171.393506 
L 115.851429 173.399483 
L 117.215251 175.025497 
L 118.644017 176.39964 
L 120.20267 177.591153 
L 121.371661 178.314761 
L 121.436604 171.904165 
L 121.501548 172.00446 
L 122.86537 173.894712 
L 124.294136 175.492164 
L 124.488968 175.684022 
L 124.553912 169.299603 
L 124.618855 169.425813 
L 125.917733 171.702198 
L 127.281555 173.649704 
L 128.645377 175.228322 
L 128.710321 168.848437 
L 128.775265 168.979136 
L 130.074143 171.33649 
L 131.437965 173.353267 
L 132.801787 174.988034 
L 134.230552 176.369575 
L 135.789206 177.567504 
L 136.69842 178.144463 
L 136.763364 171.735562 
L 136.828308 171.837534 
L 138.19213 173.759405 
L 139.620896 175.383577 
L 140.010559 175.767947 
L 140.075503 169.382693 
L 140.140447 169.508076 
L 141.439325 171.769549 
L 142.803147 173.704298 
L 144.231913 175.339353 
L 145.725622 176.704573 
L 146.959556 177.618102 
L 147.0245 171.214439 
L 147.089444 171.321596 
L 148.453266 173.341194 
L 149.817088 174.978248 
L 151.245854 176.361722 
L 152.804507 177.561326 
L 153.648778 178.100452 
L 153.713722 171.691988 
L 153.778666 171.794394 
L 155.142487 173.724437 
L 156.571253 175.355515 
L 158.064963 176.717414 
L 158.84429 177.312939 
L 158.909233 170.912312 
L 158.974177 171.022476 
L 160.337999 173.098732 
L 161.701821 174.781712 
L 163.130587 176.203998 
L 164.68924 177.437256 
L 166.377782 178.478191 
L 167.35194 178.9665 
L 167.416884 172.54942 
L 167.481828 172.643294 
L 168.84565 174.412541 
L 170.274416 175.907732 
L 171.768125 177.156169 
L 173.391723 178.224047 
L 175.145208 179.113692 
L 175.210152 172.695147 
L 175.275096 172.787571 
L 176.638918 174.52949 
L 178.067683 176.001585 
L 179.561393 177.230739 
L 181.18499 178.282122 
L 181.704542 178.566724 
L 181.769486 172.153621 
L 181.834429 172.251434 
L 183.198251 174.094906 
L 184.627017 175.652823 
L 186.120727 176.953635 
L 187.744324 178.066314 
L 187.809268 171.65819 
L 187.874212 171.760932 
L 189.238034 173.697313 
L 190.6668 175.333747 
L 192.160509 176.700119 
L 193.719163 177.827519 
L 194.043882 178.030225 
L 194.108826 171.622461 
L 194.17377 171.725558 
L 195.537592 173.668639 
L 196.966358 175.310736 
L 198.460067 176.681836 
L 200.018721 177.813137 
L 200.148609 177.895722 
L 200.213553 171.489296 
L 200.278496 171.593719 
L 201.642318 173.561772 
L 203.071084 175.224973 
L 204.564794 176.613694 
L 205.474008 177.31526 
L 205.538952 170.91461 
L 205.603896 171.024751 
L 206.967718 173.100576 
L 208.33154 174.783207 
L 209.760306 176.205198 
L 211.318959 177.4382 
L 212.747725 178.335879 
L 212.812669 171.925074 
L 212.877613 172.02516 
L 214.241434 173.911492 
L 215.6702 175.50563 
L 217.16391 176.836685 
L 218.3329 177.684576 
L 218.397844 171.280251 
L 218.462788 171.386753 
L 219.82661 173.394009 
L 221.125488 174.951082 
L 221.190432 168.573956 
L 221.255375 168.707387 
L 222.554253 171.114 
L 223.918075 173.17292 
L 225.281897 174.841848 
L 226.710663 176.252258 
L 228.269316 177.475219 
L 229.568194 178.292494 
L 229.633138 171.88212 
L 229.698082 171.982634 
L 231.061904 173.877021 
L 232.49067 175.477966 
L 233.984379 176.814706 
L 235.543033 177.917656 
L 236.192472 178.304605 
L 236.257416 171.894111 
L 236.32236 171.994505 
L 237.686182 173.886644 
L 239.114947 175.485689 
L 240.608657 176.820841 
L 242.167311 177.922482 
L 243.141469 178.488198 
L 243.206413 172.075877 
L 243.271357 172.174463 
L 244.635179 174.032514 
L 246.063944 175.602752 
L 247.557654 176.913853 
L 249.181252 178.035331 
L 250.480129 178.751075 
L 250.545073 172.336138 
L 250.610017 172.432134 
L 251.973839 174.241379 
L 253.402605 175.77037 
L 254.896315 177.047031 
L 255.091146 177.192936 
L 255.15609 170.793502 
L 255.221034 170.904848 
L 256.584856 173.003385 
L 257.948678 174.704425 
L 259.377443 176.141974 
L 260.936097 177.388466 
L 262.559694 178.404961 
L 263.923516 179.082858 
L 263.98846 172.664619 
L 264.053404 172.757347 
L 265.417226 174.504991 
L 266.001721 175.148687 
L 266.066665 168.769595 
L 266.131609 168.901079 
L 267.430487 171.272582 
L 268.794309 173.301464 
L 270.158131 174.946044 
L 271.586896 176.335877 
L 273.14555 177.540996 
L 273.794989 177.963789 
L 273.859933 171.556686 
L 273.924877 171.660438 
L 275.288698 173.615854 
L 276.717464 175.268375 
L 278.211174 176.648178 
L 278.795669 177.107413 
L 278.860613 170.70883 
L 278.925557 170.821019 
L 280.289379 172.935434 
L 281.6532 174.649345 
L 283.081966 176.097771 
L 284.575676 177.307162 
L 286.199273 178.34164 
L 286.783768 178.655121 
L 286.848712 172.241138 
L 286.913656 172.33808 
L 288.277478 174.16514 
L 289.706244 175.709187 
L 291.199953 176.998418 
L 291.914336 177.51773 
L 291.97928 171.115065 
L 292.044224 171.223211 
L 293.408046 173.261445 
L 294.771868 174.913605 
L 296.200634 176.309844 
L 297.759287 177.520518 
L 299.447828 178.542389 
L 300.486931 179.05123 
L 300.551875 172.633307 
L 300.616819 172.726346 
L 301.98064 174.479862 
L 303.409406 175.961758 
L 304.903116 177.199094 
L 306.007162 177.947119 
L 306.072106 171.540182 
L 306.13705 171.644098 
L 307.500872 173.602609 
L 308.929638 175.257745 
L 310.423347 176.639733 
L 311.982001 177.780017 
L 313.670542 178.742477 
L 314.514813 179.137615 
L 314.579757 172.718832 
L 314.644701 172.81102 
L 316.008522 174.548498 
L 317.437288 176.016839 
L 318.930998 177.242858 
L 320.035044 177.984041 
L 320.099988 171.576736 
L 320.164932 171.680289 
L 321.528754 173.631945 
L 322.95752 175.281288 
L 324.451229 176.658438 
L 325.750107 177.623771 
L 325.815051 171.220051 
L 325.879995 171.327152 
L 327.243817 173.345698 
L 328.607639 174.981899 
L 330.036404 176.364652 
L 331.595058 177.563631 
L 332.049665 177.862465 
L 332.114609 171.45637 
L 332.179553 171.56112 
L 333.543375 173.535348 
L 334.972141 175.203767 
L 336.46585 176.596845 
L 338.024504 177.746281 
L 339.713045 178.716465 
L 339.777989 172.301872 
L 339.842933 172.398209 
L 341.206755 174.21388 
L 342.635521 175.748302 
L 343.025184 176.111432 
L 343.090128 169.72276 
L 343.155072 169.844759 
L 344.45395 172.045202 
L 345.817772 173.927738 
L 347.246537 175.518667 
L 347.701145 175.955753 
L 347.766088 169.56863 
L 347.831032 169.692164 
L 349.12991 171.920268 
L 349.259798 172.11954 
L 349.324742 209.478265 
L 349.389686 209.204691 
L 350.62362 204.494372 
L 351.857554 200.599131 
L 353.156432 197.224752 
L 354.45531 194.462044 
L 354.844973 193.735371 
L 354.974861 187.119721 
L 356.533515 186.023868 
L 358.287 185.067916 
L 359.391046 184.585767 
L 359.45599 178.112774 
L 359.520934 178.151292 
L 361.274419 179.058152 
L 363.222736 179.816439 
L 365.495773 180.4565 
L 366.859594 180.745803 
L 366.924538 174.311018 
L 366.989482 174.387364 
L 368.418248 175.887526 
L 369.911958 177.140115 
L 371.535555 178.211544 
L 372.509714 178.736996 
L 372.574657 172.322199 
L 372.639601 172.418334 
L 374.003423 174.230192 
L 375.432189 175.761393 
L 376.925899 177.039898 
L 378.549496 178.133495 
L 380.302981 179.044567 
L 382.186354 179.78449 
L 382.251298 173.359271 
L 382.316242 173.445087 
L 383.745008 175.131331 
L 385.238718 176.539292 
L 386.537596 177.526222 
L 386.602539 171.123473 
L 386.667483 171.231535 
L 388.031305 173.268192 
L 389.395127 174.919074 
L 390.823893 176.314233 
L 392.382546 177.523971 
L 394.071088 178.545052 
L 394.395807 178.712764 
L 394.460751 172.298208 
L 394.525695 172.394582 
L 395.889517 174.210939 
L 397.318283 175.745942 
L 397.383226 175.80801 
L 397.44817 169.422357 
L 397.513114 169.547346 
L 398.487273 171.279651 
L 398.487273 171.279651 
" style="fill:none;stroke:#9a72ac;stroke-linecap:round;stroke-width:1.5;"/>
   </g>
   <g id="patch_8">
    <path d="M 57.6 213.662118 
L 57.6 135.393882 
" style="fill:none;stroke:#ffffff;stroke-linecap:square;stroke-linejoin:miter;stroke-width:0.8;"/>
   </g>
   <g id="patch_9">
    <path d="M 414.72 213.662118 
L 414.72 135.393882 
" style="fill:none;stroke:#ffffff;stroke-linecap:square;stroke-linejoin:miter;stroke-width:0.8;"/>
   </g>
   <g id="patch_10">
    <path d="M 57.6 213.662118 
L 414.72 213.662118 
" style="fill:none;stroke:#ffffff;stroke-linecap:square;stroke-linejoin:miter;stroke-width:0.8;"/>
   </g>
   <g id="patch_11">
    <path d="M 57.6 135.393882 
L 414.72 135.393882 
" style="fill:none;stroke:#ffffff;stroke-linecap:square;stroke-linejoin:miter;stroke-width:0.8;"/>
   </g>
  </g>
  <g id="text_22">
   <!-- M2 - membrane potential -->
   <g style="fill:#ffffff;" transform="translate(163.708125 15.60825)scale(0.12 -0.12)">
    <defs>
     <path d="M 66.703125 0 
L 66.703125 45.90625 
Q 66.703125 48.390625 66.75 50.96875 
Q 66.796875 53.5625 66.890625 55.71875 
Q 67 58.203125 67.140625 60.546875 
Q 66.453125 58.0625 65.71875 55.609375 
Q 65.09375 53.515625 64.328125 51.140625 
Q 63.578125 48.78125 62.84375 46.875 
L 45.0625 0 
L 38.53125 0 
L 20.515625 46.875 
Q 20.21875 47.609375 19.890625 48.578125 
Q 19.578125 49.5625 19.203125 50.65625 
Q 18.84375 51.765625 18.46875 52.90625 
Q 18.109375 54.046875 17.78125 55.171875 
Q 16.9375 57.765625 16.15625 60.546875 
Q 16.21875 57.8125 16.3125 55.125 
Q 16.40625 52.828125 16.453125 50.3125 
Q 16.5 47.796875 16.5 45.90625 
L 16.5 0 
L 8.203125 0 
L 8.203125 68.796875 
L 20.453125 68.796875 
L 38.765625 21.09375 
Q 39.109375 20.125 39.59375 18.578125 
Q 40.09375 17.046875 40.53125 15.421875 
Q 40.96875 13.8125 41.328125 12.375 
Q 41.703125 10.9375 41.84375 10.15625 
Q 42 10.9375 42.390625 12.40625 
Q 42.78125 13.875 43.28125 15.484375 
Q 43.796875 17.09375 44.28125 18.609375 
Q 44.78125 20.125 45.171875 21.09375 
L 63.140625 68.796875 
L 75.09375 68.796875 
L 75.09375 0 
z
" id="LiberationSans-77"/>
     <path d="M 4.4375 22.65625 
L 4.4375 30.46875 
L 28.859375 30.46875 
L 28.859375 22.65625 
z
" id="LiberationSans-45"/>
     <path d="M 13.484375 24.5625 
Q 13.484375 20.40625 14.328125 16.90625 
Q 15.1875 13.421875 16.96875 10.90625 
Q 18.75 8.40625 21.53125 7 
Q 24.3125 5.609375 28.21875 5.609375 
Q 33.9375 5.609375 37.375 7.90625 
Q 40.828125 10.203125 42.046875 13.71875 
L 49.75 11.53125 
Q 48.921875 9.328125 47.4375 7.109375 
Q 45.953125 4.890625 43.453125 3.09375 
Q 40.96875 1.3125 37.234375 0.15625 
Q 33.5 -0.984375 28.21875 -0.984375 
Q 16.5 -0.984375 10.375 6 
Q 4.25 12.984375 4.25 26.765625 
Q 4.25 34.1875 6.09375 39.328125 
Q 7.953125 44.484375 11.171875 47.703125 
Q 14.40625 50.921875 18.703125 52.359375 
Q 23 53.8125 27.875 53.8125 
Q 34.515625 53.8125 38.984375 51.65625 
Q 43.453125 49.515625 46.15625 45.71875 
Q 48.875 41.9375 50.015625 36.8125 
Q 51.171875 31.6875 51.171875 25.734375 
L 51.171875 24.5625 
z
M 42.09375 31.296875 
Q 41.359375 39.65625 37.84375 43.484375 
Q 34.328125 47.3125 27.734375 47.3125 
Q 25.53125 47.3125 23.109375 46.609375 
Q 20.703125 45.90625 18.65625 44.09375 
Q 16.609375 42.28125 15.1875 39.171875 
Q 13.765625 36.078125 13.578125 31.296875 
z
" id="LiberationSans-101"/>
     <path d="M 51.421875 26.65625 
Q 51.421875 -0.984375 31.984375 -0.984375 
Q 25.984375 -0.984375 22 1.1875 
Q 18.015625 3.375 15.53125 8.203125 
L 15.4375 8.203125 
Q 15.4375 6.9375 15.359375 5.5625 
Q 15.28125 4.203125 15.203125 3.03125 
Q 15.140625 1.859375 15.0625 1.03125 
Q 14.984375 0.203125 14.9375 0 
L 6.453125 0 
Q 6.5 0.4375 6.546875 1.484375 
Q 6.59375 2.546875 6.640625 4 
Q 6.6875 5.46875 6.703125 7.21875 
Q 6.734375 8.984375 6.734375 10.890625 
L 6.734375 72.46875 
L 15.53125 72.46875 
L 15.53125 51.8125 
Q 15.53125 50.34375 15.5 49 
Q 15.484375 47.65625 15.4375 46.625 
Q 15.375 45.40625 15.328125 44.34375 
L 15.53125 44.34375 
Q 17.96875 49.421875 22 51.609375 
Q 26.03125 53.8125 31.984375 53.8125 
Q 42 53.8125 46.703125 47.0625 
Q 51.421875 40.328125 51.421875 26.65625 
z
M 42.1875 26.375 
Q 42.1875 31.84375 41.5 35.75 
Q 40.828125 39.65625 39.3125 42.15625 
Q 37.796875 44.671875 35.453125 45.84375 
Q 33.109375 47.015625 29.734375 47.015625 
Q 26.265625 47.015625 23.609375 45.890625 
Q 20.953125 44.78125 19.171875 42.28125 
Q 17.390625 39.796875 16.453125 35.734375 
Q 15.53125 31.6875 15.53125 25.828125 
Q 15.53125 20.171875 16.453125 16.3125 
Q 17.390625 12.453125 19.171875 10.03125 
Q 20.953125 7.625 23.578125 6.5625 
Q 26.21875 5.515625 29.640625 5.515625 
Q 32.859375 5.515625 35.203125 6.640625 
Q 37.546875 7.765625 39.109375 10.25 
Q 40.671875 12.75 41.421875 16.71875 
Q 42.1875 20.703125 42.1875 26.375 
z
" id="LiberationSans-98"/>
     <path d="M 6.9375 0 
L 6.9375 40.53125 
Q 6.9375 42.1875 6.90625 43.921875 
Q 6.890625 45.65625 6.828125 47.265625 
Q 6.78125 48.875 6.734375 50.28125 
Q 6.6875 51.703125 6.640625 52.828125 
L 14.9375 52.828125 
Q 14.984375 51.703125 15.0625 50.265625 
Q 15.140625 48.828125 15.203125 47.3125 
Q 15.28125 45.796875 15.296875 44.40625 
Q 15.328125 43.015625 15.328125 42.046875 
L 15.53125 42.046875 
Q 16.453125 45.0625 17.5 47.28125 
Q 18.5625 49.515625 19.96875 50.953125 
Q 21.390625 52.390625 23.34375 53.09375 
Q 25.296875 53.8125 28.078125 53.8125 
Q 29.15625 53.8125 30.125 53.640625 
Q 31.109375 53.46875 31.640625 53.328125 
L 31.640625 45.265625 
Q 30.765625 45.515625 29.59375 45.625 
Q 28.421875 45.75 26.953125 45.75 
Q 23.921875 45.75 21.796875 44.375 
Q 19.671875 43.015625 18.328125 40.59375 
Q 17 38.1875 16.359375 34.84375 
Q 15.71875 31.5 15.71875 27.546875 
L 15.71875 0 
z
" id="LiberationSans-114"/>
     <path d="M 20.21875 -0.984375 
Q 12.25 -0.984375 8.25 3.21875 
Q 4.25 7.421875 4.25 14.75 
Q 4.25 19.96875 6.21875 23.3125 
Q 8.203125 26.65625 11.390625 28.5625 
Q 14.59375 30.46875 18.6875 31.203125 
Q 22.796875 31.9375 27.046875 32.03125 
L 38.921875 32.234375 
L 38.921875 35.109375 
Q 38.921875 38.375 38.234375 40.671875 
Q 37.546875 42.96875 36.125 44.375 
Q 34.71875 45.796875 32.59375 46.453125 
Q 30.46875 47.125 27.59375 47.125 
Q 25.046875 47.125 23 46.75 
Q 20.953125 46.390625 19.4375 45.4375 
Q 17.921875 44.484375 16.984375 42.84375 
Q 16.0625 41.21875 15.765625 38.71875 
L 6.59375 39.546875 
Q 7.078125 42.671875 8.4375 45.28125 
Q 9.8125 47.90625 12.328125 49.796875 
Q 14.84375 51.703125 18.625 52.75 
Q 22.40625 53.8125 27.78125 53.8125 
Q 37.75 53.8125 42.765625 49.234375 
Q 47.796875 44.671875 47.796875 36.03125 
L 47.796875 13.28125 
Q 47.796875 9.375 48.828125 7.390625 
Q 49.859375 5.421875 52.734375 5.421875 
Q 53.46875 5.421875 54.203125 5.515625 
Q 54.9375 5.609375 55.609375 5.765625 
L 55.609375 0.296875 
Q 53.953125 -0.09375 52.3125 -0.28125 
Q 50.6875 -0.484375 48.828125 -0.484375 
Q 46.34375 -0.484375 44.5625 0.171875 
Q 42.78125 0.828125 41.65625 2.171875 
Q 40.53125 3.515625 39.9375 5.484375 
Q 39.359375 7.46875 39.203125 10.109375 
L 38.921875 10.109375 
Q 37.5 7.5625 35.8125 5.515625 
Q 34.125 3.46875 31.875 2.03125 
Q 29.640625 0.59375 26.78125 -0.1875 
Q 23.921875 -0.984375 20.21875 -0.984375 
z
M 22.21875 5.609375 
Q 26.421875 5.609375 29.5625 7.140625 
Q 32.71875 8.6875 34.78125 11.078125 
Q 36.859375 13.484375 37.890625 16.3125 
Q 38.921875 19.140625 38.921875 21.734375 
L 38.921875 26.078125 
L 29.296875 25.875 
Q 26.078125 25.828125 23.171875 25.40625 
Q 20.265625 25 18.0625 23.78125 
Q 15.875 22.5625 14.578125 20.359375 
Q 13.28125 18.171875 13.28125 14.59375 
Q 13.28125 10.296875 15.59375 7.953125 
Q 17.921875 5.609375 22.21875 5.609375 
z
" id="LiberationSans-97"/>
     <path d="M 40.28125 0 
L 40.28125 33.5 
Q 40.28125 37.359375 39.71875 39.9375 
Q 39.15625 42.53125 37.890625 44.109375 
Q 36.625 45.703125 34.546875 46.359375 
Q 32.46875 47.015625 29.390625 47.015625 
Q 26.265625 47.015625 23.75 45.921875 
Q 21.234375 44.828125 19.453125 42.75 
Q 17.671875 40.671875 16.6875 37.625 
Q 15.71875 34.578125 15.71875 30.609375 
L 15.71875 0 
L 6.9375 0 
L 6.9375 41.546875 
Q 6.9375 43.21875 6.90625 45.046875 
Q 6.890625 46.875 6.828125 48.5 
Q 6.78125 50.140625 6.734375 51.3125 
Q 6.6875 52.484375 6.640625 52.828125 
L 14.9375 52.828125 
Q 14.984375 52.59375 15.03125 51.515625 
Q 15.09375 50.4375 15.15625 49.046875 
Q 15.234375 47.65625 15.28125 46.21875 
Q 15.328125 44.78125 15.328125 43.796875 
L 15.484375 43.796875 
Q 16.75 46.09375 18.265625 47.953125 
Q 19.78125 49.8125 21.78125 51.09375 
Q 23.78125 52.390625 26.359375 53.09375 
Q 28.953125 53.8125 32.375 53.8125 
Q 36.765625 53.8125 39.9375 52.734375 
Q 43.109375 51.65625 45.15625 49.40625 
Q 47.21875 47.171875 48.171875 43.625 
Q 49.125 40.09375 49.125 35.203125 
L 49.125 0 
z
" id="LiberationSans-110"/>
     <path d="M 51.421875 26.65625 
Q 51.421875 20.65625 50.4375 15.578125 
Q 49.46875 10.5 47.1875 6.828125 
Q 44.921875 3.171875 41.1875 1.09375 
Q 37.453125 -0.984375 31.984375 -0.984375 
Q 26.3125 -0.984375 22.0625 1.171875 
Q 17.828125 3.328125 15.578125 8.203125 
L 15.328125 8.203125 
Q 15.375 8.109375 15.40625 7.328125 
Q 15.4375 6.546875 15.453125 5.375 
Q 15.484375 4.203125 15.5 2.75 
Q 15.53125 1.3125 15.53125 -0.09375 
L 15.53125 -20.75 
L 6.734375 -20.75 
L 6.734375 42.046875 
Q 6.734375 43.953125 6.703125 45.703125 
Q 6.6875 47.46875 6.640625 48.90625 
Q 6.59375 50.34375 6.546875 51.359375 
Q 6.5 52.390625 6.453125 52.828125 
L 14.9375 52.828125 
Q 14.984375 52.6875 15.0625 51.796875 
Q 15.140625 50.921875 15.203125 49.671875 
Q 15.28125 48.4375 15.359375 47.015625 
Q 15.4375 45.609375 15.4375 44.34375 
L 15.625 44.34375 
Q 16.84375 46.875 18.40625 48.65625 
Q 19.96875 50.4375 21.96875 51.578125 
Q 23.96875 52.734375 26.4375 53.25 
Q 28.90625 53.765625 31.984375 53.765625 
Q 37.453125 53.765625 41.1875 51.8125 
Q 44.921875 49.859375 47.1875 46.3125 
Q 49.46875 42.78125 50.4375 37.765625 
Q 51.421875 32.765625 51.421875 26.65625 
z
M 42.1875 26.46875 
Q 42.1875 31.34375 41.59375 35.15625 
Q 41.015625 38.96875 39.578125 41.59375 
Q 38.140625 44.234375 35.734375 45.59375 
Q 33.34375 46.96875 29.734375 46.96875 
Q 26.8125 46.96875 24.21875 46.140625 
Q 21.625 45.3125 19.703125 42.96875 
Q 17.78125 40.625 16.65625 36.5 
Q 15.53125 32.375 15.53125 25.78125 
Q 15.53125 20.171875 16.453125 16.28125 
Q 17.390625 12.40625 19.171875 10.015625 
Q 20.953125 7.625 23.578125 6.5625 
Q 26.21875 5.515625 29.640625 5.515625 
Q 33.296875 5.515625 35.71875 6.921875 
Q 38.140625 8.34375 39.578125 11.03125 
Q 41.015625 13.71875 41.59375 17.59375 
Q 42.1875 21.484375 42.1875 26.46875 
z
" id="LiberationSans-112"/>
     <path d="M 51.421875 26.46875 
Q 51.421875 12.59375 45.3125 5.796875 
Q 39.203125 -0.984375 27.59375 -0.984375 
Q 22.078125 -0.984375 17.71875 0.671875 
Q 13.375 2.34375 10.375 5.765625 
Q 7.375 9.1875 5.78125 14.328125 
Q 4.203125 19.484375 4.203125 26.46875 
Q 4.203125 53.8125 27.875 53.8125 
Q 34.03125 53.8125 38.5 52.09375 
Q 42.96875 50.390625 45.828125 46.96875 
Q 48.6875 43.5625 50.046875 38.421875 
Q 51.421875 33.296875 51.421875 26.46875 
z
M 42.1875 26.46875 
Q 42.1875 32.625 41.234375 36.625 
Q 40.28125 40.625 38.453125 43.015625 
Q 36.625 45.40625 33.984375 46.359375 
Q 31.34375 47.3125 28.03125 47.3125 
Q 24.65625 47.3125 21.9375 46.3125 
Q 19.234375 45.3125 17.328125 42.890625 
Q 15.4375 40.484375 14.421875 36.46875 
Q 13.421875 32.46875 13.421875 26.46875 
Q 13.421875 20.3125 14.5 16.28125 
Q 15.578125 12.25 17.453125 9.859375 
Q 19.34375 7.46875 21.90625 6.484375 
Q 24.46875 5.515625 27.484375 5.515625 
Q 30.859375 5.515625 33.59375 6.46875 
Q 36.328125 7.421875 38.234375 9.8125 
Q 40.140625 12.203125 41.15625 16.25 
Q 42.1875 20.3125 42.1875 26.46875 
z
" id="LiberationSans-111"/>
     <path d="M 27.046875 0.390625 
Q 25.046875 -0.140625 22.96875 -0.453125 
Q 20.90625 -0.78125 18.171875 -0.78125 
Q 7.625 -0.78125 7.625 11.1875 
L 7.625 46.4375 
L 1.515625 46.4375 
L 1.515625 52.828125 
L 7.953125 52.828125 
L 10.546875 64.65625 
L 16.40625 64.65625 
L 16.40625 52.828125 
L 26.171875 52.828125 
L 26.171875 46.4375 
L 16.40625 46.4375 
L 16.40625 13.09375 
Q 16.40625 9.28125 17.640625 7.734375 
Q 18.890625 6.203125 21.96875 6.203125 
Q 23.25 6.203125 24.4375 6.390625 
Q 25.640625 6.59375 27.046875 6.890625 
z
" id="LiberationSans-116"/>
     <path d="M 6.6875 64.0625 
L 6.6875 72.46875 
L 15.484375 72.46875 
L 15.484375 64.0625 
z
M 6.6875 0 
L 6.6875 52.828125 
L 15.484375 52.828125 
L 15.484375 0 
z
" id="LiberationSans-105"/>
     <path d="M 6.734375 0 
L 6.734375 72.46875 
L 15.53125 72.46875 
L 15.53125 0 
z
" id="LiberationSans-108"/>
    </defs>
    <use xlink:href="#LiberationSans-77"/>
    <use x="83.300781" xlink:href="#LiberationSans-50"/>
    <use x="138.916016" xlink:href="#LiberationSans-32"/>
    <use x="166.699219" xlink:href="#LiberationSans-45"/>
    <use x="200" xlink:href="#LiberationSans-32"/>
    <use x="227.783203" xlink:href="#LiberationSans-109"/>
    <use x="311.083984" xlink:href="#LiberationSans-101"/>
    <use x="366.699219" xlink:href="#LiberationSans-109"/>
    <use x="450" xlink:href="#LiberationSans-98"/>
    <use x="505.615234" xlink:href="#LiberationSans-114"/>
    <use x="538.916016" xlink:href="#LiberationSans-97"/>
    <use x="594.53125" xlink:href="#LiberationSans-110"/>
    <use x="650.146484" xlink:href="#LiberationSans-101"/>
    <use x="705.761719" xlink:href="#LiberationSans-32"/>
    <use x="733.544922" xlink:href="#LiberationSans-112"/>
    <use x="789.160156" xlink:href="#LiberationSans-111"/>
    <use x="844.775391" xlink:href="#LiberationSans-116"/>
    <use x="872.558594" xlink:href="#LiberationSans-101"/>
    <use x="928.173828" xlink:href="#LiberationSans-110"/>
    <use x="983.789062" xlink:href="#LiberationSans-116"/>
    <use x="1011.572266" xlink:href="#LiberationSans-105"/>
    <use x="1033.789062" xlink:href="#LiberationSans-97"/>
    <use x="1089.404297" xlink:href="#LiberationSans-108"/>
   </g>
  </g>
 </g>
 <defs>
  <clipPath id="p119c45d713">
   <rect height="78.268235" width="357.12" x="57.6" y="41.472"/>
  </clipPath>
  <clipPath id="pb3e8eb20d9">
   <rect height="78.268235" width="357.12" x="57.6" y="135.393882"/>
  </clipPath>
 </defs>
</svg>
